M48
; DRILL file {KiCad 7.0.8} date Sun Nov 12 21:10:43 2023
; FORMAT={-:-/ absolute / metric / decimal}
; #@! TF.CreationDate,2023-11-12T21:10:43-08:00
; #@! TF.GenerationSoftware,Kicad,Pcbnew,7.0.8
; #@! TF.FileFunction,Plated,1,4,PTH
FMAT,2
METRIC
; #@! TA.AperFunction,Plated,PTH,ViaDrill
T1C0.203
; #@! TA.AperFunction,Plated,PTH,ComponentDrill
T2C0.250
; #@! TA.AperFunction,Plated,PTH,ViaDrill
T3C0.356
; #@! TA.AperFunction,Plated,PTH,ComponentDrill
T4C0.500
; #@! TA.AperFunction,Plated,PTH,ComponentDrill
T5C3.200
%
G90
G05
T1
X89.5Y-81.5
X89.5Y-83.0
X89.5Y-84.5
X89.5Y-86.0
X89.5Y-87.5
X89.5Y-89.0
X89.5Y-90.5
X89.5Y-92.0
X89.5Y-93.5
X89.5Y-95.0
X89.5Y-96.5
X89.5Y-98.0
X89.5Y-99.5
X89.5Y-101.0
X89.5Y-102.5
X89.5Y-104.0
X89.5Y-105.5
X89.5Y-107.0
X89.5Y-108.5
X89.5Y-110.0
X89.5Y-111.5
X89.5Y-113.0
X89.5Y-114.5
X89.5Y-116.0
X90.0Y-117.5
X90.5Y-82.5
X91.0Y-118.5
X91.325Y-106.475
X91.36Y-116.61
X91.425Y-89.575
X91.425Y-103.275
X91.475Y-93.025
X91.475Y-96.125
X91.475Y-102.325
X91.5Y-108.0
X91.5Y-112.0
X91.525Y-86.275
X91.525Y-99.475
X91.785Y-82.809
X92.5Y-88.0
X92.5Y-98.0
X92.5Y-110.0
X92.5Y-119.0
X93.3Y-84.775
X93.425Y-91.175
X93.425Y-94.675
X93.5Y-82.8
X93.5Y-113.0
X93.525Y-100.975
X93.835Y-115.085
X93.935Y-104.865
X94.0Y-119.0
X94.525Y-111.275
X94.8Y-82.2
X95.0Y-76.0
X95.29Y-116.675
X95.325Y-103.275
X95.4Y-83.6
X95.5Y-96.0
X95.5Y-119.0
X95.525Y-90.375
X95.75Y-77.0
X95.8Y-81.1
X95.825Y-98.475
X96.0Y-82.5
X96.291Y-79.596
X96.5Y-76.0
X96.5Y-86.0
X96.5Y-101.0
X96.635Y-104.865
X96.725Y-77.975
X96.825Y-106.475
X96.825Y-115.075
X97.0Y-119.0
X97.025Y-113.475
X97.225Y-105.775
X97.225Y-109.975
X97.5Y-116.0
X97.787Y-99.475
X97.887Y-102.675
X98.0Y-76.0
X98.0Y-114.25
X98.3Y-79.975
X98.5Y-119.0
X99.0Y-113.25
X99.5Y-76.0
X99.5Y-86.0
X99.5Y-91.0
X99.725Y-93.975
X99.875Y-77.975
X100.25Y-112.5
X100.4Y-103.5
X100.5Y-99.0
X100.525Y-105.775
X101.0Y-76.0
X101.2Y-82.6
X101.5Y-88.0
X101.5Y-112.25
X102.25Y-107.75
X102.3Y-95.0
X102.475Y-84.575
X102.5Y-76.0
X102.5Y-78.0
X102.5Y-105.75
X102.75Y-112.5
X103.35Y-82.075
X103.5Y-86.0
X103.5Y-91.0
X103.5Y-94.0
X103.5Y-104.0
X103.5Y-108.25
X104.0Y-76.0
X104.0Y-113.25
X104.5Y-79.0
X104.5Y-89.0
X104.5Y-119.0
X104.75Y-114.25
X104.875Y-84.65
X104.9Y-109.6
X105.0Y-117.75
X105.1Y-108.0
X105.5Y-76.0
X105.85Y-82.075
X106.075Y-84.55
X106.2Y-119.0
X106.5Y-78.0
X106.5Y-88.0
X106.5Y-95.0
X106.525Y-98.575
X107.0Y-76.0
X107.275Y-84.6
X107.5Y-92.0
X107.6Y-114.5
X107.6Y-116.0
X107.6Y-117.5
X107.6Y-119.0
X107.7Y-103.5
X107.7Y-112.3
X108.125Y-98.575
X108.3Y-113.3
X108.35Y-82.075
X108.5Y-76.0
X108.5Y-88.7
X108.7Y-103.0
X109.025Y-98.375
X109.2Y-85.3
X109.5Y-79.0
X109.6Y-97.2
X109.675Y-84.4
X110.0Y-76.0
X110.5Y-85.0
X110.5Y-88.0
X110.5Y-94.0
X110.85Y-82.075
X111.2Y-112.7
X111.5Y-76.0
X111.5Y-78.0
X111.9Y-106.7
X111.925Y-108.675
X112.025Y-110.575
X112.5Y-91.0
X112.9Y-98.8
X112.9Y-112.7
X113.0Y-76.0
X113.1Y-84.4
X113.225Y-77.975
X113.225Y-111.775
X113.325Y-105.475
X113.5Y-88.8
X113.7Y-97.6
X114.5Y-76.0
X114.5Y-96.0
X114.5Y-112.7
X114.65Y-79.975
X115.225Y-105.475
X115.225Y-108.675
X115.3Y-98.7
X115.325Y-111.875
X115.4Y-87.4
X115.5Y-88.5
X115.6Y-89.3
X115.8Y-91.5
X115.8Y-92.4
X115.8Y-94.0
X115.8Y-94.8
X116.0Y-76.0
X116.075Y-112.7
X116.475Y-77.975
X116.9Y-100.9
X117.25Y-105.5
X117.25Y-111.75
X117.5Y-76.0
X117.6Y-102.9
X117.625Y-112.7
X117.9Y-86.7
X118.3Y-79.975
X118.425Y-102.775
X118.525Y-106.675
X118.525Y-108.675
X118.525Y-110.675
X119.0Y-76.0
X119.3Y-112.7
X119.975Y-77.975
X120.5Y-76.0
X120.85Y-82.075
X121.225Y-102.975
X121.275Y-85.139
X121.925Y-112.275
X122.0Y-76.0
X122.1Y-111.3
X122.125Y-113.275
X122.5Y-78.0
X122.5Y-83.8
X122.5Y-102.5
X122.8Y-98.0
X122.9Y-97.1
X123.0Y-114.5
X123.0Y-116.0
X123.0Y-117.5
X123.0Y-119.0
X123.025Y-104.0
X123.35Y-82.075
X123.5Y-76.0
X123.675Y-85.1
X123.8Y-96.8
X123.825Y-111.4
X123.9Y-100.8
X124.0Y-99.4
X124.1Y-100.1
X124.5Y-117.0
X124.5Y-119.0
X124.625Y-113.875
X124.875Y-83.8
X125.0Y-76.0
X125.325Y-104.775
X125.325Y-106.375
X125.425Y-108.775
X125.425Y-111.4
X125.5Y-79.0
X125.6Y-97.8
X125.8Y-117.9
X125.85Y-82.075
X126.0Y-119.0
X126.075Y-85.1
X126.2Y-108.8
X126.225Y-113.875
X126.3Y-100.1
X126.3Y-115.6
X126.5Y-76.0
X126.5Y-103.0
X127.025Y-117.075
X127.1Y-114.5
X127.3Y-83.8
X127.3Y-95.4
X127.5Y-119.0
X128.0Y-76.0
X128.1Y-103.1
X128.1Y-106.5
X128.35Y-82.075
X128.475Y-85.1
X128.5Y-78.0
X128.725Y-115.075
X129.0Y-119.0
X129.1Y-109.4
X129.4Y-91.4
X129.5Y-76.0
X129.5Y-88.7
X129.5Y-89.7
X129.6Y-94.6
X129.9Y-104.4
X129.9Y-107.3
X129.907Y-103.5
X130.0Y-100.175
X130.05Y-96.65
X130.2Y-98.4
X130.3Y-88.7
X130.325Y-117.075
X130.5Y-79.0
X130.5Y-119.0
X130.85Y-82.075
X131.0Y-76.0
X131.1Y-88.7
X131.4Y-85.2
X131.5Y-109.0
X131.6Y-117.6
X131.9Y-88.7
X132.0Y-119.0
X132.1Y-83.8
X132.5Y-76.0
X132.5Y-99.0
X132.5Y-107.9
X132.7Y-88.7
X132.975Y-77.975
X133.125Y-103.725
X133.325Y-89.375
X133.5Y-111.0
X133.5Y-119.0
X133.7Y-93.575
X133.7Y-95.175
X133.75Y-112.9
X133.875Y-82.675
X134.0Y-76.0
X134.025Y-94.375
X134.2Y-117.6
X134.6Y-104.95
X134.6Y-110.8
X134.65Y-79.975
X134.925Y-112.875
X135.0Y-119.0
X135.225Y-99.075
X135.225Y-100.675
X135.225Y-102.275
X135.5Y-76.0
X135.925Y-117.075
X136.275Y-82.675
X136.475Y-77.975
X136.5Y-114.0
X136.5Y-119.0
X136.825Y-91.075
X137.0Y-76.0
X137.5Y-106.0
X137.5Y-110.0
X138.0Y-119.0
X138.175Y-79.975
X138.225Y-92.375
X138.375Y-88.075
X138.5Y-76.0
X138.5Y-107.0
X138.5Y-111.0
X139.225Y-117.075
X139.5Y-119.0
X139.65Y-113.6
X139.775Y-89.675
X139.925Y-102.625
X139.975Y-77.975
X140.0Y-76.0
X140.25Y-107.25
X140.925Y-102.625
X141.0Y-104.75
X141.0Y-119.0
X141.5Y-76.0
X141.5Y-107.0
X141.5Y-110.5
X141.55Y-98.1
X141.775Y-94.225
X142.0Y-113.25
X142.225Y-114.275
X142.5Y-78.0
X142.5Y-96.0
X142.5Y-109.75
X142.5Y-119.0
X142.575Y-100.225
X142.975Y-105.6
X143.0Y-76.0
X143.25Y-115.0
X143.375Y-100.225
X143.525Y-109.625
X143.725Y-94.175
X143.95Y-98.7
X144.0Y-119.0
X144.25Y-115.5
X144.5Y-76.0
X144.5Y-97.0
X144.5Y-100.2
X144.5Y-113.0
X144.559Y-105.58
X144.725Y-94.175
X145.25Y-115.0
X145.5Y-79.0
X145.5Y-119.0
X145.625Y-94.375
X145.75Y-113.5
X146.0Y-76.0
X146.0Y-107.25
X146.025Y-105.575
X146.25Y-115.5
X146.5Y-96.0
X146.825Y-109.625
X147.0Y-113.0
X147.0Y-119.0
X147.025Y-112.025
X147.25Y-115.0
X147.5Y-76.0
X147.5Y-78.0
X147.7Y-109.6
X148.175Y-101.525
X148.25Y-115.5
X148.5Y-119.0
X149.0Y-76.0
X149.225Y-77.975
X149.25Y-115.0
X149.325Y-109.725
X149.725Y-112.125
X150.0Y-119.0
X150.3Y-112.7
X150.5Y-76.0
X150.5Y-113.5
X150.775Y-79.975
X150.8Y-97.2
X151.25Y-109.25
X151.4Y-89.2
X151.5Y-107.0
X151.5Y-119.0
X151.738Y-96.412
X151.75Y-112.5
X152.0Y-76.0
X152.3Y-77.975
X152.5Y-109.0
X152.7Y-87.1
X152.762Y-96.412
X152.825Y-102.675
X153.0Y-77.4
X153.0Y-79.0
X153.0Y-80.5
X153.0Y-82.0
X153.0Y-119.0
X153.5Y-76.0
X153.5Y-83.5
X153.5Y-85.0
X153.6Y-86.2
X153.75Y-108.0
X154.025Y-99.375
X154.025Y-100.975
X154.2Y-95.95
X154.5Y-104.0
X154.5Y-106.0
X154.5Y-119.0
X154.8Y-93.2
X154.9Y-90.7
X155.1Y-86.9
X155.2Y-116.4
X155.225Y-77.475
X155.225Y-79.475
X155.225Y-81.475
X155.225Y-83.475
X155.225Y-85.475
X155.787Y-113.387
X155.95Y-99.55
X155.975Y-91.475
X155.975Y-92.475
X155.975Y-93.475
X156.0Y-109.75
X156.0Y-119.0
X156.225Y-76.475
X156.225Y-78.475
X156.225Y-80.475
X156.225Y-82.475
X156.225Y-84.475
X156.225Y-86.475
X156.5Y-104.0
X156.6Y-106.3
X156.6Y-108.3
X156.9Y-117.5
X156.975Y-91.475
X156.975Y-92.475
X156.975Y-93.475
X157.1Y-115.9
X157.225Y-77.475
X157.225Y-83.475
X157.225Y-85.475
X157.225Y-87.475
X157.25Y-96.0
X157.3Y-107.2
X157.5Y-114.0
X157.5Y-119.0
X157.7Y-97.0
X157.9Y-94.7
X157.9Y-106.3
X157.9Y-108.2
X157.975Y-91.475
X157.975Y-92.475
X157.975Y-93.475
X158.225Y-76.475
X158.225Y-84.475
X158.225Y-86.475
X158.5Y-107.2
X158.975Y-91.475
X158.975Y-92.475
X158.975Y-93.475
X159.0Y-119.0
X159.2Y-106.3
X159.2Y-108.2
X159.225Y-83.475
X159.225Y-85.475
X159.225Y-87.475
X159.5Y-113.0
X159.5Y-117.7
X159.6Y-114.4
X159.9Y-94.5
X159.9Y-101.3
X159.975Y-91.475
X159.975Y-92.475
X159.975Y-93.475
X160.225Y-76.475
X160.225Y-84.475
X160.225Y-86.475
X160.5Y-89.0
X160.5Y-90.0
X160.5Y-119.0
X160.6Y-102.1
X160.975Y-91.475
X160.975Y-92.475
X160.975Y-93.475
X161.225Y-83.475
X161.225Y-85.475
X161.225Y-87.475
X161.4Y-77.2
X161.4Y-94.4
X161.4Y-101.3
X161.5Y-90.0
X161.5Y-105.0
X161.5Y-109.0
X161.5Y-114.0
X161.5Y-117.9
X161.961Y-97.082
X161.965Y-95.754
X161.975Y-91.475
X161.975Y-92.475
X161.975Y-93.475
X162.0Y-89.0
X162.0Y-119.0
X162.225Y-76.475
X162.225Y-82.475
X162.225Y-84.475
X162.225Y-86.475
X162.3Y-116.6
X162.42Y-96.445
X162.5Y-90.0
X162.5Y-102.1
X162.5Y-107.0
X162.6Y-78.4
X162.865Y-95.762
X162.865Y-97.066
X162.975Y-91.475
X162.975Y-92.475
X162.975Y-93.475
X163.2Y-101.3
X163.225Y-77.475
X163.225Y-79.475
X163.225Y-81.475
X163.225Y-83.475
X163.225Y-85.475
X163.225Y-87.475
X163.5Y-89.0
X163.5Y-90.0
X163.5Y-104.0
X163.5Y-113.0
X163.5Y-119.0
X163.6Y-114.5
X163.895Y-95.005
X164.0Y-117.4
X165.0Y-119.0
X165.05Y-110.8
X165.1Y-114.9
X165.225Y-84.075
X165.3Y-116.8
X165.4Y-111.6
X165.5Y-89.0
X165.5Y-91.0
X165.5Y-93.0
X165.5Y-114.0
X166.5Y-76.0
X166.5Y-82.0
X166.5Y-84.0
X166.5Y-88.0
X166.5Y-90.0
X166.5Y-92.0
X166.5Y-109.9
X166.5Y-111.4
X166.5Y-113.0
X166.5Y-114.5
X166.5Y-117.5
X166.5Y-119.0
X167.5Y-77.0
X167.5Y-79.0
X167.5Y-81.0
X167.5Y-83.0
X167.5Y-89.0
X167.5Y-91.0
X167.5Y-93.0
X167.8Y-103.0
X168.5Y-76.0
X168.5Y-78.0
X168.5Y-82.0
X168.5Y-84.0
X168.5Y-86.0
X168.5Y-88.0
X168.5Y-90.0
X168.5Y-92.0
X168.5Y-111.0
X168.5Y-113.0
X168.5Y-115.0
X168.5Y-117.0
X168.5Y-119.0
X168.609Y-102.991
X168.8Y-100.95
X169.5Y-77.0
X169.5Y-83.0
X169.5Y-85.0
X169.5Y-87.0
X169.5Y-89.0
X169.5Y-91.0
X169.5Y-93.0
X169.5Y-99.0
X169.5Y-110.0
X169.5Y-112.0
X169.5Y-114.0
X169.5Y-118.0
X170.1Y-116.0
X170.3Y-102.15
X170.5Y-76.0
X170.5Y-84.0
X170.5Y-86.0
X170.5Y-88.0
X170.5Y-90.0
X170.5Y-92.0
X170.5Y-94.0
X170.5Y-96.0
X170.5Y-98.0
X170.5Y-107.0
X170.5Y-109.0
X170.5Y-111.0
X170.5Y-113.0
X170.5Y-115.0
X170.5Y-117.0
X170.5Y-119.0
X171.4Y-102.2
X171.5Y-85.0
X171.5Y-87.0
X171.5Y-89.0
X171.5Y-91.0
X171.5Y-93.0
X171.5Y-95.0
X171.5Y-97.0
X171.5Y-99.0
X171.5Y-106.0
X171.5Y-108.0
X171.5Y-110.0
X171.5Y-112.0
X171.5Y-114.0
X171.5Y-116.0
X171.5Y-118.0
X172.5Y-76.0
X172.5Y-84.0
X172.5Y-86.0
X172.5Y-88.0
X172.5Y-90.0
X172.5Y-92.0
X172.5Y-94.0
X172.5Y-96.0
X172.5Y-98.0
X172.5Y-100.0
X172.5Y-107.0
X172.5Y-109.0
X172.5Y-115.0
X172.5Y-117.0
X172.5Y-119.0
X173.5Y-77.0
X173.5Y-83.0
X173.5Y-85.0
X173.5Y-87.0
X173.5Y-89.0
X173.5Y-91.0
X173.5Y-93.0
X173.5Y-95.0
X173.5Y-97.0
X173.5Y-99.0
X173.5Y-106.0
X173.5Y-108.0
X173.5Y-116.0
X173.5Y-118.3
X173.625Y-104.875
X174.4Y-87.9
X174.5Y-76.0
X174.5Y-78.0
X174.5Y-82.0
X174.5Y-84.0
X174.5Y-86.0
X174.5Y-96.0
X174.5Y-98.0
X174.5Y-100.0
X174.5Y-107.0
X174.5Y-115.0
X174.5Y-119.0
X174.625Y-92.375
X175.425Y-103.287
X175.45Y-91.38
X175.45Y-96.955
X175.5Y-77.0
X175.5Y-79.0
X175.5Y-81.0
X175.5Y-83.0
X175.5Y-87.0
X175.5Y-99.0
X175.5Y-106.0
X175.5Y-108.0
X175.5Y-116.0
X175.5Y-118.3
X176.2Y-80.0
X176.2Y-82.0
X176.5Y-76.0
X176.5Y-78.0
X176.5Y-84.0
X176.5Y-107.0
X176.5Y-109.0
X176.5Y-115.0
X176.5Y-119.0
X177.0Y-87.5
X177.0Y-95.5
X177.5Y-102.693
X177.5Y-106.0
X177.5Y-108.0
X177.5Y-110.0
X177.5Y-114.0
X177.5Y-115.7
X177.5Y-118.0
X178.0Y-88.5
X178.0Y-90.5
X178.0Y-92.5
X178.0Y-94.5
X178.0Y-96.5
X178.4Y-116.5
X178.5Y-76.0
X178.5Y-78.0
X178.5Y-80.0
X178.5Y-82.0
X178.5Y-84.0
X178.5Y-107.0
X178.5Y-109.0
X178.5Y-111.0
X178.5Y-113.0
X178.5Y-115.0
X178.5Y-119.0
X179.0Y-87.5
X179.0Y-89.5
X179.0Y-91.5
X179.0Y-93.5
X179.0Y-95.5
X179.125Y-98.875
X179.425Y-102.575
X179.5Y-77.0
X179.5Y-79.0
X179.5Y-81.0
X179.5Y-83.0
X179.5Y-106.0
X179.5Y-108.0
X179.5Y-110.0
X179.5Y-112.0
X179.5Y-114.0
X179.5Y-116.0
X180.0Y-88.5
X180.0Y-90.5
X180.0Y-92.5
X180.0Y-94.5
X180.0Y-96.5
X180.5Y-76.0
X180.5Y-78.0
X180.5Y-82.0
X180.5Y-84.0
X180.5Y-107.0
X180.5Y-109.0
X180.5Y-111.0
X180.5Y-113.0
X180.5Y-115.0
X180.5Y-116.5
X180.5Y-119.0
X181.0Y-85.5
X181.0Y-87.5
X181.0Y-89.5
X181.0Y-91.5
X181.0Y-93.5
X181.0Y-95.5
X181.025Y-102.575
X181.25Y-99.675
X181.5Y-77.0
X181.5Y-83.0
X181.5Y-106.0
X181.5Y-108.0
X181.5Y-110.0
X181.5Y-112.0
X181.5Y-114.0
X181.5Y-116.0
X182.0Y-86.5
X182.0Y-88.5
X182.0Y-90.5
X182.0Y-92.5
X182.0Y-94.5
X182.0Y-96.5
X182.5Y-76.0
X182.5Y-84.0
X182.5Y-107.0
X182.5Y-109.0
X182.5Y-111.0
X182.5Y-113.0
X182.5Y-115.0
X182.5Y-116.5
X182.5Y-119.0
X183.0Y-85.5
X183.0Y-87.5
X183.0Y-89.5
X183.0Y-91.5
X183.0Y-93.5
X183.0Y-95.5
X183.425Y-102.575
X183.5Y-106.0
X183.5Y-108.0
X183.5Y-110.0
X183.5Y-112.0
X183.5Y-114.0
X183.5Y-116.0
X184.0Y-86.5
X184.0Y-88.5
X184.0Y-90.5
X184.0Y-92.5
X184.0Y-94.5
X184.0Y-96.2
X184.5Y-76.0
X184.5Y-84.0
X184.5Y-107.0
X184.5Y-109.0
X184.5Y-111.0
X184.5Y-115.0
X184.5Y-116.5
X184.5Y-119.0
X185.0Y-85.5
X185.0Y-87.5
X185.0Y-89.5
X185.0Y-91.5
X185.0Y-93.5
X185.0Y-95.5
X185.025Y-102.575
X185.5Y-77.0
X185.5Y-83.0
X185.5Y-112.0
X185.5Y-113.0
X185.9Y-96.2
X186.0Y-86.5
X186.0Y-92.5
X186.0Y-94.5
X186.5Y-76.0
X186.5Y-78.0
X186.5Y-82.0
X186.5Y-83.8
X186.5Y-106.0
X186.5Y-108.0
X186.5Y-110.0
X186.5Y-119.0
X187.0Y-85.5
X187.0Y-87.5
X187.0Y-112.0
X187.0Y-113.0
X187.0Y-115.5
X187.1Y-93.8
X187.2Y-101.775
X187.2Y-104.175
X187.5Y-77.0
X187.5Y-79.0
X187.5Y-81.0
X187.5Y-83.0
X187.5Y-107.0
X187.5Y-109.0
X187.5Y-111.0
X187.5Y-116.5
X187.6Y-94.3
X187.875Y-95.675
X188.0Y-86.5
X188.0Y-119.0
X188.1Y-80.0
X188.1Y-82.0
X188.2Y-78.0
X188.2Y-99.2
X188.5Y-76.0
X188.5Y-84.0
X188.5Y-106.0
X188.5Y-108.0
X188.5Y-110.0
X188.5Y-114.5
X188.7Y-91.6
X188.7Y-92.5
X188.7Y-93.4
X189.0Y-85.5
X189.0Y-87.5
X189.3Y-90.9
X189.5Y-91.6
X189.5Y-92.5
X189.5Y-93.4
X189.5Y-107.0
X189.5Y-109.0
X189.5Y-112.0
X189.5Y-116.0
X189.5Y-119.0
X189.775Y-95.675
X189.925Y-100.975
X189.925Y-110.775
X189.931Y-100.206
X189.996Y-101.794
X190.0Y-76.0
X190.0Y-84.0
X190.1Y-90.9
X190.2Y-82.0
X190.3Y-78.0
X190.3Y-80.0
X190.5Y-106.0
X190.5Y-108.0
X190.556Y-103.463
X190.9Y-91.6
X190.9Y-99.274
X191.0Y-77.0
X191.0Y-79.0
X191.0Y-81.0
X191.0Y-83.0
X191.0Y-85.0
X191.0Y-87.0
X191.0Y-116.5
X191.0Y-119.0
X191.025Y-102.475
X191.25Y-90.0
X191.291Y-100.566
X191.35Y-95.175
X191.5Y-107.0
X191.5Y-109.0
X191.7Y-91.6
X192.0Y-76.0
X192.0Y-78.0
X192.0Y-80.0
X192.0Y-82.0
X192.0Y-84.0
X192.0Y-86.0
X192.0Y-88.0
X192.062Y-104.6
X192.125Y-98.675
X192.125Y-99.875
X192.25Y-90.0
X192.5Y-91.6
X192.5Y-108.0
X192.5Y-110.0
X192.5Y-119.0
X192.8Y-104.903
X193.0Y-77.0
X193.0Y-83.0
X193.0Y-85.0
X193.0Y-87.0
X193.0Y-107.0
X193.0Y-109.0
X193.0Y-116.0
X193.225Y-101.175
X193.225Y-102.075
X193.225Y-102.975
X193.25Y-90.0
X193.3Y-91.6
X194.0Y-76.0
X194.0Y-84.0
X194.0Y-86.0
X194.0Y-88.0
X194.0Y-119.0
X194.125Y-101.175
X194.125Y-102.075
X194.125Y-102.975
X194.6Y-116.5
X194.7Y-92.0
X194.7Y-92.8
X194.7Y-93.6
X194.7Y-94.4
X194.7Y-95.2
X194.75Y-90.0
X194.75Y-97.75
X194.925Y-114.275
X195.0Y-76.7
X195.0Y-83.3
X195.0Y-85.0
X195.0Y-87.0
X195.025Y-101.175
X195.025Y-102.075
X195.025Y-102.975
X195.075Y-99.325
X195.225Y-104.875
X195.5Y-106.8
X195.5Y-107.6
X195.5Y-108.4
X195.5Y-119.0
X195.7Y-92.0
X195.7Y-92.8
X195.7Y-93.6
X195.7Y-94.4
X195.7Y-95.2
X195.75Y-90.0
X195.75Y-97.75
X195.837Y-104.275
X196.0Y-76.0
X196.0Y-84.0
X196.0Y-86.0
X196.0Y-88.0
X196.0Y-109.5
X196.1Y-107.2
X196.1Y-108.0
X196.125Y-105.075
X196.5Y-116.0
X196.7Y-92.0
X196.7Y-92.8
X196.7Y-93.6
X196.7Y-94.4
X196.7Y-95.2
X196.7Y-106.8
X196.7Y-107.6
X196.7Y-108.4
X196.75Y-90.0
X196.75Y-97.75
X196.825Y-101.775
X196.925Y-100.775
X196.975Y-103.225
X197.0Y-77.0
X197.0Y-83.0
X197.0Y-85.0
X197.0Y-87.0
X197.0Y-109.5
X197.0Y-119.0
X197.5Y-114.0
X197.925Y-105.0
X198.0Y-76.0
X198.0Y-78.0
X198.0Y-82.0
X198.0Y-84.0
X198.0Y-86.0
X198.0Y-88.0
X198.0Y-106.5
X198.0Y-107.5
X198.0Y-108.5
X198.0Y-116.5
X198.3Y-89.8
X198.3Y-90.6
X198.3Y-91.4
X198.3Y-92.2
X198.5Y-113.0
X198.5Y-115.0
X198.5Y-119.0
X199.0Y-77.0
X199.0Y-79.0
X199.0Y-81.0
X199.0Y-83.0
X199.0Y-85.0
X199.0Y-87.0
X199.0Y-108.0
X199.0Y-110.0
X199.1Y-89.8
X199.1Y-90.6
X199.1Y-91.4
X199.1Y-92.2
X199.3Y-84.0
X199.5Y-82.0
X199.5Y-105.4
X199.5Y-106.6
X199.5Y-109.0
X199.5Y-112.0
X199.5Y-114.0
X199.5Y-116.0
X199.6Y-85.7
X199.9Y-106.0
X200.0Y-76.0
X200.0Y-78.0
X200.0Y-80.0
X200.0Y-88.0
X200.0Y-108.0
X200.0Y-110.0
X200.0Y-119.0
X200.3Y-105.4
X200.3Y-106.6
X200.5Y-109.0
X200.5Y-112.0
X200.5Y-113.0
X200.5Y-115.0
X200.7Y-106.0
X200.825Y-103.275
X200.9Y-100.4
X200.9Y-102.0
X200.925Y-88.875
X201.0Y-77.0
X201.0Y-87.0
X201.0Y-108.0
X201.0Y-110.0
X201.1Y-105.4
X201.1Y-106.6
X201.183Y-94.039
X201.183Y-95.039
X201.2Y-96.1
X201.308Y-113.842
X201.5Y-76.0
X201.5Y-101.2
X201.5Y-102.6
X201.5Y-109.0
X201.5Y-112.0
X201.5Y-119.0
X201.6Y-85.0
X201.7Y-83.0
X201.8Y-103.4
X201.825Y-88.875
X202.0Y-82.0
X202.0Y-84.0
X202.0Y-86.0
X202.0Y-88.0
X202.0Y-110.0
X202.1Y-100.4
X202.1Y-102.0
X202.1Y-104.4
X202.183Y-94.039
X202.183Y-95.039
X202.2Y-96.1
X202.339Y-112.811
X202.5Y-109.0
X202.7Y-101.2
X202.7Y-102.8
X202.9Y-105.2
X203.0Y-83.0
X203.0Y-107.25
X203.0Y-110.5
X203.1Y-103.8
X203.183Y-94.039
X203.183Y-95.039
X203.2Y-96.1
X203.3Y-89.8
X203.3Y-90.6
X203.3Y-91.4
X203.3Y-92.2
X203.3Y-100.4
X203.3Y-102.0
X203.5Y-112.0
X203.9Y-104.6
X203.9Y-105.8
X204.0Y-88.0
X204.0Y-108.0
X204.3Y-89.8
X204.3Y-90.6
X204.3Y-91.4
X204.3Y-92.2
X204.3Y-105.2
X204.5Y-109.0
X204.5Y-111.0
X204.7Y-104.6
X204.7Y-105.8
X205.1Y-105.2
X205.5Y-104.6
X205.5Y-105.8
X205.5Y-108.5
X205.5Y-110.0
X205.5Y-112.0
X206.225Y-86.125
X206.5Y-84.0
X206.5Y-108.0
X206.5Y-109.0
X206.5Y-111.0
X206.525Y-106.875
X207.5Y-82.5
X207.5Y-86.1
X207.5Y-87.4
X207.5Y-88.7
X207.5Y-90.0
X207.5Y-91.5
X207.5Y-93.0
X207.5Y-94.5
X207.5Y-96.0
X207.5Y-97.5
X207.5Y-99.0
X207.5Y-100.5
X207.5Y-102.0
X207.5Y-103.5
X207.5Y-105.0
X207.5Y-106.5
X207.5Y-108.0
X207.5Y-109.5
X207.5Y-111.0
X207.5Y-112.5
T2
X148.375Y-110.475
X148.375Y-111.475
T3
X96.925Y-112.375
X97.006Y-107.444
X153.925Y-113.825
X167.425Y-95.075
X167.425Y-97.475
T4
X90.1Y-79.0
X90.803Y-77.303
X90.803Y-80.697
X92.5Y-76.6
X92.5Y-81.4
X94.197Y-77.303
X94.197Y-80.697
X94.9Y-79.0
X99.1Y-116.0
X99.803Y-114.303
X99.803Y-117.697
X101.5Y-113.6
X101.5Y-118.4
X103.197Y-114.303
X103.197Y-117.697
X103.9Y-116.0
X202.1Y-79.0
X202.1Y-116.0
X202.803Y-77.303
X202.803Y-80.697
X202.803Y-114.303
X202.803Y-117.697
X204.5Y-76.6
X204.5Y-81.4
X204.5Y-113.6
X204.5Y-118.4
X206.197Y-77.303
X206.197Y-80.697
X206.197Y-114.303
X206.197Y-117.697
X206.9Y-79.0
X206.9Y-116.0
T5
X92.5Y-79.0
X101.5Y-116.0
X204.5Y-79.0
X204.5Y-116.0
T0
M30
