G04 #@! TF.GenerationSoftware,KiCad,Pcbnew,7.0.8*
G04 #@! TF.CreationDate,2023-11-12T21:10:40-08:00*
G04 #@! TF.ProjectId,bms,626d732e-6b69-4636-9164-5f7063625858,V1*
G04 #@! TF.SameCoordinates,Original*
G04 #@! TF.FileFunction,Paste,Bot*
G04 #@! TF.FilePolarity,Positive*
%FSLAX46Y46*%
G04 Gerber Fmt 4.6, Leading zero omitted, Abs format (unit mm)*
G04 Created by KiCad (PCBNEW 7.0.8) date 2023-11-12 21:10:40*
%MOMM*%
%LPD*%
G01*
G04 APERTURE LIST*
G04 Aperture macros list*
%AMRoundRect*
0 Rectangle with rounded corners*
0 $1 Rounding radius*
0 $2 $3 $4 $5 $6 $7 $8 $9 X,Y pos of 4 corners*
0 Add a 4 corners polygon primitive as box body*
4,1,4,$2,$3,$4,$5,$6,$7,$8,$9,$2,$3,0*
0 Add four circle primitives for the rounded corners*
1,1,$1+$1,$2,$3*
1,1,$1+$1,$4,$5*
1,1,$1+$1,$6,$7*
1,1,$1+$1,$8,$9*
0 Add four rect primitives between the rounded corners*
20,1,$1+$1,$2,$3,$4,$5,0*
20,1,$1+$1,$4,$5,$6,$7,0*
20,1,$1+$1,$6,$7,$8,$9,0*
20,1,$1+$1,$8,$9,$2,$3,0*%
G04 Aperture macros list end*
%ADD10RoundRect,0.200000X-0.200000X-0.275000X0.200000X-0.275000X0.200000X0.275000X-0.200000X0.275000X0*%
%ADD11RoundRect,0.200000X0.200000X0.275000X-0.200000X0.275000X-0.200000X-0.275000X0.200000X-0.275000X0*%
%ADD12RoundRect,0.225000X-0.225000X-0.250000X0.225000X-0.250000X0.225000X0.250000X-0.225000X0.250000X0*%
%ADD13RoundRect,0.225000X0.225000X0.250000X-0.225000X0.250000X-0.225000X-0.250000X0.225000X-0.250000X0*%
%ADD14RoundRect,0.225000X0.225000X0.375000X-0.225000X0.375000X-0.225000X-0.375000X0.225000X-0.375000X0*%
%ADD15RoundRect,0.150000X-0.150000X-0.200000X0.150000X-0.200000X0.150000X0.200000X-0.150000X0.200000X0*%
%ADD16RoundRect,0.200000X0.275000X-0.200000X0.275000X0.200000X-0.275000X0.200000X-0.275000X-0.200000X0*%
%ADD17RoundRect,0.225000X0.250000X-0.225000X0.250000X0.225000X-0.250000X0.225000X-0.250000X-0.225000X0*%
%ADD18RoundRect,0.150000X0.200000X-0.150000X0.200000X0.150000X-0.200000X0.150000X-0.200000X-0.150000X0*%
G04 APERTURE END LIST*
D10*
X191274874Y-92874874D03*
X192924874Y-92874874D03*
X188199874Y-96074874D03*
X189849874Y-96074874D03*
D11*
X192949874Y-97662374D03*
X191299874Y-97662374D03*
D10*
X186175000Y-92874874D03*
X187825000Y-92874874D03*
D12*
X191349874Y-96074874D03*
X192899874Y-96074874D03*
D10*
X179599874Y-98874874D03*
X181249874Y-98874874D03*
D13*
X189800000Y-104000000D03*
X188250000Y-104000000D03*
D10*
X194399874Y-99262374D03*
X196049874Y-99262374D03*
D14*
X158300000Y-98200000D03*
X155000000Y-98200000D03*
D10*
X188199874Y-94474874D03*
X189849874Y-94474874D03*
D12*
X191325000Y-104000000D03*
X192875000Y-104000000D03*
D15*
X187700000Y-91274874D03*
X186300000Y-91274874D03*
D10*
X191299874Y-99274874D03*
X192949874Y-99274874D03*
D11*
X120025000Y-96474874D03*
X118375000Y-96474874D03*
D10*
X118375000Y-90074874D03*
X120025000Y-90074874D03*
D14*
X158300000Y-95800000D03*
X155000000Y-95800000D03*
D16*
X159900000Y-96925000D03*
X159900000Y-95275000D03*
D15*
X176724874Y-92374874D03*
X175324874Y-92374874D03*
D17*
X197613878Y-103798337D03*
X197613878Y-102248337D03*
D12*
X118425000Y-91674874D03*
X119975000Y-91674874D03*
D11*
X120025000Y-94874874D03*
X118375000Y-94874874D03*
X120025000Y-88474874D03*
X118375000Y-88474874D03*
D13*
X195999874Y-100862374D03*
X194449874Y-100862374D03*
D18*
X196112531Y-102328847D03*
X196112531Y-103728847D03*
D17*
X194612531Y-103971347D03*
X194612531Y-102421347D03*
D11*
X192949874Y-94474874D03*
X191299874Y-94474874D03*
X120025000Y-93274874D03*
X118375000Y-93274874D03*
X181249874Y-100474874D03*
X179599874Y-100474874D03*
D10*
X175199874Y-90874874D03*
X176849874Y-90874874D03*
D12*
X191349874Y-100862374D03*
X192899874Y-100862374D03*
X191349874Y-102462374D03*
X192899874Y-102462374D03*
D10*
X175199874Y-89274874D03*
X176849874Y-89274874D03*
D11*
X189849874Y-97674874D03*
X188199874Y-97674874D03*
D10*
X175199874Y-93874874D03*
X176849874Y-93874874D03*
M02*
