G04 #@! TF.GenerationSoftware,KiCad,Pcbnew,7.0.8*
G04 #@! TF.CreationDate,2023-11-12T21:10:40-08:00*
G04 #@! TF.ProjectId,bms,626d732e-6b69-4636-9164-5f7063625858,V1*
G04 #@! TF.SameCoordinates,Original*
G04 #@! TF.FileFunction,Soldermask,Bot*
G04 #@! TF.FilePolarity,Negative*
%FSLAX46Y46*%
G04 Gerber Fmt 4.6, Leading zero omitted, Abs format (unit mm)*
G04 Created by KiCad (PCBNEW 7.0.8) date 2023-11-12 21:10:40*
%MOMM*%
%LPD*%
G01*
G04 APERTURE LIST*
G04 APERTURE END LIST*
G36*
X101584617Y-112804752D02*
G01*
X101673237Y-112804752D01*
X101767863Y-112815042D01*
X101858286Y-112820121D01*
X101936052Y-112833334D01*
X102017695Y-112842213D01*
X102117132Y-112864100D01*
X102212067Y-112880231D01*
X102282190Y-112900432D01*
X102356078Y-112916697D01*
X102458904Y-112951343D01*
X102556893Y-112979573D01*
X102618829Y-113005227D01*
X102684420Y-113027328D01*
X102789066Y-113075743D01*
X102888428Y-113116900D01*
X102941885Y-113146444D01*
X102998879Y-113172813D01*
X103103601Y-113235822D01*
X103202503Y-113290483D01*
X103247429Y-113322360D01*
X103295766Y-113351443D01*
X103398711Y-113429700D01*
X103495167Y-113498139D01*
X103531765Y-113530845D01*
X103571599Y-113561126D01*
X103670795Y-113655090D01*
X103762742Y-113737258D01*
X103791434Y-113769364D01*
X103823139Y-113799397D01*
X103916559Y-113909380D01*
X104001861Y-114004833D01*
X104023285Y-114035028D01*
X104047451Y-114063478D01*
X104133041Y-114189715D01*
X104209517Y-114297497D01*
X104224498Y-114324603D01*
X104241891Y-114350256D01*
X104317594Y-114493048D01*
X104383100Y-114611572D01*
X104392633Y-114634588D01*
X104404189Y-114656384D01*
X104468007Y-114816555D01*
X104520427Y-114943107D01*
X104525640Y-114961202D01*
X104532433Y-114978251D01*
X104582458Y-115158425D01*
X104619769Y-115287933D01*
X104621901Y-115300483D01*
X104625129Y-115312108D01*
X104659534Y-115521976D01*
X104679879Y-115641714D01*
X104680251Y-115648344D01*
X104681183Y-115654027D01*
X104698292Y-115969602D01*
X104700000Y-116000000D01*
X104698292Y-116030400D01*
X104681183Y-116345972D01*
X104680251Y-116351654D01*
X104679879Y-116358286D01*
X104659530Y-116478050D01*
X104625129Y-116687891D01*
X104621901Y-116699514D01*
X104619769Y-116712067D01*
X104582451Y-116841601D01*
X104532433Y-117021748D01*
X104525641Y-117038794D01*
X104520427Y-117056893D01*
X104467997Y-117183469D01*
X104404189Y-117343615D01*
X104392635Y-117365407D01*
X104383100Y-117388428D01*
X104317581Y-117506975D01*
X104241891Y-117649743D01*
X104224501Y-117675390D01*
X104209517Y-117702503D01*
X104133026Y-117810306D01*
X104047451Y-117936521D01*
X104023290Y-117964965D01*
X104001861Y-117995167D01*
X103916542Y-118090638D01*
X103823139Y-118200602D01*
X103791439Y-118230628D01*
X103762742Y-118262742D01*
X103670777Y-118344926D01*
X103571599Y-118438873D01*
X103531772Y-118469147D01*
X103495167Y-118501861D01*
X103398692Y-118570313D01*
X103295766Y-118648556D01*
X103247439Y-118677633D01*
X103202503Y-118709517D01*
X103103581Y-118764188D01*
X102998879Y-118827186D01*
X102941896Y-118853549D01*
X102888428Y-118883100D01*
X102789046Y-118924265D01*
X102684420Y-118972671D01*
X102618842Y-118994766D01*
X102556893Y-119020427D01*
X102458884Y-119048662D01*
X102356078Y-119083302D01*
X102282204Y-119099562D01*
X102212067Y-119119769D01*
X102117112Y-119135902D01*
X102017695Y-119157786D01*
X101936064Y-119166663D01*
X101858286Y-119179879D01*
X101767858Y-119184957D01*
X101673237Y-119195248D01*
X101584617Y-119195248D01*
X101500000Y-119200000D01*
X101415383Y-119195248D01*
X101326763Y-119195248D01*
X101232141Y-119184957D01*
X101141714Y-119179879D01*
X101063936Y-119166664D01*
X100982304Y-119157786D01*
X100882883Y-119135901D01*
X100787933Y-119119769D01*
X100717798Y-119099563D01*
X100643921Y-119083302D01*
X100541109Y-119048660D01*
X100443107Y-119020427D01*
X100381162Y-118994768D01*
X100315579Y-118972671D01*
X100210944Y-118924261D01*
X100111572Y-118883100D01*
X100058108Y-118853552D01*
X100001120Y-118827186D01*
X99896406Y-118764182D01*
X99797497Y-118709517D01*
X99752566Y-118677637D01*
X99704233Y-118648556D01*
X99601292Y-118570302D01*
X99504833Y-118501861D01*
X99468232Y-118469153D01*
X99428400Y-118438873D01*
X99329205Y-118344910D01*
X99237258Y-118262742D01*
X99208565Y-118230635D01*
X99176860Y-118200602D01*
X99083437Y-118090616D01*
X98998139Y-117995167D01*
X98976714Y-117964972D01*
X98952548Y-117936521D01*
X98866950Y-117810274D01*
X98790483Y-117702503D01*
X98775503Y-117675398D01*
X98758108Y-117649743D01*
X98682394Y-117506930D01*
X98616900Y-117388428D01*
X98607367Y-117365415D01*
X98595810Y-117343615D01*
X98531976Y-117183405D01*
X98479573Y-117056893D01*
X98474361Y-117038803D01*
X98467566Y-117021748D01*
X98417521Y-116841505D01*
X98380231Y-116712067D01*
X98378099Y-116699523D01*
X98374870Y-116687891D01*
X98340441Y-116477882D01*
X98320121Y-116358286D01*
X98319749Y-116351663D01*
X98318816Y-116345972D01*
X98301678Y-116029884D01*
X98300000Y-116000000D01*
X98301678Y-115970117D01*
X98318816Y-115654027D01*
X98319749Y-115648334D01*
X98320121Y-115641714D01*
X98340436Y-115522144D01*
X98374870Y-115312108D01*
X98378100Y-115300474D01*
X98380231Y-115287933D01*
X98417513Y-115158520D01*
X98467566Y-114978251D01*
X98474362Y-114961193D01*
X98479573Y-114943107D01*
X98531966Y-114816619D01*
X98595810Y-114656384D01*
X98607369Y-114634579D01*
X98616900Y-114611572D01*
X98682381Y-114493092D01*
X98758108Y-114350256D01*
X98775506Y-114324595D01*
X98790483Y-114297497D01*
X98866935Y-114189747D01*
X98952548Y-114063478D01*
X98976719Y-114035021D01*
X98998139Y-114004833D01*
X99083420Y-113909402D01*
X99176860Y-113799397D01*
X99208571Y-113769358D01*
X99237258Y-113737258D01*
X99329186Y-113655105D01*
X99428400Y-113561126D01*
X99468240Y-113530840D01*
X99504833Y-113498139D01*
X99601273Y-113429711D01*
X99704233Y-113351443D01*
X99752575Y-113322356D01*
X99797497Y-113290483D01*
X99896385Y-113235829D01*
X100001120Y-113172813D01*
X100058120Y-113146441D01*
X100111572Y-113116900D01*
X100210923Y-113075747D01*
X100315579Y-113027328D01*
X100381175Y-113005226D01*
X100443107Y-112979573D01*
X100541088Y-112951345D01*
X100643921Y-112916697D01*
X100717813Y-112900432D01*
X100787933Y-112880231D01*
X100882863Y-112864101D01*
X100982304Y-112842213D01*
X101063948Y-112833333D01*
X101141714Y-112820121D01*
X101232135Y-112815042D01*
X101326763Y-112804752D01*
X101415383Y-112804752D01*
X101500000Y-112800000D01*
X101584617Y-112804752D01*
G37*
G36*
X204584617Y-112804752D02*
G01*
X204673237Y-112804752D01*
X204767863Y-112815042D01*
X204858286Y-112820121D01*
X204936052Y-112833334D01*
X205017695Y-112842213D01*
X205117132Y-112864100D01*
X205212067Y-112880231D01*
X205282190Y-112900432D01*
X205356078Y-112916697D01*
X205458904Y-112951343D01*
X205556893Y-112979573D01*
X205618829Y-113005227D01*
X205684420Y-113027328D01*
X205789066Y-113075743D01*
X205888428Y-113116900D01*
X205941885Y-113146444D01*
X205998879Y-113172813D01*
X206103601Y-113235822D01*
X206202503Y-113290483D01*
X206247429Y-113322360D01*
X206295766Y-113351443D01*
X206398711Y-113429700D01*
X206495167Y-113498139D01*
X206531765Y-113530845D01*
X206571599Y-113561126D01*
X206670795Y-113655090D01*
X206762742Y-113737258D01*
X206791434Y-113769364D01*
X206823139Y-113799397D01*
X206916559Y-113909380D01*
X207001861Y-114004833D01*
X207023285Y-114035028D01*
X207047451Y-114063478D01*
X207133041Y-114189715D01*
X207209517Y-114297497D01*
X207224498Y-114324603D01*
X207241891Y-114350256D01*
X207317594Y-114493048D01*
X207383100Y-114611572D01*
X207392633Y-114634588D01*
X207404189Y-114656384D01*
X207468007Y-114816555D01*
X207520427Y-114943107D01*
X207525640Y-114961202D01*
X207532433Y-114978251D01*
X207582458Y-115158425D01*
X207619769Y-115287933D01*
X207621901Y-115300483D01*
X207625129Y-115312108D01*
X207659534Y-115521976D01*
X207679879Y-115641714D01*
X207680251Y-115648344D01*
X207681183Y-115654027D01*
X207698292Y-115969602D01*
X207700000Y-116000000D01*
X207698292Y-116030400D01*
X207681183Y-116345972D01*
X207680251Y-116351654D01*
X207679879Y-116358286D01*
X207659530Y-116478050D01*
X207625129Y-116687891D01*
X207621901Y-116699514D01*
X207619769Y-116712067D01*
X207582451Y-116841601D01*
X207532433Y-117021748D01*
X207525641Y-117038794D01*
X207520427Y-117056893D01*
X207467997Y-117183469D01*
X207404189Y-117343615D01*
X207392635Y-117365407D01*
X207383100Y-117388428D01*
X207317581Y-117506975D01*
X207241891Y-117649743D01*
X207224501Y-117675390D01*
X207209517Y-117702503D01*
X207133026Y-117810306D01*
X207047451Y-117936521D01*
X207023290Y-117964965D01*
X207001861Y-117995167D01*
X206916542Y-118090638D01*
X206823139Y-118200602D01*
X206791439Y-118230628D01*
X206762742Y-118262742D01*
X206670777Y-118344926D01*
X206571599Y-118438873D01*
X206531772Y-118469147D01*
X206495167Y-118501861D01*
X206398692Y-118570313D01*
X206295766Y-118648556D01*
X206247439Y-118677633D01*
X206202503Y-118709517D01*
X206103581Y-118764188D01*
X205998879Y-118827186D01*
X205941896Y-118853549D01*
X205888428Y-118883100D01*
X205789046Y-118924265D01*
X205684420Y-118972671D01*
X205618842Y-118994766D01*
X205556893Y-119020427D01*
X205458884Y-119048662D01*
X205356078Y-119083302D01*
X205282204Y-119099562D01*
X205212067Y-119119769D01*
X205117112Y-119135902D01*
X205017695Y-119157786D01*
X204936064Y-119166663D01*
X204858286Y-119179879D01*
X204767858Y-119184957D01*
X204673237Y-119195248D01*
X204584617Y-119195248D01*
X204500000Y-119200000D01*
X204415383Y-119195248D01*
X204326763Y-119195248D01*
X204232141Y-119184957D01*
X204141714Y-119179879D01*
X204063936Y-119166664D01*
X203982304Y-119157786D01*
X203882883Y-119135901D01*
X203787933Y-119119769D01*
X203717798Y-119099563D01*
X203643921Y-119083302D01*
X203541109Y-119048660D01*
X203443107Y-119020427D01*
X203381162Y-118994768D01*
X203315579Y-118972671D01*
X203210944Y-118924261D01*
X203111572Y-118883100D01*
X203058108Y-118853552D01*
X203001120Y-118827186D01*
X202896406Y-118764182D01*
X202797497Y-118709517D01*
X202752566Y-118677637D01*
X202704233Y-118648556D01*
X202601292Y-118570302D01*
X202504833Y-118501861D01*
X202468232Y-118469153D01*
X202428400Y-118438873D01*
X202329205Y-118344910D01*
X202237258Y-118262742D01*
X202208565Y-118230635D01*
X202176860Y-118200602D01*
X202083437Y-118090616D01*
X201998139Y-117995167D01*
X201976714Y-117964972D01*
X201952548Y-117936521D01*
X201866950Y-117810274D01*
X201790483Y-117702503D01*
X201775503Y-117675398D01*
X201758108Y-117649743D01*
X201682394Y-117506930D01*
X201616900Y-117388428D01*
X201607367Y-117365415D01*
X201595810Y-117343615D01*
X201531976Y-117183405D01*
X201479573Y-117056893D01*
X201474361Y-117038803D01*
X201467566Y-117021748D01*
X201417521Y-116841505D01*
X201380231Y-116712067D01*
X201378099Y-116699523D01*
X201374870Y-116687891D01*
X201340441Y-116477882D01*
X201320121Y-116358286D01*
X201319749Y-116351663D01*
X201318816Y-116345972D01*
X201301678Y-116029884D01*
X201300000Y-116000000D01*
X201301678Y-115970117D01*
X201318816Y-115654027D01*
X201319749Y-115648334D01*
X201320121Y-115641714D01*
X201340436Y-115522144D01*
X201374870Y-115312108D01*
X201378100Y-115300474D01*
X201380231Y-115287933D01*
X201417513Y-115158520D01*
X201467566Y-114978251D01*
X201474362Y-114961193D01*
X201479573Y-114943107D01*
X201531966Y-114816619D01*
X201595810Y-114656384D01*
X201607369Y-114634579D01*
X201616900Y-114611572D01*
X201682381Y-114493092D01*
X201758108Y-114350256D01*
X201775506Y-114324595D01*
X201790483Y-114297497D01*
X201866935Y-114189747D01*
X201952548Y-114063478D01*
X201976719Y-114035021D01*
X201998139Y-114004833D01*
X202083420Y-113909402D01*
X202176860Y-113799397D01*
X202208571Y-113769358D01*
X202237258Y-113737258D01*
X202329186Y-113655105D01*
X202428400Y-113561126D01*
X202468240Y-113530840D01*
X202504833Y-113498139D01*
X202601273Y-113429711D01*
X202704233Y-113351443D01*
X202752575Y-113322356D01*
X202797497Y-113290483D01*
X202896385Y-113235829D01*
X203001120Y-113172813D01*
X203058120Y-113146441D01*
X203111572Y-113116900D01*
X203210923Y-113075747D01*
X203315579Y-113027328D01*
X203381175Y-113005226D01*
X203443107Y-112979573D01*
X203541088Y-112951345D01*
X203643921Y-112916697D01*
X203717813Y-112900432D01*
X203787933Y-112880231D01*
X203882863Y-112864101D01*
X203982304Y-112842213D01*
X204063948Y-112833333D01*
X204141714Y-112820121D01*
X204232135Y-112815042D01*
X204326763Y-112804752D01*
X204415383Y-112804752D01*
X204500000Y-112800000D01*
X204584617Y-112804752D01*
G37*
G36*
X175038269Y-109193831D02*
G01*
X175347095Y-109250425D01*
X175646847Y-109343832D01*
X175933154Y-109472688D01*
X176201842Y-109635116D01*
X176448993Y-109828746D01*
X176671002Y-110050755D01*
X176864632Y-110297906D01*
X177027060Y-110566594D01*
X177155916Y-110852901D01*
X177249323Y-111152653D01*
X177305917Y-111461479D01*
X177324874Y-111774874D01*
X177305917Y-112088269D01*
X177249323Y-112397095D01*
X177155916Y-112696847D01*
X177027060Y-112983154D01*
X176864632Y-113251842D01*
X176671002Y-113498993D01*
X176448993Y-113721002D01*
X176201842Y-113914632D01*
X175933154Y-114077060D01*
X175646847Y-114205916D01*
X175347095Y-114299323D01*
X175038269Y-114355917D01*
X174724874Y-114374874D01*
X174411479Y-114355917D01*
X174102653Y-114299323D01*
X173802901Y-114205916D01*
X173516594Y-114077060D01*
X173247906Y-113914632D01*
X173000755Y-113721002D01*
X172778746Y-113498993D01*
X172585116Y-113251842D01*
X172422688Y-112983154D01*
X172293832Y-112696847D01*
X172200425Y-112397095D01*
X172143831Y-112088269D01*
X172124874Y-111774874D01*
X172143831Y-111461479D01*
X172200425Y-111152653D01*
X172293832Y-110852901D01*
X172422688Y-110566594D01*
X172585116Y-110297906D01*
X172778746Y-110050755D01*
X173000755Y-109828746D01*
X173247906Y-109635116D01*
X173516594Y-109472688D01*
X173802901Y-109343832D01*
X174102653Y-109250425D01*
X174411479Y-109193831D01*
X174724874Y-109174874D01*
X175038269Y-109193831D01*
G37*
G36*
X94817900Y-112544811D02*
G01*
X94846310Y-112544811D01*
X94868197Y-112552777D01*
X94890152Y-112556255D01*
X94921161Y-112572055D01*
X94952374Y-112583416D01*
X94966158Y-112594982D01*
X94980608Y-112602345D01*
X95010205Y-112631942D01*
X95038838Y-112655968D01*
X95045131Y-112666868D01*
X95052402Y-112674139D01*
X95075485Y-112719443D01*
X95095274Y-112753717D01*
X95096504Y-112760693D01*
X95098492Y-112764595D01*
X95109969Y-112837057D01*
X95114874Y-112864874D01*
X95109968Y-112892692D01*
X95098492Y-112965152D01*
X95096504Y-112969052D01*
X95095274Y-112976031D01*
X95075481Y-113010312D01*
X95052402Y-113055608D01*
X95045132Y-113062877D01*
X95038838Y-113073780D01*
X95010198Y-113097811D01*
X94980608Y-113127402D01*
X94966161Y-113134762D01*
X94952374Y-113146332D01*
X94921155Y-113157694D01*
X94890152Y-113173492D01*
X94868202Y-113176968D01*
X94846310Y-113184937D01*
X94817894Y-113184937D01*
X94789874Y-113189375D01*
X94761854Y-113184937D01*
X94733438Y-113184937D01*
X94711545Y-113176968D01*
X94689595Y-113173492D01*
X94658589Y-113157693D01*
X94627374Y-113146332D01*
X94613588Y-113134764D01*
X94599139Y-113127402D01*
X94569542Y-113097805D01*
X94540910Y-113073780D01*
X94534616Y-113062879D01*
X94527345Y-113055608D01*
X94504257Y-113010297D01*
X94484474Y-112976031D01*
X94483244Y-112969055D01*
X94481255Y-112965152D01*
X94469769Y-112892637D01*
X94464874Y-112864874D01*
X94469768Y-112837113D01*
X94481255Y-112764595D01*
X94483244Y-112760690D01*
X94484474Y-112753717D01*
X94504253Y-112719458D01*
X94527345Y-112674139D01*
X94534617Y-112666866D01*
X94540910Y-112655968D01*
X94569536Y-112631947D01*
X94599139Y-112602345D01*
X94613591Y-112594981D01*
X94627374Y-112583416D01*
X94658582Y-112572056D01*
X94689595Y-112556255D01*
X94711550Y-112552777D01*
X94733438Y-112544811D01*
X94761848Y-112544811D01*
X94789874Y-112540372D01*
X94817900Y-112544811D01*
G37*
G36*
X94817900Y-106764811D02*
G01*
X94846310Y-106764811D01*
X94868197Y-106772777D01*
X94890152Y-106776255D01*
X94921161Y-106792055D01*
X94952374Y-106803416D01*
X94966158Y-106814982D01*
X94980608Y-106822345D01*
X95010205Y-106851942D01*
X95038838Y-106875968D01*
X95045131Y-106886868D01*
X95052402Y-106894139D01*
X95075485Y-106939443D01*
X95095274Y-106973717D01*
X95096504Y-106980693D01*
X95098492Y-106984595D01*
X95109969Y-107057057D01*
X95114874Y-107084874D01*
X95109968Y-107112692D01*
X95098492Y-107185152D01*
X95096504Y-107189052D01*
X95095274Y-107196031D01*
X95075481Y-107230312D01*
X95052402Y-107275608D01*
X95045132Y-107282877D01*
X95038838Y-107293780D01*
X95010198Y-107317811D01*
X94980608Y-107347402D01*
X94966161Y-107354762D01*
X94952374Y-107366332D01*
X94921155Y-107377694D01*
X94890152Y-107393492D01*
X94868202Y-107396968D01*
X94846310Y-107404937D01*
X94817894Y-107404937D01*
X94789874Y-107409375D01*
X94761854Y-107404937D01*
X94733438Y-107404937D01*
X94711545Y-107396968D01*
X94689595Y-107393492D01*
X94658589Y-107377693D01*
X94627374Y-107366332D01*
X94613588Y-107354764D01*
X94599139Y-107347402D01*
X94569542Y-107317805D01*
X94540910Y-107293780D01*
X94534616Y-107282879D01*
X94527345Y-107275608D01*
X94504257Y-107230297D01*
X94484474Y-107196031D01*
X94483244Y-107189055D01*
X94481255Y-107185152D01*
X94469769Y-107112637D01*
X94464874Y-107084874D01*
X94469768Y-107057113D01*
X94481255Y-106984595D01*
X94483244Y-106980690D01*
X94484474Y-106973717D01*
X94504253Y-106939458D01*
X94527345Y-106894139D01*
X94534617Y-106886866D01*
X94540910Y-106875968D01*
X94569536Y-106851947D01*
X94599139Y-106822345D01*
X94613591Y-106814981D01*
X94627374Y-106803416D01*
X94658582Y-106792056D01*
X94689595Y-106776255D01*
X94711550Y-106772777D01*
X94733438Y-106764811D01*
X94761848Y-106764811D01*
X94789874Y-106760372D01*
X94817900Y-106764811D01*
G37*
G36*
X188561104Y-103542127D02*
G01*
X188634099Y-103590901D01*
X188682873Y-103663896D01*
X188700000Y-103750000D01*
X188700000Y-104250000D01*
X188682873Y-104336104D01*
X188634099Y-104409099D01*
X188561104Y-104457873D01*
X188475000Y-104475000D01*
X188025000Y-104475000D01*
X187938896Y-104457873D01*
X187865901Y-104409099D01*
X187817127Y-104336104D01*
X187800000Y-104250000D01*
X187800000Y-103750000D01*
X187817127Y-103663896D01*
X187865901Y-103590901D01*
X187938896Y-103542127D01*
X188025000Y-103525000D01*
X188475000Y-103525000D01*
X188561104Y-103542127D01*
G37*
G36*
X190111104Y-103542127D02*
G01*
X190184099Y-103590901D01*
X190232873Y-103663896D01*
X190250000Y-103750000D01*
X190250000Y-104250000D01*
X190232873Y-104336104D01*
X190184099Y-104409099D01*
X190111104Y-104457873D01*
X190025000Y-104475000D01*
X189575000Y-104475000D01*
X189488896Y-104457873D01*
X189415901Y-104409099D01*
X189367127Y-104336104D01*
X189350000Y-104250000D01*
X189350000Y-103750000D01*
X189367127Y-103663896D01*
X189415901Y-103590901D01*
X189488896Y-103542127D01*
X189575000Y-103525000D01*
X190025000Y-103525000D01*
X190111104Y-103542127D01*
G37*
G36*
X191636104Y-103542127D02*
G01*
X191709099Y-103590901D01*
X191757873Y-103663896D01*
X191775000Y-103750000D01*
X191775000Y-104250000D01*
X191757873Y-104336104D01*
X191709099Y-104409099D01*
X191636104Y-104457873D01*
X191550000Y-104475000D01*
X191100000Y-104475000D01*
X191013896Y-104457873D01*
X190940901Y-104409099D01*
X190892127Y-104336104D01*
X190875000Y-104250000D01*
X190875000Y-103750000D01*
X190892127Y-103663896D01*
X190940901Y-103590901D01*
X191013896Y-103542127D01*
X191100000Y-103525000D01*
X191550000Y-103525000D01*
X191636104Y-103542127D01*
G37*
G36*
X193186104Y-103542127D02*
G01*
X193259099Y-103590901D01*
X193307873Y-103663896D01*
X193325000Y-103750000D01*
X193325000Y-104250000D01*
X193307873Y-104336104D01*
X193259099Y-104409099D01*
X193186104Y-104457873D01*
X193100000Y-104475000D01*
X192650000Y-104475000D01*
X192563896Y-104457873D01*
X192490901Y-104409099D01*
X192442127Y-104336104D01*
X192425000Y-104250000D01*
X192425000Y-103750000D01*
X192442127Y-103663896D01*
X192490901Y-103590901D01*
X192563896Y-103542127D01*
X192650000Y-103525000D01*
X193100000Y-103525000D01*
X193186104Y-103542127D01*
G37*
G36*
X194948635Y-103538474D02*
G01*
X195021630Y-103587248D01*
X195070404Y-103660243D01*
X195087531Y-103746347D01*
X195087531Y-104196347D01*
X195070404Y-104282451D01*
X195021630Y-104355446D01*
X194948635Y-104404220D01*
X194862531Y-104421347D01*
X194362531Y-104421347D01*
X194276427Y-104404220D01*
X194203432Y-104355446D01*
X194154658Y-104282451D01*
X194137531Y-104196347D01*
X194137531Y-103746347D01*
X194154658Y-103660243D01*
X194203432Y-103587248D01*
X194276427Y-103538474D01*
X194362531Y-103521347D01*
X194862531Y-103521347D01*
X194948635Y-103538474D01*
G37*
G36*
X197949982Y-103365464D02*
G01*
X198022977Y-103414238D01*
X198071751Y-103487233D01*
X198088878Y-103573337D01*
X198088878Y-104023337D01*
X198071751Y-104109441D01*
X198022977Y-104182436D01*
X197949982Y-104231210D01*
X197863878Y-104248337D01*
X197363878Y-104248337D01*
X197277774Y-104231210D01*
X197204779Y-104182436D01*
X197156005Y-104109441D01*
X197138878Y-104023337D01*
X197138878Y-103573337D01*
X197156005Y-103487233D01*
X197204779Y-103414238D01*
X197277774Y-103365464D01*
X197363878Y-103348337D01*
X197863878Y-103348337D01*
X197949982Y-103365464D01*
G37*
G36*
X196369934Y-103440265D02*
G01*
X196418597Y-103472781D01*
X196451113Y-103521444D01*
X196462531Y-103578847D01*
X196462531Y-103878847D01*
X196451113Y-103936250D01*
X196418597Y-103984913D01*
X196369934Y-104017429D01*
X196312531Y-104028847D01*
X195912531Y-104028847D01*
X195855128Y-104017429D01*
X195806465Y-103984913D01*
X195773949Y-103936250D01*
X195762531Y-103878847D01*
X195762531Y-103578847D01*
X195773949Y-103521444D01*
X195806465Y-103472781D01*
X195855128Y-103440265D01*
X195912531Y-103428847D01*
X196312531Y-103428847D01*
X196369934Y-103440265D01*
G37*
G36*
X191660978Y-102004501D02*
G01*
X191733973Y-102053275D01*
X191782747Y-102126270D01*
X191799874Y-102212374D01*
X191799874Y-102712374D01*
X191782747Y-102798478D01*
X191733973Y-102871473D01*
X191660978Y-102920247D01*
X191574874Y-102937374D01*
X191124874Y-102937374D01*
X191038770Y-102920247D01*
X190965775Y-102871473D01*
X190917001Y-102798478D01*
X190899874Y-102712374D01*
X190899874Y-102212374D01*
X190917001Y-102126270D01*
X190965775Y-102053275D01*
X191038770Y-102004501D01*
X191124874Y-101987374D01*
X191574874Y-101987374D01*
X191660978Y-102004501D01*
G37*
G36*
X193210978Y-102004501D02*
G01*
X193283973Y-102053275D01*
X193332747Y-102126270D01*
X193349874Y-102212374D01*
X193349874Y-102712374D01*
X193332747Y-102798478D01*
X193283973Y-102871473D01*
X193210978Y-102920247D01*
X193124874Y-102937374D01*
X192674874Y-102937374D01*
X192588770Y-102920247D01*
X192515775Y-102871473D01*
X192467001Y-102798478D01*
X192449874Y-102712374D01*
X192449874Y-102212374D01*
X192467001Y-102126270D01*
X192515775Y-102053275D01*
X192588770Y-102004501D01*
X192674874Y-101987374D01*
X193124874Y-101987374D01*
X193210978Y-102004501D01*
G37*
G36*
X194948635Y-101988474D02*
G01*
X195021630Y-102037248D01*
X195070404Y-102110243D01*
X195087531Y-102196347D01*
X195087531Y-102646347D01*
X195070404Y-102732451D01*
X195021630Y-102805446D01*
X194948635Y-102854220D01*
X194862531Y-102871347D01*
X194362531Y-102871347D01*
X194276427Y-102854220D01*
X194203432Y-102805446D01*
X194154658Y-102732451D01*
X194137531Y-102646347D01*
X194137531Y-102196347D01*
X194154658Y-102110243D01*
X194203432Y-102037248D01*
X194276427Y-101988474D01*
X194362531Y-101971347D01*
X194862531Y-101971347D01*
X194948635Y-101988474D01*
G37*
G36*
X197949982Y-101815464D02*
G01*
X198022977Y-101864238D01*
X198071751Y-101937233D01*
X198088878Y-102023337D01*
X198088878Y-102473337D01*
X198071751Y-102559441D01*
X198022977Y-102632436D01*
X197949982Y-102681210D01*
X197863878Y-102698337D01*
X197363878Y-102698337D01*
X197277774Y-102681210D01*
X197204779Y-102632436D01*
X197156005Y-102559441D01*
X197138878Y-102473337D01*
X197138878Y-102023337D01*
X197156005Y-101937233D01*
X197204779Y-101864238D01*
X197277774Y-101815464D01*
X197363878Y-101798337D01*
X197863878Y-101798337D01*
X197949982Y-101815464D01*
G37*
G36*
X196369934Y-102040265D02*
G01*
X196418597Y-102072781D01*
X196451113Y-102121444D01*
X196462531Y-102178847D01*
X196462531Y-102478847D01*
X196451113Y-102536250D01*
X196418597Y-102584913D01*
X196369934Y-102617429D01*
X196312531Y-102628847D01*
X195912531Y-102628847D01*
X195855128Y-102617429D01*
X195806465Y-102584913D01*
X195773949Y-102536250D01*
X195762531Y-102478847D01*
X195762531Y-102178847D01*
X195773949Y-102121444D01*
X195806465Y-102072781D01*
X195855128Y-102040265D01*
X195912531Y-102028847D01*
X196312531Y-102028847D01*
X196369934Y-102040265D01*
G37*
G36*
X191660978Y-100404501D02*
G01*
X191733973Y-100453275D01*
X191782747Y-100526270D01*
X191799874Y-100612374D01*
X191799874Y-101112374D01*
X191782747Y-101198478D01*
X191733973Y-101271473D01*
X191660978Y-101320247D01*
X191574874Y-101337374D01*
X191124874Y-101337374D01*
X191038770Y-101320247D01*
X190965775Y-101271473D01*
X190917001Y-101198478D01*
X190899874Y-101112374D01*
X190899874Y-100612374D01*
X190917001Y-100526270D01*
X190965775Y-100453275D01*
X191038770Y-100404501D01*
X191124874Y-100387374D01*
X191574874Y-100387374D01*
X191660978Y-100404501D01*
G37*
G36*
X193210978Y-100404501D02*
G01*
X193283973Y-100453275D01*
X193332747Y-100526270D01*
X193349874Y-100612374D01*
X193349874Y-101112374D01*
X193332747Y-101198478D01*
X193283973Y-101271473D01*
X193210978Y-101320247D01*
X193124874Y-101337374D01*
X192674874Y-101337374D01*
X192588770Y-101320247D01*
X192515775Y-101271473D01*
X192467001Y-101198478D01*
X192449874Y-101112374D01*
X192449874Y-100612374D01*
X192467001Y-100526270D01*
X192515775Y-100453275D01*
X192588770Y-100404501D01*
X192674874Y-100387374D01*
X193124874Y-100387374D01*
X193210978Y-100404501D01*
G37*
G36*
X194760978Y-100404501D02*
G01*
X194833973Y-100453275D01*
X194882747Y-100526270D01*
X194899874Y-100612374D01*
X194899874Y-101112374D01*
X194882747Y-101198478D01*
X194833973Y-101271473D01*
X194760978Y-101320247D01*
X194674874Y-101337374D01*
X194224874Y-101337374D01*
X194138770Y-101320247D01*
X194065775Y-101271473D01*
X194017001Y-101198478D01*
X193999874Y-101112374D01*
X193999874Y-100612374D01*
X194017001Y-100526270D01*
X194065775Y-100453275D01*
X194138770Y-100404501D01*
X194224874Y-100387374D01*
X194674874Y-100387374D01*
X194760978Y-100404501D01*
G37*
G36*
X196310978Y-100404501D02*
G01*
X196383973Y-100453275D01*
X196432747Y-100526270D01*
X196449874Y-100612374D01*
X196449874Y-101112374D01*
X196432747Y-101198478D01*
X196383973Y-101271473D01*
X196310978Y-101320247D01*
X196224874Y-101337374D01*
X195774874Y-101337374D01*
X195688770Y-101320247D01*
X195615775Y-101271473D01*
X195567001Y-101198478D01*
X195549874Y-101112374D01*
X195549874Y-100612374D01*
X195567001Y-100526270D01*
X195615775Y-100453275D01*
X195688770Y-100404501D01*
X195774874Y-100387374D01*
X196224874Y-100387374D01*
X196310978Y-100404501D01*
G37*
G36*
X179876411Y-100015098D02*
G01*
X179941295Y-100058453D01*
X179984650Y-100123337D01*
X179999874Y-100199874D01*
X179999874Y-100749874D01*
X179984650Y-100826411D01*
X179941295Y-100891295D01*
X179876411Y-100934650D01*
X179799874Y-100949874D01*
X179399874Y-100949874D01*
X179323337Y-100934650D01*
X179258453Y-100891295D01*
X179215098Y-100826411D01*
X179199874Y-100749874D01*
X179199874Y-100199874D01*
X179215098Y-100123337D01*
X179258453Y-100058453D01*
X179323337Y-100015098D01*
X179399874Y-99999874D01*
X179799874Y-99999874D01*
X179876411Y-100015098D01*
G37*
G36*
X181526411Y-100015098D02*
G01*
X181591295Y-100058453D01*
X181634650Y-100123337D01*
X181649874Y-100199874D01*
X181649874Y-100749874D01*
X181634650Y-100826411D01*
X181591295Y-100891295D01*
X181526411Y-100934650D01*
X181449874Y-100949874D01*
X181049874Y-100949874D01*
X180973337Y-100934650D01*
X180908453Y-100891295D01*
X180865098Y-100826411D01*
X180849874Y-100749874D01*
X180849874Y-100199874D01*
X180865098Y-100123337D01*
X180908453Y-100058453D01*
X180973337Y-100015098D01*
X181049874Y-99999874D01*
X181449874Y-99999874D01*
X181526411Y-100015098D01*
G37*
G36*
X191576411Y-98815098D02*
G01*
X191641295Y-98858453D01*
X191684650Y-98923337D01*
X191699874Y-98999874D01*
X191699874Y-99549874D01*
X191684650Y-99626411D01*
X191641295Y-99691295D01*
X191576411Y-99734650D01*
X191499874Y-99749874D01*
X191099874Y-99749874D01*
X191023337Y-99734650D01*
X190958453Y-99691295D01*
X190915098Y-99626411D01*
X190899874Y-99549874D01*
X190899874Y-98999874D01*
X190915098Y-98923337D01*
X190958453Y-98858453D01*
X191023337Y-98815098D01*
X191099874Y-98799874D01*
X191499874Y-98799874D01*
X191576411Y-98815098D01*
G37*
G36*
X193226411Y-98815098D02*
G01*
X193291295Y-98858453D01*
X193334650Y-98923337D01*
X193349874Y-98999874D01*
X193349874Y-99549874D01*
X193334650Y-99626411D01*
X193291295Y-99691295D01*
X193226411Y-99734650D01*
X193149874Y-99749874D01*
X192749874Y-99749874D01*
X192673337Y-99734650D01*
X192608453Y-99691295D01*
X192565098Y-99626411D01*
X192549874Y-99549874D01*
X192549874Y-98999874D01*
X192565098Y-98923337D01*
X192608453Y-98858453D01*
X192673337Y-98815098D01*
X192749874Y-98799874D01*
X193149874Y-98799874D01*
X193226411Y-98815098D01*
G37*
G36*
X194676411Y-98802598D02*
G01*
X194741295Y-98845953D01*
X194784650Y-98910837D01*
X194799874Y-98987374D01*
X194799874Y-99537374D01*
X194784650Y-99613911D01*
X194741295Y-99678795D01*
X194676411Y-99722150D01*
X194599874Y-99737374D01*
X194199874Y-99737374D01*
X194123337Y-99722150D01*
X194058453Y-99678795D01*
X194015098Y-99613911D01*
X193999874Y-99537374D01*
X193999874Y-98987374D01*
X194015098Y-98910837D01*
X194058453Y-98845953D01*
X194123337Y-98802598D01*
X194199874Y-98787374D01*
X194599874Y-98787374D01*
X194676411Y-98802598D01*
G37*
G36*
X196326411Y-98802598D02*
G01*
X196391295Y-98845953D01*
X196434650Y-98910837D01*
X196449874Y-98987374D01*
X196449874Y-99537374D01*
X196434650Y-99613911D01*
X196391295Y-99678795D01*
X196326411Y-99722150D01*
X196249874Y-99737374D01*
X195849874Y-99737374D01*
X195773337Y-99722150D01*
X195708453Y-99678795D01*
X195665098Y-99613911D01*
X195649874Y-99537374D01*
X195649874Y-98987374D01*
X195665098Y-98910837D01*
X195708453Y-98845953D01*
X195773337Y-98802598D01*
X195849874Y-98787374D01*
X196249874Y-98787374D01*
X196326411Y-98802598D01*
G37*
G36*
X179876411Y-98415098D02*
G01*
X179941295Y-98458453D01*
X179984650Y-98523337D01*
X179999874Y-98599874D01*
X179999874Y-99149874D01*
X179984650Y-99226411D01*
X179941295Y-99291295D01*
X179876411Y-99334650D01*
X179799874Y-99349874D01*
X179399874Y-99349874D01*
X179323337Y-99334650D01*
X179258453Y-99291295D01*
X179215098Y-99226411D01*
X179199874Y-99149874D01*
X179199874Y-98599874D01*
X179215098Y-98523337D01*
X179258453Y-98458453D01*
X179323337Y-98415098D01*
X179399874Y-98399874D01*
X179799874Y-98399874D01*
X179876411Y-98415098D01*
G37*
G36*
X181526411Y-98415098D02*
G01*
X181591295Y-98458453D01*
X181634650Y-98523337D01*
X181649874Y-98599874D01*
X181649874Y-99149874D01*
X181634650Y-99226411D01*
X181591295Y-99291295D01*
X181526411Y-99334650D01*
X181449874Y-99349874D01*
X181049874Y-99349874D01*
X180973337Y-99334650D01*
X180908453Y-99291295D01*
X180865098Y-99226411D01*
X180849874Y-99149874D01*
X180849874Y-98599874D01*
X180865098Y-98523337D01*
X180908453Y-98458453D01*
X180973337Y-98415098D01*
X181049874Y-98399874D01*
X181449874Y-98399874D01*
X181526411Y-98415098D01*
G37*
G36*
X155311104Y-97617127D02*
G01*
X155384099Y-97665901D01*
X155432873Y-97738896D01*
X155450000Y-97825000D01*
X155450000Y-98575000D01*
X155432873Y-98661104D01*
X155384099Y-98734099D01*
X155311104Y-98782873D01*
X155225000Y-98800000D01*
X154775000Y-98800000D01*
X154688896Y-98782873D01*
X154615901Y-98734099D01*
X154567127Y-98661104D01*
X154550000Y-98575000D01*
X154550000Y-97825000D01*
X154567127Y-97738896D01*
X154615901Y-97665901D01*
X154688896Y-97617127D01*
X154775000Y-97600000D01*
X155225000Y-97600000D01*
X155311104Y-97617127D01*
G37*
G36*
X158611104Y-97617127D02*
G01*
X158684099Y-97665901D01*
X158732873Y-97738896D01*
X158750000Y-97825000D01*
X158750000Y-98575000D01*
X158732873Y-98661104D01*
X158684099Y-98734099D01*
X158611104Y-98782873D01*
X158525000Y-98800000D01*
X158075000Y-98800000D01*
X157988896Y-98782873D01*
X157915901Y-98734099D01*
X157867127Y-98661104D01*
X157850000Y-98575000D01*
X157850000Y-97825000D01*
X157867127Y-97738896D01*
X157915901Y-97665901D01*
X157988896Y-97617127D01*
X158075000Y-97600000D01*
X158525000Y-97600000D01*
X158611104Y-97617127D01*
G37*
G36*
X188476411Y-97215098D02*
G01*
X188541295Y-97258453D01*
X188584650Y-97323337D01*
X188599874Y-97399874D01*
X188599874Y-97949874D01*
X188584650Y-98026411D01*
X188541295Y-98091295D01*
X188476411Y-98134650D01*
X188399874Y-98149874D01*
X187999874Y-98149874D01*
X187923337Y-98134650D01*
X187858453Y-98091295D01*
X187815098Y-98026411D01*
X187799874Y-97949874D01*
X187799874Y-97399874D01*
X187815098Y-97323337D01*
X187858453Y-97258453D01*
X187923337Y-97215098D01*
X187999874Y-97199874D01*
X188399874Y-97199874D01*
X188476411Y-97215098D01*
G37*
G36*
X190126411Y-97215098D02*
G01*
X190191295Y-97258453D01*
X190234650Y-97323337D01*
X190249874Y-97399874D01*
X190249874Y-97949874D01*
X190234650Y-98026411D01*
X190191295Y-98091295D01*
X190126411Y-98134650D01*
X190049874Y-98149874D01*
X189649874Y-98149874D01*
X189573337Y-98134650D01*
X189508453Y-98091295D01*
X189465098Y-98026411D01*
X189449874Y-97949874D01*
X189449874Y-97399874D01*
X189465098Y-97323337D01*
X189508453Y-97258453D01*
X189573337Y-97215098D01*
X189649874Y-97199874D01*
X190049874Y-97199874D01*
X190126411Y-97215098D01*
G37*
G36*
X191576411Y-97202598D02*
G01*
X191641295Y-97245953D01*
X191684650Y-97310837D01*
X191699874Y-97387374D01*
X191699874Y-97937374D01*
X191684650Y-98013911D01*
X191641295Y-98078795D01*
X191576411Y-98122150D01*
X191499874Y-98137374D01*
X191099874Y-98137374D01*
X191023337Y-98122150D01*
X190958453Y-98078795D01*
X190915098Y-98013911D01*
X190899874Y-97937374D01*
X190899874Y-97387374D01*
X190915098Y-97310837D01*
X190958453Y-97245953D01*
X191023337Y-97202598D01*
X191099874Y-97187374D01*
X191499874Y-97187374D01*
X191576411Y-97202598D01*
G37*
G36*
X193226411Y-97202598D02*
G01*
X193291295Y-97245953D01*
X193334650Y-97310837D01*
X193349874Y-97387374D01*
X193349874Y-97937374D01*
X193334650Y-98013911D01*
X193291295Y-98078795D01*
X193226411Y-98122150D01*
X193149874Y-98137374D01*
X192749874Y-98137374D01*
X192673337Y-98122150D01*
X192608453Y-98078795D01*
X192565098Y-98013911D01*
X192549874Y-97937374D01*
X192549874Y-97387374D01*
X192565098Y-97310837D01*
X192608453Y-97245953D01*
X192673337Y-97202598D01*
X192749874Y-97187374D01*
X193149874Y-97187374D01*
X193226411Y-97202598D01*
G37*
G36*
X160251537Y-96540224D02*
G01*
X160316421Y-96583579D01*
X160359776Y-96648463D01*
X160375000Y-96725000D01*
X160375000Y-97125000D01*
X160359776Y-97201537D01*
X160316421Y-97266421D01*
X160251537Y-97309776D01*
X160175000Y-97325000D01*
X159625000Y-97325000D01*
X159548463Y-97309776D01*
X159483579Y-97266421D01*
X159440224Y-97201537D01*
X159425000Y-97125000D01*
X159425000Y-96725000D01*
X159440224Y-96648463D01*
X159483579Y-96583579D01*
X159548463Y-96540224D01*
X159625000Y-96525000D01*
X160175000Y-96525000D01*
X160251537Y-96540224D01*
G37*
G36*
X118651537Y-96015098D02*
G01*
X118716421Y-96058453D01*
X118759776Y-96123337D01*
X118775000Y-96199874D01*
X118775000Y-96749874D01*
X118759776Y-96826411D01*
X118716421Y-96891295D01*
X118651537Y-96934650D01*
X118575000Y-96949874D01*
X118175000Y-96949874D01*
X118098463Y-96934650D01*
X118033579Y-96891295D01*
X117990224Y-96826411D01*
X117975000Y-96749874D01*
X117975000Y-96199874D01*
X117990224Y-96123337D01*
X118033579Y-96058453D01*
X118098463Y-96015098D01*
X118175000Y-95999874D01*
X118575000Y-95999874D01*
X118651537Y-96015098D01*
G37*
G36*
X120301537Y-96015098D02*
G01*
X120366421Y-96058453D01*
X120409776Y-96123337D01*
X120425000Y-96199874D01*
X120425000Y-96749874D01*
X120409776Y-96826411D01*
X120366421Y-96891295D01*
X120301537Y-96934650D01*
X120225000Y-96949874D01*
X119825000Y-96949874D01*
X119748463Y-96934650D01*
X119683579Y-96891295D01*
X119640224Y-96826411D01*
X119625000Y-96749874D01*
X119625000Y-96199874D01*
X119640224Y-96123337D01*
X119683579Y-96058453D01*
X119748463Y-96015098D01*
X119825000Y-95999874D01*
X120225000Y-95999874D01*
X120301537Y-96015098D01*
G37*
G36*
X188476411Y-95615098D02*
G01*
X188541295Y-95658453D01*
X188584650Y-95723337D01*
X188599874Y-95799874D01*
X188599874Y-96349874D01*
X188584650Y-96426411D01*
X188541295Y-96491295D01*
X188476411Y-96534650D01*
X188399874Y-96549874D01*
X187999874Y-96549874D01*
X187923337Y-96534650D01*
X187858453Y-96491295D01*
X187815098Y-96426411D01*
X187799874Y-96349874D01*
X187799874Y-95799874D01*
X187815098Y-95723337D01*
X187858453Y-95658453D01*
X187923337Y-95615098D01*
X187999874Y-95599874D01*
X188399874Y-95599874D01*
X188476411Y-95615098D01*
G37*
G36*
X190126411Y-95615098D02*
G01*
X190191295Y-95658453D01*
X190234650Y-95723337D01*
X190249874Y-95799874D01*
X190249874Y-96349874D01*
X190234650Y-96426411D01*
X190191295Y-96491295D01*
X190126411Y-96534650D01*
X190049874Y-96549874D01*
X189649874Y-96549874D01*
X189573337Y-96534650D01*
X189508453Y-96491295D01*
X189465098Y-96426411D01*
X189449874Y-96349874D01*
X189449874Y-95799874D01*
X189465098Y-95723337D01*
X189508453Y-95658453D01*
X189573337Y-95615098D01*
X189649874Y-95599874D01*
X190049874Y-95599874D01*
X190126411Y-95615098D01*
G37*
G36*
X191660978Y-95617001D02*
G01*
X191733973Y-95665775D01*
X191782747Y-95738770D01*
X191799874Y-95824874D01*
X191799874Y-96324874D01*
X191782747Y-96410978D01*
X191733973Y-96483973D01*
X191660978Y-96532747D01*
X191574874Y-96549874D01*
X191124874Y-96549874D01*
X191038770Y-96532747D01*
X190965775Y-96483973D01*
X190917001Y-96410978D01*
X190899874Y-96324874D01*
X190899874Y-95824874D01*
X190917001Y-95738770D01*
X190965775Y-95665775D01*
X191038770Y-95617001D01*
X191124874Y-95599874D01*
X191574874Y-95599874D01*
X191660978Y-95617001D01*
G37*
G36*
X193210978Y-95617001D02*
G01*
X193283973Y-95665775D01*
X193332747Y-95738770D01*
X193349874Y-95824874D01*
X193349874Y-96324874D01*
X193332747Y-96410978D01*
X193283973Y-96483973D01*
X193210978Y-96532747D01*
X193124874Y-96549874D01*
X192674874Y-96549874D01*
X192588770Y-96532747D01*
X192515775Y-96483973D01*
X192467001Y-96410978D01*
X192449874Y-96324874D01*
X192449874Y-95824874D01*
X192467001Y-95738770D01*
X192515775Y-95665775D01*
X192588770Y-95617001D01*
X192674874Y-95599874D01*
X193124874Y-95599874D01*
X193210978Y-95617001D01*
G37*
G36*
X155311104Y-95217127D02*
G01*
X155384099Y-95265901D01*
X155432873Y-95338896D01*
X155450000Y-95425000D01*
X155450000Y-96175000D01*
X155432873Y-96261104D01*
X155384099Y-96334099D01*
X155311104Y-96382873D01*
X155225000Y-96400000D01*
X154775000Y-96400000D01*
X154688896Y-96382873D01*
X154615901Y-96334099D01*
X154567127Y-96261104D01*
X154550000Y-96175000D01*
X154550000Y-95425000D01*
X154567127Y-95338896D01*
X154615901Y-95265901D01*
X154688896Y-95217127D01*
X154775000Y-95200000D01*
X155225000Y-95200000D01*
X155311104Y-95217127D01*
G37*
G36*
X158611104Y-95217127D02*
G01*
X158684099Y-95265901D01*
X158732873Y-95338896D01*
X158750000Y-95425000D01*
X158750000Y-96175000D01*
X158732873Y-96261104D01*
X158684099Y-96334099D01*
X158611104Y-96382873D01*
X158525000Y-96400000D01*
X158075000Y-96400000D01*
X157988896Y-96382873D01*
X157915901Y-96334099D01*
X157867127Y-96261104D01*
X157850000Y-96175000D01*
X157850000Y-95425000D01*
X157867127Y-95338896D01*
X157915901Y-95265901D01*
X157988896Y-95217127D01*
X158075000Y-95200000D01*
X158525000Y-95200000D01*
X158611104Y-95217127D01*
G37*
G36*
X160251537Y-94890224D02*
G01*
X160316421Y-94933579D01*
X160359776Y-94998463D01*
X160375000Y-95075000D01*
X160375000Y-95475000D01*
X160359776Y-95551537D01*
X160316421Y-95616421D01*
X160251537Y-95659776D01*
X160175000Y-95675000D01*
X159625000Y-95675000D01*
X159548463Y-95659776D01*
X159483579Y-95616421D01*
X159440224Y-95551537D01*
X159425000Y-95475000D01*
X159425000Y-95075000D01*
X159440224Y-94998463D01*
X159483579Y-94933579D01*
X159548463Y-94890224D01*
X159625000Y-94875000D01*
X160175000Y-94875000D01*
X160251537Y-94890224D01*
G37*
G36*
X118651537Y-94415098D02*
G01*
X118716421Y-94458453D01*
X118759776Y-94523337D01*
X118775000Y-94599874D01*
X118775000Y-95149874D01*
X118759776Y-95226411D01*
X118716421Y-95291295D01*
X118651537Y-95334650D01*
X118575000Y-95349874D01*
X118175000Y-95349874D01*
X118098463Y-95334650D01*
X118033579Y-95291295D01*
X117990224Y-95226411D01*
X117975000Y-95149874D01*
X117975000Y-94599874D01*
X117990224Y-94523337D01*
X118033579Y-94458453D01*
X118098463Y-94415098D01*
X118175000Y-94399874D01*
X118575000Y-94399874D01*
X118651537Y-94415098D01*
G37*
G36*
X120301537Y-94415098D02*
G01*
X120366421Y-94458453D01*
X120409776Y-94523337D01*
X120425000Y-94599874D01*
X120425000Y-95149874D01*
X120409776Y-95226411D01*
X120366421Y-95291295D01*
X120301537Y-95334650D01*
X120225000Y-95349874D01*
X119825000Y-95349874D01*
X119748463Y-95334650D01*
X119683579Y-95291295D01*
X119640224Y-95226411D01*
X119625000Y-95149874D01*
X119625000Y-94599874D01*
X119640224Y-94523337D01*
X119683579Y-94458453D01*
X119748463Y-94415098D01*
X119825000Y-94399874D01*
X120225000Y-94399874D01*
X120301537Y-94415098D01*
G37*
G36*
X188476411Y-94015098D02*
G01*
X188541295Y-94058453D01*
X188584650Y-94123337D01*
X188599874Y-94199874D01*
X188599874Y-94749874D01*
X188584650Y-94826411D01*
X188541295Y-94891295D01*
X188476411Y-94934650D01*
X188399874Y-94949874D01*
X187999874Y-94949874D01*
X187923337Y-94934650D01*
X187858453Y-94891295D01*
X187815098Y-94826411D01*
X187799874Y-94749874D01*
X187799874Y-94199874D01*
X187815098Y-94123337D01*
X187858453Y-94058453D01*
X187923337Y-94015098D01*
X187999874Y-93999874D01*
X188399874Y-93999874D01*
X188476411Y-94015098D01*
G37*
G36*
X190126411Y-94015098D02*
G01*
X190191295Y-94058453D01*
X190234650Y-94123337D01*
X190249874Y-94199874D01*
X190249874Y-94749874D01*
X190234650Y-94826411D01*
X190191295Y-94891295D01*
X190126411Y-94934650D01*
X190049874Y-94949874D01*
X189649874Y-94949874D01*
X189573337Y-94934650D01*
X189508453Y-94891295D01*
X189465098Y-94826411D01*
X189449874Y-94749874D01*
X189449874Y-94199874D01*
X189465098Y-94123337D01*
X189508453Y-94058453D01*
X189573337Y-94015098D01*
X189649874Y-93999874D01*
X190049874Y-93999874D01*
X190126411Y-94015098D01*
G37*
G36*
X191576411Y-94015098D02*
G01*
X191641295Y-94058453D01*
X191684650Y-94123337D01*
X191699874Y-94199874D01*
X191699874Y-94749874D01*
X191684650Y-94826411D01*
X191641295Y-94891295D01*
X191576411Y-94934650D01*
X191499874Y-94949874D01*
X191099874Y-94949874D01*
X191023337Y-94934650D01*
X190958453Y-94891295D01*
X190915098Y-94826411D01*
X190899874Y-94749874D01*
X190899874Y-94199874D01*
X190915098Y-94123337D01*
X190958453Y-94058453D01*
X191023337Y-94015098D01*
X191099874Y-93999874D01*
X191499874Y-93999874D01*
X191576411Y-94015098D01*
G37*
G36*
X193226411Y-94015098D02*
G01*
X193291295Y-94058453D01*
X193334650Y-94123337D01*
X193349874Y-94199874D01*
X193349874Y-94749874D01*
X193334650Y-94826411D01*
X193291295Y-94891295D01*
X193226411Y-94934650D01*
X193149874Y-94949874D01*
X192749874Y-94949874D01*
X192673337Y-94934650D01*
X192608453Y-94891295D01*
X192565098Y-94826411D01*
X192549874Y-94749874D01*
X192549874Y-94199874D01*
X192565098Y-94123337D01*
X192608453Y-94058453D01*
X192673337Y-94015098D01*
X192749874Y-93999874D01*
X193149874Y-93999874D01*
X193226411Y-94015098D01*
G37*
G36*
X175476411Y-93415098D02*
G01*
X175541295Y-93458453D01*
X175584650Y-93523337D01*
X175599874Y-93599874D01*
X175599874Y-94149874D01*
X175584650Y-94226411D01*
X175541295Y-94291295D01*
X175476411Y-94334650D01*
X175399874Y-94349874D01*
X174999874Y-94349874D01*
X174923337Y-94334650D01*
X174858453Y-94291295D01*
X174815098Y-94226411D01*
X174799874Y-94149874D01*
X174799874Y-93599874D01*
X174815098Y-93523337D01*
X174858453Y-93458453D01*
X174923337Y-93415098D01*
X174999874Y-93399874D01*
X175399874Y-93399874D01*
X175476411Y-93415098D01*
G37*
G36*
X177126411Y-93415098D02*
G01*
X177191295Y-93458453D01*
X177234650Y-93523337D01*
X177249874Y-93599874D01*
X177249874Y-94149874D01*
X177234650Y-94226411D01*
X177191295Y-94291295D01*
X177126411Y-94334650D01*
X177049874Y-94349874D01*
X176649874Y-94349874D01*
X176573337Y-94334650D01*
X176508453Y-94291295D01*
X176465098Y-94226411D01*
X176449874Y-94149874D01*
X176449874Y-93599874D01*
X176465098Y-93523337D01*
X176508453Y-93458453D01*
X176573337Y-93415098D01*
X176649874Y-93399874D01*
X177049874Y-93399874D01*
X177126411Y-93415098D01*
G37*
G36*
X118651537Y-92815098D02*
G01*
X118716421Y-92858453D01*
X118759776Y-92923337D01*
X118775000Y-92999874D01*
X118775000Y-93549874D01*
X118759776Y-93626411D01*
X118716421Y-93691295D01*
X118651537Y-93734650D01*
X118575000Y-93749874D01*
X118175000Y-93749874D01*
X118098463Y-93734650D01*
X118033579Y-93691295D01*
X117990224Y-93626411D01*
X117975000Y-93549874D01*
X117975000Y-92999874D01*
X117990224Y-92923337D01*
X118033579Y-92858453D01*
X118098463Y-92815098D01*
X118175000Y-92799874D01*
X118575000Y-92799874D01*
X118651537Y-92815098D01*
G37*
G36*
X120301537Y-92815098D02*
G01*
X120366421Y-92858453D01*
X120409776Y-92923337D01*
X120425000Y-92999874D01*
X120425000Y-93549874D01*
X120409776Y-93626411D01*
X120366421Y-93691295D01*
X120301537Y-93734650D01*
X120225000Y-93749874D01*
X119825000Y-93749874D01*
X119748463Y-93734650D01*
X119683579Y-93691295D01*
X119640224Y-93626411D01*
X119625000Y-93549874D01*
X119625000Y-92999874D01*
X119640224Y-92923337D01*
X119683579Y-92858453D01*
X119748463Y-92815098D01*
X119825000Y-92799874D01*
X120225000Y-92799874D01*
X120301537Y-92815098D01*
G37*
G36*
X186451537Y-92415098D02*
G01*
X186516421Y-92458453D01*
X186559776Y-92523337D01*
X186575000Y-92599874D01*
X186575000Y-93149874D01*
X186559776Y-93226411D01*
X186516421Y-93291295D01*
X186451537Y-93334650D01*
X186375000Y-93349874D01*
X185975000Y-93349874D01*
X185898463Y-93334650D01*
X185833579Y-93291295D01*
X185790224Y-93226411D01*
X185775000Y-93149874D01*
X185775000Y-92599874D01*
X185790224Y-92523337D01*
X185833579Y-92458453D01*
X185898463Y-92415098D01*
X185975000Y-92399874D01*
X186375000Y-92399874D01*
X186451537Y-92415098D01*
G37*
G36*
X188101537Y-92415098D02*
G01*
X188166421Y-92458453D01*
X188209776Y-92523337D01*
X188225000Y-92599874D01*
X188225000Y-93149874D01*
X188209776Y-93226411D01*
X188166421Y-93291295D01*
X188101537Y-93334650D01*
X188025000Y-93349874D01*
X187625000Y-93349874D01*
X187548463Y-93334650D01*
X187483579Y-93291295D01*
X187440224Y-93226411D01*
X187425000Y-93149874D01*
X187425000Y-92599874D01*
X187440224Y-92523337D01*
X187483579Y-92458453D01*
X187548463Y-92415098D01*
X187625000Y-92399874D01*
X188025000Y-92399874D01*
X188101537Y-92415098D01*
G37*
G36*
X191551411Y-92415098D02*
G01*
X191616295Y-92458453D01*
X191659650Y-92523337D01*
X191674874Y-92599874D01*
X191674874Y-93149874D01*
X191659650Y-93226411D01*
X191616295Y-93291295D01*
X191551411Y-93334650D01*
X191474874Y-93349874D01*
X191074874Y-93349874D01*
X190998337Y-93334650D01*
X190933453Y-93291295D01*
X190890098Y-93226411D01*
X190874874Y-93149874D01*
X190874874Y-92599874D01*
X190890098Y-92523337D01*
X190933453Y-92458453D01*
X190998337Y-92415098D01*
X191074874Y-92399874D01*
X191474874Y-92399874D01*
X191551411Y-92415098D01*
G37*
G36*
X193201411Y-92415098D02*
G01*
X193266295Y-92458453D01*
X193309650Y-92523337D01*
X193324874Y-92599874D01*
X193324874Y-93149874D01*
X193309650Y-93226411D01*
X193266295Y-93291295D01*
X193201411Y-93334650D01*
X193124874Y-93349874D01*
X192724874Y-93349874D01*
X192648337Y-93334650D01*
X192583453Y-93291295D01*
X192540098Y-93226411D01*
X192524874Y-93149874D01*
X192524874Y-92599874D01*
X192540098Y-92523337D01*
X192583453Y-92458453D01*
X192648337Y-92415098D01*
X192724874Y-92399874D01*
X193124874Y-92399874D01*
X193201411Y-92415098D01*
G37*
G36*
X175532277Y-92036292D02*
G01*
X175580940Y-92068808D01*
X175613456Y-92117471D01*
X175624874Y-92174874D01*
X175624874Y-92574874D01*
X175613456Y-92632277D01*
X175580940Y-92680940D01*
X175532277Y-92713456D01*
X175474874Y-92724874D01*
X175174874Y-92724874D01*
X175117471Y-92713456D01*
X175068808Y-92680940D01*
X175036292Y-92632277D01*
X175024874Y-92574874D01*
X175024874Y-92174874D01*
X175036292Y-92117471D01*
X175068808Y-92068808D01*
X175117471Y-92036292D01*
X175174874Y-92024874D01*
X175474874Y-92024874D01*
X175532277Y-92036292D01*
G37*
G36*
X176932277Y-92036292D02*
G01*
X176980940Y-92068808D01*
X177013456Y-92117471D01*
X177024874Y-92174874D01*
X177024874Y-92574874D01*
X177013456Y-92632277D01*
X176980940Y-92680940D01*
X176932277Y-92713456D01*
X176874874Y-92724874D01*
X176574874Y-92724874D01*
X176517471Y-92713456D01*
X176468808Y-92680940D01*
X176436292Y-92632277D01*
X176424874Y-92574874D01*
X176424874Y-92174874D01*
X176436292Y-92117471D01*
X176468808Y-92068808D01*
X176517471Y-92036292D01*
X176574874Y-92024874D01*
X176874874Y-92024874D01*
X176932277Y-92036292D01*
G37*
G36*
X118736104Y-91217001D02*
G01*
X118809099Y-91265775D01*
X118857873Y-91338770D01*
X118875000Y-91424874D01*
X118875000Y-91924874D01*
X118857873Y-92010978D01*
X118809099Y-92083973D01*
X118736104Y-92132747D01*
X118650000Y-92149874D01*
X118200000Y-92149874D01*
X118113896Y-92132747D01*
X118040901Y-92083973D01*
X117992127Y-92010978D01*
X117975000Y-91924874D01*
X117975000Y-91424874D01*
X117992127Y-91338770D01*
X118040901Y-91265775D01*
X118113896Y-91217001D01*
X118200000Y-91199874D01*
X118650000Y-91199874D01*
X118736104Y-91217001D01*
G37*
G36*
X120286104Y-91217001D02*
G01*
X120359099Y-91265775D01*
X120407873Y-91338770D01*
X120425000Y-91424874D01*
X120425000Y-91924874D01*
X120407873Y-92010978D01*
X120359099Y-92083973D01*
X120286104Y-92132747D01*
X120200000Y-92149874D01*
X119750000Y-92149874D01*
X119663896Y-92132747D01*
X119590901Y-92083973D01*
X119542127Y-92010978D01*
X119525000Y-91924874D01*
X119525000Y-91424874D01*
X119542127Y-91338770D01*
X119590901Y-91265775D01*
X119663896Y-91217001D01*
X119750000Y-91199874D01*
X120200000Y-91199874D01*
X120286104Y-91217001D01*
G37*
G36*
X186507403Y-90936292D02*
G01*
X186556066Y-90968808D01*
X186588582Y-91017471D01*
X186600000Y-91074874D01*
X186600000Y-91474874D01*
X186588582Y-91532277D01*
X186556066Y-91580940D01*
X186507403Y-91613456D01*
X186450000Y-91624874D01*
X186150000Y-91624874D01*
X186092597Y-91613456D01*
X186043934Y-91580940D01*
X186011418Y-91532277D01*
X186000000Y-91474874D01*
X186000000Y-91074874D01*
X186011418Y-91017471D01*
X186043934Y-90968808D01*
X186092597Y-90936292D01*
X186150000Y-90924874D01*
X186450000Y-90924874D01*
X186507403Y-90936292D01*
G37*
G36*
X187907403Y-90936292D02*
G01*
X187956066Y-90968808D01*
X187988582Y-91017471D01*
X188000000Y-91074874D01*
X188000000Y-91474874D01*
X187988582Y-91532277D01*
X187956066Y-91580940D01*
X187907403Y-91613456D01*
X187850000Y-91624874D01*
X187550000Y-91624874D01*
X187492597Y-91613456D01*
X187443934Y-91580940D01*
X187411418Y-91532277D01*
X187400000Y-91474874D01*
X187400000Y-91074874D01*
X187411418Y-91017471D01*
X187443934Y-90968808D01*
X187492597Y-90936292D01*
X187550000Y-90924874D01*
X187850000Y-90924874D01*
X187907403Y-90936292D01*
G37*
G36*
X175476411Y-90415098D02*
G01*
X175541295Y-90458453D01*
X175584650Y-90523337D01*
X175599874Y-90599874D01*
X175599874Y-91149874D01*
X175584650Y-91226411D01*
X175541295Y-91291295D01*
X175476411Y-91334650D01*
X175399874Y-91349874D01*
X174999874Y-91349874D01*
X174923337Y-91334650D01*
X174858453Y-91291295D01*
X174815098Y-91226411D01*
X174799874Y-91149874D01*
X174799874Y-90599874D01*
X174815098Y-90523337D01*
X174858453Y-90458453D01*
X174923337Y-90415098D01*
X174999874Y-90399874D01*
X175399874Y-90399874D01*
X175476411Y-90415098D01*
G37*
G36*
X177126411Y-90415098D02*
G01*
X177191295Y-90458453D01*
X177234650Y-90523337D01*
X177249874Y-90599874D01*
X177249874Y-91149874D01*
X177234650Y-91226411D01*
X177191295Y-91291295D01*
X177126411Y-91334650D01*
X177049874Y-91349874D01*
X176649874Y-91349874D01*
X176573337Y-91334650D01*
X176508453Y-91291295D01*
X176465098Y-91226411D01*
X176449874Y-91149874D01*
X176449874Y-90599874D01*
X176465098Y-90523337D01*
X176508453Y-90458453D01*
X176573337Y-90415098D01*
X176649874Y-90399874D01*
X177049874Y-90399874D01*
X177126411Y-90415098D01*
G37*
G36*
X118651537Y-89615098D02*
G01*
X118716421Y-89658453D01*
X118759776Y-89723337D01*
X118775000Y-89799874D01*
X118775000Y-90349874D01*
X118759776Y-90426411D01*
X118716421Y-90491295D01*
X118651537Y-90534650D01*
X118575000Y-90549874D01*
X118175000Y-90549874D01*
X118098463Y-90534650D01*
X118033579Y-90491295D01*
X117990224Y-90426411D01*
X117975000Y-90349874D01*
X117975000Y-89799874D01*
X117990224Y-89723337D01*
X118033579Y-89658453D01*
X118098463Y-89615098D01*
X118175000Y-89599874D01*
X118575000Y-89599874D01*
X118651537Y-89615098D01*
G37*
G36*
X120301537Y-89615098D02*
G01*
X120366421Y-89658453D01*
X120409776Y-89723337D01*
X120425000Y-89799874D01*
X120425000Y-90349874D01*
X120409776Y-90426411D01*
X120366421Y-90491295D01*
X120301537Y-90534650D01*
X120225000Y-90549874D01*
X119825000Y-90549874D01*
X119748463Y-90534650D01*
X119683579Y-90491295D01*
X119640224Y-90426411D01*
X119625000Y-90349874D01*
X119625000Y-89799874D01*
X119640224Y-89723337D01*
X119683579Y-89658453D01*
X119748463Y-89615098D01*
X119825000Y-89599874D01*
X120225000Y-89599874D01*
X120301537Y-89615098D01*
G37*
G36*
X175476411Y-88815098D02*
G01*
X175541295Y-88858453D01*
X175584650Y-88923337D01*
X175599874Y-88999874D01*
X175599874Y-89549874D01*
X175584650Y-89626411D01*
X175541295Y-89691295D01*
X175476411Y-89734650D01*
X175399874Y-89749874D01*
X174999874Y-89749874D01*
X174923337Y-89734650D01*
X174858453Y-89691295D01*
X174815098Y-89626411D01*
X174799874Y-89549874D01*
X174799874Y-88999874D01*
X174815098Y-88923337D01*
X174858453Y-88858453D01*
X174923337Y-88815098D01*
X174999874Y-88799874D01*
X175399874Y-88799874D01*
X175476411Y-88815098D01*
G37*
G36*
X177126411Y-88815098D02*
G01*
X177191295Y-88858453D01*
X177234650Y-88923337D01*
X177249874Y-88999874D01*
X177249874Y-89549874D01*
X177234650Y-89626411D01*
X177191295Y-89691295D01*
X177126411Y-89734650D01*
X177049874Y-89749874D01*
X176649874Y-89749874D01*
X176573337Y-89734650D01*
X176508453Y-89691295D01*
X176465098Y-89626411D01*
X176449874Y-89549874D01*
X176449874Y-88999874D01*
X176465098Y-88923337D01*
X176508453Y-88858453D01*
X176573337Y-88815098D01*
X176649874Y-88799874D01*
X177049874Y-88799874D01*
X177126411Y-88815098D01*
G37*
G36*
X118651537Y-88015098D02*
G01*
X118716421Y-88058453D01*
X118759776Y-88123337D01*
X118775000Y-88199874D01*
X118775000Y-88749874D01*
X118759776Y-88826411D01*
X118716421Y-88891295D01*
X118651537Y-88934650D01*
X118575000Y-88949874D01*
X118175000Y-88949874D01*
X118098463Y-88934650D01*
X118033579Y-88891295D01*
X117990224Y-88826411D01*
X117975000Y-88749874D01*
X117975000Y-88199874D01*
X117990224Y-88123337D01*
X118033579Y-88058453D01*
X118098463Y-88015098D01*
X118175000Y-87999874D01*
X118575000Y-87999874D01*
X118651537Y-88015098D01*
G37*
G36*
X120301537Y-88015098D02*
G01*
X120366421Y-88058453D01*
X120409776Y-88123337D01*
X120425000Y-88199874D01*
X120425000Y-88749874D01*
X120409776Y-88826411D01*
X120366421Y-88891295D01*
X120301537Y-88934650D01*
X120225000Y-88949874D01*
X119825000Y-88949874D01*
X119748463Y-88934650D01*
X119683579Y-88891295D01*
X119640224Y-88826411D01*
X119625000Y-88749874D01*
X119625000Y-88199874D01*
X119640224Y-88123337D01*
X119683579Y-88058453D01*
X119748463Y-88015098D01*
X119825000Y-87999874D01*
X120225000Y-87999874D01*
X120301537Y-88015098D01*
G37*
G36*
X159788269Y-77393831D02*
G01*
X160097095Y-77450425D01*
X160396847Y-77543832D01*
X160683154Y-77672688D01*
X160951842Y-77835116D01*
X161198993Y-78028746D01*
X161421002Y-78250755D01*
X161614632Y-78497906D01*
X161777060Y-78766594D01*
X161905916Y-79052901D01*
X161999323Y-79352653D01*
X162055917Y-79661479D01*
X162074874Y-79974874D01*
X162055917Y-80288269D01*
X161999323Y-80597095D01*
X161905916Y-80896847D01*
X161777060Y-81183154D01*
X161614632Y-81451842D01*
X161421002Y-81698993D01*
X161198993Y-81921002D01*
X160951842Y-82114632D01*
X160683154Y-82277060D01*
X160396847Y-82405916D01*
X160097095Y-82499323D01*
X159788269Y-82555917D01*
X159474874Y-82574874D01*
X159161479Y-82555917D01*
X158852653Y-82499323D01*
X158552901Y-82405916D01*
X158266594Y-82277060D01*
X157997906Y-82114632D01*
X157750755Y-81921002D01*
X157528746Y-81698993D01*
X157335116Y-81451842D01*
X157172688Y-81183154D01*
X157043832Y-80896847D01*
X156950425Y-80597095D01*
X156893831Y-80288269D01*
X156874874Y-79974874D01*
X156893831Y-79661479D01*
X156950425Y-79352653D01*
X157043832Y-79052901D01*
X157172688Y-78766594D01*
X157335116Y-78497906D01*
X157528746Y-78250755D01*
X157750755Y-78028746D01*
X157997906Y-77835116D01*
X158266594Y-77672688D01*
X158552901Y-77543832D01*
X158852653Y-77450425D01*
X159161479Y-77393831D01*
X159474874Y-77374874D01*
X159788269Y-77393831D01*
G37*
G36*
X171788269Y-77393831D02*
G01*
X172097095Y-77450425D01*
X172396847Y-77543832D01*
X172683154Y-77672688D01*
X172951842Y-77835116D01*
X173198993Y-78028746D01*
X173421002Y-78250755D01*
X173614632Y-78497906D01*
X173777060Y-78766594D01*
X173905916Y-79052901D01*
X173999323Y-79352653D01*
X174055917Y-79661479D01*
X174074874Y-79974874D01*
X174055917Y-80288269D01*
X173999323Y-80597095D01*
X173905916Y-80896847D01*
X173777060Y-81183154D01*
X173614632Y-81451842D01*
X173421002Y-81698993D01*
X173198993Y-81921002D01*
X172951842Y-82114632D01*
X172683154Y-82277060D01*
X172396847Y-82405916D01*
X172097095Y-82499323D01*
X171788269Y-82555917D01*
X171474874Y-82574874D01*
X171161479Y-82555917D01*
X170852653Y-82499323D01*
X170552901Y-82405916D01*
X170266594Y-82277060D01*
X169997906Y-82114632D01*
X169750755Y-81921002D01*
X169528746Y-81698993D01*
X169335116Y-81451842D01*
X169172688Y-81183154D01*
X169043832Y-80896847D01*
X168950425Y-80597095D01*
X168893831Y-80288269D01*
X168874874Y-79974874D01*
X168893831Y-79661479D01*
X168950425Y-79352653D01*
X169043832Y-79052901D01*
X169172688Y-78766594D01*
X169335116Y-78497906D01*
X169528746Y-78250755D01*
X169750755Y-78028746D01*
X169997906Y-77835116D01*
X170266594Y-77672688D01*
X170552901Y-77543832D01*
X170852653Y-77450425D01*
X171161479Y-77393831D01*
X171474874Y-77374874D01*
X171788269Y-77393831D01*
G37*
G36*
X183788269Y-77393831D02*
G01*
X184097095Y-77450425D01*
X184396847Y-77543832D01*
X184683154Y-77672688D01*
X184951842Y-77835116D01*
X185198993Y-78028746D01*
X185421002Y-78250755D01*
X185614632Y-78497906D01*
X185777060Y-78766594D01*
X185905916Y-79052901D01*
X185999323Y-79352653D01*
X186055917Y-79661479D01*
X186074874Y-79974874D01*
X186055917Y-80288269D01*
X185999323Y-80597095D01*
X185905916Y-80896847D01*
X185777060Y-81183154D01*
X185614632Y-81451842D01*
X185421002Y-81698993D01*
X185198993Y-81921002D01*
X184951842Y-82114632D01*
X184683154Y-82277060D01*
X184396847Y-82405916D01*
X184097095Y-82499323D01*
X183788269Y-82555917D01*
X183474874Y-82574874D01*
X183161479Y-82555917D01*
X182852653Y-82499323D01*
X182552901Y-82405916D01*
X182266594Y-82277060D01*
X181997906Y-82114632D01*
X181750755Y-81921002D01*
X181528746Y-81698993D01*
X181335116Y-81451842D01*
X181172688Y-81183154D01*
X181043832Y-80896847D01*
X180950425Y-80597095D01*
X180893831Y-80288269D01*
X180874874Y-79974874D01*
X180893831Y-79661479D01*
X180950425Y-79352653D01*
X181043832Y-79052901D01*
X181172688Y-78766594D01*
X181335116Y-78497906D01*
X181528746Y-78250755D01*
X181750755Y-78028746D01*
X181997906Y-77835116D01*
X182266594Y-77672688D01*
X182552901Y-77543832D01*
X182852653Y-77450425D01*
X183161479Y-77393831D01*
X183474874Y-77374874D01*
X183788269Y-77393831D01*
G37*
G36*
X195788269Y-77393831D02*
G01*
X196097095Y-77450425D01*
X196396847Y-77543832D01*
X196683154Y-77672688D01*
X196951842Y-77835116D01*
X197198993Y-78028746D01*
X197421002Y-78250755D01*
X197614632Y-78497906D01*
X197777060Y-78766594D01*
X197905916Y-79052901D01*
X197999323Y-79352653D01*
X198055917Y-79661479D01*
X198074874Y-79974874D01*
X198055917Y-80288269D01*
X197999323Y-80597095D01*
X197905916Y-80896847D01*
X197777060Y-81183154D01*
X197614632Y-81451842D01*
X197421002Y-81698993D01*
X197198993Y-81921002D01*
X196951842Y-82114632D01*
X196683154Y-82277060D01*
X196396847Y-82405916D01*
X196097095Y-82499323D01*
X195788269Y-82555917D01*
X195474874Y-82574874D01*
X195161479Y-82555917D01*
X194852653Y-82499323D01*
X194552901Y-82405916D01*
X194266594Y-82277060D01*
X193997906Y-82114632D01*
X193750755Y-81921002D01*
X193528746Y-81698993D01*
X193335116Y-81451842D01*
X193172688Y-81183154D01*
X193043832Y-80896847D01*
X192950425Y-80597095D01*
X192893831Y-80288269D01*
X192874874Y-79974874D01*
X192893831Y-79661479D01*
X192950425Y-79352653D01*
X193043832Y-79052901D01*
X193172688Y-78766594D01*
X193335116Y-78497906D01*
X193528746Y-78250755D01*
X193750755Y-78028746D01*
X193997906Y-77835116D01*
X194266594Y-77672688D01*
X194552901Y-77543832D01*
X194852653Y-77450425D01*
X195161479Y-77393831D01*
X195474874Y-77374874D01*
X195788269Y-77393831D01*
G37*
G36*
X92584617Y-75804752D02*
G01*
X92673237Y-75804752D01*
X92767863Y-75815042D01*
X92858286Y-75820121D01*
X92936052Y-75833334D01*
X93017695Y-75842213D01*
X93117132Y-75864100D01*
X93212067Y-75880231D01*
X93282190Y-75900432D01*
X93356078Y-75916697D01*
X93458904Y-75951343D01*
X93556893Y-75979573D01*
X93618829Y-76005227D01*
X93684420Y-76027328D01*
X93789066Y-76075743D01*
X93888428Y-76116900D01*
X93941885Y-76146444D01*
X93998879Y-76172813D01*
X94103601Y-76235822D01*
X94202503Y-76290483D01*
X94247429Y-76322360D01*
X94295766Y-76351443D01*
X94398711Y-76429700D01*
X94495167Y-76498139D01*
X94531765Y-76530845D01*
X94571599Y-76561126D01*
X94670795Y-76655090D01*
X94762742Y-76737258D01*
X94791434Y-76769364D01*
X94823139Y-76799397D01*
X94916559Y-76909380D01*
X95001861Y-77004833D01*
X95023285Y-77035028D01*
X95047451Y-77063478D01*
X95133041Y-77189715D01*
X95209517Y-77297497D01*
X95224498Y-77324603D01*
X95241891Y-77350256D01*
X95317594Y-77493048D01*
X95383100Y-77611572D01*
X95392633Y-77634588D01*
X95404189Y-77656384D01*
X95468007Y-77816555D01*
X95520427Y-77943107D01*
X95525640Y-77961202D01*
X95532433Y-77978251D01*
X95582458Y-78158425D01*
X95619769Y-78287933D01*
X95621901Y-78300483D01*
X95625129Y-78312108D01*
X95659534Y-78521976D01*
X95679879Y-78641714D01*
X95680251Y-78648344D01*
X95681183Y-78654027D01*
X95698292Y-78969602D01*
X95700000Y-79000000D01*
X95698292Y-79030400D01*
X95681183Y-79345972D01*
X95680251Y-79351654D01*
X95679879Y-79358286D01*
X95659530Y-79478050D01*
X95625129Y-79687891D01*
X95621901Y-79699514D01*
X95619769Y-79712067D01*
X95582451Y-79841601D01*
X95532433Y-80021748D01*
X95525641Y-80038794D01*
X95520427Y-80056893D01*
X95467997Y-80183469D01*
X95404189Y-80343615D01*
X95392635Y-80365407D01*
X95383100Y-80388428D01*
X95317581Y-80506975D01*
X95241891Y-80649743D01*
X95224501Y-80675390D01*
X95209517Y-80702503D01*
X95133026Y-80810306D01*
X95047451Y-80936521D01*
X95023290Y-80964965D01*
X95001861Y-80995167D01*
X94916542Y-81090638D01*
X94823139Y-81200602D01*
X94791439Y-81230628D01*
X94762742Y-81262742D01*
X94670777Y-81344926D01*
X94571599Y-81438873D01*
X94531772Y-81469147D01*
X94495167Y-81501861D01*
X94398692Y-81570313D01*
X94295766Y-81648556D01*
X94247439Y-81677633D01*
X94202503Y-81709517D01*
X94103581Y-81764188D01*
X93998879Y-81827186D01*
X93941896Y-81853549D01*
X93888428Y-81883100D01*
X93789046Y-81924265D01*
X93684420Y-81972671D01*
X93618842Y-81994766D01*
X93556893Y-82020427D01*
X93458884Y-82048662D01*
X93356078Y-82083302D01*
X93282204Y-82099562D01*
X93212067Y-82119769D01*
X93117112Y-82135902D01*
X93017695Y-82157786D01*
X92936064Y-82166663D01*
X92858286Y-82179879D01*
X92767858Y-82184957D01*
X92673237Y-82195248D01*
X92584617Y-82195248D01*
X92500000Y-82200000D01*
X92415383Y-82195248D01*
X92326763Y-82195248D01*
X92232141Y-82184957D01*
X92141714Y-82179879D01*
X92063936Y-82166664D01*
X91982304Y-82157786D01*
X91882883Y-82135901D01*
X91787933Y-82119769D01*
X91717798Y-82099563D01*
X91643921Y-82083302D01*
X91541109Y-82048660D01*
X91443107Y-82020427D01*
X91381162Y-81994768D01*
X91315579Y-81972671D01*
X91210944Y-81924261D01*
X91111572Y-81883100D01*
X91058108Y-81853552D01*
X91001120Y-81827186D01*
X90896406Y-81764182D01*
X90797497Y-81709517D01*
X90752566Y-81677637D01*
X90704233Y-81648556D01*
X90601292Y-81570302D01*
X90504833Y-81501861D01*
X90468232Y-81469153D01*
X90428400Y-81438873D01*
X90329205Y-81344910D01*
X90237258Y-81262742D01*
X90208565Y-81230635D01*
X90176860Y-81200602D01*
X90083437Y-81090616D01*
X89998139Y-80995167D01*
X89976714Y-80964972D01*
X89952548Y-80936521D01*
X89866950Y-80810274D01*
X89790483Y-80702503D01*
X89775503Y-80675398D01*
X89758108Y-80649743D01*
X89682394Y-80506930D01*
X89616900Y-80388428D01*
X89607367Y-80365415D01*
X89595810Y-80343615D01*
X89531976Y-80183405D01*
X89479573Y-80056893D01*
X89474361Y-80038803D01*
X89467566Y-80021748D01*
X89417521Y-79841505D01*
X89380231Y-79712067D01*
X89378099Y-79699523D01*
X89374870Y-79687891D01*
X89340441Y-79477882D01*
X89320121Y-79358286D01*
X89319749Y-79351663D01*
X89318816Y-79345972D01*
X89301678Y-79029884D01*
X89300000Y-79000000D01*
X89301678Y-78970117D01*
X89318816Y-78654027D01*
X89319749Y-78648334D01*
X89320121Y-78641714D01*
X89340436Y-78522144D01*
X89374870Y-78312108D01*
X89378100Y-78300474D01*
X89380231Y-78287933D01*
X89417513Y-78158520D01*
X89467566Y-77978251D01*
X89474362Y-77961193D01*
X89479573Y-77943107D01*
X89531966Y-77816619D01*
X89595810Y-77656384D01*
X89607369Y-77634579D01*
X89616900Y-77611572D01*
X89682381Y-77493092D01*
X89758108Y-77350256D01*
X89775506Y-77324595D01*
X89790483Y-77297497D01*
X89866935Y-77189747D01*
X89952548Y-77063478D01*
X89976719Y-77035021D01*
X89998139Y-77004833D01*
X90083420Y-76909402D01*
X90176860Y-76799397D01*
X90208571Y-76769358D01*
X90237258Y-76737258D01*
X90329186Y-76655105D01*
X90428400Y-76561126D01*
X90468240Y-76530840D01*
X90504833Y-76498139D01*
X90601273Y-76429711D01*
X90704233Y-76351443D01*
X90752575Y-76322356D01*
X90797497Y-76290483D01*
X90896385Y-76235829D01*
X91001120Y-76172813D01*
X91058120Y-76146441D01*
X91111572Y-76116900D01*
X91210923Y-76075747D01*
X91315579Y-76027328D01*
X91381175Y-76005226D01*
X91443107Y-75979573D01*
X91541088Y-75951345D01*
X91643921Y-75916697D01*
X91717813Y-75900432D01*
X91787933Y-75880231D01*
X91882863Y-75864101D01*
X91982304Y-75842213D01*
X92063948Y-75833333D01*
X92141714Y-75820121D01*
X92232135Y-75815042D01*
X92326763Y-75804752D01*
X92415383Y-75804752D01*
X92500000Y-75800000D01*
X92584617Y-75804752D01*
G37*
G36*
X204584617Y-75804752D02*
G01*
X204673237Y-75804752D01*
X204767863Y-75815042D01*
X204858286Y-75820121D01*
X204936052Y-75833334D01*
X205017695Y-75842213D01*
X205117132Y-75864100D01*
X205212067Y-75880231D01*
X205282190Y-75900432D01*
X205356078Y-75916697D01*
X205458904Y-75951343D01*
X205556893Y-75979573D01*
X205618829Y-76005227D01*
X205684420Y-76027328D01*
X205789066Y-76075743D01*
X205888428Y-76116900D01*
X205941885Y-76146444D01*
X205998879Y-76172813D01*
X206103601Y-76235822D01*
X206202503Y-76290483D01*
X206247429Y-76322360D01*
X206295766Y-76351443D01*
X206398711Y-76429700D01*
X206495167Y-76498139D01*
X206531765Y-76530845D01*
X206571599Y-76561126D01*
X206670795Y-76655090D01*
X206762742Y-76737258D01*
X206791434Y-76769364D01*
X206823139Y-76799397D01*
X206916559Y-76909380D01*
X207001861Y-77004833D01*
X207023285Y-77035028D01*
X207047451Y-77063478D01*
X207133041Y-77189715D01*
X207209517Y-77297497D01*
X207224498Y-77324603D01*
X207241891Y-77350256D01*
X207317594Y-77493048D01*
X207383100Y-77611572D01*
X207392633Y-77634588D01*
X207404189Y-77656384D01*
X207468007Y-77816555D01*
X207520427Y-77943107D01*
X207525640Y-77961202D01*
X207532433Y-77978251D01*
X207582458Y-78158425D01*
X207619769Y-78287933D01*
X207621901Y-78300483D01*
X207625129Y-78312108D01*
X207659534Y-78521976D01*
X207679879Y-78641714D01*
X207680251Y-78648344D01*
X207681183Y-78654027D01*
X207698292Y-78969602D01*
X207700000Y-79000000D01*
X207698292Y-79030400D01*
X207681183Y-79345972D01*
X207680251Y-79351654D01*
X207679879Y-79358286D01*
X207659530Y-79478050D01*
X207625129Y-79687891D01*
X207621901Y-79699514D01*
X207619769Y-79712067D01*
X207582451Y-79841601D01*
X207532433Y-80021748D01*
X207525641Y-80038794D01*
X207520427Y-80056893D01*
X207467997Y-80183469D01*
X207404189Y-80343615D01*
X207392635Y-80365407D01*
X207383100Y-80388428D01*
X207317581Y-80506975D01*
X207241891Y-80649743D01*
X207224501Y-80675390D01*
X207209517Y-80702503D01*
X207133026Y-80810306D01*
X207047451Y-80936521D01*
X207023290Y-80964965D01*
X207001861Y-80995167D01*
X206916542Y-81090638D01*
X206823139Y-81200602D01*
X206791439Y-81230628D01*
X206762742Y-81262742D01*
X206670777Y-81344926D01*
X206571599Y-81438873D01*
X206531772Y-81469147D01*
X206495167Y-81501861D01*
X206398692Y-81570313D01*
X206295766Y-81648556D01*
X206247439Y-81677633D01*
X206202503Y-81709517D01*
X206103581Y-81764188D01*
X205998879Y-81827186D01*
X205941896Y-81853549D01*
X205888428Y-81883100D01*
X205789046Y-81924265D01*
X205684420Y-81972671D01*
X205618842Y-81994766D01*
X205556893Y-82020427D01*
X205458884Y-82048662D01*
X205356078Y-82083302D01*
X205282204Y-82099562D01*
X205212067Y-82119769D01*
X205117112Y-82135902D01*
X205017695Y-82157786D01*
X204936064Y-82166663D01*
X204858286Y-82179879D01*
X204767858Y-82184957D01*
X204673237Y-82195248D01*
X204584617Y-82195248D01*
X204500000Y-82200000D01*
X204415383Y-82195248D01*
X204326763Y-82195248D01*
X204232141Y-82184957D01*
X204141714Y-82179879D01*
X204063936Y-82166664D01*
X203982304Y-82157786D01*
X203882883Y-82135901D01*
X203787933Y-82119769D01*
X203717798Y-82099563D01*
X203643921Y-82083302D01*
X203541109Y-82048660D01*
X203443107Y-82020427D01*
X203381162Y-81994768D01*
X203315579Y-81972671D01*
X203210944Y-81924261D01*
X203111572Y-81883100D01*
X203058108Y-81853552D01*
X203001120Y-81827186D01*
X202896406Y-81764182D01*
X202797497Y-81709517D01*
X202752566Y-81677637D01*
X202704233Y-81648556D01*
X202601292Y-81570302D01*
X202504833Y-81501861D01*
X202468232Y-81469153D01*
X202428400Y-81438873D01*
X202329205Y-81344910D01*
X202237258Y-81262742D01*
X202208565Y-81230635D01*
X202176860Y-81200602D01*
X202083437Y-81090616D01*
X201998139Y-80995167D01*
X201976714Y-80964972D01*
X201952548Y-80936521D01*
X201866950Y-80810274D01*
X201790483Y-80702503D01*
X201775503Y-80675398D01*
X201758108Y-80649743D01*
X201682394Y-80506930D01*
X201616900Y-80388428D01*
X201607367Y-80365415D01*
X201595810Y-80343615D01*
X201531976Y-80183405D01*
X201479573Y-80056893D01*
X201474361Y-80038803D01*
X201467566Y-80021748D01*
X201417521Y-79841505D01*
X201380231Y-79712067D01*
X201378099Y-79699523D01*
X201374870Y-79687891D01*
X201340441Y-79477882D01*
X201320121Y-79358286D01*
X201319749Y-79351663D01*
X201318816Y-79345972D01*
X201301678Y-79029884D01*
X201300000Y-79000000D01*
X201301678Y-78970117D01*
X201318816Y-78654027D01*
X201319749Y-78648334D01*
X201320121Y-78641714D01*
X201340436Y-78522144D01*
X201374870Y-78312108D01*
X201378100Y-78300474D01*
X201380231Y-78287933D01*
X201417513Y-78158520D01*
X201467566Y-77978251D01*
X201474362Y-77961193D01*
X201479573Y-77943107D01*
X201531966Y-77816619D01*
X201595810Y-77656384D01*
X201607369Y-77634579D01*
X201616900Y-77611572D01*
X201682381Y-77493092D01*
X201758108Y-77350256D01*
X201775506Y-77324595D01*
X201790483Y-77297497D01*
X201866935Y-77189747D01*
X201952548Y-77063478D01*
X201976719Y-77035021D01*
X201998139Y-77004833D01*
X202083420Y-76909402D01*
X202176860Y-76799397D01*
X202208571Y-76769358D01*
X202237258Y-76737258D01*
X202329186Y-76655105D01*
X202428400Y-76561126D01*
X202468240Y-76530840D01*
X202504833Y-76498139D01*
X202601273Y-76429711D01*
X202704233Y-76351443D01*
X202752575Y-76322356D01*
X202797497Y-76290483D01*
X202896385Y-76235829D01*
X203001120Y-76172813D01*
X203058120Y-76146441D01*
X203111572Y-76116900D01*
X203210923Y-76075747D01*
X203315579Y-76027328D01*
X203381175Y-76005226D01*
X203443107Y-75979573D01*
X203541088Y-75951345D01*
X203643921Y-75916697D01*
X203717813Y-75900432D01*
X203787933Y-75880231D01*
X203882863Y-75864101D01*
X203982304Y-75842213D01*
X204063948Y-75833333D01*
X204141714Y-75820121D01*
X204232135Y-75815042D01*
X204326763Y-75804752D01*
X204415383Y-75804752D01*
X204500000Y-75800000D01*
X204584617Y-75804752D01*
G37*
M02*
