%TF.GenerationSoftware,KiCad,Pcbnew,7.0.8*%
%TF.CreationDate,2023-11-12T21:10:44-08:00*%
%TF.ProjectId,bms,626d732e-6b69-4636-9164-5f7063625858,V1*%
%TF.SameCoordinates,Original*%
%TF.FileFunction,Drillmap*%
%TF.FilePolarity,Positive*%
%FSLAX45Y45*%
G04 Gerber Fmt 4.5, Leading zero omitted, Abs format (unit mm)*
G04 Created by KiCad (PCBNEW 7.0.8) date 2023-11-12 21:10:44*
%MOMM*%
%LPD*%
G01*
G04 APERTURE LIST*
%ADD10C,0.100000*%
%ADD11C,0.200000*%
%ADD12C,0.020320*%
%ADD13C,0.025000*%
%ADD14C,0.035560*%
%ADD15C,0.050000*%
%ADD16C,0.320000*%
G04 APERTURE END LIST*
D10*
X8850000Y-7850000D02*
X8850000Y-11650000D01*
X10923033Y-11450000D02*
G75*
G03*
X10850000Y-11523033I-3J-73030D01*
G01*
X20500000Y-7500000D02*
X9200000Y-7500000D01*
X10775000Y-12000000D02*
X9200000Y-12000000D01*
X12200000Y-11925000D02*
G75*
G03*
X12275000Y-12000000I75000J0D01*
G01*
X20850000Y-11650000D02*
X20850000Y-7850000D01*
X20500000Y-12000000D02*
G75*
G03*
X20850000Y-11650000I0J350000D01*
G01*
X8850000Y-11650000D02*
G75*
G03*
X9200000Y-12000000I350000J0D01*
G01*
X12275000Y-12000000D02*
X20500000Y-12000000D01*
X10850000Y-11523033D02*
X10850000Y-11925000D01*
X12200000Y-11925000D02*
X12200000Y-11521642D01*
X12200000Y-11521642D02*
G75*
G03*
X12130011Y-11450019I-71640J2D01*
G01*
X10775000Y-12000000D02*
G75*
G03*
X10850000Y-11925000I0J75000D01*
G01*
X9200000Y-7500000D02*
G75*
G03*
X8850000Y-7850000I0J-350000D01*
G01*
X20850000Y-7850000D02*
G75*
G03*
X20500000Y-7500000I-350000J0D01*
G01*
X12130011Y-11450019D02*
X10923044Y-11449536D01*
D11*
D12*
X8939840Y-8139840D02*
X8960160Y-8160160D01*
X8960160Y-8139840D02*
X8939840Y-8160160D01*
X8939840Y-8289840D02*
X8960160Y-8310160D01*
X8960160Y-8289840D02*
X8939840Y-8310160D01*
X8939840Y-8439840D02*
X8960160Y-8460160D01*
X8960160Y-8439840D02*
X8939840Y-8460160D01*
X8939840Y-8589840D02*
X8960160Y-8610160D01*
X8960160Y-8589840D02*
X8939840Y-8610160D01*
X8939840Y-8739840D02*
X8960160Y-8760160D01*
X8960160Y-8739840D02*
X8939840Y-8760160D01*
X8939840Y-8889840D02*
X8960160Y-8910160D01*
X8960160Y-8889840D02*
X8939840Y-8910160D01*
X8939840Y-9039840D02*
X8960160Y-9060160D01*
X8960160Y-9039840D02*
X8939840Y-9060160D01*
X8939840Y-9189840D02*
X8960160Y-9210160D01*
X8960160Y-9189840D02*
X8939840Y-9210160D01*
X8939840Y-9339840D02*
X8960160Y-9360160D01*
X8960160Y-9339840D02*
X8939840Y-9360160D01*
X8939840Y-9489840D02*
X8960160Y-9510160D01*
X8960160Y-9489840D02*
X8939840Y-9510160D01*
X8939840Y-9639840D02*
X8960160Y-9660160D01*
X8960160Y-9639840D02*
X8939840Y-9660160D01*
X8939840Y-9789840D02*
X8960160Y-9810160D01*
X8960160Y-9789840D02*
X8939840Y-9810160D01*
X8939840Y-9939840D02*
X8960160Y-9960160D01*
X8960160Y-9939840D02*
X8939840Y-9960160D01*
X8939840Y-10089840D02*
X8960160Y-10110160D01*
X8960160Y-10089840D02*
X8939840Y-10110160D01*
X8939840Y-10239840D02*
X8960160Y-10260160D01*
X8960160Y-10239840D02*
X8939840Y-10260160D01*
X8939840Y-10389840D02*
X8960160Y-10410160D01*
X8960160Y-10389840D02*
X8939840Y-10410160D01*
X8939840Y-10539840D02*
X8960160Y-10560160D01*
X8960160Y-10539840D02*
X8939840Y-10560160D01*
X8939840Y-10689840D02*
X8960160Y-10710160D01*
X8960160Y-10689840D02*
X8939840Y-10710160D01*
X8939840Y-10839840D02*
X8960160Y-10860160D01*
X8960160Y-10839840D02*
X8939840Y-10860160D01*
X8939840Y-10989840D02*
X8960160Y-11010160D01*
X8960160Y-10989840D02*
X8939840Y-11010160D01*
X8939840Y-11139840D02*
X8960160Y-11160160D01*
X8960160Y-11139840D02*
X8939840Y-11160160D01*
X8939840Y-11289840D02*
X8960160Y-11310160D01*
X8960160Y-11289840D02*
X8939840Y-11310160D01*
X8939840Y-11439840D02*
X8960160Y-11460160D01*
X8960160Y-11439840D02*
X8939840Y-11460160D01*
X8939840Y-11589840D02*
X8960160Y-11610160D01*
X8960160Y-11589840D02*
X8939840Y-11610160D01*
X8989840Y-11739840D02*
X9010160Y-11760160D01*
X9010160Y-11739840D02*
X8989840Y-11760160D01*
X9039840Y-8239840D02*
X9060160Y-8260160D01*
X9060160Y-8239840D02*
X9039840Y-8260160D01*
X9089840Y-11839840D02*
X9110160Y-11860160D01*
X9110160Y-11839840D02*
X9089840Y-11860160D01*
X9122327Y-10637327D02*
X9142647Y-10657647D01*
X9142647Y-10637327D02*
X9122327Y-10657647D01*
X9125827Y-11650827D02*
X9146147Y-11671147D01*
X9146147Y-11650827D02*
X9125827Y-11671147D01*
X9132327Y-8947327D02*
X9152647Y-8967647D01*
X9152647Y-8947327D02*
X9132327Y-8967647D01*
X9132327Y-10317327D02*
X9152647Y-10337647D01*
X9152647Y-10317327D02*
X9132327Y-10337647D01*
X9137327Y-9292327D02*
X9157647Y-9312647D01*
X9157647Y-9292327D02*
X9137327Y-9312647D01*
X9137327Y-9602327D02*
X9157647Y-9622647D01*
X9157647Y-9602327D02*
X9137327Y-9622647D01*
X9137327Y-10222327D02*
X9157647Y-10242647D01*
X9157647Y-10222327D02*
X9137327Y-10242647D01*
X9139840Y-10789840D02*
X9160160Y-10810160D01*
X9160160Y-10789840D02*
X9139840Y-10810160D01*
X9139840Y-11189840D02*
X9160160Y-11210160D01*
X9160160Y-11189840D02*
X9139840Y-11210160D01*
X9142327Y-8617327D02*
X9162647Y-8637647D01*
X9162647Y-8617327D02*
X9142327Y-8637647D01*
X9142327Y-9937327D02*
X9162647Y-9957647D01*
X9162647Y-9937327D02*
X9142327Y-9957647D01*
X9168302Y-8270712D02*
X9188622Y-8291032D01*
X9188622Y-8270712D02*
X9168302Y-8291032D01*
X9239840Y-8789840D02*
X9260160Y-8810160D01*
X9260160Y-8789840D02*
X9239840Y-8810160D01*
X9239840Y-9789840D02*
X9260160Y-9810160D01*
X9260160Y-9789840D02*
X9239840Y-9810160D01*
X9239840Y-10989840D02*
X9260160Y-11010160D01*
X9260160Y-10989840D02*
X9239840Y-11010160D01*
X9239840Y-11889840D02*
X9260160Y-11910160D01*
X9260160Y-11889840D02*
X9239840Y-11910160D01*
X9319840Y-8467327D02*
X9340160Y-8487647D01*
X9340160Y-8467327D02*
X9319840Y-8487647D01*
X9332327Y-9107327D02*
X9352647Y-9127647D01*
X9352647Y-9107327D02*
X9332327Y-9127647D01*
X9332327Y-9457327D02*
X9352647Y-9477647D01*
X9352647Y-9457327D02*
X9332327Y-9477647D01*
X9339840Y-8269840D02*
X9360160Y-8290160D01*
X9360160Y-8269840D02*
X9339840Y-8290160D01*
X9339840Y-11289840D02*
X9360160Y-11310160D01*
X9360160Y-11289840D02*
X9339840Y-11310160D01*
X9342327Y-10087327D02*
X9362647Y-10107647D01*
X9362647Y-10087327D02*
X9342327Y-10107647D01*
X9373327Y-11498327D02*
X9393647Y-11518647D01*
X9393647Y-11498327D02*
X9373327Y-11518647D01*
X9383327Y-10476327D02*
X9403647Y-10496647D01*
X9403647Y-10476327D02*
X9383327Y-10496647D01*
X9389840Y-11889840D02*
X9410160Y-11910160D01*
X9410160Y-11889840D02*
X9389840Y-11910160D01*
X9442327Y-11117327D02*
X9462647Y-11137647D01*
X9462647Y-11117327D02*
X9442327Y-11137647D01*
X9469840Y-8209840D02*
X9490160Y-8230160D01*
X9490160Y-8209840D02*
X9469840Y-8230160D01*
X9489840Y-7589840D02*
X9510160Y-7610160D01*
X9510160Y-7589840D02*
X9489840Y-7610160D01*
X9518827Y-11657327D02*
X9539147Y-11677647D01*
X9539147Y-11657327D02*
X9518827Y-11677647D01*
X9522327Y-10317327D02*
X9542647Y-10337647D01*
X9542647Y-10317327D02*
X9522327Y-10337647D01*
X9529840Y-8349840D02*
X9550160Y-8370160D01*
X9550160Y-8349840D02*
X9529840Y-8370160D01*
X9539840Y-9589840D02*
X9560160Y-9610160D01*
X9560160Y-9589840D02*
X9539840Y-9610160D01*
X9539840Y-11889840D02*
X9560160Y-11910160D01*
X9560160Y-11889840D02*
X9539840Y-11910160D01*
X9542327Y-9027327D02*
X9562647Y-9047647D01*
X9562647Y-9027327D02*
X9542327Y-9047647D01*
X9564840Y-7689840D02*
X9585160Y-7710160D01*
X9585160Y-7689840D02*
X9564840Y-7710160D01*
X9569840Y-8099840D02*
X9590160Y-8120160D01*
X9590160Y-8099840D02*
X9569840Y-8120160D01*
X9572327Y-9837327D02*
X9592647Y-9857647D01*
X9592647Y-9837327D02*
X9572327Y-9857647D01*
X9589840Y-8239840D02*
X9610160Y-8260160D01*
X9610160Y-8239840D02*
X9589840Y-8260160D01*
X9618919Y-7949480D02*
X9639239Y-7969800D01*
X9639239Y-7949480D02*
X9618919Y-7969800D01*
X9639840Y-7589840D02*
X9660160Y-7610160D01*
X9660160Y-7589840D02*
X9639840Y-7610160D01*
X9639840Y-8589840D02*
X9660160Y-8610160D01*
X9660160Y-8589840D02*
X9639840Y-8610160D01*
X9639840Y-10089840D02*
X9660160Y-10110160D01*
X9660160Y-10089840D02*
X9639840Y-10110160D01*
X9653327Y-10476327D02*
X9673647Y-10496647D01*
X9673647Y-10476327D02*
X9653327Y-10496647D01*
X9662327Y-7787327D02*
X9682647Y-7807647D01*
X9682647Y-7787327D02*
X9662327Y-7807647D01*
X9672327Y-10637327D02*
X9692647Y-10657647D01*
X9692647Y-10637327D02*
X9672327Y-10657647D01*
X9672327Y-11497327D02*
X9692647Y-11517647D01*
X9692647Y-11497327D02*
X9672327Y-11517647D01*
X9689840Y-11889840D02*
X9710160Y-11910160D01*
X9710160Y-11889840D02*
X9689840Y-11910160D01*
X9692327Y-11337327D02*
X9712647Y-11357647D01*
X9712647Y-11337327D02*
X9692327Y-11357647D01*
X9712327Y-10567327D02*
X9732647Y-10587647D01*
X9732647Y-10567327D02*
X9712327Y-10587647D01*
X9712327Y-10987327D02*
X9732647Y-11007647D01*
X9732647Y-10987327D02*
X9712327Y-11007647D01*
X9739840Y-11589840D02*
X9760160Y-11610160D01*
X9760160Y-11589840D02*
X9739840Y-11610160D01*
X9768577Y-9937327D02*
X9788897Y-9957647D01*
X9788897Y-9937327D02*
X9768577Y-9957647D01*
X9778577Y-10257327D02*
X9798897Y-10277647D01*
X9798897Y-10257327D02*
X9778577Y-10277647D01*
X9789840Y-7589840D02*
X9810160Y-7610160D01*
X9810160Y-7589840D02*
X9789840Y-7610160D01*
X9789840Y-11414840D02*
X9810160Y-11435160D01*
X9810160Y-11414840D02*
X9789840Y-11435160D01*
X9819827Y-7987327D02*
X9840147Y-8007647D01*
X9840147Y-7987327D02*
X9819827Y-8007647D01*
X9839840Y-11889840D02*
X9860160Y-11910160D01*
X9860160Y-11889840D02*
X9839840Y-11910160D01*
X9889840Y-11314840D02*
X9910160Y-11335160D01*
X9910160Y-11314840D02*
X9889840Y-11335160D01*
X9939840Y-7589840D02*
X9960160Y-7610160D01*
X9960160Y-7589840D02*
X9939840Y-7610160D01*
X9939840Y-8589840D02*
X9960160Y-8610160D01*
X9960160Y-8589840D02*
X9939840Y-8610160D01*
X9939840Y-9089840D02*
X9960160Y-9110160D01*
X9960160Y-9089840D02*
X9939840Y-9110160D01*
X9962327Y-9387327D02*
X9982647Y-9407647D01*
X9982647Y-9387327D02*
X9962327Y-9407647D01*
X9977327Y-7787327D02*
X9997647Y-7807647D01*
X9997647Y-7787327D02*
X9977327Y-7807647D01*
X10014840Y-11239840D02*
X10035160Y-11260160D01*
X10035160Y-11239840D02*
X10014840Y-11260160D01*
X10029840Y-10339840D02*
X10050160Y-10360160D01*
X10050160Y-10339840D02*
X10029840Y-10360160D01*
X10039840Y-9889840D02*
X10060160Y-9910160D01*
X10060160Y-9889840D02*
X10039840Y-9910160D01*
X10042327Y-10567327D02*
X10062647Y-10587647D01*
X10062647Y-10567327D02*
X10042327Y-10587647D01*
X10089840Y-7589840D02*
X10110160Y-7610160D01*
X10110160Y-7589840D02*
X10089840Y-7610160D01*
X10109840Y-8249840D02*
X10130160Y-8270160D01*
X10130160Y-8249840D02*
X10109840Y-8270160D01*
X10139840Y-8789840D02*
X10160160Y-8810160D01*
X10160160Y-8789840D02*
X10139840Y-8810160D01*
X10139840Y-11214840D02*
X10160160Y-11235160D01*
X10160160Y-11214840D02*
X10139840Y-11235160D01*
X10214840Y-10764840D02*
X10235160Y-10785160D01*
X10235160Y-10764840D02*
X10214840Y-10785160D01*
X10219840Y-9489840D02*
X10240160Y-9510160D01*
X10240160Y-9489840D02*
X10219840Y-9510160D01*
X10237340Y-8447340D02*
X10257660Y-8467660D01*
X10257660Y-8447340D02*
X10237340Y-8467660D01*
X10239840Y-7589840D02*
X10260160Y-7610160D01*
X10260160Y-7589840D02*
X10239840Y-7610160D01*
X10239840Y-7789840D02*
X10260160Y-7810160D01*
X10260160Y-7789840D02*
X10239840Y-7810160D01*
X10239840Y-10564840D02*
X10260160Y-10585160D01*
X10260160Y-10564840D02*
X10239840Y-10585160D01*
X10264840Y-11239840D02*
X10285160Y-11260160D01*
X10285160Y-11239840D02*
X10264840Y-11260160D01*
X10324827Y-8197327D02*
X10345147Y-8217647D01*
X10345147Y-8197327D02*
X10324827Y-8217647D01*
X10339840Y-8589840D02*
X10360160Y-8610160D01*
X10360160Y-8589840D02*
X10339840Y-8610160D01*
X10339840Y-9089840D02*
X10360160Y-9110160D01*
X10360160Y-9089840D02*
X10339840Y-9110160D01*
X10339840Y-9389840D02*
X10360160Y-9410160D01*
X10360160Y-9389840D02*
X10339840Y-9410160D01*
X10339840Y-10389840D02*
X10360160Y-10410160D01*
X10360160Y-10389840D02*
X10339840Y-10410160D01*
X10339840Y-10814840D02*
X10360160Y-10835160D01*
X10360160Y-10814840D02*
X10339840Y-10835160D01*
X10389840Y-7589840D02*
X10410160Y-7610160D01*
X10410160Y-7589840D02*
X10389840Y-7610160D01*
X10389840Y-11314840D02*
X10410160Y-11335160D01*
X10410160Y-11314840D02*
X10389840Y-11335160D01*
X10439840Y-7889840D02*
X10460160Y-7910160D01*
X10460160Y-7889840D02*
X10439840Y-7910160D01*
X10439840Y-8889840D02*
X10460160Y-8910160D01*
X10460160Y-8889840D02*
X10439840Y-8910160D01*
X10439840Y-11889840D02*
X10460160Y-11910160D01*
X10460160Y-11889840D02*
X10439840Y-11910160D01*
X10464840Y-11414840D02*
X10485160Y-11435160D01*
X10485160Y-11414840D02*
X10464840Y-11435160D01*
X10477327Y-8454827D02*
X10497647Y-8475147D01*
X10497647Y-8454827D02*
X10477327Y-8475147D01*
X10479840Y-10949840D02*
X10500160Y-10970160D01*
X10500160Y-10949840D02*
X10479840Y-10970160D01*
X10489840Y-11764840D02*
X10510160Y-11785160D01*
X10510160Y-11764840D02*
X10489840Y-11785160D01*
X10499840Y-10789840D02*
X10520160Y-10810160D01*
X10520160Y-10789840D02*
X10499840Y-10810160D01*
X10539840Y-7589840D02*
X10560160Y-7610160D01*
X10560160Y-7589840D02*
X10539840Y-7610160D01*
X10574827Y-8197327D02*
X10595147Y-8217647D01*
X10595147Y-8197327D02*
X10574827Y-8217647D01*
X10597327Y-8444827D02*
X10617647Y-8465147D01*
X10617647Y-8444827D02*
X10597327Y-8465147D01*
X10609840Y-11889840D02*
X10630160Y-11910160D01*
X10630160Y-11889840D02*
X10609840Y-11910160D01*
X10639840Y-7789840D02*
X10660160Y-7810160D01*
X10660160Y-7789840D02*
X10639840Y-7810160D01*
X10639840Y-8789840D02*
X10660160Y-8810160D01*
X10660160Y-8789840D02*
X10639840Y-8810160D01*
X10639840Y-9489840D02*
X10660160Y-9510160D01*
X10660160Y-9489840D02*
X10639840Y-9510160D01*
X10642327Y-9847327D02*
X10662647Y-9867647D01*
X10662647Y-9847327D02*
X10642327Y-9867647D01*
X10689840Y-7589840D02*
X10710160Y-7610160D01*
X10710160Y-7589840D02*
X10689840Y-7610160D01*
X10717327Y-8449840D02*
X10737647Y-8470160D01*
X10737647Y-8449840D02*
X10717327Y-8470160D01*
X10739840Y-9189840D02*
X10760160Y-9210160D01*
X10760160Y-9189840D02*
X10739840Y-9210160D01*
X10749840Y-11439840D02*
X10770160Y-11460160D01*
X10770160Y-11439840D02*
X10749840Y-11460160D01*
X10749840Y-11589840D02*
X10770160Y-11610160D01*
X10770160Y-11589840D02*
X10749840Y-11610160D01*
X10749840Y-11739840D02*
X10770160Y-11760160D01*
X10770160Y-11739840D02*
X10749840Y-11760160D01*
X10749840Y-11889840D02*
X10770160Y-11910160D01*
X10770160Y-11889840D02*
X10749840Y-11910160D01*
X10759840Y-10339840D02*
X10780160Y-10360160D01*
X10780160Y-10339840D02*
X10759840Y-10360160D01*
X10759840Y-11219840D02*
X10780160Y-11240160D01*
X10780160Y-11219840D02*
X10759840Y-11240160D01*
X10802327Y-9847327D02*
X10822647Y-9867647D01*
X10822647Y-9847327D02*
X10802327Y-9867647D01*
X10819840Y-11319840D02*
X10840160Y-11340160D01*
X10840160Y-11319840D02*
X10819840Y-11340160D01*
X10824827Y-8197327D02*
X10845147Y-8217647D01*
X10845147Y-8197327D02*
X10824827Y-8217647D01*
X10839840Y-7589840D02*
X10860160Y-7610160D01*
X10860160Y-7589840D02*
X10839840Y-7610160D01*
X10839840Y-8859840D02*
X10860160Y-8880160D01*
X10860160Y-8859840D02*
X10839840Y-8880160D01*
X10859840Y-10289840D02*
X10880160Y-10310160D01*
X10880160Y-10289840D02*
X10859840Y-10310160D01*
X10892327Y-9827327D02*
X10912647Y-9847647D01*
X10912647Y-9827327D02*
X10892327Y-9847647D01*
X10909840Y-8519840D02*
X10930160Y-8540160D01*
X10930160Y-8519840D02*
X10909840Y-8540160D01*
X10939840Y-7889840D02*
X10960160Y-7910160D01*
X10960160Y-7889840D02*
X10939840Y-7910160D01*
X10949840Y-9709840D02*
X10970160Y-9730160D01*
X10970160Y-9709840D02*
X10949840Y-9730160D01*
X10957327Y-8429840D02*
X10977647Y-8450160D01*
X10977647Y-8429840D02*
X10957327Y-8450160D01*
X10989840Y-7589840D02*
X11010160Y-7610160D01*
X11010160Y-7589840D02*
X10989840Y-7610160D01*
X11039840Y-8489840D02*
X11060160Y-8510160D01*
X11060160Y-8489840D02*
X11039840Y-8510160D01*
X11039840Y-8789840D02*
X11060160Y-8810160D01*
X11060160Y-8789840D02*
X11039840Y-8810160D01*
X11039840Y-9389840D02*
X11060160Y-9410160D01*
X11060160Y-9389840D02*
X11039840Y-9410160D01*
X11074827Y-8197327D02*
X11095147Y-8217647D01*
X11095147Y-8197327D02*
X11074827Y-8217647D01*
X11109840Y-11259840D02*
X11130160Y-11280160D01*
X11130160Y-11259840D02*
X11109840Y-11280160D01*
X11139840Y-7589840D02*
X11160160Y-7610160D01*
X11160160Y-7589840D02*
X11139840Y-7610160D01*
X11139840Y-7789840D02*
X11160160Y-7810160D01*
X11160160Y-7789840D02*
X11139840Y-7810160D01*
X11179827Y-10659827D02*
X11200147Y-10680147D01*
X11200147Y-10659827D02*
X11179827Y-10680147D01*
X11182327Y-10857327D02*
X11202647Y-10877647D01*
X11202647Y-10857327D02*
X11182327Y-10877647D01*
X11192327Y-11047327D02*
X11212647Y-11067647D01*
X11212647Y-11047327D02*
X11192327Y-11067647D01*
X11239840Y-9089840D02*
X11260160Y-9110160D01*
X11260160Y-9089840D02*
X11239840Y-9110160D01*
X11279840Y-9869840D02*
X11300160Y-9890160D01*
X11300160Y-9869840D02*
X11279840Y-9890160D01*
X11279840Y-11259840D02*
X11300160Y-11280160D01*
X11300160Y-11259840D02*
X11279840Y-11280160D01*
X11289840Y-7589840D02*
X11310160Y-7610160D01*
X11310160Y-7589840D02*
X11289840Y-7610160D01*
X11299840Y-8429840D02*
X11320160Y-8450160D01*
X11320160Y-8429840D02*
X11299840Y-8450160D01*
X11312327Y-7787327D02*
X11332647Y-7807647D01*
X11332647Y-7787327D02*
X11312327Y-7807647D01*
X11312327Y-11167327D02*
X11332647Y-11187647D01*
X11332647Y-11167327D02*
X11312327Y-11187647D01*
X11322327Y-10537327D02*
X11342647Y-10557647D01*
X11342647Y-10537327D02*
X11322327Y-10557647D01*
X11339840Y-8869840D02*
X11360160Y-8890160D01*
X11360160Y-8869840D02*
X11339840Y-8890160D01*
X11359840Y-9749840D02*
X11380160Y-9770160D01*
X11380160Y-9749840D02*
X11359840Y-9770160D01*
X11439840Y-7589840D02*
X11460160Y-7610160D01*
X11460160Y-7589840D02*
X11439840Y-7610160D01*
X11439840Y-9589840D02*
X11460160Y-9610160D01*
X11460160Y-9589840D02*
X11439840Y-9610160D01*
X11439840Y-11259840D02*
X11460160Y-11280160D01*
X11460160Y-11259840D02*
X11439840Y-11280160D01*
X11454827Y-7987327D02*
X11475147Y-8007647D01*
X11475147Y-7987327D02*
X11454827Y-8007647D01*
X11512327Y-10537327D02*
X11532647Y-10557647D01*
X11532647Y-10537327D02*
X11512327Y-10557647D01*
X11512327Y-10857327D02*
X11532647Y-10877647D01*
X11532647Y-10857327D02*
X11512327Y-10877647D01*
X11519840Y-9859840D02*
X11540160Y-9880160D01*
X11540160Y-9859840D02*
X11519840Y-9880160D01*
X11522327Y-11177327D02*
X11542647Y-11197647D01*
X11542647Y-11177327D02*
X11522327Y-11197647D01*
X11529840Y-8729840D02*
X11550160Y-8750160D01*
X11550160Y-8729840D02*
X11529840Y-8750160D01*
X11539840Y-8839840D02*
X11560160Y-8860160D01*
X11560160Y-8839840D02*
X11539840Y-8860160D01*
X11549840Y-8919840D02*
X11570160Y-8940160D01*
X11570160Y-8919840D02*
X11549840Y-8940160D01*
X11569840Y-9139840D02*
X11590160Y-9160160D01*
X11590160Y-9139840D02*
X11569840Y-9160160D01*
X11569840Y-9229840D02*
X11590160Y-9250160D01*
X11590160Y-9229840D02*
X11569840Y-9250160D01*
X11569840Y-9389840D02*
X11590160Y-9410160D01*
X11590160Y-9389840D02*
X11569840Y-9410160D01*
X11569840Y-9469840D02*
X11590160Y-9490160D01*
X11590160Y-9469840D02*
X11569840Y-9490160D01*
X11589840Y-7589840D02*
X11610160Y-7610160D01*
X11610160Y-7589840D02*
X11589840Y-7610160D01*
X11597327Y-11259840D02*
X11617647Y-11280160D01*
X11617647Y-11259840D02*
X11597327Y-11280160D01*
X11637327Y-7787327D02*
X11657647Y-7807647D01*
X11657647Y-7787327D02*
X11637327Y-7807647D01*
X11679840Y-10079840D02*
X11700160Y-10100160D01*
X11700160Y-10079840D02*
X11679840Y-10100160D01*
X11714827Y-10539827D02*
X11735147Y-10560147D01*
X11735147Y-10539827D02*
X11714827Y-10560147D01*
X11714827Y-11164827D02*
X11735147Y-11185147D01*
X11735147Y-11164827D02*
X11714827Y-11185147D01*
X11739840Y-7589840D02*
X11760160Y-7610160D01*
X11760160Y-7589840D02*
X11739840Y-7610160D01*
X11749840Y-10279840D02*
X11770160Y-10300160D01*
X11770160Y-10279840D02*
X11749840Y-10300160D01*
X11752327Y-11259840D02*
X11772647Y-11280160D01*
X11772647Y-11259840D02*
X11752327Y-11280160D01*
X11779840Y-8659840D02*
X11800160Y-8680160D01*
X11800160Y-8659840D02*
X11779840Y-8680160D01*
X11819827Y-7987327D02*
X11840147Y-8007647D01*
X11840147Y-7987327D02*
X11819827Y-8007647D01*
X11832327Y-10267327D02*
X11852647Y-10287647D01*
X11852647Y-10267327D02*
X11832327Y-10287647D01*
X11842327Y-10657327D02*
X11862647Y-10677647D01*
X11862647Y-10657327D02*
X11842327Y-10677647D01*
X11842327Y-10857327D02*
X11862647Y-10877647D01*
X11862647Y-10857327D02*
X11842327Y-10877647D01*
X11842327Y-11057327D02*
X11862647Y-11077647D01*
X11862647Y-11057327D02*
X11842327Y-11077647D01*
X11889840Y-7589840D02*
X11910160Y-7610160D01*
X11910160Y-7589840D02*
X11889840Y-7610160D01*
X11919840Y-11259840D02*
X11940160Y-11280160D01*
X11940160Y-11259840D02*
X11919840Y-11280160D01*
X11987327Y-7787327D02*
X12007647Y-7807647D01*
X12007647Y-7787327D02*
X11987327Y-7807647D01*
X12039840Y-7589840D02*
X12060160Y-7610160D01*
X12060160Y-7589840D02*
X12039840Y-7610160D01*
X12074827Y-8197327D02*
X12095147Y-8217647D01*
X12095147Y-8197327D02*
X12074827Y-8217647D01*
X12112327Y-10287327D02*
X12132647Y-10307647D01*
X12132647Y-10287327D02*
X12112327Y-10307647D01*
X12117327Y-8503698D02*
X12137647Y-8524018D01*
X12137647Y-8503698D02*
X12117327Y-8524018D01*
X12182327Y-11217327D02*
X12202647Y-11237647D01*
X12202647Y-11217327D02*
X12182327Y-11237647D01*
X12189840Y-7589840D02*
X12210160Y-7610160D01*
X12210160Y-7589840D02*
X12189840Y-7610160D01*
X12199840Y-11119840D02*
X12220160Y-11140160D01*
X12220160Y-11119840D02*
X12199840Y-11140160D01*
X12202327Y-11317327D02*
X12222647Y-11337647D01*
X12222647Y-11317327D02*
X12202327Y-11337647D01*
X12239840Y-7789840D02*
X12260160Y-7810160D01*
X12260160Y-7789840D02*
X12239840Y-7810160D01*
X12239840Y-8369840D02*
X12260160Y-8390160D01*
X12260160Y-8369840D02*
X12239840Y-8390160D01*
X12239840Y-10239840D02*
X12260160Y-10260160D01*
X12260160Y-10239840D02*
X12239840Y-10260160D01*
X12269840Y-9789840D02*
X12290160Y-9810160D01*
X12290160Y-9789840D02*
X12269840Y-9810160D01*
X12279840Y-9699840D02*
X12300160Y-9720160D01*
X12300160Y-9699840D02*
X12279840Y-9720160D01*
X12289840Y-11439840D02*
X12310160Y-11460160D01*
X12310160Y-11439840D02*
X12289840Y-11460160D01*
X12289840Y-11589840D02*
X12310160Y-11610160D01*
X12310160Y-11589840D02*
X12289840Y-11610160D01*
X12289840Y-11739840D02*
X12310160Y-11760160D01*
X12310160Y-11739840D02*
X12289840Y-11760160D01*
X12289840Y-11889840D02*
X12310160Y-11910160D01*
X12310160Y-11889840D02*
X12289840Y-11910160D01*
X12292327Y-10389840D02*
X12312647Y-10410160D01*
X12312647Y-10389840D02*
X12292327Y-10410160D01*
X12324827Y-8197327D02*
X12345147Y-8217647D01*
X12345147Y-8197327D02*
X12324827Y-8217647D01*
X12339840Y-7589840D02*
X12360160Y-7610160D01*
X12360160Y-7589840D02*
X12339840Y-7610160D01*
X12357327Y-8499840D02*
X12377647Y-8520160D01*
X12377647Y-8499840D02*
X12357327Y-8520160D01*
X12369840Y-9669840D02*
X12390160Y-9690160D01*
X12390160Y-9669840D02*
X12369840Y-9690160D01*
X12372327Y-11129827D02*
X12392647Y-11150147D01*
X12392647Y-11129827D02*
X12372327Y-11150147D01*
X12379840Y-10069840D02*
X12400160Y-10090160D01*
X12400160Y-10069840D02*
X12379840Y-10090160D01*
X12389840Y-9929840D02*
X12410160Y-9950160D01*
X12410160Y-9929840D02*
X12389840Y-9950160D01*
X12399840Y-9999840D02*
X12420160Y-10020160D01*
X12420160Y-9999840D02*
X12399840Y-10020160D01*
X12439840Y-11689840D02*
X12460160Y-11710160D01*
X12460160Y-11689840D02*
X12439840Y-11710160D01*
X12439840Y-11889840D02*
X12460160Y-11910160D01*
X12460160Y-11889840D02*
X12439840Y-11910160D01*
X12452327Y-11377327D02*
X12472647Y-11397647D01*
X12472647Y-11377327D02*
X12452327Y-11397647D01*
X12477327Y-8369840D02*
X12497647Y-8390160D01*
X12497647Y-8369840D02*
X12477327Y-8390160D01*
X12489840Y-7589840D02*
X12510160Y-7610160D01*
X12510160Y-7589840D02*
X12489840Y-7610160D01*
X12522327Y-10467327D02*
X12542647Y-10487647D01*
X12542647Y-10467327D02*
X12522327Y-10487647D01*
X12522327Y-10627327D02*
X12542647Y-10647647D01*
X12542647Y-10627327D02*
X12522327Y-10647647D01*
X12532327Y-10867327D02*
X12552647Y-10887647D01*
X12552647Y-10867327D02*
X12532327Y-10887647D01*
X12532327Y-11129827D02*
X12552647Y-11150147D01*
X12552647Y-11129827D02*
X12532327Y-11150147D01*
X12539840Y-7889840D02*
X12560160Y-7910160D01*
X12560160Y-7889840D02*
X12539840Y-7910160D01*
X12549840Y-9769840D02*
X12570160Y-9790160D01*
X12570160Y-9769840D02*
X12549840Y-9790160D01*
X12569840Y-11779840D02*
X12590160Y-11800160D01*
X12590160Y-11779840D02*
X12569840Y-11800160D01*
X12574827Y-8197327D02*
X12595147Y-8217647D01*
X12595147Y-8197327D02*
X12574827Y-8217647D01*
X12589840Y-11889840D02*
X12610160Y-11910160D01*
X12610160Y-11889840D02*
X12589840Y-11910160D01*
X12597327Y-8499840D02*
X12617647Y-8520160D01*
X12617647Y-8499840D02*
X12597327Y-8520160D01*
X12609840Y-10869840D02*
X12630160Y-10890160D01*
X12630160Y-10869840D02*
X12609840Y-10890160D01*
X12612327Y-11377327D02*
X12632647Y-11397647D01*
X12632647Y-11377327D02*
X12612327Y-11397647D01*
X12619840Y-9999840D02*
X12640160Y-10020160D01*
X12640160Y-9999840D02*
X12619840Y-10020160D01*
X12619840Y-11549840D02*
X12640160Y-11570160D01*
X12640160Y-11549840D02*
X12619840Y-11570160D01*
X12639840Y-7589840D02*
X12660160Y-7610160D01*
X12660160Y-7589840D02*
X12639840Y-7610160D01*
X12639840Y-10289840D02*
X12660160Y-10310160D01*
X12660160Y-10289840D02*
X12639840Y-10310160D01*
X12692327Y-11697327D02*
X12712647Y-11717647D01*
X12712647Y-11697327D02*
X12692327Y-11717647D01*
X12699840Y-11439840D02*
X12720160Y-11460160D01*
X12720160Y-11439840D02*
X12699840Y-11460160D01*
X12719840Y-8369840D02*
X12740160Y-8390160D01*
X12740160Y-8369840D02*
X12719840Y-8390160D01*
X12719840Y-9529840D02*
X12740160Y-9550160D01*
X12740160Y-9529840D02*
X12719840Y-9550160D01*
X12739840Y-11889840D02*
X12760160Y-11910160D01*
X12760160Y-11889840D02*
X12739840Y-11910160D01*
X12789840Y-7589840D02*
X12810160Y-7610160D01*
X12810160Y-7589840D02*
X12789840Y-7610160D01*
X12799840Y-10299840D02*
X12820160Y-10320160D01*
X12820160Y-10299840D02*
X12799840Y-10320160D01*
X12799840Y-10639840D02*
X12820160Y-10660160D01*
X12820160Y-10639840D02*
X12799840Y-10660160D01*
X12824827Y-8197327D02*
X12845147Y-8217647D01*
X12845147Y-8197327D02*
X12824827Y-8217647D01*
X12837327Y-8499840D02*
X12857647Y-8520160D01*
X12857647Y-8499840D02*
X12837327Y-8520160D01*
X12839840Y-7789840D02*
X12860160Y-7810160D01*
X12860160Y-7789840D02*
X12839840Y-7810160D01*
X12862327Y-11497327D02*
X12882647Y-11517647D01*
X12882647Y-11497327D02*
X12862327Y-11517647D01*
X12889840Y-11889840D02*
X12910160Y-11910160D01*
X12910160Y-11889840D02*
X12889840Y-11910160D01*
X12899840Y-10929840D02*
X12920160Y-10950160D01*
X12920160Y-10929840D02*
X12899840Y-10950160D01*
X12929840Y-9129840D02*
X12950160Y-9150160D01*
X12950160Y-9129840D02*
X12929840Y-9150160D01*
X12939840Y-7589840D02*
X12960160Y-7610160D01*
X12960160Y-7589840D02*
X12939840Y-7610160D01*
X12939840Y-8859840D02*
X12960160Y-8880160D01*
X12960160Y-8859840D02*
X12939840Y-8880160D01*
X12939840Y-8959840D02*
X12960160Y-8980160D01*
X12960160Y-8959840D02*
X12939840Y-8980160D01*
X12949840Y-9449840D02*
X12970160Y-9470160D01*
X12970160Y-9449840D02*
X12949840Y-9470160D01*
X12979840Y-10429840D02*
X13000160Y-10450160D01*
X13000160Y-10429840D02*
X12979840Y-10450160D01*
X12979840Y-10719840D02*
X13000160Y-10740160D01*
X13000160Y-10719840D02*
X12979840Y-10740160D01*
X12980568Y-10339840D02*
X13000888Y-10360160D01*
X13000888Y-10339840D02*
X12980568Y-10360160D01*
X12989840Y-10007340D02*
X13010160Y-10027660D01*
X13010160Y-10007340D02*
X12989840Y-10027660D01*
X12994840Y-9654840D02*
X13015160Y-9675160D01*
X13015160Y-9654840D02*
X12994840Y-9675160D01*
X13009840Y-9829840D02*
X13030160Y-9850160D01*
X13030160Y-9829840D02*
X13009840Y-9850160D01*
X13019840Y-8859840D02*
X13040160Y-8880160D01*
X13040160Y-8859840D02*
X13019840Y-8880160D01*
X13022327Y-11697327D02*
X13042647Y-11717647D01*
X13042647Y-11697327D02*
X13022327Y-11717647D01*
X13039840Y-7889840D02*
X13060160Y-7910160D01*
X13060160Y-7889840D02*
X13039840Y-7910160D01*
X13039840Y-11889840D02*
X13060160Y-11910160D01*
X13060160Y-11889840D02*
X13039840Y-11910160D01*
X13074827Y-8197327D02*
X13095147Y-8217647D01*
X13095147Y-8197327D02*
X13074827Y-8217647D01*
X13089840Y-7589840D02*
X13110160Y-7610160D01*
X13110160Y-7589840D02*
X13089840Y-7610160D01*
X13099840Y-8859840D02*
X13120160Y-8880160D01*
X13120160Y-8859840D02*
X13099840Y-8880160D01*
X13129840Y-8509840D02*
X13150160Y-8530160D01*
X13150160Y-8509840D02*
X13129840Y-8530160D01*
X13139840Y-10889840D02*
X13160160Y-10910160D01*
X13160160Y-10889840D02*
X13139840Y-10910160D01*
X13149840Y-11749840D02*
X13170160Y-11770160D01*
X13170160Y-11749840D02*
X13149840Y-11770160D01*
X13179840Y-8859840D02*
X13200160Y-8880160D01*
X13200160Y-8859840D02*
X13179840Y-8880160D01*
X13189840Y-11889840D02*
X13210160Y-11910160D01*
X13210160Y-11889840D02*
X13189840Y-11910160D01*
X13199840Y-8369840D02*
X13220160Y-8390160D01*
X13220160Y-8369840D02*
X13199840Y-8390160D01*
X13239840Y-7589840D02*
X13260160Y-7610160D01*
X13260160Y-7589840D02*
X13239840Y-7610160D01*
X13239840Y-9889840D02*
X13260160Y-9910160D01*
X13260160Y-9889840D02*
X13239840Y-9910160D01*
X13239840Y-10779840D02*
X13260160Y-10800160D01*
X13260160Y-10779840D02*
X13239840Y-10800160D01*
X13259840Y-8859840D02*
X13280160Y-8880160D01*
X13280160Y-8859840D02*
X13259840Y-8880160D01*
X13287327Y-7787327D02*
X13307647Y-7807647D01*
X13307647Y-7787327D02*
X13287327Y-7807647D01*
X13302327Y-10362327D02*
X13322647Y-10382647D01*
X13322647Y-10362327D02*
X13302327Y-10382647D01*
X13322327Y-8927327D02*
X13342647Y-8947647D01*
X13342647Y-8927327D02*
X13322327Y-8947647D01*
X13339840Y-11089840D02*
X13360160Y-11110160D01*
X13360160Y-11089840D02*
X13339840Y-11110160D01*
X13339840Y-11889840D02*
X13360160Y-11910160D01*
X13360160Y-11889840D02*
X13339840Y-11910160D01*
X13359840Y-9347327D02*
X13380160Y-9367647D01*
X13380160Y-9347327D02*
X13359840Y-9367647D01*
X13359840Y-9507327D02*
X13380160Y-9527647D01*
X13380160Y-9507327D02*
X13359840Y-9527647D01*
X13364827Y-11279827D02*
X13385147Y-11300147D01*
X13385147Y-11279827D02*
X13364827Y-11300147D01*
X13377327Y-8257327D02*
X13397647Y-8277647D01*
X13397647Y-8257327D02*
X13377327Y-8277647D01*
X13389840Y-7589840D02*
X13410160Y-7610160D01*
X13410160Y-7589840D02*
X13389840Y-7610160D01*
X13392327Y-9427327D02*
X13412647Y-9447647D01*
X13412647Y-9427327D02*
X13392327Y-9447647D01*
X13409840Y-11749840D02*
X13430160Y-11770160D01*
X13430160Y-11749840D02*
X13409840Y-11770160D01*
X13449840Y-10484827D02*
X13470160Y-10505147D01*
X13470160Y-10484827D02*
X13449840Y-10505147D01*
X13449840Y-11069840D02*
X13470160Y-11090160D01*
X13470160Y-11069840D02*
X13449840Y-11090160D01*
X13454827Y-7987327D02*
X13475147Y-8007647D01*
X13475147Y-7987327D02*
X13454827Y-8007647D01*
X13482327Y-11277327D02*
X13502647Y-11297647D01*
X13502647Y-11277327D02*
X13482327Y-11297647D01*
X13489840Y-11889840D02*
X13510160Y-11910160D01*
X13510160Y-11889840D02*
X13489840Y-11910160D01*
X13512327Y-9897327D02*
X13532647Y-9917647D01*
X13532647Y-9897327D02*
X13512327Y-9917647D01*
X13512327Y-10057327D02*
X13532647Y-10077647D01*
X13532647Y-10057327D02*
X13512327Y-10077647D01*
X13512327Y-10217327D02*
X13532647Y-10237647D01*
X13532647Y-10217327D02*
X13512327Y-10237647D01*
X13539840Y-7589840D02*
X13560160Y-7610160D01*
X13560160Y-7589840D02*
X13539840Y-7610160D01*
X13582327Y-11697327D02*
X13602647Y-11717647D01*
X13602647Y-11697327D02*
X13582327Y-11717647D01*
X13617327Y-8257327D02*
X13637647Y-8277647D01*
X13637647Y-8257327D02*
X13617327Y-8277647D01*
X13637327Y-7787327D02*
X13657647Y-7807647D01*
X13657647Y-7787327D02*
X13637327Y-7807647D01*
X13639840Y-11389840D02*
X13660160Y-11410160D01*
X13660160Y-11389840D02*
X13639840Y-11410160D01*
X13639840Y-11889840D02*
X13660160Y-11910160D01*
X13660160Y-11889840D02*
X13639840Y-11910160D01*
X13672327Y-9097327D02*
X13692647Y-9117647D01*
X13692647Y-9097327D02*
X13672327Y-9117647D01*
X13689840Y-7589840D02*
X13710160Y-7610160D01*
X13710160Y-7589840D02*
X13689840Y-7610160D01*
X13739840Y-10589840D02*
X13760160Y-10610160D01*
X13760160Y-10589840D02*
X13739840Y-10610160D01*
X13739840Y-10989840D02*
X13760160Y-11010160D01*
X13760160Y-10989840D02*
X13739840Y-11010160D01*
X13789840Y-11889840D02*
X13810160Y-11910160D01*
X13810160Y-11889840D02*
X13789840Y-11910160D01*
X13807327Y-7987327D02*
X13827647Y-8007647D01*
X13827647Y-7987327D02*
X13807327Y-8007647D01*
X13812327Y-9227327D02*
X13832647Y-9247647D01*
X13832647Y-9227327D02*
X13812327Y-9247647D01*
X13827327Y-8797327D02*
X13847647Y-8817647D01*
X13847647Y-8797327D02*
X13827327Y-8817647D01*
X13839840Y-7589840D02*
X13860160Y-7610160D01*
X13860160Y-7589840D02*
X13839840Y-7610160D01*
X13839840Y-10689840D02*
X13860160Y-10710160D01*
X13860160Y-10689840D02*
X13839840Y-10710160D01*
X13839840Y-11089840D02*
X13860160Y-11110160D01*
X13860160Y-11089840D02*
X13839840Y-11110160D01*
X13912327Y-11697327D02*
X13932647Y-11717647D01*
X13932647Y-11697327D02*
X13912327Y-11717647D01*
X13939840Y-11889840D02*
X13960160Y-11910160D01*
X13960160Y-11889840D02*
X13939840Y-11910160D01*
X13954840Y-11349840D02*
X13975160Y-11370160D01*
X13975160Y-11349840D02*
X13954840Y-11370160D01*
X13967327Y-8957327D02*
X13987647Y-8977647D01*
X13987647Y-8957327D02*
X13967327Y-8977647D01*
X13982327Y-10252327D02*
X14002647Y-10272647D01*
X14002647Y-10252327D02*
X13982327Y-10272647D01*
X13987327Y-7787327D02*
X14007647Y-7807647D01*
X14007647Y-7787327D02*
X13987327Y-7807647D01*
X13989840Y-7589840D02*
X14010160Y-7610160D01*
X14010160Y-7589840D02*
X13989840Y-7610160D01*
X14014840Y-10714840D02*
X14035160Y-10735160D01*
X14035160Y-10714840D02*
X14014840Y-10735160D01*
X14082327Y-10252327D02*
X14102647Y-10272647D01*
X14102647Y-10252327D02*
X14082327Y-10272647D01*
X14089840Y-10464840D02*
X14110160Y-10485160D01*
X14110160Y-10464840D02*
X14089840Y-10485160D01*
X14089840Y-11889840D02*
X14110160Y-11910160D01*
X14110160Y-11889840D02*
X14089840Y-11910160D01*
X14139840Y-7589840D02*
X14160160Y-7610160D01*
X14160160Y-7589840D02*
X14139840Y-7610160D01*
X14139840Y-10689840D02*
X14160160Y-10710160D01*
X14160160Y-10689840D02*
X14139840Y-10710160D01*
X14139840Y-11039840D02*
X14160160Y-11060160D01*
X14160160Y-11039840D02*
X14139840Y-11060160D01*
X14144840Y-9799840D02*
X14165160Y-9820160D01*
X14165160Y-9799840D02*
X14144840Y-9820160D01*
X14167327Y-9412327D02*
X14187647Y-9432647D01*
X14187647Y-9412327D02*
X14167327Y-9432647D01*
X14189840Y-11314840D02*
X14210160Y-11335160D01*
X14210160Y-11314840D02*
X14189840Y-11335160D01*
X14212340Y-11417340D02*
X14232660Y-11437660D01*
X14232660Y-11417340D02*
X14212340Y-11437660D01*
X14239840Y-7789840D02*
X14260160Y-7810160D01*
X14260160Y-7789840D02*
X14239840Y-7810160D01*
X14239840Y-9589840D02*
X14260160Y-9610160D01*
X14260160Y-9589840D02*
X14239840Y-9610160D01*
X14239840Y-10964840D02*
X14260160Y-10985160D01*
X14260160Y-10964840D02*
X14239840Y-10985160D01*
X14239840Y-11889840D02*
X14260160Y-11910160D01*
X14260160Y-11889840D02*
X14239840Y-11910160D01*
X14247327Y-10012327D02*
X14267647Y-10032647D01*
X14267647Y-10012327D02*
X14247327Y-10032647D01*
X14287327Y-10549840D02*
X14307647Y-10570160D01*
X14307647Y-10549840D02*
X14287327Y-10570160D01*
X14289840Y-7589840D02*
X14310160Y-7610160D01*
X14310160Y-7589840D02*
X14289840Y-7610160D01*
X14314840Y-11489840D02*
X14335160Y-11510160D01*
X14335160Y-11489840D02*
X14314840Y-11510160D01*
X14327327Y-10012327D02*
X14347647Y-10032647D01*
X14347647Y-10012327D02*
X14327327Y-10032647D01*
X14342340Y-10952340D02*
X14362660Y-10972660D01*
X14362660Y-10952340D02*
X14342340Y-10972660D01*
X14362327Y-9407327D02*
X14382647Y-9427647D01*
X14382647Y-9407327D02*
X14362327Y-9427647D01*
X14384840Y-9859840D02*
X14405160Y-9880160D01*
X14405160Y-9859840D02*
X14384840Y-9880160D01*
X14389840Y-11889840D02*
X14410160Y-11910160D01*
X14410160Y-11889840D02*
X14389840Y-11910160D01*
X14414840Y-11539840D02*
X14435160Y-11560160D01*
X14435160Y-11539840D02*
X14414840Y-11560160D01*
X14439840Y-7589840D02*
X14460160Y-7610160D01*
X14460160Y-7589840D02*
X14439840Y-7610160D01*
X14439840Y-9689840D02*
X14460160Y-9710160D01*
X14460160Y-9689840D02*
X14439840Y-9710160D01*
X14439840Y-10009840D02*
X14460160Y-10030160D01*
X14460160Y-10009840D02*
X14439840Y-10030160D01*
X14439840Y-11289840D02*
X14460160Y-11310160D01*
X14460160Y-11289840D02*
X14439840Y-11310160D01*
X14445712Y-10547848D02*
X14466032Y-10568168D01*
X14466032Y-10547848D02*
X14445712Y-10568168D01*
X14462327Y-9407327D02*
X14482647Y-9427647D01*
X14482647Y-9407327D02*
X14462327Y-9427647D01*
X14514840Y-11489840D02*
X14535160Y-11510160D01*
X14535160Y-11489840D02*
X14514840Y-11510160D01*
X14539840Y-7889840D02*
X14560160Y-7910160D01*
X14560160Y-7889840D02*
X14539840Y-7910160D01*
X14539840Y-11889840D02*
X14560160Y-11910160D01*
X14560160Y-11889840D02*
X14539840Y-11910160D01*
X14552327Y-9427327D02*
X14572647Y-9447647D01*
X14572647Y-9427327D02*
X14552327Y-9447647D01*
X14564840Y-11339840D02*
X14585160Y-11360160D01*
X14585160Y-11339840D02*
X14564840Y-11360160D01*
X14589840Y-7589840D02*
X14610160Y-7610160D01*
X14610160Y-7589840D02*
X14589840Y-7610160D01*
X14589840Y-10714840D02*
X14610160Y-10735160D01*
X14610160Y-10714840D02*
X14589840Y-10735160D01*
X14592327Y-10547327D02*
X14612647Y-10567647D01*
X14612647Y-10547327D02*
X14592327Y-10567647D01*
X14614840Y-11539840D02*
X14635160Y-11560160D01*
X14635160Y-11539840D02*
X14614840Y-11560160D01*
X14639840Y-9589840D02*
X14660160Y-9610160D01*
X14660160Y-9589840D02*
X14639840Y-9610160D01*
X14672340Y-10952340D02*
X14692660Y-10972660D01*
X14692660Y-10952340D02*
X14672340Y-10972660D01*
X14689840Y-11289840D02*
X14710160Y-11310160D01*
X14710160Y-11289840D02*
X14689840Y-11310160D01*
X14689840Y-11889840D02*
X14710160Y-11910160D01*
X14710160Y-11889840D02*
X14689840Y-11910160D01*
X14692340Y-11192340D02*
X14712660Y-11212660D01*
X14712660Y-11192340D02*
X14692340Y-11212660D01*
X14714840Y-11489840D02*
X14735160Y-11510160D01*
X14735160Y-11489840D02*
X14714840Y-11510160D01*
X14739840Y-7589840D02*
X14760160Y-7610160D01*
X14760160Y-7589840D02*
X14739840Y-7610160D01*
X14739840Y-7789840D02*
X14760160Y-7810160D01*
X14760160Y-7789840D02*
X14739840Y-7810160D01*
X14759840Y-10949840D02*
X14780160Y-10970160D01*
X14780160Y-10949840D02*
X14759840Y-10970160D01*
X14807327Y-10142327D02*
X14827647Y-10162647D01*
X14827647Y-10142327D02*
X14807327Y-10162647D01*
X14814840Y-11539840D02*
X14835160Y-11560160D01*
X14835160Y-11539840D02*
X14814840Y-11560160D01*
X14839840Y-11889840D02*
X14860160Y-11910160D01*
X14860160Y-11889840D02*
X14839840Y-11910160D01*
X14889840Y-7589840D02*
X14910160Y-7610160D01*
X14910160Y-7589840D02*
X14889840Y-7610160D01*
X14912327Y-7787327D02*
X14932647Y-7807647D01*
X14932647Y-7787327D02*
X14912327Y-7807647D01*
X14914840Y-11489840D02*
X14935160Y-11510160D01*
X14935160Y-11489840D02*
X14914840Y-11510160D01*
X14922340Y-10962340D02*
X14942660Y-10982660D01*
X14942660Y-10962340D02*
X14922340Y-10982660D01*
X14962340Y-11202340D02*
X14982660Y-11222660D01*
X14982660Y-11202340D02*
X14962340Y-11222660D01*
X14989840Y-11889840D02*
X15010160Y-11910160D01*
X15010160Y-11889840D02*
X14989840Y-11910160D01*
X15019840Y-11259840D02*
X15040160Y-11280160D01*
X15040160Y-11259840D02*
X15019840Y-11280160D01*
X15039840Y-7589840D02*
X15060160Y-7610160D01*
X15060160Y-7589840D02*
X15039840Y-7610160D01*
X15039840Y-11339840D02*
X15060160Y-11360160D01*
X15060160Y-11339840D02*
X15039840Y-11360160D01*
X15067327Y-7987327D02*
X15087647Y-8007647D01*
X15087647Y-7987327D02*
X15067327Y-8007647D01*
X15069840Y-9709840D02*
X15090160Y-9730160D01*
X15090160Y-9709840D02*
X15069840Y-9730160D01*
X15114840Y-10914840D02*
X15135160Y-10935160D01*
X15135160Y-10914840D02*
X15114840Y-10935160D01*
X15129840Y-8909840D02*
X15150160Y-8930160D01*
X15150160Y-8909840D02*
X15129840Y-8930160D01*
X15139840Y-10689840D02*
X15160160Y-10710160D01*
X15160160Y-10689840D02*
X15139840Y-10710160D01*
X15139840Y-11889840D02*
X15160160Y-11910160D01*
X15160160Y-11889840D02*
X15139840Y-11910160D01*
X15163596Y-9631084D02*
X15183916Y-9651404D01*
X15183916Y-9631084D02*
X15163596Y-9651404D01*
X15164840Y-11239840D02*
X15185160Y-11260160D01*
X15185160Y-11239840D02*
X15164840Y-11260160D01*
X15189840Y-7589840D02*
X15210160Y-7610160D01*
X15210160Y-7589840D02*
X15189840Y-7610160D01*
X15219840Y-7787327D02*
X15240160Y-7807647D01*
X15240160Y-7787327D02*
X15219840Y-7807647D01*
X15239840Y-10889840D02*
X15260160Y-10910160D01*
X15260160Y-10889840D02*
X15239840Y-10910160D01*
X15259840Y-8699840D02*
X15280160Y-8720160D01*
X15280160Y-8699840D02*
X15259840Y-8720160D01*
X15266084Y-9631084D02*
X15286404Y-9651404D01*
X15286404Y-9631084D02*
X15266084Y-9651404D01*
X15272327Y-10257327D02*
X15292647Y-10277647D01*
X15292647Y-10257327D02*
X15272327Y-10277647D01*
X15289840Y-7729840D02*
X15310160Y-7750160D01*
X15310160Y-7729840D02*
X15289840Y-7750160D01*
X15289840Y-7889840D02*
X15310160Y-7910160D01*
X15310160Y-7889840D02*
X15289840Y-7910160D01*
X15289840Y-8039840D02*
X15310160Y-8060160D01*
X15310160Y-8039840D02*
X15289840Y-8060160D01*
X15289840Y-8189840D02*
X15310160Y-8210160D01*
X15310160Y-8189840D02*
X15289840Y-8210160D01*
X15289840Y-11889840D02*
X15310160Y-11910160D01*
X15310160Y-11889840D02*
X15289840Y-11910160D01*
X15339840Y-7589840D02*
X15360160Y-7610160D01*
X15360160Y-7589840D02*
X15339840Y-7610160D01*
X15339840Y-8339840D02*
X15360160Y-8360160D01*
X15360160Y-8339840D02*
X15339840Y-8360160D01*
X15339840Y-8489840D02*
X15360160Y-8510160D01*
X15360160Y-8489840D02*
X15339840Y-8510160D01*
X15349840Y-8609840D02*
X15370160Y-8630160D01*
X15370160Y-8609840D02*
X15349840Y-8630160D01*
X15364840Y-10789840D02*
X15385160Y-10810160D01*
X15385160Y-10789840D02*
X15364840Y-10810160D01*
X15392327Y-9927327D02*
X15412647Y-9947647D01*
X15412647Y-9927327D02*
X15392327Y-9947647D01*
X15392327Y-10087327D02*
X15412647Y-10107647D01*
X15412647Y-10087327D02*
X15392327Y-10107647D01*
X15409840Y-9584840D02*
X15430160Y-9605160D01*
X15430160Y-9584840D02*
X15409840Y-9605160D01*
X15439840Y-10389840D02*
X15460160Y-10410160D01*
X15460160Y-10389840D02*
X15439840Y-10410160D01*
X15439840Y-10589840D02*
X15460160Y-10610160D01*
X15460160Y-10589840D02*
X15439840Y-10610160D01*
X15439840Y-11889840D02*
X15460160Y-11910160D01*
X15460160Y-11889840D02*
X15439840Y-11910160D01*
X15469840Y-9309840D02*
X15490160Y-9330160D01*
X15490160Y-9309840D02*
X15469840Y-9330160D01*
X15479840Y-9059840D02*
X15500160Y-9080160D01*
X15500160Y-9059840D02*
X15479840Y-9080160D01*
X15499840Y-8679840D02*
X15520160Y-8700160D01*
X15520160Y-8679840D02*
X15499840Y-8700160D01*
X15509840Y-11629840D02*
X15530160Y-11650160D01*
X15530160Y-11629840D02*
X15509840Y-11650160D01*
X15512327Y-7737327D02*
X15532647Y-7757647D01*
X15532647Y-7737327D02*
X15512327Y-7757647D01*
X15512327Y-7937327D02*
X15532647Y-7957647D01*
X15532647Y-7937327D02*
X15512327Y-7957647D01*
X15512327Y-8137327D02*
X15532647Y-8157647D01*
X15532647Y-8137327D02*
X15512327Y-8157647D01*
X15512327Y-8337327D02*
X15532647Y-8357647D01*
X15532647Y-8337327D02*
X15512327Y-8357647D01*
X15512327Y-8537327D02*
X15532647Y-8557647D01*
X15532647Y-8537327D02*
X15512327Y-8557647D01*
X15568590Y-11328590D02*
X15588910Y-11348910D01*
X15588910Y-11328590D02*
X15568590Y-11348910D01*
X15584840Y-9944840D02*
X15605160Y-9965160D01*
X15605160Y-9944840D02*
X15584840Y-9965160D01*
X15587327Y-9137327D02*
X15607647Y-9157647D01*
X15607647Y-9137327D02*
X15587327Y-9157647D01*
X15587327Y-9237327D02*
X15607647Y-9257647D01*
X15607647Y-9237327D02*
X15587327Y-9257647D01*
X15587327Y-9337327D02*
X15607647Y-9357647D01*
X15607647Y-9337327D02*
X15587327Y-9357647D01*
X15589840Y-10964840D02*
X15610160Y-10985160D01*
X15610160Y-10964840D02*
X15589840Y-10985160D01*
X15589840Y-11889840D02*
X15610160Y-11910160D01*
X15610160Y-11889840D02*
X15589840Y-11910160D01*
X15612327Y-7637327D02*
X15632647Y-7657647D01*
X15632647Y-7637327D02*
X15612327Y-7657647D01*
X15612327Y-7837327D02*
X15632647Y-7857647D01*
X15632647Y-7837327D02*
X15612327Y-7857647D01*
X15612327Y-8037327D02*
X15632647Y-8057647D01*
X15632647Y-8037327D02*
X15612327Y-8057647D01*
X15612327Y-8237327D02*
X15632647Y-8257647D01*
X15632647Y-8237327D02*
X15612327Y-8257647D01*
X15612327Y-8437327D02*
X15632647Y-8457647D01*
X15632647Y-8437327D02*
X15612327Y-8457647D01*
X15612327Y-8637327D02*
X15632647Y-8657647D01*
X15632647Y-8637327D02*
X15612327Y-8657647D01*
X15639840Y-10389840D02*
X15660160Y-10410160D01*
X15660160Y-10389840D02*
X15639840Y-10410160D01*
X15649840Y-10619840D02*
X15670160Y-10640160D01*
X15670160Y-10619840D02*
X15649840Y-10640160D01*
X15649840Y-10819840D02*
X15670160Y-10840160D01*
X15670160Y-10819840D02*
X15649840Y-10840160D01*
X15679840Y-11739840D02*
X15700160Y-11760160D01*
X15700160Y-11739840D02*
X15679840Y-11760160D01*
X15687327Y-9137327D02*
X15707647Y-9157647D01*
X15707647Y-9137327D02*
X15687327Y-9157647D01*
X15687327Y-9237327D02*
X15707647Y-9257647D01*
X15707647Y-9237327D02*
X15687327Y-9257647D01*
X15687327Y-9337327D02*
X15707647Y-9357647D01*
X15707647Y-9337327D02*
X15687327Y-9357647D01*
X15699840Y-11579840D02*
X15720160Y-11600160D01*
X15720160Y-11579840D02*
X15699840Y-11600160D01*
X15712327Y-7737327D02*
X15732647Y-7757647D01*
X15732647Y-7737327D02*
X15712327Y-7757647D01*
X15712327Y-8337327D02*
X15732647Y-8357647D01*
X15732647Y-8337327D02*
X15712327Y-8357647D01*
X15712327Y-8537327D02*
X15732647Y-8557647D01*
X15732647Y-8537327D02*
X15712327Y-8557647D01*
X15712327Y-8737327D02*
X15732647Y-8757647D01*
X15732647Y-8737327D02*
X15712327Y-8757647D01*
X15714840Y-9589840D02*
X15735160Y-9610160D01*
X15735160Y-9589840D02*
X15714840Y-9610160D01*
X15719840Y-10709840D02*
X15740160Y-10730160D01*
X15740160Y-10709840D02*
X15719840Y-10730160D01*
X15739840Y-11389840D02*
X15760160Y-11410160D01*
X15760160Y-11389840D02*
X15739840Y-11410160D01*
X15739840Y-11889840D02*
X15760160Y-11910160D01*
X15760160Y-11889840D02*
X15739840Y-11910160D01*
X15759840Y-9689840D02*
X15780160Y-9710160D01*
X15780160Y-9689840D02*
X15759840Y-9710160D01*
X15779840Y-9459840D02*
X15800160Y-9480160D01*
X15800160Y-9459840D02*
X15779840Y-9480160D01*
X15779840Y-10619840D02*
X15800160Y-10640160D01*
X15800160Y-10619840D02*
X15779840Y-10640160D01*
X15779840Y-10809840D02*
X15800160Y-10830160D01*
X15800160Y-10809840D02*
X15779840Y-10830160D01*
X15787327Y-9137327D02*
X15807647Y-9157647D01*
X15807647Y-9137327D02*
X15787327Y-9157647D01*
X15787327Y-9237327D02*
X15807647Y-9257647D01*
X15807647Y-9237327D02*
X15787327Y-9257647D01*
X15787327Y-9337327D02*
X15807647Y-9357647D01*
X15807647Y-9337327D02*
X15787327Y-9357647D01*
X15812327Y-7637327D02*
X15832647Y-7657647D01*
X15832647Y-7637327D02*
X15812327Y-7657647D01*
X15812327Y-8437327D02*
X15832647Y-8457647D01*
X15832647Y-8437327D02*
X15812327Y-8457647D01*
X15812327Y-8637327D02*
X15832647Y-8657647D01*
X15832647Y-8637327D02*
X15812327Y-8657647D01*
X15839840Y-10709840D02*
X15860160Y-10730160D01*
X15860160Y-10709840D02*
X15839840Y-10730160D01*
X15887327Y-9137327D02*
X15907647Y-9157647D01*
X15907647Y-9137327D02*
X15887327Y-9157647D01*
X15887327Y-9237327D02*
X15907647Y-9257647D01*
X15907647Y-9237327D02*
X15887327Y-9257647D01*
X15887327Y-9337327D02*
X15907647Y-9357647D01*
X15907647Y-9337327D02*
X15887327Y-9357647D01*
X15889840Y-11889840D02*
X15910160Y-11910160D01*
X15910160Y-11889840D02*
X15889840Y-11910160D01*
X15909840Y-10619840D02*
X15930160Y-10640160D01*
X15930160Y-10619840D02*
X15909840Y-10640160D01*
X15909840Y-10809840D02*
X15930160Y-10830160D01*
X15930160Y-10809840D02*
X15909840Y-10830160D01*
X15912327Y-8337327D02*
X15932647Y-8357647D01*
X15932647Y-8337327D02*
X15912327Y-8357647D01*
X15912327Y-8537327D02*
X15932647Y-8557647D01*
X15932647Y-8537327D02*
X15912327Y-8557647D01*
X15912327Y-8737327D02*
X15932647Y-8757647D01*
X15932647Y-8737327D02*
X15912327Y-8757647D01*
X15939840Y-11289840D02*
X15960160Y-11310160D01*
X15960160Y-11289840D02*
X15939840Y-11310160D01*
X15939840Y-11759840D02*
X15960160Y-11780160D01*
X15960160Y-11759840D02*
X15939840Y-11780160D01*
X15949840Y-11429840D02*
X15970160Y-11450160D01*
X15970160Y-11429840D02*
X15949840Y-11450160D01*
X15979840Y-9439840D02*
X16000160Y-9460160D01*
X16000160Y-9439840D02*
X15979840Y-9460160D01*
X15979840Y-10119840D02*
X16000160Y-10140160D01*
X16000160Y-10119840D02*
X15979840Y-10140160D01*
X15987327Y-9137327D02*
X16007647Y-9157647D01*
X16007647Y-9137327D02*
X15987327Y-9157647D01*
X15987327Y-9237327D02*
X16007647Y-9257647D01*
X16007647Y-9237327D02*
X15987327Y-9257647D01*
X15987327Y-9337327D02*
X16007647Y-9357647D01*
X16007647Y-9337327D02*
X15987327Y-9357647D01*
X16012327Y-7637327D02*
X16032647Y-7657647D01*
X16032647Y-7637327D02*
X16012327Y-7657647D01*
X16012327Y-8437327D02*
X16032647Y-8457647D01*
X16032647Y-8437327D02*
X16012327Y-8457647D01*
X16012327Y-8637327D02*
X16032647Y-8657647D01*
X16032647Y-8637327D02*
X16012327Y-8657647D01*
X16039840Y-8889840D02*
X16060160Y-8910160D01*
X16060160Y-8889840D02*
X16039840Y-8910160D01*
X16039840Y-8989840D02*
X16060160Y-9010160D01*
X16060160Y-8989840D02*
X16039840Y-9010160D01*
X16039840Y-11889840D02*
X16060160Y-11910160D01*
X16060160Y-11889840D02*
X16039840Y-11910160D01*
X16049840Y-10199840D02*
X16070160Y-10220160D01*
X16070160Y-10199840D02*
X16049840Y-10220160D01*
X16087327Y-9137327D02*
X16107647Y-9157647D01*
X16107647Y-9137327D02*
X16087327Y-9157647D01*
X16087327Y-9237327D02*
X16107647Y-9257647D01*
X16107647Y-9237327D02*
X16087327Y-9257647D01*
X16087327Y-9337327D02*
X16107647Y-9357647D01*
X16107647Y-9337327D02*
X16087327Y-9357647D01*
X16112327Y-8337327D02*
X16132647Y-8357647D01*
X16132647Y-8337327D02*
X16112327Y-8357647D01*
X16112327Y-8537327D02*
X16132647Y-8557647D01*
X16132647Y-8537327D02*
X16112327Y-8557647D01*
X16112327Y-8737327D02*
X16132647Y-8757647D01*
X16132647Y-8737327D02*
X16112327Y-8757647D01*
X16129840Y-7709840D02*
X16150160Y-7730160D01*
X16150160Y-7709840D02*
X16129840Y-7730160D01*
X16129840Y-9429840D02*
X16150160Y-9450160D01*
X16150160Y-9429840D02*
X16129840Y-9450160D01*
X16129840Y-10119840D02*
X16150160Y-10140160D01*
X16150160Y-10119840D02*
X16129840Y-10140160D01*
X16139840Y-8989840D02*
X16160160Y-9010160D01*
X16160160Y-8989840D02*
X16139840Y-9010160D01*
X16139840Y-10489840D02*
X16160160Y-10510160D01*
X16160160Y-10489840D02*
X16139840Y-10510160D01*
X16139840Y-10889840D02*
X16160160Y-10910160D01*
X16160160Y-10889840D02*
X16139840Y-10910160D01*
X16139840Y-11389840D02*
X16160160Y-11410160D01*
X16160160Y-11389840D02*
X16139840Y-11410160D01*
X16139840Y-11779840D02*
X16160160Y-11800160D01*
X16160160Y-11779840D02*
X16139840Y-11800160D01*
X16185946Y-9698025D02*
X16206266Y-9718345D01*
X16206266Y-9698025D02*
X16185946Y-9718345D01*
X16186335Y-9565229D02*
X16206655Y-9585549D01*
X16206655Y-9565229D02*
X16186335Y-9585549D01*
X16187327Y-9137327D02*
X16207647Y-9157647D01*
X16207647Y-9137327D02*
X16187327Y-9157647D01*
X16187327Y-9237327D02*
X16207647Y-9257647D01*
X16207647Y-9237327D02*
X16187327Y-9257647D01*
X16187327Y-9337327D02*
X16207647Y-9357647D01*
X16207647Y-9337327D02*
X16187327Y-9357647D01*
X16189840Y-8889840D02*
X16210160Y-8910160D01*
X16210160Y-8889840D02*
X16189840Y-8910160D01*
X16189840Y-11889840D02*
X16210160Y-11910160D01*
X16210160Y-11889840D02*
X16189840Y-11910160D01*
X16212327Y-7637327D02*
X16232647Y-7657647D01*
X16232647Y-7637327D02*
X16212327Y-7657647D01*
X16212327Y-8237327D02*
X16232647Y-8257647D01*
X16232647Y-8237327D02*
X16212327Y-8257647D01*
X16212327Y-8437327D02*
X16232647Y-8457647D01*
X16232647Y-8437327D02*
X16212327Y-8457647D01*
X16212327Y-8637327D02*
X16232647Y-8657647D01*
X16232647Y-8637327D02*
X16212327Y-8657647D01*
X16219840Y-11649840D02*
X16240160Y-11670160D01*
X16240160Y-11649840D02*
X16219840Y-11670160D01*
X16231827Y-9634327D02*
X16252147Y-9654647D01*
X16252147Y-9634327D02*
X16231827Y-9654647D01*
X16239840Y-8989840D02*
X16260160Y-9010160D01*
X16260160Y-8989840D02*
X16239840Y-9010160D01*
X16239840Y-10199840D02*
X16260160Y-10220160D01*
X16260160Y-10199840D02*
X16239840Y-10220160D01*
X16239840Y-10689840D02*
X16260160Y-10710160D01*
X16260160Y-10689840D02*
X16239840Y-10710160D01*
X16249840Y-7829840D02*
X16270160Y-7850160D01*
X16270160Y-7829840D02*
X16249840Y-7850160D01*
X16276294Y-9566008D02*
X16296614Y-9586328D01*
X16296614Y-9566008D02*
X16276294Y-9586328D01*
X16276294Y-9696468D02*
X16296614Y-9716788D01*
X16296614Y-9696468D02*
X16276294Y-9716788D01*
X16287327Y-9137327D02*
X16307647Y-9157647D01*
X16307647Y-9137327D02*
X16287327Y-9157647D01*
X16287327Y-9237327D02*
X16307647Y-9257647D01*
X16307647Y-9237327D02*
X16287327Y-9257647D01*
X16287327Y-9337327D02*
X16307647Y-9357647D01*
X16307647Y-9337327D02*
X16287327Y-9357647D01*
X16309840Y-10119840D02*
X16330160Y-10140160D01*
X16330160Y-10119840D02*
X16309840Y-10140160D01*
X16312327Y-7737327D02*
X16332647Y-7757647D01*
X16332647Y-7737327D02*
X16312327Y-7757647D01*
X16312327Y-7937327D02*
X16332647Y-7957647D01*
X16332647Y-7937327D02*
X16312327Y-7957647D01*
X16312327Y-8137327D02*
X16332647Y-8157647D01*
X16332647Y-8137327D02*
X16312327Y-8157647D01*
X16312327Y-8337327D02*
X16332647Y-8357647D01*
X16332647Y-8337327D02*
X16312327Y-8357647D01*
X16312327Y-8537327D02*
X16332647Y-8557647D01*
X16332647Y-8537327D02*
X16312327Y-8557647D01*
X16312327Y-8737327D02*
X16332647Y-8757647D01*
X16332647Y-8737327D02*
X16312327Y-8757647D01*
X16339840Y-8889840D02*
X16360160Y-8910160D01*
X16360160Y-8889840D02*
X16339840Y-8910160D01*
X16339840Y-8989840D02*
X16360160Y-9010160D01*
X16360160Y-8989840D02*
X16339840Y-9010160D01*
X16339840Y-10389840D02*
X16360160Y-10410160D01*
X16360160Y-10389840D02*
X16339840Y-10410160D01*
X16339840Y-11289840D02*
X16360160Y-11310160D01*
X16360160Y-11289840D02*
X16339840Y-11310160D01*
X16339840Y-11889840D02*
X16360160Y-11910160D01*
X16360160Y-11889840D02*
X16339840Y-11910160D01*
X16349840Y-11439840D02*
X16370160Y-11460160D01*
X16370160Y-11439840D02*
X16349840Y-11460160D01*
X16379327Y-9490327D02*
X16399647Y-9510647D01*
X16399647Y-9490327D02*
X16379327Y-9510647D01*
X16389840Y-11729840D02*
X16410160Y-11750160D01*
X16410160Y-11729840D02*
X16389840Y-11750160D01*
X16489840Y-11889840D02*
X16510160Y-11910160D01*
X16510160Y-11889840D02*
X16489840Y-11910160D01*
X16494840Y-11069840D02*
X16515160Y-11090160D01*
X16515160Y-11069840D02*
X16494840Y-11090160D01*
X16499840Y-11479840D02*
X16520160Y-11500160D01*
X16520160Y-11479840D02*
X16499840Y-11500160D01*
X16512327Y-8397327D02*
X16532647Y-8417647D01*
X16532647Y-8397327D02*
X16512327Y-8417647D01*
X16519840Y-11669840D02*
X16540160Y-11690160D01*
X16540160Y-11669840D02*
X16519840Y-11690160D01*
X16529840Y-11149840D02*
X16550160Y-11170160D01*
X16550160Y-11149840D02*
X16529840Y-11170160D01*
X16539840Y-8889840D02*
X16560160Y-8910160D01*
X16560160Y-8889840D02*
X16539840Y-8910160D01*
X16539840Y-9089840D02*
X16560160Y-9110160D01*
X16560160Y-9089840D02*
X16539840Y-9110160D01*
X16539840Y-9289840D02*
X16560160Y-9310160D01*
X16560160Y-9289840D02*
X16539840Y-9310160D01*
X16539840Y-11389840D02*
X16560160Y-11410160D01*
X16560160Y-11389840D02*
X16539840Y-11410160D01*
X16639840Y-7589840D02*
X16660160Y-7610160D01*
X16660160Y-7589840D02*
X16639840Y-7610160D01*
X16639840Y-8189840D02*
X16660160Y-8210160D01*
X16660160Y-8189840D02*
X16639840Y-8210160D01*
X16639840Y-8389840D02*
X16660160Y-8410160D01*
X16660160Y-8389840D02*
X16639840Y-8410160D01*
X16639840Y-8789840D02*
X16660160Y-8810160D01*
X16660160Y-8789840D02*
X16639840Y-8810160D01*
X16639840Y-8989840D02*
X16660160Y-9010160D01*
X16660160Y-8989840D02*
X16639840Y-9010160D01*
X16639840Y-9189840D02*
X16660160Y-9210160D01*
X16660160Y-9189840D02*
X16639840Y-9210160D01*
X16639840Y-10979840D02*
X16660160Y-11000160D01*
X16660160Y-10979840D02*
X16639840Y-11000160D01*
X16639840Y-11129840D02*
X16660160Y-11150160D01*
X16660160Y-11129840D02*
X16639840Y-11150160D01*
X16639840Y-11289840D02*
X16660160Y-11310160D01*
X16660160Y-11289840D02*
X16639840Y-11310160D01*
X16639840Y-11439840D02*
X16660160Y-11460160D01*
X16660160Y-11439840D02*
X16639840Y-11460160D01*
X16639840Y-11739840D02*
X16660160Y-11760160D01*
X16660160Y-11739840D02*
X16639840Y-11760160D01*
X16639840Y-11889840D02*
X16660160Y-11910160D01*
X16660160Y-11889840D02*
X16639840Y-11910160D01*
X16739840Y-7689840D02*
X16760160Y-7710160D01*
X16760160Y-7689840D02*
X16739840Y-7710160D01*
X16739840Y-7889840D02*
X16760160Y-7910160D01*
X16760160Y-7889840D02*
X16739840Y-7910160D01*
X16739840Y-8089840D02*
X16760160Y-8110160D01*
X16760160Y-8089840D02*
X16739840Y-8110160D01*
X16739840Y-8289840D02*
X16760160Y-8310160D01*
X16760160Y-8289840D02*
X16739840Y-8310160D01*
X16739840Y-8889840D02*
X16760160Y-8910160D01*
X16760160Y-8889840D02*
X16739840Y-8910160D01*
X16739840Y-9089840D02*
X16760160Y-9110160D01*
X16760160Y-9089840D02*
X16739840Y-9110160D01*
X16739840Y-9289840D02*
X16760160Y-9310160D01*
X16760160Y-9289840D02*
X16739840Y-9310160D01*
X16769840Y-10289840D02*
X16790160Y-10310160D01*
X16790160Y-10289840D02*
X16769840Y-10310160D01*
X16839840Y-7589840D02*
X16860160Y-7610160D01*
X16860160Y-7589840D02*
X16839840Y-7610160D01*
X16839840Y-7789840D02*
X16860160Y-7810160D01*
X16860160Y-7789840D02*
X16839840Y-7810160D01*
X16839840Y-8189840D02*
X16860160Y-8210160D01*
X16860160Y-8189840D02*
X16839840Y-8210160D01*
X16839840Y-8389840D02*
X16860160Y-8410160D01*
X16860160Y-8389840D02*
X16839840Y-8410160D01*
X16839840Y-8589840D02*
X16860160Y-8610160D01*
X16860160Y-8589840D02*
X16839840Y-8610160D01*
X16839840Y-8789840D02*
X16860160Y-8810160D01*
X16860160Y-8789840D02*
X16839840Y-8810160D01*
X16839840Y-8989840D02*
X16860160Y-9010160D01*
X16860160Y-8989840D02*
X16839840Y-9010160D01*
X16839840Y-9189840D02*
X16860160Y-9210160D01*
X16860160Y-9189840D02*
X16839840Y-9210160D01*
X16839840Y-11089840D02*
X16860160Y-11110160D01*
X16860160Y-11089840D02*
X16839840Y-11110160D01*
X16839840Y-11289840D02*
X16860160Y-11310160D01*
X16860160Y-11289840D02*
X16839840Y-11310160D01*
X16839840Y-11489840D02*
X16860160Y-11510160D01*
X16860160Y-11489840D02*
X16839840Y-11510160D01*
X16839840Y-11689840D02*
X16860160Y-11710160D01*
X16860160Y-11689840D02*
X16839840Y-11710160D01*
X16839840Y-11889840D02*
X16860160Y-11910160D01*
X16860160Y-11889840D02*
X16839840Y-11910160D01*
X16850787Y-10288893D02*
X16871107Y-10309213D01*
X16871107Y-10288893D02*
X16850787Y-10309213D01*
X16869840Y-10084840D02*
X16890160Y-10105160D01*
X16890160Y-10084840D02*
X16869840Y-10105160D01*
X16939840Y-7689840D02*
X16960160Y-7710160D01*
X16960160Y-7689840D02*
X16939840Y-7710160D01*
X16939840Y-8289840D02*
X16960160Y-8310160D01*
X16960160Y-8289840D02*
X16939840Y-8310160D01*
X16939840Y-8489840D02*
X16960160Y-8510160D01*
X16960160Y-8489840D02*
X16939840Y-8510160D01*
X16939840Y-8689840D02*
X16960160Y-8710160D01*
X16960160Y-8689840D02*
X16939840Y-8710160D01*
X16939840Y-8889840D02*
X16960160Y-8910160D01*
X16960160Y-8889840D02*
X16939840Y-8910160D01*
X16939840Y-9089840D02*
X16960160Y-9110160D01*
X16960160Y-9089840D02*
X16939840Y-9110160D01*
X16939840Y-9289840D02*
X16960160Y-9310160D01*
X16960160Y-9289840D02*
X16939840Y-9310160D01*
X16939840Y-9889840D02*
X16960160Y-9910160D01*
X16960160Y-9889840D02*
X16939840Y-9910160D01*
X16939840Y-10989840D02*
X16960160Y-11010160D01*
X16960160Y-10989840D02*
X16939840Y-11010160D01*
X16939840Y-11189840D02*
X16960160Y-11210160D01*
X16960160Y-11189840D02*
X16939840Y-11210160D01*
X16939840Y-11389840D02*
X16960160Y-11410160D01*
X16960160Y-11389840D02*
X16939840Y-11410160D01*
X16939840Y-11789840D02*
X16960160Y-11810160D01*
X16960160Y-11789840D02*
X16939840Y-11810160D01*
X16999840Y-11589840D02*
X17020160Y-11610160D01*
X17020160Y-11589840D02*
X16999840Y-11610160D01*
X17019840Y-10204840D02*
X17040160Y-10225160D01*
X17040160Y-10204840D02*
X17019840Y-10225160D01*
X17039840Y-7589840D02*
X17060160Y-7610160D01*
X17060160Y-7589840D02*
X17039840Y-7610160D01*
X17039840Y-8389840D02*
X17060160Y-8410160D01*
X17060160Y-8389840D02*
X17039840Y-8410160D01*
X17039840Y-8589840D02*
X17060160Y-8610160D01*
X17060160Y-8589840D02*
X17039840Y-8610160D01*
X17039840Y-8789840D02*
X17060160Y-8810160D01*
X17060160Y-8789840D02*
X17039840Y-8810160D01*
X17039840Y-8989840D02*
X17060160Y-9010160D01*
X17060160Y-8989840D02*
X17039840Y-9010160D01*
X17039840Y-9189840D02*
X17060160Y-9210160D01*
X17060160Y-9189840D02*
X17039840Y-9210160D01*
X17039840Y-9389840D02*
X17060160Y-9410160D01*
X17060160Y-9389840D02*
X17039840Y-9410160D01*
X17039840Y-9589840D02*
X17060160Y-9610160D01*
X17060160Y-9589840D02*
X17039840Y-9610160D01*
X17039840Y-9789840D02*
X17060160Y-9810160D01*
X17060160Y-9789840D02*
X17039840Y-9810160D01*
X17039840Y-10689840D02*
X17060160Y-10710160D01*
X17060160Y-10689840D02*
X17039840Y-10710160D01*
X17039840Y-10889840D02*
X17060160Y-10910160D01*
X17060160Y-10889840D02*
X17039840Y-10910160D01*
X17039840Y-11089840D02*
X17060160Y-11110160D01*
X17060160Y-11089840D02*
X17039840Y-11110160D01*
X17039840Y-11289840D02*
X17060160Y-11310160D01*
X17060160Y-11289840D02*
X17039840Y-11310160D01*
X17039840Y-11489840D02*
X17060160Y-11510160D01*
X17060160Y-11489840D02*
X17039840Y-11510160D01*
X17039840Y-11689840D02*
X17060160Y-11710160D01*
X17060160Y-11689840D02*
X17039840Y-11710160D01*
X17039840Y-11889840D02*
X17060160Y-11910160D01*
X17060160Y-11889840D02*
X17039840Y-11910160D01*
X17129840Y-10209840D02*
X17150160Y-10230160D01*
X17150160Y-10209840D02*
X17129840Y-10230160D01*
X17139840Y-8489840D02*
X17160160Y-8510160D01*
X17160160Y-8489840D02*
X17139840Y-8510160D01*
X17139840Y-8689840D02*
X17160160Y-8710160D01*
X17160160Y-8689840D02*
X17139840Y-8710160D01*
X17139840Y-8889840D02*
X17160160Y-8910160D01*
X17160160Y-8889840D02*
X17139840Y-8910160D01*
X17139840Y-9089840D02*
X17160160Y-9110160D01*
X17160160Y-9089840D02*
X17139840Y-9110160D01*
X17139840Y-9289840D02*
X17160160Y-9310160D01*
X17160160Y-9289840D02*
X17139840Y-9310160D01*
X17139840Y-9489840D02*
X17160160Y-9510160D01*
X17160160Y-9489840D02*
X17139840Y-9510160D01*
X17139840Y-9689840D02*
X17160160Y-9710160D01*
X17160160Y-9689840D02*
X17139840Y-9710160D01*
X17139840Y-9889840D02*
X17160160Y-9910160D01*
X17160160Y-9889840D02*
X17139840Y-9910160D01*
X17139840Y-10589840D02*
X17160160Y-10610160D01*
X17160160Y-10589840D02*
X17139840Y-10610160D01*
X17139840Y-10789840D02*
X17160160Y-10810160D01*
X17160160Y-10789840D02*
X17139840Y-10810160D01*
X17139840Y-10989840D02*
X17160160Y-11010160D01*
X17160160Y-10989840D02*
X17139840Y-11010160D01*
X17139840Y-11189840D02*
X17160160Y-11210160D01*
X17160160Y-11189840D02*
X17139840Y-11210160D01*
X17139840Y-11389840D02*
X17160160Y-11410160D01*
X17160160Y-11389840D02*
X17139840Y-11410160D01*
X17139840Y-11589840D02*
X17160160Y-11610160D01*
X17160160Y-11589840D02*
X17139840Y-11610160D01*
X17139840Y-11789840D02*
X17160160Y-11810160D01*
X17160160Y-11789840D02*
X17139840Y-11810160D01*
X17239840Y-7589840D02*
X17260160Y-7610160D01*
X17260160Y-7589840D02*
X17239840Y-7610160D01*
X17239840Y-8389840D02*
X17260160Y-8410160D01*
X17260160Y-8389840D02*
X17239840Y-8410160D01*
X17239840Y-8589840D02*
X17260160Y-8610160D01*
X17260160Y-8589840D02*
X17239840Y-8610160D01*
X17239840Y-8789840D02*
X17260160Y-8810160D01*
X17260160Y-8789840D02*
X17239840Y-8810160D01*
X17239840Y-8989840D02*
X17260160Y-9010160D01*
X17260160Y-8989840D02*
X17239840Y-9010160D01*
X17239840Y-9189840D02*
X17260160Y-9210160D01*
X17260160Y-9189840D02*
X17239840Y-9210160D01*
X17239840Y-9389840D02*
X17260160Y-9410160D01*
X17260160Y-9389840D02*
X17239840Y-9410160D01*
X17239840Y-9589840D02*
X17260160Y-9610160D01*
X17260160Y-9589840D02*
X17239840Y-9610160D01*
X17239840Y-9789840D02*
X17260160Y-9810160D01*
X17260160Y-9789840D02*
X17239840Y-9810160D01*
X17239840Y-9989840D02*
X17260160Y-10010160D01*
X17260160Y-9989840D02*
X17239840Y-10010160D01*
X17239840Y-10689840D02*
X17260160Y-10710160D01*
X17260160Y-10689840D02*
X17239840Y-10710160D01*
X17239840Y-10889840D02*
X17260160Y-10910160D01*
X17260160Y-10889840D02*
X17239840Y-10910160D01*
X17239840Y-11489840D02*
X17260160Y-11510160D01*
X17260160Y-11489840D02*
X17239840Y-11510160D01*
X17239840Y-11689840D02*
X17260160Y-11710160D01*
X17260160Y-11689840D02*
X17239840Y-11710160D01*
X17239840Y-11889840D02*
X17260160Y-11910160D01*
X17260160Y-11889840D02*
X17239840Y-11910160D01*
X17339840Y-7689840D02*
X17360160Y-7710160D01*
X17360160Y-7689840D02*
X17339840Y-7710160D01*
X17339840Y-8289840D02*
X17360160Y-8310160D01*
X17360160Y-8289840D02*
X17339840Y-8310160D01*
X17339840Y-8489840D02*
X17360160Y-8510160D01*
X17360160Y-8489840D02*
X17339840Y-8510160D01*
X17339840Y-8689840D02*
X17360160Y-8710160D01*
X17360160Y-8689840D02*
X17339840Y-8710160D01*
X17339840Y-8889840D02*
X17360160Y-8910160D01*
X17360160Y-8889840D02*
X17339840Y-8910160D01*
X17339840Y-9089840D02*
X17360160Y-9110160D01*
X17360160Y-9089840D02*
X17339840Y-9110160D01*
X17339840Y-9289840D02*
X17360160Y-9310160D01*
X17360160Y-9289840D02*
X17339840Y-9310160D01*
X17339840Y-9489840D02*
X17360160Y-9510160D01*
X17360160Y-9489840D02*
X17339840Y-9510160D01*
X17339840Y-9689840D02*
X17360160Y-9710160D01*
X17360160Y-9689840D02*
X17339840Y-9710160D01*
X17339840Y-9889840D02*
X17360160Y-9910160D01*
X17360160Y-9889840D02*
X17339840Y-9910160D01*
X17339840Y-10589840D02*
X17360160Y-10610160D01*
X17360160Y-10589840D02*
X17339840Y-10610160D01*
X17339840Y-10789840D02*
X17360160Y-10810160D01*
X17360160Y-10789840D02*
X17339840Y-10810160D01*
X17339840Y-11589840D02*
X17360160Y-11610160D01*
X17360160Y-11589840D02*
X17339840Y-11610160D01*
X17339840Y-11819840D02*
X17360160Y-11840160D01*
X17360160Y-11819840D02*
X17339840Y-11840160D01*
X17352327Y-10477327D02*
X17372647Y-10497647D01*
X17372647Y-10477327D02*
X17352327Y-10497647D01*
X17429840Y-8779840D02*
X17450160Y-8800160D01*
X17450160Y-8779840D02*
X17429840Y-8800160D01*
X17439840Y-7589840D02*
X17460160Y-7610160D01*
X17460160Y-7589840D02*
X17439840Y-7610160D01*
X17439840Y-7789840D02*
X17460160Y-7810160D01*
X17460160Y-7789840D02*
X17439840Y-7810160D01*
X17439840Y-8189840D02*
X17460160Y-8210160D01*
X17460160Y-8189840D02*
X17439840Y-8210160D01*
X17439840Y-8389840D02*
X17460160Y-8410160D01*
X17460160Y-8389840D02*
X17439840Y-8410160D01*
X17439840Y-8589840D02*
X17460160Y-8610160D01*
X17460160Y-8589840D02*
X17439840Y-8610160D01*
X17439840Y-9589840D02*
X17460160Y-9610160D01*
X17460160Y-9589840D02*
X17439840Y-9610160D01*
X17439840Y-9789840D02*
X17460160Y-9810160D01*
X17460160Y-9789840D02*
X17439840Y-9810160D01*
X17439840Y-9989840D02*
X17460160Y-10010160D01*
X17460160Y-9989840D02*
X17439840Y-10010160D01*
X17439840Y-10689840D02*
X17460160Y-10710160D01*
X17460160Y-10689840D02*
X17439840Y-10710160D01*
X17439840Y-11489840D02*
X17460160Y-11510160D01*
X17460160Y-11489840D02*
X17439840Y-11510160D01*
X17439840Y-11889840D02*
X17460160Y-11910160D01*
X17460160Y-11889840D02*
X17439840Y-11910160D01*
X17452327Y-9227327D02*
X17472647Y-9247647D01*
X17472647Y-9227327D02*
X17452327Y-9247647D01*
X17532327Y-10318577D02*
X17552647Y-10338897D01*
X17552647Y-10318577D02*
X17532327Y-10338897D01*
X17534827Y-9127827D02*
X17555147Y-9148147D01*
X17555147Y-9127827D02*
X17534827Y-9148147D01*
X17534827Y-9685327D02*
X17555147Y-9705647D01*
X17555147Y-9685327D02*
X17534827Y-9705647D01*
X17539840Y-7689840D02*
X17560160Y-7710160D01*
X17560160Y-7689840D02*
X17539840Y-7710160D01*
X17539840Y-7889840D02*
X17560160Y-7910160D01*
X17560160Y-7889840D02*
X17539840Y-7910160D01*
X17539840Y-8089840D02*
X17560160Y-8110160D01*
X17560160Y-8089840D02*
X17539840Y-8110160D01*
X17539840Y-8289840D02*
X17560160Y-8310160D01*
X17560160Y-8289840D02*
X17539840Y-8310160D01*
X17539840Y-8689840D02*
X17560160Y-8710160D01*
X17560160Y-8689840D02*
X17539840Y-8710160D01*
X17539840Y-9889840D02*
X17560160Y-9910160D01*
X17560160Y-9889840D02*
X17539840Y-9910160D01*
X17539840Y-10589840D02*
X17560160Y-10610160D01*
X17560160Y-10589840D02*
X17539840Y-10610160D01*
X17539840Y-10789840D02*
X17560160Y-10810160D01*
X17560160Y-10789840D02*
X17539840Y-10810160D01*
X17539840Y-11589840D02*
X17560160Y-11610160D01*
X17560160Y-11589840D02*
X17539840Y-11610160D01*
X17539840Y-11819840D02*
X17560160Y-11840160D01*
X17560160Y-11819840D02*
X17539840Y-11840160D01*
X17609840Y-7989840D02*
X17630160Y-8010160D01*
X17630160Y-7989840D02*
X17609840Y-8010160D01*
X17609840Y-8189840D02*
X17630160Y-8210160D01*
X17630160Y-8189840D02*
X17609840Y-8210160D01*
X17639840Y-7589840D02*
X17660160Y-7610160D01*
X17660160Y-7589840D02*
X17639840Y-7610160D01*
X17639840Y-7789840D02*
X17660160Y-7810160D01*
X17660160Y-7789840D02*
X17639840Y-7810160D01*
X17639840Y-8389840D02*
X17660160Y-8410160D01*
X17660160Y-8389840D02*
X17639840Y-8410160D01*
X17639840Y-10689840D02*
X17660160Y-10710160D01*
X17660160Y-10689840D02*
X17639840Y-10710160D01*
X17639840Y-10889840D02*
X17660160Y-10910160D01*
X17660160Y-10889840D02*
X17639840Y-10910160D01*
X17639840Y-11489840D02*
X17660160Y-11510160D01*
X17660160Y-11489840D02*
X17639840Y-11510160D01*
X17639840Y-11889840D02*
X17660160Y-11910160D01*
X17660160Y-11889840D02*
X17639840Y-11910160D01*
X17689840Y-8739840D02*
X17710160Y-8760160D01*
X17710160Y-8739840D02*
X17689840Y-8760160D01*
X17689840Y-9539840D02*
X17710160Y-9560160D01*
X17710160Y-9539840D02*
X17689840Y-9560160D01*
X17739840Y-10259117D02*
X17760160Y-10279437D01*
X17760160Y-10259117D02*
X17739840Y-10279437D01*
X17739840Y-10589840D02*
X17760160Y-10610160D01*
X17760160Y-10589840D02*
X17739840Y-10610160D01*
X17739840Y-10789840D02*
X17760160Y-10810160D01*
X17760160Y-10789840D02*
X17739840Y-10810160D01*
X17739840Y-10989840D02*
X17760160Y-11010160D01*
X17760160Y-10989840D02*
X17739840Y-11010160D01*
X17739840Y-11389840D02*
X17760160Y-11410160D01*
X17760160Y-11389840D02*
X17739840Y-11410160D01*
X17739840Y-11559840D02*
X17760160Y-11580160D01*
X17760160Y-11559840D02*
X17739840Y-11580160D01*
X17739840Y-11789840D02*
X17760160Y-11810160D01*
X17760160Y-11789840D02*
X17739840Y-11810160D01*
X17789840Y-8839840D02*
X17810160Y-8860160D01*
X17810160Y-8839840D02*
X17789840Y-8860160D01*
X17789840Y-9039840D02*
X17810160Y-9060160D01*
X17810160Y-9039840D02*
X17789840Y-9060160D01*
X17789840Y-9239840D02*
X17810160Y-9260160D01*
X17810160Y-9239840D02*
X17789840Y-9260160D01*
X17789840Y-9439840D02*
X17810160Y-9460160D01*
X17810160Y-9439840D02*
X17789840Y-9460160D01*
X17789840Y-9639840D02*
X17810160Y-9660160D01*
X17810160Y-9639840D02*
X17789840Y-9660160D01*
X17829840Y-11639840D02*
X17850160Y-11660160D01*
X17850160Y-11639840D02*
X17829840Y-11660160D01*
X17839840Y-7589840D02*
X17860160Y-7610160D01*
X17860160Y-7589840D02*
X17839840Y-7610160D01*
X17839840Y-7789840D02*
X17860160Y-7810160D01*
X17860160Y-7789840D02*
X17839840Y-7810160D01*
X17839840Y-7989840D02*
X17860160Y-8010160D01*
X17860160Y-7989840D02*
X17839840Y-8010160D01*
X17839840Y-8189840D02*
X17860160Y-8210160D01*
X17860160Y-8189840D02*
X17839840Y-8210160D01*
X17839840Y-8389840D02*
X17860160Y-8410160D01*
X17860160Y-8389840D02*
X17839840Y-8410160D01*
X17839840Y-10689840D02*
X17860160Y-10710160D01*
X17860160Y-10689840D02*
X17839840Y-10710160D01*
X17839840Y-10889840D02*
X17860160Y-10910160D01*
X17860160Y-10889840D02*
X17839840Y-10910160D01*
X17839840Y-11089840D02*
X17860160Y-11110160D01*
X17860160Y-11089840D02*
X17839840Y-11110160D01*
X17839840Y-11289840D02*
X17860160Y-11310160D01*
X17860160Y-11289840D02*
X17839840Y-11310160D01*
X17839840Y-11489840D02*
X17860160Y-11510160D01*
X17860160Y-11489840D02*
X17839840Y-11510160D01*
X17839840Y-11889840D02*
X17860160Y-11910160D01*
X17860160Y-11889840D02*
X17839840Y-11910160D01*
X17889840Y-8739840D02*
X17910160Y-8760160D01*
X17910160Y-8739840D02*
X17889840Y-8760160D01*
X17889840Y-8939840D02*
X17910160Y-8960160D01*
X17910160Y-8939840D02*
X17889840Y-8960160D01*
X17889840Y-9139840D02*
X17910160Y-9160160D01*
X17910160Y-9139840D02*
X17889840Y-9160160D01*
X17889840Y-9339840D02*
X17910160Y-9360160D01*
X17910160Y-9339840D02*
X17889840Y-9360160D01*
X17889840Y-9539840D02*
X17910160Y-9560160D01*
X17910160Y-9539840D02*
X17889840Y-9560160D01*
X17902327Y-9877327D02*
X17922647Y-9897647D01*
X17922647Y-9877327D02*
X17902327Y-9897647D01*
X17932327Y-10247327D02*
X17952647Y-10267647D01*
X17952647Y-10247327D02*
X17932327Y-10267647D01*
X17939840Y-7689840D02*
X17960160Y-7710160D01*
X17960160Y-7689840D02*
X17939840Y-7710160D01*
X17939840Y-7889840D02*
X17960160Y-7910160D01*
X17960160Y-7889840D02*
X17939840Y-7910160D01*
X17939840Y-8089840D02*
X17960160Y-8110160D01*
X17960160Y-8089840D02*
X17939840Y-8110160D01*
X17939840Y-8289840D02*
X17960160Y-8310160D01*
X17960160Y-8289840D02*
X17939840Y-8310160D01*
X17939840Y-10589840D02*
X17960160Y-10610160D01*
X17960160Y-10589840D02*
X17939840Y-10610160D01*
X17939840Y-10789840D02*
X17960160Y-10810160D01*
X17960160Y-10789840D02*
X17939840Y-10810160D01*
X17939840Y-10989840D02*
X17960160Y-11010160D01*
X17960160Y-10989840D02*
X17939840Y-11010160D01*
X17939840Y-11189840D02*
X17960160Y-11210160D01*
X17960160Y-11189840D02*
X17939840Y-11210160D01*
X17939840Y-11389840D02*
X17960160Y-11410160D01*
X17960160Y-11389840D02*
X17939840Y-11410160D01*
X17939840Y-11589840D02*
X17960160Y-11610160D01*
X17960160Y-11589840D02*
X17939840Y-11610160D01*
X17989840Y-8839840D02*
X18010160Y-8860160D01*
X18010160Y-8839840D02*
X17989840Y-8860160D01*
X17989840Y-9039840D02*
X18010160Y-9060160D01*
X18010160Y-9039840D02*
X17989840Y-9060160D01*
X17989840Y-9239840D02*
X18010160Y-9260160D01*
X18010160Y-9239840D02*
X17989840Y-9260160D01*
X17989840Y-9439840D02*
X18010160Y-9460160D01*
X18010160Y-9439840D02*
X17989840Y-9460160D01*
X17989840Y-9639840D02*
X18010160Y-9660160D01*
X18010160Y-9639840D02*
X17989840Y-9660160D01*
X18039840Y-7589840D02*
X18060160Y-7610160D01*
X18060160Y-7589840D02*
X18039840Y-7610160D01*
X18039840Y-7789840D02*
X18060160Y-7810160D01*
X18060160Y-7789840D02*
X18039840Y-7810160D01*
X18039840Y-8189840D02*
X18060160Y-8210160D01*
X18060160Y-8189840D02*
X18039840Y-8210160D01*
X18039840Y-8389840D02*
X18060160Y-8410160D01*
X18060160Y-8389840D02*
X18039840Y-8410160D01*
X18039840Y-10689840D02*
X18060160Y-10710160D01*
X18060160Y-10689840D02*
X18039840Y-10710160D01*
X18039840Y-10889840D02*
X18060160Y-10910160D01*
X18060160Y-10889840D02*
X18039840Y-10910160D01*
X18039840Y-11089840D02*
X18060160Y-11110160D01*
X18060160Y-11089840D02*
X18039840Y-11110160D01*
X18039840Y-11289840D02*
X18060160Y-11310160D01*
X18060160Y-11289840D02*
X18039840Y-11310160D01*
X18039840Y-11489840D02*
X18060160Y-11510160D01*
X18060160Y-11489840D02*
X18039840Y-11510160D01*
X18039840Y-11639840D02*
X18060160Y-11660160D01*
X18060160Y-11639840D02*
X18039840Y-11660160D01*
X18039840Y-11889840D02*
X18060160Y-11910160D01*
X18060160Y-11889840D02*
X18039840Y-11910160D01*
X18089840Y-8539840D02*
X18110160Y-8560160D01*
X18110160Y-8539840D02*
X18089840Y-8560160D01*
X18089840Y-8739840D02*
X18110160Y-8760160D01*
X18110160Y-8739840D02*
X18089840Y-8760160D01*
X18089840Y-8939840D02*
X18110160Y-8960160D01*
X18110160Y-8939840D02*
X18089840Y-8960160D01*
X18089840Y-9139840D02*
X18110160Y-9160160D01*
X18110160Y-9139840D02*
X18089840Y-9160160D01*
X18089840Y-9339840D02*
X18110160Y-9360160D01*
X18110160Y-9339840D02*
X18089840Y-9360160D01*
X18089840Y-9539840D02*
X18110160Y-9560160D01*
X18110160Y-9539840D02*
X18089840Y-9560160D01*
X18092327Y-10247327D02*
X18112647Y-10267647D01*
X18112647Y-10247327D02*
X18092327Y-10267647D01*
X18114827Y-9957327D02*
X18135147Y-9977647D01*
X18135147Y-9957327D02*
X18114827Y-9977647D01*
X18139840Y-7689840D02*
X18160160Y-7710160D01*
X18160160Y-7689840D02*
X18139840Y-7710160D01*
X18139840Y-8289840D02*
X18160160Y-8310160D01*
X18160160Y-8289840D02*
X18139840Y-8310160D01*
X18139840Y-10589840D02*
X18160160Y-10610160D01*
X18160160Y-10589840D02*
X18139840Y-10610160D01*
X18139840Y-10789840D02*
X18160160Y-10810160D01*
X18160160Y-10789840D02*
X18139840Y-10810160D01*
X18139840Y-10989840D02*
X18160160Y-11010160D01*
X18160160Y-10989840D02*
X18139840Y-11010160D01*
X18139840Y-11189840D02*
X18160160Y-11210160D01*
X18160160Y-11189840D02*
X18139840Y-11210160D01*
X18139840Y-11389840D02*
X18160160Y-11410160D01*
X18160160Y-11389840D02*
X18139840Y-11410160D01*
X18139840Y-11589840D02*
X18160160Y-11610160D01*
X18160160Y-11589840D02*
X18139840Y-11610160D01*
X18189840Y-8639840D02*
X18210160Y-8660160D01*
X18210160Y-8639840D02*
X18189840Y-8660160D01*
X18189840Y-8839840D02*
X18210160Y-8860160D01*
X18210160Y-8839840D02*
X18189840Y-8860160D01*
X18189840Y-9039840D02*
X18210160Y-9060160D01*
X18210160Y-9039840D02*
X18189840Y-9060160D01*
X18189840Y-9239840D02*
X18210160Y-9260160D01*
X18210160Y-9239840D02*
X18189840Y-9260160D01*
X18189840Y-9439840D02*
X18210160Y-9460160D01*
X18210160Y-9439840D02*
X18189840Y-9460160D01*
X18189840Y-9639840D02*
X18210160Y-9660160D01*
X18210160Y-9639840D02*
X18189840Y-9660160D01*
X18239840Y-7589840D02*
X18260160Y-7610160D01*
X18260160Y-7589840D02*
X18239840Y-7610160D01*
X18239840Y-8389840D02*
X18260160Y-8410160D01*
X18260160Y-8389840D02*
X18239840Y-8410160D01*
X18239840Y-10689840D02*
X18260160Y-10710160D01*
X18260160Y-10689840D02*
X18239840Y-10710160D01*
X18239840Y-10889840D02*
X18260160Y-10910160D01*
X18260160Y-10889840D02*
X18239840Y-10910160D01*
X18239840Y-11089840D02*
X18260160Y-11110160D01*
X18260160Y-11089840D02*
X18239840Y-11110160D01*
X18239840Y-11289840D02*
X18260160Y-11310160D01*
X18260160Y-11289840D02*
X18239840Y-11310160D01*
X18239840Y-11489840D02*
X18260160Y-11510160D01*
X18260160Y-11489840D02*
X18239840Y-11510160D01*
X18239840Y-11639840D02*
X18260160Y-11660160D01*
X18260160Y-11639840D02*
X18239840Y-11660160D01*
X18239840Y-11889840D02*
X18260160Y-11910160D01*
X18260160Y-11889840D02*
X18239840Y-11910160D01*
X18289840Y-8539840D02*
X18310160Y-8560160D01*
X18310160Y-8539840D02*
X18289840Y-8560160D01*
X18289840Y-8739840D02*
X18310160Y-8760160D01*
X18310160Y-8739840D02*
X18289840Y-8760160D01*
X18289840Y-8939840D02*
X18310160Y-8960160D01*
X18310160Y-8939840D02*
X18289840Y-8960160D01*
X18289840Y-9139840D02*
X18310160Y-9160160D01*
X18310160Y-9139840D02*
X18289840Y-9160160D01*
X18289840Y-9339840D02*
X18310160Y-9360160D01*
X18310160Y-9339840D02*
X18289840Y-9360160D01*
X18289840Y-9539840D02*
X18310160Y-9560160D01*
X18310160Y-9539840D02*
X18289840Y-9560160D01*
X18332327Y-10247327D02*
X18352647Y-10267647D01*
X18352647Y-10247327D02*
X18332327Y-10267647D01*
X18339840Y-10589840D02*
X18360160Y-10610160D01*
X18360160Y-10589840D02*
X18339840Y-10610160D01*
X18339840Y-10789840D02*
X18360160Y-10810160D01*
X18360160Y-10789840D02*
X18339840Y-10810160D01*
X18339840Y-10989840D02*
X18360160Y-11010160D01*
X18360160Y-10989840D02*
X18339840Y-11010160D01*
X18339840Y-11189840D02*
X18360160Y-11210160D01*
X18360160Y-11189840D02*
X18339840Y-11210160D01*
X18339840Y-11389840D02*
X18360160Y-11410160D01*
X18360160Y-11389840D02*
X18339840Y-11410160D01*
X18339840Y-11589840D02*
X18360160Y-11610160D01*
X18360160Y-11589840D02*
X18339840Y-11610160D01*
X18389840Y-8639840D02*
X18410160Y-8660160D01*
X18410160Y-8639840D02*
X18389840Y-8660160D01*
X18389840Y-8839840D02*
X18410160Y-8860160D01*
X18410160Y-8839840D02*
X18389840Y-8860160D01*
X18389840Y-9039840D02*
X18410160Y-9060160D01*
X18410160Y-9039840D02*
X18389840Y-9060160D01*
X18389840Y-9239840D02*
X18410160Y-9260160D01*
X18410160Y-9239840D02*
X18389840Y-9260160D01*
X18389840Y-9439840D02*
X18410160Y-9460160D01*
X18410160Y-9439840D02*
X18389840Y-9460160D01*
X18389840Y-9609840D02*
X18410160Y-9630160D01*
X18410160Y-9609840D02*
X18389840Y-9630160D01*
X18439840Y-7589840D02*
X18460160Y-7610160D01*
X18460160Y-7589840D02*
X18439840Y-7610160D01*
X18439840Y-8389840D02*
X18460160Y-8410160D01*
X18460160Y-8389840D02*
X18439840Y-8410160D01*
X18439840Y-10689840D02*
X18460160Y-10710160D01*
X18460160Y-10689840D02*
X18439840Y-10710160D01*
X18439840Y-10889840D02*
X18460160Y-10910160D01*
X18460160Y-10889840D02*
X18439840Y-10910160D01*
X18439840Y-11089840D02*
X18460160Y-11110160D01*
X18460160Y-11089840D02*
X18439840Y-11110160D01*
X18439840Y-11489840D02*
X18460160Y-11510160D01*
X18460160Y-11489840D02*
X18439840Y-11510160D01*
X18439840Y-11639840D02*
X18460160Y-11660160D01*
X18460160Y-11639840D02*
X18439840Y-11660160D01*
X18439840Y-11889840D02*
X18460160Y-11910160D01*
X18460160Y-11889840D02*
X18439840Y-11910160D01*
X18489840Y-8539840D02*
X18510160Y-8560160D01*
X18510160Y-8539840D02*
X18489840Y-8560160D01*
X18489840Y-8739840D02*
X18510160Y-8760160D01*
X18510160Y-8739840D02*
X18489840Y-8760160D01*
X18489840Y-8939840D02*
X18510160Y-8960160D01*
X18510160Y-8939840D02*
X18489840Y-8960160D01*
X18489840Y-9139840D02*
X18510160Y-9160160D01*
X18510160Y-9139840D02*
X18489840Y-9160160D01*
X18489840Y-9339840D02*
X18510160Y-9360160D01*
X18510160Y-9339840D02*
X18489840Y-9360160D01*
X18489840Y-9539840D02*
X18510160Y-9560160D01*
X18510160Y-9539840D02*
X18489840Y-9560160D01*
X18492327Y-10247327D02*
X18512647Y-10267647D01*
X18512647Y-10247327D02*
X18492327Y-10267647D01*
X18539840Y-7689840D02*
X18560160Y-7710160D01*
X18560160Y-7689840D02*
X18539840Y-7710160D01*
X18539840Y-8289840D02*
X18560160Y-8310160D01*
X18560160Y-8289840D02*
X18539840Y-8310160D01*
X18539840Y-11189840D02*
X18560160Y-11210160D01*
X18560160Y-11189840D02*
X18539840Y-11210160D01*
X18539840Y-11289840D02*
X18560160Y-11310160D01*
X18560160Y-11289840D02*
X18539840Y-11310160D01*
X18579840Y-9609840D02*
X18600160Y-9630160D01*
X18600160Y-9609840D02*
X18579840Y-9630160D01*
X18589840Y-8639840D02*
X18610160Y-8660160D01*
X18610160Y-8639840D02*
X18589840Y-8660160D01*
X18589840Y-9239840D02*
X18610160Y-9260160D01*
X18610160Y-9239840D02*
X18589840Y-9260160D01*
X18589840Y-9439840D02*
X18610160Y-9460160D01*
X18610160Y-9439840D02*
X18589840Y-9460160D01*
X18639840Y-7589840D02*
X18660160Y-7610160D01*
X18660160Y-7589840D02*
X18639840Y-7610160D01*
X18639840Y-7789840D02*
X18660160Y-7810160D01*
X18660160Y-7789840D02*
X18639840Y-7810160D01*
X18639840Y-8189840D02*
X18660160Y-8210160D01*
X18660160Y-8189840D02*
X18639840Y-8210160D01*
X18639840Y-8369840D02*
X18660160Y-8390160D01*
X18660160Y-8369840D02*
X18639840Y-8390160D01*
X18639840Y-10589840D02*
X18660160Y-10610160D01*
X18660160Y-10589840D02*
X18639840Y-10610160D01*
X18639840Y-10789840D02*
X18660160Y-10810160D01*
X18660160Y-10789840D02*
X18639840Y-10810160D01*
X18639840Y-10989840D02*
X18660160Y-11010160D01*
X18660160Y-10989840D02*
X18639840Y-11010160D01*
X18639840Y-11889840D02*
X18660160Y-11910160D01*
X18660160Y-11889840D02*
X18639840Y-11910160D01*
X18689840Y-8539840D02*
X18710160Y-8560160D01*
X18710160Y-8539840D02*
X18689840Y-8560160D01*
X18689840Y-8739840D02*
X18710160Y-8760160D01*
X18710160Y-8739840D02*
X18689840Y-8760160D01*
X18689840Y-11189840D02*
X18710160Y-11210160D01*
X18710160Y-11189840D02*
X18689840Y-11210160D01*
X18689840Y-11289840D02*
X18710160Y-11310160D01*
X18710160Y-11289840D02*
X18689840Y-11310160D01*
X18689840Y-11539840D02*
X18710160Y-11560160D01*
X18710160Y-11539840D02*
X18689840Y-11560160D01*
X18699840Y-9369840D02*
X18720160Y-9390160D01*
X18720160Y-9369840D02*
X18699840Y-9390160D01*
X18709827Y-10167327D02*
X18730147Y-10187647D01*
X18730147Y-10167327D02*
X18709827Y-10187647D01*
X18709827Y-10407327D02*
X18730147Y-10427647D01*
X18730147Y-10407327D02*
X18709827Y-10427647D01*
X18739840Y-7689840D02*
X18760160Y-7710160D01*
X18760160Y-7689840D02*
X18739840Y-7710160D01*
X18739840Y-7889840D02*
X18760160Y-7910160D01*
X18760160Y-7889840D02*
X18739840Y-7910160D01*
X18739840Y-8089840D02*
X18760160Y-8110160D01*
X18760160Y-8089840D02*
X18739840Y-8110160D01*
X18739840Y-8289840D02*
X18760160Y-8310160D01*
X18760160Y-8289840D02*
X18739840Y-8310160D01*
X18739840Y-10689840D02*
X18760160Y-10710160D01*
X18760160Y-10689840D02*
X18739840Y-10710160D01*
X18739840Y-10889840D02*
X18760160Y-10910160D01*
X18760160Y-10889840D02*
X18739840Y-10910160D01*
X18739840Y-11089840D02*
X18760160Y-11110160D01*
X18760160Y-11089840D02*
X18739840Y-11110160D01*
X18739840Y-11639840D02*
X18760160Y-11660160D01*
X18760160Y-11639840D02*
X18739840Y-11660160D01*
X18749840Y-9419840D02*
X18770160Y-9440160D01*
X18770160Y-9419840D02*
X18749840Y-9440160D01*
X18777327Y-9557327D02*
X18797647Y-9577647D01*
X18797647Y-9557327D02*
X18777327Y-9577647D01*
X18789840Y-8639840D02*
X18810160Y-8660160D01*
X18810160Y-8639840D02*
X18789840Y-8660160D01*
X18789840Y-11889840D02*
X18810160Y-11910160D01*
X18810160Y-11889840D02*
X18789840Y-11910160D01*
X18799840Y-7989840D02*
X18820160Y-8010160D01*
X18820160Y-7989840D02*
X18799840Y-8010160D01*
X18799840Y-8189840D02*
X18820160Y-8210160D01*
X18820160Y-8189840D02*
X18799840Y-8210160D01*
X18809840Y-7789840D02*
X18830160Y-7810160D01*
X18830160Y-7789840D02*
X18809840Y-7810160D01*
X18809840Y-9909840D02*
X18830160Y-9930160D01*
X18830160Y-9909840D02*
X18809840Y-9930160D01*
X18839840Y-7589840D02*
X18860160Y-7610160D01*
X18860160Y-7589840D02*
X18839840Y-7610160D01*
X18839840Y-8389840D02*
X18860160Y-8410160D01*
X18860160Y-8389840D02*
X18839840Y-8410160D01*
X18839840Y-10589840D02*
X18860160Y-10610160D01*
X18860160Y-10589840D02*
X18839840Y-10610160D01*
X18839840Y-10789840D02*
X18860160Y-10810160D01*
X18860160Y-10789840D02*
X18839840Y-10810160D01*
X18839840Y-10989840D02*
X18860160Y-11010160D01*
X18860160Y-10989840D02*
X18839840Y-11010160D01*
X18839840Y-11439840D02*
X18860160Y-11460160D01*
X18860160Y-11439840D02*
X18839840Y-11460160D01*
X18859840Y-9149840D02*
X18880160Y-9170160D01*
X18880160Y-9149840D02*
X18859840Y-9170160D01*
X18859840Y-9239840D02*
X18880160Y-9260160D01*
X18880160Y-9239840D02*
X18859840Y-9260160D01*
X18859840Y-9329840D02*
X18880160Y-9350160D01*
X18880160Y-9329840D02*
X18859840Y-9350160D01*
X18889840Y-8539840D02*
X18910160Y-8560160D01*
X18910160Y-8539840D02*
X18889840Y-8560160D01*
X18889840Y-8739840D02*
X18910160Y-8760160D01*
X18910160Y-8739840D02*
X18889840Y-8760160D01*
X18919840Y-9079840D02*
X18940160Y-9100160D01*
X18940160Y-9079840D02*
X18919840Y-9100160D01*
X18939840Y-9149840D02*
X18960160Y-9170160D01*
X18960160Y-9149840D02*
X18939840Y-9170160D01*
X18939840Y-9239840D02*
X18960160Y-9260160D01*
X18960160Y-9239840D02*
X18939840Y-9260160D01*
X18939840Y-9329840D02*
X18960160Y-9350160D01*
X18960160Y-9329840D02*
X18939840Y-9350160D01*
X18939840Y-10689840D02*
X18960160Y-10710160D01*
X18960160Y-10689840D02*
X18939840Y-10710160D01*
X18939840Y-10889840D02*
X18960160Y-10910160D01*
X18960160Y-10889840D02*
X18939840Y-10910160D01*
X18939840Y-11189840D02*
X18960160Y-11210160D01*
X18960160Y-11189840D02*
X18939840Y-11210160D01*
X18939840Y-11589840D02*
X18960160Y-11610160D01*
X18960160Y-11589840D02*
X18939840Y-11610160D01*
X18939840Y-11889840D02*
X18960160Y-11910160D01*
X18960160Y-11889840D02*
X18939840Y-11910160D01*
X18967327Y-9557327D02*
X18987647Y-9577647D01*
X18987647Y-9557327D02*
X18967327Y-9577647D01*
X18982327Y-10087327D02*
X19002647Y-10107647D01*
X19002647Y-10087327D02*
X18982327Y-10107647D01*
X18982327Y-11067327D02*
X19002647Y-11087647D01*
X19002647Y-11067327D02*
X18982327Y-11087647D01*
X18982971Y-10010484D02*
X19003291Y-10030804D01*
X19003291Y-10010484D02*
X18982971Y-10030804D01*
X18989463Y-10169282D02*
X19009783Y-10189602D01*
X19009783Y-10169282D02*
X18989463Y-10189602D01*
X18989840Y-7589840D02*
X19010160Y-7610160D01*
X19010160Y-7589840D02*
X18989840Y-7610160D01*
X18989840Y-8389840D02*
X19010160Y-8410160D01*
X19010160Y-8389840D02*
X18989840Y-8410160D01*
X18999840Y-9079840D02*
X19020160Y-9100160D01*
X19020160Y-9079840D02*
X18999840Y-9100160D01*
X19009840Y-8189840D02*
X19030160Y-8210160D01*
X19030160Y-8189840D02*
X19009840Y-8210160D01*
X19019840Y-7789840D02*
X19040160Y-7810160D01*
X19040160Y-7789840D02*
X19019840Y-7810160D01*
X19019840Y-7989840D02*
X19040160Y-8010160D01*
X19040160Y-7989840D02*
X19019840Y-8010160D01*
X19039840Y-10589840D02*
X19060160Y-10610160D01*
X19060160Y-10589840D02*
X19039840Y-10610160D01*
X19039840Y-10789840D02*
X19060160Y-10810160D01*
X19060160Y-10789840D02*
X19039840Y-10810160D01*
X19045416Y-10336189D02*
X19065736Y-10356509D01*
X19065736Y-10336189D02*
X19045416Y-10356509D01*
X19079840Y-9149840D02*
X19100160Y-9170160D01*
X19100160Y-9149840D02*
X19079840Y-9170160D01*
X19079840Y-9917277D02*
X19100160Y-9937597D01*
X19100160Y-9917277D02*
X19079840Y-9937597D01*
X19089840Y-7689840D02*
X19110160Y-7710160D01*
X19110160Y-7689840D02*
X19089840Y-7710160D01*
X19089840Y-7889840D02*
X19110160Y-7910160D01*
X19110160Y-7889840D02*
X19089840Y-7910160D01*
X19089840Y-8089840D02*
X19110160Y-8110160D01*
X19110160Y-8089840D02*
X19089840Y-8110160D01*
X19089840Y-8289840D02*
X19110160Y-8310160D01*
X19110160Y-8289840D02*
X19089840Y-8310160D01*
X19089840Y-8489840D02*
X19110160Y-8510160D01*
X19110160Y-8489840D02*
X19089840Y-8510160D01*
X19089840Y-8689840D02*
X19110160Y-8710160D01*
X19110160Y-8689840D02*
X19089840Y-8710160D01*
X19089840Y-11639840D02*
X19110160Y-11660160D01*
X19110160Y-11639840D02*
X19089840Y-11660160D01*
X19089840Y-11889840D02*
X19110160Y-11910160D01*
X19110160Y-11889840D02*
X19089840Y-11910160D01*
X19092327Y-10237327D02*
X19112647Y-10257647D01*
X19112647Y-10237327D02*
X19092327Y-10257647D01*
X19114840Y-8989840D02*
X19135160Y-9010160D01*
X19135160Y-8989840D02*
X19114840Y-9010160D01*
X19118955Y-10046484D02*
X19139275Y-10066804D01*
X19139275Y-10046484D02*
X19118955Y-10066804D01*
X19124827Y-9507327D02*
X19145147Y-9527647D01*
X19145147Y-9507327D02*
X19124827Y-9527647D01*
X19139840Y-10689840D02*
X19160160Y-10710160D01*
X19160160Y-10689840D02*
X19139840Y-10710160D01*
X19139840Y-10889840D02*
X19160160Y-10910160D01*
X19160160Y-10889840D02*
X19139840Y-10910160D01*
X19159840Y-9149840D02*
X19180160Y-9170160D01*
X19180160Y-9149840D02*
X19159840Y-9170160D01*
X19189840Y-7589840D02*
X19210160Y-7610160D01*
X19210160Y-7589840D02*
X19189840Y-7610160D01*
X19189840Y-7789840D02*
X19210160Y-7810160D01*
X19210160Y-7789840D02*
X19189840Y-7810160D01*
X19189840Y-7989840D02*
X19210160Y-8010160D01*
X19210160Y-7989840D02*
X19189840Y-8010160D01*
X19189840Y-8189840D02*
X19210160Y-8210160D01*
X19210160Y-8189840D02*
X19189840Y-8210160D01*
X19189840Y-8389840D02*
X19210160Y-8410160D01*
X19210160Y-8389840D02*
X19189840Y-8410160D01*
X19189840Y-8589840D02*
X19210160Y-8610160D01*
X19210160Y-8589840D02*
X19189840Y-8610160D01*
X19189840Y-8789840D02*
X19210160Y-8810160D01*
X19210160Y-8789840D02*
X19189840Y-8810160D01*
X19196090Y-10449840D02*
X19216410Y-10470160D01*
X19216410Y-10449840D02*
X19196090Y-10470160D01*
X19202327Y-9857327D02*
X19222647Y-9877647D01*
X19222647Y-9857327D02*
X19202327Y-9877647D01*
X19202327Y-9977327D02*
X19222647Y-9997647D01*
X19222647Y-9977327D02*
X19202327Y-9997647D01*
X19214840Y-8989840D02*
X19235160Y-9010160D01*
X19235160Y-8989840D02*
X19214840Y-9010160D01*
X19239840Y-9149840D02*
X19260160Y-9170160D01*
X19260160Y-9149840D02*
X19239840Y-9170160D01*
X19239840Y-10789840D02*
X19260160Y-10810160D01*
X19260160Y-10789840D02*
X19239840Y-10810160D01*
X19239840Y-10989840D02*
X19260160Y-11010160D01*
X19260160Y-10989840D02*
X19239840Y-11010160D01*
X19239840Y-11889840D02*
X19260160Y-11910160D01*
X19260160Y-11889840D02*
X19239840Y-11910160D01*
X19269840Y-10480116D02*
X19290160Y-10500436D01*
X19290160Y-10480116D02*
X19269840Y-10500436D01*
X19289840Y-7689840D02*
X19310160Y-7710160D01*
X19310160Y-7689840D02*
X19289840Y-7710160D01*
X19289840Y-8289840D02*
X19310160Y-8310160D01*
X19310160Y-8289840D02*
X19289840Y-8310160D01*
X19289840Y-8489840D02*
X19310160Y-8510160D01*
X19310160Y-8489840D02*
X19289840Y-8510160D01*
X19289840Y-8689840D02*
X19310160Y-8710160D01*
X19310160Y-8689840D02*
X19289840Y-8710160D01*
X19289840Y-10689840D02*
X19310160Y-10710160D01*
X19310160Y-10689840D02*
X19289840Y-10710160D01*
X19289840Y-10889840D02*
X19310160Y-10910160D01*
X19310160Y-10889840D02*
X19289840Y-10910160D01*
X19289840Y-11589840D02*
X19310160Y-11610160D01*
X19310160Y-11589840D02*
X19289840Y-11610160D01*
X19312327Y-10107327D02*
X19332647Y-10127647D01*
X19332647Y-10107327D02*
X19312327Y-10127647D01*
X19312327Y-10197327D02*
X19332647Y-10217647D01*
X19332647Y-10197327D02*
X19312327Y-10217647D01*
X19312327Y-10287327D02*
X19332647Y-10307647D01*
X19332647Y-10287327D02*
X19312327Y-10307647D01*
X19314840Y-8989840D02*
X19335160Y-9010160D01*
X19335160Y-8989840D02*
X19314840Y-9010160D01*
X19319840Y-9149840D02*
X19340160Y-9170160D01*
X19340160Y-9149840D02*
X19319840Y-9170160D01*
X19389840Y-7589840D02*
X19410160Y-7610160D01*
X19410160Y-7589840D02*
X19389840Y-7610160D01*
X19389840Y-8389840D02*
X19410160Y-8410160D01*
X19410160Y-8389840D02*
X19389840Y-8410160D01*
X19389840Y-8589840D02*
X19410160Y-8610160D01*
X19410160Y-8589840D02*
X19389840Y-8610160D01*
X19389840Y-8789840D02*
X19410160Y-8810160D01*
X19410160Y-8789840D02*
X19389840Y-8810160D01*
X19389840Y-11889840D02*
X19410160Y-11910160D01*
X19410160Y-11889840D02*
X19389840Y-11910160D01*
X19402327Y-10107327D02*
X19422647Y-10127647D01*
X19422647Y-10107327D02*
X19402327Y-10127647D01*
X19402327Y-10197327D02*
X19422647Y-10217647D01*
X19422647Y-10197327D02*
X19402327Y-10217647D01*
X19402327Y-10287327D02*
X19422647Y-10307647D01*
X19422647Y-10287327D02*
X19402327Y-10307647D01*
X19449840Y-11639840D02*
X19470160Y-11660160D01*
X19470160Y-11639840D02*
X19449840Y-11660160D01*
X19459840Y-9189840D02*
X19480160Y-9210160D01*
X19480160Y-9189840D02*
X19459840Y-9210160D01*
X19459840Y-9269840D02*
X19480160Y-9290160D01*
X19480160Y-9269840D02*
X19459840Y-9290160D01*
X19459840Y-9349840D02*
X19480160Y-9370160D01*
X19480160Y-9349840D02*
X19459840Y-9370160D01*
X19459840Y-9429840D02*
X19480160Y-9450160D01*
X19480160Y-9429840D02*
X19459840Y-9450160D01*
X19459840Y-9509840D02*
X19480160Y-9530160D01*
X19480160Y-9509840D02*
X19459840Y-9530160D01*
X19464840Y-8989840D02*
X19485160Y-9010160D01*
X19485160Y-8989840D02*
X19464840Y-9010160D01*
X19464840Y-9764840D02*
X19485160Y-9785160D01*
X19485160Y-9764840D02*
X19464840Y-9785160D01*
X19482327Y-11417327D02*
X19502647Y-11437647D01*
X19502647Y-11417327D02*
X19482327Y-11437647D01*
X19489840Y-7659840D02*
X19510160Y-7680160D01*
X19510160Y-7659840D02*
X19489840Y-7680160D01*
X19489840Y-8319840D02*
X19510160Y-8340160D01*
X19510160Y-8319840D02*
X19489840Y-8340160D01*
X19489840Y-8489840D02*
X19510160Y-8510160D01*
X19510160Y-8489840D02*
X19489840Y-8510160D01*
X19489840Y-8689840D02*
X19510160Y-8710160D01*
X19510160Y-8689840D02*
X19489840Y-8710160D01*
X19492327Y-10107327D02*
X19512647Y-10127647D01*
X19512647Y-10107327D02*
X19492327Y-10127647D01*
X19492327Y-10197327D02*
X19512647Y-10217647D01*
X19512647Y-10197327D02*
X19492327Y-10217647D01*
X19492327Y-10287327D02*
X19512647Y-10307647D01*
X19512647Y-10287327D02*
X19492327Y-10307647D01*
X19497327Y-9922327D02*
X19517647Y-9942647D01*
X19517647Y-9922327D02*
X19497327Y-9942647D01*
X19512327Y-10477327D02*
X19532647Y-10497647D01*
X19532647Y-10477327D02*
X19512327Y-10497647D01*
X19539840Y-10669840D02*
X19560160Y-10690160D01*
X19560160Y-10669840D02*
X19539840Y-10690160D01*
X19539840Y-10749840D02*
X19560160Y-10770160D01*
X19560160Y-10749840D02*
X19539840Y-10770160D01*
X19539840Y-10829840D02*
X19560160Y-10850160D01*
X19560160Y-10829840D02*
X19539840Y-10850160D01*
X19539840Y-11889840D02*
X19560160Y-11910160D01*
X19560160Y-11889840D02*
X19539840Y-11910160D01*
X19559840Y-9189840D02*
X19580160Y-9210160D01*
X19580160Y-9189840D02*
X19559840Y-9210160D01*
X19559840Y-9269840D02*
X19580160Y-9290160D01*
X19580160Y-9269840D02*
X19559840Y-9290160D01*
X19559840Y-9349840D02*
X19580160Y-9370160D01*
X19580160Y-9349840D02*
X19559840Y-9370160D01*
X19559840Y-9429840D02*
X19580160Y-9450160D01*
X19580160Y-9429840D02*
X19559840Y-9450160D01*
X19559840Y-9509840D02*
X19580160Y-9530160D01*
X19580160Y-9509840D02*
X19559840Y-9530160D01*
X19564840Y-8989840D02*
X19585160Y-9010160D01*
X19585160Y-8989840D02*
X19564840Y-9010160D01*
X19564840Y-9764840D02*
X19585160Y-9785160D01*
X19585160Y-9764840D02*
X19564840Y-9785160D01*
X19573577Y-10417327D02*
X19593897Y-10437647D01*
X19593897Y-10417327D02*
X19573577Y-10437647D01*
X19589840Y-7589840D02*
X19610160Y-7610160D01*
X19610160Y-7589840D02*
X19589840Y-7610160D01*
X19589840Y-8389840D02*
X19610160Y-8410160D01*
X19610160Y-8389840D02*
X19589840Y-8410160D01*
X19589840Y-8589840D02*
X19610160Y-8610160D01*
X19610160Y-8589840D02*
X19589840Y-8610160D01*
X19589840Y-8789840D02*
X19610160Y-8810160D01*
X19610160Y-8789840D02*
X19589840Y-8810160D01*
X19589840Y-10939840D02*
X19610160Y-10960160D01*
X19610160Y-10939840D02*
X19589840Y-10960160D01*
X19599840Y-10709840D02*
X19620160Y-10730160D01*
X19620160Y-10709840D02*
X19599840Y-10730160D01*
X19599840Y-10789840D02*
X19620160Y-10810160D01*
X19620160Y-10789840D02*
X19599840Y-10810160D01*
X19602327Y-10497327D02*
X19622647Y-10517647D01*
X19622647Y-10497327D02*
X19602327Y-10517647D01*
X19639840Y-11589840D02*
X19660160Y-11610160D01*
X19660160Y-11589840D02*
X19639840Y-11610160D01*
X19659840Y-9189840D02*
X19680160Y-9210160D01*
X19680160Y-9189840D02*
X19659840Y-9210160D01*
X19659840Y-9269840D02*
X19680160Y-9290160D01*
X19680160Y-9269840D02*
X19659840Y-9290160D01*
X19659840Y-9349840D02*
X19680160Y-9370160D01*
X19680160Y-9349840D02*
X19659840Y-9370160D01*
X19659840Y-9429840D02*
X19680160Y-9450160D01*
X19680160Y-9429840D02*
X19659840Y-9450160D01*
X19659840Y-9509840D02*
X19680160Y-9530160D01*
X19680160Y-9509840D02*
X19659840Y-9530160D01*
X19659840Y-10669840D02*
X19680160Y-10690160D01*
X19680160Y-10669840D02*
X19659840Y-10690160D01*
X19659840Y-10749840D02*
X19680160Y-10770160D01*
X19680160Y-10749840D02*
X19659840Y-10770160D01*
X19659840Y-10829840D02*
X19680160Y-10850160D01*
X19680160Y-10829840D02*
X19659840Y-10850160D01*
X19664840Y-8989840D02*
X19685160Y-9010160D01*
X19685160Y-8989840D02*
X19664840Y-9010160D01*
X19664840Y-9764840D02*
X19685160Y-9785160D01*
X19685160Y-9764840D02*
X19664840Y-9785160D01*
X19672327Y-10167327D02*
X19692647Y-10187647D01*
X19692647Y-10167327D02*
X19672327Y-10187647D01*
X19682327Y-10067327D02*
X19702647Y-10087647D01*
X19702647Y-10067327D02*
X19682327Y-10087647D01*
X19687327Y-10312327D02*
X19707647Y-10332647D01*
X19707647Y-10312327D02*
X19687327Y-10332647D01*
X19689840Y-7689840D02*
X19710160Y-7710160D01*
X19710160Y-7689840D02*
X19689840Y-7710160D01*
X19689840Y-8289840D02*
X19710160Y-8310160D01*
X19710160Y-8289840D02*
X19689840Y-8310160D01*
X19689840Y-8489840D02*
X19710160Y-8510160D01*
X19710160Y-8489840D02*
X19689840Y-8510160D01*
X19689840Y-8689840D02*
X19710160Y-8710160D01*
X19710160Y-8689840D02*
X19689840Y-8710160D01*
X19689840Y-10939840D02*
X19710160Y-10960160D01*
X19710160Y-10939840D02*
X19689840Y-10960160D01*
X19689840Y-11889840D02*
X19710160Y-11910160D01*
X19710160Y-11889840D02*
X19689840Y-11910160D01*
X19739840Y-11389840D02*
X19760160Y-11410160D01*
X19760160Y-11389840D02*
X19739840Y-11410160D01*
X19782327Y-10489840D02*
X19802647Y-10510160D01*
X19802647Y-10489840D02*
X19782327Y-10510160D01*
X19789840Y-7589840D02*
X19810160Y-7610160D01*
X19810160Y-7589840D02*
X19789840Y-7610160D01*
X19789840Y-7789840D02*
X19810160Y-7810160D01*
X19810160Y-7789840D02*
X19789840Y-7810160D01*
X19789840Y-8189840D02*
X19810160Y-8210160D01*
X19810160Y-8189840D02*
X19789840Y-8210160D01*
X19789840Y-8389840D02*
X19810160Y-8410160D01*
X19810160Y-8389840D02*
X19789840Y-8410160D01*
X19789840Y-8589840D02*
X19810160Y-8610160D01*
X19810160Y-8589840D02*
X19789840Y-8610160D01*
X19789840Y-8789840D02*
X19810160Y-8810160D01*
X19810160Y-8789840D02*
X19789840Y-8810160D01*
X19789840Y-10639840D02*
X19810160Y-10660160D01*
X19810160Y-10639840D02*
X19789840Y-10660160D01*
X19789840Y-10739840D02*
X19810160Y-10760160D01*
X19810160Y-10739840D02*
X19789840Y-10760160D01*
X19789840Y-10839840D02*
X19810160Y-10860160D01*
X19810160Y-10839840D02*
X19789840Y-10860160D01*
X19789840Y-11639840D02*
X19810160Y-11660160D01*
X19810160Y-11639840D02*
X19789840Y-11660160D01*
X19819840Y-8969840D02*
X19840160Y-8990160D01*
X19840160Y-8969840D02*
X19819840Y-8990160D01*
X19819840Y-9049840D02*
X19840160Y-9070160D01*
X19840160Y-9049840D02*
X19819840Y-9070160D01*
X19819840Y-9129840D02*
X19840160Y-9150160D01*
X19840160Y-9129840D02*
X19819840Y-9150160D01*
X19819840Y-9209840D02*
X19840160Y-9230160D01*
X19840160Y-9209840D02*
X19819840Y-9230160D01*
X19839840Y-11289840D02*
X19860160Y-11310160D01*
X19860160Y-11289840D02*
X19839840Y-11310160D01*
X19839840Y-11489840D02*
X19860160Y-11510160D01*
X19860160Y-11489840D02*
X19839840Y-11510160D01*
X19839840Y-11889840D02*
X19860160Y-11910160D01*
X19860160Y-11889840D02*
X19839840Y-11910160D01*
X19889840Y-7689840D02*
X19910160Y-7710160D01*
X19910160Y-7689840D02*
X19889840Y-7710160D01*
X19889840Y-7889840D02*
X19910160Y-7910160D01*
X19910160Y-7889840D02*
X19889840Y-7910160D01*
X19889840Y-8089840D02*
X19910160Y-8110160D01*
X19910160Y-8089840D02*
X19889840Y-8110160D01*
X19889840Y-8289840D02*
X19910160Y-8310160D01*
X19910160Y-8289840D02*
X19889840Y-8310160D01*
X19889840Y-8489840D02*
X19910160Y-8510160D01*
X19910160Y-8489840D02*
X19889840Y-8510160D01*
X19889840Y-8689840D02*
X19910160Y-8710160D01*
X19910160Y-8689840D02*
X19889840Y-8710160D01*
X19889840Y-10789840D02*
X19910160Y-10810160D01*
X19910160Y-10789840D02*
X19889840Y-10810160D01*
X19889840Y-10989840D02*
X19910160Y-11010160D01*
X19910160Y-10989840D02*
X19889840Y-11010160D01*
X19899840Y-8969840D02*
X19920160Y-8990160D01*
X19920160Y-8969840D02*
X19899840Y-8990160D01*
X19899840Y-9049840D02*
X19920160Y-9070160D01*
X19920160Y-9049840D02*
X19899840Y-9070160D01*
X19899840Y-9129840D02*
X19920160Y-9150160D01*
X19920160Y-9129840D02*
X19899840Y-9150160D01*
X19899840Y-9209840D02*
X19920160Y-9230160D01*
X19920160Y-9209840D02*
X19899840Y-9230160D01*
X19919840Y-8389840D02*
X19940160Y-8410160D01*
X19940160Y-8389840D02*
X19919840Y-8410160D01*
X19939840Y-8189840D02*
X19960160Y-8210160D01*
X19960160Y-8189840D02*
X19939840Y-8210160D01*
X19939840Y-10529840D02*
X19960160Y-10550160D01*
X19960160Y-10529840D02*
X19939840Y-10550160D01*
X19939840Y-10649840D02*
X19960160Y-10670160D01*
X19960160Y-10649840D02*
X19939840Y-10670160D01*
X19939840Y-10889840D02*
X19960160Y-10910160D01*
X19960160Y-10889840D02*
X19939840Y-10910160D01*
X19939840Y-11189840D02*
X19960160Y-11210160D01*
X19960160Y-11189840D02*
X19939840Y-11210160D01*
X19939840Y-11389840D02*
X19960160Y-11410160D01*
X19960160Y-11389840D02*
X19939840Y-11410160D01*
X19939840Y-11589840D02*
X19960160Y-11610160D01*
X19960160Y-11589840D02*
X19939840Y-11610160D01*
X19949840Y-8559840D02*
X19970160Y-8580160D01*
X19970160Y-8559840D02*
X19949840Y-8580160D01*
X19979840Y-10589840D02*
X20000160Y-10610160D01*
X20000160Y-10589840D02*
X19979840Y-10610160D01*
X19989840Y-7589840D02*
X20010160Y-7610160D01*
X20010160Y-7589840D02*
X19989840Y-7610160D01*
X19989840Y-7789840D02*
X20010160Y-7810160D01*
X20010160Y-7789840D02*
X19989840Y-7810160D01*
X19989840Y-7989840D02*
X20010160Y-8010160D01*
X20010160Y-7989840D02*
X19989840Y-8010160D01*
X19989840Y-8789840D02*
X20010160Y-8810160D01*
X20010160Y-8789840D02*
X19989840Y-8810160D01*
X19989840Y-10789840D02*
X20010160Y-10810160D01*
X20010160Y-10789840D02*
X19989840Y-10810160D01*
X19989840Y-10989840D02*
X20010160Y-11010160D01*
X20010160Y-10989840D02*
X19989840Y-11010160D01*
X19989840Y-11889840D02*
X20010160Y-11910160D01*
X20010160Y-11889840D02*
X19989840Y-11910160D01*
X20019840Y-10529840D02*
X20040160Y-10550160D01*
X20040160Y-10529840D02*
X20019840Y-10550160D01*
X20019840Y-10649840D02*
X20040160Y-10670160D01*
X20040160Y-10649840D02*
X20019840Y-10670160D01*
X20039840Y-10889840D02*
X20060160Y-10910160D01*
X20060160Y-10889840D02*
X20039840Y-10910160D01*
X20039840Y-11189840D02*
X20060160Y-11210160D01*
X20060160Y-11189840D02*
X20039840Y-11210160D01*
X20039840Y-11289840D02*
X20060160Y-11310160D01*
X20060160Y-11289840D02*
X20039840Y-11310160D01*
X20039840Y-11489840D02*
X20060160Y-11510160D01*
X20060160Y-11489840D02*
X20039840Y-11510160D01*
X20059840Y-10589840D02*
X20080160Y-10610160D01*
X20080160Y-10589840D02*
X20059840Y-10610160D01*
X20072327Y-10317327D02*
X20092647Y-10337647D01*
X20092647Y-10317327D02*
X20072327Y-10337647D01*
X20079840Y-10029840D02*
X20100160Y-10050160D01*
X20100160Y-10029840D02*
X20079840Y-10050160D01*
X20079840Y-10189840D02*
X20100160Y-10210160D01*
X20100160Y-10189840D02*
X20079840Y-10210160D01*
X20082327Y-8877327D02*
X20102647Y-8897647D01*
X20102647Y-8877327D02*
X20082327Y-8897647D01*
X20089840Y-7689840D02*
X20110160Y-7710160D01*
X20110160Y-7689840D02*
X20089840Y-7710160D01*
X20089840Y-8689840D02*
X20110160Y-8710160D01*
X20110160Y-8689840D02*
X20089840Y-8710160D01*
X20089840Y-10789840D02*
X20110160Y-10810160D01*
X20110160Y-10789840D02*
X20089840Y-10810160D01*
X20089840Y-10989840D02*
X20110160Y-11010160D01*
X20110160Y-10989840D02*
X20089840Y-11010160D01*
X20099840Y-10529840D02*
X20120160Y-10550160D01*
X20120160Y-10529840D02*
X20099840Y-10550160D01*
X20099840Y-10649840D02*
X20120160Y-10670160D01*
X20120160Y-10649840D02*
X20099840Y-10670160D01*
X20108166Y-9393755D02*
X20128486Y-9414075D01*
X20128486Y-9393755D02*
X20108166Y-9414075D01*
X20108166Y-9493755D02*
X20128486Y-9514075D01*
X20128486Y-9493755D02*
X20108166Y-9514075D01*
X20109840Y-9599840D02*
X20130160Y-9620160D01*
X20130160Y-9599840D02*
X20109840Y-9620160D01*
X20120631Y-11374004D02*
X20140951Y-11394324D01*
X20140951Y-11374004D02*
X20120631Y-11394324D01*
X20139840Y-7589840D02*
X20160160Y-7610160D01*
X20160160Y-7589840D02*
X20139840Y-7610160D01*
X20139840Y-10109840D02*
X20160160Y-10130160D01*
X20160160Y-10109840D02*
X20139840Y-10130160D01*
X20139840Y-10249840D02*
X20160160Y-10270160D01*
X20160160Y-10249840D02*
X20139840Y-10270160D01*
X20139840Y-10889840D02*
X20160160Y-10910160D01*
X20160160Y-10889840D02*
X20139840Y-10910160D01*
X20139840Y-11189840D02*
X20160160Y-11210160D01*
X20160160Y-11189840D02*
X20139840Y-11210160D01*
X20139840Y-11889840D02*
X20160160Y-11910160D01*
X20160160Y-11889840D02*
X20139840Y-11910160D01*
X20149840Y-8489840D02*
X20170160Y-8510160D01*
X20170160Y-8489840D02*
X20149840Y-8510160D01*
X20159840Y-8289840D02*
X20180160Y-8310160D01*
X20180160Y-8289840D02*
X20159840Y-8310160D01*
X20169840Y-10329840D02*
X20190160Y-10350160D01*
X20190160Y-10329840D02*
X20169840Y-10350160D01*
X20172327Y-8877327D02*
X20192647Y-8897647D01*
X20192647Y-8877327D02*
X20172327Y-8897647D01*
X20189840Y-8189840D02*
X20210160Y-8210160D01*
X20210160Y-8189840D02*
X20189840Y-8210160D01*
X20189840Y-8389840D02*
X20210160Y-8410160D01*
X20210160Y-8389840D02*
X20189840Y-8410160D01*
X20189840Y-8589840D02*
X20210160Y-8610160D01*
X20210160Y-8589840D02*
X20189840Y-8610160D01*
X20189840Y-8789840D02*
X20210160Y-8810160D01*
X20210160Y-8789840D02*
X20189840Y-8810160D01*
X20189840Y-10989840D02*
X20210160Y-11010160D01*
X20210160Y-10989840D02*
X20189840Y-11010160D01*
X20199840Y-10029840D02*
X20220160Y-10050160D01*
X20220160Y-10029840D02*
X20199840Y-10050160D01*
X20199840Y-10189840D02*
X20220160Y-10210160D01*
X20220160Y-10189840D02*
X20199840Y-10210160D01*
X20199840Y-10429840D02*
X20220160Y-10450160D01*
X20220160Y-10429840D02*
X20199840Y-10450160D01*
X20208166Y-9393755D02*
X20228486Y-9414075D01*
X20228486Y-9393755D02*
X20208166Y-9414075D01*
X20208166Y-9493755D02*
X20228486Y-9514075D01*
X20228486Y-9493755D02*
X20208166Y-9514075D01*
X20209840Y-9599840D02*
X20230160Y-9620160D01*
X20230160Y-9599840D02*
X20209840Y-9620160D01*
X20223743Y-11270892D02*
X20244063Y-11291212D01*
X20244063Y-11270892D02*
X20223743Y-11291212D01*
X20239840Y-10889840D02*
X20260160Y-10910160D01*
X20260160Y-10889840D02*
X20239840Y-10910160D01*
X20259840Y-10109840D02*
X20280160Y-10130160D01*
X20280160Y-10109840D02*
X20259840Y-10130160D01*
X20259840Y-10269840D02*
X20280160Y-10290160D01*
X20280160Y-10269840D02*
X20259840Y-10290160D01*
X20279840Y-10509840D02*
X20300160Y-10530160D01*
X20300160Y-10509840D02*
X20279840Y-10530160D01*
X20289840Y-8289840D02*
X20310160Y-8310160D01*
X20310160Y-8289840D02*
X20289840Y-8310160D01*
X20289840Y-10714840D02*
X20310160Y-10735160D01*
X20310160Y-10714840D02*
X20289840Y-10735160D01*
X20289840Y-11039840D02*
X20310160Y-11060160D01*
X20310160Y-11039840D02*
X20289840Y-11060160D01*
X20299840Y-10369840D02*
X20320160Y-10390160D01*
X20320160Y-10369840D02*
X20299840Y-10390160D01*
X20308166Y-9393755D02*
X20328486Y-9414075D01*
X20328486Y-9393755D02*
X20308166Y-9414075D01*
X20308166Y-9493755D02*
X20328486Y-9514075D01*
X20328486Y-9493755D02*
X20308166Y-9514075D01*
X20309840Y-9599840D02*
X20330160Y-9620160D01*
X20330160Y-9599840D02*
X20309840Y-9620160D01*
X20319840Y-8969840D02*
X20340160Y-8990160D01*
X20340160Y-8969840D02*
X20319840Y-8990160D01*
X20319840Y-9049840D02*
X20340160Y-9070160D01*
X20340160Y-9049840D02*
X20319840Y-9070160D01*
X20319840Y-9129840D02*
X20340160Y-9150160D01*
X20340160Y-9129840D02*
X20319840Y-9150160D01*
X20319840Y-9209840D02*
X20340160Y-9230160D01*
X20340160Y-9209840D02*
X20319840Y-9230160D01*
X20319840Y-10029840D02*
X20340160Y-10050160D01*
X20340160Y-10029840D02*
X20319840Y-10050160D01*
X20319840Y-10189840D02*
X20340160Y-10210160D01*
X20340160Y-10189840D02*
X20319840Y-10210160D01*
X20339840Y-11189840D02*
X20360160Y-11210160D01*
X20360160Y-11189840D02*
X20339840Y-11210160D01*
X20379840Y-10449840D02*
X20400160Y-10470160D01*
X20400160Y-10449840D02*
X20379840Y-10470160D01*
X20379840Y-10569840D02*
X20400160Y-10590160D01*
X20400160Y-10569840D02*
X20379840Y-10590160D01*
X20389840Y-8789840D02*
X20410160Y-8810160D01*
X20410160Y-8789840D02*
X20389840Y-8810160D01*
X20389840Y-10789840D02*
X20410160Y-10810160D01*
X20410160Y-10789840D02*
X20389840Y-10810160D01*
X20419840Y-8969840D02*
X20440160Y-8990160D01*
X20440160Y-8969840D02*
X20419840Y-8990160D01*
X20419840Y-9049840D02*
X20440160Y-9070160D01*
X20440160Y-9049840D02*
X20419840Y-9070160D01*
X20419840Y-9129840D02*
X20440160Y-9150160D01*
X20440160Y-9129840D02*
X20419840Y-9150160D01*
X20419840Y-9209840D02*
X20440160Y-9230160D01*
X20440160Y-9209840D02*
X20419840Y-9230160D01*
X20419840Y-10509840D02*
X20440160Y-10530160D01*
X20440160Y-10509840D02*
X20419840Y-10530160D01*
X20439840Y-10889840D02*
X20460160Y-10910160D01*
X20460160Y-10889840D02*
X20439840Y-10910160D01*
X20439840Y-11089840D02*
X20460160Y-11110160D01*
X20460160Y-11089840D02*
X20439840Y-11110160D01*
X20459840Y-10449840D02*
X20480160Y-10470160D01*
X20480160Y-10449840D02*
X20459840Y-10470160D01*
X20459840Y-10569840D02*
X20480160Y-10590160D01*
X20480160Y-10569840D02*
X20459840Y-10590160D01*
X20499840Y-10509840D02*
X20520160Y-10530160D01*
X20520160Y-10509840D02*
X20499840Y-10530160D01*
X20539840Y-10449840D02*
X20560160Y-10470160D01*
X20560160Y-10449840D02*
X20539840Y-10470160D01*
X20539840Y-10569840D02*
X20560160Y-10590160D01*
X20560160Y-10569840D02*
X20539840Y-10590160D01*
X20539840Y-10839840D02*
X20560160Y-10860160D01*
X20560160Y-10839840D02*
X20539840Y-10860160D01*
X20539840Y-10989840D02*
X20560160Y-11010160D01*
X20560160Y-10989840D02*
X20539840Y-11010160D01*
X20539840Y-11189840D02*
X20560160Y-11210160D01*
X20560160Y-11189840D02*
X20539840Y-11210160D01*
X20612327Y-8602327D02*
X20632647Y-8622647D01*
X20632647Y-8602327D02*
X20612327Y-8622647D01*
X20639840Y-8389840D02*
X20660160Y-8410160D01*
X20660160Y-8389840D02*
X20639840Y-8410160D01*
X20639840Y-10789840D02*
X20660160Y-10810160D01*
X20660160Y-10789840D02*
X20639840Y-10810160D01*
X20639840Y-10889840D02*
X20660160Y-10910160D01*
X20660160Y-10889840D02*
X20639840Y-10910160D01*
X20639840Y-11089840D02*
X20660160Y-11110160D01*
X20660160Y-11089840D02*
X20639840Y-11110160D01*
X20642327Y-10677327D02*
X20662647Y-10697647D01*
X20662647Y-10677327D02*
X20642327Y-10697647D01*
X20739840Y-8239840D02*
X20760160Y-8260160D01*
X20760160Y-8239840D02*
X20739840Y-8260160D01*
X20739840Y-8599840D02*
X20760160Y-8620160D01*
X20760160Y-8599840D02*
X20739840Y-8620160D01*
X20739840Y-8729840D02*
X20760160Y-8750160D01*
X20760160Y-8729840D02*
X20739840Y-8750160D01*
X20739840Y-8859840D02*
X20760160Y-8880160D01*
X20760160Y-8859840D02*
X20739840Y-8880160D01*
X20739840Y-8989840D02*
X20760160Y-9010160D01*
X20760160Y-8989840D02*
X20739840Y-9010160D01*
X20739840Y-9139840D02*
X20760160Y-9160160D01*
X20760160Y-9139840D02*
X20739840Y-9160160D01*
X20739840Y-9289840D02*
X20760160Y-9310160D01*
X20760160Y-9289840D02*
X20739840Y-9310160D01*
X20739840Y-9439840D02*
X20760160Y-9460160D01*
X20760160Y-9439840D02*
X20739840Y-9460160D01*
X20739840Y-9589840D02*
X20760160Y-9610160D01*
X20760160Y-9589840D02*
X20739840Y-9610160D01*
X20739840Y-9739840D02*
X20760160Y-9760160D01*
X20760160Y-9739840D02*
X20739840Y-9760160D01*
X20739840Y-9889840D02*
X20760160Y-9910160D01*
X20760160Y-9889840D02*
X20739840Y-9910160D01*
X20739840Y-10039840D02*
X20760160Y-10060160D01*
X20760160Y-10039840D02*
X20739840Y-10060160D01*
X20739840Y-10189840D02*
X20760160Y-10210160D01*
X20760160Y-10189840D02*
X20739840Y-10210160D01*
X20739840Y-10339840D02*
X20760160Y-10360160D01*
X20760160Y-10339840D02*
X20739840Y-10360160D01*
X20739840Y-10489840D02*
X20760160Y-10510160D01*
X20760160Y-10489840D02*
X20739840Y-10510160D01*
X20739840Y-10639840D02*
X20760160Y-10660160D01*
X20760160Y-10639840D02*
X20739840Y-10660160D01*
X20739840Y-10789840D02*
X20760160Y-10810160D01*
X20760160Y-10789840D02*
X20739840Y-10810160D01*
X20739840Y-10939840D02*
X20760160Y-10960160D01*
X20760160Y-10939840D02*
X20739840Y-10960160D01*
X20739840Y-11089840D02*
X20760160Y-11110160D01*
X20760160Y-11089840D02*
X20739840Y-11110160D01*
X20739840Y-11239840D02*
X20760160Y-11260160D01*
X20760160Y-11239840D02*
X20739840Y-11260160D01*
D13*
X14850000Y-11047500D02*
G75*
G03*
X14850000Y-11047500I-12500J0D01*
G01*
X14850000Y-11147500D02*
G75*
G03*
X14850000Y-11147500I-12500J0D01*
G01*
D14*
X9692487Y-11219707D02*
X9692487Y-11255267D01*
X9674707Y-11237487D02*
X9710267Y-11237487D01*
X9700616Y-10726641D02*
X9700616Y-10762201D01*
X9682836Y-10744421D02*
X9718396Y-10744421D01*
X15392500Y-11364720D02*
X15392500Y-11400280D01*
X15374720Y-11382500D02*
X15410280Y-11382500D01*
X16742487Y-9489707D02*
X16742487Y-9525267D01*
X16724707Y-9507487D02*
X16760267Y-9507487D01*
X16742487Y-9729707D02*
X16742487Y-9765267D01*
X16724707Y-9747487D02*
X16760267Y-9747487D01*
D15*
X9027678Y-7917678D02*
X9027678Y-7882322D01*
X8992322Y-7882322D01*
X8992322Y-7917678D01*
X9027678Y-7917678D01*
X9097972Y-7747972D02*
X9097972Y-7712617D01*
X9062617Y-7712617D01*
X9062617Y-7747972D01*
X9097972Y-7747972D01*
X9097972Y-8087383D02*
X9097972Y-8052028D01*
X9062617Y-8052028D01*
X9062617Y-8087383D01*
X9097972Y-8087383D01*
X9267678Y-7677678D02*
X9267678Y-7642322D01*
X9232322Y-7642322D01*
X9232322Y-7677678D01*
X9267678Y-7677678D01*
X9267678Y-8157678D02*
X9267678Y-8122322D01*
X9232322Y-8122322D01*
X9232322Y-8157678D01*
X9267678Y-8157678D01*
X9437383Y-7747972D02*
X9437383Y-7712617D01*
X9402028Y-7712617D01*
X9402028Y-7747972D01*
X9437383Y-7747972D01*
X9437383Y-8087383D02*
X9437383Y-8052028D01*
X9402028Y-8052028D01*
X9402028Y-8087383D01*
X9437383Y-8087383D01*
X9507678Y-7917678D02*
X9507678Y-7882322D01*
X9472322Y-7882322D01*
X9472322Y-7917678D01*
X9507678Y-7917678D01*
X9927678Y-11617678D02*
X9927678Y-11582322D01*
X9892322Y-11582322D01*
X9892322Y-11617678D01*
X9927678Y-11617678D01*
X9997972Y-11447972D02*
X9997972Y-11412617D01*
X9962617Y-11412617D01*
X9962617Y-11447972D01*
X9997972Y-11447972D01*
X9997972Y-11787383D02*
X9997972Y-11752028D01*
X9962617Y-11752028D01*
X9962617Y-11787383D01*
X9997972Y-11787383D01*
X10167678Y-11377678D02*
X10167678Y-11342322D01*
X10132322Y-11342322D01*
X10132322Y-11377678D01*
X10167678Y-11377678D01*
X10167678Y-11857678D02*
X10167678Y-11822322D01*
X10132322Y-11822322D01*
X10132322Y-11857678D01*
X10167678Y-11857678D01*
X10337383Y-11447972D02*
X10337383Y-11412617D01*
X10302028Y-11412617D01*
X10302028Y-11447972D01*
X10337383Y-11447972D01*
X10337383Y-11787383D02*
X10337383Y-11752028D01*
X10302028Y-11752028D01*
X10302028Y-11787383D01*
X10337383Y-11787383D01*
X10407678Y-11617678D02*
X10407678Y-11582322D01*
X10372322Y-11582322D01*
X10372322Y-11617678D01*
X10407678Y-11617678D01*
X20227678Y-7917678D02*
X20227678Y-7882322D01*
X20192322Y-7882322D01*
X20192322Y-7917678D01*
X20227678Y-7917678D01*
X20227678Y-11617678D02*
X20227678Y-11582322D01*
X20192322Y-11582322D01*
X20192322Y-11617678D01*
X20227678Y-11617678D01*
X20297972Y-7747972D02*
X20297972Y-7712617D01*
X20262617Y-7712617D01*
X20262617Y-7747972D01*
X20297972Y-7747972D01*
X20297972Y-8087383D02*
X20297972Y-8052028D01*
X20262617Y-8052028D01*
X20262617Y-8087383D01*
X20297972Y-8087383D01*
X20297972Y-11447972D02*
X20297972Y-11412617D01*
X20262617Y-11412617D01*
X20262617Y-11447972D01*
X20297972Y-11447972D01*
X20297972Y-11787383D02*
X20297972Y-11752028D01*
X20262617Y-11752028D01*
X20262617Y-11787383D01*
X20297972Y-11787383D01*
X20467678Y-7677678D02*
X20467678Y-7642322D01*
X20432322Y-7642322D01*
X20432322Y-7677678D01*
X20467678Y-7677678D01*
X20467678Y-8157678D02*
X20467678Y-8122322D01*
X20432322Y-8122322D01*
X20432322Y-8157678D01*
X20467678Y-8157678D01*
X20467678Y-11377678D02*
X20467678Y-11342322D01*
X20432322Y-11342322D01*
X20432322Y-11377678D01*
X20467678Y-11377678D01*
X20467678Y-11857678D02*
X20467678Y-11822322D01*
X20432322Y-11822322D01*
X20432322Y-11857678D01*
X20467678Y-11857678D01*
X20637383Y-7747972D02*
X20637383Y-7712617D01*
X20602028Y-7712617D01*
X20602028Y-7747972D01*
X20637383Y-7747972D01*
X20637383Y-8087383D02*
X20637383Y-8052028D01*
X20602028Y-8052028D01*
X20602028Y-8087383D01*
X20637383Y-8087383D01*
X20637383Y-11447972D02*
X20637383Y-11412617D01*
X20602028Y-11412617D01*
X20602028Y-11447972D01*
X20637383Y-11447972D01*
X20637383Y-11787383D02*
X20637383Y-11752028D01*
X20602028Y-11752028D01*
X20602028Y-11787383D01*
X20637383Y-11787383D01*
X20707678Y-7917678D02*
X20707678Y-7882322D01*
X20672322Y-7882322D01*
X20672322Y-7917678D01*
X20707678Y-7917678D01*
X20707678Y-11617678D02*
X20707678Y-11582322D01*
X20672322Y-11582322D01*
X20672322Y-11617678D01*
X20707678Y-11617678D01*
D16*
X9250000Y-8060000D02*
X9410000Y-7900000D01*
X9250000Y-7740000D01*
X9090000Y-7900000D01*
X9250000Y-8060000D01*
X10150000Y-11760000D02*
X10310000Y-11600000D01*
X10150000Y-11440000D01*
X9990000Y-11600000D01*
X10150000Y-11760000D01*
X20450000Y-8060000D02*
X20610000Y-7900000D01*
X20450000Y-7740000D01*
X20290000Y-7900000D01*
X20450000Y-8060000D01*
X20450000Y-11760000D02*
X20610000Y-11600000D01*
X20450000Y-11440000D01*
X20290000Y-11600000D01*
X20450000Y-11760000D01*
D11*
X9105777Y-12316484D02*
X9105777Y-12116484D01*
X9105777Y-12116484D02*
X9153396Y-12116484D01*
X9153396Y-12116484D02*
X9181967Y-12126008D01*
X9181967Y-12126008D02*
X9201015Y-12145055D01*
X9201015Y-12145055D02*
X9210539Y-12164103D01*
X9210539Y-12164103D02*
X9220063Y-12202198D01*
X9220063Y-12202198D02*
X9220063Y-12230769D01*
X9220063Y-12230769D02*
X9210539Y-12268865D01*
X9210539Y-12268865D02*
X9201015Y-12287912D01*
X9201015Y-12287912D02*
X9181967Y-12306960D01*
X9181967Y-12306960D02*
X9153396Y-12316484D01*
X9153396Y-12316484D02*
X9105777Y-12316484D01*
X9305777Y-12316484D02*
X9305777Y-12183150D01*
X9305777Y-12221246D02*
X9315301Y-12202198D01*
X9315301Y-12202198D02*
X9324824Y-12192674D01*
X9324824Y-12192674D02*
X9343872Y-12183150D01*
X9343872Y-12183150D02*
X9362920Y-12183150D01*
X9429586Y-12316484D02*
X9429586Y-12183150D01*
X9429586Y-12116484D02*
X9420063Y-12126008D01*
X9420063Y-12126008D02*
X9429586Y-12135531D01*
X9429586Y-12135531D02*
X9439110Y-12126008D01*
X9439110Y-12126008D02*
X9429586Y-12116484D01*
X9429586Y-12116484D02*
X9429586Y-12135531D01*
X9553396Y-12316484D02*
X9534348Y-12306960D01*
X9534348Y-12306960D02*
X9524824Y-12287912D01*
X9524824Y-12287912D02*
X9524824Y-12116484D01*
X9658158Y-12316484D02*
X9639110Y-12306960D01*
X9639110Y-12306960D02*
X9629586Y-12287912D01*
X9629586Y-12287912D02*
X9629586Y-12116484D01*
X9886729Y-12316484D02*
X9886729Y-12116484D01*
X9886729Y-12116484D02*
X9953396Y-12259341D01*
X9953396Y-12259341D02*
X10020063Y-12116484D01*
X10020063Y-12116484D02*
X10020063Y-12316484D01*
X10201015Y-12316484D02*
X10201015Y-12211722D01*
X10201015Y-12211722D02*
X10191491Y-12192674D01*
X10191491Y-12192674D02*
X10172444Y-12183150D01*
X10172444Y-12183150D02*
X10134348Y-12183150D01*
X10134348Y-12183150D02*
X10115301Y-12192674D01*
X10201015Y-12306960D02*
X10181967Y-12316484D01*
X10181967Y-12316484D02*
X10134348Y-12316484D01*
X10134348Y-12316484D02*
X10115301Y-12306960D01*
X10115301Y-12306960D02*
X10105777Y-12287912D01*
X10105777Y-12287912D02*
X10105777Y-12268865D01*
X10105777Y-12268865D02*
X10115301Y-12249817D01*
X10115301Y-12249817D02*
X10134348Y-12240293D01*
X10134348Y-12240293D02*
X10181967Y-12240293D01*
X10181967Y-12240293D02*
X10201015Y-12230769D01*
X10296253Y-12183150D02*
X10296253Y-12383150D01*
X10296253Y-12192674D02*
X10315301Y-12183150D01*
X10315301Y-12183150D02*
X10353396Y-12183150D01*
X10353396Y-12183150D02*
X10372444Y-12192674D01*
X10372444Y-12192674D02*
X10381967Y-12202198D01*
X10381967Y-12202198D02*
X10391491Y-12221246D01*
X10391491Y-12221246D02*
X10391491Y-12278388D01*
X10391491Y-12278388D02*
X10381967Y-12297436D01*
X10381967Y-12297436D02*
X10372444Y-12306960D01*
X10372444Y-12306960D02*
X10353396Y-12316484D01*
X10353396Y-12316484D02*
X10315301Y-12316484D01*
X10315301Y-12316484D02*
X10296253Y-12306960D01*
X10477205Y-12297436D02*
X10486729Y-12306960D01*
X10486729Y-12306960D02*
X10477205Y-12316484D01*
X10477205Y-12316484D02*
X10467682Y-12306960D01*
X10467682Y-12306960D02*
X10477205Y-12297436D01*
X10477205Y-12297436D02*
X10477205Y-12316484D01*
X10477205Y-12192674D02*
X10486729Y-12202198D01*
X10486729Y-12202198D02*
X10477205Y-12211722D01*
X10477205Y-12211722D02*
X10467682Y-12202198D01*
X10467682Y-12202198D02*
X10477205Y-12192674D01*
X10477205Y-12192674D02*
X10477205Y-12211722D01*
D12*
X8824680Y-12634840D02*
X8845000Y-12655160D01*
X8845000Y-12634840D02*
X8824680Y-12655160D01*
D11*
X9143872Y-12536484D02*
X9162920Y-12536484D01*
X9162920Y-12536484D02*
X9181967Y-12546008D01*
X9181967Y-12546008D02*
X9191491Y-12555531D01*
X9191491Y-12555531D02*
X9201015Y-12574579D01*
X9201015Y-12574579D02*
X9210539Y-12612674D01*
X9210539Y-12612674D02*
X9210539Y-12660293D01*
X9210539Y-12660293D02*
X9201015Y-12698388D01*
X9201015Y-12698388D02*
X9191491Y-12717436D01*
X9191491Y-12717436D02*
X9181967Y-12726960D01*
X9181967Y-12726960D02*
X9162920Y-12736484D01*
X9162920Y-12736484D02*
X9143872Y-12736484D01*
X9143872Y-12736484D02*
X9124824Y-12726960D01*
X9124824Y-12726960D02*
X9115301Y-12717436D01*
X9115301Y-12717436D02*
X9105777Y-12698388D01*
X9105777Y-12698388D02*
X9096253Y-12660293D01*
X9096253Y-12660293D02*
X9096253Y-12612674D01*
X9096253Y-12612674D02*
X9105777Y-12574579D01*
X9105777Y-12574579D02*
X9115301Y-12555531D01*
X9115301Y-12555531D02*
X9124824Y-12546008D01*
X9124824Y-12546008D02*
X9143872Y-12536484D01*
X9296253Y-12717436D02*
X9305777Y-12726960D01*
X9305777Y-12726960D02*
X9296253Y-12736484D01*
X9296253Y-12736484D02*
X9286729Y-12726960D01*
X9286729Y-12726960D02*
X9296253Y-12717436D01*
X9296253Y-12717436D02*
X9296253Y-12736484D01*
X9381967Y-12555531D02*
X9391491Y-12546008D01*
X9391491Y-12546008D02*
X9410539Y-12536484D01*
X9410539Y-12536484D02*
X9458158Y-12536484D01*
X9458158Y-12536484D02*
X9477205Y-12546008D01*
X9477205Y-12546008D02*
X9486729Y-12555531D01*
X9486729Y-12555531D02*
X9496253Y-12574579D01*
X9496253Y-12574579D02*
X9496253Y-12593627D01*
X9496253Y-12593627D02*
X9486729Y-12622198D01*
X9486729Y-12622198D02*
X9372444Y-12736484D01*
X9372444Y-12736484D02*
X9496253Y-12736484D01*
X9620063Y-12536484D02*
X9639110Y-12536484D01*
X9639110Y-12536484D02*
X9658158Y-12546008D01*
X9658158Y-12546008D02*
X9667682Y-12555531D01*
X9667682Y-12555531D02*
X9677205Y-12574579D01*
X9677205Y-12574579D02*
X9686729Y-12612674D01*
X9686729Y-12612674D02*
X9686729Y-12660293D01*
X9686729Y-12660293D02*
X9677205Y-12698388D01*
X9677205Y-12698388D02*
X9667682Y-12717436D01*
X9667682Y-12717436D02*
X9658158Y-12726960D01*
X9658158Y-12726960D02*
X9639110Y-12736484D01*
X9639110Y-12736484D02*
X9620063Y-12736484D01*
X9620063Y-12736484D02*
X9601015Y-12726960D01*
X9601015Y-12726960D02*
X9591491Y-12717436D01*
X9591491Y-12717436D02*
X9581967Y-12698388D01*
X9581967Y-12698388D02*
X9572444Y-12660293D01*
X9572444Y-12660293D02*
X9572444Y-12612674D01*
X9572444Y-12612674D02*
X9581967Y-12574579D01*
X9581967Y-12574579D02*
X9591491Y-12555531D01*
X9591491Y-12555531D02*
X9601015Y-12546008D01*
X9601015Y-12546008D02*
X9620063Y-12536484D01*
X9753396Y-12536484D02*
X9877205Y-12536484D01*
X9877205Y-12536484D02*
X9810539Y-12612674D01*
X9810539Y-12612674D02*
X9839110Y-12612674D01*
X9839110Y-12612674D02*
X9858158Y-12622198D01*
X9858158Y-12622198D02*
X9867682Y-12631722D01*
X9867682Y-12631722D02*
X9877205Y-12650769D01*
X9877205Y-12650769D02*
X9877205Y-12698388D01*
X9877205Y-12698388D02*
X9867682Y-12717436D01*
X9867682Y-12717436D02*
X9858158Y-12726960D01*
X9858158Y-12726960D02*
X9839110Y-12736484D01*
X9839110Y-12736484D02*
X9781967Y-12736484D01*
X9781967Y-12736484D02*
X9762920Y-12726960D01*
X9762920Y-12726960D02*
X9753396Y-12717436D01*
X9962920Y-12736484D02*
X9962920Y-12603150D01*
X9962920Y-12622198D02*
X9972444Y-12612674D01*
X9972444Y-12612674D02*
X9991491Y-12603150D01*
X9991491Y-12603150D02*
X10020063Y-12603150D01*
X10020063Y-12603150D02*
X10039110Y-12612674D01*
X10039110Y-12612674D02*
X10048634Y-12631722D01*
X10048634Y-12631722D02*
X10048634Y-12736484D01*
X10048634Y-12631722D02*
X10058158Y-12612674D01*
X10058158Y-12612674D02*
X10077205Y-12603150D01*
X10077205Y-12603150D02*
X10105777Y-12603150D01*
X10105777Y-12603150D02*
X10124825Y-12612674D01*
X10124825Y-12612674D02*
X10134348Y-12631722D01*
X10134348Y-12631722D02*
X10134348Y-12736484D01*
X10229586Y-12736484D02*
X10229586Y-12603150D01*
X10229586Y-12622198D02*
X10239110Y-12612674D01*
X10239110Y-12612674D02*
X10258158Y-12603150D01*
X10258158Y-12603150D02*
X10286729Y-12603150D01*
X10286729Y-12603150D02*
X10305777Y-12612674D01*
X10305777Y-12612674D02*
X10315301Y-12631722D01*
X10315301Y-12631722D02*
X10315301Y-12736484D01*
X10315301Y-12631722D02*
X10324825Y-12612674D01*
X10324825Y-12612674D02*
X10343872Y-12603150D01*
X10343872Y-12603150D02*
X10372444Y-12603150D01*
X10372444Y-12603150D02*
X10391491Y-12612674D01*
X10391491Y-12612674D02*
X10401015Y-12631722D01*
X10401015Y-12631722D02*
X10401015Y-12736484D01*
X10791491Y-12526960D02*
X10620063Y-12784103D01*
X11048634Y-12536484D02*
X11067682Y-12536484D01*
X11067682Y-12536484D02*
X11086729Y-12546008D01*
X11086729Y-12546008D02*
X11096253Y-12555531D01*
X11096253Y-12555531D02*
X11105777Y-12574579D01*
X11105777Y-12574579D02*
X11115301Y-12612674D01*
X11115301Y-12612674D02*
X11115301Y-12660293D01*
X11115301Y-12660293D02*
X11105777Y-12698388D01*
X11105777Y-12698388D02*
X11096253Y-12717436D01*
X11096253Y-12717436D02*
X11086729Y-12726960D01*
X11086729Y-12726960D02*
X11067682Y-12736484D01*
X11067682Y-12736484D02*
X11048634Y-12736484D01*
X11048634Y-12736484D02*
X11029587Y-12726960D01*
X11029587Y-12726960D02*
X11020063Y-12717436D01*
X11020063Y-12717436D02*
X11010539Y-12698388D01*
X11010539Y-12698388D02*
X11001015Y-12660293D01*
X11001015Y-12660293D02*
X11001015Y-12612674D01*
X11001015Y-12612674D02*
X11010539Y-12574579D01*
X11010539Y-12574579D02*
X11020063Y-12555531D01*
X11020063Y-12555531D02*
X11029587Y-12546008D01*
X11029587Y-12546008D02*
X11048634Y-12536484D01*
X11201015Y-12717436D02*
X11210539Y-12726960D01*
X11210539Y-12726960D02*
X11201015Y-12736484D01*
X11201015Y-12736484D02*
X11191491Y-12726960D01*
X11191491Y-12726960D02*
X11201015Y-12717436D01*
X11201015Y-12717436D02*
X11201015Y-12736484D01*
X11334348Y-12536484D02*
X11353396Y-12536484D01*
X11353396Y-12536484D02*
X11372444Y-12546008D01*
X11372444Y-12546008D02*
X11381967Y-12555531D01*
X11381967Y-12555531D02*
X11391491Y-12574579D01*
X11391491Y-12574579D02*
X11401015Y-12612674D01*
X11401015Y-12612674D02*
X11401015Y-12660293D01*
X11401015Y-12660293D02*
X11391491Y-12698388D01*
X11391491Y-12698388D02*
X11381967Y-12717436D01*
X11381967Y-12717436D02*
X11372444Y-12726960D01*
X11372444Y-12726960D02*
X11353396Y-12736484D01*
X11353396Y-12736484D02*
X11334348Y-12736484D01*
X11334348Y-12736484D02*
X11315301Y-12726960D01*
X11315301Y-12726960D02*
X11305777Y-12717436D01*
X11305777Y-12717436D02*
X11296253Y-12698388D01*
X11296253Y-12698388D02*
X11286729Y-12660293D01*
X11286729Y-12660293D02*
X11286729Y-12612674D01*
X11286729Y-12612674D02*
X11296253Y-12574579D01*
X11296253Y-12574579D02*
X11305777Y-12555531D01*
X11305777Y-12555531D02*
X11315301Y-12546008D01*
X11315301Y-12546008D02*
X11334348Y-12536484D01*
X11524825Y-12536484D02*
X11543872Y-12536484D01*
X11543872Y-12536484D02*
X11562920Y-12546008D01*
X11562920Y-12546008D02*
X11572444Y-12555531D01*
X11572444Y-12555531D02*
X11581967Y-12574579D01*
X11581967Y-12574579D02*
X11591491Y-12612674D01*
X11591491Y-12612674D02*
X11591491Y-12660293D01*
X11591491Y-12660293D02*
X11581967Y-12698388D01*
X11581967Y-12698388D02*
X11572444Y-12717436D01*
X11572444Y-12717436D02*
X11562920Y-12726960D01*
X11562920Y-12726960D02*
X11543872Y-12736484D01*
X11543872Y-12736484D02*
X11524825Y-12736484D01*
X11524825Y-12736484D02*
X11505777Y-12726960D01*
X11505777Y-12726960D02*
X11496253Y-12717436D01*
X11496253Y-12717436D02*
X11486729Y-12698388D01*
X11486729Y-12698388D02*
X11477206Y-12660293D01*
X11477206Y-12660293D02*
X11477206Y-12612674D01*
X11477206Y-12612674D02*
X11486729Y-12574579D01*
X11486729Y-12574579D02*
X11496253Y-12555531D01*
X11496253Y-12555531D02*
X11505777Y-12546008D01*
X11505777Y-12546008D02*
X11524825Y-12536484D01*
X11705777Y-12622198D02*
X11686729Y-12612674D01*
X11686729Y-12612674D02*
X11677206Y-12603150D01*
X11677206Y-12603150D02*
X11667682Y-12584103D01*
X11667682Y-12584103D02*
X11667682Y-12574579D01*
X11667682Y-12574579D02*
X11677206Y-12555531D01*
X11677206Y-12555531D02*
X11686729Y-12546008D01*
X11686729Y-12546008D02*
X11705777Y-12536484D01*
X11705777Y-12536484D02*
X11743872Y-12536484D01*
X11743872Y-12536484D02*
X11762920Y-12546008D01*
X11762920Y-12546008D02*
X11772444Y-12555531D01*
X11772444Y-12555531D02*
X11781967Y-12574579D01*
X11781967Y-12574579D02*
X11781967Y-12584103D01*
X11781967Y-12584103D02*
X11772444Y-12603150D01*
X11772444Y-12603150D02*
X11762920Y-12612674D01*
X11762920Y-12612674D02*
X11743872Y-12622198D01*
X11743872Y-12622198D02*
X11705777Y-12622198D01*
X11705777Y-12622198D02*
X11686729Y-12631722D01*
X11686729Y-12631722D02*
X11677206Y-12641246D01*
X11677206Y-12641246D02*
X11667682Y-12660293D01*
X11667682Y-12660293D02*
X11667682Y-12698388D01*
X11667682Y-12698388D02*
X11677206Y-12717436D01*
X11677206Y-12717436D02*
X11686729Y-12726960D01*
X11686729Y-12726960D02*
X11705777Y-12736484D01*
X11705777Y-12736484D02*
X11743872Y-12736484D01*
X11743872Y-12736484D02*
X11762920Y-12726960D01*
X11762920Y-12726960D02*
X11772444Y-12717436D01*
X11772444Y-12717436D02*
X11781967Y-12698388D01*
X11781967Y-12698388D02*
X11781967Y-12660293D01*
X11781967Y-12660293D02*
X11772444Y-12641246D01*
X11772444Y-12641246D02*
X11762920Y-12631722D01*
X11762920Y-12631722D02*
X11743872Y-12622198D01*
X11905777Y-12536484D02*
X11924825Y-12536484D01*
X11924825Y-12536484D02*
X11943872Y-12546008D01*
X11943872Y-12546008D02*
X11953396Y-12555531D01*
X11953396Y-12555531D02*
X11962920Y-12574579D01*
X11962920Y-12574579D02*
X11972444Y-12612674D01*
X11972444Y-12612674D02*
X11972444Y-12660293D01*
X11972444Y-12660293D02*
X11962920Y-12698388D01*
X11962920Y-12698388D02*
X11953396Y-12717436D01*
X11953396Y-12717436D02*
X11943872Y-12726960D01*
X11943872Y-12726960D02*
X11924825Y-12736484D01*
X11924825Y-12736484D02*
X11905777Y-12736484D01*
X11905777Y-12736484D02*
X11886729Y-12726960D01*
X11886729Y-12726960D02*
X11877206Y-12717436D01*
X11877206Y-12717436D02*
X11867682Y-12698388D01*
X11867682Y-12698388D02*
X11858158Y-12660293D01*
X11858158Y-12660293D02*
X11858158Y-12612674D01*
X11858158Y-12612674D02*
X11867682Y-12574579D01*
X11867682Y-12574579D02*
X11877206Y-12555531D01*
X11877206Y-12555531D02*
X11886729Y-12546008D01*
X11886729Y-12546008D02*
X11905777Y-12536484D01*
X12048634Y-12536484D02*
X12048634Y-12574579D01*
X12124825Y-12536484D02*
X12124825Y-12574579D01*
X12420063Y-12812674D02*
X12410539Y-12803150D01*
X12410539Y-12803150D02*
X12391491Y-12774579D01*
X12391491Y-12774579D02*
X12381968Y-12755531D01*
X12381968Y-12755531D02*
X12372444Y-12726960D01*
X12372444Y-12726960D02*
X12362920Y-12679341D01*
X12362920Y-12679341D02*
X12362920Y-12641246D01*
X12362920Y-12641246D02*
X12372444Y-12593627D01*
X12372444Y-12593627D02*
X12381968Y-12565055D01*
X12381968Y-12565055D02*
X12391491Y-12546008D01*
X12391491Y-12546008D02*
X12410539Y-12517436D01*
X12410539Y-12517436D02*
X12420063Y-12507912D01*
X12601015Y-12736484D02*
X12486729Y-12736484D01*
X12543872Y-12736484D02*
X12543872Y-12536484D01*
X12543872Y-12536484D02*
X12524825Y-12565055D01*
X12524825Y-12565055D02*
X12505777Y-12584103D01*
X12505777Y-12584103D02*
X12486729Y-12593627D01*
X12791491Y-12736484D02*
X12677206Y-12736484D01*
X12734348Y-12736484D02*
X12734348Y-12536484D01*
X12734348Y-12536484D02*
X12715301Y-12565055D01*
X12715301Y-12565055D02*
X12696253Y-12584103D01*
X12696253Y-12584103D02*
X12677206Y-12593627D01*
X12858158Y-12536484D02*
X12991491Y-12536484D01*
X12991491Y-12536484D02*
X12905777Y-12736484D01*
X13105777Y-12536484D02*
X13124825Y-12536484D01*
X13124825Y-12536484D02*
X13143872Y-12546008D01*
X13143872Y-12546008D02*
X13153396Y-12555531D01*
X13153396Y-12555531D02*
X13162920Y-12574579D01*
X13162920Y-12574579D02*
X13172444Y-12612674D01*
X13172444Y-12612674D02*
X13172444Y-12660293D01*
X13172444Y-12660293D02*
X13162920Y-12698388D01*
X13162920Y-12698388D02*
X13153396Y-12717436D01*
X13153396Y-12717436D02*
X13143872Y-12726960D01*
X13143872Y-12726960D02*
X13124825Y-12736484D01*
X13124825Y-12736484D02*
X13105777Y-12736484D01*
X13105777Y-12736484D02*
X13086729Y-12726960D01*
X13086729Y-12726960D02*
X13077206Y-12717436D01*
X13077206Y-12717436D02*
X13067682Y-12698388D01*
X13067682Y-12698388D02*
X13058158Y-12660293D01*
X13058158Y-12660293D02*
X13058158Y-12612674D01*
X13058158Y-12612674D02*
X13067682Y-12574579D01*
X13067682Y-12574579D02*
X13077206Y-12555531D01*
X13077206Y-12555531D02*
X13086729Y-12546008D01*
X13086729Y-12546008D02*
X13105777Y-12536484D01*
X13410539Y-12736484D02*
X13410539Y-12536484D01*
X13496253Y-12736484D02*
X13496253Y-12631722D01*
X13496253Y-12631722D02*
X13486730Y-12612674D01*
X13486730Y-12612674D02*
X13467682Y-12603150D01*
X13467682Y-12603150D02*
X13439110Y-12603150D01*
X13439110Y-12603150D02*
X13420063Y-12612674D01*
X13420063Y-12612674D02*
X13410539Y-12622198D01*
X13620063Y-12736484D02*
X13601015Y-12726960D01*
X13601015Y-12726960D02*
X13591491Y-12717436D01*
X13591491Y-12717436D02*
X13581968Y-12698388D01*
X13581968Y-12698388D02*
X13581968Y-12641246D01*
X13581968Y-12641246D02*
X13591491Y-12622198D01*
X13591491Y-12622198D02*
X13601015Y-12612674D01*
X13601015Y-12612674D02*
X13620063Y-12603150D01*
X13620063Y-12603150D02*
X13648634Y-12603150D01*
X13648634Y-12603150D02*
X13667682Y-12612674D01*
X13667682Y-12612674D02*
X13677206Y-12622198D01*
X13677206Y-12622198D02*
X13686730Y-12641246D01*
X13686730Y-12641246D02*
X13686730Y-12698388D01*
X13686730Y-12698388D02*
X13677206Y-12717436D01*
X13677206Y-12717436D02*
X13667682Y-12726960D01*
X13667682Y-12726960D02*
X13648634Y-12736484D01*
X13648634Y-12736484D02*
X13620063Y-12736484D01*
X13801015Y-12736484D02*
X13781968Y-12726960D01*
X13781968Y-12726960D02*
X13772444Y-12707912D01*
X13772444Y-12707912D02*
X13772444Y-12536484D01*
X13953396Y-12726960D02*
X13934349Y-12736484D01*
X13934349Y-12736484D02*
X13896253Y-12736484D01*
X13896253Y-12736484D02*
X13877206Y-12726960D01*
X13877206Y-12726960D02*
X13867682Y-12707912D01*
X13867682Y-12707912D02*
X13867682Y-12631722D01*
X13867682Y-12631722D02*
X13877206Y-12612674D01*
X13877206Y-12612674D02*
X13896253Y-12603150D01*
X13896253Y-12603150D02*
X13934349Y-12603150D01*
X13934349Y-12603150D02*
X13953396Y-12612674D01*
X13953396Y-12612674D02*
X13962920Y-12631722D01*
X13962920Y-12631722D02*
X13962920Y-12650769D01*
X13962920Y-12650769D02*
X13867682Y-12669817D01*
X14039111Y-12726960D02*
X14058158Y-12736484D01*
X14058158Y-12736484D02*
X14096253Y-12736484D01*
X14096253Y-12736484D02*
X14115301Y-12726960D01*
X14115301Y-12726960D02*
X14124825Y-12707912D01*
X14124825Y-12707912D02*
X14124825Y-12698388D01*
X14124825Y-12698388D02*
X14115301Y-12679341D01*
X14115301Y-12679341D02*
X14096253Y-12669817D01*
X14096253Y-12669817D02*
X14067682Y-12669817D01*
X14067682Y-12669817D02*
X14048634Y-12660293D01*
X14048634Y-12660293D02*
X14039111Y-12641246D01*
X14039111Y-12641246D02*
X14039111Y-12631722D01*
X14039111Y-12631722D02*
X14048634Y-12612674D01*
X14048634Y-12612674D02*
X14067682Y-12603150D01*
X14067682Y-12603150D02*
X14096253Y-12603150D01*
X14096253Y-12603150D02*
X14115301Y-12612674D01*
X14191492Y-12812674D02*
X14201015Y-12803150D01*
X14201015Y-12803150D02*
X14220063Y-12774579D01*
X14220063Y-12774579D02*
X14229587Y-12755531D01*
X14229587Y-12755531D02*
X14239111Y-12726960D01*
X14239111Y-12726960D02*
X14248634Y-12679341D01*
X14248634Y-12679341D02*
X14248634Y-12641246D01*
X14248634Y-12641246D02*
X14239111Y-12593627D01*
X14239111Y-12593627D02*
X14229587Y-12565055D01*
X14229587Y-12565055D02*
X14220063Y-12546008D01*
X14220063Y-12546008D02*
X14201015Y-12517436D01*
X14201015Y-12517436D02*
X14191492Y-12507912D01*
D13*
X8845000Y-12909000D02*
G75*
G03*
X8845000Y-12909000I-12500J0D01*
G01*
D11*
X9143872Y-12800484D02*
X9162920Y-12800484D01*
X9162920Y-12800484D02*
X9181967Y-12810008D01*
X9181967Y-12810008D02*
X9191491Y-12819531D01*
X9191491Y-12819531D02*
X9201015Y-12838579D01*
X9201015Y-12838579D02*
X9210539Y-12876674D01*
X9210539Y-12876674D02*
X9210539Y-12924293D01*
X9210539Y-12924293D02*
X9201015Y-12962388D01*
X9201015Y-12962388D02*
X9191491Y-12981436D01*
X9191491Y-12981436D02*
X9181967Y-12990960D01*
X9181967Y-12990960D02*
X9162920Y-13000484D01*
X9162920Y-13000484D02*
X9143872Y-13000484D01*
X9143872Y-13000484D02*
X9124824Y-12990960D01*
X9124824Y-12990960D02*
X9115301Y-12981436D01*
X9115301Y-12981436D02*
X9105777Y-12962388D01*
X9105777Y-12962388D02*
X9096253Y-12924293D01*
X9096253Y-12924293D02*
X9096253Y-12876674D01*
X9096253Y-12876674D02*
X9105777Y-12838579D01*
X9105777Y-12838579D02*
X9115301Y-12819531D01*
X9115301Y-12819531D02*
X9124824Y-12810008D01*
X9124824Y-12810008D02*
X9143872Y-12800484D01*
X9296253Y-12981436D02*
X9305777Y-12990960D01*
X9305777Y-12990960D02*
X9296253Y-13000484D01*
X9296253Y-13000484D02*
X9286729Y-12990960D01*
X9286729Y-12990960D02*
X9296253Y-12981436D01*
X9296253Y-12981436D02*
X9296253Y-13000484D01*
X9381967Y-12819531D02*
X9391491Y-12810008D01*
X9391491Y-12810008D02*
X9410539Y-12800484D01*
X9410539Y-12800484D02*
X9458158Y-12800484D01*
X9458158Y-12800484D02*
X9477205Y-12810008D01*
X9477205Y-12810008D02*
X9486729Y-12819531D01*
X9486729Y-12819531D02*
X9496253Y-12838579D01*
X9496253Y-12838579D02*
X9496253Y-12857627D01*
X9496253Y-12857627D02*
X9486729Y-12886198D01*
X9486729Y-12886198D02*
X9372444Y-13000484D01*
X9372444Y-13000484D02*
X9496253Y-13000484D01*
X9677205Y-12800484D02*
X9581967Y-12800484D01*
X9581967Y-12800484D02*
X9572444Y-12895722D01*
X9572444Y-12895722D02*
X9581967Y-12886198D01*
X9581967Y-12886198D02*
X9601015Y-12876674D01*
X9601015Y-12876674D02*
X9648634Y-12876674D01*
X9648634Y-12876674D02*
X9667682Y-12886198D01*
X9667682Y-12886198D02*
X9677205Y-12895722D01*
X9677205Y-12895722D02*
X9686729Y-12914769D01*
X9686729Y-12914769D02*
X9686729Y-12962388D01*
X9686729Y-12962388D02*
X9677205Y-12981436D01*
X9677205Y-12981436D02*
X9667682Y-12990960D01*
X9667682Y-12990960D02*
X9648634Y-13000484D01*
X9648634Y-13000484D02*
X9601015Y-13000484D01*
X9601015Y-13000484D02*
X9581967Y-12990960D01*
X9581967Y-12990960D02*
X9572444Y-12981436D01*
X9810539Y-12800484D02*
X9829586Y-12800484D01*
X9829586Y-12800484D02*
X9848634Y-12810008D01*
X9848634Y-12810008D02*
X9858158Y-12819531D01*
X9858158Y-12819531D02*
X9867682Y-12838579D01*
X9867682Y-12838579D02*
X9877205Y-12876674D01*
X9877205Y-12876674D02*
X9877205Y-12924293D01*
X9877205Y-12924293D02*
X9867682Y-12962388D01*
X9867682Y-12962388D02*
X9858158Y-12981436D01*
X9858158Y-12981436D02*
X9848634Y-12990960D01*
X9848634Y-12990960D02*
X9829586Y-13000484D01*
X9829586Y-13000484D02*
X9810539Y-13000484D01*
X9810539Y-13000484D02*
X9791491Y-12990960D01*
X9791491Y-12990960D02*
X9781967Y-12981436D01*
X9781967Y-12981436D02*
X9772444Y-12962388D01*
X9772444Y-12962388D02*
X9762920Y-12924293D01*
X9762920Y-12924293D02*
X9762920Y-12876674D01*
X9762920Y-12876674D02*
X9772444Y-12838579D01*
X9772444Y-12838579D02*
X9781967Y-12819531D01*
X9781967Y-12819531D02*
X9791491Y-12810008D01*
X9791491Y-12810008D02*
X9810539Y-12800484D01*
X9962920Y-13000484D02*
X9962920Y-12867150D01*
X9962920Y-12886198D02*
X9972444Y-12876674D01*
X9972444Y-12876674D02*
X9991491Y-12867150D01*
X9991491Y-12867150D02*
X10020063Y-12867150D01*
X10020063Y-12867150D02*
X10039110Y-12876674D01*
X10039110Y-12876674D02*
X10048634Y-12895722D01*
X10048634Y-12895722D02*
X10048634Y-13000484D01*
X10048634Y-12895722D02*
X10058158Y-12876674D01*
X10058158Y-12876674D02*
X10077205Y-12867150D01*
X10077205Y-12867150D02*
X10105777Y-12867150D01*
X10105777Y-12867150D02*
X10124825Y-12876674D01*
X10124825Y-12876674D02*
X10134348Y-12895722D01*
X10134348Y-12895722D02*
X10134348Y-13000484D01*
X10229586Y-13000484D02*
X10229586Y-12867150D01*
X10229586Y-12886198D02*
X10239110Y-12876674D01*
X10239110Y-12876674D02*
X10258158Y-12867150D01*
X10258158Y-12867150D02*
X10286729Y-12867150D01*
X10286729Y-12867150D02*
X10305777Y-12876674D01*
X10305777Y-12876674D02*
X10315301Y-12895722D01*
X10315301Y-12895722D02*
X10315301Y-13000484D01*
X10315301Y-12895722D02*
X10324825Y-12876674D01*
X10324825Y-12876674D02*
X10343872Y-12867150D01*
X10343872Y-12867150D02*
X10372444Y-12867150D01*
X10372444Y-12867150D02*
X10391491Y-12876674D01*
X10391491Y-12876674D02*
X10401015Y-12895722D01*
X10401015Y-12895722D02*
X10401015Y-13000484D01*
X10791491Y-12790960D02*
X10620063Y-13048103D01*
X11048634Y-12800484D02*
X11067682Y-12800484D01*
X11067682Y-12800484D02*
X11086729Y-12810008D01*
X11086729Y-12810008D02*
X11096253Y-12819531D01*
X11096253Y-12819531D02*
X11105777Y-12838579D01*
X11105777Y-12838579D02*
X11115301Y-12876674D01*
X11115301Y-12876674D02*
X11115301Y-12924293D01*
X11115301Y-12924293D02*
X11105777Y-12962388D01*
X11105777Y-12962388D02*
X11096253Y-12981436D01*
X11096253Y-12981436D02*
X11086729Y-12990960D01*
X11086729Y-12990960D02*
X11067682Y-13000484D01*
X11067682Y-13000484D02*
X11048634Y-13000484D01*
X11048634Y-13000484D02*
X11029587Y-12990960D01*
X11029587Y-12990960D02*
X11020063Y-12981436D01*
X11020063Y-12981436D02*
X11010539Y-12962388D01*
X11010539Y-12962388D02*
X11001015Y-12924293D01*
X11001015Y-12924293D02*
X11001015Y-12876674D01*
X11001015Y-12876674D02*
X11010539Y-12838579D01*
X11010539Y-12838579D02*
X11020063Y-12819531D01*
X11020063Y-12819531D02*
X11029587Y-12810008D01*
X11029587Y-12810008D02*
X11048634Y-12800484D01*
X11201015Y-12981436D02*
X11210539Y-12990960D01*
X11210539Y-12990960D02*
X11201015Y-13000484D01*
X11201015Y-13000484D02*
X11191491Y-12990960D01*
X11191491Y-12990960D02*
X11201015Y-12981436D01*
X11201015Y-12981436D02*
X11201015Y-13000484D01*
X11334348Y-12800484D02*
X11353396Y-12800484D01*
X11353396Y-12800484D02*
X11372444Y-12810008D01*
X11372444Y-12810008D02*
X11381967Y-12819531D01*
X11381967Y-12819531D02*
X11391491Y-12838579D01*
X11391491Y-12838579D02*
X11401015Y-12876674D01*
X11401015Y-12876674D02*
X11401015Y-12924293D01*
X11401015Y-12924293D02*
X11391491Y-12962388D01*
X11391491Y-12962388D02*
X11381967Y-12981436D01*
X11381967Y-12981436D02*
X11372444Y-12990960D01*
X11372444Y-12990960D02*
X11353396Y-13000484D01*
X11353396Y-13000484D02*
X11334348Y-13000484D01*
X11334348Y-13000484D02*
X11315301Y-12990960D01*
X11315301Y-12990960D02*
X11305777Y-12981436D01*
X11305777Y-12981436D02*
X11296253Y-12962388D01*
X11296253Y-12962388D02*
X11286729Y-12924293D01*
X11286729Y-12924293D02*
X11286729Y-12876674D01*
X11286729Y-12876674D02*
X11296253Y-12838579D01*
X11296253Y-12838579D02*
X11305777Y-12819531D01*
X11305777Y-12819531D02*
X11315301Y-12810008D01*
X11315301Y-12810008D02*
X11334348Y-12800484D01*
X11524825Y-12800484D02*
X11543872Y-12800484D01*
X11543872Y-12800484D02*
X11562920Y-12810008D01*
X11562920Y-12810008D02*
X11572444Y-12819531D01*
X11572444Y-12819531D02*
X11581967Y-12838579D01*
X11581967Y-12838579D02*
X11591491Y-12876674D01*
X11591491Y-12876674D02*
X11591491Y-12924293D01*
X11591491Y-12924293D02*
X11581967Y-12962388D01*
X11581967Y-12962388D02*
X11572444Y-12981436D01*
X11572444Y-12981436D02*
X11562920Y-12990960D01*
X11562920Y-12990960D02*
X11543872Y-13000484D01*
X11543872Y-13000484D02*
X11524825Y-13000484D01*
X11524825Y-13000484D02*
X11505777Y-12990960D01*
X11505777Y-12990960D02*
X11496253Y-12981436D01*
X11496253Y-12981436D02*
X11486729Y-12962388D01*
X11486729Y-12962388D02*
X11477206Y-12924293D01*
X11477206Y-12924293D02*
X11477206Y-12876674D01*
X11477206Y-12876674D02*
X11486729Y-12838579D01*
X11486729Y-12838579D02*
X11496253Y-12819531D01*
X11496253Y-12819531D02*
X11505777Y-12810008D01*
X11505777Y-12810008D02*
X11524825Y-12800484D01*
X11686729Y-13000484D02*
X11724825Y-13000484D01*
X11724825Y-13000484D02*
X11743872Y-12990960D01*
X11743872Y-12990960D02*
X11753396Y-12981436D01*
X11753396Y-12981436D02*
X11772444Y-12952865D01*
X11772444Y-12952865D02*
X11781967Y-12914769D01*
X11781967Y-12914769D02*
X11781967Y-12838579D01*
X11781967Y-12838579D02*
X11772444Y-12819531D01*
X11772444Y-12819531D02*
X11762920Y-12810008D01*
X11762920Y-12810008D02*
X11743872Y-12800484D01*
X11743872Y-12800484D02*
X11705777Y-12800484D01*
X11705777Y-12800484D02*
X11686729Y-12810008D01*
X11686729Y-12810008D02*
X11677206Y-12819531D01*
X11677206Y-12819531D02*
X11667682Y-12838579D01*
X11667682Y-12838579D02*
X11667682Y-12886198D01*
X11667682Y-12886198D02*
X11677206Y-12905246D01*
X11677206Y-12905246D02*
X11686729Y-12914769D01*
X11686729Y-12914769D02*
X11705777Y-12924293D01*
X11705777Y-12924293D02*
X11743872Y-12924293D01*
X11743872Y-12924293D02*
X11762920Y-12914769D01*
X11762920Y-12914769D02*
X11772444Y-12905246D01*
X11772444Y-12905246D02*
X11781967Y-12886198D01*
X11896253Y-12886198D02*
X11877206Y-12876674D01*
X11877206Y-12876674D02*
X11867682Y-12867150D01*
X11867682Y-12867150D02*
X11858158Y-12848103D01*
X11858158Y-12848103D02*
X11858158Y-12838579D01*
X11858158Y-12838579D02*
X11867682Y-12819531D01*
X11867682Y-12819531D02*
X11877206Y-12810008D01*
X11877206Y-12810008D02*
X11896253Y-12800484D01*
X11896253Y-12800484D02*
X11934348Y-12800484D01*
X11934348Y-12800484D02*
X11953396Y-12810008D01*
X11953396Y-12810008D02*
X11962920Y-12819531D01*
X11962920Y-12819531D02*
X11972444Y-12838579D01*
X11972444Y-12838579D02*
X11972444Y-12848103D01*
X11972444Y-12848103D02*
X11962920Y-12867150D01*
X11962920Y-12867150D02*
X11953396Y-12876674D01*
X11953396Y-12876674D02*
X11934348Y-12886198D01*
X11934348Y-12886198D02*
X11896253Y-12886198D01*
X11896253Y-12886198D02*
X11877206Y-12895722D01*
X11877206Y-12895722D02*
X11867682Y-12905246D01*
X11867682Y-12905246D02*
X11858158Y-12924293D01*
X11858158Y-12924293D02*
X11858158Y-12962388D01*
X11858158Y-12962388D02*
X11867682Y-12981436D01*
X11867682Y-12981436D02*
X11877206Y-12990960D01*
X11877206Y-12990960D02*
X11896253Y-13000484D01*
X11896253Y-13000484D02*
X11934348Y-13000484D01*
X11934348Y-13000484D02*
X11953396Y-12990960D01*
X11953396Y-12990960D02*
X11962920Y-12981436D01*
X11962920Y-12981436D02*
X11972444Y-12962388D01*
X11972444Y-12962388D02*
X11972444Y-12924293D01*
X11972444Y-12924293D02*
X11962920Y-12905246D01*
X11962920Y-12905246D02*
X11953396Y-12895722D01*
X11953396Y-12895722D02*
X11934348Y-12886198D01*
X12048634Y-12800484D02*
X12048634Y-12838579D01*
X12124825Y-12800484D02*
X12124825Y-12838579D01*
X12420063Y-13076674D02*
X12410539Y-13067150D01*
X12410539Y-13067150D02*
X12391491Y-13038579D01*
X12391491Y-13038579D02*
X12381968Y-13019531D01*
X12381968Y-13019531D02*
X12372444Y-12990960D01*
X12372444Y-12990960D02*
X12362920Y-12943341D01*
X12362920Y-12943341D02*
X12362920Y-12905246D01*
X12362920Y-12905246D02*
X12372444Y-12857627D01*
X12372444Y-12857627D02*
X12381968Y-12829055D01*
X12381968Y-12829055D02*
X12391491Y-12810008D01*
X12391491Y-12810008D02*
X12410539Y-12781436D01*
X12410539Y-12781436D02*
X12420063Y-12771912D01*
X12486729Y-12819531D02*
X12496253Y-12810008D01*
X12496253Y-12810008D02*
X12515301Y-12800484D01*
X12515301Y-12800484D02*
X12562920Y-12800484D01*
X12562920Y-12800484D02*
X12581968Y-12810008D01*
X12581968Y-12810008D02*
X12591491Y-12819531D01*
X12591491Y-12819531D02*
X12601015Y-12838579D01*
X12601015Y-12838579D02*
X12601015Y-12857627D01*
X12601015Y-12857627D02*
X12591491Y-12886198D01*
X12591491Y-12886198D02*
X12477206Y-13000484D01*
X12477206Y-13000484D02*
X12601015Y-13000484D01*
X12839110Y-13000484D02*
X12839110Y-12800484D01*
X12924825Y-13000484D02*
X12924825Y-12895722D01*
X12924825Y-12895722D02*
X12915301Y-12876674D01*
X12915301Y-12876674D02*
X12896253Y-12867150D01*
X12896253Y-12867150D02*
X12867682Y-12867150D01*
X12867682Y-12867150D02*
X12848634Y-12876674D01*
X12848634Y-12876674D02*
X12839110Y-12886198D01*
X13048634Y-13000484D02*
X13029587Y-12990960D01*
X13029587Y-12990960D02*
X13020063Y-12981436D01*
X13020063Y-12981436D02*
X13010539Y-12962388D01*
X13010539Y-12962388D02*
X13010539Y-12905246D01*
X13010539Y-12905246D02*
X13020063Y-12886198D01*
X13020063Y-12886198D02*
X13029587Y-12876674D01*
X13029587Y-12876674D02*
X13048634Y-12867150D01*
X13048634Y-12867150D02*
X13077206Y-12867150D01*
X13077206Y-12867150D02*
X13096253Y-12876674D01*
X13096253Y-12876674D02*
X13105777Y-12886198D01*
X13105777Y-12886198D02*
X13115301Y-12905246D01*
X13115301Y-12905246D02*
X13115301Y-12962388D01*
X13115301Y-12962388D02*
X13105777Y-12981436D01*
X13105777Y-12981436D02*
X13096253Y-12990960D01*
X13096253Y-12990960D02*
X13077206Y-13000484D01*
X13077206Y-13000484D02*
X13048634Y-13000484D01*
X13229587Y-13000484D02*
X13210539Y-12990960D01*
X13210539Y-12990960D02*
X13201015Y-12971912D01*
X13201015Y-12971912D02*
X13201015Y-12800484D01*
X13381968Y-12990960D02*
X13362920Y-13000484D01*
X13362920Y-13000484D02*
X13324825Y-13000484D01*
X13324825Y-13000484D02*
X13305777Y-12990960D01*
X13305777Y-12990960D02*
X13296253Y-12971912D01*
X13296253Y-12971912D02*
X13296253Y-12895722D01*
X13296253Y-12895722D02*
X13305777Y-12876674D01*
X13305777Y-12876674D02*
X13324825Y-12867150D01*
X13324825Y-12867150D02*
X13362920Y-12867150D01*
X13362920Y-12867150D02*
X13381968Y-12876674D01*
X13381968Y-12876674D02*
X13391491Y-12895722D01*
X13391491Y-12895722D02*
X13391491Y-12914769D01*
X13391491Y-12914769D02*
X13296253Y-12933817D01*
X13467682Y-12990960D02*
X13486730Y-13000484D01*
X13486730Y-13000484D02*
X13524825Y-13000484D01*
X13524825Y-13000484D02*
X13543872Y-12990960D01*
X13543872Y-12990960D02*
X13553396Y-12971912D01*
X13553396Y-12971912D02*
X13553396Y-12962388D01*
X13553396Y-12962388D02*
X13543872Y-12943341D01*
X13543872Y-12943341D02*
X13524825Y-12933817D01*
X13524825Y-12933817D02*
X13496253Y-12933817D01*
X13496253Y-12933817D02*
X13477206Y-12924293D01*
X13477206Y-12924293D02*
X13467682Y-12905246D01*
X13467682Y-12905246D02*
X13467682Y-12895722D01*
X13467682Y-12895722D02*
X13477206Y-12876674D01*
X13477206Y-12876674D02*
X13496253Y-12867150D01*
X13496253Y-12867150D02*
X13524825Y-12867150D01*
X13524825Y-12867150D02*
X13543872Y-12876674D01*
X13620063Y-13076674D02*
X13629587Y-13067150D01*
X13629587Y-13067150D02*
X13648634Y-13038579D01*
X13648634Y-13038579D02*
X13658158Y-13019531D01*
X13658158Y-13019531D02*
X13667682Y-12990960D01*
X13667682Y-12990960D02*
X13677206Y-12943341D01*
X13677206Y-12943341D02*
X13677206Y-12905246D01*
X13677206Y-12905246D02*
X13667682Y-12857627D01*
X13667682Y-12857627D02*
X13658158Y-12829055D01*
X13658158Y-12829055D02*
X13648634Y-12810008D01*
X13648634Y-12810008D02*
X13629587Y-12781436D01*
X13629587Y-12781436D02*
X13620063Y-12771912D01*
D14*
X8827220Y-13155220D02*
X8827220Y-13190780D01*
X8809440Y-13173000D02*
X8845000Y-13173000D01*
D11*
X9143872Y-13064484D02*
X9162920Y-13064484D01*
X9162920Y-13064484D02*
X9181967Y-13074008D01*
X9181967Y-13074008D02*
X9191491Y-13083531D01*
X9191491Y-13083531D02*
X9201015Y-13102579D01*
X9201015Y-13102579D02*
X9210539Y-13140674D01*
X9210539Y-13140674D02*
X9210539Y-13188293D01*
X9210539Y-13188293D02*
X9201015Y-13226388D01*
X9201015Y-13226388D02*
X9191491Y-13245436D01*
X9191491Y-13245436D02*
X9181967Y-13254960D01*
X9181967Y-13254960D02*
X9162920Y-13264484D01*
X9162920Y-13264484D02*
X9143872Y-13264484D01*
X9143872Y-13264484D02*
X9124824Y-13254960D01*
X9124824Y-13254960D02*
X9115301Y-13245436D01*
X9115301Y-13245436D02*
X9105777Y-13226388D01*
X9105777Y-13226388D02*
X9096253Y-13188293D01*
X9096253Y-13188293D02*
X9096253Y-13140674D01*
X9096253Y-13140674D02*
X9105777Y-13102579D01*
X9105777Y-13102579D02*
X9115301Y-13083531D01*
X9115301Y-13083531D02*
X9124824Y-13074008D01*
X9124824Y-13074008D02*
X9143872Y-13064484D01*
X9296253Y-13245436D02*
X9305777Y-13254960D01*
X9305777Y-13254960D02*
X9296253Y-13264484D01*
X9296253Y-13264484D02*
X9286729Y-13254960D01*
X9286729Y-13254960D02*
X9296253Y-13245436D01*
X9296253Y-13245436D02*
X9296253Y-13264484D01*
X9372444Y-13064484D02*
X9496253Y-13064484D01*
X9496253Y-13064484D02*
X9429586Y-13140674D01*
X9429586Y-13140674D02*
X9458158Y-13140674D01*
X9458158Y-13140674D02*
X9477205Y-13150198D01*
X9477205Y-13150198D02*
X9486729Y-13159722D01*
X9486729Y-13159722D02*
X9496253Y-13178769D01*
X9496253Y-13178769D02*
X9496253Y-13226388D01*
X9496253Y-13226388D02*
X9486729Y-13245436D01*
X9486729Y-13245436D02*
X9477205Y-13254960D01*
X9477205Y-13254960D02*
X9458158Y-13264484D01*
X9458158Y-13264484D02*
X9401015Y-13264484D01*
X9401015Y-13264484D02*
X9381967Y-13254960D01*
X9381967Y-13254960D02*
X9372444Y-13245436D01*
X9677205Y-13064484D02*
X9581967Y-13064484D01*
X9581967Y-13064484D02*
X9572444Y-13159722D01*
X9572444Y-13159722D02*
X9581967Y-13150198D01*
X9581967Y-13150198D02*
X9601015Y-13140674D01*
X9601015Y-13140674D02*
X9648634Y-13140674D01*
X9648634Y-13140674D02*
X9667682Y-13150198D01*
X9667682Y-13150198D02*
X9677205Y-13159722D01*
X9677205Y-13159722D02*
X9686729Y-13178769D01*
X9686729Y-13178769D02*
X9686729Y-13226388D01*
X9686729Y-13226388D02*
X9677205Y-13245436D01*
X9677205Y-13245436D02*
X9667682Y-13254960D01*
X9667682Y-13254960D02*
X9648634Y-13264484D01*
X9648634Y-13264484D02*
X9601015Y-13264484D01*
X9601015Y-13264484D02*
X9581967Y-13254960D01*
X9581967Y-13254960D02*
X9572444Y-13245436D01*
X9858158Y-13064484D02*
X9820063Y-13064484D01*
X9820063Y-13064484D02*
X9801015Y-13074008D01*
X9801015Y-13074008D02*
X9791491Y-13083531D01*
X9791491Y-13083531D02*
X9772444Y-13112103D01*
X9772444Y-13112103D02*
X9762920Y-13150198D01*
X9762920Y-13150198D02*
X9762920Y-13226388D01*
X9762920Y-13226388D02*
X9772444Y-13245436D01*
X9772444Y-13245436D02*
X9781967Y-13254960D01*
X9781967Y-13254960D02*
X9801015Y-13264484D01*
X9801015Y-13264484D02*
X9839110Y-13264484D01*
X9839110Y-13264484D02*
X9858158Y-13254960D01*
X9858158Y-13254960D02*
X9867682Y-13245436D01*
X9867682Y-13245436D02*
X9877205Y-13226388D01*
X9877205Y-13226388D02*
X9877205Y-13178769D01*
X9877205Y-13178769D02*
X9867682Y-13159722D01*
X9867682Y-13159722D02*
X9858158Y-13150198D01*
X9858158Y-13150198D02*
X9839110Y-13140674D01*
X9839110Y-13140674D02*
X9801015Y-13140674D01*
X9801015Y-13140674D02*
X9781967Y-13150198D01*
X9781967Y-13150198D02*
X9772444Y-13159722D01*
X9772444Y-13159722D02*
X9762920Y-13178769D01*
X9962920Y-13264484D02*
X9962920Y-13131150D01*
X9962920Y-13150198D02*
X9972444Y-13140674D01*
X9972444Y-13140674D02*
X9991491Y-13131150D01*
X9991491Y-13131150D02*
X10020063Y-13131150D01*
X10020063Y-13131150D02*
X10039110Y-13140674D01*
X10039110Y-13140674D02*
X10048634Y-13159722D01*
X10048634Y-13159722D02*
X10048634Y-13264484D01*
X10048634Y-13159722D02*
X10058158Y-13140674D01*
X10058158Y-13140674D02*
X10077205Y-13131150D01*
X10077205Y-13131150D02*
X10105777Y-13131150D01*
X10105777Y-13131150D02*
X10124825Y-13140674D01*
X10124825Y-13140674D02*
X10134348Y-13159722D01*
X10134348Y-13159722D02*
X10134348Y-13264484D01*
X10229586Y-13264484D02*
X10229586Y-13131150D01*
X10229586Y-13150198D02*
X10239110Y-13140674D01*
X10239110Y-13140674D02*
X10258158Y-13131150D01*
X10258158Y-13131150D02*
X10286729Y-13131150D01*
X10286729Y-13131150D02*
X10305777Y-13140674D01*
X10305777Y-13140674D02*
X10315301Y-13159722D01*
X10315301Y-13159722D02*
X10315301Y-13264484D01*
X10315301Y-13159722D02*
X10324825Y-13140674D01*
X10324825Y-13140674D02*
X10343872Y-13131150D01*
X10343872Y-13131150D02*
X10372444Y-13131150D01*
X10372444Y-13131150D02*
X10391491Y-13140674D01*
X10391491Y-13140674D02*
X10401015Y-13159722D01*
X10401015Y-13159722D02*
X10401015Y-13264484D01*
X10791491Y-13054960D02*
X10620063Y-13312103D01*
X11048634Y-13064484D02*
X11067682Y-13064484D01*
X11067682Y-13064484D02*
X11086729Y-13074008D01*
X11086729Y-13074008D02*
X11096253Y-13083531D01*
X11096253Y-13083531D02*
X11105777Y-13102579D01*
X11105777Y-13102579D02*
X11115301Y-13140674D01*
X11115301Y-13140674D02*
X11115301Y-13188293D01*
X11115301Y-13188293D02*
X11105777Y-13226388D01*
X11105777Y-13226388D02*
X11096253Y-13245436D01*
X11096253Y-13245436D02*
X11086729Y-13254960D01*
X11086729Y-13254960D02*
X11067682Y-13264484D01*
X11067682Y-13264484D02*
X11048634Y-13264484D01*
X11048634Y-13264484D02*
X11029587Y-13254960D01*
X11029587Y-13254960D02*
X11020063Y-13245436D01*
X11020063Y-13245436D02*
X11010539Y-13226388D01*
X11010539Y-13226388D02*
X11001015Y-13188293D01*
X11001015Y-13188293D02*
X11001015Y-13140674D01*
X11001015Y-13140674D02*
X11010539Y-13102579D01*
X11010539Y-13102579D02*
X11020063Y-13083531D01*
X11020063Y-13083531D02*
X11029587Y-13074008D01*
X11029587Y-13074008D02*
X11048634Y-13064484D01*
X11201015Y-13245436D02*
X11210539Y-13254960D01*
X11210539Y-13254960D02*
X11201015Y-13264484D01*
X11201015Y-13264484D02*
X11191491Y-13254960D01*
X11191491Y-13254960D02*
X11201015Y-13245436D01*
X11201015Y-13245436D02*
X11201015Y-13264484D01*
X11334348Y-13064484D02*
X11353396Y-13064484D01*
X11353396Y-13064484D02*
X11372444Y-13074008D01*
X11372444Y-13074008D02*
X11381967Y-13083531D01*
X11381967Y-13083531D02*
X11391491Y-13102579D01*
X11391491Y-13102579D02*
X11401015Y-13140674D01*
X11401015Y-13140674D02*
X11401015Y-13188293D01*
X11401015Y-13188293D02*
X11391491Y-13226388D01*
X11391491Y-13226388D02*
X11381967Y-13245436D01*
X11381967Y-13245436D02*
X11372444Y-13254960D01*
X11372444Y-13254960D02*
X11353396Y-13264484D01*
X11353396Y-13264484D02*
X11334348Y-13264484D01*
X11334348Y-13264484D02*
X11315301Y-13254960D01*
X11315301Y-13254960D02*
X11305777Y-13245436D01*
X11305777Y-13245436D02*
X11296253Y-13226388D01*
X11296253Y-13226388D02*
X11286729Y-13188293D01*
X11286729Y-13188293D02*
X11286729Y-13140674D01*
X11286729Y-13140674D02*
X11296253Y-13102579D01*
X11296253Y-13102579D02*
X11305777Y-13083531D01*
X11305777Y-13083531D02*
X11315301Y-13074008D01*
X11315301Y-13074008D02*
X11334348Y-13064484D01*
X11591491Y-13264484D02*
X11477206Y-13264484D01*
X11534348Y-13264484D02*
X11534348Y-13064484D01*
X11534348Y-13064484D02*
X11515301Y-13093055D01*
X11515301Y-13093055D02*
X11496253Y-13112103D01*
X11496253Y-13112103D02*
X11477206Y-13121627D01*
X11762920Y-13131150D02*
X11762920Y-13264484D01*
X11715301Y-13054960D02*
X11667682Y-13197817D01*
X11667682Y-13197817D02*
X11791491Y-13197817D01*
X11905777Y-13064484D02*
X11924825Y-13064484D01*
X11924825Y-13064484D02*
X11943872Y-13074008D01*
X11943872Y-13074008D02*
X11953396Y-13083531D01*
X11953396Y-13083531D02*
X11962920Y-13102579D01*
X11962920Y-13102579D02*
X11972444Y-13140674D01*
X11972444Y-13140674D02*
X11972444Y-13188293D01*
X11972444Y-13188293D02*
X11962920Y-13226388D01*
X11962920Y-13226388D02*
X11953396Y-13245436D01*
X11953396Y-13245436D02*
X11943872Y-13254960D01*
X11943872Y-13254960D02*
X11924825Y-13264484D01*
X11924825Y-13264484D02*
X11905777Y-13264484D01*
X11905777Y-13264484D02*
X11886729Y-13254960D01*
X11886729Y-13254960D02*
X11877206Y-13245436D01*
X11877206Y-13245436D02*
X11867682Y-13226388D01*
X11867682Y-13226388D02*
X11858158Y-13188293D01*
X11858158Y-13188293D02*
X11858158Y-13140674D01*
X11858158Y-13140674D02*
X11867682Y-13102579D01*
X11867682Y-13102579D02*
X11877206Y-13083531D01*
X11877206Y-13083531D02*
X11886729Y-13074008D01*
X11886729Y-13074008D02*
X11905777Y-13064484D01*
X12048634Y-13064484D02*
X12048634Y-13102579D01*
X12124825Y-13064484D02*
X12124825Y-13102579D01*
X12420063Y-13340674D02*
X12410539Y-13331150D01*
X12410539Y-13331150D02*
X12391491Y-13302579D01*
X12391491Y-13302579D02*
X12381968Y-13283531D01*
X12381968Y-13283531D02*
X12372444Y-13254960D01*
X12372444Y-13254960D02*
X12362920Y-13207341D01*
X12362920Y-13207341D02*
X12362920Y-13169246D01*
X12362920Y-13169246D02*
X12372444Y-13121627D01*
X12372444Y-13121627D02*
X12381968Y-13093055D01*
X12381968Y-13093055D02*
X12391491Y-13074008D01*
X12391491Y-13074008D02*
X12410539Y-13045436D01*
X12410539Y-13045436D02*
X12420063Y-13035912D01*
X12591491Y-13064484D02*
X12496253Y-13064484D01*
X12496253Y-13064484D02*
X12486729Y-13159722D01*
X12486729Y-13159722D02*
X12496253Y-13150198D01*
X12496253Y-13150198D02*
X12515301Y-13140674D01*
X12515301Y-13140674D02*
X12562920Y-13140674D01*
X12562920Y-13140674D02*
X12581968Y-13150198D01*
X12581968Y-13150198D02*
X12591491Y-13159722D01*
X12591491Y-13159722D02*
X12601015Y-13178769D01*
X12601015Y-13178769D02*
X12601015Y-13226388D01*
X12601015Y-13226388D02*
X12591491Y-13245436D01*
X12591491Y-13245436D02*
X12581968Y-13254960D01*
X12581968Y-13254960D02*
X12562920Y-13264484D01*
X12562920Y-13264484D02*
X12515301Y-13264484D01*
X12515301Y-13264484D02*
X12496253Y-13254960D01*
X12496253Y-13254960D02*
X12486729Y-13245436D01*
X12839110Y-13264484D02*
X12839110Y-13064484D01*
X12924825Y-13264484D02*
X12924825Y-13159722D01*
X12924825Y-13159722D02*
X12915301Y-13140674D01*
X12915301Y-13140674D02*
X12896253Y-13131150D01*
X12896253Y-13131150D02*
X12867682Y-13131150D01*
X12867682Y-13131150D02*
X12848634Y-13140674D01*
X12848634Y-13140674D02*
X12839110Y-13150198D01*
X13048634Y-13264484D02*
X13029587Y-13254960D01*
X13029587Y-13254960D02*
X13020063Y-13245436D01*
X13020063Y-13245436D02*
X13010539Y-13226388D01*
X13010539Y-13226388D02*
X13010539Y-13169246D01*
X13010539Y-13169246D02*
X13020063Y-13150198D01*
X13020063Y-13150198D02*
X13029587Y-13140674D01*
X13029587Y-13140674D02*
X13048634Y-13131150D01*
X13048634Y-13131150D02*
X13077206Y-13131150D01*
X13077206Y-13131150D02*
X13096253Y-13140674D01*
X13096253Y-13140674D02*
X13105777Y-13150198D01*
X13105777Y-13150198D02*
X13115301Y-13169246D01*
X13115301Y-13169246D02*
X13115301Y-13226388D01*
X13115301Y-13226388D02*
X13105777Y-13245436D01*
X13105777Y-13245436D02*
X13096253Y-13254960D01*
X13096253Y-13254960D02*
X13077206Y-13264484D01*
X13077206Y-13264484D02*
X13048634Y-13264484D01*
X13229587Y-13264484D02*
X13210539Y-13254960D01*
X13210539Y-13254960D02*
X13201015Y-13235912D01*
X13201015Y-13235912D02*
X13201015Y-13064484D01*
X13381968Y-13254960D02*
X13362920Y-13264484D01*
X13362920Y-13264484D02*
X13324825Y-13264484D01*
X13324825Y-13264484D02*
X13305777Y-13254960D01*
X13305777Y-13254960D02*
X13296253Y-13235912D01*
X13296253Y-13235912D02*
X13296253Y-13159722D01*
X13296253Y-13159722D02*
X13305777Y-13140674D01*
X13305777Y-13140674D02*
X13324825Y-13131150D01*
X13324825Y-13131150D02*
X13362920Y-13131150D01*
X13362920Y-13131150D02*
X13381968Y-13140674D01*
X13381968Y-13140674D02*
X13391491Y-13159722D01*
X13391491Y-13159722D02*
X13391491Y-13178769D01*
X13391491Y-13178769D02*
X13296253Y-13197817D01*
X13467682Y-13254960D02*
X13486730Y-13264484D01*
X13486730Y-13264484D02*
X13524825Y-13264484D01*
X13524825Y-13264484D02*
X13543872Y-13254960D01*
X13543872Y-13254960D02*
X13553396Y-13235912D01*
X13553396Y-13235912D02*
X13553396Y-13226388D01*
X13553396Y-13226388D02*
X13543872Y-13207341D01*
X13543872Y-13207341D02*
X13524825Y-13197817D01*
X13524825Y-13197817D02*
X13496253Y-13197817D01*
X13496253Y-13197817D02*
X13477206Y-13188293D01*
X13477206Y-13188293D02*
X13467682Y-13169246D01*
X13467682Y-13169246D02*
X13467682Y-13159722D01*
X13467682Y-13159722D02*
X13477206Y-13140674D01*
X13477206Y-13140674D02*
X13496253Y-13131150D01*
X13496253Y-13131150D02*
X13524825Y-13131150D01*
X13524825Y-13131150D02*
X13543872Y-13140674D01*
X13620063Y-13340674D02*
X13629587Y-13331150D01*
X13629587Y-13331150D02*
X13648634Y-13302579D01*
X13648634Y-13302579D02*
X13658158Y-13283531D01*
X13658158Y-13283531D02*
X13667682Y-13254960D01*
X13667682Y-13254960D02*
X13677206Y-13207341D01*
X13677206Y-13207341D02*
X13677206Y-13169246D01*
X13677206Y-13169246D02*
X13667682Y-13121627D01*
X13667682Y-13121627D02*
X13658158Y-13093055D01*
X13658158Y-13093055D02*
X13648634Y-13074008D01*
X13648634Y-13074008D02*
X13629587Y-13045436D01*
X13629587Y-13045436D02*
X13620063Y-13035912D01*
D15*
X8837678Y-13454678D02*
X8837678Y-13419322D01*
X8802322Y-13419322D01*
X8802322Y-13454678D01*
X8837678Y-13454678D01*
D11*
X9143872Y-13328484D02*
X9162920Y-13328484D01*
X9162920Y-13328484D02*
X9181967Y-13338008D01*
X9181967Y-13338008D02*
X9191491Y-13347531D01*
X9191491Y-13347531D02*
X9201015Y-13366579D01*
X9201015Y-13366579D02*
X9210539Y-13404674D01*
X9210539Y-13404674D02*
X9210539Y-13452293D01*
X9210539Y-13452293D02*
X9201015Y-13490388D01*
X9201015Y-13490388D02*
X9191491Y-13509436D01*
X9191491Y-13509436D02*
X9181967Y-13518960D01*
X9181967Y-13518960D02*
X9162920Y-13528484D01*
X9162920Y-13528484D02*
X9143872Y-13528484D01*
X9143872Y-13528484D02*
X9124824Y-13518960D01*
X9124824Y-13518960D02*
X9115301Y-13509436D01*
X9115301Y-13509436D02*
X9105777Y-13490388D01*
X9105777Y-13490388D02*
X9096253Y-13452293D01*
X9096253Y-13452293D02*
X9096253Y-13404674D01*
X9096253Y-13404674D02*
X9105777Y-13366579D01*
X9105777Y-13366579D02*
X9115301Y-13347531D01*
X9115301Y-13347531D02*
X9124824Y-13338008D01*
X9124824Y-13338008D02*
X9143872Y-13328484D01*
X9296253Y-13509436D02*
X9305777Y-13518960D01*
X9305777Y-13518960D02*
X9296253Y-13528484D01*
X9296253Y-13528484D02*
X9286729Y-13518960D01*
X9286729Y-13518960D02*
X9296253Y-13509436D01*
X9296253Y-13509436D02*
X9296253Y-13528484D01*
X9486729Y-13328484D02*
X9391491Y-13328484D01*
X9391491Y-13328484D02*
X9381967Y-13423722D01*
X9381967Y-13423722D02*
X9391491Y-13414198D01*
X9391491Y-13414198D02*
X9410539Y-13404674D01*
X9410539Y-13404674D02*
X9458158Y-13404674D01*
X9458158Y-13404674D02*
X9477205Y-13414198D01*
X9477205Y-13414198D02*
X9486729Y-13423722D01*
X9486729Y-13423722D02*
X9496253Y-13442769D01*
X9496253Y-13442769D02*
X9496253Y-13490388D01*
X9496253Y-13490388D02*
X9486729Y-13509436D01*
X9486729Y-13509436D02*
X9477205Y-13518960D01*
X9477205Y-13518960D02*
X9458158Y-13528484D01*
X9458158Y-13528484D02*
X9410539Y-13528484D01*
X9410539Y-13528484D02*
X9391491Y-13518960D01*
X9391491Y-13518960D02*
X9381967Y-13509436D01*
X9620063Y-13328484D02*
X9639110Y-13328484D01*
X9639110Y-13328484D02*
X9658158Y-13338008D01*
X9658158Y-13338008D02*
X9667682Y-13347531D01*
X9667682Y-13347531D02*
X9677205Y-13366579D01*
X9677205Y-13366579D02*
X9686729Y-13404674D01*
X9686729Y-13404674D02*
X9686729Y-13452293D01*
X9686729Y-13452293D02*
X9677205Y-13490388D01*
X9677205Y-13490388D02*
X9667682Y-13509436D01*
X9667682Y-13509436D02*
X9658158Y-13518960D01*
X9658158Y-13518960D02*
X9639110Y-13528484D01*
X9639110Y-13528484D02*
X9620063Y-13528484D01*
X9620063Y-13528484D02*
X9601015Y-13518960D01*
X9601015Y-13518960D02*
X9591491Y-13509436D01*
X9591491Y-13509436D02*
X9581967Y-13490388D01*
X9581967Y-13490388D02*
X9572444Y-13452293D01*
X9572444Y-13452293D02*
X9572444Y-13404674D01*
X9572444Y-13404674D02*
X9581967Y-13366579D01*
X9581967Y-13366579D02*
X9591491Y-13347531D01*
X9591491Y-13347531D02*
X9601015Y-13338008D01*
X9601015Y-13338008D02*
X9620063Y-13328484D01*
X9810539Y-13328484D02*
X9829586Y-13328484D01*
X9829586Y-13328484D02*
X9848634Y-13338008D01*
X9848634Y-13338008D02*
X9858158Y-13347531D01*
X9858158Y-13347531D02*
X9867682Y-13366579D01*
X9867682Y-13366579D02*
X9877205Y-13404674D01*
X9877205Y-13404674D02*
X9877205Y-13452293D01*
X9877205Y-13452293D02*
X9867682Y-13490388D01*
X9867682Y-13490388D02*
X9858158Y-13509436D01*
X9858158Y-13509436D02*
X9848634Y-13518960D01*
X9848634Y-13518960D02*
X9829586Y-13528484D01*
X9829586Y-13528484D02*
X9810539Y-13528484D01*
X9810539Y-13528484D02*
X9791491Y-13518960D01*
X9791491Y-13518960D02*
X9781967Y-13509436D01*
X9781967Y-13509436D02*
X9772444Y-13490388D01*
X9772444Y-13490388D02*
X9762920Y-13452293D01*
X9762920Y-13452293D02*
X9762920Y-13404674D01*
X9762920Y-13404674D02*
X9772444Y-13366579D01*
X9772444Y-13366579D02*
X9781967Y-13347531D01*
X9781967Y-13347531D02*
X9791491Y-13338008D01*
X9791491Y-13338008D02*
X9810539Y-13328484D01*
X9962920Y-13528484D02*
X9962920Y-13395150D01*
X9962920Y-13414198D02*
X9972444Y-13404674D01*
X9972444Y-13404674D02*
X9991491Y-13395150D01*
X9991491Y-13395150D02*
X10020063Y-13395150D01*
X10020063Y-13395150D02*
X10039110Y-13404674D01*
X10039110Y-13404674D02*
X10048634Y-13423722D01*
X10048634Y-13423722D02*
X10048634Y-13528484D01*
X10048634Y-13423722D02*
X10058158Y-13404674D01*
X10058158Y-13404674D02*
X10077205Y-13395150D01*
X10077205Y-13395150D02*
X10105777Y-13395150D01*
X10105777Y-13395150D02*
X10124825Y-13404674D01*
X10124825Y-13404674D02*
X10134348Y-13423722D01*
X10134348Y-13423722D02*
X10134348Y-13528484D01*
X10229586Y-13528484D02*
X10229586Y-13395150D01*
X10229586Y-13414198D02*
X10239110Y-13404674D01*
X10239110Y-13404674D02*
X10258158Y-13395150D01*
X10258158Y-13395150D02*
X10286729Y-13395150D01*
X10286729Y-13395150D02*
X10305777Y-13404674D01*
X10305777Y-13404674D02*
X10315301Y-13423722D01*
X10315301Y-13423722D02*
X10315301Y-13528484D01*
X10315301Y-13423722D02*
X10324825Y-13404674D01*
X10324825Y-13404674D02*
X10343872Y-13395150D01*
X10343872Y-13395150D02*
X10372444Y-13395150D01*
X10372444Y-13395150D02*
X10391491Y-13404674D01*
X10391491Y-13404674D02*
X10401015Y-13423722D01*
X10401015Y-13423722D02*
X10401015Y-13528484D01*
X10791491Y-13318960D02*
X10620063Y-13576103D01*
X11048634Y-13328484D02*
X11067682Y-13328484D01*
X11067682Y-13328484D02*
X11086729Y-13338008D01*
X11086729Y-13338008D02*
X11096253Y-13347531D01*
X11096253Y-13347531D02*
X11105777Y-13366579D01*
X11105777Y-13366579D02*
X11115301Y-13404674D01*
X11115301Y-13404674D02*
X11115301Y-13452293D01*
X11115301Y-13452293D02*
X11105777Y-13490388D01*
X11105777Y-13490388D02*
X11096253Y-13509436D01*
X11096253Y-13509436D02*
X11086729Y-13518960D01*
X11086729Y-13518960D02*
X11067682Y-13528484D01*
X11067682Y-13528484D02*
X11048634Y-13528484D01*
X11048634Y-13528484D02*
X11029587Y-13518960D01*
X11029587Y-13518960D02*
X11020063Y-13509436D01*
X11020063Y-13509436D02*
X11010539Y-13490388D01*
X11010539Y-13490388D02*
X11001015Y-13452293D01*
X11001015Y-13452293D02*
X11001015Y-13404674D01*
X11001015Y-13404674D02*
X11010539Y-13366579D01*
X11010539Y-13366579D02*
X11020063Y-13347531D01*
X11020063Y-13347531D02*
X11029587Y-13338008D01*
X11029587Y-13338008D02*
X11048634Y-13328484D01*
X11201015Y-13509436D02*
X11210539Y-13518960D01*
X11210539Y-13518960D02*
X11201015Y-13528484D01*
X11201015Y-13528484D02*
X11191491Y-13518960D01*
X11191491Y-13518960D02*
X11201015Y-13509436D01*
X11201015Y-13509436D02*
X11201015Y-13528484D01*
X11334348Y-13328484D02*
X11353396Y-13328484D01*
X11353396Y-13328484D02*
X11372444Y-13338008D01*
X11372444Y-13338008D02*
X11381967Y-13347531D01*
X11381967Y-13347531D02*
X11391491Y-13366579D01*
X11391491Y-13366579D02*
X11401015Y-13404674D01*
X11401015Y-13404674D02*
X11401015Y-13452293D01*
X11401015Y-13452293D02*
X11391491Y-13490388D01*
X11391491Y-13490388D02*
X11381967Y-13509436D01*
X11381967Y-13509436D02*
X11372444Y-13518960D01*
X11372444Y-13518960D02*
X11353396Y-13528484D01*
X11353396Y-13528484D02*
X11334348Y-13528484D01*
X11334348Y-13528484D02*
X11315301Y-13518960D01*
X11315301Y-13518960D02*
X11305777Y-13509436D01*
X11305777Y-13509436D02*
X11296253Y-13490388D01*
X11296253Y-13490388D02*
X11286729Y-13452293D01*
X11286729Y-13452293D02*
X11286729Y-13404674D01*
X11286729Y-13404674D02*
X11296253Y-13366579D01*
X11296253Y-13366579D02*
X11305777Y-13347531D01*
X11305777Y-13347531D02*
X11315301Y-13338008D01*
X11315301Y-13338008D02*
X11334348Y-13328484D01*
X11591491Y-13528484D02*
X11477206Y-13528484D01*
X11534348Y-13528484D02*
X11534348Y-13328484D01*
X11534348Y-13328484D02*
X11515301Y-13357055D01*
X11515301Y-13357055D02*
X11496253Y-13376103D01*
X11496253Y-13376103D02*
X11477206Y-13385627D01*
X11686729Y-13528484D02*
X11724825Y-13528484D01*
X11724825Y-13528484D02*
X11743872Y-13518960D01*
X11743872Y-13518960D02*
X11753396Y-13509436D01*
X11753396Y-13509436D02*
X11772444Y-13480865D01*
X11772444Y-13480865D02*
X11781967Y-13442769D01*
X11781967Y-13442769D02*
X11781967Y-13366579D01*
X11781967Y-13366579D02*
X11772444Y-13347531D01*
X11772444Y-13347531D02*
X11762920Y-13338008D01*
X11762920Y-13338008D02*
X11743872Y-13328484D01*
X11743872Y-13328484D02*
X11705777Y-13328484D01*
X11705777Y-13328484D02*
X11686729Y-13338008D01*
X11686729Y-13338008D02*
X11677206Y-13347531D01*
X11677206Y-13347531D02*
X11667682Y-13366579D01*
X11667682Y-13366579D02*
X11667682Y-13414198D01*
X11667682Y-13414198D02*
X11677206Y-13433246D01*
X11677206Y-13433246D02*
X11686729Y-13442769D01*
X11686729Y-13442769D02*
X11705777Y-13452293D01*
X11705777Y-13452293D02*
X11743872Y-13452293D01*
X11743872Y-13452293D02*
X11762920Y-13442769D01*
X11762920Y-13442769D02*
X11772444Y-13433246D01*
X11772444Y-13433246D02*
X11781967Y-13414198D01*
X11848634Y-13328484D02*
X11981967Y-13328484D01*
X11981967Y-13328484D02*
X11896253Y-13528484D01*
X12048634Y-13328484D02*
X12048634Y-13366579D01*
X12124825Y-13328484D02*
X12124825Y-13366579D01*
X12420063Y-13604674D02*
X12410539Y-13595150D01*
X12410539Y-13595150D02*
X12391491Y-13566579D01*
X12391491Y-13566579D02*
X12381968Y-13547531D01*
X12381968Y-13547531D02*
X12372444Y-13518960D01*
X12372444Y-13518960D02*
X12362920Y-13471341D01*
X12362920Y-13471341D02*
X12362920Y-13433246D01*
X12362920Y-13433246D02*
X12372444Y-13385627D01*
X12372444Y-13385627D02*
X12381968Y-13357055D01*
X12381968Y-13357055D02*
X12391491Y-13338008D01*
X12391491Y-13338008D02*
X12410539Y-13309436D01*
X12410539Y-13309436D02*
X12420063Y-13299912D01*
X12477206Y-13328484D02*
X12601015Y-13328484D01*
X12601015Y-13328484D02*
X12534348Y-13404674D01*
X12534348Y-13404674D02*
X12562920Y-13404674D01*
X12562920Y-13404674D02*
X12581968Y-13414198D01*
X12581968Y-13414198D02*
X12591491Y-13423722D01*
X12591491Y-13423722D02*
X12601015Y-13442769D01*
X12601015Y-13442769D02*
X12601015Y-13490388D01*
X12601015Y-13490388D02*
X12591491Y-13509436D01*
X12591491Y-13509436D02*
X12581968Y-13518960D01*
X12581968Y-13518960D02*
X12562920Y-13528484D01*
X12562920Y-13528484D02*
X12505777Y-13528484D01*
X12505777Y-13528484D02*
X12486729Y-13518960D01*
X12486729Y-13518960D02*
X12477206Y-13509436D01*
X12677206Y-13347531D02*
X12686729Y-13338008D01*
X12686729Y-13338008D02*
X12705777Y-13328484D01*
X12705777Y-13328484D02*
X12753396Y-13328484D01*
X12753396Y-13328484D02*
X12772444Y-13338008D01*
X12772444Y-13338008D02*
X12781968Y-13347531D01*
X12781968Y-13347531D02*
X12791491Y-13366579D01*
X12791491Y-13366579D02*
X12791491Y-13385627D01*
X12791491Y-13385627D02*
X12781968Y-13414198D01*
X12781968Y-13414198D02*
X12667682Y-13528484D01*
X12667682Y-13528484D02*
X12791491Y-13528484D01*
X13029587Y-13528484D02*
X13029587Y-13328484D01*
X13115301Y-13528484D02*
X13115301Y-13423722D01*
X13115301Y-13423722D02*
X13105777Y-13404674D01*
X13105777Y-13404674D02*
X13086730Y-13395150D01*
X13086730Y-13395150D02*
X13058158Y-13395150D01*
X13058158Y-13395150D02*
X13039110Y-13404674D01*
X13039110Y-13404674D02*
X13029587Y-13414198D01*
X13239110Y-13528484D02*
X13220063Y-13518960D01*
X13220063Y-13518960D02*
X13210539Y-13509436D01*
X13210539Y-13509436D02*
X13201015Y-13490388D01*
X13201015Y-13490388D02*
X13201015Y-13433246D01*
X13201015Y-13433246D02*
X13210539Y-13414198D01*
X13210539Y-13414198D02*
X13220063Y-13404674D01*
X13220063Y-13404674D02*
X13239110Y-13395150D01*
X13239110Y-13395150D02*
X13267682Y-13395150D01*
X13267682Y-13395150D02*
X13286730Y-13404674D01*
X13286730Y-13404674D02*
X13296253Y-13414198D01*
X13296253Y-13414198D02*
X13305777Y-13433246D01*
X13305777Y-13433246D02*
X13305777Y-13490388D01*
X13305777Y-13490388D02*
X13296253Y-13509436D01*
X13296253Y-13509436D02*
X13286730Y-13518960D01*
X13286730Y-13518960D02*
X13267682Y-13528484D01*
X13267682Y-13528484D02*
X13239110Y-13528484D01*
X13420063Y-13528484D02*
X13401015Y-13518960D01*
X13401015Y-13518960D02*
X13391491Y-13499912D01*
X13391491Y-13499912D02*
X13391491Y-13328484D01*
X13572444Y-13518960D02*
X13553396Y-13528484D01*
X13553396Y-13528484D02*
X13515301Y-13528484D01*
X13515301Y-13528484D02*
X13496253Y-13518960D01*
X13496253Y-13518960D02*
X13486730Y-13499912D01*
X13486730Y-13499912D02*
X13486730Y-13423722D01*
X13486730Y-13423722D02*
X13496253Y-13404674D01*
X13496253Y-13404674D02*
X13515301Y-13395150D01*
X13515301Y-13395150D02*
X13553396Y-13395150D01*
X13553396Y-13395150D02*
X13572444Y-13404674D01*
X13572444Y-13404674D02*
X13581968Y-13423722D01*
X13581968Y-13423722D02*
X13581968Y-13442769D01*
X13581968Y-13442769D02*
X13486730Y-13461817D01*
X13658158Y-13518960D02*
X13677206Y-13528484D01*
X13677206Y-13528484D02*
X13715301Y-13528484D01*
X13715301Y-13528484D02*
X13734349Y-13518960D01*
X13734349Y-13518960D02*
X13743872Y-13499912D01*
X13743872Y-13499912D02*
X13743872Y-13490388D01*
X13743872Y-13490388D02*
X13734349Y-13471341D01*
X13734349Y-13471341D02*
X13715301Y-13461817D01*
X13715301Y-13461817D02*
X13686730Y-13461817D01*
X13686730Y-13461817D02*
X13667682Y-13452293D01*
X13667682Y-13452293D02*
X13658158Y-13433246D01*
X13658158Y-13433246D02*
X13658158Y-13423722D01*
X13658158Y-13423722D02*
X13667682Y-13404674D01*
X13667682Y-13404674D02*
X13686730Y-13395150D01*
X13686730Y-13395150D02*
X13715301Y-13395150D01*
X13715301Y-13395150D02*
X13734349Y-13404674D01*
X13810539Y-13604674D02*
X13820063Y-13595150D01*
X13820063Y-13595150D02*
X13839111Y-13566579D01*
X13839111Y-13566579D02*
X13848634Y-13547531D01*
X13848634Y-13547531D02*
X13858158Y-13518960D01*
X13858158Y-13518960D02*
X13867682Y-13471341D01*
X13867682Y-13471341D02*
X13867682Y-13433246D01*
X13867682Y-13433246D02*
X13858158Y-13385627D01*
X13858158Y-13385627D02*
X13848634Y-13357055D01*
X13848634Y-13357055D02*
X13839111Y-13338008D01*
X13839111Y-13338008D02*
X13820063Y-13309436D01*
X13820063Y-13309436D02*
X13810539Y-13299912D01*
X8745000Y-13801000D02*
X8845000Y-13701000D01*
X8745000Y-13601000D01*
X8645000Y-13701000D01*
X8745000Y-13801000D01*
X9086729Y-13592484D02*
X9210539Y-13592484D01*
X9210539Y-13592484D02*
X9143872Y-13668674D01*
X9143872Y-13668674D02*
X9172444Y-13668674D01*
X9172444Y-13668674D02*
X9191491Y-13678198D01*
X9191491Y-13678198D02*
X9201015Y-13687722D01*
X9201015Y-13687722D02*
X9210539Y-13706769D01*
X9210539Y-13706769D02*
X9210539Y-13754388D01*
X9210539Y-13754388D02*
X9201015Y-13773436D01*
X9201015Y-13773436D02*
X9191491Y-13782960D01*
X9191491Y-13782960D02*
X9172444Y-13792484D01*
X9172444Y-13792484D02*
X9115301Y-13792484D01*
X9115301Y-13792484D02*
X9096253Y-13782960D01*
X9096253Y-13782960D02*
X9086729Y-13773436D01*
X9296253Y-13773436D02*
X9305777Y-13782960D01*
X9305777Y-13782960D02*
X9296253Y-13792484D01*
X9296253Y-13792484D02*
X9286729Y-13782960D01*
X9286729Y-13782960D02*
X9296253Y-13773436D01*
X9296253Y-13773436D02*
X9296253Y-13792484D01*
X9381967Y-13611531D02*
X9391491Y-13602008D01*
X9391491Y-13602008D02*
X9410539Y-13592484D01*
X9410539Y-13592484D02*
X9458158Y-13592484D01*
X9458158Y-13592484D02*
X9477205Y-13602008D01*
X9477205Y-13602008D02*
X9486729Y-13611531D01*
X9486729Y-13611531D02*
X9496253Y-13630579D01*
X9496253Y-13630579D02*
X9496253Y-13649627D01*
X9496253Y-13649627D02*
X9486729Y-13678198D01*
X9486729Y-13678198D02*
X9372444Y-13792484D01*
X9372444Y-13792484D02*
X9496253Y-13792484D01*
X9620063Y-13592484D02*
X9639110Y-13592484D01*
X9639110Y-13592484D02*
X9658158Y-13602008D01*
X9658158Y-13602008D02*
X9667682Y-13611531D01*
X9667682Y-13611531D02*
X9677205Y-13630579D01*
X9677205Y-13630579D02*
X9686729Y-13668674D01*
X9686729Y-13668674D02*
X9686729Y-13716293D01*
X9686729Y-13716293D02*
X9677205Y-13754388D01*
X9677205Y-13754388D02*
X9667682Y-13773436D01*
X9667682Y-13773436D02*
X9658158Y-13782960D01*
X9658158Y-13782960D02*
X9639110Y-13792484D01*
X9639110Y-13792484D02*
X9620063Y-13792484D01*
X9620063Y-13792484D02*
X9601015Y-13782960D01*
X9601015Y-13782960D02*
X9591491Y-13773436D01*
X9591491Y-13773436D02*
X9581967Y-13754388D01*
X9581967Y-13754388D02*
X9572444Y-13716293D01*
X9572444Y-13716293D02*
X9572444Y-13668674D01*
X9572444Y-13668674D02*
X9581967Y-13630579D01*
X9581967Y-13630579D02*
X9591491Y-13611531D01*
X9591491Y-13611531D02*
X9601015Y-13602008D01*
X9601015Y-13602008D02*
X9620063Y-13592484D01*
X9810539Y-13592484D02*
X9829586Y-13592484D01*
X9829586Y-13592484D02*
X9848634Y-13602008D01*
X9848634Y-13602008D02*
X9858158Y-13611531D01*
X9858158Y-13611531D02*
X9867682Y-13630579D01*
X9867682Y-13630579D02*
X9877205Y-13668674D01*
X9877205Y-13668674D02*
X9877205Y-13716293D01*
X9877205Y-13716293D02*
X9867682Y-13754388D01*
X9867682Y-13754388D02*
X9858158Y-13773436D01*
X9858158Y-13773436D02*
X9848634Y-13782960D01*
X9848634Y-13782960D02*
X9829586Y-13792484D01*
X9829586Y-13792484D02*
X9810539Y-13792484D01*
X9810539Y-13792484D02*
X9791491Y-13782960D01*
X9791491Y-13782960D02*
X9781967Y-13773436D01*
X9781967Y-13773436D02*
X9772444Y-13754388D01*
X9772444Y-13754388D02*
X9762920Y-13716293D01*
X9762920Y-13716293D02*
X9762920Y-13668674D01*
X9762920Y-13668674D02*
X9772444Y-13630579D01*
X9772444Y-13630579D02*
X9781967Y-13611531D01*
X9781967Y-13611531D02*
X9791491Y-13602008D01*
X9791491Y-13602008D02*
X9810539Y-13592484D01*
X9962920Y-13792484D02*
X9962920Y-13659150D01*
X9962920Y-13678198D02*
X9972444Y-13668674D01*
X9972444Y-13668674D02*
X9991491Y-13659150D01*
X9991491Y-13659150D02*
X10020063Y-13659150D01*
X10020063Y-13659150D02*
X10039110Y-13668674D01*
X10039110Y-13668674D02*
X10048634Y-13687722D01*
X10048634Y-13687722D02*
X10048634Y-13792484D01*
X10048634Y-13687722D02*
X10058158Y-13668674D01*
X10058158Y-13668674D02*
X10077205Y-13659150D01*
X10077205Y-13659150D02*
X10105777Y-13659150D01*
X10105777Y-13659150D02*
X10124825Y-13668674D01*
X10124825Y-13668674D02*
X10134348Y-13687722D01*
X10134348Y-13687722D02*
X10134348Y-13792484D01*
X10229586Y-13792484D02*
X10229586Y-13659150D01*
X10229586Y-13678198D02*
X10239110Y-13668674D01*
X10239110Y-13668674D02*
X10258158Y-13659150D01*
X10258158Y-13659150D02*
X10286729Y-13659150D01*
X10286729Y-13659150D02*
X10305777Y-13668674D01*
X10305777Y-13668674D02*
X10315301Y-13687722D01*
X10315301Y-13687722D02*
X10315301Y-13792484D01*
X10315301Y-13687722D02*
X10324825Y-13668674D01*
X10324825Y-13668674D02*
X10343872Y-13659150D01*
X10343872Y-13659150D02*
X10372444Y-13659150D01*
X10372444Y-13659150D02*
X10391491Y-13668674D01*
X10391491Y-13668674D02*
X10401015Y-13687722D01*
X10401015Y-13687722D02*
X10401015Y-13792484D01*
X10791491Y-13582960D02*
X10620063Y-13840103D01*
X11048634Y-13592484D02*
X11067682Y-13592484D01*
X11067682Y-13592484D02*
X11086729Y-13602008D01*
X11086729Y-13602008D02*
X11096253Y-13611531D01*
X11096253Y-13611531D02*
X11105777Y-13630579D01*
X11105777Y-13630579D02*
X11115301Y-13668674D01*
X11115301Y-13668674D02*
X11115301Y-13716293D01*
X11115301Y-13716293D02*
X11105777Y-13754388D01*
X11105777Y-13754388D02*
X11096253Y-13773436D01*
X11096253Y-13773436D02*
X11086729Y-13782960D01*
X11086729Y-13782960D02*
X11067682Y-13792484D01*
X11067682Y-13792484D02*
X11048634Y-13792484D01*
X11048634Y-13792484D02*
X11029587Y-13782960D01*
X11029587Y-13782960D02*
X11020063Y-13773436D01*
X11020063Y-13773436D02*
X11010539Y-13754388D01*
X11010539Y-13754388D02*
X11001015Y-13716293D01*
X11001015Y-13716293D02*
X11001015Y-13668674D01*
X11001015Y-13668674D02*
X11010539Y-13630579D01*
X11010539Y-13630579D02*
X11020063Y-13611531D01*
X11020063Y-13611531D02*
X11029587Y-13602008D01*
X11029587Y-13602008D02*
X11048634Y-13592484D01*
X11201015Y-13773436D02*
X11210539Y-13782960D01*
X11210539Y-13782960D02*
X11201015Y-13792484D01*
X11201015Y-13792484D02*
X11191491Y-13782960D01*
X11191491Y-13782960D02*
X11201015Y-13773436D01*
X11201015Y-13773436D02*
X11201015Y-13792484D01*
X11401015Y-13792484D02*
X11286729Y-13792484D01*
X11343872Y-13792484D02*
X11343872Y-13592484D01*
X11343872Y-13592484D02*
X11324825Y-13621055D01*
X11324825Y-13621055D02*
X11305777Y-13640103D01*
X11305777Y-13640103D02*
X11286729Y-13649627D01*
X11477206Y-13611531D02*
X11486729Y-13602008D01*
X11486729Y-13602008D02*
X11505777Y-13592484D01*
X11505777Y-13592484D02*
X11553396Y-13592484D01*
X11553396Y-13592484D02*
X11572444Y-13602008D01*
X11572444Y-13602008D02*
X11581967Y-13611531D01*
X11581967Y-13611531D02*
X11591491Y-13630579D01*
X11591491Y-13630579D02*
X11591491Y-13649627D01*
X11591491Y-13649627D02*
X11581967Y-13678198D01*
X11581967Y-13678198D02*
X11467682Y-13792484D01*
X11467682Y-13792484D02*
X11591491Y-13792484D01*
X11762920Y-13592484D02*
X11724825Y-13592484D01*
X11724825Y-13592484D02*
X11705777Y-13602008D01*
X11705777Y-13602008D02*
X11696253Y-13611531D01*
X11696253Y-13611531D02*
X11677206Y-13640103D01*
X11677206Y-13640103D02*
X11667682Y-13678198D01*
X11667682Y-13678198D02*
X11667682Y-13754388D01*
X11667682Y-13754388D02*
X11677206Y-13773436D01*
X11677206Y-13773436D02*
X11686729Y-13782960D01*
X11686729Y-13782960D02*
X11705777Y-13792484D01*
X11705777Y-13792484D02*
X11743872Y-13792484D01*
X11743872Y-13792484D02*
X11762920Y-13782960D01*
X11762920Y-13782960D02*
X11772444Y-13773436D01*
X11772444Y-13773436D02*
X11781967Y-13754388D01*
X11781967Y-13754388D02*
X11781967Y-13706769D01*
X11781967Y-13706769D02*
X11772444Y-13687722D01*
X11772444Y-13687722D02*
X11762920Y-13678198D01*
X11762920Y-13678198D02*
X11743872Y-13668674D01*
X11743872Y-13668674D02*
X11705777Y-13668674D01*
X11705777Y-13668674D02*
X11686729Y-13678198D01*
X11686729Y-13678198D02*
X11677206Y-13687722D01*
X11677206Y-13687722D02*
X11667682Y-13706769D01*
X11905777Y-13592484D02*
X11924825Y-13592484D01*
X11924825Y-13592484D02*
X11943872Y-13602008D01*
X11943872Y-13602008D02*
X11953396Y-13611531D01*
X11953396Y-13611531D02*
X11962920Y-13630579D01*
X11962920Y-13630579D02*
X11972444Y-13668674D01*
X11972444Y-13668674D02*
X11972444Y-13716293D01*
X11972444Y-13716293D02*
X11962920Y-13754388D01*
X11962920Y-13754388D02*
X11953396Y-13773436D01*
X11953396Y-13773436D02*
X11943872Y-13782960D01*
X11943872Y-13782960D02*
X11924825Y-13792484D01*
X11924825Y-13792484D02*
X11905777Y-13792484D01*
X11905777Y-13792484D02*
X11886729Y-13782960D01*
X11886729Y-13782960D02*
X11877206Y-13773436D01*
X11877206Y-13773436D02*
X11867682Y-13754388D01*
X11867682Y-13754388D02*
X11858158Y-13716293D01*
X11858158Y-13716293D02*
X11858158Y-13668674D01*
X11858158Y-13668674D02*
X11867682Y-13630579D01*
X11867682Y-13630579D02*
X11877206Y-13611531D01*
X11877206Y-13611531D02*
X11886729Y-13602008D01*
X11886729Y-13602008D02*
X11905777Y-13592484D01*
X12048634Y-13592484D02*
X12048634Y-13630579D01*
X12124825Y-13592484D02*
X12124825Y-13630579D01*
X12420063Y-13868674D02*
X12410539Y-13859150D01*
X12410539Y-13859150D02*
X12391491Y-13830579D01*
X12391491Y-13830579D02*
X12381968Y-13811531D01*
X12381968Y-13811531D02*
X12372444Y-13782960D01*
X12372444Y-13782960D02*
X12362920Y-13735341D01*
X12362920Y-13735341D02*
X12362920Y-13697246D01*
X12362920Y-13697246D02*
X12372444Y-13649627D01*
X12372444Y-13649627D02*
X12381968Y-13621055D01*
X12381968Y-13621055D02*
X12391491Y-13602008D01*
X12391491Y-13602008D02*
X12410539Y-13573436D01*
X12410539Y-13573436D02*
X12420063Y-13563912D01*
X12581968Y-13659150D02*
X12581968Y-13792484D01*
X12534348Y-13582960D02*
X12486729Y-13725817D01*
X12486729Y-13725817D02*
X12610539Y-13725817D01*
X12839110Y-13792484D02*
X12839110Y-13592484D01*
X12924825Y-13792484D02*
X12924825Y-13687722D01*
X12924825Y-13687722D02*
X12915301Y-13668674D01*
X12915301Y-13668674D02*
X12896253Y-13659150D01*
X12896253Y-13659150D02*
X12867682Y-13659150D01*
X12867682Y-13659150D02*
X12848634Y-13668674D01*
X12848634Y-13668674D02*
X12839110Y-13678198D01*
X13048634Y-13792484D02*
X13029587Y-13782960D01*
X13029587Y-13782960D02*
X13020063Y-13773436D01*
X13020063Y-13773436D02*
X13010539Y-13754388D01*
X13010539Y-13754388D02*
X13010539Y-13697246D01*
X13010539Y-13697246D02*
X13020063Y-13678198D01*
X13020063Y-13678198D02*
X13029587Y-13668674D01*
X13029587Y-13668674D02*
X13048634Y-13659150D01*
X13048634Y-13659150D02*
X13077206Y-13659150D01*
X13077206Y-13659150D02*
X13096253Y-13668674D01*
X13096253Y-13668674D02*
X13105777Y-13678198D01*
X13105777Y-13678198D02*
X13115301Y-13697246D01*
X13115301Y-13697246D02*
X13115301Y-13754388D01*
X13115301Y-13754388D02*
X13105777Y-13773436D01*
X13105777Y-13773436D02*
X13096253Y-13782960D01*
X13096253Y-13782960D02*
X13077206Y-13792484D01*
X13077206Y-13792484D02*
X13048634Y-13792484D01*
X13229587Y-13792484D02*
X13210539Y-13782960D01*
X13210539Y-13782960D02*
X13201015Y-13763912D01*
X13201015Y-13763912D02*
X13201015Y-13592484D01*
X13381968Y-13782960D02*
X13362920Y-13792484D01*
X13362920Y-13792484D02*
X13324825Y-13792484D01*
X13324825Y-13792484D02*
X13305777Y-13782960D01*
X13305777Y-13782960D02*
X13296253Y-13763912D01*
X13296253Y-13763912D02*
X13296253Y-13687722D01*
X13296253Y-13687722D02*
X13305777Y-13668674D01*
X13305777Y-13668674D02*
X13324825Y-13659150D01*
X13324825Y-13659150D02*
X13362920Y-13659150D01*
X13362920Y-13659150D02*
X13381968Y-13668674D01*
X13381968Y-13668674D02*
X13391491Y-13687722D01*
X13391491Y-13687722D02*
X13391491Y-13706769D01*
X13391491Y-13706769D02*
X13296253Y-13725817D01*
X13467682Y-13782960D02*
X13486730Y-13792484D01*
X13486730Y-13792484D02*
X13524825Y-13792484D01*
X13524825Y-13792484D02*
X13543872Y-13782960D01*
X13543872Y-13782960D02*
X13553396Y-13763912D01*
X13553396Y-13763912D02*
X13553396Y-13754388D01*
X13553396Y-13754388D02*
X13543872Y-13735341D01*
X13543872Y-13735341D02*
X13524825Y-13725817D01*
X13524825Y-13725817D02*
X13496253Y-13725817D01*
X13496253Y-13725817D02*
X13477206Y-13716293D01*
X13477206Y-13716293D02*
X13467682Y-13697246D01*
X13467682Y-13697246D02*
X13467682Y-13687722D01*
X13467682Y-13687722D02*
X13477206Y-13668674D01*
X13477206Y-13668674D02*
X13496253Y-13659150D01*
X13496253Y-13659150D02*
X13524825Y-13659150D01*
X13524825Y-13659150D02*
X13543872Y-13668674D01*
X13620063Y-13868674D02*
X13629587Y-13859150D01*
X13629587Y-13859150D02*
X13648634Y-13830579D01*
X13648634Y-13830579D02*
X13658158Y-13811531D01*
X13658158Y-13811531D02*
X13667682Y-13782960D01*
X13667682Y-13782960D02*
X13677206Y-13735341D01*
X13677206Y-13735341D02*
X13677206Y-13697246D01*
X13677206Y-13697246D02*
X13667682Y-13649627D01*
X13667682Y-13649627D02*
X13658158Y-13621055D01*
X13658158Y-13621055D02*
X13648634Y-13602008D01*
X13648634Y-13602008D02*
X13629587Y-13573436D01*
X13629587Y-13573436D02*
X13620063Y-13563912D01*
M02*
