G04 #@! TF.GenerationSoftware,KiCad,Pcbnew,7.0.8*
G04 #@! TF.CreationDate,2023-11-12T21:23:09-08:00*
G04 #@! TF.ProjectId,10p-battery-holder,3130702d-6261-4747-9465-72792d686f6c,V1*
G04 #@! TF.SameCoordinates,Original*
G04 #@! TF.FileFunction,Soldermask,Top*
G04 #@! TF.FilePolarity,Negative*
%FSLAX46Y46*%
G04 Gerber Fmt 4.6, Leading zero omitted, Abs format (unit mm)*
G04 Created by KiCad (PCBNEW 7.0.8) date 2023-11-12 21:23:09*
%MOMM*%
%LPD*%
G01*
G04 APERTURE LIST*
G04 APERTURE END LIST*
G36*
X44084617Y-123304752D02*
G01*
X44173237Y-123304752D01*
X44267863Y-123315042D01*
X44358286Y-123320121D01*
X44436052Y-123333334D01*
X44517695Y-123342213D01*
X44617132Y-123364100D01*
X44712067Y-123380231D01*
X44782190Y-123400432D01*
X44856078Y-123416697D01*
X44958904Y-123451343D01*
X45056893Y-123479573D01*
X45118829Y-123505227D01*
X45184420Y-123527328D01*
X45289066Y-123575743D01*
X45388428Y-123616900D01*
X45441885Y-123646444D01*
X45498879Y-123672813D01*
X45603601Y-123735822D01*
X45702503Y-123790483D01*
X45747429Y-123822360D01*
X45795766Y-123851443D01*
X45898711Y-123929700D01*
X45995167Y-123998139D01*
X46031765Y-124030845D01*
X46071599Y-124061126D01*
X46170795Y-124155090D01*
X46262742Y-124237258D01*
X46291434Y-124269364D01*
X46323139Y-124299397D01*
X46416559Y-124409380D01*
X46501861Y-124504833D01*
X46523285Y-124535028D01*
X46547451Y-124563478D01*
X46633041Y-124689715D01*
X46709517Y-124797497D01*
X46724498Y-124824603D01*
X46741891Y-124850256D01*
X46817594Y-124993048D01*
X46883100Y-125111572D01*
X46892633Y-125134588D01*
X46904189Y-125156384D01*
X46968007Y-125316555D01*
X47020427Y-125443107D01*
X47025640Y-125461202D01*
X47032433Y-125478251D01*
X47082458Y-125658425D01*
X47119769Y-125787933D01*
X47121901Y-125800483D01*
X47125129Y-125812108D01*
X47159534Y-126021976D01*
X47179879Y-126141714D01*
X47180251Y-126148344D01*
X47181183Y-126154027D01*
X47198292Y-126469602D01*
X47200000Y-126500000D01*
X47198292Y-126530400D01*
X47181183Y-126845972D01*
X47180251Y-126851654D01*
X47179879Y-126858286D01*
X47159530Y-126978050D01*
X47125129Y-127187891D01*
X47121901Y-127199514D01*
X47119769Y-127212067D01*
X47082451Y-127341601D01*
X47032433Y-127521748D01*
X47025641Y-127538794D01*
X47020427Y-127556893D01*
X46967997Y-127683469D01*
X46904189Y-127843615D01*
X46892635Y-127865407D01*
X46883100Y-127888428D01*
X46817581Y-128006975D01*
X46741891Y-128149743D01*
X46724501Y-128175390D01*
X46709517Y-128202503D01*
X46633026Y-128310306D01*
X46547451Y-128436521D01*
X46523290Y-128464965D01*
X46501861Y-128495167D01*
X46416542Y-128590638D01*
X46323139Y-128700602D01*
X46291439Y-128730628D01*
X46262742Y-128762742D01*
X46170777Y-128844926D01*
X46071599Y-128938873D01*
X46031772Y-128969147D01*
X45995167Y-129001861D01*
X45898692Y-129070313D01*
X45795766Y-129148556D01*
X45747439Y-129177633D01*
X45702503Y-129209517D01*
X45603581Y-129264188D01*
X45498879Y-129327186D01*
X45441896Y-129353549D01*
X45388428Y-129383100D01*
X45289046Y-129424265D01*
X45184420Y-129472671D01*
X45118842Y-129494766D01*
X45056893Y-129520427D01*
X44958884Y-129548662D01*
X44856078Y-129583302D01*
X44782204Y-129599562D01*
X44712067Y-129619769D01*
X44617112Y-129635902D01*
X44517695Y-129657786D01*
X44436064Y-129666663D01*
X44358286Y-129679879D01*
X44267858Y-129684957D01*
X44173237Y-129695248D01*
X44084617Y-129695248D01*
X44000000Y-129700000D01*
X43915383Y-129695248D01*
X43826763Y-129695248D01*
X43732141Y-129684957D01*
X43641714Y-129679879D01*
X43563936Y-129666664D01*
X43482304Y-129657786D01*
X43382883Y-129635901D01*
X43287933Y-129619769D01*
X43217798Y-129599563D01*
X43143921Y-129583302D01*
X43041109Y-129548660D01*
X42943107Y-129520427D01*
X42881162Y-129494768D01*
X42815579Y-129472671D01*
X42710944Y-129424261D01*
X42611572Y-129383100D01*
X42558108Y-129353552D01*
X42501120Y-129327186D01*
X42396406Y-129264182D01*
X42297497Y-129209517D01*
X42252566Y-129177637D01*
X42204233Y-129148556D01*
X42101292Y-129070302D01*
X42004833Y-129001861D01*
X41968232Y-128969153D01*
X41928400Y-128938873D01*
X41829205Y-128844910D01*
X41737258Y-128762742D01*
X41708565Y-128730635D01*
X41676860Y-128700602D01*
X41583437Y-128590616D01*
X41498139Y-128495167D01*
X41476714Y-128464972D01*
X41452548Y-128436521D01*
X41366950Y-128310274D01*
X41290483Y-128202503D01*
X41275503Y-128175398D01*
X41258108Y-128149743D01*
X41182394Y-128006930D01*
X41116900Y-127888428D01*
X41107367Y-127865415D01*
X41095810Y-127843615D01*
X41031976Y-127683405D01*
X40979573Y-127556893D01*
X40974361Y-127538803D01*
X40967566Y-127521748D01*
X40917521Y-127341505D01*
X40880231Y-127212067D01*
X40878099Y-127199523D01*
X40874870Y-127187891D01*
X40840441Y-126977882D01*
X40820121Y-126858286D01*
X40819749Y-126851663D01*
X40818816Y-126845972D01*
X40801678Y-126529884D01*
X40800000Y-126500000D01*
X40801678Y-126470117D01*
X40818816Y-126154027D01*
X40819749Y-126148334D01*
X40820121Y-126141714D01*
X40840436Y-126022144D01*
X40874870Y-125812108D01*
X40878100Y-125800474D01*
X40880231Y-125787933D01*
X40917513Y-125658520D01*
X40967566Y-125478251D01*
X40974362Y-125461193D01*
X40979573Y-125443107D01*
X41031966Y-125316619D01*
X41095810Y-125156384D01*
X41107369Y-125134579D01*
X41116900Y-125111572D01*
X41182381Y-124993092D01*
X41258108Y-124850256D01*
X41275506Y-124824595D01*
X41290483Y-124797497D01*
X41366935Y-124689747D01*
X41452548Y-124563478D01*
X41476719Y-124535021D01*
X41498139Y-124504833D01*
X41583420Y-124409402D01*
X41676860Y-124299397D01*
X41708571Y-124269358D01*
X41737258Y-124237258D01*
X41829186Y-124155105D01*
X41928400Y-124061126D01*
X41968240Y-124030840D01*
X42004833Y-123998139D01*
X42101273Y-123929711D01*
X42204233Y-123851443D01*
X42252575Y-123822356D01*
X42297497Y-123790483D01*
X42396385Y-123735829D01*
X42501120Y-123672813D01*
X42558120Y-123646441D01*
X42611572Y-123616900D01*
X42710923Y-123575747D01*
X42815579Y-123527328D01*
X42881175Y-123505226D01*
X42943107Y-123479573D01*
X43041088Y-123451345D01*
X43143921Y-123416697D01*
X43217813Y-123400432D01*
X43287933Y-123380231D01*
X43382863Y-123364101D01*
X43482304Y-123342213D01*
X43563948Y-123333333D01*
X43641714Y-123320121D01*
X43732135Y-123315042D01*
X43826763Y-123304752D01*
X43915383Y-123304752D01*
X44000000Y-123300000D01*
X44084617Y-123304752D01*
G37*
G36*
X261084617Y-123304752D02*
G01*
X261173237Y-123304752D01*
X261267863Y-123315042D01*
X261358286Y-123320121D01*
X261436052Y-123333334D01*
X261517695Y-123342213D01*
X261617132Y-123364100D01*
X261712067Y-123380231D01*
X261782190Y-123400432D01*
X261856078Y-123416697D01*
X261958904Y-123451343D01*
X262056893Y-123479573D01*
X262118829Y-123505227D01*
X262184420Y-123527328D01*
X262289066Y-123575743D01*
X262388428Y-123616900D01*
X262441885Y-123646444D01*
X262498879Y-123672813D01*
X262603601Y-123735822D01*
X262702503Y-123790483D01*
X262747429Y-123822360D01*
X262795766Y-123851443D01*
X262898711Y-123929700D01*
X262995167Y-123998139D01*
X263031765Y-124030845D01*
X263071599Y-124061126D01*
X263170795Y-124155090D01*
X263262742Y-124237258D01*
X263291434Y-124269364D01*
X263323139Y-124299397D01*
X263416559Y-124409380D01*
X263501861Y-124504833D01*
X263523285Y-124535028D01*
X263547451Y-124563478D01*
X263633041Y-124689715D01*
X263709517Y-124797497D01*
X263724498Y-124824603D01*
X263741891Y-124850256D01*
X263817594Y-124993048D01*
X263883100Y-125111572D01*
X263892633Y-125134588D01*
X263904189Y-125156384D01*
X263968007Y-125316555D01*
X264020427Y-125443107D01*
X264025640Y-125461202D01*
X264032433Y-125478251D01*
X264082458Y-125658425D01*
X264119769Y-125787933D01*
X264121901Y-125800483D01*
X264125129Y-125812108D01*
X264159534Y-126021976D01*
X264179879Y-126141714D01*
X264180251Y-126148344D01*
X264181183Y-126154027D01*
X264198292Y-126469602D01*
X264200000Y-126500000D01*
X264198292Y-126530400D01*
X264181183Y-126845972D01*
X264180251Y-126851654D01*
X264179879Y-126858286D01*
X264159530Y-126978050D01*
X264125129Y-127187891D01*
X264121901Y-127199514D01*
X264119769Y-127212067D01*
X264082451Y-127341601D01*
X264032433Y-127521748D01*
X264025641Y-127538794D01*
X264020427Y-127556893D01*
X263967997Y-127683469D01*
X263904189Y-127843615D01*
X263892635Y-127865407D01*
X263883100Y-127888428D01*
X263817581Y-128006975D01*
X263741891Y-128149743D01*
X263724501Y-128175390D01*
X263709517Y-128202503D01*
X263633026Y-128310306D01*
X263547451Y-128436521D01*
X263523290Y-128464965D01*
X263501861Y-128495167D01*
X263416542Y-128590638D01*
X263323139Y-128700602D01*
X263291439Y-128730628D01*
X263262742Y-128762742D01*
X263170777Y-128844926D01*
X263071599Y-128938873D01*
X263031772Y-128969147D01*
X262995167Y-129001861D01*
X262898692Y-129070313D01*
X262795766Y-129148556D01*
X262747439Y-129177633D01*
X262702503Y-129209517D01*
X262603581Y-129264188D01*
X262498879Y-129327186D01*
X262441896Y-129353549D01*
X262388428Y-129383100D01*
X262289046Y-129424265D01*
X262184420Y-129472671D01*
X262118842Y-129494766D01*
X262056893Y-129520427D01*
X261958884Y-129548662D01*
X261856078Y-129583302D01*
X261782204Y-129599562D01*
X261712067Y-129619769D01*
X261617112Y-129635902D01*
X261517695Y-129657786D01*
X261436064Y-129666663D01*
X261358286Y-129679879D01*
X261267858Y-129684957D01*
X261173237Y-129695248D01*
X261084617Y-129695248D01*
X261000000Y-129700000D01*
X260915383Y-129695248D01*
X260826763Y-129695248D01*
X260732141Y-129684957D01*
X260641714Y-129679879D01*
X260563936Y-129666664D01*
X260482304Y-129657786D01*
X260382883Y-129635901D01*
X260287933Y-129619769D01*
X260217798Y-129599563D01*
X260143921Y-129583302D01*
X260041109Y-129548660D01*
X259943107Y-129520427D01*
X259881162Y-129494768D01*
X259815579Y-129472671D01*
X259710944Y-129424261D01*
X259611572Y-129383100D01*
X259558108Y-129353552D01*
X259501120Y-129327186D01*
X259396406Y-129264182D01*
X259297497Y-129209517D01*
X259252566Y-129177637D01*
X259204233Y-129148556D01*
X259101292Y-129070302D01*
X259004833Y-129001861D01*
X258968232Y-128969153D01*
X258928400Y-128938873D01*
X258829205Y-128844910D01*
X258737258Y-128762742D01*
X258708565Y-128730635D01*
X258676860Y-128700602D01*
X258583437Y-128590616D01*
X258498139Y-128495167D01*
X258476714Y-128464972D01*
X258452548Y-128436521D01*
X258366950Y-128310274D01*
X258290483Y-128202503D01*
X258275503Y-128175398D01*
X258258108Y-128149743D01*
X258182394Y-128006930D01*
X258116900Y-127888428D01*
X258107367Y-127865415D01*
X258095810Y-127843615D01*
X258031976Y-127683405D01*
X257979573Y-127556893D01*
X257974361Y-127538803D01*
X257967566Y-127521748D01*
X257917521Y-127341505D01*
X257880231Y-127212067D01*
X257878099Y-127199523D01*
X257874870Y-127187891D01*
X257840441Y-126977882D01*
X257820121Y-126858286D01*
X257819749Y-126851663D01*
X257818816Y-126845972D01*
X257801678Y-126529884D01*
X257800000Y-126500000D01*
X257801678Y-126470117D01*
X257818816Y-126154027D01*
X257819749Y-126148334D01*
X257820121Y-126141714D01*
X257840436Y-126022144D01*
X257874870Y-125812108D01*
X257878100Y-125800474D01*
X257880231Y-125787933D01*
X257917513Y-125658520D01*
X257967566Y-125478251D01*
X257974362Y-125461193D01*
X257979573Y-125443107D01*
X258031966Y-125316619D01*
X258095810Y-125156384D01*
X258107369Y-125134579D01*
X258116900Y-125111572D01*
X258182381Y-124993092D01*
X258258108Y-124850256D01*
X258275506Y-124824595D01*
X258290483Y-124797497D01*
X258366935Y-124689747D01*
X258452548Y-124563478D01*
X258476719Y-124535021D01*
X258498139Y-124504833D01*
X258583420Y-124409402D01*
X258676860Y-124299397D01*
X258708571Y-124269358D01*
X258737258Y-124237258D01*
X258829186Y-124155105D01*
X258928400Y-124061126D01*
X258968240Y-124030840D01*
X259004833Y-123998139D01*
X259101273Y-123929711D01*
X259204233Y-123851443D01*
X259252575Y-123822356D01*
X259297497Y-123790483D01*
X259396385Y-123735829D01*
X259501120Y-123672813D01*
X259558120Y-123646441D01*
X259611572Y-123616900D01*
X259710923Y-123575747D01*
X259815579Y-123527328D01*
X259881175Y-123505226D01*
X259943107Y-123479573D01*
X260041088Y-123451345D01*
X260143921Y-123416697D01*
X260217813Y-123400432D01*
X260287933Y-123380231D01*
X260382863Y-123364101D01*
X260482304Y-123342213D01*
X260563948Y-123333333D01*
X260641714Y-123320121D01*
X260732135Y-123315042D01*
X260826763Y-123304752D01*
X260915383Y-123304752D01*
X261000000Y-123300000D01*
X261084617Y-123304752D01*
G37*
G36*
X64936632Y-124665082D02*
G01*
X65149592Y-124718743D01*
X65349548Y-124809567D01*
X65530073Y-124934635D01*
X65685365Y-125089927D01*
X65810433Y-125270452D01*
X65901257Y-125470408D01*
X65954918Y-125683368D01*
X65970000Y-125875000D01*
X65970000Y-128125000D01*
X65954918Y-128316632D01*
X65901257Y-128529592D01*
X65810433Y-128729548D01*
X65685365Y-128910073D01*
X65530073Y-129065365D01*
X65349548Y-129190433D01*
X65149592Y-129281257D01*
X64936632Y-129334918D01*
X64745000Y-129350000D01*
X59495000Y-129350000D01*
X59303368Y-129334918D01*
X59090408Y-129281257D01*
X58890452Y-129190433D01*
X58709927Y-129065365D01*
X58554635Y-128910073D01*
X58429567Y-128729548D01*
X58338743Y-128529592D01*
X58285082Y-128316632D01*
X58270000Y-128125000D01*
X58270000Y-125875000D01*
X58285082Y-125683368D01*
X58338743Y-125470408D01*
X58429567Y-125270452D01*
X58554635Y-125089927D01*
X58709927Y-124934635D01*
X58890452Y-124809567D01*
X59090408Y-124718743D01*
X59303368Y-124665082D01*
X59495000Y-124650000D01*
X64745000Y-124650000D01*
X64936632Y-124665082D01*
G37*
G36*
X83696632Y-124665082D02*
G01*
X83909592Y-124718743D01*
X84109548Y-124809567D01*
X84290073Y-124934635D01*
X84445365Y-125089927D01*
X84570433Y-125270452D01*
X84661257Y-125470408D01*
X84714918Y-125683368D01*
X84730000Y-125875000D01*
X84730000Y-128125000D01*
X84714918Y-128316632D01*
X84661257Y-128529592D01*
X84570433Y-128729548D01*
X84445365Y-128910073D01*
X84290073Y-129065365D01*
X84109548Y-129190433D01*
X83909592Y-129281257D01*
X83696632Y-129334918D01*
X83505000Y-129350000D01*
X78255000Y-129350000D01*
X78063368Y-129334918D01*
X77850408Y-129281257D01*
X77650452Y-129190433D01*
X77469927Y-129065365D01*
X77314635Y-128910073D01*
X77189567Y-128729548D01*
X77098743Y-128529592D01*
X77045082Y-128316632D01*
X77030000Y-128125000D01*
X77030000Y-125875000D01*
X77045082Y-125683368D01*
X77098743Y-125470408D01*
X77189567Y-125270452D01*
X77314635Y-125089927D01*
X77469927Y-124934635D01*
X77650452Y-124809567D01*
X77850408Y-124718743D01*
X78063368Y-124665082D01*
X78255000Y-124650000D01*
X83505000Y-124650000D01*
X83696632Y-124665082D01*
G37*
G36*
X105436632Y-124665082D02*
G01*
X105649592Y-124718743D01*
X105849548Y-124809567D01*
X106030073Y-124934635D01*
X106185365Y-125089927D01*
X106310433Y-125270452D01*
X106401257Y-125470408D01*
X106454918Y-125683368D01*
X106470000Y-125875000D01*
X106470000Y-128125000D01*
X106454918Y-128316632D01*
X106401257Y-128529592D01*
X106310433Y-128729548D01*
X106185365Y-128910073D01*
X106030073Y-129065365D01*
X105849548Y-129190433D01*
X105649592Y-129281257D01*
X105436632Y-129334918D01*
X105245000Y-129350000D01*
X99995000Y-129350000D01*
X99803368Y-129334918D01*
X99590408Y-129281257D01*
X99390452Y-129190433D01*
X99209927Y-129065365D01*
X99054635Y-128910073D01*
X98929567Y-128729548D01*
X98838743Y-128529592D01*
X98785082Y-128316632D01*
X98770000Y-128125000D01*
X98770000Y-125875000D01*
X98785082Y-125683368D01*
X98838743Y-125470408D01*
X98929567Y-125270452D01*
X99054635Y-125089927D01*
X99209927Y-124934635D01*
X99390452Y-124809567D01*
X99590408Y-124718743D01*
X99803368Y-124665082D01*
X99995000Y-124650000D01*
X105245000Y-124650000D01*
X105436632Y-124665082D01*
G37*
G36*
X124196632Y-124665082D02*
G01*
X124409592Y-124718743D01*
X124609548Y-124809567D01*
X124790073Y-124934635D01*
X124945365Y-125089927D01*
X125070433Y-125270452D01*
X125161257Y-125470408D01*
X125214918Y-125683368D01*
X125230000Y-125875000D01*
X125230000Y-128125000D01*
X125214918Y-128316632D01*
X125161257Y-128529592D01*
X125070433Y-128729548D01*
X124945365Y-128910073D01*
X124790073Y-129065365D01*
X124609548Y-129190433D01*
X124409592Y-129281257D01*
X124196632Y-129334918D01*
X124005000Y-129350000D01*
X118755000Y-129350000D01*
X118563368Y-129334918D01*
X118350408Y-129281257D01*
X118150452Y-129190433D01*
X117969927Y-129065365D01*
X117814635Y-128910073D01*
X117689567Y-128729548D01*
X117598743Y-128529592D01*
X117545082Y-128316632D01*
X117530000Y-128125000D01*
X117530000Y-125875000D01*
X117545082Y-125683368D01*
X117598743Y-125470408D01*
X117689567Y-125270452D01*
X117814635Y-125089927D01*
X117969927Y-124934635D01*
X118150452Y-124809567D01*
X118350408Y-124718743D01*
X118563368Y-124665082D01*
X118755000Y-124650000D01*
X124005000Y-124650000D01*
X124196632Y-124665082D01*
G37*
G36*
X145936632Y-124665082D02*
G01*
X146149592Y-124718743D01*
X146349548Y-124809567D01*
X146530073Y-124934635D01*
X146685365Y-125089927D01*
X146810433Y-125270452D01*
X146901257Y-125470408D01*
X146954918Y-125683368D01*
X146970000Y-125875000D01*
X146970000Y-128125000D01*
X146954918Y-128316632D01*
X146901257Y-128529592D01*
X146810433Y-128729548D01*
X146685365Y-128910073D01*
X146530073Y-129065365D01*
X146349548Y-129190433D01*
X146149592Y-129281257D01*
X145936632Y-129334918D01*
X145745000Y-129350000D01*
X140495000Y-129350000D01*
X140303368Y-129334918D01*
X140090408Y-129281257D01*
X139890452Y-129190433D01*
X139709927Y-129065365D01*
X139554635Y-128910073D01*
X139429567Y-128729548D01*
X139338743Y-128529592D01*
X139285082Y-128316632D01*
X139270000Y-128125000D01*
X139270000Y-125875000D01*
X139285082Y-125683368D01*
X139338743Y-125470408D01*
X139429567Y-125270452D01*
X139554635Y-125089927D01*
X139709927Y-124934635D01*
X139890452Y-124809567D01*
X140090408Y-124718743D01*
X140303368Y-124665082D01*
X140495000Y-124650000D01*
X145745000Y-124650000D01*
X145936632Y-124665082D01*
G37*
G36*
X164696632Y-124665082D02*
G01*
X164909592Y-124718743D01*
X165109548Y-124809567D01*
X165290073Y-124934635D01*
X165445365Y-125089927D01*
X165570433Y-125270452D01*
X165661257Y-125470408D01*
X165714918Y-125683368D01*
X165730000Y-125875000D01*
X165730000Y-128125000D01*
X165714918Y-128316632D01*
X165661257Y-128529592D01*
X165570433Y-128729548D01*
X165445365Y-128910073D01*
X165290073Y-129065365D01*
X165109548Y-129190433D01*
X164909592Y-129281257D01*
X164696632Y-129334918D01*
X164505000Y-129350000D01*
X159255000Y-129350000D01*
X159063368Y-129334918D01*
X158850408Y-129281257D01*
X158650452Y-129190433D01*
X158469927Y-129065365D01*
X158314635Y-128910073D01*
X158189567Y-128729548D01*
X158098743Y-128529592D01*
X158045082Y-128316632D01*
X158030000Y-128125000D01*
X158030000Y-125875000D01*
X158045082Y-125683368D01*
X158098743Y-125470408D01*
X158189567Y-125270452D01*
X158314635Y-125089927D01*
X158469927Y-124934635D01*
X158650452Y-124809567D01*
X158850408Y-124718743D01*
X159063368Y-124665082D01*
X159255000Y-124650000D01*
X164505000Y-124650000D01*
X164696632Y-124665082D01*
G37*
G36*
X186436632Y-124665082D02*
G01*
X186649592Y-124718743D01*
X186849548Y-124809567D01*
X187030073Y-124934635D01*
X187185365Y-125089927D01*
X187310433Y-125270452D01*
X187401257Y-125470408D01*
X187454918Y-125683368D01*
X187470000Y-125875000D01*
X187470000Y-128125000D01*
X187454918Y-128316632D01*
X187401257Y-128529592D01*
X187310433Y-128729548D01*
X187185365Y-128910073D01*
X187030073Y-129065365D01*
X186849548Y-129190433D01*
X186649592Y-129281257D01*
X186436632Y-129334918D01*
X186245000Y-129350000D01*
X180995000Y-129350000D01*
X180803368Y-129334918D01*
X180590408Y-129281257D01*
X180390452Y-129190433D01*
X180209927Y-129065365D01*
X180054635Y-128910073D01*
X179929567Y-128729548D01*
X179838743Y-128529592D01*
X179785082Y-128316632D01*
X179770000Y-128125000D01*
X179770000Y-125875000D01*
X179785082Y-125683368D01*
X179838743Y-125470408D01*
X179929567Y-125270452D01*
X180054635Y-125089927D01*
X180209927Y-124934635D01*
X180390452Y-124809567D01*
X180590408Y-124718743D01*
X180803368Y-124665082D01*
X180995000Y-124650000D01*
X186245000Y-124650000D01*
X186436632Y-124665082D01*
G37*
G36*
X205196632Y-124665082D02*
G01*
X205409592Y-124718743D01*
X205609548Y-124809567D01*
X205790073Y-124934635D01*
X205945365Y-125089927D01*
X206070433Y-125270452D01*
X206161257Y-125470408D01*
X206214918Y-125683368D01*
X206230000Y-125875000D01*
X206230000Y-128125000D01*
X206214918Y-128316632D01*
X206161257Y-128529592D01*
X206070433Y-128729548D01*
X205945365Y-128910073D01*
X205790073Y-129065365D01*
X205609548Y-129190433D01*
X205409592Y-129281257D01*
X205196632Y-129334918D01*
X205005000Y-129350000D01*
X199755000Y-129350000D01*
X199563368Y-129334918D01*
X199350408Y-129281257D01*
X199150452Y-129190433D01*
X198969927Y-129065365D01*
X198814635Y-128910073D01*
X198689567Y-128729548D01*
X198598743Y-128529592D01*
X198545082Y-128316632D01*
X198530000Y-128125000D01*
X198530000Y-125875000D01*
X198545082Y-125683368D01*
X198598743Y-125470408D01*
X198689567Y-125270452D01*
X198814635Y-125089927D01*
X198969927Y-124934635D01*
X199150452Y-124809567D01*
X199350408Y-124718743D01*
X199563368Y-124665082D01*
X199755000Y-124650000D01*
X205005000Y-124650000D01*
X205196632Y-124665082D01*
G37*
G36*
X226936632Y-124665082D02*
G01*
X227149592Y-124718743D01*
X227349548Y-124809567D01*
X227530073Y-124934635D01*
X227685365Y-125089927D01*
X227810433Y-125270452D01*
X227901257Y-125470408D01*
X227954918Y-125683368D01*
X227970000Y-125875000D01*
X227970000Y-128125000D01*
X227954918Y-128316632D01*
X227901257Y-128529592D01*
X227810433Y-128729548D01*
X227685365Y-128910073D01*
X227530073Y-129065365D01*
X227349548Y-129190433D01*
X227149592Y-129281257D01*
X226936632Y-129334918D01*
X226745000Y-129350000D01*
X221495000Y-129350000D01*
X221303368Y-129334918D01*
X221090408Y-129281257D01*
X220890452Y-129190433D01*
X220709927Y-129065365D01*
X220554635Y-128910073D01*
X220429567Y-128729548D01*
X220338743Y-128529592D01*
X220285082Y-128316632D01*
X220270000Y-128125000D01*
X220270000Y-125875000D01*
X220285082Y-125683368D01*
X220338743Y-125470408D01*
X220429567Y-125270452D01*
X220554635Y-125089927D01*
X220709927Y-124934635D01*
X220890452Y-124809567D01*
X221090408Y-124718743D01*
X221303368Y-124665082D01*
X221495000Y-124650000D01*
X226745000Y-124650000D01*
X226936632Y-124665082D01*
G37*
G36*
X245696632Y-124665082D02*
G01*
X245909592Y-124718743D01*
X246109548Y-124809567D01*
X246290073Y-124934635D01*
X246445365Y-125089927D01*
X246570433Y-125270452D01*
X246661257Y-125470408D01*
X246714918Y-125683368D01*
X246730000Y-125875000D01*
X246730000Y-128125000D01*
X246714918Y-128316632D01*
X246661257Y-128529592D01*
X246570433Y-128729548D01*
X246445365Y-128910073D01*
X246290073Y-129065365D01*
X246109548Y-129190433D01*
X245909592Y-129281257D01*
X245696632Y-129334918D01*
X245505000Y-129350000D01*
X240255000Y-129350000D01*
X240063368Y-129334918D01*
X239850408Y-129281257D01*
X239650452Y-129190433D01*
X239469927Y-129065365D01*
X239314635Y-128910073D01*
X239189567Y-128729548D01*
X239098743Y-128529592D01*
X239045082Y-128316632D01*
X239030000Y-128125000D01*
X239030000Y-125875000D01*
X239045082Y-125683368D01*
X239098743Y-125470408D01*
X239189567Y-125270452D01*
X239314635Y-125089927D01*
X239469927Y-124934635D01*
X239650452Y-124809567D01*
X239850408Y-124718743D01*
X240063368Y-124665082D01*
X240255000Y-124650000D01*
X245505000Y-124650000D01*
X245696632Y-124665082D01*
G37*
G36*
X71742473Y-116569083D02*
G01*
X71978976Y-116625862D01*
X72203685Y-116718940D01*
X72411067Y-116846024D01*
X72596016Y-117003984D01*
X72753976Y-117188933D01*
X72881060Y-117396315D01*
X72974138Y-117621024D01*
X73030917Y-117857527D01*
X73050000Y-118100000D01*
X73030917Y-118342473D01*
X72974138Y-118578976D01*
X72881060Y-118803685D01*
X72753976Y-119011067D01*
X72596016Y-119196016D01*
X72411067Y-119353976D01*
X72203685Y-119481060D01*
X71978976Y-119574138D01*
X71742473Y-119630917D01*
X71500000Y-119650000D01*
X71257527Y-119630917D01*
X71021024Y-119574138D01*
X70796315Y-119481060D01*
X70588933Y-119353976D01*
X70403984Y-119196016D01*
X70246024Y-119011067D01*
X70118940Y-118803685D01*
X70025862Y-118578976D01*
X69969083Y-118342473D01*
X69950000Y-118100000D01*
X69969083Y-117857527D01*
X70025862Y-117621024D01*
X70118940Y-117396315D01*
X70246024Y-117188933D01*
X70403984Y-117003984D01*
X70588933Y-116846024D01*
X70796315Y-116718940D01*
X71021024Y-116625862D01*
X71257527Y-116569083D01*
X71500000Y-116550000D01*
X71742473Y-116569083D01*
G37*
G36*
X112242473Y-116569083D02*
G01*
X112478976Y-116625862D01*
X112703685Y-116718940D01*
X112911067Y-116846024D01*
X113096016Y-117003984D01*
X113253976Y-117188933D01*
X113381060Y-117396315D01*
X113474138Y-117621024D01*
X113530917Y-117857527D01*
X113550000Y-118100000D01*
X113530917Y-118342473D01*
X113474138Y-118578976D01*
X113381060Y-118803685D01*
X113253976Y-119011067D01*
X113096016Y-119196016D01*
X112911067Y-119353976D01*
X112703685Y-119481060D01*
X112478976Y-119574138D01*
X112242473Y-119630917D01*
X112000000Y-119650000D01*
X111757527Y-119630917D01*
X111521024Y-119574138D01*
X111296315Y-119481060D01*
X111088933Y-119353976D01*
X110903984Y-119196016D01*
X110746024Y-119011067D01*
X110618940Y-118803685D01*
X110525862Y-118578976D01*
X110469083Y-118342473D01*
X110450000Y-118100000D01*
X110469083Y-117857527D01*
X110525862Y-117621024D01*
X110618940Y-117396315D01*
X110746024Y-117188933D01*
X110903984Y-117003984D01*
X111088933Y-116846024D01*
X111296315Y-116718940D01*
X111521024Y-116625862D01*
X111757527Y-116569083D01*
X112000000Y-116550000D01*
X112242473Y-116569083D01*
G37*
G36*
X152742473Y-116569083D02*
G01*
X152978976Y-116625862D01*
X153203685Y-116718940D01*
X153411067Y-116846024D01*
X153596016Y-117003984D01*
X153753976Y-117188933D01*
X153881060Y-117396315D01*
X153974138Y-117621024D01*
X154030917Y-117857527D01*
X154050000Y-118100000D01*
X154030917Y-118342473D01*
X153974138Y-118578976D01*
X153881060Y-118803685D01*
X153753976Y-119011067D01*
X153596016Y-119196016D01*
X153411067Y-119353976D01*
X153203685Y-119481060D01*
X152978976Y-119574138D01*
X152742473Y-119630917D01*
X152500000Y-119650000D01*
X152257527Y-119630917D01*
X152021024Y-119574138D01*
X151796315Y-119481060D01*
X151588933Y-119353976D01*
X151403984Y-119196016D01*
X151246024Y-119011067D01*
X151118940Y-118803685D01*
X151025862Y-118578976D01*
X150969083Y-118342473D01*
X150950000Y-118100000D01*
X150969083Y-117857527D01*
X151025862Y-117621024D01*
X151118940Y-117396315D01*
X151246024Y-117188933D01*
X151403984Y-117003984D01*
X151588933Y-116846024D01*
X151796315Y-116718940D01*
X152021024Y-116625862D01*
X152257527Y-116569083D01*
X152500000Y-116550000D01*
X152742473Y-116569083D01*
G37*
G36*
X193242473Y-116569083D02*
G01*
X193478976Y-116625862D01*
X193703685Y-116718940D01*
X193911067Y-116846024D01*
X194096016Y-117003984D01*
X194253976Y-117188933D01*
X194381060Y-117396315D01*
X194474138Y-117621024D01*
X194530917Y-117857527D01*
X194550000Y-118100000D01*
X194530917Y-118342473D01*
X194474138Y-118578976D01*
X194381060Y-118803685D01*
X194253976Y-119011067D01*
X194096016Y-119196016D01*
X193911067Y-119353976D01*
X193703685Y-119481060D01*
X193478976Y-119574138D01*
X193242473Y-119630917D01*
X193000000Y-119650000D01*
X192757527Y-119630917D01*
X192521024Y-119574138D01*
X192296315Y-119481060D01*
X192088933Y-119353976D01*
X191903984Y-119196016D01*
X191746024Y-119011067D01*
X191618940Y-118803685D01*
X191525862Y-118578976D01*
X191469083Y-118342473D01*
X191450000Y-118100000D01*
X191469083Y-117857527D01*
X191525862Y-117621024D01*
X191618940Y-117396315D01*
X191746024Y-117188933D01*
X191903984Y-117003984D01*
X192088933Y-116846024D01*
X192296315Y-116718940D01*
X192521024Y-116625862D01*
X192757527Y-116569083D01*
X193000000Y-116550000D01*
X193242473Y-116569083D01*
G37*
G36*
X233742473Y-116569083D02*
G01*
X233978976Y-116625862D01*
X234203685Y-116718940D01*
X234411067Y-116846024D01*
X234596016Y-117003984D01*
X234753976Y-117188933D01*
X234881060Y-117396315D01*
X234974138Y-117621024D01*
X235030917Y-117857527D01*
X235050000Y-118100000D01*
X235030917Y-118342473D01*
X234974138Y-118578976D01*
X234881060Y-118803685D01*
X234753976Y-119011067D01*
X234596016Y-119196016D01*
X234411067Y-119353976D01*
X234203685Y-119481060D01*
X233978976Y-119574138D01*
X233742473Y-119630917D01*
X233500000Y-119650000D01*
X233257527Y-119630917D01*
X233021024Y-119574138D01*
X232796315Y-119481060D01*
X232588933Y-119353976D01*
X232403984Y-119196016D01*
X232246024Y-119011067D01*
X232118940Y-118803685D01*
X232025862Y-118578976D01*
X231969083Y-118342473D01*
X231950000Y-118100000D01*
X231969083Y-117857527D01*
X232025862Y-117621024D01*
X232118940Y-117396315D01*
X232246024Y-117188933D01*
X232403984Y-117003984D01*
X232588933Y-116846024D01*
X232796315Y-116718940D01*
X233021024Y-116625862D01*
X233257527Y-116569083D01*
X233500000Y-116550000D01*
X233742473Y-116569083D01*
G37*
G36*
X46104838Y-106293259D02*
G01*
X46501975Y-106369801D01*
X46890039Y-106483747D01*
X47265514Y-106634064D01*
X47625000Y-106819392D01*
X47965242Y-107038052D01*
X48283158Y-107288064D01*
X48575870Y-107567164D01*
X48840726Y-107872824D01*
X49075328Y-108202277D01*
X49277551Y-108552537D01*
X49445564Y-108920435D01*
X49577845Y-109302637D01*
X49673197Y-109695682D01*
X49730756Y-110096012D01*
X49750000Y-110500000D01*
X49730756Y-110903988D01*
X49673197Y-111304318D01*
X49577845Y-111697363D01*
X49445564Y-112079565D01*
X49277551Y-112447463D01*
X49075328Y-112797723D01*
X48840726Y-113127176D01*
X48575870Y-113432836D01*
X48283158Y-113711936D01*
X47965242Y-113961948D01*
X47625000Y-114180608D01*
X47265514Y-114365936D01*
X46890039Y-114516253D01*
X46501975Y-114630199D01*
X46104838Y-114706741D01*
X45702223Y-114745186D01*
X45297777Y-114745186D01*
X44895162Y-114706741D01*
X44498025Y-114630199D01*
X44109961Y-114516253D01*
X43734486Y-114365936D01*
X43375000Y-114180608D01*
X43034758Y-113961948D01*
X42716842Y-113711936D01*
X42424130Y-113432836D01*
X42159274Y-113127176D01*
X41924672Y-112797723D01*
X41722449Y-112447463D01*
X41554436Y-112079565D01*
X41422155Y-111697363D01*
X41326803Y-111304318D01*
X41269244Y-110903988D01*
X41250000Y-110500000D01*
X41269244Y-110096012D01*
X41326803Y-109695682D01*
X41422155Y-109302637D01*
X41554436Y-108920435D01*
X41722449Y-108552537D01*
X41924672Y-108202277D01*
X42159274Y-107872824D01*
X42424130Y-107567164D01*
X42716842Y-107288064D01*
X43034758Y-107038052D01*
X43375000Y-106819392D01*
X43734486Y-106634064D01*
X44109961Y-106483747D01*
X44498025Y-106369801D01*
X44895162Y-106293259D01*
X45297777Y-106254814D01*
X45702223Y-106254814D01*
X46104838Y-106293259D01*
G37*
G36*
X260104838Y-106293259D02*
G01*
X260501975Y-106369801D01*
X260890039Y-106483747D01*
X261265514Y-106634064D01*
X261625000Y-106819392D01*
X261965242Y-107038052D01*
X262283158Y-107288064D01*
X262575870Y-107567164D01*
X262840726Y-107872824D01*
X263075328Y-108202277D01*
X263277551Y-108552537D01*
X263445564Y-108920435D01*
X263577845Y-109302637D01*
X263673197Y-109695682D01*
X263730756Y-110096012D01*
X263750000Y-110500000D01*
X263730756Y-110903988D01*
X263673197Y-111304318D01*
X263577845Y-111697363D01*
X263445564Y-112079565D01*
X263277551Y-112447463D01*
X263075328Y-112797723D01*
X262840726Y-113127176D01*
X262575870Y-113432836D01*
X262283158Y-113711936D01*
X261965242Y-113961948D01*
X261625000Y-114180608D01*
X261265514Y-114365936D01*
X260890039Y-114516253D01*
X260501975Y-114630199D01*
X260104838Y-114706741D01*
X259702223Y-114745186D01*
X259297777Y-114745186D01*
X258895162Y-114706741D01*
X258498025Y-114630199D01*
X258109961Y-114516253D01*
X257734486Y-114365936D01*
X257375000Y-114180608D01*
X257034758Y-113961948D01*
X256716842Y-113711936D01*
X256424130Y-113432836D01*
X256159274Y-113127176D01*
X255924672Y-112797723D01*
X255722449Y-112447463D01*
X255554436Y-112079565D01*
X255422155Y-111697363D01*
X255326803Y-111304318D01*
X255269244Y-110903988D01*
X255250000Y-110500000D01*
X255269244Y-110096012D01*
X255326803Y-109695682D01*
X255422155Y-109302637D01*
X255554436Y-108920435D01*
X255722449Y-108552537D01*
X255924672Y-108202277D01*
X256159274Y-107872824D01*
X256424130Y-107567164D01*
X256716842Y-107288064D01*
X257034758Y-107038052D01*
X257375000Y-106819392D01*
X257734486Y-106634064D01*
X258109961Y-106483747D01*
X258498025Y-106369801D01*
X258895162Y-106293259D01*
X259297777Y-106254814D01*
X259702223Y-106254814D01*
X260104838Y-106293259D01*
G37*
G36*
X259253229Y-92625642D02*
G01*
X259305773Y-92631738D01*
X259323726Y-92639665D01*
X259345670Y-92644030D01*
X259369162Y-92659727D01*
X259390890Y-92669321D01*
X259405730Y-92684161D01*
X259426776Y-92698224D01*
X259440838Y-92719269D01*
X259455678Y-92734109D01*
X259465271Y-92755835D01*
X259480970Y-92779330D01*
X259485334Y-92801275D01*
X259493261Y-92819226D01*
X259499359Y-92871784D01*
X259499999Y-92875002D01*
X259499999Y-92877300D01*
X259500000Y-92877309D01*
X259500000Y-94472690D01*
X259500000Y-94474999D01*
X259499357Y-94478231D01*
X259493261Y-94530773D01*
X259485335Y-94548722D01*
X259480970Y-94570670D01*
X259465269Y-94594166D01*
X259455678Y-94615890D01*
X259440840Y-94630727D01*
X259426776Y-94651776D01*
X259405727Y-94665840D01*
X259390890Y-94680678D01*
X259369166Y-94690269D01*
X259345670Y-94705970D01*
X259323723Y-94710335D01*
X259305773Y-94718261D01*
X259253217Y-94724358D01*
X259249998Y-94724999D01*
X259247698Y-94724999D01*
X259247690Y-94725000D01*
X256752310Y-94725000D01*
X256752309Y-94724999D01*
X256750001Y-94725000D01*
X256746769Y-94724357D01*
X256694226Y-94718261D01*
X256676276Y-94710335D01*
X256654330Y-94705970D01*
X256630835Y-94690271D01*
X256609109Y-94680678D01*
X256594269Y-94665838D01*
X256573224Y-94651776D01*
X256559161Y-94630730D01*
X256544321Y-94615890D01*
X256534727Y-94594162D01*
X256519030Y-94570670D01*
X256514665Y-94548727D01*
X256506738Y-94530773D01*
X256500641Y-94478215D01*
X256500001Y-94474998D01*
X256500000Y-94472698D01*
X256500000Y-94472690D01*
X256500000Y-92877309D01*
X256500000Y-92877308D01*
X256500000Y-92875001D01*
X256500642Y-92871771D01*
X256506738Y-92819226D01*
X256514665Y-92801272D01*
X256519030Y-92779330D01*
X256534725Y-92755839D01*
X256544321Y-92734109D01*
X256559164Y-92719265D01*
X256573224Y-92698224D01*
X256594265Y-92684164D01*
X256609109Y-92669321D01*
X256630839Y-92659725D01*
X256654330Y-92644030D01*
X256676270Y-92639665D01*
X256694226Y-92631738D01*
X256746784Y-92625641D01*
X256750002Y-92625001D01*
X256752301Y-92625000D01*
X256752310Y-92625000D01*
X259247690Y-92625000D01*
X259249999Y-92625000D01*
X259253229Y-92625642D01*
G37*
G36*
X255776537Y-90740224D02*
G01*
X255841421Y-90783579D01*
X255884776Y-90848463D01*
X255900000Y-90925000D01*
X255900000Y-91325000D01*
X255884776Y-91401537D01*
X255841421Y-91466421D01*
X255776537Y-91509776D01*
X255700000Y-91525000D01*
X254500000Y-91525000D01*
X254423463Y-91509776D01*
X254358579Y-91466421D01*
X254315224Y-91401537D01*
X254300000Y-91325000D01*
X254300000Y-90925000D01*
X254315224Y-90848463D01*
X254358579Y-90783579D01*
X254423463Y-90740224D01*
X254500000Y-90725000D01*
X255700000Y-90725000D01*
X255776537Y-90740224D01*
G37*
G36*
X255776537Y-89490224D02*
G01*
X255841421Y-89533579D01*
X255884776Y-89598463D01*
X255900000Y-89675000D01*
X255900000Y-90075000D01*
X255884776Y-90151537D01*
X255841421Y-90216421D01*
X255776537Y-90259776D01*
X255700000Y-90275000D01*
X254500000Y-90275000D01*
X254423463Y-90259776D01*
X254358579Y-90216421D01*
X254315224Y-90151537D01*
X254300000Y-90075000D01*
X254300000Y-89675000D01*
X254315224Y-89598463D01*
X254358579Y-89533579D01*
X254423463Y-89490224D01*
X254500000Y-89475000D01*
X255700000Y-89475000D01*
X255776537Y-89490224D01*
G37*
G36*
X259253229Y-86275642D02*
G01*
X259305773Y-86281738D01*
X259323726Y-86289665D01*
X259345670Y-86294030D01*
X259369162Y-86309727D01*
X259390890Y-86319321D01*
X259405730Y-86334161D01*
X259426776Y-86348224D01*
X259440838Y-86369269D01*
X259455678Y-86384109D01*
X259465271Y-86405835D01*
X259480970Y-86429330D01*
X259485334Y-86451275D01*
X259493261Y-86469226D01*
X259499359Y-86521784D01*
X259499999Y-86525002D01*
X259499999Y-86527300D01*
X259500000Y-86527309D01*
X259500000Y-88122690D01*
X259500000Y-88124999D01*
X259499357Y-88128231D01*
X259493261Y-88180773D01*
X259485335Y-88198722D01*
X259480970Y-88220670D01*
X259465269Y-88244166D01*
X259455678Y-88265890D01*
X259440840Y-88280727D01*
X259426776Y-88301776D01*
X259405727Y-88315840D01*
X259390890Y-88330678D01*
X259369166Y-88340269D01*
X259345670Y-88355970D01*
X259323723Y-88360335D01*
X259305773Y-88368261D01*
X259253217Y-88374358D01*
X259249998Y-88374999D01*
X259247698Y-88374999D01*
X259247690Y-88375000D01*
X256752310Y-88375000D01*
X256752309Y-88374999D01*
X256750001Y-88375000D01*
X256746769Y-88374357D01*
X256694226Y-88368261D01*
X256676276Y-88360335D01*
X256654330Y-88355970D01*
X256630835Y-88340271D01*
X256609109Y-88330678D01*
X256594269Y-88315838D01*
X256573224Y-88301776D01*
X256559161Y-88280730D01*
X256544321Y-88265890D01*
X256534727Y-88244162D01*
X256519030Y-88220670D01*
X256514665Y-88198727D01*
X256506738Y-88180773D01*
X256500641Y-88128215D01*
X256500001Y-88124998D01*
X256500000Y-88122698D01*
X256500000Y-88122690D01*
X256500000Y-86527309D01*
X256500000Y-86527308D01*
X256500000Y-86525001D01*
X256500642Y-86521771D01*
X256506738Y-86469226D01*
X256514665Y-86451272D01*
X256519030Y-86429330D01*
X256534725Y-86405839D01*
X256544321Y-86384109D01*
X256559164Y-86369265D01*
X256573224Y-86348224D01*
X256594265Y-86334164D01*
X256609109Y-86319321D01*
X256630839Y-86309725D01*
X256654330Y-86294030D01*
X256676270Y-86289665D01*
X256694226Y-86281738D01*
X256746784Y-86275641D01*
X256750002Y-86275001D01*
X256752301Y-86275000D01*
X256752310Y-86275000D01*
X259247690Y-86275000D01*
X259249999Y-86275000D01*
X259253229Y-86275642D01*
G37*
G36*
X46104838Y-66293259D02*
G01*
X46501975Y-66369801D01*
X46890039Y-66483747D01*
X47265514Y-66634064D01*
X47625000Y-66819392D01*
X47965242Y-67038052D01*
X48283158Y-67288064D01*
X48575870Y-67567164D01*
X48840726Y-67872824D01*
X49075328Y-68202277D01*
X49277551Y-68552537D01*
X49445564Y-68920435D01*
X49577845Y-69302637D01*
X49673197Y-69695682D01*
X49730756Y-70096012D01*
X49750000Y-70500000D01*
X49730756Y-70903988D01*
X49673197Y-71304318D01*
X49577845Y-71697363D01*
X49445564Y-72079565D01*
X49277551Y-72447463D01*
X49075328Y-72797723D01*
X48840726Y-73127176D01*
X48575870Y-73432836D01*
X48283158Y-73711936D01*
X47965242Y-73961948D01*
X47625000Y-74180608D01*
X47265514Y-74365936D01*
X46890039Y-74516253D01*
X46501975Y-74630199D01*
X46104838Y-74706741D01*
X45702223Y-74745186D01*
X45297777Y-74745186D01*
X44895162Y-74706741D01*
X44498025Y-74630199D01*
X44109961Y-74516253D01*
X43734486Y-74365936D01*
X43375000Y-74180608D01*
X43034758Y-73961948D01*
X42716842Y-73711936D01*
X42424130Y-73432836D01*
X42159274Y-73127176D01*
X41924672Y-72797723D01*
X41722449Y-72447463D01*
X41554436Y-72079565D01*
X41422155Y-71697363D01*
X41326803Y-71304318D01*
X41269244Y-70903988D01*
X41250000Y-70500000D01*
X41269244Y-70096012D01*
X41326803Y-69695682D01*
X41422155Y-69302637D01*
X41554436Y-68920435D01*
X41722449Y-68552537D01*
X41924672Y-68202277D01*
X42159274Y-67872824D01*
X42424130Y-67567164D01*
X42716842Y-67288064D01*
X43034758Y-67038052D01*
X43375000Y-66819392D01*
X43734486Y-66634064D01*
X44109961Y-66483747D01*
X44498025Y-66369801D01*
X44895162Y-66293259D01*
X45297777Y-66254814D01*
X45702223Y-66254814D01*
X46104838Y-66293259D01*
G37*
G36*
X260104838Y-66293259D02*
G01*
X260501975Y-66369801D01*
X260890039Y-66483747D01*
X261265514Y-66634064D01*
X261625000Y-66819392D01*
X261965242Y-67038052D01*
X262283158Y-67288064D01*
X262575870Y-67567164D01*
X262840726Y-67872824D01*
X263075328Y-68202277D01*
X263277551Y-68552537D01*
X263445564Y-68920435D01*
X263577845Y-69302637D01*
X263673197Y-69695682D01*
X263730756Y-70096012D01*
X263750000Y-70500000D01*
X263730756Y-70903988D01*
X263673197Y-71304318D01*
X263577845Y-71697363D01*
X263445564Y-72079565D01*
X263277551Y-72447463D01*
X263075328Y-72797723D01*
X262840726Y-73127176D01*
X262575870Y-73432836D01*
X262283158Y-73711936D01*
X261965242Y-73961948D01*
X261625000Y-74180608D01*
X261265514Y-74365936D01*
X260890039Y-74516253D01*
X260501975Y-74630199D01*
X260104838Y-74706741D01*
X259702223Y-74745186D01*
X259297777Y-74745186D01*
X258895162Y-74706741D01*
X258498025Y-74630199D01*
X258109961Y-74516253D01*
X257734486Y-74365936D01*
X257375000Y-74180608D01*
X257034758Y-73961948D01*
X256716842Y-73711936D01*
X256424130Y-73432836D01*
X256159274Y-73127176D01*
X255924672Y-72797723D01*
X255722449Y-72447463D01*
X255554436Y-72079565D01*
X255422155Y-71697363D01*
X255326803Y-71304318D01*
X255269244Y-70903988D01*
X255250000Y-70500000D01*
X255269244Y-70096012D01*
X255326803Y-69695682D01*
X255422155Y-69302637D01*
X255554436Y-68920435D01*
X255722449Y-68552537D01*
X255924672Y-68202277D01*
X256159274Y-67872824D01*
X256424130Y-67567164D01*
X256716842Y-67288064D01*
X257034758Y-67038052D01*
X257375000Y-66819392D01*
X257734486Y-66634064D01*
X258109961Y-66483747D01*
X258498025Y-66369801D01*
X258895162Y-66293259D01*
X259297777Y-66254814D01*
X259702223Y-66254814D01*
X260104838Y-66293259D01*
G37*
G36*
X71742473Y-61369083D02*
G01*
X71978976Y-61425862D01*
X72203685Y-61518940D01*
X72411067Y-61646024D01*
X72596016Y-61803984D01*
X72753976Y-61988933D01*
X72881060Y-62196315D01*
X72974138Y-62421024D01*
X73030917Y-62657527D01*
X73050000Y-62900000D01*
X73030917Y-63142473D01*
X72974138Y-63378976D01*
X72881060Y-63603685D01*
X72753976Y-63811067D01*
X72596016Y-63996016D01*
X72411067Y-64153976D01*
X72203685Y-64281060D01*
X71978976Y-64374138D01*
X71742473Y-64430917D01*
X71500000Y-64450000D01*
X71257527Y-64430917D01*
X71021024Y-64374138D01*
X70796315Y-64281060D01*
X70588933Y-64153976D01*
X70403984Y-63996016D01*
X70246024Y-63811067D01*
X70118940Y-63603685D01*
X70025862Y-63378976D01*
X69969083Y-63142473D01*
X69950000Y-62900000D01*
X69969083Y-62657527D01*
X70025862Y-62421024D01*
X70118940Y-62196315D01*
X70246024Y-61988933D01*
X70403984Y-61803984D01*
X70588933Y-61646024D01*
X70796315Y-61518940D01*
X71021024Y-61425862D01*
X71257527Y-61369083D01*
X71500000Y-61350000D01*
X71742473Y-61369083D01*
G37*
G36*
X112242473Y-61369083D02*
G01*
X112478976Y-61425862D01*
X112703685Y-61518940D01*
X112911067Y-61646024D01*
X113096016Y-61803984D01*
X113253976Y-61988933D01*
X113381060Y-62196315D01*
X113474138Y-62421024D01*
X113530917Y-62657527D01*
X113550000Y-62900000D01*
X113530917Y-63142473D01*
X113474138Y-63378976D01*
X113381060Y-63603685D01*
X113253976Y-63811067D01*
X113096016Y-63996016D01*
X112911067Y-64153976D01*
X112703685Y-64281060D01*
X112478976Y-64374138D01*
X112242473Y-64430917D01*
X112000000Y-64450000D01*
X111757527Y-64430917D01*
X111521024Y-64374138D01*
X111296315Y-64281060D01*
X111088933Y-64153976D01*
X110903984Y-63996016D01*
X110746024Y-63811067D01*
X110618940Y-63603685D01*
X110525862Y-63378976D01*
X110469083Y-63142473D01*
X110450000Y-62900000D01*
X110469083Y-62657527D01*
X110525862Y-62421024D01*
X110618940Y-62196315D01*
X110746024Y-61988933D01*
X110903984Y-61803984D01*
X111088933Y-61646024D01*
X111296315Y-61518940D01*
X111521024Y-61425862D01*
X111757527Y-61369083D01*
X112000000Y-61350000D01*
X112242473Y-61369083D01*
G37*
G36*
X152742473Y-61369083D02*
G01*
X152978976Y-61425862D01*
X153203685Y-61518940D01*
X153411067Y-61646024D01*
X153596016Y-61803984D01*
X153753976Y-61988933D01*
X153881060Y-62196315D01*
X153974138Y-62421024D01*
X154030917Y-62657527D01*
X154050000Y-62900000D01*
X154030917Y-63142473D01*
X153974138Y-63378976D01*
X153881060Y-63603685D01*
X153753976Y-63811067D01*
X153596016Y-63996016D01*
X153411067Y-64153976D01*
X153203685Y-64281060D01*
X152978976Y-64374138D01*
X152742473Y-64430917D01*
X152500000Y-64450000D01*
X152257527Y-64430917D01*
X152021024Y-64374138D01*
X151796315Y-64281060D01*
X151588933Y-64153976D01*
X151403984Y-63996016D01*
X151246024Y-63811067D01*
X151118940Y-63603685D01*
X151025862Y-63378976D01*
X150969083Y-63142473D01*
X150950000Y-62900000D01*
X150969083Y-62657527D01*
X151025862Y-62421024D01*
X151118940Y-62196315D01*
X151246024Y-61988933D01*
X151403984Y-61803984D01*
X151588933Y-61646024D01*
X151796315Y-61518940D01*
X152021024Y-61425862D01*
X152257527Y-61369083D01*
X152500000Y-61350000D01*
X152742473Y-61369083D01*
G37*
G36*
X193242473Y-61369083D02*
G01*
X193478976Y-61425862D01*
X193703685Y-61518940D01*
X193911067Y-61646024D01*
X194096016Y-61803984D01*
X194253976Y-61988933D01*
X194381060Y-62196315D01*
X194474138Y-62421024D01*
X194530917Y-62657527D01*
X194550000Y-62900000D01*
X194530917Y-63142473D01*
X194474138Y-63378976D01*
X194381060Y-63603685D01*
X194253976Y-63811067D01*
X194096016Y-63996016D01*
X193911067Y-64153976D01*
X193703685Y-64281060D01*
X193478976Y-64374138D01*
X193242473Y-64430917D01*
X193000000Y-64450000D01*
X192757527Y-64430917D01*
X192521024Y-64374138D01*
X192296315Y-64281060D01*
X192088933Y-64153976D01*
X191903984Y-63996016D01*
X191746024Y-63811067D01*
X191618940Y-63603685D01*
X191525862Y-63378976D01*
X191469083Y-63142473D01*
X191450000Y-62900000D01*
X191469083Y-62657527D01*
X191525862Y-62421024D01*
X191618940Y-62196315D01*
X191746024Y-61988933D01*
X191903984Y-61803984D01*
X192088933Y-61646024D01*
X192296315Y-61518940D01*
X192521024Y-61425862D01*
X192757527Y-61369083D01*
X193000000Y-61350000D01*
X193242473Y-61369083D01*
G37*
G36*
X233742473Y-61369083D02*
G01*
X233978976Y-61425862D01*
X234203685Y-61518940D01*
X234411067Y-61646024D01*
X234596016Y-61803984D01*
X234753976Y-61988933D01*
X234881060Y-62196315D01*
X234974138Y-62421024D01*
X235030917Y-62657527D01*
X235050000Y-62900000D01*
X235030917Y-63142473D01*
X234974138Y-63378976D01*
X234881060Y-63603685D01*
X234753976Y-63811067D01*
X234596016Y-63996016D01*
X234411067Y-64153976D01*
X234203685Y-64281060D01*
X233978976Y-64374138D01*
X233742473Y-64430917D01*
X233500000Y-64450000D01*
X233257527Y-64430917D01*
X233021024Y-64374138D01*
X232796315Y-64281060D01*
X232588933Y-64153976D01*
X232403984Y-63996016D01*
X232246024Y-63811067D01*
X232118940Y-63603685D01*
X232025862Y-63378976D01*
X231969083Y-63142473D01*
X231950000Y-62900000D01*
X231969083Y-62657527D01*
X232025862Y-62421024D01*
X232118940Y-62196315D01*
X232246024Y-61988933D01*
X232403984Y-61803984D01*
X232588933Y-61646024D01*
X232796315Y-61518940D01*
X233021024Y-61425862D01*
X233257527Y-61369083D01*
X233500000Y-61350000D01*
X233742473Y-61369083D01*
G37*
G36*
X44084617Y-51304752D02*
G01*
X44173237Y-51304752D01*
X44267863Y-51315042D01*
X44358286Y-51320121D01*
X44436052Y-51333334D01*
X44517695Y-51342213D01*
X44617132Y-51364100D01*
X44712067Y-51380231D01*
X44782190Y-51400432D01*
X44856078Y-51416697D01*
X44958904Y-51451343D01*
X45056893Y-51479573D01*
X45118829Y-51505227D01*
X45184420Y-51527328D01*
X45289066Y-51575743D01*
X45388428Y-51616900D01*
X45441885Y-51646444D01*
X45498879Y-51672813D01*
X45603601Y-51735822D01*
X45702503Y-51790483D01*
X45747429Y-51822360D01*
X45795766Y-51851443D01*
X45898711Y-51929700D01*
X45995167Y-51998139D01*
X46031765Y-52030845D01*
X46071599Y-52061126D01*
X46170795Y-52155090D01*
X46262742Y-52237258D01*
X46291434Y-52269364D01*
X46323139Y-52299397D01*
X46416559Y-52409380D01*
X46501861Y-52504833D01*
X46523285Y-52535028D01*
X46547451Y-52563478D01*
X46633041Y-52689715D01*
X46709517Y-52797497D01*
X46724498Y-52824603D01*
X46741891Y-52850256D01*
X46817594Y-52993048D01*
X46883100Y-53111572D01*
X46892633Y-53134588D01*
X46904189Y-53156384D01*
X46968007Y-53316555D01*
X47020427Y-53443107D01*
X47025640Y-53461202D01*
X47032433Y-53478251D01*
X47082458Y-53658425D01*
X47119769Y-53787933D01*
X47121901Y-53800483D01*
X47125129Y-53812108D01*
X47159534Y-54021976D01*
X47179879Y-54141714D01*
X47180251Y-54148344D01*
X47181183Y-54154027D01*
X47198292Y-54469602D01*
X47200000Y-54500000D01*
X47198292Y-54530400D01*
X47181183Y-54845972D01*
X47180251Y-54851654D01*
X47179879Y-54858286D01*
X47159530Y-54978050D01*
X47125129Y-55187891D01*
X47121901Y-55199514D01*
X47119769Y-55212067D01*
X47082451Y-55341601D01*
X47032433Y-55521748D01*
X47025641Y-55538794D01*
X47020427Y-55556893D01*
X46967997Y-55683469D01*
X46904189Y-55843615D01*
X46892635Y-55865407D01*
X46883100Y-55888428D01*
X46817581Y-56006975D01*
X46741891Y-56149743D01*
X46724501Y-56175390D01*
X46709517Y-56202503D01*
X46633026Y-56310306D01*
X46547451Y-56436521D01*
X46523290Y-56464965D01*
X46501861Y-56495167D01*
X46416542Y-56590638D01*
X46323139Y-56700602D01*
X46291439Y-56730628D01*
X46262742Y-56762742D01*
X46170777Y-56844926D01*
X46071599Y-56938873D01*
X46031772Y-56969147D01*
X45995167Y-57001861D01*
X45898692Y-57070313D01*
X45795766Y-57148556D01*
X45747439Y-57177633D01*
X45702503Y-57209517D01*
X45603581Y-57264188D01*
X45498879Y-57327186D01*
X45441896Y-57353549D01*
X45388428Y-57383100D01*
X45289046Y-57424265D01*
X45184420Y-57472671D01*
X45118842Y-57494766D01*
X45056893Y-57520427D01*
X44958884Y-57548662D01*
X44856078Y-57583302D01*
X44782204Y-57599562D01*
X44712067Y-57619769D01*
X44617112Y-57635902D01*
X44517695Y-57657786D01*
X44436064Y-57666663D01*
X44358286Y-57679879D01*
X44267858Y-57684957D01*
X44173237Y-57695248D01*
X44084617Y-57695248D01*
X44000000Y-57700000D01*
X43915383Y-57695248D01*
X43826763Y-57695248D01*
X43732141Y-57684957D01*
X43641714Y-57679879D01*
X43563936Y-57666664D01*
X43482304Y-57657786D01*
X43382883Y-57635901D01*
X43287933Y-57619769D01*
X43217798Y-57599563D01*
X43143921Y-57583302D01*
X43041109Y-57548660D01*
X42943107Y-57520427D01*
X42881162Y-57494768D01*
X42815579Y-57472671D01*
X42710944Y-57424261D01*
X42611572Y-57383100D01*
X42558108Y-57353552D01*
X42501120Y-57327186D01*
X42396406Y-57264182D01*
X42297497Y-57209517D01*
X42252566Y-57177637D01*
X42204233Y-57148556D01*
X42101292Y-57070302D01*
X42004833Y-57001861D01*
X41968232Y-56969153D01*
X41928400Y-56938873D01*
X41829205Y-56844910D01*
X41737258Y-56762742D01*
X41708565Y-56730635D01*
X41676860Y-56700602D01*
X41583437Y-56590616D01*
X41498139Y-56495167D01*
X41476714Y-56464972D01*
X41452548Y-56436521D01*
X41366950Y-56310274D01*
X41290483Y-56202503D01*
X41275503Y-56175398D01*
X41258108Y-56149743D01*
X41182394Y-56006930D01*
X41116900Y-55888428D01*
X41107367Y-55865415D01*
X41095810Y-55843615D01*
X41031976Y-55683405D01*
X40979573Y-55556893D01*
X40974361Y-55538803D01*
X40967566Y-55521748D01*
X40917521Y-55341505D01*
X40880231Y-55212067D01*
X40878099Y-55199523D01*
X40874870Y-55187891D01*
X40840441Y-54977882D01*
X40820121Y-54858286D01*
X40819749Y-54851663D01*
X40818816Y-54845972D01*
X40801678Y-54529884D01*
X40800000Y-54500000D01*
X40801678Y-54470117D01*
X40818816Y-54154027D01*
X40819749Y-54148334D01*
X40820121Y-54141714D01*
X40840436Y-54022144D01*
X40874870Y-53812108D01*
X40878100Y-53800474D01*
X40880231Y-53787933D01*
X40917513Y-53658520D01*
X40967566Y-53478251D01*
X40974362Y-53461193D01*
X40979573Y-53443107D01*
X41031966Y-53316619D01*
X41095810Y-53156384D01*
X41107369Y-53134579D01*
X41116900Y-53111572D01*
X41182381Y-52993092D01*
X41258108Y-52850256D01*
X41275506Y-52824595D01*
X41290483Y-52797497D01*
X41366935Y-52689747D01*
X41452548Y-52563478D01*
X41476719Y-52535021D01*
X41498139Y-52504833D01*
X41583420Y-52409402D01*
X41676860Y-52299397D01*
X41708571Y-52269358D01*
X41737258Y-52237258D01*
X41829186Y-52155105D01*
X41928400Y-52061126D01*
X41968240Y-52030840D01*
X42004833Y-51998139D01*
X42101273Y-51929711D01*
X42204233Y-51851443D01*
X42252575Y-51822356D01*
X42297497Y-51790483D01*
X42396385Y-51735829D01*
X42501120Y-51672813D01*
X42558120Y-51646441D01*
X42611572Y-51616900D01*
X42710923Y-51575747D01*
X42815579Y-51527328D01*
X42881175Y-51505226D01*
X42943107Y-51479573D01*
X43041088Y-51451345D01*
X43143921Y-51416697D01*
X43217813Y-51400432D01*
X43287933Y-51380231D01*
X43382863Y-51364101D01*
X43482304Y-51342213D01*
X43563948Y-51333333D01*
X43641714Y-51320121D01*
X43732135Y-51315042D01*
X43826763Y-51304752D01*
X43915383Y-51304752D01*
X44000000Y-51300000D01*
X44084617Y-51304752D01*
G37*
G36*
X261084617Y-51304752D02*
G01*
X261173237Y-51304752D01*
X261267863Y-51315042D01*
X261358286Y-51320121D01*
X261436052Y-51333334D01*
X261517695Y-51342213D01*
X261617132Y-51364100D01*
X261712067Y-51380231D01*
X261782190Y-51400432D01*
X261856078Y-51416697D01*
X261958904Y-51451343D01*
X262056893Y-51479573D01*
X262118829Y-51505227D01*
X262184420Y-51527328D01*
X262289066Y-51575743D01*
X262388428Y-51616900D01*
X262441885Y-51646444D01*
X262498879Y-51672813D01*
X262603601Y-51735822D01*
X262702503Y-51790483D01*
X262747429Y-51822360D01*
X262795766Y-51851443D01*
X262898711Y-51929700D01*
X262995167Y-51998139D01*
X263031765Y-52030845D01*
X263071599Y-52061126D01*
X263170795Y-52155090D01*
X263262742Y-52237258D01*
X263291434Y-52269364D01*
X263323139Y-52299397D01*
X263416559Y-52409380D01*
X263501861Y-52504833D01*
X263523285Y-52535028D01*
X263547451Y-52563478D01*
X263633041Y-52689715D01*
X263709517Y-52797497D01*
X263724498Y-52824603D01*
X263741891Y-52850256D01*
X263817594Y-52993048D01*
X263883100Y-53111572D01*
X263892633Y-53134588D01*
X263904189Y-53156384D01*
X263968007Y-53316555D01*
X264020427Y-53443107D01*
X264025640Y-53461202D01*
X264032433Y-53478251D01*
X264082458Y-53658425D01*
X264119769Y-53787933D01*
X264121901Y-53800483D01*
X264125129Y-53812108D01*
X264159534Y-54021976D01*
X264179879Y-54141714D01*
X264180251Y-54148344D01*
X264181183Y-54154027D01*
X264198292Y-54469602D01*
X264200000Y-54500000D01*
X264198292Y-54530400D01*
X264181183Y-54845972D01*
X264180251Y-54851654D01*
X264179879Y-54858286D01*
X264159530Y-54978050D01*
X264125129Y-55187891D01*
X264121901Y-55199514D01*
X264119769Y-55212067D01*
X264082451Y-55341601D01*
X264032433Y-55521748D01*
X264025641Y-55538794D01*
X264020427Y-55556893D01*
X263967997Y-55683469D01*
X263904189Y-55843615D01*
X263892635Y-55865407D01*
X263883100Y-55888428D01*
X263817581Y-56006975D01*
X263741891Y-56149743D01*
X263724501Y-56175390D01*
X263709517Y-56202503D01*
X263633026Y-56310306D01*
X263547451Y-56436521D01*
X263523290Y-56464965D01*
X263501861Y-56495167D01*
X263416542Y-56590638D01*
X263323139Y-56700602D01*
X263291439Y-56730628D01*
X263262742Y-56762742D01*
X263170777Y-56844926D01*
X263071599Y-56938873D01*
X263031772Y-56969147D01*
X262995167Y-57001861D01*
X262898692Y-57070313D01*
X262795766Y-57148556D01*
X262747439Y-57177633D01*
X262702503Y-57209517D01*
X262603581Y-57264188D01*
X262498879Y-57327186D01*
X262441896Y-57353549D01*
X262388428Y-57383100D01*
X262289046Y-57424265D01*
X262184420Y-57472671D01*
X262118842Y-57494766D01*
X262056893Y-57520427D01*
X261958884Y-57548662D01*
X261856078Y-57583302D01*
X261782204Y-57599562D01*
X261712067Y-57619769D01*
X261617112Y-57635902D01*
X261517695Y-57657786D01*
X261436064Y-57666663D01*
X261358286Y-57679879D01*
X261267858Y-57684957D01*
X261173237Y-57695248D01*
X261084617Y-57695248D01*
X261000000Y-57700000D01*
X260915383Y-57695248D01*
X260826763Y-57695248D01*
X260732141Y-57684957D01*
X260641714Y-57679879D01*
X260563936Y-57666664D01*
X260482304Y-57657786D01*
X260382883Y-57635901D01*
X260287933Y-57619769D01*
X260217798Y-57599563D01*
X260143921Y-57583302D01*
X260041109Y-57548660D01*
X259943107Y-57520427D01*
X259881162Y-57494768D01*
X259815579Y-57472671D01*
X259710944Y-57424261D01*
X259611572Y-57383100D01*
X259558108Y-57353552D01*
X259501120Y-57327186D01*
X259396406Y-57264182D01*
X259297497Y-57209517D01*
X259252566Y-57177637D01*
X259204233Y-57148556D01*
X259101292Y-57070302D01*
X259004833Y-57001861D01*
X258968232Y-56969153D01*
X258928400Y-56938873D01*
X258829205Y-56844910D01*
X258737258Y-56762742D01*
X258708565Y-56730635D01*
X258676860Y-56700602D01*
X258583437Y-56590616D01*
X258498139Y-56495167D01*
X258476714Y-56464972D01*
X258452548Y-56436521D01*
X258366950Y-56310274D01*
X258290483Y-56202503D01*
X258275503Y-56175398D01*
X258258108Y-56149743D01*
X258182394Y-56006930D01*
X258116900Y-55888428D01*
X258107367Y-55865415D01*
X258095810Y-55843615D01*
X258031976Y-55683405D01*
X257979573Y-55556893D01*
X257974361Y-55538803D01*
X257967566Y-55521748D01*
X257917521Y-55341505D01*
X257880231Y-55212067D01*
X257878099Y-55199523D01*
X257874870Y-55187891D01*
X257840441Y-54977882D01*
X257820121Y-54858286D01*
X257819749Y-54851663D01*
X257818816Y-54845972D01*
X257801678Y-54529884D01*
X257800000Y-54500000D01*
X257801678Y-54470117D01*
X257818816Y-54154027D01*
X257819749Y-54148334D01*
X257820121Y-54141714D01*
X257840436Y-54022144D01*
X257874870Y-53812108D01*
X257878100Y-53800474D01*
X257880231Y-53787933D01*
X257917513Y-53658520D01*
X257967566Y-53478251D01*
X257974362Y-53461193D01*
X257979573Y-53443107D01*
X258031966Y-53316619D01*
X258095810Y-53156384D01*
X258107369Y-53134579D01*
X258116900Y-53111572D01*
X258182381Y-52993092D01*
X258258108Y-52850256D01*
X258275506Y-52824595D01*
X258290483Y-52797497D01*
X258366935Y-52689747D01*
X258452548Y-52563478D01*
X258476719Y-52535021D01*
X258498139Y-52504833D01*
X258583420Y-52409402D01*
X258676860Y-52299397D01*
X258708571Y-52269358D01*
X258737258Y-52237258D01*
X258829186Y-52155105D01*
X258928400Y-52061126D01*
X258968240Y-52030840D01*
X259004833Y-51998139D01*
X259101273Y-51929711D01*
X259204233Y-51851443D01*
X259252575Y-51822356D01*
X259297497Y-51790483D01*
X259396385Y-51735829D01*
X259501120Y-51672813D01*
X259558120Y-51646441D01*
X259611572Y-51616900D01*
X259710923Y-51575747D01*
X259815579Y-51527328D01*
X259881175Y-51505226D01*
X259943107Y-51479573D01*
X260041088Y-51451345D01*
X260143921Y-51416697D01*
X260217813Y-51400432D01*
X260287933Y-51380231D01*
X260382863Y-51364101D01*
X260482304Y-51342213D01*
X260563948Y-51333333D01*
X260641714Y-51320121D01*
X260732135Y-51315042D01*
X260826763Y-51304752D01*
X260915383Y-51304752D01*
X261000000Y-51300000D01*
X261084617Y-51304752D01*
G37*
G36*
X64936632Y-51665082D02*
G01*
X65149592Y-51718743D01*
X65349548Y-51809567D01*
X65530073Y-51934635D01*
X65685365Y-52089927D01*
X65810433Y-52270452D01*
X65901257Y-52470408D01*
X65954918Y-52683368D01*
X65970000Y-52875000D01*
X65970000Y-55125000D01*
X65954918Y-55316632D01*
X65901257Y-55529592D01*
X65810433Y-55729548D01*
X65685365Y-55910073D01*
X65530073Y-56065365D01*
X65349548Y-56190433D01*
X65149592Y-56281257D01*
X64936632Y-56334918D01*
X64745000Y-56350000D01*
X59495000Y-56350000D01*
X59303368Y-56334918D01*
X59090408Y-56281257D01*
X58890452Y-56190433D01*
X58709927Y-56065365D01*
X58554635Y-55910073D01*
X58429567Y-55729548D01*
X58338743Y-55529592D01*
X58285082Y-55316632D01*
X58270000Y-55125000D01*
X58270000Y-52875000D01*
X58285082Y-52683368D01*
X58338743Y-52470408D01*
X58429567Y-52270452D01*
X58554635Y-52089927D01*
X58709927Y-51934635D01*
X58890452Y-51809567D01*
X59090408Y-51718743D01*
X59303368Y-51665082D01*
X59495000Y-51650000D01*
X64745000Y-51650000D01*
X64936632Y-51665082D01*
G37*
G36*
X83696632Y-51665082D02*
G01*
X83909592Y-51718743D01*
X84109548Y-51809567D01*
X84290073Y-51934635D01*
X84445365Y-52089927D01*
X84570433Y-52270452D01*
X84661257Y-52470408D01*
X84714918Y-52683368D01*
X84730000Y-52875000D01*
X84730000Y-55125000D01*
X84714918Y-55316632D01*
X84661257Y-55529592D01*
X84570433Y-55729548D01*
X84445365Y-55910073D01*
X84290073Y-56065365D01*
X84109548Y-56190433D01*
X83909592Y-56281257D01*
X83696632Y-56334918D01*
X83505000Y-56350000D01*
X78255000Y-56350000D01*
X78063368Y-56334918D01*
X77850408Y-56281257D01*
X77650452Y-56190433D01*
X77469927Y-56065365D01*
X77314635Y-55910073D01*
X77189567Y-55729548D01*
X77098743Y-55529592D01*
X77045082Y-55316632D01*
X77030000Y-55125000D01*
X77030000Y-52875000D01*
X77045082Y-52683368D01*
X77098743Y-52470408D01*
X77189567Y-52270452D01*
X77314635Y-52089927D01*
X77469927Y-51934635D01*
X77650452Y-51809567D01*
X77850408Y-51718743D01*
X78063368Y-51665082D01*
X78255000Y-51650000D01*
X83505000Y-51650000D01*
X83696632Y-51665082D01*
G37*
G36*
X105436632Y-51665082D02*
G01*
X105649592Y-51718743D01*
X105849548Y-51809567D01*
X106030073Y-51934635D01*
X106185365Y-52089927D01*
X106310433Y-52270452D01*
X106401257Y-52470408D01*
X106454918Y-52683368D01*
X106470000Y-52875000D01*
X106470000Y-55125000D01*
X106454918Y-55316632D01*
X106401257Y-55529592D01*
X106310433Y-55729548D01*
X106185365Y-55910073D01*
X106030073Y-56065365D01*
X105849548Y-56190433D01*
X105649592Y-56281257D01*
X105436632Y-56334918D01*
X105245000Y-56350000D01*
X99995000Y-56350000D01*
X99803368Y-56334918D01*
X99590408Y-56281257D01*
X99390452Y-56190433D01*
X99209927Y-56065365D01*
X99054635Y-55910073D01*
X98929567Y-55729548D01*
X98838743Y-55529592D01*
X98785082Y-55316632D01*
X98770000Y-55125000D01*
X98770000Y-52875000D01*
X98785082Y-52683368D01*
X98838743Y-52470408D01*
X98929567Y-52270452D01*
X99054635Y-52089927D01*
X99209927Y-51934635D01*
X99390452Y-51809567D01*
X99590408Y-51718743D01*
X99803368Y-51665082D01*
X99995000Y-51650000D01*
X105245000Y-51650000D01*
X105436632Y-51665082D01*
G37*
G36*
X124196632Y-51665082D02*
G01*
X124409592Y-51718743D01*
X124609548Y-51809567D01*
X124790073Y-51934635D01*
X124945365Y-52089927D01*
X125070433Y-52270452D01*
X125161257Y-52470408D01*
X125214918Y-52683368D01*
X125230000Y-52875000D01*
X125230000Y-55125000D01*
X125214918Y-55316632D01*
X125161257Y-55529592D01*
X125070433Y-55729548D01*
X124945365Y-55910073D01*
X124790073Y-56065365D01*
X124609548Y-56190433D01*
X124409592Y-56281257D01*
X124196632Y-56334918D01*
X124005000Y-56350000D01*
X118755000Y-56350000D01*
X118563368Y-56334918D01*
X118350408Y-56281257D01*
X118150452Y-56190433D01*
X117969927Y-56065365D01*
X117814635Y-55910073D01*
X117689567Y-55729548D01*
X117598743Y-55529592D01*
X117545082Y-55316632D01*
X117530000Y-55125000D01*
X117530000Y-52875000D01*
X117545082Y-52683368D01*
X117598743Y-52470408D01*
X117689567Y-52270452D01*
X117814635Y-52089927D01*
X117969927Y-51934635D01*
X118150452Y-51809567D01*
X118350408Y-51718743D01*
X118563368Y-51665082D01*
X118755000Y-51650000D01*
X124005000Y-51650000D01*
X124196632Y-51665082D01*
G37*
G36*
X145936632Y-51665082D02*
G01*
X146149592Y-51718743D01*
X146349548Y-51809567D01*
X146530073Y-51934635D01*
X146685365Y-52089927D01*
X146810433Y-52270452D01*
X146901257Y-52470408D01*
X146954918Y-52683368D01*
X146970000Y-52875000D01*
X146970000Y-55125000D01*
X146954918Y-55316632D01*
X146901257Y-55529592D01*
X146810433Y-55729548D01*
X146685365Y-55910073D01*
X146530073Y-56065365D01*
X146349548Y-56190433D01*
X146149592Y-56281257D01*
X145936632Y-56334918D01*
X145745000Y-56350000D01*
X140495000Y-56350000D01*
X140303368Y-56334918D01*
X140090408Y-56281257D01*
X139890452Y-56190433D01*
X139709927Y-56065365D01*
X139554635Y-55910073D01*
X139429567Y-55729548D01*
X139338743Y-55529592D01*
X139285082Y-55316632D01*
X139270000Y-55125000D01*
X139270000Y-52875000D01*
X139285082Y-52683368D01*
X139338743Y-52470408D01*
X139429567Y-52270452D01*
X139554635Y-52089927D01*
X139709927Y-51934635D01*
X139890452Y-51809567D01*
X140090408Y-51718743D01*
X140303368Y-51665082D01*
X140495000Y-51650000D01*
X145745000Y-51650000D01*
X145936632Y-51665082D01*
G37*
G36*
X164696632Y-51665082D02*
G01*
X164909592Y-51718743D01*
X165109548Y-51809567D01*
X165290073Y-51934635D01*
X165445365Y-52089927D01*
X165570433Y-52270452D01*
X165661257Y-52470408D01*
X165714918Y-52683368D01*
X165730000Y-52875000D01*
X165730000Y-55125000D01*
X165714918Y-55316632D01*
X165661257Y-55529592D01*
X165570433Y-55729548D01*
X165445365Y-55910073D01*
X165290073Y-56065365D01*
X165109548Y-56190433D01*
X164909592Y-56281257D01*
X164696632Y-56334918D01*
X164505000Y-56350000D01*
X159255000Y-56350000D01*
X159063368Y-56334918D01*
X158850408Y-56281257D01*
X158650452Y-56190433D01*
X158469927Y-56065365D01*
X158314635Y-55910073D01*
X158189567Y-55729548D01*
X158098743Y-55529592D01*
X158045082Y-55316632D01*
X158030000Y-55125000D01*
X158030000Y-52875000D01*
X158045082Y-52683368D01*
X158098743Y-52470408D01*
X158189567Y-52270452D01*
X158314635Y-52089927D01*
X158469927Y-51934635D01*
X158650452Y-51809567D01*
X158850408Y-51718743D01*
X159063368Y-51665082D01*
X159255000Y-51650000D01*
X164505000Y-51650000D01*
X164696632Y-51665082D01*
G37*
G36*
X186436632Y-51665082D02*
G01*
X186649592Y-51718743D01*
X186849548Y-51809567D01*
X187030073Y-51934635D01*
X187185365Y-52089927D01*
X187310433Y-52270452D01*
X187401257Y-52470408D01*
X187454918Y-52683368D01*
X187470000Y-52875000D01*
X187470000Y-55125000D01*
X187454918Y-55316632D01*
X187401257Y-55529592D01*
X187310433Y-55729548D01*
X187185365Y-55910073D01*
X187030073Y-56065365D01*
X186849548Y-56190433D01*
X186649592Y-56281257D01*
X186436632Y-56334918D01*
X186245000Y-56350000D01*
X180995000Y-56350000D01*
X180803368Y-56334918D01*
X180590408Y-56281257D01*
X180390452Y-56190433D01*
X180209927Y-56065365D01*
X180054635Y-55910073D01*
X179929567Y-55729548D01*
X179838743Y-55529592D01*
X179785082Y-55316632D01*
X179770000Y-55125000D01*
X179770000Y-52875000D01*
X179785082Y-52683368D01*
X179838743Y-52470408D01*
X179929567Y-52270452D01*
X180054635Y-52089927D01*
X180209927Y-51934635D01*
X180390452Y-51809567D01*
X180590408Y-51718743D01*
X180803368Y-51665082D01*
X180995000Y-51650000D01*
X186245000Y-51650000D01*
X186436632Y-51665082D01*
G37*
G36*
X205196632Y-51665082D02*
G01*
X205409592Y-51718743D01*
X205609548Y-51809567D01*
X205790073Y-51934635D01*
X205945365Y-52089927D01*
X206070433Y-52270452D01*
X206161257Y-52470408D01*
X206214918Y-52683368D01*
X206230000Y-52875000D01*
X206230000Y-55125000D01*
X206214918Y-55316632D01*
X206161257Y-55529592D01*
X206070433Y-55729548D01*
X205945365Y-55910073D01*
X205790073Y-56065365D01*
X205609548Y-56190433D01*
X205409592Y-56281257D01*
X205196632Y-56334918D01*
X205005000Y-56350000D01*
X199755000Y-56350000D01*
X199563368Y-56334918D01*
X199350408Y-56281257D01*
X199150452Y-56190433D01*
X198969927Y-56065365D01*
X198814635Y-55910073D01*
X198689567Y-55729548D01*
X198598743Y-55529592D01*
X198545082Y-55316632D01*
X198530000Y-55125000D01*
X198530000Y-52875000D01*
X198545082Y-52683368D01*
X198598743Y-52470408D01*
X198689567Y-52270452D01*
X198814635Y-52089927D01*
X198969927Y-51934635D01*
X199150452Y-51809567D01*
X199350408Y-51718743D01*
X199563368Y-51665082D01*
X199755000Y-51650000D01*
X205005000Y-51650000D01*
X205196632Y-51665082D01*
G37*
G36*
X226936632Y-51665082D02*
G01*
X227149592Y-51718743D01*
X227349548Y-51809567D01*
X227530073Y-51934635D01*
X227685365Y-52089927D01*
X227810433Y-52270452D01*
X227901257Y-52470408D01*
X227954918Y-52683368D01*
X227970000Y-52875000D01*
X227970000Y-55125000D01*
X227954918Y-55316632D01*
X227901257Y-55529592D01*
X227810433Y-55729548D01*
X227685365Y-55910073D01*
X227530073Y-56065365D01*
X227349548Y-56190433D01*
X227149592Y-56281257D01*
X226936632Y-56334918D01*
X226745000Y-56350000D01*
X221495000Y-56350000D01*
X221303368Y-56334918D01*
X221090408Y-56281257D01*
X220890452Y-56190433D01*
X220709927Y-56065365D01*
X220554635Y-55910073D01*
X220429567Y-55729548D01*
X220338743Y-55529592D01*
X220285082Y-55316632D01*
X220270000Y-55125000D01*
X220270000Y-52875000D01*
X220285082Y-52683368D01*
X220338743Y-52470408D01*
X220429567Y-52270452D01*
X220554635Y-52089927D01*
X220709927Y-51934635D01*
X220890452Y-51809567D01*
X221090408Y-51718743D01*
X221303368Y-51665082D01*
X221495000Y-51650000D01*
X226745000Y-51650000D01*
X226936632Y-51665082D01*
G37*
G36*
X245696632Y-51665082D02*
G01*
X245909592Y-51718743D01*
X246109548Y-51809567D01*
X246290073Y-51934635D01*
X246445365Y-52089927D01*
X246570433Y-52270452D01*
X246661257Y-52470408D01*
X246714918Y-52683368D01*
X246730000Y-52875000D01*
X246730000Y-55125000D01*
X246714918Y-55316632D01*
X246661257Y-55529592D01*
X246570433Y-55729548D01*
X246445365Y-55910073D01*
X246290073Y-56065365D01*
X246109548Y-56190433D01*
X245909592Y-56281257D01*
X245696632Y-56334918D01*
X245505000Y-56350000D01*
X240255000Y-56350000D01*
X240063368Y-56334918D01*
X239850408Y-56281257D01*
X239650452Y-56190433D01*
X239469927Y-56065365D01*
X239314635Y-55910073D01*
X239189567Y-55729548D01*
X239098743Y-55529592D01*
X239045082Y-55316632D01*
X239030000Y-55125000D01*
X239030000Y-52875000D01*
X239045082Y-52683368D01*
X239098743Y-52470408D01*
X239189567Y-52270452D01*
X239314635Y-52089927D01*
X239469927Y-51934635D01*
X239650452Y-51809567D01*
X239850408Y-51718743D01*
X240063368Y-51665082D01*
X240255000Y-51650000D01*
X245505000Y-51650000D01*
X245696632Y-51665082D01*
G37*
M02*
