M48
; DRILL file {KiCad 7.0.8} date Sun Nov 12 21:22:33 2023
; FORMAT={-:-/ absolute / metric / decimal}
; #@! TF.CreationDate,2023-11-12T21:22:33-08:00
; #@! TF.GenerationSoftware,Kicad,Pcbnew,7.0.8
; #@! TF.FileFunction,Plated,1,2,PTH
FMAT,2
METRIC
; #@! TA.AperFunction,Plated,PTH,ViaDrill
T1C0.305
; #@! TA.AperFunction,Plated,PTH,ComponentDrill
T2C0.500
; #@! TA.AperFunction,Plated,PTH,ComponentDrill
T3C3.200
%
G90
G05
T1
X41.0Y-65.25
X41.0Y-66.75
X41.0Y-68.25
X41.0Y-69.75
X41.0Y-71.25
X41.0Y-72.75
X41.0Y-74.25
X41.0Y-75.75
X41.0Y-105.25
X41.0Y-106.75
X41.0Y-108.25
X41.0Y-109.75
X41.0Y-111.25
X41.0Y-112.75
X41.0Y-114.25
X41.0Y-115.75
X42.201Y-70.556
X42.201Y-110.556
X42.5Y-60.5
X42.5Y-65.25
X42.5Y-66.75
X42.5Y-68.25
X42.5Y-72.75
X42.5Y-74.25
X42.5Y-75.75
X42.5Y-80.5
X42.5Y-85.5
X42.5Y-95.5
X42.5Y-100.5
X42.5Y-105.25
X42.5Y-106.75
X42.5Y-108.25
X42.5Y-112.75
X42.5Y-114.25
X42.5Y-115.75
X42.5Y-120.5
X43.5Y-83.0
X43.5Y-88.0
X43.5Y-93.0
X43.5Y-98.0
X44.0Y-65.25
X44.0Y-66.75
X44.0Y-74.25
X44.0Y-75.75
X44.0Y-105.25
X44.0Y-106.75
X44.0Y-114.25
X44.0Y-115.75
X45.0Y-61.5
X45.0Y-78.0
X45.0Y-103.0
X45.0Y-118.75
X45.5Y-65.25
X45.5Y-66.75
X45.5Y-74.25
X45.5Y-75.75
X45.5Y-105.25
X45.5Y-106.75
X45.5Y-114.25
X45.5Y-115.75
X47.0Y-65.25
X47.0Y-66.75
X47.0Y-74.25
X47.0Y-75.75
X47.0Y-105.25
X47.0Y-106.75
X47.0Y-114.25
X47.0Y-115.75
X47.5Y-60.5
X47.5Y-100.5
X47.5Y-120.5
X48.25Y-80.5
X48.25Y-85.5
X48.25Y-95.5
X48.5Y-65.25
X48.5Y-66.75
X48.5Y-68.25
X48.5Y-72.75
X48.5Y-74.25
X48.5Y-75.75
X48.5Y-105.25
X48.5Y-106.75
X48.5Y-108.25
X48.5Y-112.75
X48.5Y-114.25
X48.5Y-115.75
X48.78Y-70.572
X48.78Y-110.572
X50.0Y-53.0
X50.0Y-58.0
X50.0Y-63.0
X50.0Y-65.25
X50.0Y-66.75
X50.0Y-68.25
X50.0Y-69.75
X50.0Y-71.25
X50.0Y-72.75
X50.0Y-74.25
X50.0Y-75.75
X50.0Y-78.0
X50.0Y-98.0
X50.0Y-103.0
X50.0Y-105.25
X50.0Y-106.75
X50.0Y-108.25
X50.0Y-109.75
X50.0Y-111.25
X50.0Y-112.75
X50.0Y-114.25
X50.0Y-115.75
X50.0Y-118.0
X50.0Y-123.0
X50.0Y-128.0
X50.25Y-83.0
X50.25Y-88.0
X50.25Y-93.0
X52.5Y-55.5
X52.5Y-60.5
X52.5Y-65.5
X52.5Y-70.5
X52.5Y-75.5
X52.5Y-80.5
X52.5Y-85.5
X52.5Y-95.5
X52.5Y-100.5
X52.5Y-105.5
X52.5Y-110.5
X52.5Y-115.5
X52.5Y-120.5
X52.5Y-125.5
X55.0Y-53.0
X55.0Y-58.0
X55.0Y-63.0
X55.0Y-68.0
X55.0Y-73.0
X55.0Y-78.0
X55.0Y-83.0
X55.0Y-88.0
X55.0Y-93.0
X55.0Y-98.0
X55.0Y-103.0
X55.0Y-108.0
X55.0Y-113.0
X55.0Y-118.0
X55.0Y-123.0
X55.0Y-128.0
X57.5Y-55.5
X57.5Y-60.5
X57.5Y-65.5
X57.5Y-70.5
X57.5Y-75.5
X57.5Y-80.5
X57.5Y-85.5
X57.5Y-95.5
X57.5Y-100.5
X57.5Y-105.5
X57.5Y-110.5
X57.5Y-115.5
X57.5Y-120.5
X57.5Y-125.5
X59.0Y-53.5
X59.0Y-55.5
X59.25Y-126.5
X59.25Y-128.5
X60.0Y-52.5
X60.0Y-54.5
X60.0Y-58.0
X60.0Y-63.0
X60.0Y-68.0
X60.0Y-73.0
X60.0Y-78.0
X60.0Y-83.0
X60.0Y-88.0
X60.0Y-93.0
X60.0Y-98.0
X60.0Y-103.0
X60.0Y-108.0
X60.0Y-113.0
X60.0Y-118.0
X60.0Y-123.0
X60.25Y-125.5
X60.25Y-127.5
X61.0Y-53.5
X61.0Y-55.5
X61.25Y-126.5
X61.25Y-128.5
X62.0Y-52.5
X62.0Y-54.5
X62.25Y-125.5
X62.25Y-127.5
X62.5Y-60.5
X62.5Y-65.5
X62.5Y-70.5
X62.5Y-75.5
X62.5Y-80.5
X62.5Y-85.5
X62.5Y-95.5
X62.5Y-100.5
X62.5Y-105.5
X62.5Y-110.5
X62.5Y-115.5
X62.5Y-120.5
X63.0Y-53.5
X63.0Y-55.5
X63.25Y-126.5
X63.25Y-128.5
X64.0Y-52.5
X64.0Y-54.5
X64.25Y-125.5
X64.25Y-127.5
X65.0Y-53.5
X65.0Y-55.5
X65.0Y-58.0
X65.0Y-63.0
X65.0Y-68.0
X65.0Y-73.0
X65.0Y-78.0
X65.0Y-83.0
X65.0Y-88.0
X65.0Y-93.0
X65.0Y-98.0
X65.0Y-103.0
X65.0Y-108.0
X65.0Y-113.0
X65.0Y-118.0
X65.0Y-123.0
X65.25Y-126.5
X65.25Y-128.5
X67.5Y-55.5
X67.5Y-60.5
X67.5Y-65.5
X67.5Y-70.5
X67.5Y-75.5
X67.5Y-80.5
X67.5Y-85.5
X67.5Y-95.5
X67.5Y-100.5
X67.5Y-105.5
X67.5Y-110.5
X67.5Y-115.5
X67.5Y-120.5
X67.5Y-125.5
X68.5Y-63.0
X68.5Y-118.0
X70.0Y-53.0
X70.0Y-58.0
X70.0Y-68.0
X70.0Y-73.0
X70.0Y-78.0
X70.0Y-83.0
X70.0Y-88.0
X70.0Y-93.0
X70.0Y-98.0
X70.0Y-103.0
X70.0Y-108.0
X70.0Y-113.0
X70.0Y-123.0
X70.0Y-128.0
X72.5Y-55.5
X72.5Y-60.5
X72.5Y-65.5
X72.5Y-70.5
X72.5Y-75.5
X72.5Y-80.5
X72.5Y-85.5
X72.5Y-95.5
X72.5Y-100.5
X72.5Y-105.5
X72.5Y-110.5
X72.5Y-115.5
X72.5Y-120.5
X72.5Y-125.5
X75.0Y-53.0
X75.0Y-58.0
X75.0Y-63.0
X75.0Y-68.0
X75.0Y-73.0
X75.0Y-78.0
X75.0Y-83.0
X75.0Y-88.0
X75.0Y-93.0
X75.0Y-98.0
X75.0Y-103.0
X75.0Y-108.0
X75.0Y-113.0
X75.0Y-118.0
X75.0Y-123.0
X75.0Y-128.0
X77.5Y-60.5
X77.5Y-65.5
X77.5Y-70.5
X77.5Y-75.5
X77.5Y-80.5
X77.5Y-85.5
X77.5Y-95.5
X77.5Y-100.5
X77.5Y-105.5
X77.5Y-110.5
X77.5Y-115.5
X77.5Y-120.5
X77.75Y-126.5
X77.75Y-128.5
X78.0Y-53.5
X78.0Y-55.5
X78.75Y-125.5
X78.75Y-127.5
X79.0Y-52.5
X79.0Y-54.5
X79.75Y-126.5
X79.75Y-128.5
X80.0Y-53.5
X80.0Y-55.5
X80.0Y-58.0
X80.0Y-63.0
X80.0Y-68.0
X80.0Y-73.0
X80.0Y-78.0
X80.0Y-83.0
X80.0Y-88.0
X80.0Y-93.0
X80.0Y-98.0
X80.0Y-103.0
X80.0Y-108.0
X80.0Y-113.0
X80.0Y-118.0
X80.0Y-123.0
X80.75Y-125.5
X80.75Y-127.5
X81.0Y-52.5
X81.0Y-54.5
X81.75Y-126.5
X81.75Y-128.5
X82.0Y-53.5
X82.0Y-55.5
X82.5Y-60.5
X82.5Y-65.5
X82.5Y-70.5
X82.5Y-75.5
X82.5Y-80.5
X82.5Y-85.5
X82.5Y-95.5
X82.5Y-100.5
X82.5Y-105.5
X82.5Y-110.5
X82.5Y-115.5
X82.5Y-120.5
X82.75Y-125.5
X82.75Y-127.5
X83.0Y-52.5
X83.0Y-54.5
X83.75Y-126.5
X83.75Y-128.5
X84.0Y-53.5
X84.0Y-55.5
X85.0Y-58.0
X85.0Y-63.0
X85.0Y-68.0
X85.0Y-73.0
X85.0Y-78.0
X85.0Y-83.0
X85.0Y-88.0
X85.0Y-93.0
X85.0Y-98.0
X85.0Y-103.0
X85.0Y-108.0
X85.0Y-113.0
X85.0Y-118.0
X85.0Y-123.0
X87.5Y-55.5
X87.5Y-60.5
X87.5Y-65.5
X87.5Y-70.5
X87.5Y-75.5
X87.5Y-80.5
X87.5Y-85.5
X87.5Y-95.5
X87.5Y-100.5
X87.5Y-105.5
X87.5Y-110.5
X87.5Y-115.5
X87.5Y-120.5
X87.5Y-125.5
X90.0Y-53.0
X90.0Y-58.0
X90.0Y-63.0
X90.0Y-68.0
X90.0Y-73.0
X90.0Y-78.0
X90.0Y-83.0
X90.0Y-88.0
X90.0Y-93.0
X90.0Y-98.0
X90.0Y-103.0
X90.0Y-108.0
X90.0Y-113.0
X90.0Y-118.0
X90.0Y-123.0
X90.0Y-128.0
X92.5Y-55.5
X92.5Y-60.5
X92.5Y-65.5
X92.5Y-70.5
X92.5Y-75.5
X92.5Y-80.5
X92.5Y-85.5
X92.5Y-95.5
X92.5Y-100.5
X92.5Y-105.5
X92.5Y-110.5
X92.5Y-115.5
X92.5Y-120.5
X92.5Y-125.5
X95.0Y-53.0
X95.0Y-58.0
X95.0Y-63.0
X95.0Y-68.0
X95.0Y-73.0
X95.0Y-78.0
X95.0Y-83.0
X95.0Y-88.0
X95.0Y-93.0
X95.0Y-98.0
X95.0Y-103.0
X95.0Y-108.0
X95.0Y-113.0
X95.0Y-118.0
X95.0Y-123.0
X95.0Y-128.0
X97.5Y-55.5
X97.5Y-60.5
X97.5Y-65.5
X97.5Y-70.5
X97.5Y-75.5
X97.5Y-80.5
X97.5Y-85.5
X97.5Y-95.5
X97.5Y-100.5
X97.5Y-105.5
X97.5Y-110.5
X97.5Y-115.5
X97.5Y-120.5
X97.5Y-125.5
X99.5Y-53.5
X99.5Y-55.5
X99.5Y-126.5
X99.5Y-128.5
X100.0Y-58.0
X100.0Y-63.0
X100.0Y-68.0
X100.0Y-73.0
X100.0Y-78.0
X100.0Y-83.0
X100.0Y-88.0
X100.0Y-93.0
X100.0Y-98.0
X100.0Y-103.0
X100.0Y-108.0
X100.0Y-113.0
X100.0Y-118.0
X100.0Y-123.0
X100.5Y-52.5
X100.5Y-54.5
X100.5Y-125.5
X100.5Y-127.5
X101.5Y-53.5
X101.5Y-55.5
X101.5Y-126.5
X101.5Y-128.5
X102.5Y-52.5
X102.5Y-54.5
X102.5Y-60.5
X102.5Y-65.5
X102.5Y-70.5
X102.5Y-75.5
X102.5Y-80.5
X102.5Y-85.5
X102.5Y-95.5
X102.5Y-100.5
X102.5Y-105.5
X102.5Y-110.5
X102.5Y-115.5
X102.5Y-120.5
X102.5Y-125.5
X102.5Y-127.5
X103.5Y-53.5
X103.5Y-55.5
X103.5Y-126.5
X103.5Y-128.5
X104.5Y-52.5
X104.5Y-54.5
X104.5Y-125.5
X104.5Y-127.5
X105.0Y-58.0
X105.0Y-63.0
X105.0Y-68.0
X105.0Y-73.0
X105.0Y-78.0
X105.0Y-83.0
X105.0Y-88.0
X105.0Y-93.0
X105.0Y-98.0
X105.0Y-103.0
X105.0Y-108.0
X105.0Y-113.0
X105.0Y-118.0
X105.0Y-123.0
X105.5Y-53.5
X105.5Y-55.5
X105.5Y-126.5
X105.5Y-128.5
X107.5Y-55.5
X107.5Y-60.5
X107.5Y-65.5
X107.5Y-70.5
X107.5Y-75.5
X107.5Y-80.5
X107.5Y-85.5
X107.5Y-95.5
X107.5Y-100.5
X107.5Y-105.5
X107.5Y-110.5
X107.5Y-115.5
X107.5Y-120.5
X107.5Y-125.5
X108.5Y-118.0
X109.0Y-63.0
X110.0Y-53.0
X110.0Y-58.0
X110.0Y-68.0
X110.0Y-73.0
X110.0Y-78.0
X110.0Y-83.0
X110.0Y-88.0
X110.0Y-93.0
X110.0Y-98.0
X110.0Y-103.0
X110.0Y-108.0
X110.0Y-113.0
X110.0Y-123.0
X110.0Y-128.0
X112.5Y-55.5
X112.5Y-60.5
X112.5Y-65.5
X112.5Y-70.5
X112.5Y-75.5
X112.5Y-80.5
X112.5Y-85.5
X112.5Y-95.5
X112.5Y-100.5
X112.5Y-105.5
X112.5Y-110.5
X112.5Y-115.5
X112.5Y-120.5
X112.5Y-125.5
X115.0Y-53.0
X115.0Y-58.0
X115.0Y-63.0
X115.0Y-68.0
X115.0Y-73.0
X115.0Y-78.0
X115.0Y-83.0
X115.0Y-88.0
X115.0Y-93.0
X115.0Y-98.0
X115.0Y-103.0
X115.0Y-108.0
X115.0Y-113.0
X115.0Y-118.0
X115.0Y-123.0
X115.0Y-128.0
X117.5Y-60.5
X117.5Y-65.5
X117.5Y-70.5
X117.5Y-75.5
X117.5Y-80.5
X117.5Y-85.5
X117.5Y-95.5
X117.5Y-100.5
X117.5Y-105.5
X117.5Y-110.5
X117.5Y-115.5
X117.5Y-120.5
X118.0Y-53.5
X118.0Y-55.5
X118.25Y-126.5
X118.25Y-128.5
X119.0Y-52.5
X119.0Y-54.5
X119.25Y-125.5
X119.25Y-127.5
X120.0Y-53.5
X120.0Y-55.5
X120.0Y-58.0
X120.0Y-63.0
X120.0Y-68.0
X120.0Y-73.0
X120.0Y-78.0
X120.0Y-83.0
X120.0Y-88.0
X120.0Y-93.0
X120.0Y-98.0
X120.0Y-103.0
X120.0Y-108.0
X120.0Y-113.0
X120.0Y-118.0
X120.0Y-123.0
X120.25Y-126.5
X120.25Y-128.5
X121.0Y-52.5
X121.0Y-54.5
X121.25Y-125.5
X121.25Y-127.5
X122.0Y-53.5
X122.0Y-55.5
X122.25Y-126.5
X122.25Y-128.5
X122.5Y-60.5
X122.5Y-65.5
X122.5Y-70.5
X122.5Y-75.5
X122.5Y-80.5
X122.5Y-85.5
X122.5Y-95.5
X122.5Y-100.5
X122.5Y-105.5
X122.5Y-110.5
X122.5Y-115.5
X122.5Y-120.5
X123.0Y-52.5
X123.0Y-54.5
X123.25Y-125.5
X123.25Y-127.5
X124.0Y-53.5
X124.0Y-55.5
X124.25Y-126.5
X124.25Y-128.5
X125.0Y-58.0
X125.0Y-63.0
X125.0Y-68.0
X125.0Y-73.0
X125.0Y-78.0
X125.0Y-83.0
X125.0Y-88.0
X125.0Y-93.0
X125.0Y-98.0
X125.0Y-103.0
X125.0Y-108.0
X125.0Y-113.0
X125.0Y-118.0
X125.0Y-123.0
X127.5Y-55.5
X127.5Y-60.5
X127.5Y-65.5
X127.5Y-70.5
X127.5Y-75.5
X127.5Y-80.5
X127.5Y-85.5
X127.5Y-95.5
X127.5Y-100.5
X127.5Y-105.5
X127.5Y-110.5
X127.5Y-115.5
X127.5Y-120.5
X127.5Y-125.5
X130.0Y-53.0
X130.0Y-58.0
X130.0Y-63.0
X130.0Y-68.0
X130.0Y-73.0
X130.0Y-78.0
X130.0Y-83.0
X130.0Y-88.0
X130.0Y-93.0
X130.0Y-98.0
X130.0Y-103.0
X130.0Y-108.0
X130.0Y-113.0
X130.0Y-118.0
X130.0Y-123.0
X130.0Y-128.0
X132.5Y-55.5
X132.5Y-60.5
X132.5Y-65.5
X132.5Y-70.5
X132.5Y-75.5
X132.5Y-80.5
X132.5Y-85.5
X132.5Y-95.5
X132.5Y-100.5
X132.5Y-105.5
X132.5Y-110.5
X132.5Y-115.5
X132.5Y-120.5
X132.5Y-125.5
X135.0Y-53.0
X135.0Y-58.0
X135.0Y-63.0
X135.0Y-68.0
X135.0Y-73.0
X135.0Y-78.0
X135.0Y-83.0
X135.0Y-88.0
X135.0Y-93.0
X135.0Y-98.0
X135.0Y-103.0
X135.0Y-108.0
X135.0Y-113.0
X135.0Y-118.0
X135.0Y-123.0
X135.0Y-128.0
X137.5Y-55.5
X137.5Y-60.5
X137.5Y-65.5
X137.5Y-70.5
X137.5Y-75.5
X137.5Y-80.5
X137.5Y-85.5
X137.5Y-95.5
X137.5Y-100.5
X137.5Y-105.5
X137.5Y-110.5
X137.5Y-115.5
X137.5Y-120.5
X137.5Y-125.5
X140.0Y-53.5
X140.0Y-55.5
X140.0Y-58.0
X140.0Y-63.0
X140.0Y-68.0
X140.0Y-73.0
X140.0Y-78.0
X140.0Y-83.0
X140.0Y-88.0
X140.0Y-93.0
X140.0Y-98.0
X140.0Y-103.0
X140.0Y-108.0
X140.0Y-113.0
X140.0Y-118.0
X140.0Y-123.0
X140.0Y-126.5
X140.0Y-128.5
X141.0Y-52.5
X141.0Y-54.5
X141.0Y-125.5
X141.0Y-127.5
X142.0Y-53.5
X142.0Y-55.5
X142.0Y-126.5
X142.0Y-128.5
X142.5Y-60.5
X142.5Y-65.5
X142.5Y-70.5
X142.5Y-75.5
X142.5Y-80.5
X142.5Y-85.5
X142.5Y-95.5
X142.5Y-100.5
X142.5Y-105.5
X142.5Y-110.5
X142.5Y-115.5
X142.5Y-120.5
X143.0Y-52.5
X143.0Y-54.5
X143.0Y-125.5
X143.0Y-127.5
X144.0Y-53.5
X144.0Y-55.5
X144.0Y-126.5
X144.0Y-128.5
X145.0Y-52.5
X145.0Y-54.5
X145.0Y-58.0
X145.0Y-63.0
X145.0Y-68.0
X145.0Y-73.0
X145.0Y-78.0
X145.0Y-83.0
X145.0Y-88.0
X145.0Y-93.0
X145.0Y-98.0
X145.0Y-103.0
X145.0Y-108.0
X145.0Y-113.0
X145.0Y-118.0
X145.0Y-123.0
X145.0Y-125.5
X145.0Y-127.5
X146.0Y-53.5
X146.0Y-55.5
X146.0Y-126.5
X146.0Y-128.5
X147.5Y-55.5
X147.5Y-60.5
X147.5Y-65.5
X147.5Y-70.5
X147.5Y-75.5
X147.5Y-80.5
X147.5Y-85.5
X147.5Y-95.5
X147.5Y-100.5
X150.0Y-53.0
X150.0Y-58.0
X150.0Y-63.0
X150.0Y-68.0
X150.0Y-73.0
X150.0Y-78.0
X150.0Y-83.0
X150.0Y-88.0
X150.0Y-93.0
X150.0Y-98.0
X150.0Y-103.0
X150.0Y-108.0
X150.0Y-113.0
X150.0Y-118.0
X150.0Y-123.0
X150.0Y-128.0
X152.5Y-55.5
X152.5Y-60.5
X152.5Y-65.5
X152.5Y-70.5
X152.5Y-75.5
X152.5Y-80.5
X152.5Y-85.5
X152.5Y-95.5
X152.5Y-100.5
X152.5Y-105.5
X152.5Y-110.5
X152.5Y-115.5
X152.5Y-120.5
X152.5Y-125.5
X155.0Y-53.0
X155.0Y-58.0
X155.0Y-63.0
X155.0Y-68.0
X155.0Y-73.0
X155.0Y-78.0
X155.0Y-83.0
X155.0Y-88.0
X155.0Y-93.0
X155.0Y-98.0
X155.0Y-103.0
X155.0Y-108.0
X155.0Y-113.0
X155.0Y-118.0
X155.0Y-123.0
X155.0Y-128.0
X157.5Y-60.5
X157.5Y-65.5
X157.5Y-70.5
X157.5Y-76.0
X157.5Y-80.5
X157.5Y-85.5
X157.5Y-95.5
X157.5Y-100.5
X157.5Y-105.5
X157.5Y-110.5
X157.5Y-115.5
X157.5Y-120.5
X157.5Y-125.5
X158.75Y-53.5
X158.75Y-55.5
X158.75Y-126.5
X158.75Y-128.5
X159.75Y-52.5
X159.75Y-54.5
X159.75Y-125.5
X159.75Y-127.5
X160.0Y-58.0
X160.0Y-63.0
X160.0Y-68.0
X160.0Y-73.0
X160.0Y-78.0
X160.0Y-83.0
X160.0Y-88.0
X160.0Y-93.0
X160.0Y-98.0
X160.0Y-103.0
X160.0Y-108.0
X160.0Y-113.0
X160.0Y-118.0
X160.0Y-123.0
X160.75Y-53.5
X160.75Y-55.5
X160.75Y-126.5
X160.75Y-128.5
X161.75Y-52.5
X161.75Y-54.5
X161.75Y-125.5
X161.75Y-127.5
X162.5Y-60.5
X162.5Y-65.5
X162.5Y-70.5
X162.5Y-75.5
X162.5Y-80.5
X162.5Y-85.5
X162.5Y-95.5
X162.5Y-100.5
X162.5Y-105.5
X162.5Y-110.5
X162.5Y-115.5
X162.5Y-120.5
X162.75Y-53.5
X162.75Y-55.5
X162.75Y-126.5
X162.75Y-128.5
X163.75Y-52.5
X163.75Y-54.5
X163.75Y-125.5
X163.75Y-127.5
X164.75Y-53.5
X164.75Y-55.5
X164.75Y-126.5
X164.75Y-128.5
X165.0Y-58.0
X165.0Y-63.0
X165.0Y-68.0
X165.0Y-73.0
X165.0Y-78.0
X165.0Y-83.0
X165.0Y-88.0
X165.0Y-93.0
X165.0Y-98.0
X165.0Y-103.0
X165.0Y-108.0
X165.0Y-113.0
X165.0Y-118.0
X165.0Y-123.0
X167.5Y-55.5
X167.5Y-60.5
X167.5Y-65.5
X167.5Y-70.5
X167.5Y-75.5
X167.5Y-80.5
X167.5Y-85.5
X167.5Y-95.5
X167.5Y-100.5
X167.5Y-105.5
X167.5Y-110.5
X167.5Y-115.5
X167.5Y-120.5
X167.5Y-125.5
X170.0Y-53.0
X170.0Y-58.0
X170.0Y-63.0
X170.0Y-68.0
X170.0Y-73.0
X170.0Y-78.0
X170.0Y-83.0
X170.0Y-88.0
X170.0Y-93.0
X170.0Y-98.0
X170.0Y-103.0
X170.0Y-108.0
X170.0Y-113.0
X170.0Y-118.0
X170.0Y-123.0
X170.0Y-128.0
X172.5Y-55.5
X172.5Y-60.5
X172.5Y-65.5
X172.5Y-70.5
X172.5Y-75.5
X172.5Y-80.5
X172.5Y-85.5
X172.5Y-95.5
X172.5Y-100.5
X172.5Y-105.5
X172.5Y-110.5
X172.5Y-115.5
X172.5Y-120.5
X172.5Y-125.5
X175.0Y-53.0
X175.0Y-58.0
X175.0Y-63.0
X175.0Y-68.0
X175.0Y-73.0
X175.0Y-78.0
X175.0Y-83.0
X175.0Y-88.0
X175.0Y-93.0
X175.0Y-98.0
X175.0Y-103.0
X175.0Y-108.0
X175.0Y-113.0
X175.0Y-118.0
X175.0Y-123.0
X175.0Y-128.0
X177.5Y-55.5
X177.5Y-60.5
X177.5Y-65.5
X177.5Y-70.5
X177.5Y-75.5
X177.5Y-80.5
X177.5Y-85.5
X177.5Y-95.5
X177.5Y-100.5
X177.5Y-105.5
X177.5Y-110.5
X177.5Y-115.5
X177.5Y-120.5
X177.5Y-125.5
X180.0Y-58.0
X180.0Y-63.0
X180.0Y-68.0
X180.0Y-73.0
X180.0Y-78.0
X180.0Y-83.0
X180.0Y-88.0
X180.0Y-93.0
X180.0Y-98.0
X180.0Y-103.0
X180.0Y-108.0
X180.0Y-113.0
X180.0Y-118.0
X180.0Y-123.0
X180.5Y-53.5
X180.5Y-55.5
X180.5Y-126.5
X180.5Y-128.5
X181.5Y-52.5
X181.5Y-54.5
X181.5Y-125.5
X181.5Y-127.5
X182.5Y-53.5
X182.5Y-55.5
X182.5Y-60.5
X182.5Y-65.5
X182.5Y-70.5
X182.5Y-75.5
X182.5Y-80.5
X182.5Y-85.5
X182.5Y-95.5
X182.5Y-100.5
X182.5Y-105.5
X182.5Y-110.5
X182.5Y-115.5
X182.5Y-120.5
X182.5Y-126.5
X182.5Y-128.5
X183.5Y-52.5
X183.5Y-54.5
X183.5Y-125.5
X183.5Y-127.5
X184.5Y-53.5
X184.5Y-55.5
X184.5Y-126.5
X184.5Y-128.5
X185.0Y-58.0
X185.0Y-63.0
X185.0Y-68.0
X185.0Y-73.0
X185.0Y-78.0
X185.0Y-83.0
X185.0Y-88.0
X185.0Y-93.0
X185.0Y-98.0
X185.0Y-103.0
X185.0Y-108.0
X185.0Y-113.0
X185.0Y-118.0
X185.0Y-123.0
X185.5Y-52.5
X185.5Y-54.5
X185.5Y-125.5
X185.5Y-127.5
X186.5Y-53.5
X186.5Y-55.5
X186.5Y-126.5
X186.5Y-128.5
X187.5Y-60.5
X187.5Y-65.5
X187.5Y-70.5
X187.5Y-75.5
X187.5Y-80.5
X187.5Y-85.5
X187.5Y-95.5
X187.5Y-100.5
X187.5Y-105.5
X187.5Y-110.5
X187.5Y-115.5
X187.5Y-120.5
X190.0Y-53.0
X190.0Y-58.0
X190.0Y-63.0
X190.0Y-68.0
X190.0Y-73.0
X190.0Y-78.0
X190.0Y-83.0
X190.0Y-88.0
X190.0Y-93.0
X190.0Y-98.0
X190.0Y-103.0
X190.0Y-108.0
X190.0Y-113.0
X190.0Y-118.0
X190.0Y-123.0
X190.0Y-128.0
X192.5Y-55.5
X192.5Y-60.5
X192.5Y-65.5
X192.5Y-70.5
X192.5Y-75.5
X192.5Y-80.5
X192.5Y-85.5
X192.5Y-95.5
X192.5Y-100.5
X192.5Y-105.5
X192.5Y-110.5
X192.5Y-115.5
X192.5Y-120.5
X192.5Y-125.5
X195.0Y-53.0
X195.0Y-58.0
X195.0Y-68.0
X195.0Y-73.0
X195.0Y-78.0
X195.0Y-83.0
X195.0Y-88.0
X195.0Y-93.0
X195.0Y-98.0
X195.0Y-103.0
X195.0Y-108.0
X195.0Y-113.0
X195.0Y-123.0
X195.0Y-128.0
X195.5Y-118.0
X196.0Y-63.0
X197.5Y-55.5
X197.5Y-60.5
X197.5Y-65.5
X197.5Y-70.5
X197.5Y-75.5
X197.5Y-80.5
X197.5Y-85.5
X197.5Y-95.5
X197.5Y-100.5
X197.5Y-105.5
X197.5Y-110.5
X197.5Y-115.5
X197.5Y-120.5
X197.5Y-125.5
X199.25Y-53.5
X199.25Y-55.5
X199.25Y-126.5
X199.25Y-128.5
X200.0Y-58.0
X200.0Y-63.0
X200.0Y-68.0
X200.0Y-73.0
X200.0Y-78.0
X200.0Y-83.0
X200.0Y-88.0
X200.0Y-93.0
X200.0Y-98.0
X200.0Y-103.0
X200.0Y-108.0
X200.0Y-113.0
X200.0Y-118.0
X200.0Y-123.0
X200.25Y-52.5
X200.25Y-54.5
X200.25Y-125.5
X200.25Y-127.5
X201.25Y-53.5
X201.25Y-55.5
X201.25Y-126.5
X201.25Y-128.5
X202.25Y-52.5
X202.25Y-54.5
X202.25Y-125.5
X202.25Y-127.5
X202.5Y-60.5
X202.5Y-65.5
X202.5Y-70.5
X202.5Y-75.5
X202.5Y-80.5
X202.5Y-85.5
X202.5Y-95.5
X202.5Y-100.5
X202.5Y-105.5
X202.5Y-110.5
X202.5Y-115.5
X202.5Y-120.5
X203.25Y-53.5
X203.25Y-55.5
X203.25Y-126.5
X203.25Y-128.5
X204.25Y-52.5
X204.25Y-54.5
X204.25Y-125.5
X204.25Y-127.5
X205.0Y-58.0
X205.0Y-63.0
X205.0Y-68.0
X205.0Y-73.0
X205.0Y-78.0
X205.0Y-83.0
X205.0Y-88.0
X205.0Y-93.0
X205.0Y-98.0
X205.0Y-103.0
X205.0Y-108.0
X205.0Y-113.0
X205.0Y-118.0
X205.0Y-123.0
X205.25Y-53.5
X205.25Y-55.5
X205.25Y-126.5
X205.25Y-128.5
X207.5Y-55.5
X207.5Y-60.5
X207.5Y-65.5
X207.5Y-70.5
X207.5Y-75.5
X207.5Y-80.5
X207.5Y-85.5
X207.5Y-95.5
X207.5Y-100.5
X207.5Y-105.5
X207.5Y-110.5
X207.5Y-115.5
X207.5Y-120.5
X207.5Y-125.5
X210.0Y-53.0
X210.0Y-58.0
X210.0Y-63.0
X210.0Y-68.0
X210.0Y-73.0
X210.0Y-78.0
X210.0Y-83.0
X210.0Y-88.0
X210.0Y-93.0
X210.0Y-98.0
X210.0Y-103.0
X210.0Y-108.0
X210.0Y-113.0
X210.0Y-118.0
X210.0Y-123.0
X210.0Y-128.0
X212.5Y-55.5
X212.5Y-60.5
X212.5Y-65.5
X212.5Y-70.5
X212.5Y-75.5
X212.5Y-80.5
X212.5Y-85.5
X212.5Y-95.5
X212.5Y-100.5
X212.5Y-105.5
X212.5Y-110.5
X212.5Y-115.5
X212.5Y-120.5
X212.5Y-125.5
X215.0Y-53.0
X215.0Y-58.0
X215.0Y-63.0
X215.0Y-68.0
X215.0Y-73.0
X215.0Y-78.0
X215.0Y-83.0
X215.0Y-88.0
X215.0Y-93.0
X215.0Y-98.0
X215.0Y-103.0
X215.0Y-108.0
X215.0Y-113.0
X215.0Y-118.0
X215.0Y-123.0
X215.0Y-128.0
X217.5Y-55.5
X217.5Y-60.5
X217.5Y-65.5
X217.5Y-70.5
X217.5Y-75.5
X217.5Y-80.5
X217.5Y-85.5
X217.5Y-95.5
X217.5Y-100.5
X217.5Y-105.5
X217.5Y-110.5
X217.5Y-115.5
X217.5Y-120.5
X217.5Y-125.5
X220.0Y-58.0
X220.0Y-63.0
X220.0Y-68.0
X220.0Y-73.0
X220.0Y-78.0
X220.0Y-83.0
X220.0Y-88.0
X220.0Y-93.0
X220.0Y-98.0
X220.0Y-103.0
X220.0Y-108.0
X220.0Y-113.0
X220.0Y-118.0
X220.0Y-123.0
X221.0Y-53.5
X221.0Y-55.5
X221.0Y-126.5
X221.0Y-128.5
X222.0Y-52.5
X222.0Y-54.5
X222.0Y-125.5
X222.0Y-127.5
X222.5Y-60.5
X222.5Y-65.5
X222.5Y-70.5
X222.5Y-75.5
X222.5Y-80.5
X222.5Y-85.5
X222.5Y-95.5
X222.5Y-100.5
X222.5Y-105.5
X222.5Y-110.5
X222.5Y-115.5
X222.5Y-120.5
X223.0Y-53.5
X223.0Y-55.5
X223.0Y-126.5
X223.0Y-128.5
X224.0Y-52.5
X224.0Y-54.5
X224.0Y-125.5
X224.0Y-127.5
X225.0Y-53.5
X225.0Y-55.5
X225.0Y-58.0
X225.0Y-63.0
X225.0Y-68.0
X225.0Y-73.0
X225.0Y-78.0
X225.0Y-83.0
X225.0Y-88.0
X225.0Y-93.0
X225.0Y-98.0
X225.0Y-103.0
X225.0Y-108.0
X225.0Y-113.0
X225.0Y-118.0
X225.0Y-123.0
X225.0Y-126.5
X225.0Y-128.5
X226.0Y-52.5
X226.0Y-54.5
X226.0Y-125.5
X226.0Y-127.5
X227.0Y-53.5
X227.0Y-55.5
X227.0Y-126.5
X227.0Y-128.5
X227.5Y-60.5
X227.5Y-65.5
X227.5Y-70.5
X227.5Y-75.5
X227.5Y-80.5
X227.5Y-85.5
X227.5Y-95.5
X227.5Y-100.5
X227.5Y-105.5
X227.5Y-110.5
X227.5Y-115.5
X227.5Y-120.5
X230.0Y-53.0
X230.0Y-58.0
X230.0Y-63.0
X230.0Y-68.0
X230.0Y-73.0
X230.0Y-78.0
X230.0Y-83.0
X230.0Y-88.0
X230.0Y-93.0
X230.0Y-98.0
X230.0Y-103.0
X230.0Y-108.0
X230.0Y-113.0
X230.0Y-118.0
X230.0Y-123.0
X230.0Y-128.0
X232.5Y-55.5
X232.5Y-60.5
X232.5Y-65.5
X232.5Y-70.5
X232.5Y-75.5
X232.5Y-80.5
X232.5Y-85.5
X232.5Y-95.5
X232.5Y-100.5
X232.5Y-105.5
X232.5Y-110.5
X232.5Y-115.5
X232.5Y-120.5
X232.5Y-125.5
X235.0Y-53.0
X235.0Y-58.0
X235.0Y-68.0
X235.0Y-73.0
X235.0Y-78.0
X235.0Y-83.0
X235.0Y-88.0
X235.0Y-93.0
X235.0Y-98.0
X235.0Y-103.0
X235.0Y-108.0
X235.0Y-113.0
X235.0Y-123.0
X235.0Y-128.0
X236.5Y-63.0
X236.5Y-118.0
X237.5Y-55.5
X237.5Y-60.5
X237.5Y-65.5
X237.5Y-70.5
X237.5Y-75.5
X237.5Y-80.5
X237.5Y-85.5
X237.5Y-95.5
X237.5Y-100.5
X237.5Y-105.5
X237.5Y-110.5
X237.5Y-115.5
X237.5Y-120.5
X237.5Y-125.5
X239.75Y-53.5
X239.75Y-55.5
X239.75Y-126.5
X239.75Y-128.5
X240.0Y-58.0
X240.0Y-63.0
X240.0Y-68.0
X240.0Y-73.0
X240.0Y-78.0
X240.0Y-83.0
X240.0Y-88.0
X240.0Y-93.0
X240.0Y-98.0
X240.0Y-103.0
X240.0Y-108.0
X240.0Y-113.0
X240.0Y-118.0
X240.0Y-123.0
X240.75Y-52.5
X240.75Y-54.5
X240.75Y-125.5
X240.75Y-127.5
X241.75Y-53.5
X241.75Y-55.5
X241.75Y-126.5
X241.75Y-128.5
X242.5Y-60.5
X242.5Y-65.5
X242.5Y-70.5
X242.5Y-75.5
X242.5Y-80.5
X242.5Y-85.5
X242.5Y-95.5
X242.5Y-100.5
X242.5Y-105.5
X242.5Y-110.5
X242.5Y-115.5
X242.5Y-120.5
X242.75Y-52.5
X242.75Y-54.5
X242.75Y-125.5
X242.75Y-127.5
X243.75Y-53.5
X243.75Y-55.5
X243.75Y-126.5
X243.75Y-128.5
X244.75Y-52.5
X244.75Y-54.5
X244.75Y-125.5
X244.75Y-127.5
X245.0Y-58.0
X245.0Y-63.0
X245.0Y-68.0
X245.0Y-73.0
X245.0Y-78.0
X245.0Y-83.0
X245.0Y-88.0
X245.0Y-93.0
X245.0Y-98.0
X245.0Y-103.0
X245.0Y-108.0
X245.0Y-113.0
X245.0Y-118.0
X245.0Y-123.0
X245.75Y-53.5
X245.75Y-55.5
X245.75Y-126.5
X245.75Y-128.5
X247.5Y-55.5
X247.5Y-60.5
X247.5Y-65.5
X247.5Y-70.5
X247.5Y-75.5
X247.5Y-80.5
X247.5Y-85.5
X247.5Y-95.5
X247.5Y-100.5
X247.5Y-105.5
X247.5Y-110.5
X247.5Y-115.5
X247.5Y-120.5
X247.5Y-125.5
X250.0Y-53.0
X250.0Y-58.0
X250.0Y-63.0
X250.0Y-68.0
X250.0Y-73.0
X250.0Y-78.0
X250.0Y-83.0
X250.0Y-88.0
X250.0Y-93.0
X250.0Y-98.0
X250.0Y-103.0
X250.0Y-108.0
X250.0Y-113.0
X250.0Y-118.0
X250.0Y-123.0
X250.0Y-128.0
X252.5Y-55.5
X252.5Y-60.5
X252.5Y-65.5
X252.5Y-70.5
X252.5Y-75.5
X252.5Y-80.5
X252.5Y-85.5
X252.5Y-95.5
X252.5Y-100.5
X252.5Y-105.5
X252.5Y-110.5
X252.5Y-115.5
X252.5Y-120.5
X252.5Y-125.5
X255.0Y-53.0
X255.0Y-58.0
X255.0Y-63.0
X255.0Y-65.25
X255.0Y-66.75
X255.0Y-68.25
X255.0Y-69.75
X255.0Y-71.25
X255.0Y-72.75
X255.0Y-74.25
X255.0Y-75.75
X255.0Y-78.0
X255.0Y-83.0
X255.0Y-88.0
X255.0Y-98.0
X255.0Y-103.0
X255.0Y-105.25
X255.0Y-106.75
X255.0Y-108.25
X255.0Y-109.75
X255.0Y-111.25
X255.0Y-112.75
X255.0Y-114.25
X255.0Y-115.75
X255.0Y-118.0
X255.0Y-123.0
X255.0Y-128.0
X256.201Y-70.556
X256.201Y-110.556
X256.5Y-65.25
X256.5Y-66.75
X256.5Y-68.25
X256.5Y-72.75
X256.5Y-74.25
X256.5Y-75.75
X256.5Y-105.25
X256.5Y-106.75
X256.5Y-108.25
X256.5Y-112.75
X256.5Y-114.25
X256.5Y-115.75
X257.5Y-60.5
X257.5Y-80.5
X257.5Y-100.5
X257.5Y-120.5
X258.0Y-65.25
X258.0Y-66.75
X258.0Y-74.25
X258.0Y-75.75
X258.0Y-105.25
X258.0Y-106.75
X258.0Y-114.25
X258.0Y-115.75
X259.5Y-65.25
X259.5Y-66.75
X259.5Y-74.25
X259.5Y-75.75
X259.5Y-105.25
X259.5Y-106.75
X259.5Y-114.25
X259.5Y-115.75
X260.0Y-62.25
X260.0Y-78.0
X260.0Y-83.0
X260.0Y-98.0
X260.0Y-103.0
X260.0Y-118.75
X261.0Y-65.25
X261.0Y-66.75
X261.0Y-74.25
X261.0Y-75.75
X261.0Y-105.25
X261.0Y-106.75
X261.0Y-114.25
X261.0Y-115.75
X262.5Y-60.5
X262.5Y-65.25
X262.5Y-66.75
X262.5Y-68.25
X262.5Y-72.75
X262.5Y-74.25
X262.5Y-75.75
X262.5Y-80.5
X262.5Y-86.25
X262.5Y-88.0
X262.5Y-95.5
X262.5Y-100.5
X262.5Y-105.25
X262.5Y-106.75
X262.5Y-108.25
X262.5Y-112.75
X262.5Y-114.25
X262.5Y-115.75
X262.5Y-120.5
X262.78Y-70.572
X262.78Y-110.572
X264.0Y-65.25
X264.0Y-66.75
X264.0Y-68.25
X264.0Y-69.75
X264.0Y-71.25
X264.0Y-72.75
X264.0Y-74.25
X264.0Y-75.75
X264.0Y-105.25
X264.0Y-106.75
X264.0Y-108.25
X264.0Y-109.75
X264.0Y-111.25
X264.0Y-112.75
X264.0Y-114.25
X264.0Y-115.75
T2
X41.6Y-54.5
X41.6Y-126.5
X42.303Y-52.803
X42.303Y-56.197
X42.303Y-124.803
X42.303Y-128.197
X44.0Y-52.1
X44.0Y-56.9
X44.0Y-124.1
X44.0Y-128.9
X45.697Y-52.803
X45.697Y-56.197
X45.697Y-124.803
X45.697Y-128.197
X46.4Y-54.5
X46.4Y-126.5
X258.6Y-54.5
X258.6Y-126.5
X259.303Y-52.803
X259.303Y-56.197
X259.303Y-124.803
X259.303Y-128.197
X261.0Y-52.1
X261.0Y-56.9
X261.0Y-124.1
X261.0Y-128.9
X262.697Y-52.803
X262.697Y-56.197
X262.697Y-124.803
X262.697Y-128.197
X263.4Y-54.5
X263.4Y-126.5
T3
X44.0Y-54.5
X44.0Y-126.5
X261.0Y-54.5
X261.0Y-126.5
T0
M30
