G04 #@! TF.GenerationSoftware,KiCad,Pcbnew,7.0.8*
G04 #@! TF.CreationDate,2023-11-12T21:23:09-08:00*
G04 #@! TF.ProjectId,10p-battery-holder,3130702d-6261-4747-9465-72792d686f6c,V1*
G04 #@! TF.SameCoordinates,Original*
G04 #@! TF.FileFunction,Legend,Bot*
G04 #@! TF.FilePolarity,Positive*
%FSLAX46Y46*%
G04 Gerber Fmt 4.6, Leading zero omitted, Abs format (unit mm)*
G04 Created by KiCad (PCBNEW 7.0.8) date 2023-11-12 21:23:09*
%MOMM*%
%LPD*%
G01*
G04 APERTURE LIST*
%ADD10C,0.800000*%
%ADD11C,6.400000*%
%ADD12C,3.100000*%
%ADD13C,5.200000*%
G04 APERTURE END LIST*
%LPC*%
D10*
X258600000Y-126500000D03*
X259302944Y-124802944D03*
X259302944Y-128197056D03*
X261000000Y-124100000D03*
D11*
X261000000Y-126500000D03*
D10*
X261000000Y-128900000D03*
X262697056Y-124802944D03*
X262697056Y-128197056D03*
X263400000Y-126500000D03*
X258600000Y-54500000D03*
X259302944Y-52802944D03*
X259302944Y-56197056D03*
X261000000Y-52100000D03*
D11*
X261000000Y-54500000D03*
D10*
X261000000Y-56900000D03*
X262697056Y-52802944D03*
X262697056Y-56197056D03*
X263400000Y-54500000D03*
D12*
X193000000Y-62900000D03*
X193000000Y-118100000D03*
D13*
X45500000Y-70500000D03*
D10*
X41600000Y-54500000D03*
X42302944Y-52802944D03*
X42302944Y-56197056D03*
X44000000Y-52100000D03*
D11*
X44000000Y-54500000D03*
D10*
X44000000Y-56900000D03*
X45697056Y-52802944D03*
X45697056Y-56197056D03*
X46400000Y-54500000D03*
D13*
X45500000Y-110500000D03*
X259500000Y-110500000D03*
D12*
X112000000Y-62900000D03*
X112000000Y-118100000D03*
D13*
X259500000Y-70500000D03*
D10*
X41600000Y-126500000D03*
X42302944Y-124802944D03*
X42302944Y-128197056D03*
X44000000Y-124100000D03*
D11*
X44000000Y-126500000D03*
D10*
X44000000Y-128900000D03*
X45697056Y-124802944D03*
X45697056Y-128197056D03*
X46400000Y-126500000D03*
D12*
X233500000Y-62900000D03*
X233500000Y-118100000D03*
X152500000Y-62900000D03*
X152500000Y-118100000D03*
X71500000Y-62900000D03*
X71500000Y-118100000D03*
%LPD*%
M02*
