G04 #@! TF.GenerationSoftware,KiCad,Pcbnew,7.0.8*
G04 #@! TF.CreationDate,2023-11-12T21:23:09-08:00*
G04 #@! TF.ProjectId,10p-battery-holder,3130702d-6261-4747-9465-72792d686f6c,V1*
G04 #@! TF.SameCoordinates,Original*
G04 #@! TF.FileFunction,Legend,Top*
G04 #@! TF.FilePolarity,Positive*
%FSLAX46Y46*%
G04 Gerber Fmt 4.6, Leading zero omitted, Abs format (unit mm)*
G04 Created by KiCad (PCBNEW 7.0.8) date 2023-11-12 21:23:09*
%MOMM*%
%LPD*%
G01*
G04 APERTURE LIST*
G04 Aperture macros list*
%AMRoundRect*
0 Rectangle with rounded corners*
0 $1 Rounding radius*
0 $2 $3 $4 $5 $6 $7 $8 $9 X,Y pos of 4 corners*
0 Add a 4 corners polygon primitive as box body*
4,1,4,$2,$3,$4,$5,$6,$7,$8,$9,$2,$3,0*
0 Add four circle primitives for the rounded corners*
1,1,$1+$1,$2,$3*
1,1,$1+$1,$4,$5*
1,1,$1+$1,$6,$7*
1,1,$1+$1,$8,$9*
0 Add four rect primitives between the rounded corners*
20,1,$1+$1,$2,$3,$4,$5,0*
20,1,$1+$1,$4,$5,$6,$7,0*
20,1,$1+$1,$6,$7,$8,$9,0*
20,1,$1+$1,$8,$9,$2,$3,0*%
G04 Aperture macros list end*
%ADD10C,0.203200*%
%ADD11C,0.200000*%
%ADD12C,0.120000*%
%ADD13C,0.800000*%
%ADD14C,6.400000*%
%ADD15C,3.100000*%
%ADD16RoundRect,1.225000X-2.625000X-1.125000X2.625000X-1.125000X2.625000X1.125000X-2.625000X1.125000X0*%
%ADD17C,5.200000*%
%ADD18C,8.500000*%
%ADD19RoundRect,0.200000X0.600000X-0.200000X0.600000X0.200000X-0.600000X0.200000X-0.600000X-0.200000X0*%
%ADD20RoundRect,0.250001X1.249999X-0.799999X1.249999X0.799999X-1.249999X0.799999X-1.249999X-0.799999X0*%
G04 APERTURE END LIST*
D10*
G36*
X48314312Y-64114437D02*
G01*
X42836512Y-64114437D01*
X42836512Y-63359694D01*
X42999798Y-63359694D01*
X43003705Y-63371719D01*
X43002831Y-63384335D01*
X43057259Y-63602049D01*
X43063265Y-63611647D01*
X43064952Y-63622845D01*
X43119381Y-63731702D01*
X43130937Y-63743435D01*
X43138413Y-63758107D01*
X43247270Y-63866965D01*
X43268141Y-63877599D01*
X43286984Y-63891509D01*
X43450269Y-63945937D01*
X43466736Y-63946062D01*
X43482398Y-63951151D01*
X43591255Y-63951151D01*
X43606916Y-63946062D01*
X43623383Y-63945937D01*
X43786669Y-63891509D01*
X43805513Y-63877598D01*
X43826384Y-63866964D01*
X43843797Y-63849551D01*
X44197226Y-63849551D01*
X44202199Y-63864856D01*
X44202199Y-63880947D01*
X44211657Y-63893965D01*
X44216630Y-63909270D01*
X44229648Y-63918728D01*
X44239107Y-63931747D01*
X44254411Y-63936719D01*
X44267430Y-63946178D01*
X44283521Y-63946178D01*
X44298826Y-63951151D01*
X44843112Y-63951151D01*
X44902831Y-63931747D01*
X44939739Y-63880947D01*
X44939739Y-63849551D01*
X45231369Y-63849551D01*
X45236342Y-63864856D01*
X45236342Y-63880947D01*
X45245800Y-63893965D01*
X45250773Y-63909270D01*
X45263791Y-63918728D01*
X45273250Y-63931747D01*
X45288554Y-63936719D01*
X45301573Y-63946178D01*
X45317664Y-63946178D01*
X45332969Y-63951151D01*
X45877255Y-63951151D01*
X45936974Y-63931747D01*
X45973882Y-63880947D01*
X45973882Y-63849551D01*
X46156655Y-63849551D01*
X46161628Y-63864856D01*
X46161628Y-63880947D01*
X46171086Y-63893965D01*
X46176059Y-63909270D01*
X46189077Y-63918728D01*
X46198536Y-63931747D01*
X46213840Y-63936719D01*
X46226859Y-63946178D01*
X46242950Y-63946178D01*
X46258255Y-63951151D01*
X46802541Y-63951151D01*
X46862260Y-63931747D01*
X46899168Y-63880947D01*
X46899168Y-63818155D01*
X46862260Y-63767355D01*
X46802541Y-63747951D01*
X46359855Y-63747951D01*
X46359855Y-63445519D01*
X47086914Y-63445519D01*
X47123822Y-63496319D01*
X47183541Y-63515723D01*
X47517370Y-63515723D01*
X47517370Y-63849551D01*
X47536774Y-63909270D01*
X47587574Y-63946178D01*
X47650366Y-63946178D01*
X47701166Y-63909270D01*
X47720570Y-63849551D01*
X47720570Y-63515723D01*
X48054399Y-63515723D01*
X48114118Y-63496319D01*
X48151026Y-63445519D01*
X48151026Y-63382727D01*
X48114118Y-63331927D01*
X48054399Y-63312523D01*
X47720570Y-63312523D01*
X47720570Y-62978694D01*
X47701166Y-62918975D01*
X47650366Y-62882067D01*
X47587574Y-62882067D01*
X47536774Y-62918975D01*
X47517370Y-62978694D01*
X47517370Y-63312523D01*
X47183541Y-63312523D01*
X47123822Y-63331927D01*
X47086914Y-63382727D01*
X47086914Y-63445519D01*
X46359855Y-63445519D01*
X46359855Y-62706551D01*
X46340451Y-62646832D01*
X46289651Y-62609924D01*
X46226859Y-62609924D01*
X46176059Y-62646832D01*
X46156655Y-62706551D01*
X46156655Y-63849551D01*
X45973882Y-63849551D01*
X45973882Y-63818155D01*
X45936974Y-63767355D01*
X45877255Y-63747951D01*
X45434569Y-63747951D01*
X45434569Y-62706551D01*
X45415165Y-62646832D01*
X45364365Y-62609924D01*
X45301573Y-62609924D01*
X45250773Y-62646832D01*
X45231369Y-62706551D01*
X45231369Y-63849551D01*
X44939739Y-63849551D01*
X44939739Y-63818155D01*
X44902831Y-63767355D01*
X44843112Y-63747951D01*
X44400426Y-63747951D01*
X44400426Y-63352437D01*
X44679826Y-63352437D01*
X44739545Y-63333033D01*
X44776453Y-63282233D01*
X44776453Y-63219441D01*
X44739545Y-63168641D01*
X44679826Y-63149237D01*
X44400426Y-63149237D01*
X44400426Y-62808151D01*
X44843112Y-62808151D01*
X44902831Y-62788747D01*
X44939739Y-62737947D01*
X44939739Y-62675155D01*
X44902831Y-62624355D01*
X44843112Y-62604951D01*
X44298826Y-62604951D01*
X44283521Y-62609924D01*
X44267430Y-62609924D01*
X44254411Y-62619382D01*
X44239107Y-62624355D01*
X44229648Y-62637373D01*
X44216630Y-62646832D01*
X44211657Y-62662136D01*
X44202199Y-62675155D01*
X44202199Y-62691245D01*
X44197226Y-62706551D01*
X44197226Y-63849551D01*
X43843797Y-63849551D01*
X43880812Y-63812535D01*
X43909319Y-63756586D01*
X43899495Y-63694568D01*
X43855094Y-63650167D01*
X43793075Y-63640345D01*
X43737127Y-63668852D01*
X43699658Y-63706321D01*
X43574769Y-63747951D01*
X43498884Y-63747951D01*
X43373996Y-63706322D01*
X43293755Y-63626081D01*
X43251686Y-63541944D01*
X43202998Y-63347185D01*
X43202998Y-63208916D01*
X43251686Y-63014157D01*
X43293755Y-62930020D01*
X43373994Y-62849781D01*
X43498885Y-62808151D01*
X43574768Y-62808151D01*
X43699658Y-62849781D01*
X43737127Y-62887250D01*
X43793075Y-62915757D01*
X43855094Y-62905934D01*
X43899495Y-62861533D01*
X43909318Y-62799514D01*
X43880811Y-62743566D01*
X43826383Y-62689138D01*
X43805514Y-62678504D01*
X43786670Y-62664594D01*
X43623384Y-62610165D01*
X43606916Y-62610039D01*
X43591255Y-62604951D01*
X43482398Y-62604951D01*
X43466736Y-62610039D01*
X43450269Y-62610165D01*
X43286983Y-62664594D01*
X43268139Y-62678504D01*
X43247270Y-62689138D01*
X43138413Y-62797995D01*
X43130937Y-62812667D01*
X43119381Y-62824400D01*
X43064952Y-62933257D01*
X43063265Y-62944454D01*
X43057259Y-62954053D01*
X43002831Y-63171767D01*
X43003705Y-63184382D01*
X42999798Y-63196408D01*
X42999798Y-63359694D01*
X42836512Y-63359694D01*
X42836512Y-62441665D01*
X48314312Y-62441665D01*
X48314312Y-64114437D01*
G37*
G36*
X46527367Y-97834498D02*
G01*
X46558478Y-97865609D01*
X46594808Y-97938268D01*
X46594808Y-98108013D01*
X46558478Y-98180672D01*
X46527367Y-98211783D01*
X46454709Y-98248112D01*
X46448250Y-98248112D01*
X46375591Y-98211783D01*
X46344481Y-98180672D01*
X46308151Y-98108012D01*
X46308151Y-97938269D01*
X46344481Y-97865609D01*
X46375591Y-97834498D01*
X46448250Y-97798169D01*
X46454709Y-97798169D01*
X46527367Y-97834498D01*
G37*
G36*
X47180510Y-97834498D02*
G01*
X47211621Y-97865609D01*
X47247951Y-97938268D01*
X47247951Y-98108013D01*
X47211621Y-98180672D01*
X47180510Y-98211783D01*
X47107852Y-98248112D01*
X46938107Y-98248112D01*
X46865449Y-98211783D01*
X46834338Y-98180672D01*
X46798008Y-98108012D01*
X46798008Y-97938269D01*
X46834338Y-97865609D01*
X46865448Y-97834498D01*
X46938108Y-97798169D01*
X47107852Y-97798169D01*
X47180510Y-97834498D01*
G37*
G36*
X47180510Y-96745927D02*
G01*
X47211621Y-96777038D01*
X47247951Y-96849697D01*
X47247951Y-97019442D01*
X47211621Y-97092101D01*
X47180510Y-97123212D01*
X47107852Y-97159541D01*
X46883679Y-97159541D01*
X46811019Y-97123211D01*
X46779908Y-97092100D01*
X46743580Y-97019442D01*
X46743580Y-96849697D01*
X46779908Y-96777039D01*
X46811020Y-96745927D01*
X46883679Y-96709598D01*
X47107852Y-96709598D01*
X47180510Y-96745927D01*
G37*
G36*
X45004389Y-96397541D02*
G01*
X44934592Y-96397541D01*
X44877478Y-96368984D01*
X44848921Y-96311870D01*
X44848921Y-96142126D01*
X44877478Y-96085012D01*
X44934592Y-96056456D01*
X44936172Y-96056456D01*
X45004389Y-96397541D01*
G37*
G36*
X47096375Y-94581146D02*
G01*
X47180511Y-94623215D01*
X47211622Y-94654325D01*
X47247951Y-94726983D01*
X47247951Y-94787872D01*
X47211622Y-94860529D01*
X47180511Y-94891640D01*
X47096373Y-94933710D01*
X46901614Y-94982399D01*
X46654489Y-94982399D01*
X46459726Y-94933708D01*
X46375591Y-94891641D01*
X46344481Y-94860531D01*
X46308151Y-94787871D01*
X46308151Y-94726984D01*
X46344480Y-94654325D01*
X46375591Y-94623214D01*
X46459729Y-94581145D01*
X46654486Y-94532456D01*
X46901617Y-94532456D01*
X47096375Y-94581146D01*
G37*
G36*
X44795994Y-92663784D02*
G01*
X44827105Y-92694895D01*
X44863435Y-92767554D01*
X44863435Y-93077399D01*
X44467921Y-93077399D01*
X44467921Y-92767555D01*
X44504251Y-92694895D01*
X44535361Y-92663784D01*
X44608020Y-92627456D01*
X44723336Y-92627456D01*
X44795994Y-92663784D01*
G37*
G36*
X46581796Y-92609357D02*
G01*
X46612906Y-92640468D01*
X46649237Y-92713128D01*
X46649237Y-92968543D01*
X46308151Y-92968543D01*
X46308151Y-92713128D01*
X46344481Y-92640468D01*
X46375591Y-92609357D01*
X46448250Y-92573028D01*
X46509138Y-92573028D01*
X46581796Y-92609357D01*
G37*
G36*
X47180510Y-92554928D02*
G01*
X47211621Y-92586039D01*
X47247951Y-92658698D01*
X47247951Y-92968543D01*
X46852437Y-92968543D01*
X46852437Y-92705628D01*
X46894066Y-92580739D01*
X46919876Y-92554929D01*
X46992536Y-92518600D01*
X47107852Y-92518600D01*
X47180510Y-92554928D01*
G37*
G36*
X46921380Y-91840608D02*
G01*
X46527838Y-91709428D01*
X46921380Y-91578247D01*
X46921380Y-91840608D01*
G37*
G36*
X46636224Y-87656357D02*
G01*
X46667335Y-87687468D01*
X46703665Y-87760127D01*
X46703665Y-88069972D01*
X46308151Y-88069972D01*
X46308151Y-87760128D01*
X46344481Y-87687468D01*
X46375591Y-87656357D01*
X46448250Y-87620029D01*
X46563566Y-87620029D01*
X46636224Y-87656357D01*
G37*
G36*
X45256145Y-85165004D02*
G01*
X45340281Y-85207073D01*
X45371392Y-85238183D01*
X45407721Y-85310841D01*
X45407721Y-85371730D01*
X45371392Y-85444387D01*
X45340281Y-85475498D01*
X45256143Y-85517568D01*
X45061384Y-85566257D01*
X44814259Y-85566257D01*
X44619496Y-85517566D01*
X44535361Y-85475499D01*
X44504251Y-85444389D01*
X44467921Y-85371729D01*
X44467921Y-85310842D01*
X44504250Y-85238183D01*
X44535361Y-85207072D01*
X44619499Y-85165003D01*
X44814256Y-85116314D01*
X45061387Y-85116314D01*
X45256145Y-85165004D01*
G37*
G36*
X46581796Y-84717215D02*
G01*
X46612906Y-84748326D01*
X46649237Y-84820986D01*
X46649237Y-85076401D01*
X46308151Y-85076401D01*
X46308151Y-84820986D01*
X46344481Y-84748326D01*
X46375591Y-84717215D01*
X46448250Y-84680886D01*
X46509138Y-84680886D01*
X46581796Y-84717215D01*
G37*
G36*
X47180510Y-84662786D02*
G01*
X47211621Y-84693897D01*
X47247951Y-84766556D01*
X47247951Y-85076401D01*
X46852437Y-85076401D01*
X46852437Y-84813486D01*
X46894066Y-84688597D01*
X46919876Y-84662787D01*
X46992536Y-84626458D01*
X47107852Y-84626458D01*
X47180510Y-84662786D01*
G37*
G36*
X44795994Y-84009643D02*
G01*
X44827105Y-84040754D01*
X44863435Y-84113413D01*
X44863435Y-84423258D01*
X44467921Y-84423258D01*
X44467921Y-84113414D01*
X44504251Y-84040754D01*
X44535361Y-84009643D01*
X44608020Y-83973315D01*
X44723336Y-83973315D01*
X44795994Y-84009643D01*
G37*
G36*
X47134322Y-83473599D02*
G01*
X47211622Y-83550899D01*
X47247951Y-83623556D01*
X47247951Y-83793302D01*
X47211623Y-83865958D01*
X47134321Y-83943260D01*
X46956042Y-83987829D01*
X46600060Y-83987829D01*
X46421779Y-83943259D01*
X46344481Y-83865961D01*
X46308151Y-83793301D01*
X46308151Y-83623557D01*
X46344480Y-83550898D01*
X46421780Y-83473598D01*
X46600057Y-83429029D01*
X46956045Y-83429029D01*
X47134322Y-83473599D01*
G37*
G36*
X46921380Y-82751037D02*
G01*
X46527838Y-82619857D01*
X46921380Y-82488676D01*
X46921380Y-82751037D01*
G37*
G36*
X46636224Y-81342643D02*
G01*
X46667335Y-81373754D01*
X46703665Y-81446413D01*
X46703665Y-81756258D01*
X46308151Y-81756258D01*
X46308151Y-81446414D01*
X46344481Y-81373754D01*
X46375591Y-81342643D01*
X46448250Y-81306315D01*
X46563566Y-81306315D01*
X46636224Y-81342643D01*
G37*
G36*
X47041944Y-80212003D02*
G01*
X47126081Y-80254072D01*
X47206322Y-80334313D01*
X47247951Y-80459200D01*
X47247951Y-80613258D01*
X46308151Y-80613258D01*
X46308151Y-80459202D01*
X46349781Y-80334311D01*
X46430020Y-80254072D01*
X46514155Y-80212005D01*
X46708917Y-80163315D01*
X46847185Y-80163315D01*
X47041944Y-80212003D01*
G37*
G36*
X47614437Y-99702035D02*
G01*
X44101435Y-99702035D01*
X44101435Y-99084236D01*
X46108737Y-99084236D01*
X46109924Y-99113660D01*
X46109924Y-99143108D01*
X46111181Y-99144839D01*
X46111268Y-99146977D01*
X46129518Y-99170077D01*
X46146832Y-99193908D01*
X46148867Y-99194569D01*
X46150194Y-99196248D01*
X46305108Y-99299524D01*
X46395193Y-99389609D01*
X46442249Y-99483720D01*
X46486312Y-99528457D01*
X46548255Y-99538749D01*
X46604418Y-99510668D01*
X46633349Y-99454938D01*
X46623997Y-99392846D01*
X46569568Y-99283989D01*
X46558011Y-99272256D01*
X46550536Y-99257584D01*
X46506264Y-99213312D01*
X47247951Y-99213312D01*
X47247951Y-99438283D01*
X47267355Y-99498002D01*
X47318155Y-99534910D01*
X47380947Y-99534910D01*
X47431747Y-99498002D01*
X47451151Y-99438283D01*
X47451151Y-98785140D01*
X47431747Y-98725421D01*
X47380947Y-98688513D01*
X47318155Y-98688513D01*
X47267355Y-98725421D01*
X47247951Y-98785140D01*
X47247951Y-99010112D01*
X46206551Y-99010112D01*
X46204515Y-99010773D01*
X46202456Y-99010195D01*
X46174847Y-99020413D01*
X46146832Y-99029516D01*
X46145573Y-99031247D01*
X46143568Y-99031990D01*
X46127235Y-99056488D01*
X46109924Y-99080316D01*
X46109924Y-99082455D01*
X46108737Y-99084236D01*
X44101435Y-99084236D01*
X44101435Y-98131998D01*
X46104951Y-98131998D01*
X46112188Y-98154271D01*
X46115677Y-98177435D01*
X46170106Y-98286292D01*
X46181661Y-98298024D01*
X46189137Y-98312696D01*
X46243566Y-98367126D01*
X46258238Y-98374601D01*
X46269971Y-98386158D01*
X46378829Y-98440586D01*
X46401990Y-98444074D01*
X46424265Y-98451312D01*
X46478694Y-98451312D01*
X46500970Y-98444074D01*
X46524131Y-98440586D01*
X46632988Y-98386158D01*
X46644720Y-98374601D01*
X46659393Y-98367126D01*
X46696408Y-98330110D01*
X46733423Y-98367126D01*
X46748096Y-98374602D01*
X46759829Y-98386158D01*
X46868686Y-98440586D01*
X46891846Y-98444074D01*
X46914123Y-98451312D01*
X47131837Y-98451312D01*
X47154113Y-98444074D01*
X47177274Y-98440586D01*
X47286131Y-98386158D01*
X47297863Y-98374601D01*
X47312536Y-98367126D01*
X47366965Y-98312697D01*
X47374440Y-98298024D01*
X47385997Y-98286292D01*
X47440425Y-98177434D01*
X47443913Y-98154272D01*
X47451151Y-98131998D01*
X47451151Y-97914284D01*
X47443913Y-97892009D01*
X47440425Y-97868848D01*
X47385997Y-97759990D01*
X47374440Y-97748257D01*
X47366965Y-97733585D01*
X47312536Y-97679156D01*
X47297863Y-97671680D01*
X47286131Y-97660124D01*
X47177274Y-97605695D01*
X47154110Y-97602206D01*
X47131837Y-97594969D01*
X46914123Y-97594969D01*
X46891849Y-97602206D01*
X46868686Y-97605695D01*
X46759828Y-97660124D01*
X46748095Y-97671679D01*
X46733423Y-97679156D01*
X46696408Y-97716171D01*
X46659393Y-97679156D01*
X46644720Y-97671680D01*
X46632988Y-97660124D01*
X46524131Y-97605695D01*
X46500967Y-97602206D01*
X46478694Y-97594969D01*
X46424265Y-97594969D01*
X46401991Y-97602206D01*
X46378828Y-97605695D01*
X46269971Y-97660124D01*
X46258238Y-97671680D01*
X46243566Y-97679156D01*
X46189137Y-97733586D01*
X46181661Y-97748257D01*
X46170106Y-97759990D01*
X46115677Y-97868847D01*
X46112188Y-97892010D01*
X46104951Y-97914284D01*
X46104951Y-98131998D01*
X44101435Y-98131998D01*
X44101435Y-96934570D01*
X46104951Y-96934570D01*
X46112188Y-96956843D01*
X46115677Y-96980007D01*
X46170106Y-97088864D01*
X46181661Y-97100596D01*
X46189137Y-97115268D01*
X46243566Y-97169698D01*
X46252698Y-97174351D01*
X46259051Y-97182392D01*
X46422336Y-97291249D01*
X46439201Y-97295986D01*
X46454053Y-97305280D01*
X46671766Y-97359707D01*
X46684380Y-97358833D01*
X46696408Y-97362741D01*
X47131837Y-97362741D01*
X47154113Y-97355503D01*
X47177274Y-97352015D01*
X47286131Y-97297587D01*
X47297863Y-97286030D01*
X47312536Y-97278555D01*
X47366965Y-97224126D01*
X47374440Y-97209453D01*
X47385997Y-97197721D01*
X47440425Y-97088863D01*
X47443913Y-97065701D01*
X47451151Y-97043427D01*
X47451151Y-96825713D01*
X47443913Y-96803438D01*
X47440425Y-96780277D01*
X47385997Y-96671419D01*
X47374440Y-96659686D01*
X47366965Y-96645014D01*
X47312536Y-96590585D01*
X47297863Y-96583109D01*
X47286131Y-96571553D01*
X47177274Y-96517124D01*
X47154110Y-96513635D01*
X47131837Y-96506398D01*
X46859694Y-96506398D01*
X46837420Y-96513635D01*
X46814257Y-96517124D01*
X46705400Y-96571553D01*
X46693667Y-96583109D01*
X46678995Y-96590585D01*
X46624566Y-96645014D01*
X46617090Y-96659686D01*
X46605534Y-96671419D01*
X46551106Y-96780276D01*
X46547617Y-96803436D01*
X46540380Y-96825713D01*
X46540380Y-97043427D01*
X46547617Y-97065703D01*
X46551106Y-97088864D01*
X46568948Y-97124549D01*
X46520406Y-97112413D01*
X46380138Y-97018902D01*
X46344481Y-96983244D01*
X46308151Y-96910584D01*
X46308151Y-96716856D01*
X46288747Y-96657137D01*
X46237947Y-96620229D01*
X46175155Y-96620229D01*
X46124355Y-96657137D01*
X46104951Y-96716856D01*
X46104951Y-96934570D01*
X44101435Y-96934570D01*
X44101435Y-96335856D01*
X44645721Y-96335856D01*
X44652958Y-96358129D01*
X44656447Y-96381293D01*
X44710876Y-96490150D01*
X44711444Y-96490727D01*
X44711577Y-96491525D01*
X44733422Y-96513041D01*
X44754939Y-96534887D01*
X44755736Y-96535019D01*
X44756313Y-96535587D01*
X44865171Y-96590015D01*
X44888332Y-96593503D01*
X44910607Y-96600741D01*
X45346035Y-96600741D01*
X45368311Y-96593502D01*
X45391471Y-96590015D01*
X45500329Y-96535587D01*
X45500905Y-96535018D01*
X45501705Y-96534886D01*
X45523236Y-96513024D01*
X45545066Y-96491525D01*
X45545198Y-96490727D01*
X45545767Y-96490150D01*
X45600195Y-96381292D01*
X45603683Y-96358130D01*
X45610921Y-96335856D01*
X45610921Y-96118142D01*
X46104951Y-96118142D01*
X46108385Y-96128712D01*
X46107280Y-96139768D01*
X46117867Y-96157893D01*
X46124355Y-96177861D01*
X46133345Y-96184392D01*
X46138950Y-96193988D01*
X46158171Y-96202429D01*
X46175155Y-96214769D01*
X46186266Y-96214769D01*
X46196442Y-96219238D01*
X46740728Y-96273666D01*
X46768686Y-96267575D01*
X46796963Y-96263096D01*
X46799112Y-96260946D01*
X46802081Y-96260300D01*
X46821121Y-96238937D01*
X46841364Y-96218695D01*
X46841839Y-96215693D01*
X46843861Y-96213425D01*
X46846708Y-96184946D01*
X46851186Y-96156676D01*
X46849806Y-96153968D01*
X46850109Y-96150944D01*
X46835669Y-96126222D01*
X46822679Y-96100728D01*
X46779908Y-96057957D01*
X46743580Y-95985300D01*
X46743580Y-95761126D01*
X46779908Y-95688468D01*
X46811020Y-95657356D01*
X46883679Y-95621027D01*
X47107852Y-95621027D01*
X47180510Y-95657356D01*
X47211621Y-95688467D01*
X47247951Y-95761126D01*
X47247951Y-95985300D01*
X47211622Y-96057958D01*
X47168853Y-96100727D01*
X47140345Y-96156675D01*
X47150168Y-96218694D01*
X47194568Y-96263096D01*
X47256587Y-96272919D01*
X47312535Y-96244413D01*
X47366965Y-96189984D01*
X47374440Y-96175311D01*
X47385997Y-96163579D01*
X47440425Y-96054721D01*
X47443913Y-96031559D01*
X47451151Y-96009285D01*
X47451151Y-95737142D01*
X47443913Y-95714867D01*
X47440425Y-95691706D01*
X47385997Y-95582848D01*
X47374440Y-95571115D01*
X47366965Y-95556443D01*
X47312536Y-95502014D01*
X47297863Y-95494538D01*
X47286131Y-95482982D01*
X47177274Y-95428553D01*
X47154110Y-95425064D01*
X47131837Y-95417827D01*
X46859694Y-95417827D01*
X46837420Y-95425064D01*
X46814257Y-95428553D01*
X46705400Y-95482982D01*
X46693667Y-95494538D01*
X46678995Y-95502014D01*
X46624566Y-95556443D01*
X46617090Y-95571115D01*
X46605534Y-95582848D01*
X46551106Y-95691705D01*
X46547617Y-95714865D01*
X46540380Y-95737142D01*
X46540380Y-96009285D01*
X46547617Y-96031561D01*
X46550458Y-96050425D01*
X46308151Y-96026194D01*
X46308151Y-95573856D01*
X46288747Y-95514137D01*
X46237947Y-95477229D01*
X46175155Y-95477229D01*
X46124355Y-95514137D01*
X46104951Y-95573856D01*
X46104951Y-96118142D01*
X45610921Y-96118142D01*
X45610921Y-96118141D01*
X45603683Y-96095866D01*
X45600195Y-96072705D01*
X45545767Y-95963847D01*
X45501705Y-95919111D01*
X45439762Y-95908817D01*
X45383599Y-95936899D01*
X45354668Y-95992629D01*
X45364019Y-96054721D01*
X45407721Y-96142125D01*
X45407721Y-96311871D01*
X45379164Y-96368984D01*
X45322051Y-96397541D01*
X45211613Y-96397541D01*
X45119091Y-95934931D01*
X45116091Y-95929587D01*
X45116091Y-95923460D01*
X45100956Y-95902629D01*
X45088352Y-95880177D01*
X45082784Y-95877617D01*
X45079183Y-95872660D01*
X45054693Y-95864702D01*
X45031300Y-95853948D01*
X45025292Y-95855149D01*
X45019464Y-95853256D01*
X44910607Y-95853256D01*
X44888332Y-95860493D01*
X44865171Y-95863982D01*
X44756313Y-95918410D01*
X44755736Y-95918977D01*
X44754939Y-95919110D01*
X44733422Y-95940955D01*
X44711577Y-95962472D01*
X44711444Y-95963269D01*
X44710876Y-95963847D01*
X44656447Y-96072704D01*
X44652958Y-96095867D01*
X44645721Y-96118141D01*
X44645721Y-96335856D01*
X44101435Y-96335856D01*
X44101435Y-95301713D01*
X44264721Y-95301713D01*
X44271958Y-95323986D01*
X44275447Y-95347150D01*
X44329876Y-95456007D01*
X44341431Y-95467739D01*
X44348907Y-95482411D01*
X44403336Y-95536841D01*
X44418008Y-95544316D01*
X44429741Y-95555873D01*
X44538599Y-95610301D01*
X44561760Y-95613789D01*
X44584035Y-95621027D01*
X44692893Y-95621027D01*
X44715169Y-95613789D01*
X44738330Y-95610301D01*
X44847187Y-95555873D01*
X44858920Y-95544316D01*
X44873593Y-95536840D01*
X44928021Y-95482411D01*
X44935496Y-95467739D01*
X44947052Y-95456007D01*
X45001481Y-95347150D01*
X45003167Y-95335952D01*
X45009174Y-95326354D01*
X45060895Y-95119462D01*
X45102964Y-95035325D01*
X45134076Y-95004213D01*
X45206735Y-94967884D01*
X45267622Y-94967884D01*
X45340280Y-95004213D01*
X45371391Y-95035324D01*
X45407721Y-95107983D01*
X45407721Y-95339656D01*
X45358507Y-95487298D01*
X45358030Y-95550089D01*
X45394552Y-95601167D01*
X45454122Y-95621024D01*
X45513986Y-95602074D01*
X45551279Y-95551556D01*
X45605707Y-95388271D01*
X45605832Y-95371803D01*
X45610921Y-95356142D01*
X45610921Y-95083999D01*
X45603683Y-95061724D01*
X45600195Y-95038563D01*
X45545767Y-94929705D01*
X45534210Y-94917972D01*
X45526735Y-94903300D01*
X45472306Y-94848871D01*
X45457633Y-94841395D01*
X45445901Y-94829839D01*
X45409935Y-94811856D01*
X46104951Y-94811856D01*
X46112188Y-94834132D01*
X46115677Y-94857293D01*
X46170106Y-94966151D01*
X46181662Y-94977883D01*
X46189138Y-94992556D01*
X46243566Y-95046984D01*
X46258238Y-95054459D01*
X46269971Y-95066016D01*
X46378828Y-95120445D01*
X46390025Y-95122131D01*
X46399624Y-95128138D01*
X46617338Y-95182565D01*
X46629952Y-95181691D01*
X46641980Y-95185599D01*
X46914123Y-95185599D01*
X46926148Y-95181691D01*
X46938764Y-95182566D01*
X47156478Y-95128138D01*
X47166076Y-95122131D01*
X47177274Y-95120445D01*
X47286131Y-95066016D01*
X47297863Y-95054460D01*
X47312535Y-95046985D01*
X47366965Y-94992556D01*
X47374441Y-94977882D01*
X47385997Y-94966150D01*
X47440425Y-94857293D01*
X47443913Y-94834132D01*
X47451151Y-94811856D01*
X47451151Y-94702999D01*
X47443913Y-94680724D01*
X47440425Y-94657563D01*
X47385997Y-94548705D01*
X47374440Y-94536972D01*
X47366965Y-94522300D01*
X47312535Y-94467871D01*
X47297863Y-94460395D01*
X47286131Y-94448840D01*
X47177274Y-94394411D01*
X47166076Y-94392724D01*
X47156479Y-94386719D01*
X46938765Y-94332290D01*
X46926150Y-94333163D01*
X46914123Y-94329256D01*
X46641980Y-94329256D01*
X46629954Y-94333163D01*
X46617339Y-94332289D01*
X46399623Y-94386719D01*
X46390025Y-94392724D01*
X46378828Y-94394411D01*
X46269971Y-94448840D01*
X46258238Y-94460396D01*
X46243566Y-94467872D01*
X46189138Y-94522300D01*
X46181662Y-94536972D01*
X46170106Y-94548705D01*
X46115677Y-94657562D01*
X46112188Y-94680725D01*
X46104951Y-94702999D01*
X46104951Y-94811856D01*
X45409935Y-94811856D01*
X45337044Y-94775410D01*
X45313880Y-94771921D01*
X45291607Y-94764684D01*
X45182750Y-94764684D01*
X45160476Y-94771921D01*
X45137313Y-94775410D01*
X45028456Y-94829839D01*
X45016723Y-94841395D01*
X45002051Y-94848871D01*
X44947622Y-94903300D01*
X44940146Y-94917972D01*
X44928590Y-94929705D01*
X44874161Y-95038562D01*
X44872474Y-95049759D01*
X44866468Y-95059358D01*
X44814744Y-95266251D01*
X44772676Y-95350387D01*
X44741565Y-95381498D01*
X44668908Y-95417827D01*
X44608020Y-95417827D01*
X44535361Y-95381498D01*
X44504251Y-95350387D01*
X44467921Y-95277727D01*
X44467921Y-95046057D01*
X44517136Y-94898413D01*
X44517613Y-94835622D01*
X44481091Y-94784544D01*
X44421522Y-94764687D01*
X44361657Y-94783636D01*
X44324364Y-94834155D01*
X44269935Y-94997441D01*
X44269809Y-95013908D01*
X44264721Y-95029570D01*
X44264721Y-95301713D01*
X44101435Y-95301713D01*
X44101435Y-94407824D01*
X44269694Y-94407824D01*
X44306602Y-94458624D01*
X44366321Y-94478028D01*
X45291607Y-94478028D01*
X45313880Y-94470790D01*
X45337044Y-94467302D01*
X45445901Y-94412873D01*
X45457633Y-94401317D01*
X45472305Y-94393842D01*
X45526735Y-94339413D01*
X45534211Y-94324739D01*
X45545767Y-94313007D01*
X45600195Y-94204150D01*
X45603683Y-94180989D01*
X45610921Y-94158713D01*
X45610921Y-93940999D01*
X45603683Y-93918724D01*
X45600195Y-93895563D01*
X45545767Y-93786705D01*
X45534210Y-93774972D01*
X45526735Y-93760300D01*
X45472306Y-93705871D01*
X45457633Y-93698395D01*
X45445901Y-93686839D01*
X45337044Y-93632411D01*
X45313883Y-93628922D01*
X45291607Y-93621685D01*
X44366321Y-93621685D01*
X44306602Y-93641089D01*
X44269694Y-93691889D01*
X44269694Y-93754681D01*
X44306602Y-93805481D01*
X44366321Y-93824885D01*
X45267622Y-93824885D01*
X45340280Y-93861213D01*
X45371391Y-93892324D01*
X45407721Y-93964983D01*
X45407721Y-94134729D01*
X45371392Y-94207386D01*
X45340281Y-94238497D01*
X45267622Y-94274828D01*
X44366321Y-94274828D01*
X44306602Y-94294232D01*
X44269694Y-94345032D01*
X44269694Y-94407824D01*
X44101435Y-94407824D01*
X44101435Y-93178999D01*
X44264721Y-93178999D01*
X44269694Y-93194304D01*
X44269694Y-93210395D01*
X44279152Y-93223413D01*
X44284125Y-93238718D01*
X44297143Y-93248176D01*
X44306602Y-93261195D01*
X44321906Y-93266167D01*
X44334925Y-93275626D01*
X44351016Y-93275626D01*
X44366321Y-93280599D01*
X45509321Y-93280599D01*
X45569040Y-93261195D01*
X45605948Y-93210395D01*
X45605948Y-93147603D01*
X45569040Y-93096803D01*
X45509321Y-93077399D01*
X45066635Y-93077399D01*
X45066635Y-93070143D01*
X46104951Y-93070143D01*
X46109924Y-93085448D01*
X46109924Y-93101539D01*
X46119382Y-93114557D01*
X46124355Y-93129862D01*
X46137373Y-93139320D01*
X46146832Y-93152339D01*
X46162136Y-93157311D01*
X46175155Y-93166770D01*
X46191246Y-93166770D01*
X46206551Y-93171743D01*
X47349551Y-93171743D01*
X47364856Y-93166770D01*
X47380947Y-93166770D01*
X47393965Y-93157311D01*
X47409270Y-93152339D01*
X47418728Y-93139320D01*
X47431747Y-93129862D01*
X47436719Y-93114557D01*
X47446178Y-93101539D01*
X47446178Y-93085448D01*
X47451151Y-93070143D01*
X47451151Y-92634714D01*
X47443913Y-92612439D01*
X47440425Y-92589278D01*
X47385997Y-92480420D01*
X47374440Y-92468687D01*
X47366965Y-92454015D01*
X47312536Y-92399586D01*
X47297863Y-92392110D01*
X47286131Y-92380554D01*
X47177274Y-92326126D01*
X47154113Y-92322637D01*
X47131837Y-92315400D01*
X46968551Y-92315400D01*
X46946276Y-92322637D01*
X46923115Y-92326126D01*
X46814257Y-92380554D01*
X46802524Y-92392110D01*
X46787852Y-92399586D01*
X46733423Y-92454015D01*
X46726806Y-92467000D01*
X46713823Y-92454016D01*
X46699150Y-92446539D01*
X46687417Y-92434983D01*
X46578560Y-92380554D01*
X46555396Y-92377065D01*
X46533123Y-92369828D01*
X46424265Y-92369828D01*
X46401991Y-92377065D01*
X46378828Y-92380554D01*
X46269971Y-92434983D01*
X46258238Y-92446539D01*
X46243566Y-92454015D01*
X46189137Y-92508445D01*
X46181661Y-92523116D01*
X46170106Y-92534849D01*
X46115677Y-92643706D01*
X46112188Y-92666869D01*
X46104951Y-92689143D01*
X46104951Y-93070143D01*
X45066635Y-93070143D01*
X45066635Y-92743570D01*
X45059397Y-92721295D01*
X45055909Y-92698134D01*
X45001481Y-92589276D01*
X44989924Y-92577543D01*
X44982449Y-92562871D01*
X44928020Y-92508442D01*
X44913347Y-92500966D01*
X44901615Y-92489410D01*
X44792758Y-92434982D01*
X44769597Y-92431493D01*
X44747321Y-92424256D01*
X44584035Y-92424256D01*
X44561760Y-92431493D01*
X44538599Y-92434982D01*
X44429741Y-92489410D01*
X44418008Y-92500966D01*
X44403336Y-92508442D01*
X44348907Y-92562872D01*
X44341431Y-92577543D01*
X44329876Y-92589276D01*
X44275447Y-92698133D01*
X44271958Y-92721296D01*
X44264721Y-92743570D01*
X44264721Y-93178999D01*
X44101435Y-93178999D01*
X44101435Y-91710199D01*
X46104954Y-91710199D01*
X46114645Y-91739274D01*
X46123904Y-91768521D01*
X46124555Y-91769001D01*
X46124811Y-91769769D01*
X46149756Y-91787605D01*
X46174422Y-91805814D01*
X47317422Y-92186814D01*
X47380213Y-92187291D01*
X47431291Y-92150769D01*
X47451148Y-92091199D01*
X47432198Y-92031335D01*
X47381680Y-91994042D01*
X47124580Y-91908342D01*
X47124580Y-91510514D01*
X47381680Y-91424814D01*
X47432198Y-91387521D01*
X47451148Y-91327657D01*
X47431291Y-91268087D01*
X47380213Y-91231565D01*
X47317422Y-91232042D01*
X46174422Y-91613042D01*
X46149756Y-91631250D01*
X46124811Y-91649087D01*
X46124555Y-91649854D01*
X46123904Y-91650335D01*
X46114645Y-91679581D01*
X46104954Y-91708657D01*
X46105198Y-91709428D01*
X46104954Y-91710199D01*
X44101435Y-91710199D01*
X44101435Y-91165142D01*
X44972293Y-91165142D01*
X44991697Y-91224861D01*
X45042497Y-91261769D01*
X45105289Y-91261769D01*
X45156089Y-91224861D01*
X45175493Y-91165142D01*
X45175493Y-91110714D01*
X46104951Y-91110714D01*
X46124355Y-91170433D01*
X46175155Y-91207341D01*
X46237947Y-91207341D01*
X46288747Y-91170433D01*
X46308151Y-91110714D01*
X46308151Y-90885743D01*
X47349551Y-90885743D01*
X47409270Y-90866339D01*
X47446178Y-90815539D01*
X47446178Y-90752747D01*
X47409270Y-90701947D01*
X47349551Y-90682543D01*
X46308151Y-90682543D01*
X46308151Y-90457572D01*
X46288747Y-90397853D01*
X46237947Y-90360945D01*
X46175155Y-90360945D01*
X46124355Y-90397853D01*
X46104951Y-90457572D01*
X46104951Y-91110714D01*
X45175493Y-91110714D01*
X45175493Y-90294285D01*
X45157808Y-90239857D01*
X46104951Y-90239857D01*
X46124355Y-90299576D01*
X46175155Y-90336484D01*
X46237947Y-90336484D01*
X46288747Y-90299576D01*
X46308151Y-90239857D01*
X46308151Y-90014886D01*
X47349551Y-90014886D01*
X47409270Y-89995482D01*
X47446178Y-89944682D01*
X47446178Y-89881890D01*
X47409270Y-89831090D01*
X47349551Y-89811686D01*
X46308151Y-89811686D01*
X46308151Y-89586715D01*
X46288747Y-89526996D01*
X46237947Y-89490088D01*
X46175155Y-89490088D01*
X46124355Y-89526996D01*
X46104951Y-89586715D01*
X46104951Y-90239857D01*
X45157808Y-90239857D01*
X45156089Y-90234566D01*
X45105289Y-90197658D01*
X45042497Y-90197658D01*
X44991697Y-90234566D01*
X44972293Y-90294285D01*
X44972293Y-91165142D01*
X44101435Y-91165142D01*
X44101435Y-89205715D01*
X46104951Y-89205715D01*
X46109924Y-89221020D01*
X46109924Y-89237111D01*
X46119382Y-89250129D01*
X46124355Y-89265434D01*
X46137373Y-89274892D01*
X46146832Y-89287911D01*
X46162136Y-89292883D01*
X46175155Y-89302342D01*
X46191246Y-89302342D01*
X46206551Y-89307315D01*
X47349551Y-89307315D01*
X47364856Y-89302342D01*
X47380947Y-89302342D01*
X47393965Y-89292883D01*
X47409270Y-89287911D01*
X47418728Y-89274892D01*
X47431747Y-89265434D01*
X47436719Y-89250129D01*
X47446178Y-89237111D01*
X47446178Y-89221020D01*
X47451151Y-89205715D01*
X47451151Y-88661429D01*
X47431747Y-88601710D01*
X47380947Y-88564802D01*
X47318155Y-88564802D01*
X47267355Y-88601710D01*
X47247951Y-88661429D01*
X47247951Y-89104115D01*
X46852437Y-89104115D01*
X46852437Y-88824715D01*
X46833033Y-88764996D01*
X46782233Y-88728088D01*
X46719441Y-88728088D01*
X46668641Y-88764996D01*
X46649237Y-88824715D01*
X46649237Y-89104115D01*
X46308151Y-89104115D01*
X46308151Y-88661429D01*
X46288747Y-88601710D01*
X46237947Y-88564802D01*
X46175155Y-88564802D01*
X46124355Y-88601710D01*
X46104951Y-88661429D01*
X46104951Y-89205715D01*
X44101435Y-89205715D01*
X44101435Y-88579523D01*
X44268507Y-88579523D01*
X44269694Y-88608947D01*
X44269694Y-88638395D01*
X44270951Y-88640126D01*
X44271038Y-88642264D01*
X44289288Y-88665364D01*
X44306602Y-88689195D01*
X44308637Y-88689856D01*
X44309964Y-88691535D01*
X44464878Y-88794811D01*
X44554963Y-88884896D01*
X44602019Y-88979007D01*
X44646082Y-89023744D01*
X44708025Y-89034036D01*
X44764188Y-89005955D01*
X44793119Y-88950225D01*
X44783767Y-88888133D01*
X44729338Y-88779276D01*
X44717781Y-88767543D01*
X44710306Y-88752871D01*
X44666034Y-88708599D01*
X45407721Y-88708599D01*
X45407721Y-88933570D01*
X45427125Y-88993289D01*
X45477925Y-89030197D01*
X45540717Y-89030197D01*
X45591517Y-88993289D01*
X45610921Y-88933570D01*
X45610921Y-88280427D01*
X45591517Y-88220708D01*
X45540717Y-88183800D01*
X45477925Y-88183800D01*
X45427125Y-88220708D01*
X45407721Y-88280427D01*
X45407721Y-88505399D01*
X44366321Y-88505399D01*
X44364285Y-88506060D01*
X44362226Y-88505482D01*
X44334617Y-88515700D01*
X44306602Y-88524803D01*
X44305343Y-88526534D01*
X44303338Y-88527277D01*
X44287005Y-88551775D01*
X44269694Y-88575603D01*
X44269694Y-88577742D01*
X44268507Y-88579523D01*
X44101435Y-88579523D01*
X44101435Y-88171572D01*
X46104951Y-88171572D01*
X46109924Y-88186877D01*
X46109924Y-88202968D01*
X46119382Y-88215986D01*
X46124355Y-88231291D01*
X46137373Y-88240749D01*
X46146832Y-88253768D01*
X46162136Y-88258740D01*
X46175155Y-88268199D01*
X46191246Y-88268199D01*
X46206551Y-88273172D01*
X47349551Y-88273172D01*
X47409270Y-88253768D01*
X47446178Y-88202968D01*
X47446178Y-88140176D01*
X47409270Y-88089376D01*
X47349551Y-88069972D01*
X46906865Y-88069972D01*
X46906865Y-87952327D01*
X47407815Y-87601663D01*
X47445611Y-87551520D01*
X47446716Y-87488737D01*
X47410707Y-87437296D01*
X47351339Y-87416845D01*
X47291288Y-87435195D01*
X46899012Y-87709787D01*
X46896139Y-87690707D01*
X46841711Y-87581849D01*
X46830154Y-87570116D01*
X46822679Y-87555444D01*
X46768250Y-87501015D01*
X46753577Y-87493539D01*
X46741845Y-87481983D01*
X46632988Y-87427555D01*
X46609827Y-87424066D01*
X46587551Y-87416829D01*
X46424265Y-87416829D01*
X46401990Y-87424066D01*
X46378829Y-87427555D01*
X46269971Y-87481983D01*
X46258238Y-87493539D01*
X46243566Y-87501015D01*
X46189137Y-87555445D01*
X46181661Y-87570116D01*
X46170106Y-87581849D01*
X46115677Y-87690706D01*
X46112188Y-87713869D01*
X46104951Y-87736143D01*
X46104951Y-88171572D01*
X44101435Y-88171572D01*
X44101435Y-87627285D01*
X44264721Y-87627285D01*
X44271958Y-87649558D01*
X44275447Y-87672722D01*
X44329876Y-87781579D01*
X44341431Y-87793311D01*
X44348907Y-87807983D01*
X44403336Y-87862413D01*
X44418008Y-87869888D01*
X44429741Y-87881445D01*
X44538599Y-87935873D01*
X44561760Y-87939361D01*
X44584035Y-87946599D01*
X44692893Y-87946599D01*
X44715169Y-87939361D01*
X44738330Y-87935873D01*
X44847187Y-87881445D01*
X44858920Y-87869888D01*
X44873593Y-87862412D01*
X44928021Y-87807983D01*
X44935496Y-87793311D01*
X44947052Y-87781579D01*
X45001481Y-87672722D01*
X45003167Y-87661524D01*
X45009174Y-87651926D01*
X45060895Y-87445034D01*
X45102964Y-87360897D01*
X45134076Y-87329785D01*
X45206735Y-87293456D01*
X45267622Y-87293456D01*
X45340280Y-87329785D01*
X45371391Y-87360896D01*
X45407721Y-87433555D01*
X45407721Y-87665228D01*
X45358507Y-87812870D01*
X45358030Y-87875661D01*
X45394552Y-87926739D01*
X45454122Y-87946596D01*
X45513986Y-87927646D01*
X45551279Y-87877128D01*
X45605707Y-87713843D01*
X45605832Y-87697375D01*
X45610921Y-87681714D01*
X45610921Y-87409571D01*
X45603683Y-87387296D01*
X45600195Y-87364135D01*
X45545767Y-87255277D01*
X45534210Y-87243544D01*
X45526735Y-87228872D01*
X45515109Y-87217246D01*
X46108175Y-87217246D01*
X46141886Y-87270221D01*
X46200297Y-87293264D01*
X46261098Y-87277573D01*
X46834851Y-86912457D01*
X47349551Y-86912457D01*
X47409270Y-86893053D01*
X47446178Y-86842253D01*
X47446178Y-86779461D01*
X47409270Y-86728661D01*
X47349551Y-86709257D01*
X46834851Y-86709257D01*
X46261098Y-86344141D01*
X46200297Y-86328450D01*
X46141886Y-86351493D01*
X46108175Y-86404468D01*
X46112039Y-86467141D01*
X46152004Y-86515573D01*
X46616022Y-86810857D01*
X46152004Y-87106141D01*
X46112039Y-87154573D01*
X46108175Y-87217246D01*
X45515109Y-87217246D01*
X45472306Y-87174443D01*
X45457633Y-87166967D01*
X45445901Y-87155411D01*
X45337044Y-87100982D01*
X45313880Y-87097493D01*
X45291607Y-87090256D01*
X45182750Y-87090256D01*
X45160476Y-87097493D01*
X45137313Y-87100982D01*
X45028456Y-87155411D01*
X45016723Y-87166967D01*
X45002051Y-87174443D01*
X44947622Y-87228872D01*
X44940146Y-87243544D01*
X44928590Y-87255277D01*
X44874161Y-87364134D01*
X44872474Y-87375331D01*
X44866468Y-87384930D01*
X44814744Y-87591823D01*
X44772676Y-87675959D01*
X44741565Y-87707070D01*
X44668908Y-87743399D01*
X44608020Y-87743399D01*
X44535361Y-87707070D01*
X44504251Y-87675959D01*
X44467921Y-87603299D01*
X44467921Y-87371629D01*
X44517136Y-87223985D01*
X44517613Y-87161194D01*
X44481091Y-87110116D01*
X44421522Y-87090259D01*
X44361657Y-87109208D01*
X44324364Y-87159727D01*
X44269935Y-87323013D01*
X44269809Y-87339480D01*
X44264721Y-87355142D01*
X44264721Y-87627285D01*
X44101435Y-87627285D01*
X44101435Y-86402381D01*
X44268507Y-86402381D01*
X44269694Y-86431805D01*
X44269694Y-86461253D01*
X44270951Y-86462984D01*
X44271038Y-86465122D01*
X44289288Y-86488222D01*
X44306602Y-86512053D01*
X44308637Y-86512714D01*
X44309964Y-86514393D01*
X44464878Y-86617669D01*
X44554963Y-86707754D01*
X44602019Y-86801865D01*
X44646082Y-86846602D01*
X44708025Y-86856894D01*
X44764188Y-86828813D01*
X44793119Y-86773083D01*
X44783767Y-86710991D01*
X44729338Y-86602134D01*
X44717781Y-86590401D01*
X44710306Y-86575729D01*
X44666034Y-86531457D01*
X45407721Y-86531457D01*
X45407721Y-86756428D01*
X45427125Y-86816147D01*
X45477925Y-86853055D01*
X45540717Y-86853055D01*
X45591517Y-86816147D01*
X45610921Y-86756428D01*
X45610921Y-86103285D01*
X45591517Y-86043566D01*
X45540717Y-86006658D01*
X45477925Y-86006658D01*
X45427125Y-86043566D01*
X45407721Y-86103285D01*
X45407721Y-86328257D01*
X44366321Y-86328257D01*
X44364285Y-86328918D01*
X44362226Y-86328340D01*
X44334617Y-86338558D01*
X44306602Y-86347661D01*
X44305343Y-86349392D01*
X44303338Y-86350135D01*
X44287005Y-86374633D01*
X44269694Y-86398461D01*
X44269694Y-86400600D01*
X44268507Y-86402381D01*
X44101435Y-86402381D01*
X44101435Y-85395714D01*
X44264721Y-85395714D01*
X44271958Y-85417990D01*
X44275447Y-85441151D01*
X44329876Y-85550009D01*
X44341432Y-85561741D01*
X44348908Y-85576414D01*
X44403336Y-85630842D01*
X44418008Y-85638317D01*
X44429741Y-85649874D01*
X44538598Y-85704303D01*
X44549795Y-85705989D01*
X44559394Y-85711996D01*
X44777108Y-85766423D01*
X44789722Y-85765549D01*
X44801750Y-85769457D01*
X45073893Y-85769457D01*
X45085918Y-85765549D01*
X45098534Y-85766424D01*
X45316248Y-85711996D01*
X45325846Y-85705989D01*
X45337044Y-85704303D01*
X45445901Y-85649874D01*
X45457633Y-85638318D01*
X45472305Y-85630843D01*
X45526735Y-85576414D01*
X45534211Y-85561740D01*
X45545767Y-85550008D01*
X45600195Y-85441151D01*
X45603683Y-85417990D01*
X45610921Y-85395714D01*
X45610921Y-85286857D01*
X45603683Y-85264582D01*
X45600195Y-85241421D01*
X45568486Y-85178001D01*
X46104951Y-85178001D01*
X46109924Y-85193306D01*
X46109924Y-85209397D01*
X46119382Y-85222415D01*
X46124355Y-85237720D01*
X46137373Y-85247178D01*
X46146832Y-85260197D01*
X46162136Y-85265169D01*
X46175155Y-85274628D01*
X46191246Y-85274628D01*
X46206551Y-85279601D01*
X47349551Y-85279601D01*
X47364856Y-85274628D01*
X47380947Y-85274628D01*
X47393965Y-85265169D01*
X47409270Y-85260197D01*
X47418728Y-85247178D01*
X47431747Y-85237720D01*
X47436719Y-85222415D01*
X47446178Y-85209397D01*
X47446178Y-85193306D01*
X47451151Y-85178001D01*
X47451151Y-84742572D01*
X47443913Y-84720297D01*
X47440425Y-84697136D01*
X47385997Y-84588278D01*
X47374440Y-84576545D01*
X47366965Y-84561873D01*
X47312536Y-84507444D01*
X47297863Y-84499968D01*
X47286131Y-84488412D01*
X47177274Y-84433984D01*
X47154113Y-84430495D01*
X47131837Y-84423258D01*
X46968551Y-84423258D01*
X46946276Y-84430495D01*
X46923115Y-84433984D01*
X46814257Y-84488412D01*
X46802524Y-84499968D01*
X46787852Y-84507444D01*
X46733423Y-84561873D01*
X46726806Y-84574858D01*
X46713823Y-84561874D01*
X46699150Y-84554397D01*
X46687417Y-84542841D01*
X46578560Y-84488412D01*
X46555396Y-84484923D01*
X46533123Y-84477686D01*
X46424265Y-84477686D01*
X46401991Y-84484923D01*
X46378828Y-84488412D01*
X46269971Y-84542841D01*
X46258238Y-84554397D01*
X46243566Y-84561873D01*
X46189137Y-84616303D01*
X46181661Y-84630974D01*
X46170106Y-84642707D01*
X46115677Y-84751564D01*
X46112188Y-84774727D01*
X46104951Y-84797001D01*
X46104951Y-85178001D01*
X45568486Y-85178001D01*
X45545767Y-85132563D01*
X45534210Y-85120830D01*
X45526735Y-85106158D01*
X45472305Y-85051729D01*
X45457633Y-85044253D01*
X45445901Y-85032698D01*
X45337044Y-84978269D01*
X45325846Y-84976582D01*
X45316249Y-84970577D01*
X45098535Y-84916148D01*
X45085920Y-84917021D01*
X45073893Y-84913114D01*
X44801750Y-84913114D01*
X44789724Y-84917021D01*
X44777109Y-84916147D01*
X44559393Y-84970577D01*
X44549795Y-84976582D01*
X44538598Y-84978269D01*
X44429741Y-85032698D01*
X44418008Y-85044254D01*
X44403336Y-85051730D01*
X44348908Y-85106158D01*
X44341432Y-85120830D01*
X44329876Y-85132563D01*
X44275447Y-85241420D01*
X44271958Y-85264583D01*
X44264721Y-85286857D01*
X44264721Y-85395714D01*
X44101435Y-85395714D01*
X44101435Y-84524858D01*
X44264721Y-84524858D01*
X44269694Y-84540163D01*
X44269694Y-84556254D01*
X44279152Y-84569272D01*
X44284125Y-84584577D01*
X44297143Y-84594035D01*
X44306602Y-84607054D01*
X44321906Y-84612026D01*
X44334925Y-84621485D01*
X44351016Y-84621485D01*
X44366321Y-84626458D01*
X45509321Y-84626458D01*
X45569040Y-84607054D01*
X45605948Y-84556254D01*
X45605948Y-84493462D01*
X45569040Y-84442662D01*
X45509321Y-84423258D01*
X45066635Y-84423258D01*
X45066635Y-84089429D01*
X45059397Y-84067154D01*
X45055909Y-84043993D01*
X45001481Y-83935135D01*
X44989924Y-83923402D01*
X44982449Y-83908730D01*
X44928020Y-83854301D01*
X44913347Y-83846825D01*
X44901615Y-83835269D01*
X44865649Y-83817286D01*
X46104951Y-83817286D01*
X46112188Y-83839562D01*
X46115677Y-83862723D01*
X46170106Y-83971581D01*
X46181662Y-83983313D01*
X46189138Y-83997986D01*
X46297995Y-84106843D01*
X46322182Y-84119167D01*
X46345196Y-84133568D01*
X46562909Y-84187995D01*
X46575523Y-84187121D01*
X46587551Y-84191029D01*
X46968551Y-84191029D01*
X46980576Y-84187121D01*
X46993192Y-84187996D01*
X47210906Y-84133568D01*
X47233921Y-84119166D01*
X47258107Y-84106843D01*
X47366965Y-83997986D01*
X47374441Y-83983312D01*
X47385997Y-83971580D01*
X47440425Y-83862723D01*
X47443913Y-83839562D01*
X47451151Y-83817286D01*
X47451151Y-83599572D01*
X47443913Y-83577297D01*
X47440425Y-83554136D01*
X47385997Y-83445278D01*
X47374440Y-83433545D01*
X47366965Y-83418873D01*
X47258107Y-83310016D01*
X47233921Y-83297693D01*
X47210907Y-83283292D01*
X46993193Y-83228863D01*
X46980578Y-83229736D01*
X46968551Y-83225829D01*
X46587551Y-83225829D01*
X46575525Y-83229736D01*
X46562910Y-83228862D01*
X46345195Y-83283292D01*
X46322182Y-83297692D01*
X46297995Y-83310016D01*
X46189138Y-83418873D01*
X46181662Y-83433545D01*
X46170106Y-83445278D01*
X46115677Y-83554135D01*
X46112188Y-83577298D01*
X46104951Y-83599572D01*
X46104951Y-83817286D01*
X44865649Y-83817286D01*
X44792758Y-83780841D01*
X44769597Y-83777352D01*
X44747321Y-83770115D01*
X44584035Y-83770115D01*
X44561760Y-83777352D01*
X44538599Y-83780841D01*
X44429741Y-83835269D01*
X44418008Y-83846825D01*
X44403336Y-83854301D01*
X44348907Y-83908731D01*
X44341431Y-83923402D01*
X44329876Y-83935135D01*
X44275447Y-84043992D01*
X44271958Y-84067155D01*
X44264721Y-84089429D01*
X44264721Y-84524858D01*
X44101435Y-84524858D01*
X44101435Y-82620628D01*
X46104954Y-82620628D01*
X46114645Y-82649703D01*
X46123904Y-82678950D01*
X46124555Y-82679430D01*
X46124811Y-82680198D01*
X46149756Y-82698034D01*
X46174422Y-82716243D01*
X47317422Y-83097243D01*
X47380213Y-83097720D01*
X47431291Y-83061198D01*
X47451148Y-83001628D01*
X47432198Y-82941764D01*
X47381680Y-82904471D01*
X47124580Y-82818771D01*
X47124580Y-82420943D01*
X47381680Y-82335243D01*
X47432198Y-82297950D01*
X47451148Y-82238086D01*
X47431291Y-82178516D01*
X47380213Y-82141994D01*
X47317422Y-82142471D01*
X46174422Y-82523471D01*
X46149756Y-82541679D01*
X46124811Y-82559516D01*
X46124555Y-82560283D01*
X46123904Y-82560764D01*
X46114645Y-82590010D01*
X46104954Y-82619086D01*
X46105198Y-82619857D01*
X46104954Y-82620628D01*
X44101435Y-82620628D01*
X44101435Y-81857858D01*
X46104951Y-81857858D01*
X46109924Y-81873163D01*
X46109924Y-81889254D01*
X46119382Y-81902272D01*
X46124355Y-81917577D01*
X46137373Y-81927035D01*
X46146832Y-81940054D01*
X46162136Y-81945026D01*
X46175155Y-81954485D01*
X46191246Y-81954485D01*
X46206551Y-81959458D01*
X47349551Y-81959458D01*
X47409270Y-81940054D01*
X47446178Y-81889254D01*
X47446178Y-81826462D01*
X47409270Y-81775662D01*
X47349551Y-81756258D01*
X46906865Y-81756258D01*
X46906865Y-81638613D01*
X47407815Y-81287949D01*
X47445611Y-81237806D01*
X47446716Y-81175023D01*
X47410707Y-81123582D01*
X47351339Y-81103131D01*
X47291288Y-81121481D01*
X46899012Y-81396073D01*
X46896139Y-81376993D01*
X46841711Y-81268135D01*
X46830154Y-81256402D01*
X46822679Y-81241730D01*
X46768250Y-81187301D01*
X46753577Y-81179825D01*
X46741845Y-81168269D01*
X46632988Y-81113841D01*
X46609827Y-81110352D01*
X46587551Y-81103115D01*
X46424265Y-81103115D01*
X46401990Y-81110352D01*
X46378829Y-81113841D01*
X46269971Y-81168269D01*
X46258238Y-81179825D01*
X46243566Y-81187301D01*
X46189137Y-81241731D01*
X46181661Y-81256402D01*
X46170106Y-81268135D01*
X46115677Y-81376992D01*
X46112188Y-81400155D01*
X46104951Y-81422429D01*
X46104951Y-81857858D01*
X44101435Y-81857858D01*
X44101435Y-80714858D01*
X46104951Y-80714858D01*
X46109924Y-80730163D01*
X46109924Y-80746254D01*
X46119382Y-80759272D01*
X46124355Y-80774577D01*
X46137373Y-80784035D01*
X46146832Y-80797054D01*
X46162136Y-80802026D01*
X46175155Y-80811485D01*
X46191246Y-80811485D01*
X46206551Y-80816458D01*
X47349551Y-80816458D01*
X47364856Y-80811485D01*
X47380947Y-80811485D01*
X47393965Y-80802026D01*
X47409270Y-80797054D01*
X47418728Y-80784035D01*
X47431747Y-80774577D01*
X47436719Y-80759272D01*
X47446178Y-80746254D01*
X47446178Y-80730163D01*
X47451151Y-80714858D01*
X47451151Y-80442715D01*
X47446062Y-80427053D01*
X47445937Y-80410586D01*
X47391509Y-80247301D01*
X47377599Y-80228458D01*
X47366965Y-80207587D01*
X47258107Y-80098730D01*
X47243435Y-80091254D01*
X47231702Y-80079698D01*
X47122845Y-80025269D01*
X47111647Y-80023582D01*
X47102049Y-80017576D01*
X46884335Y-79963148D01*
X46871719Y-79964022D01*
X46859694Y-79960115D01*
X46696408Y-79960115D01*
X46684380Y-79964022D01*
X46671766Y-79963149D01*
X46454053Y-80017576D01*
X46444454Y-80023582D01*
X46433257Y-80025269D01*
X46324400Y-80079698D01*
X46312667Y-80091254D01*
X46297995Y-80098730D01*
X46189138Y-80207587D01*
X46178504Y-80228455D01*
X46164594Y-80247300D01*
X46110165Y-80410586D01*
X46110039Y-80427053D01*
X46104951Y-80442715D01*
X46104951Y-80714858D01*
X44101435Y-80714858D01*
X44101435Y-79796829D01*
X47614437Y-79796829D01*
X47614437Y-99702035D01*
G37*
X254375588Y-93728046D02*
X255149684Y-93728046D01*
G36*
X262064312Y-64614437D02*
G01*
X256586512Y-64614437D01*
X256586512Y-63859694D01*
X256749798Y-63859694D01*
X256753705Y-63871719D01*
X256752831Y-63884335D01*
X256807259Y-64102049D01*
X256813265Y-64111647D01*
X256814952Y-64122845D01*
X256869381Y-64231702D01*
X256880937Y-64243435D01*
X256888413Y-64258107D01*
X256997270Y-64366965D01*
X257018141Y-64377599D01*
X257036984Y-64391509D01*
X257200269Y-64445937D01*
X257216736Y-64446062D01*
X257232398Y-64451151D01*
X257341255Y-64451151D01*
X257356916Y-64446062D01*
X257373383Y-64445937D01*
X257536669Y-64391509D01*
X257555513Y-64377598D01*
X257576384Y-64366964D01*
X257593797Y-64349551D01*
X257947226Y-64349551D01*
X257952199Y-64364856D01*
X257952199Y-64380947D01*
X257961657Y-64393965D01*
X257966630Y-64409270D01*
X257979648Y-64418728D01*
X257989107Y-64431747D01*
X258004411Y-64436719D01*
X258017430Y-64446178D01*
X258033521Y-64446178D01*
X258048826Y-64451151D01*
X258593112Y-64451151D01*
X258652831Y-64431747D01*
X258689739Y-64380947D01*
X258689739Y-64349551D01*
X258981369Y-64349551D01*
X258986342Y-64364856D01*
X258986342Y-64380947D01*
X258995800Y-64393965D01*
X259000773Y-64409270D01*
X259013791Y-64418728D01*
X259023250Y-64431747D01*
X259038554Y-64436719D01*
X259051573Y-64446178D01*
X259067664Y-64446178D01*
X259082969Y-64451151D01*
X259627255Y-64451151D01*
X259686974Y-64431747D01*
X259723882Y-64380947D01*
X259723882Y-64349551D01*
X259906655Y-64349551D01*
X259911628Y-64364856D01*
X259911628Y-64380947D01*
X259921086Y-64393965D01*
X259926059Y-64409270D01*
X259939077Y-64418728D01*
X259948536Y-64431747D01*
X259963840Y-64436719D01*
X259976859Y-64446178D01*
X259992950Y-64446178D01*
X260008255Y-64451151D01*
X260552541Y-64451151D01*
X260612260Y-64431747D01*
X260649168Y-64380947D01*
X260649168Y-64318155D01*
X260612260Y-64267355D01*
X260552541Y-64247951D01*
X260109855Y-64247951D01*
X260109855Y-63945519D01*
X260836914Y-63945519D01*
X260873822Y-63996319D01*
X260933541Y-64015723D01*
X261267370Y-64015723D01*
X261267370Y-64349551D01*
X261286774Y-64409270D01*
X261337574Y-64446178D01*
X261400366Y-64446178D01*
X261451166Y-64409270D01*
X261470570Y-64349551D01*
X261470570Y-64015723D01*
X261804399Y-64015723D01*
X261864118Y-63996319D01*
X261901026Y-63945519D01*
X261901026Y-63882727D01*
X261864118Y-63831927D01*
X261804399Y-63812523D01*
X261470570Y-63812523D01*
X261470570Y-63478694D01*
X261451166Y-63418975D01*
X261400366Y-63382067D01*
X261337574Y-63382067D01*
X261286774Y-63418975D01*
X261267370Y-63478694D01*
X261267370Y-63812523D01*
X260933541Y-63812523D01*
X260873822Y-63831927D01*
X260836914Y-63882727D01*
X260836914Y-63945519D01*
X260109855Y-63945519D01*
X260109855Y-63206551D01*
X260090451Y-63146832D01*
X260039651Y-63109924D01*
X259976859Y-63109924D01*
X259926059Y-63146832D01*
X259906655Y-63206551D01*
X259906655Y-64349551D01*
X259723882Y-64349551D01*
X259723882Y-64318155D01*
X259686974Y-64267355D01*
X259627255Y-64247951D01*
X259184569Y-64247951D01*
X259184569Y-63206551D01*
X259165165Y-63146832D01*
X259114365Y-63109924D01*
X259051573Y-63109924D01*
X259000773Y-63146832D01*
X258981369Y-63206551D01*
X258981369Y-64349551D01*
X258689739Y-64349551D01*
X258689739Y-64318155D01*
X258652831Y-64267355D01*
X258593112Y-64247951D01*
X258150426Y-64247951D01*
X258150426Y-63852437D01*
X258429826Y-63852437D01*
X258489545Y-63833033D01*
X258526453Y-63782233D01*
X258526453Y-63719441D01*
X258489545Y-63668641D01*
X258429826Y-63649237D01*
X258150426Y-63649237D01*
X258150426Y-63308151D01*
X258593112Y-63308151D01*
X258652831Y-63288747D01*
X258689739Y-63237947D01*
X258689739Y-63175155D01*
X258652831Y-63124355D01*
X258593112Y-63104951D01*
X258048826Y-63104951D01*
X258033521Y-63109924D01*
X258017430Y-63109924D01*
X258004411Y-63119382D01*
X257989107Y-63124355D01*
X257979648Y-63137373D01*
X257966630Y-63146832D01*
X257961657Y-63162136D01*
X257952199Y-63175155D01*
X257952199Y-63191245D01*
X257947226Y-63206551D01*
X257947226Y-64349551D01*
X257593797Y-64349551D01*
X257630812Y-64312535D01*
X257659319Y-64256586D01*
X257649495Y-64194568D01*
X257605094Y-64150167D01*
X257543075Y-64140345D01*
X257487127Y-64168852D01*
X257449658Y-64206321D01*
X257324769Y-64247951D01*
X257248884Y-64247951D01*
X257123996Y-64206322D01*
X257043755Y-64126081D01*
X257001686Y-64041944D01*
X256952998Y-63847185D01*
X256952998Y-63708916D01*
X257001686Y-63514157D01*
X257043755Y-63430020D01*
X257123994Y-63349781D01*
X257248885Y-63308151D01*
X257324768Y-63308151D01*
X257449658Y-63349781D01*
X257487127Y-63387250D01*
X257543075Y-63415757D01*
X257605094Y-63405934D01*
X257649495Y-63361533D01*
X257659318Y-63299514D01*
X257630811Y-63243566D01*
X257576383Y-63189138D01*
X257555514Y-63178504D01*
X257536670Y-63164594D01*
X257373384Y-63110165D01*
X257356916Y-63110039D01*
X257341255Y-63104951D01*
X257232398Y-63104951D01*
X257216736Y-63110039D01*
X257200269Y-63110165D01*
X257036983Y-63164594D01*
X257018139Y-63178504D01*
X256997270Y-63189138D01*
X256888413Y-63297995D01*
X256880937Y-63312667D01*
X256869381Y-63324400D01*
X256814952Y-63433257D01*
X256813265Y-63444454D01*
X256807259Y-63454053D01*
X256752831Y-63671767D01*
X256753705Y-63684382D01*
X256749798Y-63696408D01*
X256749798Y-63859694D01*
X256586512Y-63859694D01*
X256586512Y-62941665D01*
X262064312Y-62941665D01*
X262064312Y-64614437D01*
G37*
X254375588Y-86728046D02*
X255149684Y-86728046D01*
X254762636Y-87115093D02*
X254762636Y-86340998D01*
G36*
X261068437Y-84921380D02*
G01*
X260806075Y-84921380D01*
X260937256Y-84527838D01*
X261068437Y-84921380D01*
G37*
G36*
X262183358Y-84344481D02*
G01*
X262214469Y-84375591D01*
X262250798Y-84448249D01*
X262250798Y-84563566D01*
X262214468Y-84636225D01*
X262183357Y-84667336D01*
X262110699Y-84703665D01*
X261800855Y-84703665D01*
X261800855Y-84308151D01*
X262110699Y-84308151D01*
X262183358Y-84344481D01*
G37*
G36*
X263705856Y-85614437D02*
G01*
X254086512Y-85614437D01*
X254086512Y-84859694D01*
X254249798Y-84859694D01*
X254253705Y-84871719D01*
X254252831Y-84884335D01*
X254307259Y-85102049D01*
X254313265Y-85111647D01*
X254314952Y-85122845D01*
X254369381Y-85231702D01*
X254380937Y-85243435D01*
X254388413Y-85258107D01*
X254497270Y-85366965D01*
X254518141Y-85377599D01*
X254536984Y-85391509D01*
X254700269Y-85445937D01*
X254716736Y-85446062D01*
X254732398Y-85451151D01*
X254841255Y-85451151D01*
X254856916Y-85446062D01*
X254873383Y-85445937D01*
X255036669Y-85391509D01*
X255055513Y-85377598D01*
X255076384Y-85366964D01*
X255093797Y-85349551D01*
X255447226Y-85349551D01*
X255452199Y-85364856D01*
X255452199Y-85380947D01*
X255461657Y-85393965D01*
X255466630Y-85409270D01*
X255479648Y-85418728D01*
X255489107Y-85431747D01*
X255504411Y-85436719D01*
X255517430Y-85446178D01*
X255533521Y-85446178D01*
X255548826Y-85451151D01*
X256093112Y-85451151D01*
X256152831Y-85431747D01*
X256189739Y-85380947D01*
X256189739Y-85349551D01*
X256481369Y-85349551D01*
X256486342Y-85364856D01*
X256486342Y-85380947D01*
X256495800Y-85393965D01*
X256500773Y-85409270D01*
X256513791Y-85418728D01*
X256523250Y-85431747D01*
X256538554Y-85436719D01*
X256551573Y-85446178D01*
X256567664Y-85446178D01*
X256582969Y-85451151D01*
X257127255Y-85451151D01*
X257186974Y-85431747D01*
X257223882Y-85380947D01*
X257223882Y-85349551D01*
X257406655Y-85349551D01*
X257411628Y-85364856D01*
X257411628Y-85380947D01*
X257421086Y-85393965D01*
X257426059Y-85409270D01*
X257439077Y-85418728D01*
X257448536Y-85431747D01*
X257463840Y-85436719D01*
X257476859Y-85446178D01*
X257492950Y-85446178D01*
X257508255Y-85451151D01*
X258052541Y-85451151D01*
X258112260Y-85431747D01*
X258149168Y-85380947D01*
X258149168Y-85318155D01*
X258112260Y-85267355D01*
X258052541Y-85247951D01*
X257609855Y-85247951D01*
X257609855Y-84945519D01*
X258336914Y-84945519D01*
X258373822Y-84996319D01*
X258433541Y-85015723D01*
X259304399Y-85015723D01*
X259364118Y-84996319D01*
X259401026Y-84945519D01*
X259401026Y-84882727D01*
X259364118Y-84831927D01*
X259304399Y-84812523D01*
X258433541Y-84812523D01*
X258373822Y-84831927D01*
X258336914Y-84882727D01*
X258336914Y-84945519D01*
X257609855Y-84945519D01*
X257609855Y-84237947D01*
X259588772Y-84237947D01*
X259625680Y-84288747D01*
X259685399Y-84308151D01*
X259910370Y-84308151D01*
X259910370Y-85349551D01*
X259929774Y-85409270D01*
X259980574Y-85446178D01*
X260043366Y-85446178D01*
X260094166Y-85409270D01*
X260103607Y-85380213D01*
X260459393Y-85380213D01*
X260495915Y-85431291D01*
X260555485Y-85451148D01*
X260615349Y-85432198D01*
X260652642Y-85381680D01*
X260738342Y-85124580D01*
X261136170Y-85124580D01*
X261221870Y-85381680D01*
X261259163Y-85432198D01*
X261319027Y-85451148D01*
X261378597Y-85431291D01*
X261415119Y-85380213D01*
X261414886Y-85349551D01*
X261597655Y-85349551D01*
X261617059Y-85409270D01*
X261667859Y-85446178D01*
X261730651Y-85446178D01*
X261781451Y-85409270D01*
X261800855Y-85349551D01*
X261800855Y-84906865D01*
X262134684Y-84906865D01*
X262156960Y-84899627D01*
X262180121Y-84896139D01*
X262288978Y-84841711D01*
X262300710Y-84830154D01*
X262315383Y-84822679D01*
X262369812Y-84768250D01*
X262377287Y-84753577D01*
X262388844Y-84741845D01*
X262443272Y-84632987D01*
X262446760Y-84609825D01*
X262453998Y-84587551D01*
X262453998Y-84533123D01*
X262686227Y-84533123D01*
X262693464Y-84555399D01*
X262696953Y-84578560D01*
X262751381Y-84687417D01*
X262762937Y-84699150D01*
X262770414Y-84713823D01*
X262824843Y-84768251D01*
X262839514Y-84775726D01*
X262851247Y-84787282D01*
X262960104Y-84841711D01*
X262971301Y-84843397D01*
X262980900Y-84849404D01*
X263187791Y-84901125D01*
X263271929Y-84943194D01*
X263303039Y-84974305D01*
X263339370Y-85046965D01*
X263339370Y-85107851D01*
X263303039Y-85180511D01*
X263271929Y-85211622D01*
X263199271Y-85247951D01*
X262967599Y-85247951D01*
X262819955Y-85198737D01*
X262757165Y-85198260D01*
X262706087Y-85234782D01*
X262686230Y-85294352D01*
X262705180Y-85354216D01*
X262755699Y-85391509D01*
X262918984Y-85445937D01*
X262935451Y-85446062D01*
X262951113Y-85451151D01*
X263223255Y-85451151D01*
X263245531Y-85443912D01*
X263268691Y-85440425D01*
X263377549Y-85385997D01*
X263389281Y-85374441D01*
X263403956Y-85366964D01*
X263458384Y-85312535D01*
X263465859Y-85297863D01*
X263477415Y-85286131D01*
X263531844Y-85177274D01*
X263535332Y-85154110D01*
X263542570Y-85131837D01*
X263542570Y-85022980D01*
X263535332Y-85000706D01*
X263531844Y-84977543D01*
X263477415Y-84868686D01*
X263465859Y-84856953D01*
X263458384Y-84842282D01*
X263403956Y-84787853D01*
X263389283Y-84780376D01*
X263377550Y-84768820D01*
X263268692Y-84714391D01*
X263257495Y-84712704D01*
X263247896Y-84706698D01*
X263041002Y-84654974D01*
X262956866Y-84612906D01*
X262925755Y-84581795D01*
X262889427Y-84509138D01*
X262889427Y-84448249D01*
X262925755Y-84375592D01*
X262956866Y-84344481D01*
X263029526Y-84308151D01*
X263261197Y-84308151D01*
X263408841Y-84357366D01*
X263471632Y-84357843D01*
X263522710Y-84321321D01*
X263542567Y-84261752D01*
X263523618Y-84201887D01*
X263473099Y-84164594D01*
X263309813Y-84110165D01*
X263293345Y-84110039D01*
X263277684Y-84104951D01*
X263005541Y-84104951D01*
X262983267Y-84112188D01*
X262960104Y-84115677D01*
X262851247Y-84170106D01*
X262839514Y-84181661D01*
X262824843Y-84189137D01*
X262770414Y-84243565D01*
X262762937Y-84258237D01*
X262751381Y-84269971D01*
X262696953Y-84378828D01*
X262693464Y-84401988D01*
X262686227Y-84424265D01*
X262686227Y-84533123D01*
X262453998Y-84533123D01*
X262453998Y-84424265D01*
X262446760Y-84401990D01*
X262443272Y-84378829D01*
X262388844Y-84269971D01*
X262377287Y-84258238D01*
X262369812Y-84243566D01*
X262315382Y-84189137D01*
X262300710Y-84181661D01*
X262288978Y-84170106D01*
X262180121Y-84115677D01*
X262156957Y-84112188D01*
X262134684Y-84104951D01*
X261699255Y-84104951D01*
X261683950Y-84109924D01*
X261667859Y-84109924D01*
X261654840Y-84119382D01*
X261639536Y-84124355D01*
X261630077Y-84137373D01*
X261617059Y-84146832D01*
X261612086Y-84162136D01*
X261602628Y-84175155D01*
X261602628Y-84191245D01*
X261597655Y-84206551D01*
X261597655Y-85349551D01*
X261414886Y-85349551D01*
X261414642Y-85317422D01*
X261033642Y-84174422D01*
X261015433Y-84149756D01*
X260997597Y-84124811D01*
X260996829Y-84124555D01*
X260996349Y-84123904D01*
X260967102Y-84114645D01*
X260938027Y-84104954D01*
X260937256Y-84105198D01*
X260936485Y-84104954D01*
X260907409Y-84114645D01*
X260878163Y-84123904D01*
X260877682Y-84124555D01*
X260876915Y-84124811D01*
X260859078Y-84149756D01*
X260840870Y-84174422D01*
X260459870Y-85317422D01*
X260459393Y-85380213D01*
X260103607Y-85380213D01*
X260113570Y-85349551D01*
X260113570Y-84308151D01*
X260338542Y-84308151D01*
X260398261Y-84288747D01*
X260435169Y-84237947D01*
X260435169Y-84175155D01*
X260398261Y-84124355D01*
X260338542Y-84104951D01*
X259685399Y-84104951D01*
X259625680Y-84124355D01*
X259588772Y-84175155D01*
X259588772Y-84237947D01*
X257609855Y-84237947D01*
X257609855Y-84206551D01*
X257590451Y-84146832D01*
X257539651Y-84109924D01*
X257476859Y-84109924D01*
X257426059Y-84146832D01*
X257406655Y-84206551D01*
X257406655Y-85349551D01*
X257223882Y-85349551D01*
X257223882Y-85318155D01*
X257186974Y-85267355D01*
X257127255Y-85247951D01*
X256684569Y-85247951D01*
X256684569Y-84206551D01*
X256665165Y-84146832D01*
X256614365Y-84109924D01*
X256551573Y-84109924D01*
X256500773Y-84146832D01*
X256481369Y-84206551D01*
X256481369Y-85349551D01*
X256189739Y-85349551D01*
X256189739Y-85318155D01*
X256152831Y-85267355D01*
X256093112Y-85247951D01*
X255650426Y-85247951D01*
X255650426Y-84852437D01*
X255929826Y-84852437D01*
X255989545Y-84833033D01*
X256026453Y-84782233D01*
X256026453Y-84719441D01*
X255989545Y-84668641D01*
X255929826Y-84649237D01*
X255650426Y-84649237D01*
X255650426Y-84308151D01*
X256093112Y-84308151D01*
X256152831Y-84288747D01*
X256189739Y-84237947D01*
X256189739Y-84175155D01*
X256152831Y-84124355D01*
X256093112Y-84104951D01*
X255548826Y-84104951D01*
X255533521Y-84109924D01*
X255517430Y-84109924D01*
X255504411Y-84119382D01*
X255489107Y-84124355D01*
X255479648Y-84137373D01*
X255466630Y-84146832D01*
X255461657Y-84162136D01*
X255452199Y-84175155D01*
X255452199Y-84191245D01*
X255447226Y-84206551D01*
X255447226Y-85349551D01*
X255093797Y-85349551D01*
X255130812Y-85312535D01*
X255159319Y-85256586D01*
X255149495Y-85194568D01*
X255105094Y-85150167D01*
X255043075Y-85140345D01*
X254987127Y-85168852D01*
X254949658Y-85206321D01*
X254824769Y-85247951D01*
X254748884Y-85247951D01*
X254623996Y-85206322D01*
X254543755Y-85126081D01*
X254501686Y-85041944D01*
X254452998Y-84847185D01*
X254452998Y-84708916D01*
X254501686Y-84514157D01*
X254543755Y-84430020D01*
X254623994Y-84349781D01*
X254748885Y-84308151D01*
X254824768Y-84308151D01*
X254949658Y-84349781D01*
X254987127Y-84387250D01*
X255043075Y-84415757D01*
X255105094Y-84405934D01*
X255149495Y-84361533D01*
X255159318Y-84299514D01*
X255130811Y-84243566D01*
X255076383Y-84189138D01*
X255055514Y-84178504D01*
X255036670Y-84164594D01*
X254873384Y-84110165D01*
X254856916Y-84110039D01*
X254841255Y-84104951D01*
X254732398Y-84104951D01*
X254716736Y-84110039D01*
X254700269Y-84110165D01*
X254536983Y-84164594D01*
X254518139Y-84178504D01*
X254497270Y-84189138D01*
X254388413Y-84297995D01*
X254380937Y-84312667D01*
X254369381Y-84324400D01*
X254314952Y-84433257D01*
X254313265Y-84444454D01*
X254307259Y-84454053D01*
X254252831Y-84671767D01*
X254253705Y-84684382D01*
X254249798Y-84696408D01*
X254249798Y-84859694D01*
X254086512Y-84859694D01*
X254086512Y-83941665D01*
X263705856Y-83941665D01*
X263705856Y-85614437D01*
G37*
G36*
X48314312Y-118114437D02*
G01*
X42836512Y-118114437D01*
X42836512Y-117359694D01*
X42999798Y-117359694D01*
X43003705Y-117371719D01*
X43002831Y-117384335D01*
X43057259Y-117602049D01*
X43063265Y-117611647D01*
X43064952Y-117622845D01*
X43119381Y-117731702D01*
X43130937Y-117743435D01*
X43138413Y-117758107D01*
X43247270Y-117866965D01*
X43268141Y-117877599D01*
X43286984Y-117891509D01*
X43450269Y-117945937D01*
X43466736Y-117946062D01*
X43482398Y-117951151D01*
X43591255Y-117951151D01*
X43606916Y-117946062D01*
X43623383Y-117945937D01*
X43786669Y-117891509D01*
X43805513Y-117877598D01*
X43826384Y-117866964D01*
X43843797Y-117849551D01*
X44197226Y-117849551D01*
X44202199Y-117864856D01*
X44202199Y-117880947D01*
X44211657Y-117893965D01*
X44216630Y-117909270D01*
X44229648Y-117918728D01*
X44239107Y-117931747D01*
X44254411Y-117936719D01*
X44267430Y-117946178D01*
X44283521Y-117946178D01*
X44298826Y-117951151D01*
X44843112Y-117951151D01*
X44902831Y-117931747D01*
X44939739Y-117880947D01*
X44939739Y-117849551D01*
X45231369Y-117849551D01*
X45236342Y-117864856D01*
X45236342Y-117880947D01*
X45245800Y-117893965D01*
X45250773Y-117909270D01*
X45263791Y-117918728D01*
X45273250Y-117931747D01*
X45288554Y-117936719D01*
X45301573Y-117946178D01*
X45317664Y-117946178D01*
X45332969Y-117951151D01*
X45877255Y-117951151D01*
X45936974Y-117931747D01*
X45973882Y-117880947D01*
X45973882Y-117849551D01*
X46156655Y-117849551D01*
X46161628Y-117864856D01*
X46161628Y-117880947D01*
X46171086Y-117893965D01*
X46176059Y-117909270D01*
X46189077Y-117918728D01*
X46198536Y-117931747D01*
X46213840Y-117936719D01*
X46226859Y-117946178D01*
X46242950Y-117946178D01*
X46258255Y-117951151D01*
X46802541Y-117951151D01*
X46862260Y-117931747D01*
X46899168Y-117880947D01*
X46899168Y-117818155D01*
X46862260Y-117767355D01*
X46802541Y-117747951D01*
X46359855Y-117747951D01*
X46359855Y-117445519D01*
X47086914Y-117445519D01*
X47123822Y-117496319D01*
X47183541Y-117515723D01*
X48054399Y-117515723D01*
X48114118Y-117496319D01*
X48151026Y-117445519D01*
X48151026Y-117382727D01*
X48114118Y-117331927D01*
X48054399Y-117312523D01*
X47183541Y-117312523D01*
X47123822Y-117331927D01*
X47086914Y-117382727D01*
X47086914Y-117445519D01*
X46359855Y-117445519D01*
X46359855Y-116706551D01*
X46340451Y-116646832D01*
X46289651Y-116609924D01*
X46226859Y-116609924D01*
X46176059Y-116646832D01*
X46156655Y-116706551D01*
X46156655Y-117849551D01*
X45973882Y-117849551D01*
X45973882Y-117818155D01*
X45936974Y-117767355D01*
X45877255Y-117747951D01*
X45434569Y-117747951D01*
X45434569Y-116706551D01*
X45415165Y-116646832D01*
X45364365Y-116609924D01*
X45301573Y-116609924D01*
X45250773Y-116646832D01*
X45231369Y-116706551D01*
X45231369Y-117849551D01*
X44939739Y-117849551D01*
X44939739Y-117818155D01*
X44902831Y-117767355D01*
X44843112Y-117747951D01*
X44400426Y-117747951D01*
X44400426Y-117352437D01*
X44679826Y-117352437D01*
X44739545Y-117333033D01*
X44776453Y-117282233D01*
X44776453Y-117219441D01*
X44739545Y-117168641D01*
X44679826Y-117149237D01*
X44400426Y-117149237D01*
X44400426Y-116808151D01*
X44843112Y-116808151D01*
X44902831Y-116788747D01*
X44939739Y-116737947D01*
X44939739Y-116675155D01*
X44902831Y-116624355D01*
X44843112Y-116604951D01*
X44298826Y-116604951D01*
X44283521Y-116609924D01*
X44267430Y-116609924D01*
X44254411Y-116619382D01*
X44239107Y-116624355D01*
X44229648Y-116637373D01*
X44216630Y-116646832D01*
X44211657Y-116662136D01*
X44202199Y-116675155D01*
X44202199Y-116691245D01*
X44197226Y-116706551D01*
X44197226Y-117849551D01*
X43843797Y-117849551D01*
X43880812Y-117812535D01*
X43909319Y-117756586D01*
X43899495Y-117694568D01*
X43855094Y-117650167D01*
X43793075Y-117640345D01*
X43737127Y-117668852D01*
X43699658Y-117706321D01*
X43574769Y-117747951D01*
X43498884Y-117747951D01*
X43373996Y-117706322D01*
X43293755Y-117626081D01*
X43251686Y-117541944D01*
X43202998Y-117347185D01*
X43202998Y-117208916D01*
X43251686Y-117014157D01*
X43293755Y-116930020D01*
X43373994Y-116849781D01*
X43498885Y-116808151D01*
X43574768Y-116808151D01*
X43699658Y-116849781D01*
X43737127Y-116887250D01*
X43793075Y-116915757D01*
X43855094Y-116905934D01*
X43899495Y-116861533D01*
X43909318Y-116799514D01*
X43880811Y-116743566D01*
X43826383Y-116689138D01*
X43805514Y-116678504D01*
X43786670Y-116664594D01*
X43623384Y-116610165D01*
X43606916Y-116610039D01*
X43591255Y-116604951D01*
X43482398Y-116604951D01*
X43466736Y-116610039D01*
X43450269Y-116610165D01*
X43286983Y-116664594D01*
X43268139Y-116678504D01*
X43247270Y-116689138D01*
X43138413Y-116797995D01*
X43130937Y-116812667D01*
X43119381Y-116824400D01*
X43064952Y-116933257D01*
X43063265Y-116944454D01*
X43057259Y-116954053D01*
X43002831Y-117171767D01*
X43003705Y-117184382D01*
X42999798Y-117196408D01*
X42999798Y-117359694D01*
X42836512Y-117359694D01*
X42836512Y-116441665D01*
X48314312Y-116441665D01*
X48314312Y-118114437D01*
G37*
G36*
X262064312Y-118114437D02*
G01*
X256586512Y-118114437D01*
X256586512Y-117359694D01*
X256749798Y-117359694D01*
X256753705Y-117371719D01*
X256752831Y-117384335D01*
X256807259Y-117602049D01*
X256813265Y-117611647D01*
X256814952Y-117622845D01*
X256869381Y-117731702D01*
X256880937Y-117743435D01*
X256888413Y-117758107D01*
X256997270Y-117866965D01*
X257018141Y-117877599D01*
X257036984Y-117891509D01*
X257200269Y-117945937D01*
X257216736Y-117946062D01*
X257232398Y-117951151D01*
X257341255Y-117951151D01*
X257356916Y-117946062D01*
X257373383Y-117945937D01*
X257536669Y-117891509D01*
X257555513Y-117877598D01*
X257576384Y-117866964D01*
X257593797Y-117849551D01*
X257947226Y-117849551D01*
X257952199Y-117864856D01*
X257952199Y-117880947D01*
X257961657Y-117893965D01*
X257966630Y-117909270D01*
X257979648Y-117918728D01*
X257989107Y-117931747D01*
X258004411Y-117936719D01*
X258017430Y-117946178D01*
X258033521Y-117946178D01*
X258048826Y-117951151D01*
X258593112Y-117951151D01*
X258652831Y-117931747D01*
X258689739Y-117880947D01*
X258689739Y-117849551D01*
X258981369Y-117849551D01*
X258986342Y-117864856D01*
X258986342Y-117880947D01*
X258995800Y-117893965D01*
X259000773Y-117909270D01*
X259013791Y-117918728D01*
X259023250Y-117931747D01*
X259038554Y-117936719D01*
X259051573Y-117946178D01*
X259067664Y-117946178D01*
X259082969Y-117951151D01*
X259627255Y-117951151D01*
X259686974Y-117931747D01*
X259723882Y-117880947D01*
X259723882Y-117849551D01*
X259906655Y-117849551D01*
X259911628Y-117864856D01*
X259911628Y-117880947D01*
X259921086Y-117893965D01*
X259926059Y-117909270D01*
X259939077Y-117918728D01*
X259948536Y-117931747D01*
X259963840Y-117936719D01*
X259976859Y-117946178D01*
X259992950Y-117946178D01*
X260008255Y-117951151D01*
X260552541Y-117951151D01*
X260612260Y-117931747D01*
X260649168Y-117880947D01*
X260649168Y-117818155D01*
X260612260Y-117767355D01*
X260552541Y-117747951D01*
X260109855Y-117747951D01*
X260109855Y-117445519D01*
X260836914Y-117445519D01*
X260873822Y-117496319D01*
X260933541Y-117515723D01*
X261804399Y-117515723D01*
X261864118Y-117496319D01*
X261901026Y-117445519D01*
X261901026Y-117382727D01*
X261864118Y-117331927D01*
X261804399Y-117312523D01*
X260933541Y-117312523D01*
X260873822Y-117331927D01*
X260836914Y-117382727D01*
X260836914Y-117445519D01*
X260109855Y-117445519D01*
X260109855Y-116706551D01*
X260090451Y-116646832D01*
X260039651Y-116609924D01*
X259976859Y-116609924D01*
X259926059Y-116646832D01*
X259906655Y-116706551D01*
X259906655Y-117849551D01*
X259723882Y-117849551D01*
X259723882Y-117818155D01*
X259686974Y-117767355D01*
X259627255Y-117747951D01*
X259184569Y-117747951D01*
X259184569Y-116706551D01*
X259165165Y-116646832D01*
X259114365Y-116609924D01*
X259051573Y-116609924D01*
X259000773Y-116646832D01*
X258981369Y-116706551D01*
X258981369Y-117849551D01*
X258689739Y-117849551D01*
X258689739Y-117818155D01*
X258652831Y-117767355D01*
X258593112Y-117747951D01*
X258150426Y-117747951D01*
X258150426Y-117352437D01*
X258429826Y-117352437D01*
X258489545Y-117333033D01*
X258526453Y-117282233D01*
X258526453Y-117219441D01*
X258489545Y-117168641D01*
X258429826Y-117149237D01*
X258150426Y-117149237D01*
X258150426Y-116808151D01*
X258593112Y-116808151D01*
X258652831Y-116788747D01*
X258689739Y-116737947D01*
X258689739Y-116675155D01*
X258652831Y-116624355D01*
X258593112Y-116604951D01*
X258048826Y-116604951D01*
X258033521Y-116609924D01*
X258017430Y-116609924D01*
X258004411Y-116619382D01*
X257989107Y-116624355D01*
X257979648Y-116637373D01*
X257966630Y-116646832D01*
X257961657Y-116662136D01*
X257952199Y-116675155D01*
X257952199Y-116691245D01*
X257947226Y-116706551D01*
X257947226Y-117849551D01*
X257593797Y-117849551D01*
X257630812Y-117812535D01*
X257659319Y-117756586D01*
X257649495Y-117694568D01*
X257605094Y-117650167D01*
X257543075Y-117640345D01*
X257487127Y-117668852D01*
X257449658Y-117706321D01*
X257324769Y-117747951D01*
X257248884Y-117747951D01*
X257123996Y-117706322D01*
X257043755Y-117626081D01*
X257001686Y-117541944D01*
X256952998Y-117347185D01*
X256952998Y-117208916D01*
X257001686Y-117014157D01*
X257043755Y-116930020D01*
X257123994Y-116849781D01*
X257248885Y-116808151D01*
X257324768Y-116808151D01*
X257449658Y-116849781D01*
X257487127Y-116887250D01*
X257543075Y-116915757D01*
X257605094Y-116905934D01*
X257649495Y-116861533D01*
X257659318Y-116799514D01*
X257630811Y-116743566D01*
X257576383Y-116689138D01*
X257555514Y-116678504D01*
X257536670Y-116664594D01*
X257373384Y-116610165D01*
X257356916Y-116610039D01*
X257341255Y-116604951D01*
X257232398Y-116604951D01*
X257216736Y-116610039D01*
X257200269Y-116610165D01*
X257036983Y-116664594D01*
X257018139Y-116678504D01*
X256997270Y-116689138D01*
X256888413Y-116797995D01*
X256880937Y-116812667D01*
X256869381Y-116824400D01*
X256814952Y-116933257D01*
X256813265Y-116944454D01*
X256807259Y-116954053D01*
X256752831Y-117171767D01*
X256753705Y-117184382D01*
X256749798Y-117196408D01*
X256749798Y-117359694D01*
X256586512Y-117359694D01*
X256586512Y-116441665D01*
X262064312Y-116441665D01*
X262064312Y-118114437D01*
G37*
X49615093Y-96874411D02*
X48599093Y-96874411D01*
X48599093Y-96874411D02*
X49324808Y-96535744D01*
X49324808Y-96535744D02*
X48599093Y-96197077D01*
X48599093Y-96197077D02*
X49615093Y-96197077D01*
X49615093Y-95277839D02*
X49082903Y-95277839D01*
X49082903Y-95277839D02*
X48986141Y-95326220D01*
X48986141Y-95326220D02*
X48937760Y-95422982D01*
X48937760Y-95422982D02*
X48937760Y-95616506D01*
X48937760Y-95616506D02*
X48986141Y-95713268D01*
X49566713Y-95277839D02*
X49615093Y-95374601D01*
X49615093Y-95374601D02*
X49615093Y-95616506D01*
X49615093Y-95616506D02*
X49566713Y-95713268D01*
X49566713Y-95713268D02*
X49469951Y-95761649D01*
X49469951Y-95761649D02*
X49373189Y-95761649D01*
X49373189Y-95761649D02*
X49276427Y-95713268D01*
X49276427Y-95713268D02*
X49228046Y-95616506D01*
X49228046Y-95616506D02*
X49228046Y-95374601D01*
X49228046Y-95374601D02*
X49179665Y-95277839D01*
X49615093Y-94794030D02*
X48937760Y-94794030D01*
X49131284Y-94794030D02*
X49034522Y-94745649D01*
X49034522Y-94745649D02*
X48986141Y-94697268D01*
X48986141Y-94697268D02*
X48937760Y-94600506D01*
X48937760Y-94600506D02*
X48937760Y-94503744D01*
X49615093Y-94165078D02*
X48599093Y-94165078D01*
X49228046Y-94068316D02*
X49615093Y-93778030D01*
X48937760Y-93778030D02*
X49324808Y-94165078D01*
X49082903Y-92229840D02*
X49131284Y-92084697D01*
X49131284Y-92084697D02*
X49179665Y-92036316D01*
X49179665Y-92036316D02*
X49276427Y-91987935D01*
X49276427Y-91987935D02*
X49421570Y-91987935D01*
X49421570Y-91987935D02*
X49518332Y-92036316D01*
X49518332Y-92036316D02*
X49566713Y-92084697D01*
X49566713Y-92084697D02*
X49615093Y-92181459D01*
X49615093Y-92181459D02*
X49615093Y-92568507D01*
X49615093Y-92568507D02*
X48599093Y-92568507D01*
X48599093Y-92568507D02*
X48599093Y-92229840D01*
X48599093Y-92229840D02*
X48647474Y-92133078D01*
X48647474Y-92133078D02*
X48695855Y-92084697D01*
X48695855Y-92084697D02*
X48792617Y-92036316D01*
X48792617Y-92036316D02*
X48889379Y-92036316D01*
X48889379Y-92036316D02*
X48986141Y-92084697D01*
X48986141Y-92084697D02*
X49034522Y-92133078D01*
X49034522Y-92133078D02*
X49082903Y-92229840D01*
X49082903Y-92229840D02*
X49082903Y-92568507D01*
X49566713Y-91165459D02*
X49615093Y-91262221D01*
X49615093Y-91262221D02*
X49615093Y-91455745D01*
X49615093Y-91455745D02*
X49566713Y-91552507D01*
X49566713Y-91552507D02*
X49469951Y-91600888D01*
X49469951Y-91600888D02*
X49082903Y-91600888D01*
X49082903Y-91600888D02*
X48986141Y-91552507D01*
X48986141Y-91552507D02*
X48937760Y-91455745D01*
X48937760Y-91455745D02*
X48937760Y-91262221D01*
X48937760Y-91262221D02*
X48986141Y-91165459D01*
X48986141Y-91165459D02*
X49082903Y-91117078D01*
X49082903Y-91117078D02*
X49179665Y-91117078D01*
X49179665Y-91117078D02*
X49276427Y-91600888D01*
X49615093Y-90536507D02*
X49566713Y-90633269D01*
X49566713Y-90633269D02*
X49469951Y-90681650D01*
X49469951Y-90681650D02*
X48599093Y-90681650D01*
X49615093Y-90149460D02*
X48599093Y-90149460D01*
X48986141Y-90149460D02*
X48937760Y-90052698D01*
X48937760Y-90052698D02*
X48937760Y-89859174D01*
X48937760Y-89859174D02*
X48986141Y-89762412D01*
X48986141Y-89762412D02*
X49034522Y-89714031D01*
X49034522Y-89714031D02*
X49131284Y-89665650D01*
X49131284Y-89665650D02*
X49421570Y-89665650D01*
X49421570Y-89665650D02*
X49518332Y-89714031D01*
X49518332Y-89714031D02*
X49566713Y-89762412D01*
X49566713Y-89762412D02*
X49615093Y-89859174D01*
X49615093Y-89859174D02*
X49615093Y-90052698D01*
X49615093Y-90052698D02*
X49566713Y-90149460D01*
X49615093Y-89230222D02*
X48937760Y-89230222D01*
X48599093Y-89230222D02*
X48647474Y-89278603D01*
X48647474Y-89278603D02*
X48695855Y-89230222D01*
X48695855Y-89230222D02*
X48647474Y-89181841D01*
X48647474Y-89181841D02*
X48599093Y-89230222D01*
X48599093Y-89230222D02*
X48695855Y-89230222D01*
X48937760Y-88746412D02*
X49615093Y-88746412D01*
X49034522Y-88746412D02*
X48986141Y-88698031D01*
X48986141Y-88698031D02*
X48937760Y-88601269D01*
X48937760Y-88601269D02*
X48937760Y-88456126D01*
X48937760Y-88456126D02*
X48986141Y-88359364D01*
X48986141Y-88359364D02*
X49082903Y-88310983D01*
X49082903Y-88310983D02*
X49615093Y-88310983D01*
X49228046Y-87053079D02*
X49228046Y-86278984D01*
X48695855Y-85069460D02*
X48647474Y-85021079D01*
X48647474Y-85021079D02*
X48599093Y-84924317D01*
X48599093Y-84924317D02*
X48599093Y-84682412D01*
X48599093Y-84682412D02*
X48647474Y-84585650D01*
X48647474Y-84585650D02*
X48695855Y-84537269D01*
X48695855Y-84537269D02*
X48792617Y-84488888D01*
X48792617Y-84488888D02*
X48889379Y-84488888D01*
X48889379Y-84488888D02*
X49034522Y-84537269D01*
X49034522Y-84537269D02*
X49615093Y-85117841D01*
X49615093Y-85117841D02*
X49615093Y-84488888D01*
X48599093Y-83859936D02*
X48599093Y-83763174D01*
X48599093Y-83763174D02*
X48647474Y-83666412D01*
X48647474Y-83666412D02*
X48695855Y-83618031D01*
X48695855Y-83618031D02*
X48792617Y-83569650D01*
X48792617Y-83569650D02*
X48986141Y-83521269D01*
X48986141Y-83521269D02*
X49228046Y-83521269D01*
X49228046Y-83521269D02*
X49421570Y-83569650D01*
X49421570Y-83569650D02*
X49518332Y-83618031D01*
X49518332Y-83618031D02*
X49566713Y-83666412D01*
X49566713Y-83666412D02*
X49615093Y-83763174D01*
X49615093Y-83763174D02*
X49615093Y-83859936D01*
X49615093Y-83859936D02*
X49566713Y-83956698D01*
X49566713Y-83956698D02*
X49518332Y-84005079D01*
X49518332Y-84005079D02*
X49421570Y-84053460D01*
X49421570Y-84053460D02*
X49228046Y-84101841D01*
X49228046Y-84101841D02*
X48986141Y-84101841D01*
X48986141Y-84101841D02*
X48792617Y-84053460D01*
X48792617Y-84053460D02*
X48695855Y-84005079D01*
X48695855Y-84005079D02*
X48647474Y-83956698D01*
X48647474Y-83956698D02*
X48599093Y-83859936D01*
X48695855Y-83134222D02*
X48647474Y-83085841D01*
X48647474Y-83085841D02*
X48599093Y-82989079D01*
X48599093Y-82989079D02*
X48599093Y-82747174D01*
X48599093Y-82747174D02*
X48647474Y-82650412D01*
X48647474Y-82650412D02*
X48695855Y-82602031D01*
X48695855Y-82602031D02*
X48792617Y-82553650D01*
X48792617Y-82553650D02*
X48889379Y-82553650D01*
X48889379Y-82553650D02*
X49034522Y-82602031D01*
X49034522Y-82602031D02*
X49615093Y-83182603D01*
X49615093Y-83182603D02*
X49615093Y-82553650D01*
X48599093Y-82214984D02*
X48599093Y-81586031D01*
X48599093Y-81586031D02*
X48986141Y-81924698D01*
X48986141Y-81924698D02*
X48986141Y-81779555D01*
X48986141Y-81779555D02*
X49034522Y-81682793D01*
X49034522Y-81682793D02*
X49082903Y-81634412D01*
X49082903Y-81634412D02*
X49179665Y-81586031D01*
X49179665Y-81586031D02*
X49421570Y-81586031D01*
X49421570Y-81586031D02*
X49518332Y-81634412D01*
X49518332Y-81634412D02*
X49566713Y-81682793D01*
X49566713Y-81682793D02*
X49615093Y-81779555D01*
X49615093Y-81779555D02*
X49615093Y-82069841D01*
X49615093Y-82069841D02*
X49566713Y-82166603D01*
X49566713Y-82166603D02*
X49518332Y-82214984D01*
X176161333Y-52443453D02*
X176161333Y-53169168D01*
X176161333Y-53169168D02*
X176112952Y-53314311D01*
X176112952Y-53314311D02*
X176016190Y-53411073D01*
X176016190Y-53411073D02*
X175871047Y-53459453D01*
X175871047Y-53459453D02*
X175774285Y-53459453D01*
X176548380Y-52443453D02*
X177225714Y-52443453D01*
X177225714Y-52443453D02*
X176790285Y-53459453D01*
X49161333Y-75943453D02*
X49161333Y-76669168D01*
X49161333Y-76669168D02*
X49112952Y-76814311D01*
X49112952Y-76814311D02*
X49016190Y-76911073D01*
X49016190Y-76911073D02*
X48871047Y-76959453D01*
X48871047Y-76959453D02*
X48774285Y-76959453D01*
X50177333Y-76959453D02*
X49596761Y-76959453D01*
X49887047Y-76959453D02*
X49887047Y-75943453D01*
X49887047Y-75943453D02*
X49790285Y-76088596D01*
X49790285Y-76088596D02*
X49693523Y-76185358D01*
X49693523Y-76185358D02*
X49596761Y-76233739D01*
X48161333Y-102943453D02*
X48161333Y-103669168D01*
X48161333Y-103669168D02*
X48112952Y-103814311D01*
X48112952Y-103814311D02*
X48016190Y-103911073D01*
X48016190Y-103911073D02*
X47871047Y-103959453D01*
X47871047Y-103959453D02*
X47774285Y-103959453D01*
X48693523Y-103959453D02*
X48887047Y-103959453D01*
X48887047Y-103959453D02*
X48983809Y-103911073D01*
X48983809Y-103911073D02*
X49032190Y-103862692D01*
X49032190Y-103862692D02*
X49128952Y-103717549D01*
X49128952Y-103717549D02*
X49177333Y-103524025D01*
X49177333Y-103524025D02*
X49177333Y-103136977D01*
X49177333Y-103136977D02*
X49128952Y-103040215D01*
X49128952Y-103040215D02*
X49080571Y-102991834D01*
X49080571Y-102991834D02*
X48983809Y-102943453D01*
X48983809Y-102943453D02*
X48790285Y-102943453D01*
X48790285Y-102943453D02*
X48693523Y-102991834D01*
X48693523Y-102991834D02*
X48645142Y-103040215D01*
X48645142Y-103040215D02*
X48596761Y-103136977D01*
X48596761Y-103136977D02*
X48596761Y-103378882D01*
X48596761Y-103378882D02*
X48645142Y-103475644D01*
X48645142Y-103475644D02*
X48693523Y-103524025D01*
X48693523Y-103524025D02*
X48790285Y-103572406D01*
X48790285Y-103572406D02*
X48983809Y-103572406D01*
X48983809Y-103572406D02*
X49080571Y-103524025D01*
X49080571Y-103524025D02*
X49128952Y-103475644D01*
X49128952Y-103475644D02*
X49177333Y-103378882D01*
X256177524Y-103193453D02*
X256177524Y-103919168D01*
X256177524Y-103919168D02*
X256129143Y-104064311D01*
X256129143Y-104064311D02*
X256032381Y-104161073D01*
X256032381Y-104161073D02*
X255887238Y-104209453D01*
X255887238Y-104209453D02*
X255790476Y-104209453D01*
X257193524Y-104209453D02*
X256612952Y-104209453D01*
X256903238Y-104209453D02*
X256903238Y-103193453D01*
X256903238Y-103193453D02*
X256806476Y-103338596D01*
X256806476Y-103338596D02*
X256709714Y-103435358D01*
X256709714Y-103435358D02*
X256612952Y-103483739D01*
X257822476Y-103193453D02*
X257919238Y-103193453D01*
X257919238Y-103193453D02*
X258016000Y-103241834D01*
X258016000Y-103241834D02*
X258064381Y-103290215D01*
X258064381Y-103290215D02*
X258112762Y-103386977D01*
X258112762Y-103386977D02*
X258161143Y-103580501D01*
X258161143Y-103580501D02*
X258161143Y-103822406D01*
X258161143Y-103822406D02*
X258112762Y-104015930D01*
X258112762Y-104015930D02*
X258064381Y-104112692D01*
X258064381Y-104112692D02*
X258016000Y-104161073D01*
X258016000Y-104161073D02*
X257919238Y-104209453D01*
X257919238Y-104209453D02*
X257822476Y-104209453D01*
X257822476Y-104209453D02*
X257725714Y-104161073D01*
X257725714Y-104161073D02*
X257677333Y-104112692D01*
X257677333Y-104112692D02*
X257628952Y-104015930D01*
X257628952Y-104015930D02*
X257580571Y-103822406D01*
X257580571Y-103822406D02*
X257580571Y-103580501D01*
X257580571Y-103580501D02*
X257628952Y-103386977D01*
X257628952Y-103386977D02*
X257677333Y-103290215D01*
X257677333Y-103290215D02*
X257725714Y-103241834D01*
X257725714Y-103241834D02*
X257822476Y-103193453D01*
X96161333Y-52443453D02*
X96161333Y-53169168D01*
X96161333Y-53169168D02*
X96112952Y-53314311D01*
X96112952Y-53314311D02*
X96016190Y-53411073D01*
X96016190Y-53411073D02*
X95871047Y-53459453D01*
X95871047Y-53459453D02*
X95774285Y-53459453D01*
X97128952Y-52443453D02*
X96645142Y-52443453D01*
X96645142Y-52443453D02*
X96596761Y-52927263D01*
X96596761Y-52927263D02*
X96645142Y-52878882D01*
X96645142Y-52878882D02*
X96741904Y-52830501D01*
X96741904Y-52830501D02*
X96983809Y-52830501D01*
X96983809Y-52830501D02*
X97080571Y-52878882D01*
X97080571Y-52878882D02*
X97128952Y-52927263D01*
X97128952Y-52927263D02*
X97177333Y-53024025D01*
X97177333Y-53024025D02*
X97177333Y-53265930D01*
X97177333Y-53265930D02*
X97128952Y-53362692D01*
X97128952Y-53362692D02*
X97080571Y-53411073D01*
X97080571Y-53411073D02*
X96983809Y-53459453D01*
X96983809Y-53459453D02*
X96741904Y-53459453D01*
X96741904Y-53459453D02*
X96645142Y-53411073D01*
X96645142Y-53411073D02*
X96596761Y-53362692D01*
X257411333Y-95943453D02*
X257411333Y-96669168D01*
X257411333Y-96669168D02*
X257362952Y-96814311D01*
X257362952Y-96814311D02*
X257266190Y-96911073D01*
X257266190Y-96911073D02*
X257121047Y-96959453D01*
X257121047Y-96959453D02*
X257024285Y-96959453D01*
X257798380Y-95943453D02*
X258427333Y-95943453D01*
X258427333Y-95943453D02*
X258088666Y-96330501D01*
X258088666Y-96330501D02*
X258233809Y-96330501D01*
X258233809Y-96330501D02*
X258330571Y-96378882D01*
X258330571Y-96378882D02*
X258378952Y-96427263D01*
X258378952Y-96427263D02*
X258427333Y-96524025D01*
X258427333Y-96524025D02*
X258427333Y-96765930D01*
X258427333Y-96765930D02*
X258378952Y-96862692D01*
X258378952Y-96862692D02*
X258330571Y-96911073D01*
X258330571Y-96911073D02*
X258233809Y-96959453D01*
X258233809Y-96959453D02*
X257943523Y-96959453D01*
X257943523Y-96959453D02*
X257846761Y-96911073D01*
X257846761Y-96911073D02*
X257798380Y-96862692D01*
X256161333Y-76693453D02*
X256161333Y-77419168D01*
X256161333Y-77419168D02*
X256112952Y-77564311D01*
X256112952Y-77564311D02*
X256016190Y-77661073D01*
X256016190Y-77661073D02*
X255871047Y-77709453D01*
X255871047Y-77709453D02*
X255774285Y-77709453D01*
X256596761Y-76790215D02*
X256645142Y-76741834D01*
X256645142Y-76741834D02*
X256741904Y-76693453D01*
X256741904Y-76693453D02*
X256983809Y-76693453D01*
X256983809Y-76693453D02*
X257080571Y-76741834D01*
X257080571Y-76741834D02*
X257128952Y-76790215D01*
X257128952Y-76790215D02*
X257177333Y-76886977D01*
X257177333Y-76886977D02*
X257177333Y-76983739D01*
X257177333Y-76983739D02*
X257128952Y-77128882D01*
X257128952Y-77128882D02*
X256548380Y-77709453D01*
X256548380Y-77709453D02*
X257177333Y-77709453D01*
X216161333Y-52443453D02*
X216161333Y-53169168D01*
X216161333Y-53169168D02*
X216112952Y-53314311D01*
X216112952Y-53314311D02*
X216016190Y-53411073D01*
X216016190Y-53411073D02*
X215871047Y-53459453D01*
X215871047Y-53459453D02*
X215774285Y-53459453D01*
X216790285Y-52878882D02*
X216693523Y-52830501D01*
X216693523Y-52830501D02*
X216645142Y-52782120D01*
X216645142Y-52782120D02*
X216596761Y-52685358D01*
X216596761Y-52685358D02*
X216596761Y-52636977D01*
X216596761Y-52636977D02*
X216645142Y-52540215D01*
X216645142Y-52540215D02*
X216693523Y-52491834D01*
X216693523Y-52491834D02*
X216790285Y-52443453D01*
X216790285Y-52443453D02*
X216983809Y-52443453D01*
X216983809Y-52443453D02*
X217080571Y-52491834D01*
X217080571Y-52491834D02*
X217128952Y-52540215D01*
X217128952Y-52540215D02*
X217177333Y-52636977D01*
X217177333Y-52636977D02*
X217177333Y-52685358D01*
X217177333Y-52685358D02*
X217128952Y-52782120D01*
X217128952Y-52782120D02*
X217080571Y-52830501D01*
X217080571Y-52830501D02*
X216983809Y-52878882D01*
X216983809Y-52878882D02*
X216790285Y-52878882D01*
X216790285Y-52878882D02*
X216693523Y-52927263D01*
X216693523Y-52927263D02*
X216645142Y-52975644D01*
X216645142Y-52975644D02*
X216596761Y-53072406D01*
X216596761Y-53072406D02*
X216596761Y-53265930D01*
X216596761Y-53265930D02*
X216645142Y-53362692D01*
X216645142Y-53362692D02*
X216693523Y-53411073D01*
X216693523Y-53411073D02*
X216790285Y-53459453D01*
X216790285Y-53459453D02*
X216983809Y-53459453D01*
X216983809Y-53459453D02*
X217080571Y-53411073D01*
X217080571Y-53411073D02*
X217128952Y-53362692D01*
X217128952Y-53362692D02*
X217177333Y-53265930D01*
X217177333Y-53265930D02*
X217177333Y-53072406D01*
X217177333Y-53072406D02*
X217128952Y-52975644D01*
X217128952Y-52975644D02*
X217080571Y-52927263D01*
X217080571Y-52927263D02*
X216983809Y-52878882D01*
X136161333Y-52443453D02*
X136161333Y-53169168D01*
X136161333Y-53169168D02*
X136112952Y-53314311D01*
X136112952Y-53314311D02*
X136016190Y-53411073D01*
X136016190Y-53411073D02*
X135871047Y-53459453D01*
X135871047Y-53459453D02*
X135774285Y-53459453D01*
X137080571Y-52443453D02*
X136887047Y-52443453D01*
X136887047Y-52443453D02*
X136790285Y-52491834D01*
X136790285Y-52491834D02*
X136741904Y-52540215D01*
X136741904Y-52540215D02*
X136645142Y-52685358D01*
X136645142Y-52685358D02*
X136596761Y-52878882D01*
X136596761Y-52878882D02*
X136596761Y-53265930D01*
X136596761Y-53265930D02*
X136645142Y-53362692D01*
X136645142Y-53362692D02*
X136693523Y-53411073D01*
X136693523Y-53411073D02*
X136790285Y-53459453D01*
X136790285Y-53459453D02*
X136983809Y-53459453D01*
X136983809Y-53459453D02*
X137080571Y-53411073D01*
X137080571Y-53411073D02*
X137128952Y-53362692D01*
X137128952Y-53362692D02*
X137177333Y-53265930D01*
X137177333Y-53265930D02*
X137177333Y-53024025D01*
X137177333Y-53024025D02*
X137128952Y-52927263D01*
X137128952Y-52927263D02*
X137080571Y-52878882D01*
X137080571Y-52878882D02*
X136983809Y-52830501D01*
X136983809Y-52830501D02*
X136790285Y-52830501D01*
X136790285Y-52830501D02*
X136693523Y-52878882D01*
X136693523Y-52878882D02*
X136645142Y-52927263D01*
X136645142Y-52927263D02*
X136596761Y-53024025D01*
X52661333Y-52443453D02*
X52661333Y-53169168D01*
X52661333Y-53169168D02*
X52612952Y-53314311D01*
X52612952Y-53314311D02*
X52516190Y-53411073D01*
X52516190Y-53411073D02*
X52371047Y-53459453D01*
X52371047Y-53459453D02*
X52274285Y-53459453D01*
X53580571Y-52782120D02*
X53580571Y-53459453D01*
X53338666Y-52395073D02*
X53096761Y-53120787D01*
X53096761Y-53120787D02*
X53725714Y-53120787D01*
D11*
X173000000Y-51800000D02*
X173000000Y-59000000D01*
X173000000Y-51800000D02*
X179800000Y-51800000D01*
X173000000Y-59000000D02*
X173000000Y-129100000D01*
X173000000Y-129100000D02*
X179700000Y-129100000D01*
X187400000Y-51900000D02*
X198500000Y-51900000D01*
X187600000Y-129100000D02*
X198500000Y-129100000D01*
X206300000Y-129100000D02*
X213000000Y-129100000D01*
X213000000Y-51900000D02*
X206200000Y-51900000D01*
X213000000Y-129100000D02*
X213000000Y-51900000D01*
D12*
X177000000Y-58500000D02*
X190000000Y-58500000D01*
X190000000Y-58500000D02*
X190000000Y-122500000D01*
X190000000Y-122500000D02*
X177000000Y-122500000D01*
X177000000Y-122500000D02*
X177000000Y-58500000D01*
G36*
X177000000Y-58500000D02*
G01*
X190000000Y-58500000D01*
X190000000Y-122500000D01*
X177000000Y-122500000D01*
X177000000Y-58500000D01*
G37*
X196000000Y-58500000D02*
X209000000Y-58500000D01*
X209000000Y-58500000D02*
X209000000Y-122500000D01*
X209000000Y-122500000D02*
X196000000Y-122500000D01*
X196000000Y-122500000D02*
X196000000Y-58500000D01*
G36*
X196000000Y-58500000D02*
G01*
X209000000Y-58500000D01*
X209000000Y-122500000D01*
X196000000Y-122500000D01*
X196000000Y-58500000D01*
G37*
D11*
X92000000Y-51800000D02*
X92000000Y-59000000D01*
X92000000Y-51800000D02*
X98800000Y-51800000D01*
X92000000Y-59000000D02*
X92000000Y-129100000D01*
X92000000Y-129100000D02*
X98700000Y-129100000D01*
X106400000Y-51900000D02*
X117500000Y-51900000D01*
X106600000Y-129100000D02*
X117500000Y-129100000D01*
X125300000Y-129100000D02*
X132000000Y-129100000D01*
X132000000Y-51900000D02*
X125200000Y-51900000D01*
X132000000Y-129100000D02*
X132000000Y-51900000D01*
D12*
X96000000Y-58500000D02*
X109000000Y-58500000D01*
X109000000Y-58500000D02*
X109000000Y-122500000D01*
X109000000Y-122500000D02*
X96000000Y-122500000D01*
X96000000Y-122500000D02*
X96000000Y-58500000D01*
G36*
X96000000Y-58500000D02*
G01*
X109000000Y-58500000D01*
X109000000Y-122500000D01*
X96000000Y-122500000D01*
X96000000Y-58500000D01*
G37*
X115000000Y-58500000D02*
X128000000Y-58500000D01*
X128000000Y-58500000D02*
X128000000Y-122500000D01*
X128000000Y-122500000D02*
X115000000Y-122500000D01*
X115000000Y-122500000D02*
X115000000Y-58500000D01*
G36*
X115000000Y-58500000D02*
G01*
X128000000Y-58500000D01*
X128000000Y-122500000D01*
X115000000Y-122500000D01*
X115000000Y-58500000D01*
G37*
X255790000Y-92735000D02*
X255790000Y-91785000D01*
X256240000Y-92735000D02*
X255790000Y-92735000D01*
X259760000Y-92735000D02*
X260210000Y-92735000D01*
X260210000Y-92735000D02*
X260210000Y-88265000D01*
X255790000Y-91785000D02*
X254300000Y-91785000D01*
X255790000Y-88265000D02*
X255790000Y-89215000D01*
X256240000Y-88265000D02*
X255790000Y-88265000D01*
X260210000Y-88265000D02*
X259760000Y-88265000D01*
D11*
X213500000Y-51800000D02*
X213500000Y-59000000D01*
X213500000Y-51800000D02*
X220300000Y-51800000D01*
X213500000Y-59000000D02*
X213500000Y-129100000D01*
X213500000Y-129100000D02*
X220200000Y-129100000D01*
X227900000Y-51900000D02*
X239000000Y-51900000D01*
X228100000Y-129100000D02*
X239000000Y-129100000D01*
X246800000Y-129100000D02*
X253500000Y-129100000D01*
X253500000Y-51900000D02*
X246700000Y-51900000D01*
X253500000Y-129100000D02*
X253500000Y-51900000D01*
D12*
X217500000Y-58500000D02*
X230500000Y-58500000D01*
X230500000Y-58500000D02*
X230500000Y-122500000D01*
X230500000Y-122500000D02*
X217500000Y-122500000D01*
X217500000Y-122500000D02*
X217500000Y-58500000D01*
G36*
X217500000Y-58500000D02*
G01*
X230500000Y-58500000D01*
X230500000Y-122500000D01*
X217500000Y-122500000D01*
X217500000Y-58500000D01*
G37*
X236500000Y-58500000D02*
X249500000Y-58500000D01*
X249500000Y-58500000D02*
X249500000Y-122500000D01*
X249500000Y-122500000D02*
X236500000Y-122500000D01*
X236500000Y-122500000D02*
X236500000Y-58500000D01*
G36*
X236500000Y-58500000D02*
G01*
X249500000Y-58500000D01*
X249500000Y-122500000D01*
X236500000Y-122500000D01*
X236500000Y-58500000D01*
G37*
D11*
X132500000Y-51800000D02*
X132500000Y-59000000D01*
X132500000Y-51800000D02*
X139300000Y-51800000D01*
X132500000Y-59000000D02*
X132500000Y-129100000D01*
X132500000Y-129100000D02*
X139200000Y-129100000D01*
X146900000Y-51900000D02*
X158000000Y-51900000D01*
X147100000Y-129100000D02*
X158000000Y-129100000D01*
X165800000Y-129100000D02*
X172500000Y-129100000D01*
X172500000Y-51900000D02*
X165700000Y-51900000D01*
X172500000Y-129100000D02*
X172500000Y-51900000D01*
D12*
X136500000Y-58500000D02*
X149500000Y-58500000D01*
X149500000Y-58500000D02*
X149500000Y-122500000D01*
X149500000Y-122500000D02*
X136500000Y-122500000D01*
X136500000Y-122500000D02*
X136500000Y-58500000D01*
G36*
X136500000Y-58500000D02*
G01*
X149500000Y-58500000D01*
X149500000Y-122500000D01*
X136500000Y-122500000D01*
X136500000Y-58500000D01*
G37*
X155500000Y-58500000D02*
X168500000Y-58500000D01*
X168500000Y-58500000D02*
X168500000Y-122500000D01*
X168500000Y-122500000D02*
X155500000Y-122500000D01*
X155500000Y-122500000D02*
X155500000Y-58500000D01*
G36*
X155500000Y-58500000D02*
G01*
X168500000Y-58500000D01*
X168500000Y-122500000D01*
X155500000Y-122500000D01*
X155500000Y-58500000D01*
G37*
D11*
X51500000Y-51800000D02*
X51500000Y-59000000D01*
X51500000Y-51800000D02*
X58300000Y-51800000D01*
X51500000Y-59000000D02*
X51500000Y-129100000D01*
X51500000Y-129100000D02*
X58200000Y-129100000D01*
X65900000Y-51900000D02*
X77000000Y-51900000D01*
X66100000Y-129100000D02*
X77000000Y-129100000D01*
X84800000Y-129100000D02*
X91500000Y-129100000D01*
X91500000Y-51900000D02*
X84700000Y-51900000D01*
X91500000Y-129100000D02*
X91500000Y-51900000D01*
D12*
X55500000Y-58500000D02*
X68500000Y-58500000D01*
X68500000Y-58500000D02*
X68500000Y-122500000D01*
X68500000Y-122500000D02*
X55500000Y-122500000D01*
X55500000Y-122500000D02*
X55500000Y-58500000D01*
G36*
X55500000Y-58500000D02*
G01*
X68500000Y-58500000D01*
X68500000Y-122500000D01*
X55500000Y-122500000D01*
X55500000Y-58500000D01*
G37*
X74500000Y-58500000D02*
X87500000Y-58500000D01*
X87500000Y-58500000D02*
X87500000Y-122500000D01*
X87500000Y-122500000D02*
X74500000Y-122500000D01*
X74500000Y-122500000D02*
X74500000Y-58500000D01*
G36*
X74500000Y-58500000D02*
G01*
X87500000Y-58500000D01*
X87500000Y-122500000D01*
X74500000Y-122500000D01*
X74500000Y-58500000D01*
G37*
%LPC*%
D13*
X258600000Y-126500000D03*
X259302944Y-124802944D03*
X259302944Y-128197056D03*
X261000000Y-124100000D03*
D14*
X261000000Y-126500000D03*
D13*
X261000000Y-128900000D03*
X262697056Y-124802944D03*
X262697056Y-128197056D03*
X263400000Y-126500000D03*
X258600000Y-54500000D03*
X259302944Y-52802944D03*
X259302944Y-56197056D03*
X261000000Y-52100000D03*
D14*
X261000000Y-54500000D03*
D13*
X261000000Y-56900000D03*
X262697056Y-52802944D03*
X262697056Y-56197056D03*
X263400000Y-54500000D03*
D15*
X193000000Y-62900000D03*
X193000000Y-118100000D03*
D16*
X183620000Y-54000000D03*
X202380000Y-54000000D03*
X183620000Y-127000000D03*
X202380000Y-127000000D03*
D17*
X45500000Y-70500000D03*
D18*
X45500000Y-70500000D03*
D13*
X41600000Y-54500000D03*
X42302944Y-52802944D03*
X42302944Y-56197056D03*
X44000000Y-52100000D03*
D14*
X44000000Y-54500000D03*
D13*
X44000000Y-56900000D03*
X45697056Y-52802944D03*
X45697056Y-56197056D03*
X46400000Y-54500000D03*
D17*
X45500000Y-110500000D03*
D18*
X45500000Y-110500000D03*
D17*
X259500000Y-110500000D03*
D18*
X259500000Y-110500000D03*
D15*
X112000000Y-62900000D03*
X112000000Y-118100000D03*
D16*
X102620000Y-54000000D03*
X121380000Y-54000000D03*
X102620000Y-127000000D03*
X121380000Y-127000000D03*
D19*
X255100000Y-91125000D03*
X255100000Y-89875000D03*
D20*
X258000000Y-93675000D03*
X258000000Y-87325000D03*
D17*
X259500000Y-70500000D03*
D18*
X259500000Y-70500000D03*
D13*
X41600000Y-126500000D03*
X42302944Y-124802944D03*
X42302944Y-128197056D03*
X44000000Y-124100000D03*
D14*
X44000000Y-126500000D03*
D13*
X44000000Y-128900000D03*
X45697056Y-124802944D03*
X45697056Y-128197056D03*
X46400000Y-126500000D03*
D15*
X233500000Y-62900000D03*
X233500000Y-118100000D03*
D16*
X224120000Y-54000000D03*
X242880000Y-54000000D03*
X224120000Y-127000000D03*
X242880000Y-127000000D03*
D15*
X152500000Y-62900000D03*
X152500000Y-118100000D03*
D16*
X143120000Y-54000000D03*
X161880000Y-54000000D03*
X143120000Y-127000000D03*
X161880000Y-127000000D03*
D15*
X71500000Y-62900000D03*
X71500000Y-118100000D03*
D16*
X62120000Y-54000000D03*
X80880000Y-54000000D03*
X62120000Y-127000000D03*
X80880000Y-127000000D03*
%LPD*%
M02*
