%TF.GenerationSoftware,KiCad,Pcbnew,7.0.8*%
%TF.CreationDate,2023-11-12T21:22:33-08:00*%
%TF.ProjectId,10p-battery-holder,3130702d-6261-4747-9465-72792d686f6c,V1*%
%TF.SameCoordinates,Original*%
%TF.FileFunction,Drillmap*%
%TF.FilePolarity,Positive*%
%FSLAX45Y45*%
G04 Gerber Fmt 4.5, Leading zero omitted, Abs format (unit mm)*
G04 Created by KiCad (PCBNEW 7.0.8) date 2023-11-12 21:22:33*
%MOMM*%
%LPD*%
G01*
G04 APERTURE LIST*
%ADD10C,0.100000*%
%ADD11C,0.200000*%
%ADD12C,0.310000*%
%ADD13C,0.520000*%
G04 APERTURE END LIST*
D10*
X26100000Y-13050000D02*
X4400000Y-13050000D01*
X26500000Y-5450000D02*
X26500000Y-12650000D01*
X26100000Y-13050000D02*
G75*
G03*
X26500000Y-12650000I0J400000D01*
G01*
X4000000Y-12650000D02*
G75*
G03*
X4400000Y-13050000I400000J0D01*
G01*
X4400000Y-5050000D02*
G75*
G03*
X4000000Y-5450000I0J-400000D01*
G01*
X4400000Y-5050000D02*
X26100000Y-5050000D01*
X4000000Y-12650000D02*
X4000000Y-5450000D01*
X26500000Y-5450000D02*
G75*
G03*
X26100000Y-5050000I-400000J0D01*
G01*
D11*
D12*
X6995000Y-6135000D02*
X7305000Y-6445000D01*
X7305000Y-6135000D02*
X6995000Y-6445000D01*
X6995000Y-11655000D02*
X7305000Y-11965000D01*
X7305000Y-11655000D02*
X6995000Y-11965000D01*
X11045000Y-6135000D02*
X11355000Y-6445000D01*
X11355000Y-6135000D02*
X11045000Y-6445000D01*
X11045000Y-11655000D02*
X11355000Y-11965000D01*
X11355000Y-11655000D02*
X11045000Y-11965000D01*
X15095000Y-6135000D02*
X15405000Y-6445000D01*
X15405000Y-6135000D02*
X15095000Y-6445000D01*
X15095000Y-11655000D02*
X15405000Y-11965000D01*
X15405000Y-11655000D02*
X15095000Y-11965000D01*
X19145000Y-6135000D02*
X19455000Y-6445000D01*
X19455000Y-6135000D02*
X19145000Y-6445000D01*
X19145000Y-11655000D02*
X19455000Y-11965000D01*
X19455000Y-11655000D02*
X19145000Y-11965000D01*
X23195000Y-6135000D02*
X23505000Y-6445000D01*
X23505000Y-6135000D02*
X23195000Y-6445000D01*
X23195000Y-11655000D02*
X23505000Y-11965000D01*
X23505000Y-11655000D02*
X23195000Y-11965000D01*
D13*
X4810000Y-7050000D02*
G75*
G03*
X4810000Y-7050000I-260000J0D01*
G01*
X4810000Y-11050000D02*
G75*
G03*
X4810000Y-11050000I-260000J0D01*
G01*
X26210000Y-7050000D02*
G75*
G03*
X26210000Y-7050000I-260000J0D01*
G01*
X26210000Y-11050000D02*
G75*
G03*
X26210000Y-11050000I-260000J0D01*
G01*
D11*
X4255777Y-13366484D02*
X4255777Y-13166484D01*
X4255777Y-13166484D02*
X4303396Y-13166484D01*
X4303396Y-13166484D02*
X4331967Y-13176008D01*
X4331967Y-13176008D02*
X4351015Y-13195055D01*
X4351015Y-13195055D02*
X4360539Y-13214103D01*
X4360539Y-13214103D02*
X4370063Y-13252198D01*
X4370063Y-13252198D02*
X4370063Y-13280769D01*
X4370063Y-13280769D02*
X4360539Y-13318865D01*
X4360539Y-13318865D02*
X4351015Y-13337912D01*
X4351015Y-13337912D02*
X4331967Y-13356960D01*
X4331967Y-13356960D02*
X4303396Y-13366484D01*
X4303396Y-13366484D02*
X4255777Y-13366484D01*
X4455777Y-13366484D02*
X4455777Y-13233150D01*
X4455777Y-13271246D02*
X4465301Y-13252198D01*
X4465301Y-13252198D02*
X4474824Y-13242674D01*
X4474824Y-13242674D02*
X4493872Y-13233150D01*
X4493872Y-13233150D02*
X4512920Y-13233150D01*
X4579586Y-13366484D02*
X4579586Y-13233150D01*
X4579586Y-13166484D02*
X4570063Y-13176008D01*
X4570063Y-13176008D02*
X4579586Y-13185531D01*
X4579586Y-13185531D02*
X4589110Y-13176008D01*
X4589110Y-13176008D02*
X4579586Y-13166484D01*
X4579586Y-13166484D02*
X4579586Y-13185531D01*
X4703396Y-13366484D02*
X4684348Y-13356960D01*
X4684348Y-13356960D02*
X4674824Y-13337912D01*
X4674824Y-13337912D02*
X4674824Y-13166484D01*
X4808158Y-13366484D02*
X4789110Y-13356960D01*
X4789110Y-13356960D02*
X4779586Y-13337912D01*
X4779586Y-13337912D02*
X4779586Y-13166484D01*
X5036729Y-13366484D02*
X5036729Y-13166484D01*
X5036729Y-13166484D02*
X5103396Y-13309341D01*
X5103396Y-13309341D02*
X5170063Y-13166484D01*
X5170063Y-13166484D02*
X5170063Y-13366484D01*
X5351015Y-13366484D02*
X5351015Y-13261722D01*
X5351015Y-13261722D02*
X5341491Y-13242674D01*
X5341491Y-13242674D02*
X5322444Y-13233150D01*
X5322444Y-13233150D02*
X5284348Y-13233150D01*
X5284348Y-13233150D02*
X5265301Y-13242674D01*
X5351015Y-13356960D02*
X5331967Y-13366484D01*
X5331967Y-13366484D02*
X5284348Y-13366484D01*
X5284348Y-13366484D02*
X5265301Y-13356960D01*
X5265301Y-13356960D02*
X5255777Y-13337912D01*
X5255777Y-13337912D02*
X5255777Y-13318865D01*
X5255777Y-13318865D02*
X5265301Y-13299817D01*
X5265301Y-13299817D02*
X5284348Y-13290293D01*
X5284348Y-13290293D02*
X5331967Y-13290293D01*
X5331967Y-13290293D02*
X5351015Y-13280769D01*
X5446253Y-13233150D02*
X5446253Y-13433150D01*
X5446253Y-13242674D02*
X5465301Y-13233150D01*
X5465301Y-13233150D02*
X5503396Y-13233150D01*
X5503396Y-13233150D02*
X5522444Y-13242674D01*
X5522444Y-13242674D02*
X5531967Y-13252198D01*
X5531967Y-13252198D02*
X5541491Y-13271246D01*
X5541491Y-13271246D02*
X5541491Y-13328388D01*
X5541491Y-13328388D02*
X5531967Y-13347436D01*
X5531967Y-13347436D02*
X5522444Y-13356960D01*
X5522444Y-13356960D02*
X5503396Y-13366484D01*
X5503396Y-13366484D02*
X5465301Y-13366484D01*
X5465301Y-13366484D02*
X5446253Y-13356960D01*
X5627205Y-13347436D02*
X5636729Y-13356960D01*
X5636729Y-13356960D02*
X5627205Y-13366484D01*
X5627205Y-13366484D02*
X5617682Y-13356960D01*
X5617682Y-13356960D02*
X5627205Y-13347436D01*
X5627205Y-13347436D02*
X5627205Y-13366484D01*
X5627205Y-13242674D02*
X5636729Y-13252198D01*
X5636729Y-13252198D02*
X5627205Y-13261722D01*
X5627205Y-13261722D02*
X5617682Y-13252198D01*
X5617682Y-13252198D02*
X5627205Y-13242674D01*
X5627205Y-13242674D02*
X5627205Y-13261722D01*
X3795000Y-13595000D02*
X3995000Y-13795000D01*
X3995000Y-13595000D02*
X3795000Y-13795000D01*
X4236729Y-13586484D02*
X4360539Y-13586484D01*
X4360539Y-13586484D02*
X4293872Y-13662674D01*
X4293872Y-13662674D02*
X4322444Y-13662674D01*
X4322444Y-13662674D02*
X4341491Y-13672198D01*
X4341491Y-13672198D02*
X4351015Y-13681722D01*
X4351015Y-13681722D02*
X4360539Y-13700769D01*
X4360539Y-13700769D02*
X4360539Y-13748388D01*
X4360539Y-13748388D02*
X4351015Y-13767436D01*
X4351015Y-13767436D02*
X4341491Y-13776960D01*
X4341491Y-13776960D02*
X4322444Y-13786484D01*
X4322444Y-13786484D02*
X4265301Y-13786484D01*
X4265301Y-13786484D02*
X4246253Y-13776960D01*
X4246253Y-13776960D02*
X4236729Y-13767436D01*
X4446253Y-13767436D02*
X4455777Y-13776960D01*
X4455777Y-13776960D02*
X4446253Y-13786484D01*
X4446253Y-13786484D02*
X4436729Y-13776960D01*
X4436729Y-13776960D02*
X4446253Y-13767436D01*
X4446253Y-13767436D02*
X4446253Y-13786484D01*
X4646253Y-13786484D02*
X4531967Y-13786484D01*
X4589110Y-13786484D02*
X4589110Y-13586484D01*
X4589110Y-13586484D02*
X4570063Y-13615055D01*
X4570063Y-13615055D02*
X4551015Y-13634103D01*
X4551015Y-13634103D02*
X4531967Y-13643627D01*
X4770063Y-13586484D02*
X4789110Y-13586484D01*
X4789110Y-13586484D02*
X4808158Y-13596008D01*
X4808158Y-13596008D02*
X4817682Y-13605531D01*
X4817682Y-13605531D02*
X4827205Y-13624579D01*
X4827205Y-13624579D02*
X4836729Y-13662674D01*
X4836729Y-13662674D02*
X4836729Y-13710293D01*
X4836729Y-13710293D02*
X4827205Y-13748388D01*
X4827205Y-13748388D02*
X4817682Y-13767436D01*
X4817682Y-13767436D02*
X4808158Y-13776960D01*
X4808158Y-13776960D02*
X4789110Y-13786484D01*
X4789110Y-13786484D02*
X4770063Y-13786484D01*
X4770063Y-13786484D02*
X4751015Y-13776960D01*
X4751015Y-13776960D02*
X4741491Y-13767436D01*
X4741491Y-13767436D02*
X4731967Y-13748388D01*
X4731967Y-13748388D02*
X4722444Y-13710293D01*
X4722444Y-13710293D02*
X4722444Y-13662674D01*
X4722444Y-13662674D02*
X4731967Y-13624579D01*
X4731967Y-13624579D02*
X4741491Y-13605531D01*
X4741491Y-13605531D02*
X4751015Y-13596008D01*
X4751015Y-13596008D02*
X4770063Y-13586484D01*
X4960539Y-13586484D02*
X4979586Y-13586484D01*
X4979586Y-13586484D02*
X4998634Y-13596008D01*
X4998634Y-13596008D02*
X5008158Y-13605531D01*
X5008158Y-13605531D02*
X5017682Y-13624579D01*
X5017682Y-13624579D02*
X5027205Y-13662674D01*
X5027205Y-13662674D02*
X5027205Y-13710293D01*
X5027205Y-13710293D02*
X5017682Y-13748388D01*
X5017682Y-13748388D02*
X5008158Y-13767436D01*
X5008158Y-13767436D02*
X4998634Y-13776960D01*
X4998634Y-13776960D02*
X4979586Y-13786484D01*
X4979586Y-13786484D02*
X4960539Y-13786484D01*
X4960539Y-13786484D02*
X4941491Y-13776960D01*
X4941491Y-13776960D02*
X4931967Y-13767436D01*
X4931967Y-13767436D02*
X4922444Y-13748388D01*
X4922444Y-13748388D02*
X4912920Y-13710293D01*
X4912920Y-13710293D02*
X4912920Y-13662674D01*
X4912920Y-13662674D02*
X4922444Y-13624579D01*
X4922444Y-13624579D02*
X4931967Y-13605531D01*
X4931967Y-13605531D02*
X4941491Y-13596008D01*
X4941491Y-13596008D02*
X4960539Y-13586484D01*
X5112920Y-13786484D02*
X5112920Y-13653150D01*
X5112920Y-13672198D02*
X5122444Y-13662674D01*
X5122444Y-13662674D02*
X5141491Y-13653150D01*
X5141491Y-13653150D02*
X5170063Y-13653150D01*
X5170063Y-13653150D02*
X5189110Y-13662674D01*
X5189110Y-13662674D02*
X5198634Y-13681722D01*
X5198634Y-13681722D02*
X5198634Y-13786484D01*
X5198634Y-13681722D02*
X5208158Y-13662674D01*
X5208158Y-13662674D02*
X5227205Y-13653150D01*
X5227205Y-13653150D02*
X5255777Y-13653150D01*
X5255777Y-13653150D02*
X5274825Y-13662674D01*
X5274825Y-13662674D02*
X5284348Y-13681722D01*
X5284348Y-13681722D02*
X5284348Y-13786484D01*
X5379586Y-13786484D02*
X5379586Y-13653150D01*
X5379586Y-13672198D02*
X5389110Y-13662674D01*
X5389110Y-13662674D02*
X5408158Y-13653150D01*
X5408158Y-13653150D02*
X5436729Y-13653150D01*
X5436729Y-13653150D02*
X5455777Y-13662674D01*
X5455777Y-13662674D02*
X5465301Y-13681722D01*
X5465301Y-13681722D02*
X5465301Y-13786484D01*
X5465301Y-13681722D02*
X5474825Y-13662674D01*
X5474825Y-13662674D02*
X5493872Y-13653150D01*
X5493872Y-13653150D02*
X5522444Y-13653150D01*
X5522444Y-13653150D02*
X5541491Y-13662674D01*
X5541491Y-13662674D02*
X5551015Y-13681722D01*
X5551015Y-13681722D02*
X5551015Y-13786484D01*
X5941491Y-13576960D02*
X5770063Y-13834103D01*
X6198634Y-13586484D02*
X6217682Y-13586484D01*
X6217682Y-13586484D02*
X6236729Y-13596008D01*
X6236729Y-13596008D02*
X6246253Y-13605531D01*
X6246253Y-13605531D02*
X6255777Y-13624579D01*
X6255777Y-13624579D02*
X6265301Y-13662674D01*
X6265301Y-13662674D02*
X6265301Y-13710293D01*
X6265301Y-13710293D02*
X6255777Y-13748388D01*
X6255777Y-13748388D02*
X6246253Y-13767436D01*
X6246253Y-13767436D02*
X6236729Y-13776960D01*
X6236729Y-13776960D02*
X6217682Y-13786484D01*
X6217682Y-13786484D02*
X6198634Y-13786484D01*
X6198634Y-13786484D02*
X6179586Y-13776960D01*
X6179586Y-13776960D02*
X6170063Y-13767436D01*
X6170063Y-13767436D02*
X6160539Y-13748388D01*
X6160539Y-13748388D02*
X6151015Y-13710293D01*
X6151015Y-13710293D02*
X6151015Y-13662674D01*
X6151015Y-13662674D02*
X6160539Y-13624579D01*
X6160539Y-13624579D02*
X6170063Y-13605531D01*
X6170063Y-13605531D02*
X6179586Y-13596008D01*
X6179586Y-13596008D02*
X6198634Y-13586484D01*
X6351015Y-13767436D02*
X6360539Y-13776960D01*
X6360539Y-13776960D02*
X6351015Y-13786484D01*
X6351015Y-13786484D02*
X6341491Y-13776960D01*
X6341491Y-13776960D02*
X6351015Y-13767436D01*
X6351015Y-13767436D02*
X6351015Y-13786484D01*
X6551015Y-13786484D02*
X6436729Y-13786484D01*
X6493872Y-13786484D02*
X6493872Y-13586484D01*
X6493872Y-13586484D02*
X6474825Y-13615055D01*
X6474825Y-13615055D02*
X6455777Y-13634103D01*
X6455777Y-13634103D02*
X6436729Y-13643627D01*
X6627206Y-13605531D02*
X6636729Y-13596008D01*
X6636729Y-13596008D02*
X6655777Y-13586484D01*
X6655777Y-13586484D02*
X6703396Y-13586484D01*
X6703396Y-13586484D02*
X6722444Y-13596008D01*
X6722444Y-13596008D02*
X6731967Y-13605531D01*
X6731967Y-13605531D02*
X6741491Y-13624579D01*
X6741491Y-13624579D02*
X6741491Y-13643627D01*
X6741491Y-13643627D02*
X6731967Y-13672198D01*
X6731967Y-13672198D02*
X6617682Y-13786484D01*
X6617682Y-13786484D02*
X6741491Y-13786484D01*
X6817682Y-13605531D02*
X6827206Y-13596008D01*
X6827206Y-13596008D02*
X6846253Y-13586484D01*
X6846253Y-13586484D02*
X6893872Y-13586484D01*
X6893872Y-13586484D02*
X6912920Y-13596008D01*
X6912920Y-13596008D02*
X6922444Y-13605531D01*
X6922444Y-13605531D02*
X6931967Y-13624579D01*
X6931967Y-13624579D02*
X6931967Y-13643627D01*
X6931967Y-13643627D02*
X6922444Y-13672198D01*
X6922444Y-13672198D02*
X6808158Y-13786484D01*
X6808158Y-13786484D02*
X6931967Y-13786484D01*
X7055777Y-13586484D02*
X7074825Y-13586484D01*
X7074825Y-13586484D02*
X7093872Y-13596008D01*
X7093872Y-13596008D02*
X7103396Y-13605531D01*
X7103396Y-13605531D02*
X7112920Y-13624579D01*
X7112920Y-13624579D02*
X7122444Y-13662674D01*
X7122444Y-13662674D02*
X7122444Y-13710293D01*
X7122444Y-13710293D02*
X7112920Y-13748388D01*
X7112920Y-13748388D02*
X7103396Y-13767436D01*
X7103396Y-13767436D02*
X7093872Y-13776960D01*
X7093872Y-13776960D02*
X7074825Y-13786484D01*
X7074825Y-13786484D02*
X7055777Y-13786484D01*
X7055777Y-13786484D02*
X7036729Y-13776960D01*
X7036729Y-13776960D02*
X7027206Y-13767436D01*
X7027206Y-13767436D02*
X7017682Y-13748388D01*
X7017682Y-13748388D02*
X7008158Y-13710293D01*
X7008158Y-13710293D02*
X7008158Y-13662674D01*
X7008158Y-13662674D02*
X7017682Y-13624579D01*
X7017682Y-13624579D02*
X7027206Y-13605531D01*
X7027206Y-13605531D02*
X7036729Y-13596008D01*
X7036729Y-13596008D02*
X7055777Y-13586484D01*
X7198634Y-13586484D02*
X7198634Y-13624579D01*
X7274825Y-13586484D02*
X7274825Y-13624579D01*
X7570063Y-13862674D02*
X7560539Y-13853150D01*
X7560539Y-13853150D02*
X7541491Y-13824579D01*
X7541491Y-13824579D02*
X7531968Y-13805531D01*
X7531968Y-13805531D02*
X7522444Y-13776960D01*
X7522444Y-13776960D02*
X7512920Y-13729341D01*
X7512920Y-13729341D02*
X7512920Y-13691246D01*
X7512920Y-13691246D02*
X7522444Y-13643627D01*
X7522444Y-13643627D02*
X7531968Y-13615055D01*
X7531968Y-13615055D02*
X7541491Y-13596008D01*
X7541491Y-13596008D02*
X7560539Y-13567436D01*
X7560539Y-13567436D02*
X7570063Y-13557912D01*
X7751015Y-13786484D02*
X7636729Y-13786484D01*
X7693872Y-13786484D02*
X7693872Y-13586484D01*
X7693872Y-13586484D02*
X7674825Y-13615055D01*
X7674825Y-13615055D02*
X7655777Y-13634103D01*
X7655777Y-13634103D02*
X7636729Y-13643627D01*
X7874825Y-13586484D02*
X7893872Y-13586484D01*
X7893872Y-13586484D02*
X7912920Y-13596008D01*
X7912920Y-13596008D02*
X7922444Y-13605531D01*
X7922444Y-13605531D02*
X7931968Y-13624579D01*
X7931968Y-13624579D02*
X7941491Y-13662674D01*
X7941491Y-13662674D02*
X7941491Y-13710293D01*
X7941491Y-13710293D02*
X7931968Y-13748388D01*
X7931968Y-13748388D02*
X7922444Y-13767436D01*
X7922444Y-13767436D02*
X7912920Y-13776960D01*
X7912920Y-13776960D02*
X7893872Y-13786484D01*
X7893872Y-13786484D02*
X7874825Y-13786484D01*
X7874825Y-13786484D02*
X7855777Y-13776960D01*
X7855777Y-13776960D02*
X7846253Y-13767436D01*
X7846253Y-13767436D02*
X7836729Y-13748388D01*
X7836729Y-13748388D02*
X7827206Y-13710293D01*
X7827206Y-13710293D02*
X7827206Y-13662674D01*
X7827206Y-13662674D02*
X7836729Y-13624579D01*
X7836729Y-13624579D02*
X7846253Y-13605531D01*
X7846253Y-13605531D02*
X7855777Y-13596008D01*
X7855777Y-13596008D02*
X7874825Y-13586484D01*
X8179587Y-13786484D02*
X8179587Y-13586484D01*
X8265301Y-13786484D02*
X8265301Y-13681722D01*
X8265301Y-13681722D02*
X8255777Y-13662674D01*
X8255777Y-13662674D02*
X8236730Y-13653150D01*
X8236730Y-13653150D02*
X8208158Y-13653150D01*
X8208158Y-13653150D02*
X8189110Y-13662674D01*
X8189110Y-13662674D02*
X8179587Y-13672198D01*
X8389111Y-13786484D02*
X8370063Y-13776960D01*
X8370063Y-13776960D02*
X8360539Y-13767436D01*
X8360539Y-13767436D02*
X8351015Y-13748388D01*
X8351015Y-13748388D02*
X8351015Y-13691246D01*
X8351015Y-13691246D02*
X8360539Y-13672198D01*
X8360539Y-13672198D02*
X8370063Y-13662674D01*
X8370063Y-13662674D02*
X8389111Y-13653150D01*
X8389111Y-13653150D02*
X8417682Y-13653150D01*
X8417682Y-13653150D02*
X8436730Y-13662674D01*
X8436730Y-13662674D02*
X8446253Y-13672198D01*
X8446253Y-13672198D02*
X8455777Y-13691246D01*
X8455777Y-13691246D02*
X8455777Y-13748388D01*
X8455777Y-13748388D02*
X8446253Y-13767436D01*
X8446253Y-13767436D02*
X8436730Y-13776960D01*
X8436730Y-13776960D02*
X8417682Y-13786484D01*
X8417682Y-13786484D02*
X8389111Y-13786484D01*
X8570063Y-13786484D02*
X8551015Y-13776960D01*
X8551015Y-13776960D02*
X8541492Y-13757912D01*
X8541492Y-13757912D02*
X8541492Y-13586484D01*
X8722444Y-13776960D02*
X8703396Y-13786484D01*
X8703396Y-13786484D02*
X8665301Y-13786484D01*
X8665301Y-13786484D02*
X8646253Y-13776960D01*
X8646253Y-13776960D02*
X8636730Y-13757912D01*
X8636730Y-13757912D02*
X8636730Y-13681722D01*
X8636730Y-13681722D02*
X8646253Y-13662674D01*
X8646253Y-13662674D02*
X8665301Y-13653150D01*
X8665301Y-13653150D02*
X8703396Y-13653150D01*
X8703396Y-13653150D02*
X8722444Y-13662674D01*
X8722444Y-13662674D02*
X8731968Y-13681722D01*
X8731968Y-13681722D02*
X8731968Y-13700769D01*
X8731968Y-13700769D02*
X8636730Y-13719817D01*
X8808158Y-13776960D02*
X8827206Y-13786484D01*
X8827206Y-13786484D02*
X8865301Y-13786484D01*
X8865301Y-13786484D02*
X8884349Y-13776960D01*
X8884349Y-13776960D02*
X8893873Y-13757912D01*
X8893873Y-13757912D02*
X8893873Y-13748388D01*
X8893873Y-13748388D02*
X8884349Y-13729341D01*
X8884349Y-13729341D02*
X8865301Y-13719817D01*
X8865301Y-13719817D02*
X8836730Y-13719817D01*
X8836730Y-13719817D02*
X8817682Y-13710293D01*
X8817682Y-13710293D02*
X8808158Y-13691246D01*
X8808158Y-13691246D02*
X8808158Y-13681722D01*
X8808158Y-13681722D02*
X8817682Y-13662674D01*
X8817682Y-13662674D02*
X8836730Y-13653150D01*
X8836730Y-13653150D02*
X8865301Y-13653150D01*
X8865301Y-13653150D02*
X8884349Y-13662674D01*
X8960539Y-13862674D02*
X8970063Y-13853150D01*
X8970063Y-13853150D02*
X8989111Y-13824579D01*
X8989111Y-13824579D02*
X8998634Y-13805531D01*
X8998634Y-13805531D02*
X9008158Y-13776960D01*
X9008158Y-13776960D02*
X9017682Y-13729341D01*
X9017682Y-13729341D02*
X9017682Y-13691246D01*
X9017682Y-13691246D02*
X9008158Y-13643627D01*
X9008158Y-13643627D02*
X8998634Y-13615055D01*
X8998634Y-13615055D02*
X8989111Y-13596008D01*
X8989111Y-13596008D02*
X8970063Y-13567436D01*
X8970063Y-13567436D02*
X8960539Y-13557912D01*
X9322444Y-13862674D02*
X9312920Y-13853150D01*
X9312920Y-13853150D02*
X9293873Y-13824579D01*
X9293873Y-13824579D02*
X9284349Y-13805531D01*
X9284349Y-13805531D02*
X9274825Y-13776960D01*
X9274825Y-13776960D02*
X9265301Y-13729341D01*
X9265301Y-13729341D02*
X9265301Y-13691246D01*
X9265301Y-13691246D02*
X9274825Y-13643627D01*
X9274825Y-13643627D02*
X9284349Y-13615055D01*
X9284349Y-13615055D02*
X9293873Y-13596008D01*
X9293873Y-13596008D02*
X9312920Y-13567436D01*
X9312920Y-13567436D02*
X9322444Y-13557912D01*
X9398634Y-13653150D02*
X9398634Y-13786484D01*
X9398634Y-13672198D02*
X9408158Y-13662674D01*
X9408158Y-13662674D02*
X9427206Y-13653150D01*
X9427206Y-13653150D02*
X9455777Y-13653150D01*
X9455777Y-13653150D02*
X9474825Y-13662674D01*
X9474825Y-13662674D02*
X9484349Y-13681722D01*
X9484349Y-13681722D02*
X9484349Y-13786484D01*
X9608158Y-13786484D02*
X9589111Y-13776960D01*
X9589111Y-13776960D02*
X9579587Y-13767436D01*
X9579587Y-13767436D02*
X9570063Y-13748388D01*
X9570063Y-13748388D02*
X9570063Y-13691246D01*
X9570063Y-13691246D02*
X9579587Y-13672198D01*
X9579587Y-13672198D02*
X9589111Y-13662674D01*
X9589111Y-13662674D02*
X9608158Y-13653150D01*
X9608158Y-13653150D02*
X9636730Y-13653150D01*
X9636730Y-13653150D02*
X9655777Y-13662674D01*
X9655777Y-13662674D02*
X9665301Y-13672198D01*
X9665301Y-13672198D02*
X9674825Y-13691246D01*
X9674825Y-13691246D02*
X9674825Y-13748388D01*
X9674825Y-13748388D02*
X9665301Y-13767436D01*
X9665301Y-13767436D02*
X9655777Y-13776960D01*
X9655777Y-13776960D02*
X9636730Y-13786484D01*
X9636730Y-13786484D02*
X9608158Y-13786484D01*
X9731968Y-13653150D02*
X9808158Y-13653150D01*
X9760539Y-13586484D02*
X9760539Y-13757912D01*
X9760539Y-13757912D02*
X9770063Y-13776960D01*
X9770063Y-13776960D02*
X9789111Y-13786484D01*
X9789111Y-13786484D02*
X9808158Y-13786484D01*
X10027206Y-13653150D02*
X10027206Y-13853150D01*
X10027206Y-13662674D02*
X10046254Y-13653150D01*
X10046254Y-13653150D02*
X10084349Y-13653150D01*
X10084349Y-13653150D02*
X10103396Y-13662674D01*
X10103396Y-13662674D02*
X10112920Y-13672198D01*
X10112920Y-13672198D02*
X10122444Y-13691246D01*
X10122444Y-13691246D02*
X10122444Y-13748388D01*
X10122444Y-13748388D02*
X10112920Y-13767436D01*
X10112920Y-13767436D02*
X10103396Y-13776960D01*
X10103396Y-13776960D02*
X10084349Y-13786484D01*
X10084349Y-13786484D02*
X10046254Y-13786484D01*
X10046254Y-13786484D02*
X10027206Y-13776960D01*
X10236730Y-13786484D02*
X10217682Y-13776960D01*
X10217682Y-13776960D02*
X10208158Y-13757912D01*
X10208158Y-13757912D02*
X10208158Y-13586484D01*
X10398635Y-13786484D02*
X10398635Y-13681722D01*
X10398635Y-13681722D02*
X10389111Y-13662674D01*
X10389111Y-13662674D02*
X10370063Y-13653150D01*
X10370063Y-13653150D02*
X10331968Y-13653150D01*
X10331968Y-13653150D02*
X10312920Y-13662674D01*
X10398635Y-13776960D02*
X10379587Y-13786484D01*
X10379587Y-13786484D02*
X10331968Y-13786484D01*
X10331968Y-13786484D02*
X10312920Y-13776960D01*
X10312920Y-13776960D02*
X10303396Y-13757912D01*
X10303396Y-13757912D02*
X10303396Y-13738865D01*
X10303396Y-13738865D02*
X10312920Y-13719817D01*
X10312920Y-13719817D02*
X10331968Y-13710293D01*
X10331968Y-13710293D02*
X10379587Y-13710293D01*
X10379587Y-13710293D02*
X10398635Y-13700769D01*
X10465301Y-13653150D02*
X10541492Y-13653150D01*
X10493873Y-13586484D02*
X10493873Y-13757912D01*
X10493873Y-13757912D02*
X10503396Y-13776960D01*
X10503396Y-13776960D02*
X10522444Y-13786484D01*
X10522444Y-13786484D02*
X10541492Y-13786484D01*
X10684349Y-13776960D02*
X10665301Y-13786484D01*
X10665301Y-13786484D02*
X10627206Y-13786484D01*
X10627206Y-13786484D02*
X10608158Y-13776960D01*
X10608158Y-13776960D02*
X10598635Y-13757912D01*
X10598635Y-13757912D02*
X10598635Y-13681722D01*
X10598635Y-13681722D02*
X10608158Y-13662674D01*
X10608158Y-13662674D02*
X10627206Y-13653150D01*
X10627206Y-13653150D02*
X10665301Y-13653150D01*
X10665301Y-13653150D02*
X10684349Y-13662674D01*
X10684349Y-13662674D02*
X10693873Y-13681722D01*
X10693873Y-13681722D02*
X10693873Y-13700769D01*
X10693873Y-13700769D02*
X10598635Y-13719817D01*
X10865301Y-13786484D02*
X10865301Y-13586484D01*
X10865301Y-13776960D02*
X10846254Y-13786484D01*
X10846254Y-13786484D02*
X10808158Y-13786484D01*
X10808158Y-13786484D02*
X10789111Y-13776960D01*
X10789111Y-13776960D02*
X10779587Y-13767436D01*
X10779587Y-13767436D02*
X10770063Y-13748388D01*
X10770063Y-13748388D02*
X10770063Y-13691246D01*
X10770063Y-13691246D02*
X10779587Y-13672198D01*
X10779587Y-13672198D02*
X10789111Y-13662674D01*
X10789111Y-13662674D02*
X10808158Y-13653150D01*
X10808158Y-13653150D02*
X10846254Y-13653150D01*
X10846254Y-13653150D02*
X10865301Y-13662674D01*
X10941492Y-13862674D02*
X10951016Y-13853150D01*
X10951016Y-13853150D02*
X10970063Y-13824579D01*
X10970063Y-13824579D02*
X10979587Y-13805531D01*
X10979587Y-13805531D02*
X10989111Y-13776960D01*
X10989111Y-13776960D02*
X10998635Y-13729341D01*
X10998635Y-13729341D02*
X10998635Y-13691246D01*
X10998635Y-13691246D02*
X10989111Y-13643627D01*
X10989111Y-13643627D02*
X10979587Y-13615055D01*
X10979587Y-13615055D02*
X10970063Y-13596008D01*
X10970063Y-13596008D02*
X10951016Y-13567436D01*
X10951016Y-13567436D02*
X10941492Y-13557912D01*
X3995000Y-14015000D02*
G75*
G03*
X3995000Y-14015000I-100000J0D01*
G01*
X4351015Y-13906484D02*
X4255777Y-13906484D01*
X4255777Y-13906484D02*
X4246253Y-14001722D01*
X4246253Y-14001722D02*
X4255777Y-13992198D01*
X4255777Y-13992198D02*
X4274824Y-13982674D01*
X4274824Y-13982674D02*
X4322444Y-13982674D01*
X4322444Y-13982674D02*
X4341491Y-13992198D01*
X4341491Y-13992198D02*
X4351015Y-14001722D01*
X4351015Y-14001722D02*
X4360539Y-14020769D01*
X4360539Y-14020769D02*
X4360539Y-14068388D01*
X4360539Y-14068388D02*
X4351015Y-14087436D01*
X4351015Y-14087436D02*
X4341491Y-14096960D01*
X4341491Y-14096960D02*
X4322444Y-14106484D01*
X4322444Y-14106484D02*
X4274824Y-14106484D01*
X4274824Y-14106484D02*
X4255777Y-14096960D01*
X4255777Y-14096960D02*
X4246253Y-14087436D01*
X4446253Y-14087436D02*
X4455777Y-14096960D01*
X4455777Y-14096960D02*
X4446253Y-14106484D01*
X4446253Y-14106484D02*
X4436729Y-14096960D01*
X4436729Y-14096960D02*
X4446253Y-14087436D01*
X4446253Y-14087436D02*
X4446253Y-14106484D01*
X4531967Y-13925531D02*
X4541491Y-13916008D01*
X4541491Y-13916008D02*
X4560539Y-13906484D01*
X4560539Y-13906484D02*
X4608158Y-13906484D01*
X4608158Y-13906484D02*
X4627205Y-13916008D01*
X4627205Y-13916008D02*
X4636729Y-13925531D01*
X4636729Y-13925531D02*
X4646253Y-13944579D01*
X4646253Y-13944579D02*
X4646253Y-13963627D01*
X4646253Y-13963627D02*
X4636729Y-13992198D01*
X4636729Y-13992198D02*
X4522444Y-14106484D01*
X4522444Y-14106484D02*
X4646253Y-14106484D01*
X4770063Y-13906484D02*
X4789110Y-13906484D01*
X4789110Y-13906484D02*
X4808158Y-13916008D01*
X4808158Y-13916008D02*
X4817682Y-13925531D01*
X4817682Y-13925531D02*
X4827205Y-13944579D01*
X4827205Y-13944579D02*
X4836729Y-13982674D01*
X4836729Y-13982674D02*
X4836729Y-14030293D01*
X4836729Y-14030293D02*
X4827205Y-14068388D01*
X4827205Y-14068388D02*
X4817682Y-14087436D01*
X4817682Y-14087436D02*
X4808158Y-14096960D01*
X4808158Y-14096960D02*
X4789110Y-14106484D01*
X4789110Y-14106484D02*
X4770063Y-14106484D01*
X4770063Y-14106484D02*
X4751015Y-14096960D01*
X4751015Y-14096960D02*
X4741491Y-14087436D01*
X4741491Y-14087436D02*
X4731967Y-14068388D01*
X4731967Y-14068388D02*
X4722444Y-14030293D01*
X4722444Y-14030293D02*
X4722444Y-13982674D01*
X4722444Y-13982674D02*
X4731967Y-13944579D01*
X4731967Y-13944579D02*
X4741491Y-13925531D01*
X4741491Y-13925531D02*
X4751015Y-13916008D01*
X4751015Y-13916008D02*
X4770063Y-13906484D01*
X4960539Y-13906484D02*
X4979586Y-13906484D01*
X4979586Y-13906484D02*
X4998634Y-13916008D01*
X4998634Y-13916008D02*
X5008158Y-13925531D01*
X5008158Y-13925531D02*
X5017682Y-13944579D01*
X5017682Y-13944579D02*
X5027205Y-13982674D01*
X5027205Y-13982674D02*
X5027205Y-14030293D01*
X5027205Y-14030293D02*
X5017682Y-14068388D01*
X5017682Y-14068388D02*
X5008158Y-14087436D01*
X5008158Y-14087436D02*
X4998634Y-14096960D01*
X4998634Y-14096960D02*
X4979586Y-14106484D01*
X4979586Y-14106484D02*
X4960539Y-14106484D01*
X4960539Y-14106484D02*
X4941491Y-14096960D01*
X4941491Y-14096960D02*
X4931967Y-14087436D01*
X4931967Y-14087436D02*
X4922444Y-14068388D01*
X4922444Y-14068388D02*
X4912920Y-14030293D01*
X4912920Y-14030293D02*
X4912920Y-13982674D01*
X4912920Y-13982674D02*
X4922444Y-13944579D01*
X4922444Y-13944579D02*
X4931967Y-13925531D01*
X4931967Y-13925531D02*
X4941491Y-13916008D01*
X4941491Y-13916008D02*
X4960539Y-13906484D01*
X5112920Y-14106484D02*
X5112920Y-13973150D01*
X5112920Y-13992198D02*
X5122444Y-13982674D01*
X5122444Y-13982674D02*
X5141491Y-13973150D01*
X5141491Y-13973150D02*
X5170063Y-13973150D01*
X5170063Y-13973150D02*
X5189110Y-13982674D01*
X5189110Y-13982674D02*
X5198634Y-14001722D01*
X5198634Y-14001722D02*
X5198634Y-14106484D01*
X5198634Y-14001722D02*
X5208158Y-13982674D01*
X5208158Y-13982674D02*
X5227205Y-13973150D01*
X5227205Y-13973150D02*
X5255777Y-13973150D01*
X5255777Y-13973150D02*
X5274825Y-13982674D01*
X5274825Y-13982674D02*
X5284348Y-14001722D01*
X5284348Y-14001722D02*
X5284348Y-14106484D01*
X5379586Y-14106484D02*
X5379586Y-13973150D01*
X5379586Y-13992198D02*
X5389110Y-13982674D01*
X5389110Y-13982674D02*
X5408158Y-13973150D01*
X5408158Y-13973150D02*
X5436729Y-13973150D01*
X5436729Y-13973150D02*
X5455777Y-13982674D01*
X5455777Y-13982674D02*
X5465301Y-14001722D01*
X5465301Y-14001722D02*
X5465301Y-14106484D01*
X5465301Y-14001722D02*
X5474825Y-13982674D01*
X5474825Y-13982674D02*
X5493872Y-13973150D01*
X5493872Y-13973150D02*
X5522444Y-13973150D01*
X5522444Y-13973150D02*
X5541491Y-13982674D01*
X5541491Y-13982674D02*
X5551015Y-14001722D01*
X5551015Y-14001722D02*
X5551015Y-14106484D01*
X5941491Y-13896960D02*
X5770063Y-14154103D01*
X6198634Y-13906484D02*
X6217682Y-13906484D01*
X6217682Y-13906484D02*
X6236729Y-13916008D01*
X6236729Y-13916008D02*
X6246253Y-13925531D01*
X6246253Y-13925531D02*
X6255777Y-13944579D01*
X6255777Y-13944579D02*
X6265301Y-13982674D01*
X6265301Y-13982674D02*
X6265301Y-14030293D01*
X6265301Y-14030293D02*
X6255777Y-14068388D01*
X6255777Y-14068388D02*
X6246253Y-14087436D01*
X6246253Y-14087436D02*
X6236729Y-14096960D01*
X6236729Y-14096960D02*
X6217682Y-14106484D01*
X6217682Y-14106484D02*
X6198634Y-14106484D01*
X6198634Y-14106484D02*
X6179586Y-14096960D01*
X6179586Y-14096960D02*
X6170063Y-14087436D01*
X6170063Y-14087436D02*
X6160539Y-14068388D01*
X6160539Y-14068388D02*
X6151015Y-14030293D01*
X6151015Y-14030293D02*
X6151015Y-13982674D01*
X6151015Y-13982674D02*
X6160539Y-13944579D01*
X6160539Y-13944579D02*
X6170063Y-13925531D01*
X6170063Y-13925531D02*
X6179586Y-13916008D01*
X6179586Y-13916008D02*
X6198634Y-13906484D01*
X6351015Y-14087436D02*
X6360539Y-14096960D01*
X6360539Y-14096960D02*
X6351015Y-14106484D01*
X6351015Y-14106484D02*
X6341491Y-14096960D01*
X6341491Y-14096960D02*
X6351015Y-14087436D01*
X6351015Y-14087436D02*
X6351015Y-14106484D01*
X6436729Y-13925531D02*
X6446253Y-13916008D01*
X6446253Y-13916008D02*
X6465301Y-13906484D01*
X6465301Y-13906484D02*
X6512920Y-13906484D01*
X6512920Y-13906484D02*
X6531967Y-13916008D01*
X6531967Y-13916008D02*
X6541491Y-13925531D01*
X6541491Y-13925531D02*
X6551015Y-13944579D01*
X6551015Y-13944579D02*
X6551015Y-13963627D01*
X6551015Y-13963627D02*
X6541491Y-13992198D01*
X6541491Y-13992198D02*
X6427206Y-14106484D01*
X6427206Y-14106484D02*
X6551015Y-14106484D01*
X6674825Y-13906484D02*
X6693872Y-13906484D01*
X6693872Y-13906484D02*
X6712920Y-13916008D01*
X6712920Y-13916008D02*
X6722444Y-13925531D01*
X6722444Y-13925531D02*
X6731967Y-13944579D01*
X6731967Y-13944579D02*
X6741491Y-13982674D01*
X6741491Y-13982674D02*
X6741491Y-14030293D01*
X6741491Y-14030293D02*
X6731967Y-14068388D01*
X6731967Y-14068388D02*
X6722444Y-14087436D01*
X6722444Y-14087436D02*
X6712920Y-14096960D01*
X6712920Y-14096960D02*
X6693872Y-14106484D01*
X6693872Y-14106484D02*
X6674825Y-14106484D01*
X6674825Y-14106484D02*
X6655777Y-14096960D01*
X6655777Y-14096960D02*
X6646253Y-14087436D01*
X6646253Y-14087436D02*
X6636729Y-14068388D01*
X6636729Y-14068388D02*
X6627206Y-14030293D01*
X6627206Y-14030293D02*
X6627206Y-13982674D01*
X6627206Y-13982674D02*
X6636729Y-13944579D01*
X6636729Y-13944579D02*
X6646253Y-13925531D01*
X6646253Y-13925531D02*
X6655777Y-13916008D01*
X6655777Y-13916008D02*
X6674825Y-13906484D01*
X6912920Y-13973150D02*
X6912920Y-14106484D01*
X6865301Y-13896960D02*
X6817682Y-14039817D01*
X6817682Y-14039817D02*
X6941491Y-14039817D01*
X6998634Y-13906484D02*
X7131967Y-13906484D01*
X7131967Y-13906484D02*
X7046253Y-14106484D01*
X7198634Y-13906484D02*
X7198634Y-13944579D01*
X7274825Y-13906484D02*
X7274825Y-13944579D01*
X7570063Y-14182674D02*
X7560539Y-14173150D01*
X7560539Y-14173150D02*
X7541491Y-14144579D01*
X7541491Y-14144579D02*
X7531968Y-14125531D01*
X7531968Y-14125531D02*
X7522444Y-14096960D01*
X7522444Y-14096960D02*
X7512920Y-14049341D01*
X7512920Y-14049341D02*
X7512920Y-14011246D01*
X7512920Y-14011246D02*
X7522444Y-13963627D01*
X7522444Y-13963627D02*
X7531968Y-13935055D01*
X7531968Y-13935055D02*
X7541491Y-13916008D01*
X7541491Y-13916008D02*
X7560539Y-13887436D01*
X7560539Y-13887436D02*
X7570063Y-13877912D01*
X7731968Y-13973150D02*
X7731968Y-14106484D01*
X7684348Y-13896960D02*
X7636729Y-14039817D01*
X7636729Y-14039817D02*
X7760539Y-14039817D01*
X7989110Y-14106484D02*
X7989110Y-13906484D01*
X8074825Y-14106484D02*
X8074825Y-14001722D01*
X8074825Y-14001722D02*
X8065301Y-13982674D01*
X8065301Y-13982674D02*
X8046253Y-13973150D01*
X8046253Y-13973150D02*
X8017682Y-13973150D01*
X8017682Y-13973150D02*
X7998634Y-13982674D01*
X7998634Y-13982674D02*
X7989110Y-13992198D01*
X8198634Y-14106484D02*
X8179587Y-14096960D01*
X8179587Y-14096960D02*
X8170063Y-14087436D01*
X8170063Y-14087436D02*
X8160539Y-14068388D01*
X8160539Y-14068388D02*
X8160539Y-14011246D01*
X8160539Y-14011246D02*
X8170063Y-13992198D01*
X8170063Y-13992198D02*
X8179587Y-13982674D01*
X8179587Y-13982674D02*
X8198634Y-13973150D01*
X8198634Y-13973150D02*
X8227206Y-13973150D01*
X8227206Y-13973150D02*
X8246253Y-13982674D01*
X8246253Y-13982674D02*
X8255777Y-13992198D01*
X8255777Y-13992198D02*
X8265301Y-14011246D01*
X8265301Y-14011246D02*
X8265301Y-14068388D01*
X8265301Y-14068388D02*
X8255777Y-14087436D01*
X8255777Y-14087436D02*
X8246253Y-14096960D01*
X8246253Y-14096960D02*
X8227206Y-14106484D01*
X8227206Y-14106484D02*
X8198634Y-14106484D01*
X8379587Y-14106484D02*
X8360539Y-14096960D01*
X8360539Y-14096960D02*
X8351015Y-14077912D01*
X8351015Y-14077912D02*
X8351015Y-13906484D01*
X8531968Y-14096960D02*
X8512920Y-14106484D01*
X8512920Y-14106484D02*
X8474825Y-14106484D01*
X8474825Y-14106484D02*
X8455777Y-14096960D01*
X8455777Y-14096960D02*
X8446253Y-14077912D01*
X8446253Y-14077912D02*
X8446253Y-14001722D01*
X8446253Y-14001722D02*
X8455777Y-13982674D01*
X8455777Y-13982674D02*
X8474825Y-13973150D01*
X8474825Y-13973150D02*
X8512920Y-13973150D01*
X8512920Y-13973150D02*
X8531968Y-13982674D01*
X8531968Y-13982674D02*
X8541492Y-14001722D01*
X8541492Y-14001722D02*
X8541492Y-14020769D01*
X8541492Y-14020769D02*
X8446253Y-14039817D01*
X8617682Y-14096960D02*
X8636730Y-14106484D01*
X8636730Y-14106484D02*
X8674825Y-14106484D01*
X8674825Y-14106484D02*
X8693873Y-14096960D01*
X8693873Y-14096960D02*
X8703396Y-14077912D01*
X8703396Y-14077912D02*
X8703396Y-14068388D01*
X8703396Y-14068388D02*
X8693873Y-14049341D01*
X8693873Y-14049341D02*
X8674825Y-14039817D01*
X8674825Y-14039817D02*
X8646253Y-14039817D01*
X8646253Y-14039817D02*
X8627206Y-14030293D01*
X8627206Y-14030293D02*
X8617682Y-14011246D01*
X8617682Y-14011246D02*
X8617682Y-14001722D01*
X8617682Y-14001722D02*
X8627206Y-13982674D01*
X8627206Y-13982674D02*
X8646253Y-13973150D01*
X8646253Y-13973150D02*
X8674825Y-13973150D01*
X8674825Y-13973150D02*
X8693873Y-13982674D01*
X8770063Y-14182674D02*
X8779587Y-14173150D01*
X8779587Y-14173150D02*
X8798634Y-14144579D01*
X8798634Y-14144579D02*
X8808158Y-14125531D01*
X8808158Y-14125531D02*
X8817682Y-14096960D01*
X8817682Y-14096960D02*
X8827206Y-14049341D01*
X8827206Y-14049341D02*
X8827206Y-14011246D01*
X8827206Y-14011246D02*
X8817682Y-13963627D01*
X8817682Y-13963627D02*
X8808158Y-13935055D01*
X8808158Y-13935055D02*
X8798634Y-13916008D01*
X8798634Y-13916008D02*
X8779587Y-13887436D01*
X8779587Y-13887436D02*
X8770063Y-13877912D01*
X9131968Y-14182674D02*
X9122444Y-14173150D01*
X9122444Y-14173150D02*
X9103396Y-14144579D01*
X9103396Y-14144579D02*
X9093873Y-14125531D01*
X9093873Y-14125531D02*
X9084349Y-14096960D01*
X9084349Y-14096960D02*
X9074825Y-14049341D01*
X9074825Y-14049341D02*
X9074825Y-14011246D01*
X9074825Y-14011246D02*
X9084349Y-13963627D01*
X9084349Y-13963627D02*
X9093873Y-13935055D01*
X9093873Y-13935055D02*
X9103396Y-13916008D01*
X9103396Y-13916008D02*
X9122444Y-13887436D01*
X9122444Y-13887436D02*
X9131968Y-13877912D01*
X9208158Y-13973150D02*
X9208158Y-14106484D01*
X9208158Y-13992198D02*
X9217682Y-13982674D01*
X9217682Y-13982674D02*
X9236730Y-13973150D01*
X9236730Y-13973150D02*
X9265301Y-13973150D01*
X9265301Y-13973150D02*
X9284349Y-13982674D01*
X9284349Y-13982674D02*
X9293873Y-14001722D01*
X9293873Y-14001722D02*
X9293873Y-14106484D01*
X9417682Y-14106484D02*
X9398634Y-14096960D01*
X9398634Y-14096960D02*
X9389111Y-14087436D01*
X9389111Y-14087436D02*
X9379587Y-14068388D01*
X9379587Y-14068388D02*
X9379587Y-14011246D01*
X9379587Y-14011246D02*
X9389111Y-13992198D01*
X9389111Y-13992198D02*
X9398634Y-13982674D01*
X9398634Y-13982674D02*
X9417682Y-13973150D01*
X9417682Y-13973150D02*
X9446254Y-13973150D01*
X9446254Y-13973150D02*
X9465301Y-13982674D01*
X9465301Y-13982674D02*
X9474825Y-13992198D01*
X9474825Y-13992198D02*
X9484349Y-14011246D01*
X9484349Y-14011246D02*
X9484349Y-14068388D01*
X9484349Y-14068388D02*
X9474825Y-14087436D01*
X9474825Y-14087436D02*
X9465301Y-14096960D01*
X9465301Y-14096960D02*
X9446254Y-14106484D01*
X9446254Y-14106484D02*
X9417682Y-14106484D01*
X9541492Y-13973150D02*
X9617682Y-13973150D01*
X9570063Y-13906484D02*
X9570063Y-14077912D01*
X9570063Y-14077912D02*
X9579587Y-14096960D01*
X9579587Y-14096960D02*
X9598634Y-14106484D01*
X9598634Y-14106484D02*
X9617682Y-14106484D01*
X9836730Y-13973150D02*
X9836730Y-14173150D01*
X9836730Y-13982674D02*
X9855777Y-13973150D01*
X9855777Y-13973150D02*
X9893873Y-13973150D01*
X9893873Y-13973150D02*
X9912920Y-13982674D01*
X9912920Y-13982674D02*
X9922444Y-13992198D01*
X9922444Y-13992198D02*
X9931968Y-14011246D01*
X9931968Y-14011246D02*
X9931968Y-14068388D01*
X9931968Y-14068388D02*
X9922444Y-14087436D01*
X9922444Y-14087436D02*
X9912920Y-14096960D01*
X9912920Y-14096960D02*
X9893873Y-14106484D01*
X9893873Y-14106484D02*
X9855777Y-14106484D01*
X9855777Y-14106484D02*
X9836730Y-14096960D01*
X10046254Y-14106484D02*
X10027206Y-14096960D01*
X10027206Y-14096960D02*
X10017682Y-14077912D01*
X10017682Y-14077912D02*
X10017682Y-13906484D01*
X10208158Y-14106484D02*
X10208158Y-14001722D01*
X10208158Y-14001722D02*
X10198635Y-13982674D01*
X10198635Y-13982674D02*
X10179587Y-13973150D01*
X10179587Y-13973150D02*
X10141492Y-13973150D01*
X10141492Y-13973150D02*
X10122444Y-13982674D01*
X10208158Y-14096960D02*
X10189111Y-14106484D01*
X10189111Y-14106484D02*
X10141492Y-14106484D01*
X10141492Y-14106484D02*
X10122444Y-14096960D01*
X10122444Y-14096960D02*
X10112920Y-14077912D01*
X10112920Y-14077912D02*
X10112920Y-14058865D01*
X10112920Y-14058865D02*
X10122444Y-14039817D01*
X10122444Y-14039817D02*
X10141492Y-14030293D01*
X10141492Y-14030293D02*
X10189111Y-14030293D01*
X10189111Y-14030293D02*
X10208158Y-14020769D01*
X10274825Y-13973150D02*
X10351015Y-13973150D01*
X10303396Y-13906484D02*
X10303396Y-14077912D01*
X10303396Y-14077912D02*
X10312920Y-14096960D01*
X10312920Y-14096960D02*
X10331968Y-14106484D01*
X10331968Y-14106484D02*
X10351015Y-14106484D01*
X10493873Y-14096960D02*
X10474825Y-14106484D01*
X10474825Y-14106484D02*
X10436730Y-14106484D01*
X10436730Y-14106484D02*
X10417682Y-14096960D01*
X10417682Y-14096960D02*
X10408158Y-14077912D01*
X10408158Y-14077912D02*
X10408158Y-14001722D01*
X10408158Y-14001722D02*
X10417682Y-13982674D01*
X10417682Y-13982674D02*
X10436730Y-13973150D01*
X10436730Y-13973150D02*
X10474825Y-13973150D01*
X10474825Y-13973150D02*
X10493873Y-13982674D01*
X10493873Y-13982674D02*
X10503396Y-14001722D01*
X10503396Y-14001722D02*
X10503396Y-14020769D01*
X10503396Y-14020769D02*
X10408158Y-14039817D01*
X10674825Y-14106484D02*
X10674825Y-13906484D01*
X10674825Y-14096960D02*
X10655777Y-14106484D01*
X10655777Y-14106484D02*
X10617682Y-14106484D01*
X10617682Y-14106484D02*
X10598635Y-14096960D01*
X10598635Y-14096960D02*
X10589111Y-14087436D01*
X10589111Y-14087436D02*
X10579587Y-14068388D01*
X10579587Y-14068388D02*
X10579587Y-14011246D01*
X10579587Y-14011246D02*
X10589111Y-13992198D01*
X10589111Y-13992198D02*
X10598635Y-13982674D01*
X10598635Y-13982674D02*
X10617682Y-13973150D01*
X10617682Y-13973150D02*
X10655777Y-13973150D01*
X10655777Y-13973150D02*
X10674825Y-13982674D01*
X10751016Y-14182674D02*
X10760539Y-14173150D01*
X10760539Y-14173150D02*
X10779587Y-14144579D01*
X10779587Y-14144579D02*
X10789111Y-14125531D01*
X10789111Y-14125531D02*
X10798635Y-14096960D01*
X10798635Y-14096960D02*
X10808158Y-14049341D01*
X10808158Y-14049341D02*
X10808158Y-14011246D01*
X10808158Y-14011246D02*
X10798635Y-13963627D01*
X10798635Y-13963627D02*
X10789111Y-13935055D01*
X10789111Y-13935055D02*
X10779587Y-13916008D01*
X10779587Y-13916008D02*
X10760539Y-13887436D01*
X10760539Y-13887436D02*
X10751016Y-13877912D01*
M02*
