G04 #@! TF.GenerationSoftware,KiCad,Pcbnew,7.0.8*
G04 #@! TF.CreationDate,2023-11-12T21:23:09-08:00*
G04 #@! TF.ProjectId,10p-battery-holder,3130702d-6261-4747-9465-72792d686f6c,V1*
G04 #@! TF.SameCoordinates,Original*
G04 #@! TF.FileFunction,Copper,L1,Top*
G04 #@! TF.FilePolarity,Positive*
%FSLAX46Y46*%
G04 Gerber Fmt 4.6, Leading zero omitted, Abs format (unit mm)*
G04 Created by KiCad (PCBNEW 7.0.8) date 2023-11-12 21:23:09*
%MOMM*%
%LPD*%
G01*
G04 APERTURE LIST*
G04 Aperture macros list*
%AMRoundRect*
0 Rectangle with rounded corners*
0 $1 Rounding radius*
0 $2 $3 $4 $5 $6 $7 $8 $9 X,Y pos of 4 corners*
0 Add a 4 corners polygon primitive as box body*
4,1,4,$2,$3,$4,$5,$6,$7,$8,$9,$2,$3,0*
0 Add four circle primitives for the rounded corners*
1,1,$1+$1,$2,$3*
1,1,$1+$1,$4,$5*
1,1,$1+$1,$6,$7*
1,1,$1+$1,$8,$9*
0 Add four rect primitives between the rounded corners*
20,1,$1+$1,$2,$3,$4,$5,0*
20,1,$1+$1,$4,$5,$6,$7,0*
20,1,$1+$1,$6,$7,$8,$9,0*
20,1,$1+$1,$8,$9,$2,$3,0*%
G04 Aperture macros list end*
G04 #@! TA.AperFunction,ComponentPad*
%ADD10C,0.800000*%
G04 #@! TD*
G04 #@! TA.AperFunction,ComponentPad*
%ADD11C,6.400000*%
G04 #@! TD*
G04 #@! TA.AperFunction,SMDPad,CuDef*
%ADD12RoundRect,1.125000X-2.625000X-1.125000X2.625000X-1.125000X2.625000X1.125000X-2.625000X1.125000X0*%
G04 #@! TD*
G04 #@! TA.AperFunction,SMDPad,CuDef*
%ADD13C,8.500000*%
G04 #@! TD*
G04 #@! TA.AperFunction,SMDPad,CuDef*
%ADD14RoundRect,0.200000X0.600000X-0.200000X0.600000X0.200000X-0.600000X0.200000X-0.600000X-0.200000X0*%
G04 #@! TD*
G04 #@! TA.AperFunction,SMDPad,CuDef*
%ADD15RoundRect,0.250001X1.249999X-0.799999X1.249999X0.799999X-1.249999X0.799999X-1.249999X-0.799999X0*%
G04 #@! TD*
G04 #@! TA.AperFunction,ViaPad*
%ADD16C,0.762000*%
G04 #@! TD*
G04 #@! TA.AperFunction,Conductor*
%ADD17C,1.000000*%
G04 #@! TD*
G04 #@! TA.AperFunction,Conductor*
%ADD18C,0.500000*%
G04 #@! TD*
G04 APERTURE END LIST*
D10*
X258600000Y-126500000D03*
X259302944Y-124802944D03*
X259302944Y-128197056D03*
X261000000Y-124100000D03*
D11*
X261000000Y-126500000D03*
D10*
X261000000Y-128900000D03*
X262697056Y-124802944D03*
X262697056Y-128197056D03*
X263400000Y-126500000D03*
X258600000Y-54500000D03*
X259302944Y-52802944D03*
X259302944Y-56197056D03*
X261000000Y-52100000D03*
D11*
X261000000Y-54500000D03*
D10*
X261000000Y-56900000D03*
X262697056Y-52802944D03*
X262697056Y-56197056D03*
X263400000Y-54500000D03*
D12*
X183620000Y-54000000D03*
X202380000Y-54000000D03*
X183620000Y-127000000D03*
X202380000Y-127000000D03*
D13*
X45500000Y-70500000D03*
D10*
X41600000Y-54500000D03*
X42302944Y-52802944D03*
X42302944Y-56197056D03*
X44000000Y-52100000D03*
D11*
X44000000Y-54500000D03*
D10*
X44000000Y-56900000D03*
X45697056Y-52802944D03*
X45697056Y-56197056D03*
X46400000Y-54500000D03*
D13*
X45500000Y-110500000D03*
X259500000Y-110500000D03*
D12*
X102620000Y-54000000D03*
X121380000Y-54000000D03*
X102620000Y-127000000D03*
X121380000Y-127000000D03*
D14*
X255100000Y-91125000D03*
X255100000Y-89875000D03*
D15*
X258000000Y-93675000D03*
X258000000Y-87325000D03*
D13*
X259500000Y-70500000D03*
D10*
X41600000Y-126500000D03*
X42302944Y-124802944D03*
X42302944Y-128197056D03*
X44000000Y-124100000D03*
D11*
X44000000Y-126500000D03*
D10*
X44000000Y-128900000D03*
X45697056Y-124802944D03*
X45697056Y-128197056D03*
X46400000Y-126500000D03*
D12*
X224120000Y-54000000D03*
X242880000Y-54000000D03*
X224120000Y-127000000D03*
X242880000Y-127000000D03*
X143120000Y-54000000D03*
X161880000Y-54000000D03*
X143120000Y-127000000D03*
X161880000Y-127000000D03*
X62120000Y-54000000D03*
X80880000Y-54000000D03*
X62120000Y-127000000D03*
X80880000Y-127000000D03*
D16*
X52500000Y-75500000D03*
X55000000Y-83000000D03*
X47000000Y-66750000D03*
X60000000Y-52500000D03*
X145000000Y-58000000D03*
X250000000Y-58000000D03*
X252500000Y-60500000D03*
X237500000Y-60500000D03*
X181500000Y-52500000D03*
X117500000Y-85500000D03*
X47000000Y-75750000D03*
X175000000Y-58000000D03*
X67500000Y-80500000D03*
X152500000Y-55500000D03*
X122500000Y-80500000D03*
X62500000Y-70500000D03*
X102500000Y-70500000D03*
X204250000Y-54500000D03*
X170000000Y-88000000D03*
X167500000Y-60500000D03*
X42500000Y-60500000D03*
X85000000Y-88000000D03*
X165000000Y-73000000D03*
X177500000Y-85500000D03*
X155000000Y-73000000D03*
X121000000Y-52500000D03*
X75000000Y-63000000D03*
X172500000Y-70500000D03*
X256500000Y-75750000D03*
X167500000Y-80500000D03*
X177500000Y-80500000D03*
X182500000Y-55500000D03*
X202500000Y-60500000D03*
X258000000Y-75750000D03*
X230000000Y-83000000D03*
X227500000Y-85500000D03*
X160000000Y-58000000D03*
X55000000Y-53000000D03*
X110000000Y-78000000D03*
X132500000Y-55500000D03*
X67500000Y-85500000D03*
X75000000Y-58000000D03*
X140000000Y-88000000D03*
X48500000Y-66750000D03*
X144000000Y-55500000D03*
X124000000Y-53500000D03*
X197500000Y-65500000D03*
X118000000Y-55500000D03*
X220000000Y-73000000D03*
X65000000Y-73000000D03*
X240000000Y-83000000D03*
X90000000Y-83000000D03*
X137500000Y-60500000D03*
X107500000Y-85500000D03*
X162500000Y-65500000D03*
X70000000Y-73000000D03*
X97500000Y-60500000D03*
X200000000Y-73000000D03*
X210000000Y-58000000D03*
X167500000Y-85500000D03*
X200250000Y-52500000D03*
X255000000Y-83000000D03*
X240000000Y-78000000D03*
X205250000Y-55500000D03*
X255000000Y-68250000D03*
X195000000Y-83000000D03*
X162750000Y-55500000D03*
X41000000Y-74250000D03*
X63000000Y-55500000D03*
X165000000Y-63000000D03*
X256500000Y-68250000D03*
X60000000Y-88000000D03*
X190000000Y-88000000D03*
X141000000Y-52500000D03*
X145000000Y-68000000D03*
X140000000Y-53500000D03*
X150000000Y-63000000D03*
X67500000Y-75500000D03*
X62000000Y-54500000D03*
X135000000Y-78000000D03*
X185000000Y-68000000D03*
X130000000Y-73000000D03*
X230000000Y-78000000D03*
X172500000Y-60500000D03*
X152500000Y-75500000D03*
X158750000Y-53500000D03*
X255000000Y-53000000D03*
X92500000Y-75500000D03*
X127500000Y-85500000D03*
X84000000Y-55500000D03*
X127500000Y-55500000D03*
X259500000Y-66750000D03*
X47500000Y-60500000D03*
X130000000Y-58000000D03*
X205000000Y-78000000D03*
X195000000Y-53000000D03*
X180000000Y-68000000D03*
X152500000Y-80500000D03*
X237500000Y-85500000D03*
X132500000Y-60500000D03*
X42500000Y-68250000D03*
X55000000Y-68000000D03*
X222500000Y-70500000D03*
X102500000Y-65500000D03*
X78000000Y-53500000D03*
X225000000Y-58000000D03*
X190000000Y-68000000D03*
X48780468Y-70572377D03*
X100000000Y-88000000D03*
X262500000Y-72750000D03*
X85000000Y-68000000D03*
X115000000Y-58000000D03*
X115000000Y-63000000D03*
X120000000Y-78000000D03*
X217500000Y-55500000D03*
X125000000Y-83000000D03*
X137500000Y-75500000D03*
X41000000Y-75750000D03*
X180000000Y-63000000D03*
X242500000Y-80500000D03*
X117500000Y-60500000D03*
X155000000Y-58000000D03*
X252500000Y-75500000D03*
X41000000Y-71250000D03*
X85000000Y-63000000D03*
X45500000Y-66750000D03*
X157500000Y-85500000D03*
X260000000Y-78000000D03*
X261000000Y-74250000D03*
X105000000Y-73000000D03*
X125000000Y-58000000D03*
X237500000Y-75500000D03*
X42500000Y-74250000D03*
X170000000Y-83000000D03*
X212500000Y-75500000D03*
X217500000Y-85500000D03*
X47000000Y-65250000D03*
X119000000Y-54500000D03*
X180000000Y-73000000D03*
X135000000Y-53000000D03*
X105500000Y-53500000D03*
X225000000Y-83000000D03*
X79000000Y-54500000D03*
X202250000Y-54500000D03*
X237500000Y-55500000D03*
X44000000Y-75750000D03*
X187500000Y-65500000D03*
X192500000Y-80500000D03*
X97500000Y-70500000D03*
X184500000Y-53500000D03*
X104500000Y-54500000D03*
X204250000Y-52500000D03*
X232500000Y-65500000D03*
X141000000Y-54500000D03*
X160000000Y-88000000D03*
X62500000Y-75500000D03*
X264000000Y-71250000D03*
X255000000Y-75750000D03*
X192500000Y-60500000D03*
X232500000Y-75500000D03*
X262500000Y-65250000D03*
X264000000Y-65250000D03*
X79000000Y-52500000D03*
X42500000Y-75750000D03*
X65000000Y-58000000D03*
X222000000Y-54500000D03*
X102500000Y-54500000D03*
X232500000Y-70500000D03*
X77500000Y-60500000D03*
X123000000Y-54500000D03*
X60000000Y-78000000D03*
X182500000Y-85500000D03*
X150000000Y-83000000D03*
X85000000Y-58000000D03*
X242500000Y-70500000D03*
X259500000Y-65250000D03*
X175000000Y-68000000D03*
X159750000Y-52500000D03*
X101500000Y-53500000D03*
X256500000Y-65250000D03*
X132500000Y-65500000D03*
X165000000Y-68000000D03*
X180500000Y-53500000D03*
X195000000Y-88000000D03*
X165000000Y-78000000D03*
X167500000Y-55500000D03*
X222500000Y-75500000D03*
X48250000Y-80500000D03*
X192500000Y-75500000D03*
X41000000Y-72750000D03*
X163750000Y-54500000D03*
X107500000Y-75500000D03*
X80000000Y-68000000D03*
X110000000Y-73000000D03*
X195000000Y-58000000D03*
X60000000Y-54500000D03*
X62000000Y-52500000D03*
X210000000Y-53000000D03*
X255000000Y-63000000D03*
X225000000Y-53500000D03*
X99500000Y-55500000D03*
X81000000Y-52500000D03*
X237500000Y-80500000D03*
X235000000Y-83000000D03*
X110000000Y-88000000D03*
X230000000Y-73000000D03*
X142500000Y-85500000D03*
X222500000Y-85500000D03*
X205000000Y-63000000D03*
X105000000Y-83000000D03*
X240000000Y-88000000D03*
X90000000Y-53000000D03*
X160000000Y-73000000D03*
X205000000Y-83000000D03*
X55000000Y-63000000D03*
X90000000Y-73000000D03*
X41000000Y-68250000D03*
X225000000Y-73000000D03*
X237500000Y-70500000D03*
X72500000Y-60500000D03*
X57500000Y-55500000D03*
X264000000Y-69750000D03*
X207500000Y-65500000D03*
X155000000Y-78000000D03*
X48500000Y-75750000D03*
X47000000Y-74250000D03*
X261000000Y-75750000D03*
X250000000Y-88000000D03*
X230000000Y-63000000D03*
X155000000Y-53000000D03*
X100000000Y-58000000D03*
X182500000Y-80500000D03*
X170000000Y-58000000D03*
X230000000Y-68000000D03*
X87500000Y-75500000D03*
X230000000Y-53000000D03*
X142000000Y-53500000D03*
X155000000Y-63000000D03*
X140000000Y-68000000D03*
X142500000Y-80500000D03*
X262500000Y-74250000D03*
X42500000Y-85500000D03*
X50000000Y-72750000D03*
X187500000Y-60500000D03*
X225000000Y-55500000D03*
X95000000Y-68000000D03*
X125000000Y-68000000D03*
X220000000Y-58000000D03*
X202500000Y-70500000D03*
X112500000Y-70500000D03*
X120000000Y-68000000D03*
X252500000Y-85500000D03*
X235000000Y-68000000D03*
X75000000Y-88000000D03*
X255000000Y-74250000D03*
X127500000Y-75500000D03*
X212500000Y-85500000D03*
X67500000Y-65500000D03*
X115000000Y-68000000D03*
X226000000Y-54500000D03*
X52500000Y-70500000D03*
X99500000Y-53500000D03*
X72500000Y-55500000D03*
X50000000Y-53000000D03*
X80000000Y-78000000D03*
X112500000Y-80500000D03*
X125000000Y-78000000D03*
X160000000Y-63000000D03*
X250000000Y-73000000D03*
X242500000Y-85500000D03*
X90000000Y-68000000D03*
X256500000Y-72750000D03*
X105000000Y-63000000D03*
X50000000Y-78000000D03*
X137500000Y-55500000D03*
X77500000Y-80500000D03*
X112500000Y-85500000D03*
X84000000Y-53500000D03*
X162500000Y-75500000D03*
X109000000Y-63000000D03*
X48250000Y-85500000D03*
X80000000Y-83000000D03*
X177500000Y-60500000D03*
X147500000Y-70500000D03*
X52500000Y-80500000D03*
X65000000Y-55500000D03*
X100500000Y-52500000D03*
X243750000Y-55500000D03*
X210000000Y-83000000D03*
X52500000Y-60500000D03*
X80000000Y-53500000D03*
X50000000Y-74250000D03*
X59000000Y-53500000D03*
X160750000Y-53500000D03*
X199250000Y-55500000D03*
X122500000Y-65500000D03*
X50000000Y-66750000D03*
X201250000Y-55500000D03*
X224000000Y-52500000D03*
X212500000Y-60500000D03*
X187500000Y-85500000D03*
X140000000Y-55500000D03*
X118000000Y-53500000D03*
X107500000Y-65500000D03*
X215000000Y-53000000D03*
X160000000Y-68000000D03*
X87500000Y-65500000D03*
X44000000Y-65250000D03*
X144000000Y-53500000D03*
X103500000Y-55500000D03*
X190000000Y-58000000D03*
X145000000Y-83000000D03*
X75000000Y-73000000D03*
X242500000Y-75500000D03*
X245000000Y-63000000D03*
X177500000Y-65500000D03*
X190000000Y-78000000D03*
X105000000Y-68000000D03*
X240000000Y-63000000D03*
X207500000Y-75500000D03*
X95000000Y-78000000D03*
X117500000Y-70500000D03*
X142000000Y-55500000D03*
X112500000Y-65500000D03*
X130000000Y-88000000D03*
X252500000Y-55500000D03*
X150000000Y-58000000D03*
X172500000Y-65500000D03*
X165000000Y-88000000D03*
X147500000Y-85500000D03*
X222500000Y-60500000D03*
X241750000Y-55500000D03*
X65000000Y-78000000D03*
X197500000Y-75500000D03*
X203250000Y-53500000D03*
X239750000Y-55500000D03*
X210000000Y-88000000D03*
X62500000Y-60500000D03*
X170000000Y-63000000D03*
X120000000Y-63000000D03*
X70000000Y-78000000D03*
X142500000Y-65500000D03*
X264000000Y-74250000D03*
X186500000Y-53500000D03*
X235000000Y-88000000D03*
X44000000Y-74250000D03*
X217500000Y-60500000D03*
X70000000Y-83000000D03*
X82000000Y-53500000D03*
X50000000Y-71250000D03*
X247500000Y-75500000D03*
X115000000Y-83000000D03*
X140000000Y-73000000D03*
X65000000Y-68000000D03*
X60000000Y-73000000D03*
X87500000Y-85500000D03*
X42500000Y-72750000D03*
X232500000Y-80500000D03*
X252500000Y-80500000D03*
X256500000Y-74250000D03*
X147500000Y-80500000D03*
X62500000Y-80500000D03*
X67500000Y-70500000D03*
X152500000Y-65500000D03*
X65000000Y-53500000D03*
X180000000Y-78000000D03*
X100000000Y-83000000D03*
X212500000Y-70500000D03*
X102500000Y-60500000D03*
X110000000Y-53000000D03*
X195000000Y-68000000D03*
X72500000Y-65500000D03*
X235000000Y-78000000D03*
X52500000Y-55500000D03*
X162500000Y-80500000D03*
X205000000Y-73000000D03*
X162750000Y-53500000D03*
X117500000Y-65500000D03*
X95000000Y-73000000D03*
X202250000Y-52500000D03*
X217500000Y-80500000D03*
X170000000Y-73000000D03*
X223000000Y-55500000D03*
X120000000Y-83000000D03*
X255000000Y-71250000D03*
X127500000Y-70500000D03*
X202500000Y-65500000D03*
X240000000Y-68000000D03*
X80000000Y-58000000D03*
X115000000Y-88000000D03*
X180000000Y-58000000D03*
X245750000Y-53500000D03*
X220000000Y-88000000D03*
X245000000Y-68000000D03*
X117500000Y-75500000D03*
X215000000Y-88000000D03*
X41000000Y-69750000D03*
X135000000Y-63000000D03*
X75000000Y-53000000D03*
X92500000Y-60500000D03*
X180000000Y-83000000D03*
X140000000Y-83000000D03*
X186500000Y-55500000D03*
X117500000Y-80500000D03*
X164750000Y-55500000D03*
X70000000Y-88000000D03*
X255000000Y-72750000D03*
X123000000Y-52500000D03*
X257500000Y-60500000D03*
X147500000Y-60500000D03*
X112500000Y-75500000D03*
X245000000Y-83000000D03*
X82500000Y-60500000D03*
X202500000Y-75500000D03*
X50250000Y-83000000D03*
X200000000Y-78000000D03*
X225000000Y-78000000D03*
X177500000Y-70500000D03*
X130000000Y-68000000D03*
X92500000Y-80500000D03*
X50250000Y-88000000D03*
X90000000Y-88000000D03*
X258000000Y-66750000D03*
X146000000Y-55500000D03*
X100500000Y-54500000D03*
X135000000Y-58000000D03*
X72500000Y-70500000D03*
X181500000Y-54500000D03*
X167500000Y-70500000D03*
X227000000Y-53500000D03*
X120000000Y-88000000D03*
X124000000Y-55500000D03*
X120000000Y-55500000D03*
X57500000Y-85500000D03*
X115000000Y-73000000D03*
X252500000Y-65500000D03*
X240750000Y-52500000D03*
X182500000Y-65500000D03*
X70000000Y-68000000D03*
X161750000Y-52500000D03*
X127500000Y-60500000D03*
X64000000Y-54500000D03*
X227500000Y-80500000D03*
X60000000Y-63000000D03*
X48500000Y-74250000D03*
X167500000Y-75500000D03*
X85000000Y-73000000D03*
X43500000Y-83000000D03*
X172500000Y-75500000D03*
X187500000Y-80500000D03*
X226000000Y-52500000D03*
X185000000Y-78000000D03*
X237500000Y-65500000D03*
X207500000Y-60500000D03*
X132500000Y-70500000D03*
X250000000Y-68000000D03*
X110000000Y-83000000D03*
X110000000Y-68000000D03*
X235000000Y-53000000D03*
X217500000Y-70500000D03*
X82000000Y-55500000D03*
X143000000Y-54500000D03*
X190000000Y-53000000D03*
X48500000Y-65250000D03*
X70000000Y-58000000D03*
X264000000Y-72750000D03*
X75000000Y-78000000D03*
X215000000Y-63000000D03*
X112500000Y-55500000D03*
X235000000Y-73000000D03*
X155000000Y-83000000D03*
X100000000Y-63000000D03*
X50000000Y-75750000D03*
X82500000Y-80500000D03*
X185000000Y-88000000D03*
X87500000Y-60500000D03*
X50000000Y-69750000D03*
X232500000Y-55500000D03*
X215000000Y-68000000D03*
X62500000Y-65500000D03*
X261000000Y-65250000D03*
X255000000Y-58000000D03*
X207500000Y-85500000D03*
X225000000Y-63000000D03*
X220000000Y-83000000D03*
X192500000Y-65500000D03*
X147500000Y-65500000D03*
X243750000Y-53500000D03*
X239750000Y-53500000D03*
X177500000Y-55500000D03*
X132500000Y-85500000D03*
X87500000Y-80500000D03*
X175000000Y-73000000D03*
X185000000Y-83000000D03*
X60000000Y-83000000D03*
X232500000Y-85500000D03*
X200000000Y-58000000D03*
X207500000Y-70500000D03*
X207500000Y-55500000D03*
X221000000Y-55500000D03*
X165000000Y-58000000D03*
X236500000Y-63000000D03*
X217500000Y-65500000D03*
X192500000Y-85500000D03*
X43500000Y-88000000D03*
X135000000Y-73000000D03*
X232500000Y-60500000D03*
X157500000Y-65500000D03*
X67500000Y-55500000D03*
X130000000Y-63000000D03*
X245750000Y-55500000D03*
X175000000Y-63000000D03*
X105000000Y-58000000D03*
X104500000Y-52500000D03*
X247500000Y-60500000D03*
X183500000Y-54500000D03*
X150000000Y-73000000D03*
X41000000Y-65250000D03*
X182500000Y-60500000D03*
X157500000Y-70500000D03*
X145000000Y-54500000D03*
X264000000Y-75750000D03*
X143000000Y-52500000D03*
X172500000Y-80500000D03*
X192500000Y-70500000D03*
X217500000Y-75500000D03*
X250000000Y-78000000D03*
X150000000Y-88000000D03*
X130000000Y-78000000D03*
X105500000Y-55500000D03*
X127500000Y-65500000D03*
X77500000Y-75500000D03*
X158750000Y-55500000D03*
X67500000Y-60500000D03*
X185500000Y-52500000D03*
X57500000Y-80500000D03*
X172500000Y-85500000D03*
X100000000Y-68000000D03*
X130000000Y-53000000D03*
X155000000Y-88000000D03*
X197500000Y-60500000D03*
X72500000Y-75500000D03*
X247500000Y-65500000D03*
X122000000Y-55500000D03*
X135000000Y-68000000D03*
X175000000Y-78000000D03*
X115000000Y-53000000D03*
X212500000Y-65500000D03*
X145000000Y-52500000D03*
X197500000Y-80500000D03*
X247500000Y-55500000D03*
X147500000Y-75500000D03*
X95000000Y-53000000D03*
X81000000Y-54500000D03*
X85000000Y-83000000D03*
X197500000Y-85500000D03*
X95000000Y-63000000D03*
X195000000Y-78000000D03*
X190000000Y-63000000D03*
X190000000Y-83000000D03*
X57500000Y-60500000D03*
X107500000Y-60500000D03*
X68500000Y-63000000D03*
X42500000Y-80500000D03*
X170000000Y-53000000D03*
X192500000Y-55500000D03*
X260000000Y-62250000D03*
X80000000Y-88000000D03*
X65000000Y-63000000D03*
X142500000Y-75500000D03*
X258000000Y-65250000D03*
X160000000Y-83000000D03*
X264000000Y-66750000D03*
X103500000Y-53500000D03*
X260000000Y-83000000D03*
X262500000Y-88000000D03*
X80000000Y-73000000D03*
X55000000Y-78000000D03*
X207500000Y-80500000D03*
X212500000Y-55500000D03*
X92500000Y-70500000D03*
X145000000Y-78000000D03*
X162500000Y-70500000D03*
X62500000Y-85500000D03*
X258000000Y-74250000D03*
X202500000Y-80500000D03*
X52500000Y-65500000D03*
X242500000Y-60500000D03*
X150000000Y-78000000D03*
X142500000Y-70500000D03*
X261000000Y-66750000D03*
X210000000Y-73000000D03*
X245000000Y-88000000D03*
X200000000Y-88000000D03*
X122500000Y-85500000D03*
X250000000Y-53000000D03*
X97500000Y-75500000D03*
X77500000Y-85500000D03*
X57500000Y-75500000D03*
X110000000Y-58000000D03*
X172500000Y-55500000D03*
X157500000Y-60500000D03*
X183500000Y-52500000D03*
X77500000Y-70500000D03*
X244750000Y-54500000D03*
X78000000Y-55500000D03*
X140000000Y-78000000D03*
X184500000Y-55500000D03*
X122500000Y-60500000D03*
X245000000Y-78000000D03*
X221000000Y-53500000D03*
X255000000Y-66750000D03*
X220000000Y-63000000D03*
X122500000Y-75500000D03*
X262500000Y-75750000D03*
X83000000Y-54500000D03*
X222500000Y-65500000D03*
X210000000Y-68000000D03*
X100000000Y-73000000D03*
X82500000Y-65500000D03*
X60000000Y-68000000D03*
X42500000Y-66750000D03*
X262500000Y-60500000D03*
X200000000Y-68000000D03*
X170000000Y-78000000D03*
X196000000Y-63000000D03*
X224000000Y-54500000D03*
X220000000Y-78000000D03*
X147500000Y-55500000D03*
X210000000Y-63000000D03*
X85000000Y-78000000D03*
X200000000Y-83000000D03*
X97500000Y-55500000D03*
X127500000Y-80500000D03*
X262780468Y-70572377D03*
X145000000Y-73000000D03*
X48500000Y-72750000D03*
X157500000Y-76000000D03*
X125000000Y-63000000D03*
X61000000Y-55500000D03*
X162500000Y-60500000D03*
X262500000Y-86250000D03*
X65000000Y-83000000D03*
X241750000Y-53500000D03*
X227000000Y-55500000D03*
X42201451Y-70556250D03*
X140000000Y-58000000D03*
X190000000Y-73000000D03*
X64000000Y-52500000D03*
X259500000Y-75750000D03*
X215000000Y-83000000D03*
X115000000Y-78000000D03*
X152500000Y-85500000D03*
X72500000Y-80500000D03*
X175000000Y-53000000D03*
X195000000Y-73000000D03*
X107500000Y-80500000D03*
X102500000Y-52500000D03*
X83000000Y-52500000D03*
X82500000Y-70500000D03*
X155000000Y-68000000D03*
X205000000Y-68000000D03*
X48500000Y-68250000D03*
X107500000Y-70500000D03*
X201250000Y-53500000D03*
X50000000Y-58000000D03*
X77500000Y-65500000D03*
X120000000Y-73000000D03*
X142500000Y-60500000D03*
X240000000Y-73000000D03*
X230000000Y-58000000D03*
X175000000Y-83000000D03*
X82500000Y-85500000D03*
X187500000Y-70500000D03*
X82500000Y-75500000D03*
X97500000Y-65500000D03*
X135000000Y-88000000D03*
X185000000Y-73000000D03*
X182500000Y-75500000D03*
X101500000Y-55500000D03*
X235000000Y-58000000D03*
X70000000Y-53000000D03*
X105000000Y-78000000D03*
X137500000Y-65500000D03*
X90000000Y-58000000D03*
X165000000Y-83000000D03*
X120000000Y-53500000D03*
X162500000Y-85500000D03*
X65000000Y-88000000D03*
X215000000Y-58000000D03*
X137500000Y-85500000D03*
X45500000Y-74250000D03*
X57500000Y-70500000D03*
X137500000Y-70500000D03*
X95000000Y-83000000D03*
X167500000Y-65500000D03*
X120000000Y-58000000D03*
X257500000Y-80500000D03*
X55000000Y-58000000D03*
X215000000Y-78000000D03*
X262500000Y-68250000D03*
X245000000Y-58000000D03*
X125000000Y-88000000D03*
X250000000Y-83000000D03*
X212500000Y-80500000D03*
X247500000Y-85500000D03*
X256500000Y-66750000D03*
X245000000Y-73000000D03*
X119000000Y-52500000D03*
X222500000Y-80500000D03*
X92500000Y-55500000D03*
X161750000Y-54500000D03*
X220000000Y-68000000D03*
X242750000Y-54500000D03*
X122000000Y-53500000D03*
X45000000Y-61500000D03*
X205000000Y-88000000D03*
X160000000Y-78000000D03*
X199250000Y-53500000D03*
X97500000Y-80500000D03*
X182500000Y-70500000D03*
X185500000Y-54500000D03*
X222000000Y-52500000D03*
X203250000Y-55500000D03*
X63000000Y-53500000D03*
X227500000Y-65500000D03*
X223000000Y-53500000D03*
X121000000Y-54500000D03*
X72500000Y-85500000D03*
X59000000Y-55500000D03*
X112500000Y-60500000D03*
X255000000Y-78000000D03*
X145000000Y-63000000D03*
X107500000Y-55500000D03*
X132500000Y-80500000D03*
X185000000Y-58000000D03*
X152500000Y-70500000D03*
X200250000Y-54500000D03*
X102500000Y-80500000D03*
X145000000Y-88000000D03*
X55000000Y-88000000D03*
X90000000Y-63000000D03*
X182500000Y-53500000D03*
X102500000Y-75500000D03*
X44000000Y-66750000D03*
X180000000Y-88000000D03*
X255000000Y-88000000D03*
X159750000Y-54500000D03*
X197500000Y-55500000D03*
X205000000Y-58000000D03*
X247500000Y-70500000D03*
X227500000Y-60500000D03*
X75000000Y-83000000D03*
X41000000Y-66750000D03*
X55000000Y-73000000D03*
X57500000Y-65500000D03*
X45500000Y-75750000D03*
X240750000Y-54500000D03*
X180500000Y-55500000D03*
X255000000Y-69750000D03*
X197500000Y-70500000D03*
X262500000Y-66750000D03*
X92500000Y-85500000D03*
X262500000Y-80500000D03*
X256201451Y-70556250D03*
X264000000Y-68250000D03*
X242500000Y-65500000D03*
X60000000Y-58000000D03*
X227500000Y-70500000D03*
X200000000Y-63000000D03*
X205250000Y-53500000D03*
X92500000Y-65500000D03*
X97500000Y-85500000D03*
X50000000Y-63000000D03*
X150000000Y-53000000D03*
X230000000Y-88000000D03*
X42500000Y-65250000D03*
X164750000Y-53500000D03*
X90000000Y-78000000D03*
X87500000Y-70500000D03*
X146000000Y-53500000D03*
X45500000Y-65250000D03*
X52500000Y-85500000D03*
X225000000Y-68000000D03*
X102500000Y-85500000D03*
X45000000Y-78000000D03*
X240000000Y-58000000D03*
X61000000Y-53500000D03*
X135000000Y-83000000D03*
X244750000Y-52500000D03*
X259500000Y-74250000D03*
X105000000Y-88000000D03*
X247500000Y-80500000D03*
X252500000Y-70500000D03*
X152500000Y-60500000D03*
X185000000Y-63000000D03*
X225000000Y-88000000D03*
X100000000Y-78000000D03*
X157500000Y-80500000D03*
X140000000Y-63000000D03*
X227500000Y-75500000D03*
X87500000Y-55500000D03*
X95000000Y-58000000D03*
X175000000Y-88000000D03*
X130000000Y-83000000D03*
X210000000Y-78000000D03*
X50000000Y-65250000D03*
X242750000Y-52500000D03*
X215000000Y-73000000D03*
X95000000Y-88000000D03*
X80000000Y-55500000D03*
X170000000Y-68000000D03*
X187500000Y-75500000D03*
X150000000Y-68000000D03*
X122500000Y-70500000D03*
X202500000Y-85500000D03*
X75000000Y-68000000D03*
X163750000Y-52500000D03*
X177500000Y-75500000D03*
X125000000Y-73000000D03*
X255000000Y-65250000D03*
X137500000Y-80500000D03*
X160750000Y-55500000D03*
X250000000Y-63000000D03*
X50000000Y-68250000D03*
X132500000Y-75500000D03*
X80000000Y-63000000D03*
X220000000Y-108000000D03*
X225000000Y-98000000D03*
X200250000Y-127500000D03*
X48500000Y-112750000D03*
X264000000Y-115750000D03*
X185000000Y-108000000D03*
X190000000Y-93000000D03*
X240000000Y-98000000D03*
X250000000Y-93000000D03*
X250000000Y-98000000D03*
X256500000Y-114250000D03*
X212500000Y-105500000D03*
X60000000Y-98000000D03*
X195000000Y-123000000D03*
X68500000Y-118000000D03*
X140000000Y-93000000D03*
X160750000Y-126500000D03*
X252500000Y-95500000D03*
X112500000Y-105500000D03*
X87500000Y-120500000D03*
X232500000Y-100500000D03*
X70000000Y-93000000D03*
X137500000Y-115500000D03*
X57500000Y-110500000D03*
X63250000Y-126500000D03*
X258000000Y-115750000D03*
X142500000Y-120500000D03*
X215000000Y-98000000D03*
X90000000Y-93000000D03*
X155000000Y-118000000D03*
X159750000Y-125500000D03*
X52500000Y-100500000D03*
X60250000Y-127500000D03*
X205250000Y-128500000D03*
X197500000Y-110500000D03*
X122500000Y-105500000D03*
X130000000Y-128000000D03*
X50000000Y-123000000D03*
X95000000Y-93000000D03*
X112500000Y-95500000D03*
X170000000Y-113000000D03*
X117500000Y-100500000D03*
X60000000Y-103000000D03*
X80750000Y-127500000D03*
X230000000Y-128000000D03*
X81750000Y-126500000D03*
X210000000Y-93000000D03*
X162500000Y-110500000D03*
X223000000Y-126500000D03*
X192500000Y-120500000D03*
X140000000Y-118000000D03*
X215000000Y-113000000D03*
X264000000Y-112750000D03*
X70000000Y-103000000D03*
X217500000Y-95500000D03*
X167500000Y-120500000D03*
X185000000Y-113000000D03*
X226000000Y-127500000D03*
X44000000Y-114250000D03*
X200000000Y-108000000D03*
X162750000Y-126500000D03*
X227500000Y-115500000D03*
X161750000Y-125500000D03*
X200000000Y-118000000D03*
X95000000Y-98000000D03*
X122250000Y-126500000D03*
X170000000Y-108000000D03*
X222000000Y-127500000D03*
X162500000Y-95500000D03*
X117500000Y-120500000D03*
X230000000Y-108000000D03*
X92500000Y-95500000D03*
X48250000Y-95500000D03*
X245000000Y-108000000D03*
X67500000Y-100500000D03*
X145000000Y-118000000D03*
X200250000Y-125500000D03*
X85000000Y-93000000D03*
X127500000Y-110500000D03*
X72500000Y-105500000D03*
X107500000Y-115500000D03*
X75000000Y-128000000D03*
X262500000Y-112750000D03*
X203250000Y-126500000D03*
X135000000Y-108000000D03*
X85000000Y-113000000D03*
X61250000Y-128500000D03*
X77500000Y-110500000D03*
X122500000Y-120500000D03*
X65000000Y-93000000D03*
X205000000Y-93000000D03*
X121250000Y-127500000D03*
X112500000Y-120500000D03*
X262500000Y-95500000D03*
X72500000Y-110500000D03*
X182500000Y-105500000D03*
X205000000Y-118000000D03*
X212500000Y-100500000D03*
X225000000Y-113000000D03*
X260000000Y-98000000D03*
X262500000Y-100500000D03*
X222000000Y-125500000D03*
X64250000Y-127500000D03*
X97500000Y-120500000D03*
X227500000Y-100500000D03*
X256500000Y-108250000D03*
X150000000Y-128000000D03*
X157500000Y-95500000D03*
X243750000Y-126500000D03*
X207500000Y-100500000D03*
X160000000Y-98000000D03*
X195000000Y-108000000D03*
X172500000Y-95500000D03*
X172500000Y-115500000D03*
X105500000Y-128500000D03*
X45000000Y-103000000D03*
X47000000Y-115750000D03*
X225000000Y-108000000D03*
X70000000Y-108000000D03*
X230000000Y-123000000D03*
X62500000Y-115500000D03*
X150000000Y-103000000D03*
X55000000Y-113000000D03*
X72500000Y-120500000D03*
X92500000Y-105500000D03*
X137500000Y-100500000D03*
X50250000Y-93000000D03*
X203250000Y-128500000D03*
X210000000Y-98000000D03*
X150000000Y-118000000D03*
X202500000Y-105500000D03*
X82500000Y-115500000D03*
X205000000Y-113000000D03*
X60000000Y-113000000D03*
X215000000Y-108000000D03*
X235000000Y-123000000D03*
X95000000Y-123000000D03*
X175000000Y-123000000D03*
X47000000Y-105250000D03*
X165000000Y-113000000D03*
X85000000Y-103000000D03*
X112500000Y-110500000D03*
X79750000Y-128500000D03*
X185000000Y-123000000D03*
X177500000Y-95500000D03*
X42500000Y-105250000D03*
X262500000Y-115750000D03*
X255000000Y-114250000D03*
X102500000Y-105500000D03*
X130000000Y-98000000D03*
X162500000Y-100500000D03*
X44000000Y-115750000D03*
X217500000Y-125500000D03*
X247500000Y-105500000D03*
X147500000Y-95500000D03*
X180500000Y-126500000D03*
X83750000Y-128500000D03*
X52500000Y-125500000D03*
X165000000Y-103000000D03*
X172500000Y-100500000D03*
X202250000Y-125500000D03*
X181500000Y-125500000D03*
X127500000Y-115500000D03*
X65250000Y-126500000D03*
X195000000Y-128000000D03*
X222500000Y-95500000D03*
X162500000Y-120500000D03*
X157500000Y-120500000D03*
X147500000Y-100500000D03*
X185000000Y-98000000D03*
X212500000Y-115500000D03*
X207500000Y-115500000D03*
X212500000Y-120500000D03*
X125000000Y-108000000D03*
X255000000Y-112750000D03*
X245000000Y-113000000D03*
X255000000Y-108250000D03*
X240750000Y-125500000D03*
X67500000Y-120500000D03*
X135000000Y-113000000D03*
X210000000Y-128000000D03*
X240000000Y-123000000D03*
X158750000Y-126500000D03*
X60250000Y-125500000D03*
X50000000Y-105250000D03*
X170000000Y-103000000D03*
X262500000Y-105250000D03*
X217500000Y-115500000D03*
X255000000Y-118000000D03*
X200000000Y-103000000D03*
X50000000Y-128000000D03*
X235000000Y-103000000D03*
X120000000Y-118000000D03*
X123250000Y-125500000D03*
X200000000Y-98000000D03*
X250000000Y-108000000D03*
X72500000Y-100500000D03*
X235000000Y-108000000D03*
X232500000Y-95500000D03*
X177500000Y-105500000D03*
X257500000Y-120500000D03*
X252500000Y-110500000D03*
X78750000Y-127500000D03*
X52500000Y-120500000D03*
X250000000Y-123000000D03*
X259500000Y-115750000D03*
X210000000Y-103000000D03*
X60000000Y-123000000D03*
X77500000Y-120500000D03*
X255000000Y-111250000D03*
X247500000Y-115500000D03*
X70000000Y-128000000D03*
X110000000Y-123000000D03*
X145000000Y-98000000D03*
X155000000Y-123000000D03*
X252500000Y-100500000D03*
X185500000Y-125500000D03*
X252500000Y-115500000D03*
X199250000Y-128500000D03*
X264000000Y-111250000D03*
X184500000Y-128500000D03*
X65000000Y-118000000D03*
X41000000Y-115750000D03*
X175000000Y-98000000D03*
X120000000Y-98000000D03*
X90000000Y-98000000D03*
X100000000Y-93000000D03*
X222500000Y-105500000D03*
X242500000Y-120500000D03*
X225000000Y-123000000D03*
X220000000Y-113000000D03*
X92500000Y-100500000D03*
X72500000Y-95500000D03*
X90000000Y-123000000D03*
X110000000Y-128000000D03*
X240000000Y-103000000D03*
X80000000Y-108000000D03*
X187500000Y-115500000D03*
X105500000Y-126500000D03*
X167500000Y-105500000D03*
X225000000Y-126500000D03*
X250000000Y-103000000D03*
X222500000Y-100500000D03*
X240000000Y-93000000D03*
X150000000Y-113000000D03*
X247500000Y-125500000D03*
X205000000Y-108000000D03*
X60000000Y-108000000D03*
X85000000Y-98000000D03*
X204250000Y-127500000D03*
X222500000Y-115500000D03*
X57500000Y-105500000D03*
X222500000Y-110500000D03*
X157500000Y-125500000D03*
X70000000Y-98000000D03*
X177500000Y-100500000D03*
X190000000Y-113000000D03*
X125000000Y-103000000D03*
X242750000Y-127500000D03*
X99500000Y-128500000D03*
X45000000Y-118750000D03*
X237500000Y-105500000D03*
X140000000Y-128500000D03*
X135000000Y-98000000D03*
X217500000Y-100500000D03*
X197500000Y-115500000D03*
X97500000Y-105500000D03*
X120250000Y-126500000D03*
X187500000Y-105500000D03*
X127500000Y-125500000D03*
X190000000Y-128000000D03*
X75000000Y-103000000D03*
X50000000Y-109750000D03*
X230000000Y-113000000D03*
X52500000Y-115500000D03*
X183500000Y-127500000D03*
X197500000Y-120500000D03*
X42500000Y-115750000D03*
X90000000Y-118000000D03*
X75000000Y-113000000D03*
X181500000Y-127500000D03*
X182500000Y-115500000D03*
X122250000Y-128500000D03*
X237500000Y-95500000D03*
X241750000Y-126500000D03*
X57500000Y-100500000D03*
X264000000Y-105250000D03*
X172500000Y-105500000D03*
X127500000Y-120500000D03*
X172500000Y-110500000D03*
X212500000Y-125500000D03*
X120000000Y-108000000D03*
X135000000Y-103000000D03*
X42201451Y-110556250D03*
X120000000Y-113000000D03*
X239750000Y-126500000D03*
X122500000Y-115500000D03*
X143000000Y-127500000D03*
X119250000Y-125500000D03*
X247500000Y-95500000D03*
X145000000Y-93000000D03*
X140000000Y-108000000D03*
X75000000Y-123000000D03*
X61250000Y-126500000D03*
X77500000Y-115500000D03*
X140000000Y-126500000D03*
X223000000Y-128500000D03*
X187500000Y-95500000D03*
X82500000Y-95500000D03*
X220000000Y-93000000D03*
X264000000Y-106750000D03*
X177500000Y-110500000D03*
X217500000Y-120500000D03*
X232500000Y-105500000D03*
X50000000Y-112750000D03*
X55000000Y-93000000D03*
X130000000Y-103000000D03*
X82750000Y-127500000D03*
X177500000Y-115500000D03*
X41000000Y-111250000D03*
X144000000Y-128500000D03*
X220000000Y-118000000D03*
X120000000Y-93000000D03*
X97500000Y-125500000D03*
X62500000Y-105500000D03*
X163750000Y-127500000D03*
X225000000Y-103000000D03*
X175000000Y-103000000D03*
X215000000Y-103000000D03*
X162500000Y-115500000D03*
X252500000Y-120500000D03*
X150000000Y-93000000D03*
X123250000Y-127500000D03*
X100000000Y-118000000D03*
X118250000Y-126500000D03*
X170000000Y-128000000D03*
X260000000Y-103000000D03*
X50000000Y-103000000D03*
X264000000Y-108250000D03*
X115000000Y-113000000D03*
X145000000Y-123000000D03*
X97500000Y-95500000D03*
X125000000Y-118000000D03*
X237500000Y-120500000D03*
X79750000Y-126500000D03*
X235000000Y-98000000D03*
X60000000Y-118000000D03*
X175000000Y-93000000D03*
X50000000Y-118000000D03*
X255000000Y-109750000D03*
X163750000Y-125500000D03*
X102500000Y-110500000D03*
X44000000Y-105250000D03*
X75000000Y-118000000D03*
X107500000Y-125500000D03*
X77750000Y-128500000D03*
X180000000Y-98000000D03*
X227000000Y-126500000D03*
X261000000Y-115750000D03*
X155000000Y-98000000D03*
X264000000Y-114250000D03*
X50000000Y-98000000D03*
X230000000Y-93000000D03*
X102500000Y-125500000D03*
X52500000Y-110500000D03*
X48500000Y-114250000D03*
X215000000Y-93000000D03*
X100000000Y-123000000D03*
X87500000Y-110500000D03*
X177500000Y-125500000D03*
X207500000Y-95500000D03*
X80000000Y-113000000D03*
X110000000Y-93000000D03*
X124250000Y-126500000D03*
X72500000Y-125500000D03*
X41000000Y-109750000D03*
X132500000Y-115500000D03*
X245000000Y-103000000D03*
X187500000Y-120500000D03*
X195000000Y-113000000D03*
X99500000Y-126500000D03*
X225000000Y-128500000D03*
X85000000Y-118000000D03*
X259500000Y-106750000D03*
X162750000Y-128500000D03*
X207500000Y-105500000D03*
X227000000Y-128500000D03*
X202500000Y-115500000D03*
X165000000Y-123000000D03*
X120250000Y-128500000D03*
X247500000Y-120500000D03*
X117500000Y-110500000D03*
X82750000Y-125500000D03*
X70000000Y-123000000D03*
X112500000Y-115500000D03*
X87500000Y-95500000D03*
X47500000Y-100500000D03*
X250000000Y-128000000D03*
X112500000Y-125500000D03*
X256201451Y-110556250D03*
X130000000Y-93000000D03*
X82500000Y-105500000D03*
X80000000Y-123000000D03*
X57500000Y-95500000D03*
X237500000Y-110500000D03*
X102500000Y-95500000D03*
X59250000Y-128500000D03*
X255000000Y-115750000D03*
X41000000Y-106750000D03*
X77500000Y-100500000D03*
X256500000Y-106750000D03*
X210000000Y-113000000D03*
X144000000Y-126500000D03*
X165000000Y-98000000D03*
X101500000Y-126500000D03*
X92500000Y-115500000D03*
X200000000Y-113000000D03*
X152500000Y-120500000D03*
X215000000Y-123000000D03*
X120000000Y-103000000D03*
X104500000Y-127500000D03*
X122500000Y-110500000D03*
X107500000Y-110500000D03*
X97500000Y-110500000D03*
X142500000Y-100500000D03*
X55000000Y-98000000D03*
X230000000Y-118000000D03*
X244750000Y-125500000D03*
X230000000Y-98000000D03*
X45500000Y-114250000D03*
X67500000Y-125500000D03*
X180000000Y-103000000D03*
X132500000Y-120500000D03*
X48780468Y-110572377D03*
X42500000Y-112750000D03*
X127500000Y-100500000D03*
X90000000Y-113000000D03*
X242500000Y-115500000D03*
X43500000Y-98000000D03*
X90000000Y-108000000D03*
X180000000Y-93000000D03*
X170000000Y-118000000D03*
X122500000Y-95500000D03*
X117500000Y-95500000D03*
X146000000Y-126500000D03*
X145000000Y-125500000D03*
X102500000Y-127500000D03*
X115000000Y-128000000D03*
X177500000Y-120500000D03*
X48500000Y-115750000D03*
X175000000Y-118000000D03*
X41000000Y-114250000D03*
X65250000Y-128500000D03*
X146000000Y-128500000D03*
X245750000Y-126500000D03*
X72500000Y-115500000D03*
X150000000Y-108000000D03*
X202250000Y-127500000D03*
X142500000Y-110500000D03*
X182500000Y-126500000D03*
X87500000Y-100500000D03*
X105000000Y-103000000D03*
X65000000Y-113000000D03*
X199250000Y-126500000D03*
X207500000Y-120500000D03*
X210000000Y-118000000D03*
X197500000Y-95500000D03*
X157500000Y-100500000D03*
X255000000Y-103000000D03*
X127500000Y-105500000D03*
X212500000Y-110500000D03*
X167500000Y-100500000D03*
X41000000Y-112750000D03*
X164750000Y-126500000D03*
X187500000Y-100500000D03*
X202500000Y-100500000D03*
X152500000Y-115500000D03*
X65000000Y-98000000D03*
X150000000Y-98000000D03*
X152500000Y-100500000D03*
X105000000Y-118000000D03*
X60000000Y-93000000D03*
X245750000Y-128500000D03*
X250000000Y-118000000D03*
X103500000Y-126500000D03*
X200000000Y-93000000D03*
X185000000Y-118000000D03*
X200000000Y-123000000D03*
X41000000Y-105250000D03*
X152500000Y-125500000D03*
X175000000Y-113000000D03*
X180000000Y-118000000D03*
X167500000Y-110500000D03*
X52500000Y-105500000D03*
X141000000Y-127500000D03*
X50000000Y-114250000D03*
X120000000Y-123000000D03*
X122500000Y-100500000D03*
X256500000Y-115750000D03*
X125000000Y-98000000D03*
X118250000Y-128500000D03*
X95000000Y-108000000D03*
X80000000Y-98000000D03*
X124250000Y-128500000D03*
X101500000Y-128500000D03*
X180000000Y-123000000D03*
X152500000Y-105500000D03*
X145000000Y-108000000D03*
X52500000Y-95500000D03*
X250000000Y-113000000D03*
X117500000Y-105500000D03*
X255000000Y-123000000D03*
X121250000Y-125500000D03*
X137500000Y-105500000D03*
X115000000Y-103000000D03*
X261000000Y-114250000D03*
X207500000Y-125500000D03*
X47000000Y-106750000D03*
X67500000Y-95500000D03*
X62500000Y-100500000D03*
X205250000Y-126500000D03*
X184500000Y-126500000D03*
X143000000Y-125500000D03*
X105000000Y-123000000D03*
X201250000Y-128500000D03*
X85000000Y-108000000D03*
X105000000Y-108000000D03*
X130000000Y-123000000D03*
X48500000Y-108250000D03*
X50000000Y-106750000D03*
X232500000Y-110500000D03*
X259500000Y-114250000D03*
X140000000Y-103000000D03*
X80750000Y-125500000D03*
X50000000Y-108250000D03*
X240000000Y-118000000D03*
X102500000Y-120500000D03*
X65000000Y-108000000D03*
X261000000Y-105250000D03*
X165000000Y-108000000D03*
X87500000Y-125500000D03*
X48500000Y-106750000D03*
X167500000Y-115500000D03*
X221000000Y-128500000D03*
X262500000Y-114250000D03*
X227500000Y-105500000D03*
X105000000Y-93000000D03*
X257500000Y-100500000D03*
X242500000Y-100500000D03*
X100000000Y-103000000D03*
X221000000Y-126500000D03*
X210000000Y-108000000D03*
X182500000Y-110500000D03*
X175000000Y-128000000D03*
X100000000Y-98000000D03*
X183500000Y-125500000D03*
X137500000Y-120500000D03*
X119250000Y-127500000D03*
X135000000Y-118000000D03*
X132500000Y-95500000D03*
X42500000Y-100500000D03*
X240000000Y-113000000D03*
X242500000Y-110500000D03*
X201250000Y-126500000D03*
X142000000Y-126500000D03*
X252500000Y-125500000D03*
X130000000Y-113000000D03*
X145000000Y-113000000D03*
X187500000Y-110500000D03*
X107500000Y-95500000D03*
X160000000Y-113000000D03*
X41000000Y-108250000D03*
X217500000Y-105500000D03*
X182500000Y-120500000D03*
X252500000Y-105500000D03*
X82500000Y-100500000D03*
X190000000Y-108000000D03*
X135000000Y-93000000D03*
X157500000Y-115500000D03*
X160000000Y-93000000D03*
X145000000Y-103000000D03*
X55000000Y-118000000D03*
X104500000Y-125500000D03*
X97500000Y-115500000D03*
X237500000Y-115500000D03*
X55000000Y-103000000D03*
X95000000Y-103000000D03*
X155000000Y-93000000D03*
X103500000Y-128500000D03*
X67500000Y-115500000D03*
X240750000Y-127500000D03*
X230000000Y-103000000D03*
X170000000Y-93000000D03*
X62500000Y-120500000D03*
X45500000Y-105250000D03*
X50000000Y-115750000D03*
X125000000Y-123000000D03*
X100500000Y-127500000D03*
X197500000Y-125500000D03*
X160000000Y-118000000D03*
X185000000Y-93000000D03*
X245000000Y-93000000D03*
X160750000Y-128500000D03*
X81750000Y-128500000D03*
X80000000Y-118000000D03*
X90000000Y-103000000D03*
X42500000Y-106750000D03*
X157500000Y-110500000D03*
X108500000Y-118000000D03*
X260000000Y-118750000D03*
X232500000Y-115500000D03*
X225000000Y-118000000D03*
X244750000Y-127500000D03*
X167500000Y-95500000D03*
X232500000Y-120500000D03*
X57500000Y-125500000D03*
X82500000Y-110500000D03*
X62500000Y-95500000D03*
X220000000Y-123000000D03*
X55000000Y-123000000D03*
X82500000Y-120500000D03*
X170000000Y-98000000D03*
X92500000Y-125500000D03*
X42500000Y-108250000D03*
X55000000Y-128000000D03*
X205000000Y-123000000D03*
X140000000Y-113000000D03*
X247500000Y-110500000D03*
X115000000Y-123000000D03*
X180500000Y-128500000D03*
X212500000Y-95500000D03*
X155000000Y-103000000D03*
X110000000Y-103000000D03*
X215000000Y-118000000D03*
X150000000Y-123000000D03*
X182500000Y-100500000D03*
X202500000Y-120500000D03*
X227500000Y-95500000D03*
X242750000Y-125500000D03*
X197500000Y-100500000D03*
X159750000Y-127500000D03*
X102500000Y-115500000D03*
X192500000Y-125500000D03*
X75000000Y-93000000D03*
X105000000Y-98000000D03*
X262500000Y-120500000D03*
X67500000Y-110500000D03*
X258000000Y-106750000D03*
X258000000Y-105250000D03*
X48500000Y-105250000D03*
X235000000Y-128000000D03*
X137500000Y-125500000D03*
X185000000Y-103000000D03*
X64250000Y-125500000D03*
X237500000Y-125500000D03*
X190000000Y-123000000D03*
X140000000Y-123000000D03*
X180000000Y-108000000D03*
X130000000Y-108000000D03*
X75000000Y-108000000D03*
X115000000Y-98000000D03*
X47500000Y-120500000D03*
X130000000Y-118000000D03*
X162500000Y-105500000D03*
X142000000Y-128500000D03*
X102500000Y-100500000D03*
X255000000Y-128000000D03*
X237500000Y-100500000D03*
X142500000Y-105500000D03*
X262500000Y-108250000D03*
X160000000Y-108000000D03*
X205000000Y-103000000D03*
X50000000Y-111250000D03*
X42500000Y-95500000D03*
X83750000Y-126500000D03*
X227500000Y-110500000D03*
X145000000Y-127500000D03*
X57500000Y-120500000D03*
X100000000Y-113000000D03*
X247500000Y-100500000D03*
X67500000Y-105500000D03*
X256500000Y-105250000D03*
X155000000Y-128000000D03*
X95000000Y-113000000D03*
X80000000Y-93000000D03*
X160000000Y-123000000D03*
X204250000Y-125500000D03*
X245000000Y-123000000D03*
X65000000Y-103000000D03*
X202500000Y-95500000D03*
X225000000Y-93000000D03*
X235000000Y-113000000D03*
X232500000Y-125500000D03*
X215000000Y-128000000D03*
X92500000Y-120500000D03*
X100500000Y-125500000D03*
X157500000Y-105500000D03*
X220000000Y-98000000D03*
X132500000Y-100500000D03*
X95000000Y-128000000D03*
X186500000Y-128500000D03*
X140000000Y-98000000D03*
X57500000Y-115500000D03*
X186500000Y-126500000D03*
X197500000Y-105500000D03*
X95000000Y-118000000D03*
X92500000Y-110500000D03*
X160000000Y-103000000D03*
X255000000Y-98000000D03*
X262780468Y-110572377D03*
X43500000Y-93000000D03*
X182500000Y-95500000D03*
X152500000Y-110500000D03*
X165000000Y-118000000D03*
X42500000Y-120500000D03*
X137500000Y-110500000D03*
X80000000Y-103000000D03*
X65000000Y-123000000D03*
X45500000Y-106750000D03*
X242500000Y-105500000D03*
X125000000Y-113000000D03*
X44000000Y-106750000D03*
X264000000Y-109750000D03*
X245000000Y-98000000D03*
X164750000Y-128500000D03*
X127500000Y-95500000D03*
X207500000Y-110500000D03*
X172500000Y-125500000D03*
X182500000Y-128500000D03*
X258000000Y-114250000D03*
X105000000Y-113000000D03*
X262500000Y-106750000D03*
X85000000Y-123000000D03*
X141000000Y-125500000D03*
X195000000Y-93000000D03*
X62500000Y-110500000D03*
X59250000Y-126500000D03*
X77500000Y-105500000D03*
X77500000Y-95500000D03*
X107500000Y-105500000D03*
X42500000Y-114250000D03*
X90000000Y-128000000D03*
X170000000Y-123000000D03*
X242500000Y-95500000D03*
X180000000Y-113000000D03*
X192500000Y-110500000D03*
X195000000Y-98000000D03*
X235000000Y-93000000D03*
X165000000Y-93000000D03*
X243750000Y-128500000D03*
X224000000Y-127500000D03*
X45500000Y-115750000D03*
X210000000Y-123000000D03*
X259500000Y-105250000D03*
X47000000Y-114250000D03*
X205000000Y-98000000D03*
X107500000Y-100500000D03*
X222500000Y-120500000D03*
X172500000Y-120500000D03*
X117500000Y-115500000D03*
X236500000Y-118000000D03*
X185500000Y-127500000D03*
X190000000Y-118000000D03*
X195500000Y-118000000D03*
X87500000Y-115500000D03*
X132500000Y-105500000D03*
X55000000Y-108000000D03*
X115000000Y-118000000D03*
X135000000Y-123000000D03*
X142500000Y-95500000D03*
X142500000Y-115500000D03*
X255000000Y-105250000D03*
X87500000Y-105500000D03*
X241750000Y-128500000D03*
X132500000Y-110500000D03*
X110000000Y-98000000D03*
X192500000Y-105500000D03*
X63250000Y-128500000D03*
X256500000Y-112750000D03*
X75000000Y-98000000D03*
X125000000Y-93000000D03*
X155000000Y-113000000D03*
X195000000Y-103000000D03*
X115000000Y-108000000D03*
X70000000Y-113000000D03*
X190000000Y-98000000D03*
X135000000Y-128000000D03*
X217500000Y-110500000D03*
X115000000Y-93000000D03*
X137500000Y-95500000D03*
X110000000Y-108000000D03*
X78750000Y-125500000D03*
X227500000Y-120500000D03*
X202500000Y-110500000D03*
X245000000Y-118000000D03*
X239750000Y-128500000D03*
X161750000Y-127500000D03*
X158750000Y-128500000D03*
X155000000Y-108000000D03*
X167500000Y-125500000D03*
X255000000Y-106750000D03*
X107500000Y-120500000D03*
X220000000Y-103000000D03*
X175000000Y-108000000D03*
X240000000Y-108000000D03*
X192500000Y-95500000D03*
X132500000Y-125500000D03*
X192500000Y-100500000D03*
X190000000Y-103000000D03*
X100000000Y-108000000D03*
X110000000Y-113000000D03*
X77750000Y-126500000D03*
X97500000Y-100500000D03*
X62250000Y-125500000D03*
X152500000Y-95500000D03*
X261000000Y-106750000D03*
X62250000Y-127500000D03*
X112500000Y-100500000D03*
X192500000Y-115500000D03*
X224000000Y-125500000D03*
X226000000Y-125500000D03*
D17*
X258000000Y-93675000D02*
X258000000Y-87325000D01*
D18*
X255100000Y-89875000D02*
X255100000Y-89600000D01*
X255100000Y-89600000D02*
X254500000Y-89000000D01*
X255100000Y-91400000D02*
X254500000Y-92000000D01*
X255100000Y-91125000D02*
X255100000Y-91400000D01*
G04 #@! TA.AperFunction,Conductor*
G36*
X254143077Y-91502638D02*
G01*
X254317487Y-91539209D01*
X254342820Y-91540781D01*
X254418816Y-91545500D01*
X254418818Y-91545499D01*
X254418819Y-91545500D01*
X255629088Y-91545499D01*
X255696127Y-91565184D01*
X255741882Y-91617987D01*
X255751826Y-91687146D01*
X255722801Y-91750702D01*
X255709430Y-91763951D01*
X255671346Y-91796345D01*
X255512289Y-91983339D01*
X255512282Y-91983349D01*
X255385285Y-92193427D01*
X255385282Y-92193432D01*
X255293624Y-92421173D01*
X255293624Y-92421175D01*
X255239685Y-92660669D01*
X255239684Y-92660676D01*
X255229500Y-92804932D01*
X255229500Y-94545068D01*
X255239684Y-94689323D01*
X255239685Y-94689330D01*
X255293624Y-94928824D01*
X255293624Y-94928826D01*
X255385282Y-95156567D01*
X255512286Y-95366657D01*
X255512289Y-95366660D01*
X255671345Y-95553654D01*
X255781176Y-95647076D01*
X255858343Y-95712714D01*
X256068433Y-95839718D01*
X256296176Y-95931376D01*
X256535672Y-95985315D01*
X256679932Y-95995500D01*
X259320068Y-95995500D01*
X259464328Y-95985315D01*
X259703824Y-95931376D01*
X259931567Y-95839718D01*
X260141657Y-95712714D01*
X260328654Y-95553654D01*
X260487714Y-95366657D01*
X260614718Y-95156567D01*
X260706376Y-94928824D01*
X260760315Y-94689328D01*
X260770500Y-94545068D01*
X260770500Y-92804932D01*
X260760315Y-92660672D01*
X260706376Y-92421176D01*
X260614718Y-92193433D01*
X260487714Y-91983343D01*
X260422076Y-91906176D01*
X260328654Y-91796345D01*
X260237080Y-91718453D01*
X260198769Y-91660023D01*
X260198129Y-91590156D01*
X260235364Y-91531035D01*
X260298651Y-91501429D01*
X260317421Y-91500000D01*
X264375500Y-91500000D01*
X264442539Y-91519685D01*
X264488294Y-91572489D01*
X264499500Y-91624000D01*
X264499500Y-123379538D01*
X264479815Y-123446577D01*
X264427011Y-123492332D01*
X264357853Y-123502276D01*
X264294297Y-123473251D01*
X264281788Y-123460741D01*
X264239131Y-123411514D01*
X264239129Y-123411511D01*
X264224103Y-123397184D01*
X263930874Y-123117591D01*
X263930860Y-123117579D01*
X263596086Y-122854309D01*
X263406299Y-122732341D01*
X263237785Y-122624044D01*
X262859219Y-122428879D01*
X262859217Y-122428878D01*
X262463816Y-122270584D01*
X262463804Y-122270580D01*
X262055160Y-122150591D01*
X262055143Y-122150587D01*
X261636955Y-122069988D01*
X261636943Y-122069986D01*
X261495612Y-122056490D01*
X261212956Y-122029500D01*
X260787044Y-122029500D01*
X260532653Y-122053791D01*
X260363056Y-122069986D01*
X260363044Y-122069988D01*
X259944856Y-122150587D01*
X259944839Y-122150591D01*
X259536195Y-122270580D01*
X259536183Y-122270584D01*
X259140773Y-122428881D01*
X258762231Y-122624035D01*
X258762223Y-122624039D01*
X258403913Y-122854309D01*
X258069139Y-123117579D01*
X258069125Y-123117591D01*
X257760875Y-123411506D01*
X257481964Y-123733387D01*
X257234921Y-124080310D01*
X257234915Y-124080319D01*
X257021960Y-124449167D01*
X257021952Y-124449183D01*
X256845028Y-124836588D01*
X256845021Y-124836606D01*
X256705726Y-125239074D01*
X256705723Y-125239085D01*
X256605310Y-125652991D01*
X256544697Y-126074565D01*
X256524431Y-126500000D01*
X256544697Y-126925434D01*
X256605310Y-127347008D01*
X256705723Y-127760914D01*
X256705726Y-127760925D01*
X256845021Y-128163393D01*
X256845028Y-128163411D01*
X257021952Y-128550816D01*
X257021960Y-128550832D01*
X257234915Y-128919680D01*
X257234921Y-128919689D01*
X257464681Y-129242341D01*
X257481965Y-129266613D01*
X257760878Y-129588496D01*
X257967762Y-129785759D01*
X258002696Y-129846266D01*
X257999371Y-129916056D01*
X257958843Y-129972970D01*
X257893978Y-129998938D01*
X257882191Y-129999500D01*
X47117809Y-129999500D01*
X47050770Y-129979815D01*
X47005015Y-129927011D01*
X46995071Y-129857853D01*
X47024096Y-129794297D01*
X47032228Y-129785767D01*
X47239122Y-129588496D01*
X47518035Y-129266613D01*
X47765088Y-128919675D01*
X47978044Y-128550824D01*
X48072788Y-128343363D01*
X48154971Y-128163411D01*
X48154978Y-128163393D01*
X48294273Y-127760925D01*
X48294273Y-127760922D01*
X48294277Y-127760913D01*
X48394690Y-127347007D01*
X48455303Y-126925430D01*
X48475569Y-126500000D01*
X48455303Y-126074570D01*
X48394690Y-125652993D01*
X48294277Y-125239087D01*
X48294273Y-125239074D01*
X48154978Y-124836606D01*
X48154971Y-124836588D01*
X47978047Y-124449183D01*
X47978044Y-124449176D01*
X47765088Y-124080325D01*
X47765084Y-124080319D01*
X47765078Y-124080310D01*
X47518035Y-123733387D01*
X47239124Y-123411506D01*
X47224103Y-123397184D01*
X46930874Y-123117591D01*
X46930860Y-123117579D01*
X46596086Y-122854309D01*
X46406299Y-122732341D01*
X46237785Y-122624044D01*
X45859219Y-122428879D01*
X45859217Y-122428878D01*
X45463816Y-122270584D01*
X45463804Y-122270580D01*
X45055160Y-122150591D01*
X45055143Y-122150587D01*
X44636955Y-122069988D01*
X44636943Y-122069986D01*
X44495612Y-122056490D01*
X44212956Y-122029500D01*
X43787044Y-122029500D01*
X43532653Y-122053791D01*
X43363056Y-122069986D01*
X43363044Y-122069988D01*
X42944856Y-122150587D01*
X42944839Y-122150591D01*
X42536195Y-122270580D01*
X42536183Y-122270584D01*
X42140773Y-122428881D01*
X41762231Y-122624035D01*
X41762223Y-122624039D01*
X41403913Y-122854309D01*
X41069139Y-123117579D01*
X41069125Y-123117591D01*
X40760870Y-123411511D01*
X40760868Y-123411514D01*
X40718212Y-123460741D01*
X40659434Y-123498515D01*
X40589564Y-123498515D01*
X40530786Y-123460740D01*
X40501762Y-123397184D01*
X40500500Y-123379538D01*
X40500500Y-118234936D01*
X69699500Y-118234936D01*
X69739718Y-118501767D01*
X69739720Y-118501773D01*
X69819262Y-118759641D01*
X69936346Y-119002769D01*
X70088365Y-119225741D01*
X70271910Y-119423557D01*
X70271914Y-119423560D01*
X70271915Y-119423561D01*
X70482898Y-119591815D01*
X70716602Y-119726743D01*
X70967805Y-119825334D01*
X71230897Y-119885383D01*
X71259715Y-119887542D01*
X71432618Y-119900500D01*
X71432624Y-119900500D01*
X71567382Y-119900500D01*
X71718671Y-119889162D01*
X71769103Y-119885383D01*
X72032195Y-119825334D01*
X72283398Y-119726743D01*
X72517102Y-119591815D01*
X72728085Y-119423561D01*
X72911635Y-119225741D01*
X73063651Y-119002775D01*
X73180738Y-118759641D01*
X73260280Y-118501772D01*
X73300499Y-118234936D01*
X110199500Y-118234936D01*
X110239718Y-118501767D01*
X110239720Y-118501773D01*
X110319262Y-118759641D01*
X110436346Y-119002769D01*
X110588365Y-119225741D01*
X110771910Y-119423557D01*
X110771914Y-119423560D01*
X110771915Y-119423561D01*
X110982898Y-119591815D01*
X111216602Y-119726743D01*
X111467805Y-119825334D01*
X111730897Y-119885383D01*
X111759715Y-119887542D01*
X111932618Y-119900500D01*
X111932624Y-119900500D01*
X112067382Y-119900500D01*
X112218671Y-119889162D01*
X112269103Y-119885383D01*
X112532195Y-119825334D01*
X112783398Y-119726743D01*
X113017102Y-119591815D01*
X113228085Y-119423561D01*
X113411635Y-119225741D01*
X113563651Y-119002775D01*
X113680738Y-118759641D01*
X113760280Y-118501772D01*
X113800499Y-118234936D01*
X150699500Y-118234936D01*
X150739718Y-118501767D01*
X150739720Y-118501773D01*
X150819262Y-118759641D01*
X150936346Y-119002769D01*
X151088365Y-119225741D01*
X151271910Y-119423557D01*
X151271914Y-119423560D01*
X151271915Y-119423561D01*
X151482898Y-119591815D01*
X151716602Y-119726743D01*
X151967805Y-119825334D01*
X152230897Y-119885383D01*
X152259715Y-119887542D01*
X152432618Y-119900500D01*
X152432624Y-119900500D01*
X152567382Y-119900500D01*
X152718671Y-119889162D01*
X152769103Y-119885383D01*
X153032195Y-119825334D01*
X153283398Y-119726743D01*
X153517102Y-119591815D01*
X153728085Y-119423561D01*
X153911635Y-119225741D01*
X154063651Y-119002775D01*
X154180738Y-118759641D01*
X154260280Y-118501772D01*
X154300499Y-118234936D01*
X191199500Y-118234936D01*
X191239718Y-118501767D01*
X191239720Y-118501773D01*
X191319262Y-118759641D01*
X191436346Y-119002769D01*
X191588365Y-119225741D01*
X191771910Y-119423557D01*
X191771914Y-119423560D01*
X191771915Y-119423561D01*
X191982898Y-119591815D01*
X192216602Y-119726743D01*
X192467805Y-119825334D01*
X192730897Y-119885383D01*
X192759715Y-119887542D01*
X192932618Y-119900500D01*
X192932624Y-119900500D01*
X193067382Y-119900500D01*
X193218671Y-119889162D01*
X193269103Y-119885383D01*
X193532195Y-119825334D01*
X193783398Y-119726743D01*
X194017102Y-119591815D01*
X194228085Y-119423561D01*
X194411635Y-119225741D01*
X194563651Y-119002775D01*
X194680738Y-118759641D01*
X194760280Y-118501772D01*
X194800499Y-118234936D01*
X231699500Y-118234936D01*
X231739718Y-118501767D01*
X231739720Y-118501773D01*
X231819262Y-118759641D01*
X231936346Y-119002769D01*
X232088365Y-119225741D01*
X232271910Y-119423557D01*
X232271914Y-119423560D01*
X232271915Y-119423561D01*
X232482898Y-119591815D01*
X232716602Y-119726743D01*
X232967805Y-119825334D01*
X233230897Y-119885383D01*
X233259715Y-119887542D01*
X233432618Y-119900500D01*
X233432624Y-119900500D01*
X233567382Y-119900500D01*
X233718671Y-119889162D01*
X233769103Y-119885383D01*
X234032195Y-119825334D01*
X234283398Y-119726743D01*
X234517102Y-119591815D01*
X234728085Y-119423561D01*
X234911635Y-119225741D01*
X235063651Y-119002775D01*
X235180738Y-118759641D01*
X235260280Y-118501772D01*
X235300500Y-118234929D01*
X235300500Y-117965071D01*
X235260280Y-117698228D01*
X235180738Y-117440359D01*
X235063651Y-117197226D01*
X234911635Y-116974259D01*
X234901358Y-116963183D01*
X234728089Y-116776442D01*
X234687509Y-116744080D01*
X234517102Y-116608185D01*
X234283398Y-116473257D01*
X234283396Y-116473256D01*
X234032195Y-116374666D01*
X234032188Y-116374664D01*
X233769101Y-116314616D01*
X233567382Y-116299500D01*
X233567376Y-116299500D01*
X233432624Y-116299500D01*
X233432618Y-116299500D01*
X233230898Y-116314616D01*
X232967811Y-116374664D01*
X232967804Y-116374666D01*
X232716603Y-116473256D01*
X232716599Y-116473258D01*
X232482898Y-116608185D01*
X232271910Y-116776442D01*
X232088365Y-116974258D01*
X231936345Y-117197231D01*
X231936344Y-117197232D01*
X231819263Y-117440355D01*
X231739720Y-117698226D01*
X231739718Y-117698232D01*
X231699500Y-117965063D01*
X231699500Y-118234936D01*
X194800499Y-118234936D01*
X194800500Y-118234929D01*
X194800500Y-117965071D01*
X194760280Y-117698228D01*
X194680738Y-117440359D01*
X194563651Y-117197226D01*
X194411635Y-116974259D01*
X194401358Y-116963183D01*
X194228089Y-116776442D01*
X194187509Y-116744080D01*
X194017102Y-116608185D01*
X193783398Y-116473257D01*
X193783396Y-116473256D01*
X193532195Y-116374666D01*
X193532188Y-116374664D01*
X193269101Y-116314616D01*
X193067382Y-116299500D01*
X193067376Y-116299500D01*
X192932624Y-116299500D01*
X192932618Y-116299500D01*
X192730898Y-116314616D01*
X192467811Y-116374664D01*
X192467804Y-116374666D01*
X192216603Y-116473256D01*
X192216599Y-116473258D01*
X191982898Y-116608185D01*
X191771910Y-116776442D01*
X191588365Y-116974258D01*
X191436345Y-117197231D01*
X191436344Y-117197232D01*
X191319263Y-117440355D01*
X191239720Y-117698226D01*
X191239718Y-117698232D01*
X191199500Y-117965063D01*
X191199500Y-118234936D01*
X154300499Y-118234936D01*
X154300500Y-118234929D01*
X154300500Y-117965071D01*
X154260280Y-117698228D01*
X154180738Y-117440359D01*
X154063651Y-117197226D01*
X153911635Y-116974259D01*
X153901358Y-116963183D01*
X153728089Y-116776442D01*
X153687509Y-116744080D01*
X153517102Y-116608185D01*
X153283398Y-116473257D01*
X153283396Y-116473256D01*
X153032195Y-116374666D01*
X153032188Y-116374664D01*
X152769101Y-116314616D01*
X152567382Y-116299500D01*
X152567376Y-116299500D01*
X152432624Y-116299500D01*
X152432618Y-116299500D01*
X152230898Y-116314616D01*
X151967811Y-116374664D01*
X151967804Y-116374666D01*
X151716603Y-116473256D01*
X151716599Y-116473258D01*
X151482898Y-116608185D01*
X151271910Y-116776442D01*
X151088365Y-116974258D01*
X150936345Y-117197231D01*
X150936344Y-117197232D01*
X150819263Y-117440355D01*
X150739720Y-117698226D01*
X150739718Y-117698232D01*
X150699500Y-117965063D01*
X150699500Y-118234936D01*
X113800499Y-118234936D01*
X113800500Y-118234929D01*
X113800500Y-117965071D01*
X113760280Y-117698228D01*
X113680738Y-117440359D01*
X113563651Y-117197226D01*
X113411635Y-116974259D01*
X113401358Y-116963183D01*
X113228089Y-116776442D01*
X113187509Y-116744080D01*
X113017102Y-116608185D01*
X112783398Y-116473257D01*
X112783396Y-116473256D01*
X112532195Y-116374666D01*
X112532188Y-116374664D01*
X112269101Y-116314616D01*
X112067382Y-116299500D01*
X112067376Y-116299500D01*
X111932624Y-116299500D01*
X111932618Y-116299500D01*
X111730898Y-116314616D01*
X111467811Y-116374664D01*
X111467804Y-116374666D01*
X111216603Y-116473256D01*
X111216599Y-116473258D01*
X110982898Y-116608185D01*
X110771910Y-116776442D01*
X110588365Y-116974258D01*
X110436345Y-117197231D01*
X110436344Y-117197232D01*
X110319263Y-117440355D01*
X110239720Y-117698226D01*
X110239718Y-117698232D01*
X110199500Y-117965063D01*
X110199500Y-118234936D01*
X73300499Y-118234936D01*
X73300500Y-118234929D01*
X73300500Y-117965071D01*
X73260280Y-117698228D01*
X73180738Y-117440359D01*
X73063651Y-117197226D01*
X72911635Y-116974259D01*
X72901358Y-116963183D01*
X72728089Y-116776442D01*
X72687509Y-116744080D01*
X72517102Y-116608185D01*
X72283398Y-116473257D01*
X72283396Y-116473256D01*
X72032195Y-116374666D01*
X72032188Y-116374664D01*
X71769101Y-116314616D01*
X71567382Y-116299500D01*
X71567376Y-116299500D01*
X71432624Y-116299500D01*
X71432618Y-116299500D01*
X71230898Y-116314616D01*
X70967811Y-116374664D01*
X70967804Y-116374666D01*
X70716603Y-116473256D01*
X70716599Y-116473258D01*
X70482898Y-116608185D01*
X70271910Y-116776442D01*
X70088365Y-116974258D01*
X69936345Y-117197231D01*
X69936344Y-117197232D01*
X69819263Y-117440355D01*
X69739720Y-117698226D01*
X69739718Y-117698232D01*
X69699500Y-117965063D01*
X69699500Y-118234936D01*
X40500500Y-118234936D01*
X40500500Y-110415382D01*
X42645739Y-110415382D01*
X42650757Y-110584630D01*
X42655765Y-110753560D01*
X42689066Y-110976636D01*
X42705717Y-111088175D01*
X42794895Y-111414535D01*
X42922047Y-111728058D01*
X42922050Y-111728065D01*
X43085385Y-112024337D01*
X43085388Y-112024341D01*
X43282624Y-112299225D01*
X43510988Y-112548853D01*
X43767273Y-112769719D01*
X43767278Y-112769722D01*
X43767280Y-112769724D01*
X43767284Y-112769727D01*
X44047877Y-112958720D01*
X44047879Y-112958721D01*
X44047882Y-112958723D01*
X44348875Y-113113212D01*
X44666028Y-113231017D01*
X44994887Y-113310485D01*
X45330837Y-113350500D01*
X45330844Y-113350500D01*
X45584502Y-113350500D01*
X45584504Y-113350500D01*
X45837731Y-113335472D01*
X46170721Y-113275626D01*
X46494295Y-113176816D01*
X46803912Y-113040429D01*
X47095224Y-112868380D01*
X47364143Y-112663085D01*
X47606894Y-112427424D01*
X47820068Y-112164707D01*
X48000674Y-111878620D01*
X48146176Y-111573181D01*
X48254531Y-111252677D01*
X48324219Y-110921607D01*
X48354261Y-110584618D01*
X48349244Y-110415382D01*
X256645739Y-110415382D01*
X256650757Y-110584630D01*
X256655765Y-110753560D01*
X256689066Y-110976636D01*
X256705717Y-111088175D01*
X256794895Y-111414535D01*
X256922047Y-111728058D01*
X256922050Y-111728065D01*
X257085385Y-112024337D01*
X257085388Y-112024341D01*
X257282624Y-112299225D01*
X257510988Y-112548853D01*
X257767273Y-112769719D01*
X257767278Y-112769722D01*
X257767280Y-112769724D01*
X257767284Y-112769727D01*
X258047877Y-112958720D01*
X258047879Y-112958721D01*
X258047882Y-112958723D01*
X258348875Y-113113212D01*
X258666028Y-113231017D01*
X258994887Y-113310485D01*
X259330837Y-113350500D01*
X259330844Y-113350500D01*
X259584502Y-113350500D01*
X259584504Y-113350500D01*
X259837731Y-113335472D01*
X260170721Y-113275626D01*
X260494295Y-113176816D01*
X260803912Y-113040429D01*
X261095224Y-112868380D01*
X261364143Y-112663085D01*
X261606894Y-112427424D01*
X261820068Y-112164707D01*
X262000674Y-111878620D01*
X262146176Y-111573181D01*
X262254531Y-111252677D01*
X262324219Y-110921607D01*
X262354261Y-110584618D01*
X262344235Y-110246442D01*
X262294283Y-109911825D01*
X262205105Y-109585465D01*
X262077953Y-109271942D01*
X261914612Y-108975659D01*
X261717376Y-108700775D01*
X261489012Y-108451147D01*
X261232727Y-108230281D01*
X261232722Y-108230277D01*
X261232719Y-108230275D01*
X261232715Y-108230272D01*
X260952122Y-108041279D01*
X260952118Y-108041277D01*
X260651125Y-107886788D01*
X260651120Y-107886786D01*
X260651118Y-107886785D01*
X260333976Y-107768984D01*
X260005114Y-107689515D01*
X260005109Y-107689514D01*
X259863057Y-107672594D01*
X259669163Y-107649500D01*
X259415496Y-107649500D01*
X259378932Y-107651669D01*
X259162274Y-107664527D01*
X259162263Y-107664529D01*
X258829278Y-107724374D01*
X258505701Y-107823185D01*
X258196087Y-107959570D01*
X258196082Y-107959573D01*
X257904784Y-108131614D01*
X257904767Y-108131626D01*
X257635855Y-108336916D01*
X257393103Y-108572579D01*
X257179929Y-108835297D01*
X257179924Y-108835303D01*
X256999328Y-109121376D01*
X256999323Y-109121385D01*
X256853825Y-109426815D01*
X256853819Y-109426831D01*
X256745469Y-109747319D01*
X256675780Y-110078394D01*
X256675780Y-110078399D01*
X256645739Y-110415369D01*
X256645739Y-110415378D01*
X256645739Y-110415382D01*
X48349244Y-110415382D01*
X48344235Y-110246442D01*
X48294283Y-109911825D01*
X48205105Y-109585465D01*
X48077953Y-109271942D01*
X47914612Y-108975659D01*
X47717376Y-108700775D01*
X47489012Y-108451147D01*
X47232727Y-108230281D01*
X47232722Y-108230277D01*
X47232719Y-108230275D01*
X47232715Y-108230272D01*
X46952122Y-108041279D01*
X46952118Y-108041277D01*
X46651125Y-107886788D01*
X46651120Y-107886786D01*
X46651118Y-107886785D01*
X46333976Y-107768984D01*
X46005114Y-107689515D01*
X46005109Y-107689514D01*
X45863057Y-107672594D01*
X45669163Y-107649500D01*
X45415496Y-107649500D01*
X45378932Y-107651669D01*
X45162274Y-107664527D01*
X45162263Y-107664529D01*
X44829278Y-107724374D01*
X44505701Y-107823185D01*
X44196087Y-107959570D01*
X44196082Y-107959573D01*
X43904784Y-108131614D01*
X43904767Y-108131626D01*
X43635855Y-108336916D01*
X43393103Y-108572579D01*
X43179929Y-108835297D01*
X43179924Y-108835303D01*
X42999328Y-109121376D01*
X42999323Y-109121385D01*
X42853825Y-109426815D01*
X42853819Y-109426831D01*
X42745469Y-109747319D01*
X42675780Y-110078394D01*
X42675780Y-110078399D01*
X42645739Y-110415369D01*
X42645739Y-110415378D01*
X42645739Y-110415382D01*
X40500500Y-110415382D01*
X40500500Y-91624000D01*
X40520185Y-91556961D01*
X40572989Y-91511206D01*
X40624500Y-91500000D01*
X254117631Y-91500000D01*
X254143077Y-91502638D01*
G37*
G04 #@! TD.AperFunction*
G04 #@! TA.AperFunction,Conductor*
G36*
X257949230Y-51020185D02*
G01*
X257994985Y-51072989D01*
X258004929Y-51142147D01*
X257975904Y-51205703D01*
X257967771Y-51214232D01*
X257858919Y-51318021D01*
X257760875Y-51411506D01*
X257481964Y-51733387D01*
X257234921Y-52080310D01*
X257234915Y-52080319D01*
X257021960Y-52449167D01*
X257021952Y-52449183D01*
X256845028Y-52836588D01*
X256845021Y-52836606D01*
X256705726Y-53239074D01*
X256705723Y-53239085D01*
X256605310Y-53652991D01*
X256544697Y-54074565D01*
X256524431Y-54500000D01*
X256544697Y-54925434D01*
X256605310Y-55347008D01*
X256705723Y-55760914D01*
X256705726Y-55760925D01*
X256845021Y-56163393D01*
X256845028Y-56163411D01*
X257021952Y-56550816D01*
X257021960Y-56550832D01*
X257234915Y-56919680D01*
X257234921Y-56919689D01*
X257481964Y-57266612D01*
X257760875Y-57588493D01*
X258069125Y-57882408D01*
X258069139Y-57882420D01*
X258403913Y-58145690D01*
X258403915Y-58145691D01*
X258762216Y-58375956D01*
X258762218Y-58375957D01*
X258762223Y-58375960D01*
X258762231Y-58375964D01*
X259140773Y-58571118D01*
X259340137Y-58650930D01*
X259536185Y-58729416D01*
X259944845Y-58849410D01*
X260363060Y-58930014D01*
X260787044Y-58970500D01*
X260787050Y-58970500D01*
X261212950Y-58970500D01*
X261212956Y-58970500D01*
X261636940Y-58930014D01*
X262055155Y-58849410D01*
X262463815Y-58729416D01*
X262859219Y-58571121D01*
X263237785Y-58375956D01*
X263596085Y-58145691D01*
X263930874Y-57882409D01*
X264239122Y-57588496D01*
X264281788Y-57539255D01*
X264340565Y-57501483D01*
X264410435Y-57501483D01*
X264469213Y-57539257D01*
X264498238Y-57602813D01*
X264499500Y-57620460D01*
X264499500Y-89376000D01*
X264479815Y-89443039D01*
X264427011Y-89488794D01*
X264375500Y-89500000D01*
X260317421Y-89500000D01*
X260250382Y-89480315D01*
X260204627Y-89427511D01*
X260194683Y-89358353D01*
X260223708Y-89294797D01*
X260237080Y-89281547D01*
X260328654Y-89203654D01*
X260487714Y-89016657D01*
X260614718Y-88806567D01*
X260706376Y-88578824D01*
X260760315Y-88339328D01*
X260770500Y-88195068D01*
X260770500Y-86454932D01*
X260760315Y-86310672D01*
X260706376Y-86071176D01*
X260614718Y-85843433D01*
X260487714Y-85633343D01*
X260422076Y-85556176D01*
X260328654Y-85446345D01*
X260199531Y-85336514D01*
X260141657Y-85287286D01*
X259931567Y-85160282D01*
X259703825Y-85068624D01*
X259464330Y-85014685D01*
X259464323Y-85014684D01*
X259320068Y-85004500D01*
X256679932Y-85004500D01*
X256535676Y-85014684D01*
X256535669Y-85014685D01*
X256296175Y-85068624D01*
X256296173Y-85068624D01*
X256068432Y-85160282D01*
X256068427Y-85160285D01*
X255858349Y-85287282D01*
X255858339Y-85287289D01*
X255671345Y-85446345D01*
X255512289Y-85633339D01*
X255512282Y-85633349D01*
X255385285Y-85843427D01*
X255385282Y-85843432D01*
X255293624Y-86071173D01*
X255293624Y-86071175D01*
X255239685Y-86310669D01*
X255239684Y-86310676D01*
X255229500Y-86454932D01*
X255229500Y-88195068D01*
X255239684Y-88339323D01*
X255239685Y-88339330D01*
X255293624Y-88578824D01*
X255293624Y-88578826D01*
X255385282Y-88806567D01*
X255512286Y-89016657D01*
X255512289Y-89016660D01*
X255671346Y-89203654D01*
X255709429Y-89236048D01*
X255747739Y-89294478D01*
X255748379Y-89364344D01*
X255711144Y-89423466D01*
X255647857Y-89453071D01*
X255629087Y-89454500D01*
X254418818Y-89454501D01*
X254317486Y-89460790D01*
X254143078Y-89497361D01*
X254117631Y-89500000D01*
X40624500Y-89500000D01*
X40557461Y-89480315D01*
X40511706Y-89427511D01*
X40500500Y-89376000D01*
X40500500Y-70415382D01*
X42645739Y-70415382D01*
X42650757Y-70584630D01*
X42655765Y-70753560D01*
X42689066Y-70976636D01*
X42705717Y-71088175D01*
X42794895Y-71414535D01*
X42922047Y-71728058D01*
X42922050Y-71728065D01*
X43085385Y-72024337D01*
X43085388Y-72024341D01*
X43282624Y-72299225D01*
X43510988Y-72548853D01*
X43767273Y-72769719D01*
X43767278Y-72769722D01*
X43767280Y-72769724D01*
X43767284Y-72769727D01*
X44047877Y-72958720D01*
X44047879Y-72958721D01*
X44047882Y-72958723D01*
X44348875Y-73113212D01*
X44666028Y-73231017D01*
X44994887Y-73310485D01*
X45330837Y-73350500D01*
X45330844Y-73350500D01*
X45584502Y-73350500D01*
X45584504Y-73350500D01*
X45837731Y-73335472D01*
X46170721Y-73275626D01*
X46494295Y-73176816D01*
X46803912Y-73040429D01*
X47095224Y-72868380D01*
X47364143Y-72663085D01*
X47606894Y-72427424D01*
X47820068Y-72164707D01*
X48000674Y-71878620D01*
X48146176Y-71573181D01*
X48254531Y-71252677D01*
X48324219Y-70921607D01*
X48354261Y-70584618D01*
X48349244Y-70415382D01*
X256645739Y-70415382D01*
X256650757Y-70584630D01*
X256655765Y-70753560D01*
X256689066Y-70976636D01*
X256705717Y-71088175D01*
X256794895Y-71414535D01*
X256922047Y-71728058D01*
X256922050Y-71728065D01*
X257085385Y-72024337D01*
X257085388Y-72024341D01*
X257282624Y-72299225D01*
X257510988Y-72548853D01*
X257767273Y-72769719D01*
X257767278Y-72769722D01*
X257767280Y-72769724D01*
X257767284Y-72769727D01*
X258047877Y-72958720D01*
X258047879Y-72958721D01*
X258047882Y-72958723D01*
X258348875Y-73113212D01*
X258666028Y-73231017D01*
X258994887Y-73310485D01*
X259330837Y-73350500D01*
X259330844Y-73350500D01*
X259584502Y-73350500D01*
X259584504Y-73350500D01*
X259837731Y-73335472D01*
X260170721Y-73275626D01*
X260494295Y-73176816D01*
X260803912Y-73040429D01*
X261095224Y-72868380D01*
X261364143Y-72663085D01*
X261606894Y-72427424D01*
X261820068Y-72164707D01*
X262000674Y-71878620D01*
X262146176Y-71573181D01*
X262254531Y-71252677D01*
X262324219Y-70921607D01*
X262354261Y-70584618D01*
X262344235Y-70246442D01*
X262294283Y-69911825D01*
X262205105Y-69585465D01*
X262077953Y-69271942D01*
X261914612Y-68975659D01*
X261717376Y-68700775D01*
X261489012Y-68451147D01*
X261232727Y-68230281D01*
X261232722Y-68230277D01*
X261232719Y-68230275D01*
X261232715Y-68230272D01*
X260952122Y-68041279D01*
X260952118Y-68041277D01*
X260651125Y-67886788D01*
X260651120Y-67886786D01*
X260651118Y-67886785D01*
X260333976Y-67768984D01*
X260005114Y-67689515D01*
X260005109Y-67689514D01*
X259863057Y-67672594D01*
X259669163Y-67649500D01*
X259415496Y-67649500D01*
X259378932Y-67651669D01*
X259162274Y-67664527D01*
X259162263Y-67664529D01*
X258829278Y-67724374D01*
X258505701Y-67823185D01*
X258196087Y-67959570D01*
X258196082Y-67959573D01*
X257904784Y-68131614D01*
X257904767Y-68131626D01*
X257635855Y-68336916D01*
X257393103Y-68572579D01*
X257179929Y-68835297D01*
X257179924Y-68835303D01*
X256999328Y-69121376D01*
X256999323Y-69121385D01*
X256853825Y-69426815D01*
X256853819Y-69426831D01*
X256745469Y-69747319D01*
X256675780Y-70078394D01*
X256675780Y-70078399D01*
X256645739Y-70415369D01*
X256645739Y-70415378D01*
X256645739Y-70415382D01*
X48349244Y-70415382D01*
X48344235Y-70246442D01*
X48294283Y-69911825D01*
X48205105Y-69585465D01*
X48077953Y-69271942D01*
X47914612Y-68975659D01*
X47717376Y-68700775D01*
X47489012Y-68451147D01*
X47232727Y-68230281D01*
X47232722Y-68230277D01*
X47232719Y-68230275D01*
X47232715Y-68230272D01*
X46952122Y-68041279D01*
X46952118Y-68041277D01*
X46651125Y-67886788D01*
X46651120Y-67886786D01*
X46651118Y-67886785D01*
X46333976Y-67768984D01*
X46005114Y-67689515D01*
X46005109Y-67689514D01*
X45863057Y-67672594D01*
X45669163Y-67649500D01*
X45415496Y-67649500D01*
X45378932Y-67651669D01*
X45162274Y-67664527D01*
X45162263Y-67664529D01*
X44829278Y-67724374D01*
X44505701Y-67823185D01*
X44196087Y-67959570D01*
X44196082Y-67959573D01*
X43904784Y-68131614D01*
X43904767Y-68131626D01*
X43635855Y-68336916D01*
X43393103Y-68572579D01*
X43179929Y-68835297D01*
X43179924Y-68835303D01*
X42999328Y-69121376D01*
X42999323Y-69121385D01*
X42853825Y-69426815D01*
X42853819Y-69426831D01*
X42745469Y-69747319D01*
X42675780Y-70078394D01*
X42675780Y-70078399D01*
X42645739Y-70415369D01*
X42645739Y-70415378D01*
X42645739Y-70415382D01*
X40500500Y-70415382D01*
X40500500Y-63034936D01*
X69699500Y-63034936D01*
X69739718Y-63301767D01*
X69739720Y-63301773D01*
X69819262Y-63559641D01*
X69936346Y-63802769D01*
X70088365Y-64025741D01*
X70271910Y-64223557D01*
X70271914Y-64223560D01*
X70271915Y-64223561D01*
X70482898Y-64391815D01*
X70716602Y-64526743D01*
X70967805Y-64625334D01*
X71230897Y-64685383D01*
X71259715Y-64687542D01*
X71432618Y-64700500D01*
X71432624Y-64700500D01*
X71567382Y-64700500D01*
X71718671Y-64689162D01*
X71769103Y-64685383D01*
X72032195Y-64625334D01*
X72283398Y-64526743D01*
X72517102Y-64391815D01*
X72728085Y-64223561D01*
X72911635Y-64025741D01*
X73063651Y-63802775D01*
X73180738Y-63559641D01*
X73260280Y-63301772D01*
X73300499Y-63034936D01*
X110199500Y-63034936D01*
X110239718Y-63301767D01*
X110239720Y-63301773D01*
X110319262Y-63559641D01*
X110436346Y-63802769D01*
X110588365Y-64025741D01*
X110771910Y-64223557D01*
X110771914Y-64223560D01*
X110771915Y-64223561D01*
X110982898Y-64391815D01*
X111216602Y-64526743D01*
X111467805Y-64625334D01*
X111730897Y-64685383D01*
X111759715Y-64687542D01*
X111932618Y-64700500D01*
X111932624Y-64700500D01*
X112067382Y-64700500D01*
X112218671Y-64689162D01*
X112269103Y-64685383D01*
X112532195Y-64625334D01*
X112783398Y-64526743D01*
X113017102Y-64391815D01*
X113228085Y-64223561D01*
X113411635Y-64025741D01*
X113563651Y-63802775D01*
X113680738Y-63559641D01*
X113760280Y-63301772D01*
X113800499Y-63034936D01*
X150699500Y-63034936D01*
X150739718Y-63301767D01*
X150739720Y-63301773D01*
X150819262Y-63559641D01*
X150936346Y-63802769D01*
X151088365Y-64025741D01*
X151271910Y-64223557D01*
X151271914Y-64223560D01*
X151271915Y-64223561D01*
X151482898Y-64391815D01*
X151716602Y-64526743D01*
X151967805Y-64625334D01*
X152230897Y-64685383D01*
X152259715Y-64687542D01*
X152432618Y-64700500D01*
X152432624Y-64700500D01*
X152567382Y-64700500D01*
X152718671Y-64689162D01*
X152769103Y-64685383D01*
X153032195Y-64625334D01*
X153283398Y-64526743D01*
X153517102Y-64391815D01*
X153728085Y-64223561D01*
X153911635Y-64025741D01*
X154063651Y-63802775D01*
X154180738Y-63559641D01*
X154260280Y-63301772D01*
X154300499Y-63034936D01*
X191199500Y-63034936D01*
X191239718Y-63301767D01*
X191239720Y-63301773D01*
X191319262Y-63559641D01*
X191436346Y-63802769D01*
X191588365Y-64025741D01*
X191771910Y-64223557D01*
X191771914Y-64223560D01*
X191771915Y-64223561D01*
X191982898Y-64391815D01*
X192216602Y-64526743D01*
X192467805Y-64625334D01*
X192730897Y-64685383D01*
X192759715Y-64687542D01*
X192932618Y-64700500D01*
X192932624Y-64700500D01*
X193067382Y-64700500D01*
X193218671Y-64689162D01*
X193269103Y-64685383D01*
X193532195Y-64625334D01*
X193783398Y-64526743D01*
X194017102Y-64391815D01*
X194228085Y-64223561D01*
X194411635Y-64025741D01*
X194563651Y-63802775D01*
X194680738Y-63559641D01*
X194760280Y-63301772D01*
X194800499Y-63034936D01*
X231699500Y-63034936D01*
X231739718Y-63301767D01*
X231739720Y-63301773D01*
X231819262Y-63559641D01*
X231936346Y-63802769D01*
X232088365Y-64025741D01*
X232271910Y-64223557D01*
X232271914Y-64223560D01*
X232271915Y-64223561D01*
X232482898Y-64391815D01*
X232716602Y-64526743D01*
X232967805Y-64625334D01*
X233230897Y-64685383D01*
X233259715Y-64687542D01*
X233432618Y-64700500D01*
X233432624Y-64700500D01*
X233567382Y-64700500D01*
X233718671Y-64689162D01*
X233769103Y-64685383D01*
X234032195Y-64625334D01*
X234283398Y-64526743D01*
X234517102Y-64391815D01*
X234728085Y-64223561D01*
X234911635Y-64025741D01*
X235063651Y-63802775D01*
X235180738Y-63559641D01*
X235260280Y-63301772D01*
X235300500Y-63034929D01*
X235300500Y-62765071D01*
X235260280Y-62498228D01*
X235180738Y-62240359D01*
X235063651Y-61997226D01*
X234911635Y-61774259D01*
X234901358Y-61763183D01*
X234728089Y-61576442D01*
X234687509Y-61544080D01*
X234517102Y-61408185D01*
X234283398Y-61273257D01*
X234283396Y-61273256D01*
X234032195Y-61174666D01*
X234032188Y-61174664D01*
X233769101Y-61114616D01*
X233567382Y-61099500D01*
X233567376Y-61099500D01*
X233432624Y-61099500D01*
X233432618Y-61099500D01*
X233230898Y-61114616D01*
X232967811Y-61174664D01*
X232967804Y-61174666D01*
X232716603Y-61273256D01*
X232716599Y-61273258D01*
X232482898Y-61408185D01*
X232271910Y-61576442D01*
X232088365Y-61774258D01*
X231936345Y-61997231D01*
X231936344Y-61997232D01*
X231819263Y-62240355D01*
X231739720Y-62498226D01*
X231739718Y-62498232D01*
X231699500Y-62765063D01*
X231699500Y-63034936D01*
X194800499Y-63034936D01*
X194800500Y-63034929D01*
X194800500Y-62765071D01*
X194760280Y-62498228D01*
X194680738Y-62240359D01*
X194563651Y-61997226D01*
X194411635Y-61774259D01*
X194401358Y-61763183D01*
X194228089Y-61576442D01*
X194187509Y-61544080D01*
X194017102Y-61408185D01*
X193783398Y-61273257D01*
X193783396Y-61273256D01*
X193532195Y-61174666D01*
X193532188Y-61174664D01*
X193269101Y-61114616D01*
X193067382Y-61099500D01*
X193067376Y-61099500D01*
X192932624Y-61099500D01*
X192932618Y-61099500D01*
X192730898Y-61114616D01*
X192467811Y-61174664D01*
X192467804Y-61174666D01*
X192216603Y-61273256D01*
X192216599Y-61273258D01*
X191982898Y-61408185D01*
X191771910Y-61576442D01*
X191588365Y-61774258D01*
X191436345Y-61997231D01*
X191436344Y-61997232D01*
X191319263Y-62240355D01*
X191239720Y-62498226D01*
X191239718Y-62498232D01*
X191199500Y-62765063D01*
X191199500Y-63034936D01*
X154300499Y-63034936D01*
X154300500Y-63034929D01*
X154300500Y-62765071D01*
X154260280Y-62498228D01*
X154180738Y-62240359D01*
X154063651Y-61997226D01*
X153911635Y-61774259D01*
X153901358Y-61763183D01*
X153728089Y-61576442D01*
X153687509Y-61544080D01*
X153517102Y-61408185D01*
X153283398Y-61273257D01*
X153283396Y-61273256D01*
X153032195Y-61174666D01*
X153032188Y-61174664D01*
X152769101Y-61114616D01*
X152567382Y-61099500D01*
X152567376Y-61099500D01*
X152432624Y-61099500D01*
X152432618Y-61099500D01*
X152230898Y-61114616D01*
X151967811Y-61174664D01*
X151967804Y-61174666D01*
X151716603Y-61273256D01*
X151716599Y-61273258D01*
X151482898Y-61408185D01*
X151271910Y-61576442D01*
X151088365Y-61774258D01*
X150936345Y-61997231D01*
X150936344Y-61997232D01*
X150819263Y-62240355D01*
X150739720Y-62498226D01*
X150739718Y-62498232D01*
X150699500Y-62765063D01*
X150699500Y-63034936D01*
X113800499Y-63034936D01*
X113800500Y-63034929D01*
X113800500Y-62765071D01*
X113760280Y-62498228D01*
X113680738Y-62240359D01*
X113563651Y-61997226D01*
X113411635Y-61774259D01*
X113401358Y-61763183D01*
X113228089Y-61576442D01*
X113187509Y-61544080D01*
X113017102Y-61408185D01*
X112783398Y-61273257D01*
X112783396Y-61273256D01*
X112532195Y-61174666D01*
X112532188Y-61174664D01*
X112269101Y-61114616D01*
X112067382Y-61099500D01*
X112067376Y-61099500D01*
X111932624Y-61099500D01*
X111932618Y-61099500D01*
X111730898Y-61114616D01*
X111467811Y-61174664D01*
X111467804Y-61174666D01*
X111216603Y-61273256D01*
X111216599Y-61273258D01*
X110982898Y-61408185D01*
X110771910Y-61576442D01*
X110588365Y-61774258D01*
X110436345Y-61997231D01*
X110436344Y-61997232D01*
X110319263Y-62240355D01*
X110239720Y-62498226D01*
X110239718Y-62498232D01*
X110199500Y-62765063D01*
X110199500Y-63034936D01*
X73300499Y-63034936D01*
X73300500Y-63034929D01*
X73300500Y-62765071D01*
X73260280Y-62498228D01*
X73180738Y-62240359D01*
X73063651Y-61997226D01*
X72911635Y-61774259D01*
X72901358Y-61763183D01*
X72728089Y-61576442D01*
X72687509Y-61544080D01*
X72517102Y-61408185D01*
X72283398Y-61273257D01*
X72283396Y-61273256D01*
X72032195Y-61174666D01*
X72032188Y-61174664D01*
X71769101Y-61114616D01*
X71567382Y-61099500D01*
X71567376Y-61099500D01*
X71432624Y-61099500D01*
X71432618Y-61099500D01*
X71230898Y-61114616D01*
X70967811Y-61174664D01*
X70967804Y-61174666D01*
X70716603Y-61273256D01*
X70716599Y-61273258D01*
X70482898Y-61408185D01*
X70271910Y-61576442D01*
X70088365Y-61774258D01*
X69936345Y-61997231D01*
X69936344Y-61997232D01*
X69819263Y-62240355D01*
X69739720Y-62498226D01*
X69739718Y-62498232D01*
X69699500Y-62765063D01*
X69699500Y-63034936D01*
X40500500Y-63034936D01*
X40500500Y-57620460D01*
X40520185Y-57553421D01*
X40572989Y-57507666D01*
X40642147Y-57497722D01*
X40705703Y-57526747D01*
X40718207Y-57539251D01*
X40760878Y-57588496D01*
X41069125Y-57882408D01*
X41069139Y-57882420D01*
X41403913Y-58145690D01*
X41403915Y-58145691D01*
X41762216Y-58375956D01*
X41762218Y-58375957D01*
X41762223Y-58375960D01*
X41762231Y-58375964D01*
X42140773Y-58571118D01*
X42340137Y-58650930D01*
X42536185Y-58729416D01*
X42944845Y-58849410D01*
X43363060Y-58930014D01*
X43787044Y-58970500D01*
X43787050Y-58970500D01*
X44212950Y-58970500D01*
X44212956Y-58970500D01*
X44636940Y-58930014D01*
X45055155Y-58849410D01*
X45463815Y-58729416D01*
X45859219Y-58571121D01*
X46237785Y-58375956D01*
X46596085Y-58145691D01*
X46930874Y-57882409D01*
X47239122Y-57588496D01*
X47518035Y-57266613D01*
X47765088Y-56919675D01*
X47978044Y-56550824D01*
X48072788Y-56343363D01*
X48154971Y-56163411D01*
X48154978Y-56163393D01*
X48294273Y-55760925D01*
X48294273Y-55760922D01*
X48294277Y-55760913D01*
X48394690Y-55347007D01*
X48455303Y-54925430D01*
X48475569Y-54500000D01*
X48455303Y-54074570D01*
X48394690Y-53652993D01*
X48294277Y-53239087D01*
X48294273Y-53239074D01*
X48154978Y-52836606D01*
X48154971Y-52836588D01*
X47978047Y-52449183D01*
X47978044Y-52449176D01*
X47765088Y-52080325D01*
X47765084Y-52080319D01*
X47765078Y-52080310D01*
X47518035Y-51733387D01*
X47239124Y-51411506D01*
X47239122Y-51411504D01*
X47032237Y-51214240D01*
X46997304Y-51153734D01*
X47000629Y-51083944D01*
X47041157Y-51027030D01*
X47106022Y-51001062D01*
X47117809Y-51000500D01*
X257882191Y-51000500D01*
X257949230Y-51020185D01*
G37*
G04 #@! TD.AperFunction*
M02*
